<?xml version="1.0" encoding="UTF-8" standalone="no"?>
<svg
   width="56"
   height="232"
   version="1.1"
   id="svg854"
   sodipodi:docname="gun-dp28-01.svg"
   inkscape:version="1.4 (e7c3feb1, 2024-10-09)"
   xmlns:inkscape="http://www.inkscape.org/namespaces/inkscape"
   xmlns:sodipodi="http://sodipodi.sourceforge.net/DTD/sodipodi-0.dtd"
   xmlns="http://www.w3.org/2000/svg"
   xmlns:svg="http://www.w3.org/2000/svg"
   xmlns:rdf="http://www.w3.org/1999/02/22-rdf-syntax-ns#"
   xmlns:cc="http://creativecommons.org/ns#"
   xmlns:dc="http://purl.org/dc/elements/1.1/">
  <metadata
     id="metadata858">
    <rdf:RDF>
      <cc:Work
         rdf:about="">
        <dc:format>image/svg+xml</dc:format>
        <dc:type
           rdf:resource="http://purl.org/dc/dcmitype/StillImage" />
      </cc:Work>
    </rdf:RDF>
  </metadata>
  <sodipodi:namedview
     pagecolor="#ffffff"
     bordercolor="#666666"
     borderopacity="1"
     objecttolerance="10"
     gridtolerance="10"
     guidetolerance="10"
     inkscape:pageopacity="0"
     inkscape:pageshadow="2"
     inkscape:window-width="1104"
     inkscape:window-height="245"
     id="namedview856"
     showgrid="true"
     fit-margin-top="1"
     fit-margin-left="1"
     fit-margin-bottom="1"
     fit-margin-right="1"
     inkscape:zoom="2.8284271"
     inkscape:cx="-18.208"
     inkscape:cy="174.65538"
     inkscape:window-x="51"
     inkscape:window-y="34"
     inkscape:window-maximized="0"
     inkscape:current-layer="svg854"
     inkscape:showpageshadow="false"
     inkscape:object-paths="true"
     inkscape:snap-intersection-paths="true"
     inkscape:snap-smooth-nodes="true"
     inkscape:snap-midpoints="true"
     inkscape:pagecheckerboard="1"
     inkscape:deskcolor="#505050">
    <inkscape:grid
       type="xygrid"
       id="grid816"
       empspacing="4"
       spacingy="2"
       spacingx="2"
       originx="0"
       originy="0"
       units="px"
       visible="true"
       enabled="true" />
  </sodipodi:namedview>
  <defs
     id="defs850">
    <clipPath
       clipPathUnits="userSpaceOnUse"
       id="clipPath5">
      <path
         style="fill:#333333;fill-opacity:1;stroke:#000000;stroke-width:1px;stroke-linecap:butt;stroke-linejoin:miter;stroke-opacity:1"
         d="m 130,74.95535 -4,4 v 20 h 28 v -20 l -4,-4 z"
         id="path5"
         sodipodi:nodetypes="ccccccc" />
    </clipPath>
    <clipPath
       clipPathUnits="userSpaceOnUse"
       id="clipPath7">
      <path
         style="fill:none;fill-opacity:1;stroke:#000000;stroke-width:1px;stroke-linecap:butt;stroke-linejoin:miter;stroke-opacity:1"
         d="m 126,90.95535 v 62 h 28 v -62 z"
         id="path8"
         sodipodi:nodetypes="ccccc" />
    </clipPath>
    <clipPath
       clipPathUnits="userSpaceOnUse"
       id="clipPath19">
      <path
         style="fill:#010101;fill-opacity:1;stroke:none;stroke-width:1px;stroke-linecap:butt;stroke-linejoin:miter;stroke-opacity:1"
         d="m 14,134 h 28 v 66 H 14 Z"
         id="path20"
         sodipodi:nodetypes="ccccc" />
    </clipPath>
    <clipPath
       clipPathUnits="userSpaceOnUse"
       id="clipPath24">
      <path
         style="fill:none;stroke:#000000;stroke-width:1px;stroke-linecap:butt;stroke-linejoin:miter;stroke-opacity:1"
         d="m 14,192 v 40 h 28 v -40 z"
         id="path25"
         sodipodi:nodetypes="ccccc" />
    </clipPath>
    <clipPath
       clipPathUnits="userSpaceOnUse"
       id="clipPath27">
      <path
         style="fill:none;stroke:#000000;stroke-width:1px;stroke-linecap:butt;stroke-linejoin:miter;stroke-opacity:1"
         d="m 14,224 h 28 v 8 l -2,2 v 46 H 16 v -46 l -2,-2 z"
         id="path28" />
    </clipPath>
  </defs>
  <path
     style="fill:#000000;fill-opacity:1;stroke:none;stroke-width:1px;stroke-linecap:butt;stroke-linejoin:miter;stroke-opacity:1"
     d="M 22,124 V 69 h 12 v 55 z"
     id="path13"
     sodipodi:nodetypes="ccccc" />
  <path
     style="fill:#000000;fill-opacity:1;stroke:none;stroke-width:1px;stroke-linecap:butt;stroke-linejoin:miter;stroke-opacity:1"
     d="M 18,4 H 38 L 34,24 V 52 H 22 V 24 Z"
     id="path2"
     sodipodi:nodetypes="ccccccc" />
  <path
     style="fill:#282828;fill-opacity:1;stroke:#000000;stroke-width:16;stroke-linecap:butt;stroke-linejoin:miter;stroke-dasharray:none;stroke-opacity:1"
     d="m 130,74.95535 -4,4 v 20 h 28 v -20 l -4,-4 z"
     id="path3"
     clip-path="url(#clipPath5)"
     sodipodi:nodetypes="ccccccc"
     transform="translate(-112,-26.95535)" />
  <path
     style="fill:none;fill-opacity:1;stroke:#000000;stroke-width:8;stroke-linecap:butt;stroke-linejoin:miter;stroke-dasharray:none;stroke-opacity:1"
     d="m 126,90.95535 v 62 h 28 v -62 z"
     id="path6"
     clip-path="url(#clipPath7)"
     sodipodi:nodetypes="ccccc"
     transform="translate(-112,-26.95535)" />
  <path
     style="fill:#000000;fill-opacity:1;stroke:none;stroke-width:1px;stroke-linecap:butt;stroke-linejoin:miter;stroke-opacity:1"
     d="m 22,69 h -4 v 3 l 2,2 v 6 l -2,2 v 3 l 2,2 v 6 l -2,2 v 3 l 2,2 v 6 l -2,2 v 3 l 2,2 v 3 l -2,2 v 6 h 4 z"
     id="path14"
     sodipodi:nodetypes="ccccccccccccccccccccc" />
  <path
     style="fill:#000000;fill-opacity:1;stroke:none;stroke-width:1px;stroke-linecap:butt;stroke-linejoin:miter;stroke-opacity:1"
     d="m 34,124 h 4 v -6 l -2,-2 v -3 l 2,-2 v -3 l -2,-2 v -6 l 2,-2 v -3 l -2,-2 v -6 l 2,-2 v -3 l -2,-2 v -6 l 2,-2 v -3 h -4 z"
     id="path15"
     sodipodi:nodetypes="ccccccccccccccccccccc" />
  <path
     style="fill:#282828;fill-opacity:1;stroke:none;stroke-width:1px;stroke-linecap:butt;stroke-linejoin:miter;stroke-opacity:1"
     d="m 27,72 h 2 l 2,2 v 6 l -2,2 h -2 l -2,-2 v -6 z"
     id="path16" />
  <path
     style="fill:#282828;fill-opacity:1;stroke:none;stroke-width:1px;stroke-linecap:butt;stroke-linejoin:miter;stroke-opacity:1"
     d="m 27,85 h 2 l 2,2 v 6 l -2,2 h -2 l -2,-2 v -6 z"
     id="path16-7" />
  <path
     style="fill:#282828;fill-opacity:1;stroke:none;stroke-width:1px;stroke-linecap:butt;stroke-linejoin:miter;stroke-opacity:1"
     d="m 27,98 h 2 l 2,2 v 6 l -2,2 h -2 l -2,-2 v -6 z"
     id="path16-72" />
  <path
     style="fill:#282828;fill-opacity:1;stroke:#000000;stroke-width:16;stroke-linecap:butt;stroke-linejoin:miter;stroke-dasharray:none;stroke-opacity:1"
     d="m 14,134 h 28 v 66 H 14 Z"
     id="path18"
     sodipodi:nodetypes="ccccc"
     clip-path="url(#clipPath19)"
     transform="translate(0,-16)" />
  <path
     style="fill:#282828;fill-opacity:1;stroke:#000000;stroke-width:16;stroke-linecap:butt;stroke-linejoin:miter;stroke-dasharray:none;stroke-opacity:1"
     d="m 14,192 v 40 h 28 v -40 z"
     id="path23"
     clip-path="url(#clipPath24)"
     sodipodi:nodetypes="ccccc"
     transform="translate(0,-16)" />
  <path
     style="fill:#000000;fill-opacity:1;stroke:none;stroke-width:1px;stroke-linecap:butt;stroke-linejoin:miter;stroke-opacity:1"
     d="m 25,186 h 6 v 10 h 1 v 6 h -8 v -6 h 1 z"
     id="path22"
     sodipodi:nodetypes="ccccccccc" />
  <path
     style="fill:#48220b;fill-opacity:1;stroke:#000000;stroke-width:16;stroke-linecap:butt;stroke-linejoin:miter;stroke-dasharray:none;stroke-opacity:1"
     d="m 14,224 h 28 v 8 l -2,2 v 46 H 16 v -46 l -2,-2 z"
     id="path26"
     clip-path="url(#clipPath27)"
     transform="translate(0,-16)" />
  <path
     style="fill:#000000;fill-opacity:1;stroke:none;stroke-width:1px;stroke-linecap:butt;stroke-linejoin:miter;stroke-opacity:1"
     d="m 42,134 h 6 v 6 h -6 z"
     id="path1"
     sodipodi:nodetypes="ccccc" />
</svg>
