<?xml version="1.0" encoding="UTF-8" standalone="no"?>
<svg
   width="176"
   height="248"
   version="1.1"
   id="svg854"
   sodipodi:docname="gun-bar-01.svg"
   inkscape:version="1.4 (e7c3feb1, 2024-10-09)"
   xmlns:inkscape="http://www.inkscape.org/namespaces/inkscape"
   xmlns:sodipodi="http://sodipodi.sourceforge.net/DTD/sodipodi-0.dtd"
   xmlns="http://www.w3.org/2000/svg"
   xmlns:svg="http://www.w3.org/2000/svg"
   xmlns:rdf="http://www.w3.org/1999/02/22-rdf-syntax-ns#"
   xmlns:cc="http://creativecommons.org/ns#"
   xmlns:dc="http://purl.org/dc/elements/1.1/">
  <metadata
     id="metadata858">
    <rdf:RDF>
      <cc:Work
         rdf:about="">
        <dc:format>image/svg+xml</dc:format>
        <dc:type
           rdf:resource="http://purl.org/dc/dcmitype/StillImage" />
      </cc:Work>
    </rdf:RDF>
  </metadata>
  <sodipodi:namedview
     pagecolor="#ffffff"
     bordercolor="#666666"
     borderopacity="1"
     objecttolerance="10"
     gridtolerance="10"
     guidetolerance="10"
     inkscape:pageopacity="0"
     inkscape:pageshadow="2"
     inkscape:window-width="1104"
     inkscape:window-height="245"
     id="namedview856"
     showgrid="true"
     fit-margin-top="1"
     fit-margin-left="1"
     fit-margin-bottom="1"
     fit-margin-right="1"
     inkscape:zoom="3.3027142"
     inkscape:cx="57.679832"
     inkscape:cy="35.425409"
     inkscape:window-x="51"
     inkscape:window-y="34"
     inkscape:window-maximized="0"
     inkscape:current-layer="svg854"
     inkscape:showpageshadow="false"
     inkscape:object-paths="true"
     inkscape:snap-intersection-paths="true"
     inkscape:snap-smooth-nodes="true"
     inkscape:snap-midpoints="true"
     inkscape:snap-nodes="true"
     inkscape:pagecheckerboard="1"
     inkscape:deskcolor="#505050">
    <inkscape:grid
       type="xygrid"
       id="grid816"
       empspacing="8"
       spacingy="1"
       spacingx="1"
       originx="0"
       originy="0"
       units="px"
       visible="true" />
  </sodipodi:namedview>
  <defs
     id="defs850">
    <clipPath
       clipPathUnits="userSpaceOnUse"
       id="clipPath6">
      <path
         style="fill:#502700;fill-opacity:1;stroke:#000000;stroke-width:1px;stroke-linecap:butt;stroke-linejoin:miter;stroke-opacity:1"
         d="m 76,112 -6,7 v 42 l 6,7 h 24 l 6,-7 v -42 l -6,-7 z"
         id="path7"
         sodipodi:nodetypes="ccccccccc" />
    </clipPath>
    <clipPath
       clipPathUnits="userSpaceOnUse"
       id="clipPath11">
      <path
         style="fill:#502700;fill-opacity:1;stroke:#000000;stroke-width:1px;stroke-linecap:butt;stroke-linejoin:miter;stroke-opacity:1"
         d="M 64,138 61.333333,141.75 64,153 61.333333,164.25 64,168 H 48 L 50.666667,164.25 48,153 50.666667,141.75 48,138 Z"
         id="path12"
         sodipodi:nodetypes="ccccccccccc" />
    </clipPath>
    <clipPath
       clipPathUnits="userSpaceOnUse"
       id="clipPath14">
      <path
         style="fill:none;stroke:#000000;stroke-width:1px;stroke-linecap:butt;stroke-linejoin:miter;stroke-opacity:1"
         d="m 81,38 -2,2 v 100 l -1,4 v 15 l -3,3 h 26 l -3,-3 v -15 l -1,-4 V 40 l -2,-2 z"
         id="path15"
         sodipodi:nodetypes="ccccccccccccc" />
    </clipPath>
    <clipPath
       clipPathUnits="userSpaceOnUse"
       id="clipPath27">
      <path
         style="fill:none;stroke:#000000;stroke-width:1px;stroke-linecap:butt;stroke-linejoin:miter;stroke-opacity:1"
         d="m 76,228 v 44 h 24 v -44 z"
         id="path28"
         sodipodi:nodetypes="ccccc" />
    </clipPath>
    <clipPath
       clipPathUnits="userSpaceOnUse"
       id="clipPath33-9">
      <path
         style="fill:#000000;fill-opacity:1;stroke:none;stroke-width:1px;stroke-linecap:butt;stroke-linejoin:miter;stroke-opacity:1"
         d="M 79,194 H 67 v 11 h 12 z"
         id="path34-4"
         sodipodi:nodetypes="ccccc" />
    </clipPath>
    <clipPath
       clipPathUnits="userSpaceOnUse"
       id="clipPath12">
      <path
         style="fill:#282828;fill-opacity:1;stroke:none;stroke-width:1px;stroke-linecap:butt;stroke-linejoin:miter;stroke-opacity:1"
         d="m 74,172 v 60 l 2,2 h 24 l 2,-2 v -60 l -2,-3 H 76 Z"
         id="path14"
         sodipodi:nodetypes="ccccccccc" />
    </clipPath>
  </defs>
  <path
     style="fill:#585858;fill-opacity:1;stroke:#000000;stroke-width:16;stroke-linecap:butt;stroke-linejoin:miter;stroke-dasharray:none;stroke-opacity:1"
     d="m 81,38 -2,2 v 100 l -1,4 v 15 l -3,3 h 26 l -3,-3 v -15 l -1,-4 V 40 l -2,-2 z"
     id="path13"
     clip-path="url(#clipPath14)"
     transform="translate(0,-6)"
     sodipodi:nodetypes="ccccccccccccc" />
  <path
     style="fill:#8d4600;fill-opacity:1;stroke:#000000;stroke-width:16;stroke-linecap:butt;stroke-linejoin:miter;stroke-dasharray:none;stroke-opacity:1"
     d="m 76,112 -6,7 v 42 l 6,7 h 24 l 6,-7 v -42 l -6,-7 z"
     id="path6"
     clip-path="url(#clipPath6)"
     sodipodi:nodetypes="ccccccccc"
     transform="translate(0,-6)" />
  <path
     style="fill:#000000;fill-opacity:1;stroke:none;stroke-width:0.999999px;stroke-linecap:butt;stroke-linejoin:miter;stroke-opacity:1"
     d="M 78,44.000001 V 55.999999 H 98 V 44.000001 Z"
     id="path2"
     sodipodi:nodetypes="ccccc" />
  <path
     style="fill:#000000;stroke:none;stroke-width:1px;stroke-linecap:butt;stroke-linejoin:miter;stroke-opacity:1;fill-opacity:1"
     d="m 81,114 v 40 h 14 v -40 z"
     id="path4" />
  <path
     style="fill:#000000;fill-opacity:1;stroke:none;stroke-width:1px;stroke-linecap:butt;stroke-linejoin:miter;stroke-opacity:1"
     d="m 76,69 v 12 h 24 V 69 Z"
     id="path2-2"
     sodipodi:nodetypes="ccccc" />
  <path
     style="fill:#8d4600;fill-opacity:1;stroke:#000000;stroke-width:10.9545;stroke-linecap:butt;stroke-linejoin:miter;stroke-dasharray:none;stroke-opacity:1"
     d="M 64,138 61.333333,141.75 64,153 61.333333,164.25 64,168 H 48 L 50.666667,164.25 48,153 50.666667,141.75 48,138 Z"
     id="path10"
     clip-path="url(#clipPath11)"
     transform="matrix(1.125,0,0,1.0666667,-6.9999996,-16.200005)"
     sodipodi:nodetypes="ccccccccccc" />
  <path
     style="fill:#585858;stroke:none;stroke-width:1px;stroke-linecap:butt;stroke-linejoin:miter;stroke-opacity:1;fill-opacity:1"
     d="m 87,106 v 48 h 2 v -48 z"
     id="path5" />
  <path
     style="fill:#404040;fill-opacity:1;stroke:#000000;stroke-width:16;stroke-linecap:butt;stroke-linejoin:miter;stroke-dasharray:none;stroke-opacity:1"
     d="m 74,172 v 60 l 2,2 h 24 l 2,-2 v -60 l -2,-3 H 76 Z"
     id="path20"
     clip-path="url(#clipPath12)"
     sodipodi:nodetypes="ccccccccc" />
  <path
     style="fill:#000000;stroke:none;stroke-width:1px;stroke-linecap:butt;stroke-linejoin:miter;stroke-opacity:1;fill-opacity:1"
     d="m 74,188 -2,2 v 14 l 3,2 h 27 l 2,-2 v -14 l -2,-2 z"
     id="path25"
     sodipodi:nodetypes="ccccccccc" />
  <path
     style="fill:#502700;fill-opacity:1;stroke:#000000;stroke-width:16;stroke-linecap:butt;stroke-linejoin:miter;stroke-dasharray:none;stroke-opacity:1"
     d="m 76,228 v 44 h 24 v -44 z"
     id="path26"
     clip-path="url(#clipPath27)"
     sodipodi:nodetypes="ccccc" />
  <path
     style="fill:#000000;fill-opacity:1;stroke:none;stroke-width:1px;stroke-linecap:butt;stroke-linejoin:miter;stroke-opacity:1"
     d="M 97,130 V 119 H 79 l -1,2 -26,5 v 4 z"
     id="path9"
     sodipodi:nodetypes="ccccccc" />
  <path
     style="fill:#000000;fill-opacity:1;stroke:none;stroke-width:1px;stroke-linecap:butt;stroke-linejoin:miter;stroke-opacity:1"
     d="m 76,169 v -7 h 24 v 7 z"
     id="path29"
     sodipodi:nodetypes="ccccc" />
  <path
     style="fill:#000000;fill-opacity:1;stroke:none;stroke-width:1px;stroke-linecap:butt;stroke-linejoin:miter;stroke-opacity:1"
     d="m 74,188 -2,2 v 34 l 2,2 z"
     id="path31"
     sodipodi:nodetypes="ccccc" />
  <rect
     style="fill:#000000;fill-opacity:1;stroke:none;stroke-width:4;stroke-linejoin:round;stroke-miterlimit:10;stroke-dasharray:none;stroke-opacity:1"
     id="rect34"
     width="8"
     height="14"
     x="84"
     y="210" />
  <path
     style="fill:#585858;fill-opacity:1;stroke:#000000;stroke-width:8;stroke-linecap:butt;stroke-linejoin:miter;stroke-dasharray:none;stroke-opacity:1"
     d="M 79,194 H 67 v 11 h 12 z"
     id="path32"
     clip-path="url(#clipPath33-9)"
     sodipodi:nodetypes="ccccc"
     transform="translate(-1)" />
  <path
     style="fill:#343434;stroke:none;stroke-width:1px;stroke-linecap:butt;stroke-linejoin:miter;stroke-opacity:1;fill-opacity:1"
     d="m 79,194 v 6 h 18 v -6 z"
     id="path8" />
  <path
     style="fill:#282828;fill-opacity:1;stroke:none;stroke-width:1px;stroke-linecap:butt;stroke-linejoin:miter;stroke-opacity:1"
     d="m 84,161 v 10 h 8 v -10 z"
     id="path11"
     sodipodi:nodetypes="ccccc" />
  <path
     style="fill:#000000;stroke:none;stroke-width:1px;stroke-linecap:butt;stroke-linejoin:miter;stroke-opacity:1;fill-opacity:1"
     d="m 52,130 v 1 h 8 v -1 z"
     id="path1" />
</svg>
