<?xml version="1.0" encoding="UTF-8" standalone="no"?>
<svg
   width="56"
   height="232"
   version="1.1"
   id="svg854"
   sodipodi:docname="gun-spas12-01.svg"
   inkscape:version="1.4 (e7c3feb1, 2024-10-09)"
   inkscape:export-filename="gun-splitter-01.png"
   inkscape:export-xdpi="96"
   inkscape:export-ydpi="96"
   xmlns:inkscape="http://www.inkscape.org/namespaces/inkscape"
   xmlns:sodipodi="http://sodipodi.sourceforge.net/DTD/sodipodi-0.dtd"
   xmlns="http://www.w3.org/2000/svg"
   xmlns:svg="http://www.w3.org/2000/svg"
   xmlns:rdf="http://www.w3.org/1999/02/22-rdf-syntax-ns#"
   xmlns:cc="http://creativecommons.org/ns#"
   xmlns:dc="http://purl.org/dc/elements/1.1/">
  <metadata
     id="metadata858">
    <rdf:RDF>
      <cc:Work
         rdf:about="">
        <dc:format>image/svg+xml</dc:format>
        <dc:type
           rdf:resource="http://purl.org/dc/dcmitype/StillImage" />
      </cc:Work>
    </rdf:RDF>
  </metadata>
  <sodipodi:namedview
     pagecolor="#ffffff"
     bordercolor="#666666"
     borderopacity="1"
     objecttolerance="10"
     gridtolerance="10"
     guidetolerance="10"
     inkscape:pageopacity="0"
     inkscape:pageshadow="2"
     inkscape:window-width="1464"
     inkscape:window-height="921"
     id="namedview856"
     showgrid="true"
     fit-margin-top="1"
     fit-margin-left="1"
     fit-margin-bottom="1"
     fit-margin-right="1"
     inkscape:zoom="3.6280665"
     inkscape:cx="18.467137"
     inkscape:cy="156.83285"
     inkscape:window-x="279"
     inkscape:window-y="176"
     inkscape:window-maximized="0"
     inkscape:current-layer="svg854"
     inkscape:showpageshadow="false"
     inkscape:object-paths="true"
     inkscape:snap-intersection-paths="true"
     inkscape:snap-smooth-nodes="true"
     inkscape:snap-midpoints="true"
     inkscape:pagecheckerboard="1"
     inkscape:deskcolor="#505050"
     showguides="true">
    <inkscape:grid
       type="xygrid"
       id="grid816"
       empspacing="4"
       spacingy="2"
       spacingx="2"
       originx="0"
       originy="0"
       units="px"
       visible="true"
       enabled="true" />
    <inkscape:page
       x="0"
       y="0"
       width="56"
       height="232"
       id="page2"
       margin="0"
       bleed="0" />
  </sodipodi:namedview>
  <defs
     id="defs850" />
  <rect
     style="fill:#446178;fill-opacity:1;stroke:#000000;stroke-width:7.99999;stroke-linecap:round;stroke-dasharray:none;stroke-opacity:1"
     id="rect6-1-1-7"
     width="17.00001"
     height="140"
     x="19.499996"
     y="100.00001" />
  <rect
     style="fill:#384047;fill-opacity:1;stroke:#000000;stroke-width:7.99999;stroke-linecap:round;stroke-dasharray:none;stroke-opacity:1"
     id="rect6-1-1-3"
     width="13"
     height="166"
     x="21.5"
     y="77.000008"
     ry="2.7687235" />
  <rect
     ry="0"
     rx="0"
     y="190.5"
     x="21"
     height="58.000004"
     width="14"
     id="rect5-1-5"
     style="fill:#39556a;fill-opacity:1;stroke:#000000;stroke-width:7;stroke-linecap:butt;stroke-linejoin:miter;stroke-miterlimit:4;stroke-dasharray:none;stroke-opacity:1" />
  <path
     style="opacity:1;fill:#4d7089;fill-opacity:1;stroke:#000000;stroke-width:8;stroke-linecap:square;stroke-linejoin:round;stroke-dasharray:none;stroke-opacity:1"
     d="m 17.5,107.5 h 21 l 1.5,41 -4,14 H 20 l -4,-14 z"
     id="path10"
     sodipodi:nodetypes="ccccccc" />
  <rect
     style="fill:#4d7089;fill-opacity:1;stroke:#000000;stroke-width:7.99997;stroke-linecap:round;stroke-dasharray:none;stroke-opacity:1"
     id="rect6-1-1-7-9"
     width="23.00001"
     height="46.000011"
     x="16.499996"
     y="155.99998"
     ry="5.8835373" />
  <rect
     y="-50"
     x="166.5"
     height="11"
     width="7"
     id="rect1037-6-2-1"
     style="fill:#000000;fill-opacity:1;stroke:#000000;stroke-width:4;stroke-linecap:butt;stroke-linejoin:miter;stroke-miterlimit:10;stroke-dasharray:none;stroke-opacity:1"
     transform="rotate(90)" />
  <rect
     style="opacity:0.3;fill:#000000;fill-opacity:1;stroke:none;stroke-width:10.8019;stroke-dasharray:none;stroke-opacity:1"
     id="rect11-3-0"
     width="22"
     height="28"
     x="17"
     y="158" />
  <circle
     style="fill:#000000;fill-opacity:1;stroke:none;stroke-width:6.34817;stroke-dasharray:none"
     id="path11-8"
     cx="28"
     cy="172"
     r="6" />
  <rect
     style="fill:#050000;fill-opacity:1;stroke:none;stroke-width:8.00003;stroke-linecap:square;stroke-linejoin:round;stroke-dasharray:none;stroke-opacity:1"
     id="rect6"
     width="25"
     height="4"
     x="15.5"
     y="185" />
  <path
     style="fill:#000000;fill-opacity:1;stroke:none;stroke-width:0.999996px;stroke-linecap:butt;stroke-linejoin:miter;stroke-opacity:1"
     d="m 30.66667,113.21868 h 1.66666 l 1.66667,2 v 6 l -1.66667,2 h -1.66666 l -1.66667,-2 v -6 z"
     id="path16-72-3-1" />
  <path
     style="fill:#000000;fill-opacity:1;stroke:none;stroke-width:0.999996px;stroke-linecap:butt;stroke-linejoin:miter;stroke-opacity:1"
     d="m 30.66667,126.21868 h 1.66666 l 1.66667,2 v 6 l -1.66667,2 h -1.66666 l -1.66667,-2 v -6 z"
     id="path16-72-3-52-2" />
  <path
     style="fill:#000000;fill-opacity:1;stroke:none;stroke-width:0.999996px;stroke-linecap:butt;stroke-linejoin:miter;stroke-opacity:1"
     d="m 30.66667,139.21868 h 1.66666 l 1.66667,2 v 6 l -1.66667,2 h -1.66666 l -1.66667,-2 v -6 z"
     id="path16-72-3-52-4-3" />
  <path
     style="fill:#000000;fill-opacity:1;stroke:none;stroke-width:0.999996px;stroke-linecap:butt;stroke-linejoin:miter;stroke-opacity:1"
     d="m 23.66667,113.21868 h 1.66666 l 1.66667,2 v 6 l -1.66667,2 h -1.66666 l -1.66667,-2 v -6 z"
     id="path16-72-3-9-7" />
  <path
     style="fill:#000000;fill-opacity:1;stroke:none;stroke-width:0.999996px;stroke-linecap:butt;stroke-linejoin:miter;stroke-opacity:1"
     d="m 23.66667,126.21868 h 1.66666 l 1.66667,2 v 6 l -1.66667,2 h -1.66666 l -1.66667,-2 v -6 z"
     id="path16-72-3-52-43-2" />
  <path
     style="fill:#000000;fill-opacity:1;stroke:none;stroke-width:0.999996px;stroke-linecap:butt;stroke-linejoin:miter;stroke-opacity:1"
     d="m 23.66667,139.21868 h 1.66666 l 1.66667,2 v 6 l -1.66667,2 h -1.66666 l -1.66667,-2 v -6 z"
     id="path16-72-3-52-4-9-4" />
  <path
     style="fill:#502d16;stroke-width:0.137814"
     d="m 21.136279,151.87153 c -0.02864,-0.0758 -0.290415,-0.97504 -0.58171,-1.99831 l -0.529627,-1.8605 0.662913,-17.91588 c 0.364602,-9.85373 0.665269,-18.05541 0.668149,-18.22596 l 0.0052,-0.31008 h 6.605177 6.605178 l 0.07419,0.72353 c 0.04081,0.39793 0.356171,8.59243 0.700808,18.20999 l 0.626614,17.48646 -0.568502,2.01428 -0.568499,2.01428 h -6.823924 c -4.422684,0 -6.842251,-0.0485 -6.876007,-0.13781 z m 5.082921,-3.67336 0.792433,-0.9704 v -3.00494 -3.00495 l -0.792433,-0.9704 -0.792433,-0.9704 -0.914612,-0.008 -0.914611,-0.008 -0.773616,0.94559 -0.773616,0.94559 v 3.06096 3.06095 l 0.785466,0.95478 0.785466,0.95478 0.902761,-0.008 0.902762,-0.008 z m 6.980472,-0.0132 0.835196,-0.99915 0.0026,-2.9719 0.0027,-2.97189 -0.833564,-0.99027 -0.833563,-0.99028 h -0.878157 -0.878158 l -0.835195,0.99916 -0.835196,0.99915 -0.0027,2.9401 -0.0027,2.9401 0.845426,1.02207 0.845425,1.02207 h 0.866296 0.866295 z m -7.028537,-12.95456 0.835196,-0.99915 0.0027,-3.00261 0.0027,-3.00261 -0.85827,-1.02847 -0.858269,-1.02846 h -0.788827 -0.788828 l -0.833563,0.99028 -0.833564,0.99027 v 3.08123 3.08123 l 0.792434,0.95542 0.792433,0.95542 0.85038,0.003 0.850381,0.003 z m 7.023609,-0.0229 0.845426,-1.02207 v -2.95829 -2.95829 l -0.86134,-1.04776 -0.861341,-1.04776 -0.826886,0.005 -0.826887,0.005 -0.861341,1.05711 -0.86134,1.0571 v 2.91763 2.91762 l 0.850743,1.04817 0.850743,1.04816 h 0.853399 0.853399 z m -7.041381,-12.96095 0.85827,-1.02847 -0.0027,-3.00261 -0.0027,-3.00261 -0.835196,-0.99915 -0.835195,-0.99916 -0.850381,0.003 -0.85038,0.003 -0.792433,0.95542 -0.792434,0.95542 v 3.08123 3.08123 l 0.833564,0.99027 0.833563,0.99028 h 0.788828 0.788827 z m 7.025467,-0.0235 0.86134,-1.04776 v -2.95829 -2.95829 l -0.845426,-1.02207 -0.845425,-1.02207 h -0.845873 -0.845872 l -0.858269,1.02847 -0.85827,1.02846 v 2.94712 2.94713 l 0.899867,1.05464 0.899868,1.05464 0.78836,-0.002 0.788359,-0.002 z"
     id="path15" />
  <path
     style="fill:#502d16;stroke-width:0.137814"
     d="m 20.534354,173.10553 v -11.91038 l 0.372554,-0.44276 c 0.686056,-0.81533 0.715308,-0.81872 7.062211,-0.81872 6.414954,0 6.600301,0.0225 7.209798,0.87702 l 0.308305,0.43222 0.03742,11.8865 0.03742,11.88649 H 28.04821 20.534354 Z m 8.70998,4.72676 c 4.564567,-0.96926 6.280843,-6.72722 2.986987,-10.02108 -2.96761,-2.96761 -7.863149,-2.08128 -9.679611,1.75247 -0.403245,0.85107 -0.43249,1.01531 -0.43249,2.42876 0,1.41976 0.028,1.57506 0.441206,2.44738 1.235068,2.60733 3.932894,3.97663 6.683908,3.39247 z"
     id="path16" />
  <path
     style="fill:#502d16;stroke-width:0.137814"
     d="m 21.402385,197.70041 c -0.835788,-0.50961 -0.868031,-0.69129 -0.868031,-4.89115 v -3.79674 h 7.520611 7.520612 l -0.04418,3.83077 c -0.04889,4.23912 -0.06032,4.29568 -0.981912,4.85761 -0.419112,0.25555 -0.736976,0.26853 -6.573153,0.26853 -5.839959,0 -6.153807,-0.0128 -6.573949,-0.26902 z"
     id="path17" />
  <path
     style="fill:#502d16;stroke-width:0.137814"
     d="m 24.530973,224.91082 v -18.95185 l 3.479815,0.0368 3.479815,0.0368 0.03494,18.91503 0.03494,18.91503 H 28.04573 24.530973 Z"
     id="path18" />
  <path
     style="fill:#502d16;stroke-width:0.0689072"
     d="m 24.479168,225.48167 0.0171,-19.51797 0.01747,18.93226 0.01748,18.93226 h 3.479691 3.479692 v 0.58571 0.58571 h -3.514269 -3.514269 z"
     id="path19" />
  <path
     style="fill:#502d16;stroke-width:0.0344536"
     d="m 20.488303,134.75669 c 0.02379,-0.44388 0.838484,-22.88283 0.838484,-23.09405 v -0.18797 h 6.666774 6.666774 l -0.0055,0.1292 c -0.0054,0.1272 -0.0057,0.12747 -0.01941,0.0172 l -0.0139,-0.11197 -6.638751,0.008 -6.638751,0.008 6.615094,0.0174 6.615094,0.0174 0.02329,0.15504 c 0.01281,0.0853 0.02648,0.22481 0.03038,0.31008 0.007,0.1533 0.0073,0.15369 0.02875,0.0345 0.01191,-0.0663 0.04934,0.65462 0.08318,1.60209 0.03384,0.94747 0.122437,3.32736 0.196885,5.28863 0.07445,1.96127 0.220891,5.93033 0.325428,8.82012 0.104538,2.8898 0.205681,5.65729 0.224764,6.14997 0.01908,0.49269 0.03472,0.94619 0.03475,1.00777 l 5.6e-5,0.11198 H 34.41916 c -0.606384,0 -1.102516,-0.008 -1.102516,-0.0188 0,-0.0103 0.147289,-0.19449 0.327309,-0.40928 l 0.32731,-0.39053 v -3.0026 -3.00261 l -0.767932,-0.92065 c -0.422363,-0.50636 -0.798338,-0.96281 -0.8355,-1.01432 l -0.06757,-0.0937 -0.818273,-0.001 c -0.531826,-7e-4 -0.818273,0.0112 -0.818273,0.0339 0,0.0192 -0.371882,0.4805 -0.826405,1.025 l -0.826404,0.98999 1.73e-4,2.98024 1.74e-4,2.98023 0.236252,0.28251 c 0.129938,0.15538 0.285987,0.34531 0.346775,0.42206 l 0.110524,0.13955 H 27.994673 26.28454 l 0.34632,-0.41133 0.346319,-0.41132 v -2.99628 -2.99629 l -0.814011,-0.97652 c -0.447706,-0.53709 -0.821464,-0.99594 -0.830573,-1.01968 -0.01262,-0.0329 -0.206284,-0.043 -0.813922,-0.0423 l -0.79736,8.3e-4 -0.8355,1.00076 -0.8355,1.00075 v 3.03225 3.03225 l 0.264439,0.31594 c 0.145441,0.17376 0.295433,0.35082 0.333315,0.39346 l 0.06888,0.0775 h -1.121936 -1.121935 z m 13.543244,-5.03022 c -0.0051,-0.81957 -0.0094,-0.14901 -0.0094,1.49012 0,1.63913 0.0042,2.30968 0.0094,1.49012 0.0051,-0.81957 0.0051,-2.16068 0,-2.98024 z m -5.064682,0.0172 c -0.0051,-0.81009 -0.0094,-0.14728 -0.0094,1.4729 0,1.62018 0.0042,2.28298 0.0094,1.47289 0.0052,-0.81009 0.0052,-2.1357 0,-2.94579 z m -4.029086,-6.5116 c -0.22157,-0.006 -0.593669,-0.006 -0.826887,-4e-5 -0.233218,0.006 -0.05193,0.0109 0.402854,0.0109 0.454788,3e-5 0.645602,-0.005 0.424033,-0.0109 z m 6.992107,-2e-5 c -0.222656,-0.006 -0.587003,-0.006 -0.80966,0 -0.222656,0.006 -0.04048,0.0109 0.40483,0.0109 0.445313,0 0.627487,-0.005 0.40483,-0.0109 z m -5.77098,-1.03414 0.818273,-0.98703 v -2.99383 -2.99383 l -0.829747,-0.99572 -0.829747,-0.99572 h -0.818623 -0.818623 l -0.815063,0.97869 -0.815063,0.97869 v 3.02842 3.02842 l 0.810119,0.97144 0.810119,0.97143 0.835041,-0.002 0.835041,-0.002 z m 6.994083,0.005 0.818274,-0.98459 -4.83e-4,-3.00252 -4.82e-4,-3.00252 -0.826863,-0.99054 -0.826863,-0.99054 h -0.818225 -0.818225 l -0.83509,1.00277 -0.83509,1.00277 v 2.98132 2.98132 l 0.437109,0.52072 c 0.240409,0.2864 0.616384,0.73296 0.8355,0.99236 l 0.398392,0.47164 0.826886,10e-4 0.826887,0.001 z m -4.186123,-5.46505 c -0.0051,-0.81957 -0.0094,-0.14902 -0.0094,1.49011 0,1.63913 0.0042,2.30969 0.0094,1.49012 0.0051,-0.81956 0.0051,-2.16067 0,-2.98023 z m 5.064681,0 c -0.0051,-0.81957 -0.0094,-0.14902 -0.0094,1.49011 0,1.63913 0.0042,2.30969 0.0094,1.49012 0.0051,-0.81956 0.0051,-2.16067 0,-2.98023 z"
     id="path21" />
  <path
     style="fill:#502d16;stroke-width:0.0344536"
     d="m 20.988893,151.46678 c -0.0171,-0.0616 -0.245723,-0.86319 -0.508047,-1.78125 l -0.476952,-1.66918 0.230902,-6.44464 c 0.126996,-3.54455 0.254342,-7.11132 0.282991,-7.92614 0.02865,-0.81483 0.137101,-3.80713 0.241004,-6.64955 0.103904,-2.84242 0.188936,-5.25719 0.188961,-5.36615 l 4.5e-5,-0.19811 0.646005,0.002 0.646005,0.002 0.723526,0.87828 0.723526,0.87828 0.358509,-0.0186 c 0.19718,-0.0102 0.56979,-0.0186 0.828021,-0.0186 H 25.3429 l 0.713726,-0.86134 0.713725,-0.86134 1.23177,6.3e-4 1.23177,6.3e-4 0.722578,0.86071 0.722578,0.86071 h 0.828354 0.828354 l 0.716997,-0.86134 0.716997,-0.86134 h 0.631573 0.631572 l 0.02053,0.3187 c 0.02104,0.32658 0.321863,8.5531 0.417969,11.42998 0.09042,2.70673 0.323839,9.34804 0.427577,12.16564 l 0.09844,2.67366 -0.506192,1.77085 -0.506192,1.77085 -6.982517,0.009 -6.982517,0.009 z m 4.478388,-2.35703 c 0.03215,-0.0291 0.04891,-0.0769 0.03744,-0.10676 -0.01248,-0.0325 -0.0065,-0.0453 0.01495,-0.032 0.01964,0.0121 0.05993,-0.005 0.08953,-0.0374 0.05269,-0.0582 0.05874,-0.0734 0.05874,-0.14764 0,-0.0201 0.01343,-0.0282 0.02985,-0.018 0.0287,0.0177 0.168676,-0.11071 0.151032,-0.13859 -0.0223,-0.0352 -0.005,-0.0844 0.02346,-0.0668 0.0277,0.0171 0.0802,-0.0317 0.09096,-0.0847 0.01369,-0.0673 0.06127,-0.13445 0.08491,-0.11983 0.02532,0.0156 0.08153,-0.0416 0.08528,-0.0869 0.0034,-0.0416 0.07159,-0.13344 0.102989,-0.13881 0.01895,-0.003 0.03174,-0.0164 0.02841,-0.0292 -0.0033,-0.0128 0.155289,-0.21669 0.352469,-0.45306 l 0.358511,-0.42978 6.79e-4,-2.99882 6.8e-4,-2.99883 -0.514175,-0.61773 c -0.282796,-0.33976 -0.505211,-0.63224 -0.494254,-0.64997 0.01096,-0.0177 0.0037,-0.0222 -0.01609,-0.01 -0.01981,0.0122 -0.06132,-0.0164 -0.09225,-0.0636 -0.03093,-0.0472 -0.04623,-0.0858 -0.034,-0.0858 0.01223,0 0.0031,-0.0231 -0.02034,-0.0513 -0.02342,-0.0282 -0.0547,-0.0438 -0.06951,-0.0346 -0.02243,0.0139 -0.07004,-0.0551 -0.08339,-0.12077 -0.01076,-0.0529 -0.06326,-0.10178 -0.09096,-0.0847 -0.01764,0.0109 -0.03207,0.003 -0.03207,-0.0167 0,-0.0742 -0.006,-0.0894 -0.05842,-0.1473 -0.04803,-0.0531 -0.148398,-0.0591 -0.980785,-0.0591 -0.510001,0 -0.919547,0.0125 -0.910101,0.0278 0.0094,0.0153 -0.330781,0.44499 -0.75606,0.95492 l -0.773234,0.92713 -6.08e-4,3.02646 -6.08e-4,3.02647 0.801046,0.96243 0.801047,0.96243 0.878337,-0.003 c 0.736646,-0.003 0.887726,-0.0116 0.936538,-0.0558 z m 7.693863,-0.91427 0.810119,-0.97143 v -3.00459 -3.00459 l -0.801047,-0.96606 -0.801046,-0.96606 -0.861535,-0.002 -0.861535,-0.002 -0.818079,0.98157 -0.818079,0.98157 v 2.97567 2.97566 l 0.818274,0.98616 0.818273,0.98616 0.852268,7e-4 0.852267,7e-4 z m 0.870403,-5.48 c -0.0051,-0.81957 -0.0094,-0.14901 -0.0094,1.49012 0,1.63913 0.0042,2.30968 0.0094,1.49012 0.0051,-0.81957 0.0051,-2.16068 0,-2.98024 z m -5.064682,0.0172 c -0.0051,-0.81009 -0.0094,-0.14729 -0.0094,1.47289 0,1.62018 0.0042,2.28298 0.0094,1.47289 0.0052,-0.81009 0.0052,-2.13569 0,-2.94578 z m -3.166724,-7.10534 c 0.268381,-0.32175 0.487966,-0.59391 0.487966,-0.6048 0,-0.0109 0.155041,-0.20268 0.344536,-0.42619 l 0.344536,-0.40639 v -2.96779 -2.96779 l -0.767805,-0.92445 c -0.422294,-0.50845 -0.800557,-0.96941 -0.840587,-1.02436 l -0.07278,-0.0999 -0.787347,-0.0128 c -0.751275,-0.0122 -0.789194,-0.01 -0.827668,0.0544 -0.02218,0.037 -0.398151,0.49514 -0.8355,1.01817 l -0.795178,0.95095 v 3.00405 3.00404 l 0.344536,0.40639 c 0.189495,0.22351 0.344536,0.41556 0.344536,0.42676 0,0.0112 0.0969,0.13717 0.215335,0.27992 0.118434,0.14274 0.211075,0.2751 0.205868,0.29413 -0.0052,0.019 0.0047,0.0258 0.02207,0.0151 0.0339,-0.0209 0.163383,0.15066 0.149245,0.19781 -0.0047,0.0156 0.0057,0.0196 0.02302,0.009 0.02949,-0.0182 0.156796,0.13834 0.158769,0.19526 4.92e-4,0.0142 0.0164,0.0279 0.03535,0.0305 0.01895,0.003 0.05471,0.0335 0.07947,0.0689 0.04179,0.0597 0.103756,0.0643 0.864339,0.0643 h 0.819318 z m 7.030745,-0.0438 c 0.285209,-0.34583 0.658055,-0.79932 0.828548,-1.00777 l 0.309986,-0.37899 9.21e-4,-2.97454 9.22e-4,-2.97453 -0.733761,-0.88427 c -0.403568,-0.48635 -0.786014,-0.95016 -0.849879,-1.03069 l -0.11612,-0.14643 -0.571332,2.4e-4 c -0.314232,1.4e-4 -0.672108,0.01 -0.79528,0.0216 -0.212537,0.0203 -0.22938,0.0286 -0.330542,0.16341 -0.05863,0.0781 -0.426849,0.52766 -0.818273,0.99899 l -0.71168,0.85698 v 2.99086 2.99087 l 0.269532,0.32105 c 0.148243,0.17657 0.314912,0.38376 0.370377,0.46042 0.05546,0.0767 0.302397,0.38252 0.548741,0.67969 l 0.447897,0.5403 0.815691,7.8e-4 0.815691,7.7e-4 z"
     id="path22" />
  <path
     style="fill:#502d16;stroke-width:0.0344536"
     d="m 28.062468,152.02851 c -3.448807,-0.0107 -6.084508,-0.0257 -5.857114,-0.0334 l 0.413443,-0.0139 -0.644306,-0.0248 c -0.354368,-0.0136 -0.683831,-0.0347 -0.732139,-0.0469 -0.06892,-0.0173 -0.08835,-0.009 -0.09023,0.0389 -0.0013,0.0335 -0.02519,-0.0166 -0.05305,-0.11132 -0.02786,-0.0947 -0.06515,-0.20327 -0.08287,-0.24117 -0.01772,-0.0379 -0.256642,-0.85679 -0.530943,-1.81977 l -0.498728,-1.75085 0.27368,-7.62053 c 0.150524,-4.19129 0.273785,-7.69417 0.273913,-7.78418 l 2.34e-4,-0.16365 h 0.757979 0.75798 l 4.77e-4,0.86995 4.77e-4,0.86995 0.192327,0.22395 c 0.105779,0.12317 0.34912,0.4255 0.540757,0.67185 0.191637,0.24634 0.468547,0.58891 0.615355,0.76126 l 0.266924,0.31337 0.368624,0.0226 c 0.202743,0.0124 0.566713,0.0225 0.808822,0.0225 h 0.440199 l 0.254726,-0.30147 c 0.140099,-0.16581 0.441081,-0.53403 0.668849,-0.81827 0.227768,-0.28424 0.493907,-0.60983 0.59142,-0.72353 l 0.177297,-0.20672 3.06e-4,-0.85273 3.06e-4,-0.85272 h 1.033609 1.033608 v 0.86318 0.86318 l 0.267016,0.32141 c 0.146858,0.17678 0.51177,0.62324 0.810914,0.99215 l 0.5439,0.67075 0.365868,0.0224 c 0.201227,0.0123 0.568885,0.0214 0.817018,0.0203 l 0.45115,-0.002 0.818274,-0.99934 0.818273,-0.99934 v -0.87626 -0.87625 h 0.75504 0.75504 l 0.01972,0.24979 c 0.01085,0.13738 0.05162,1.21879 0.09061,2.40313 0.03899,1.18435 0.147693,4.30843 0.241561,6.94241 0.09387,2.63398 0.180217,5.06037 0.191887,5.39199 l 0.02122,0.60294 -0.453266,1.58486 c -0.3587,1.25421 -0.676475,2.32588 -0.706839,2.38376 -0.01434,0.0273 -1.297182,0.0297 -6.789314,0.0127 z m -2.604105,-2.99332 c 0.0458,-0.0507 0.09859,-0.0922 0.117304,-0.0922 0.01871,0 0.03761,-0.0244 0.042,-0.0543 0.0044,-0.0299 0.304315,-0.41575 0.666516,-0.85753 l 0.658548,-0.80323 2.9e-5,-0.74456 c 1.5e-5,-0.40951 0.01019,-1.75233 0.0226,-2.98405 l 0.02258,-2.23949 -0.360029,-0.43067 c -0.198016,-0.23686 -0.421369,-0.5096 -0.496341,-0.60606 -0.07497,-0.0965 -0.274045,-0.34066 -0.442383,-0.54265 l -0.306069,-0.36724 h -0.887055 -0.887054 l -0.146223,0.19367 c -0.08042,0.10652 -0.420826,0.52377 -0.756451,0.92723 l -0.610227,0.73356 -0.02289,1.71414 c -0.01259,0.94277 -0.0223,2.30461 -0.02158,3.02631 l 0.0013,1.31219 0.813488,0.97703 0.813487,0.97704 0.847587,-0.0235 0.847587,-0.0235 z m 7.694626,-0.85439 0.818274,-0.98353 v -2.97695 -2.97694 l -0.800059,-0.9651 -0.800058,-0.96509 h -0.486593 c -0.267626,0 -0.648704,-0.01 -0.846841,-0.022 l -0.36025,-0.022 -0.83376,1.00054 -0.83376,1.00054 v 2.94546 2.94547 l 0.809682,0.97706 c 0.945406,1.14085 0.725074,1.01633 1.808793,1.02228 l 0.706299,0.004 z"
     id="path23" />
  <path
     style="fill:#784421;stroke-width:0.551258"
     d="m 24.255344,225.46444 v -19.56965 h 3.858804 3.858805 v 19.56965 19.56966 h -3.858805 -3.858804 z"
     id="path24" />
  <path
     style="fill:#502d16;stroke-width:0.0172268"
     d="m 23.230349,197.94427 c -0.945086,-0.0214 -1.438743,-0.0686 -1.650185,-0.15772 -0.155035,-0.0654 -0.4248,-0.24206 -0.557133,-0.36491 -0.105045,-0.0975 -0.140832,-0.14564 -0.204942,-0.27562 -0.252781,-0.51251 -0.282644,-1.09787 -0.283336,-5.55378 l -3.99e-4,-2.5711 h 7.028537 7.028537 v 4.32371 4.32371 l -0.06906,0.0436 c -0.206124,0.13012 -0.464923,0.17586 -1.231568,0.21766 -0.410735,0.0224 -9.154797,0.035 -10.060455,0.0145 z"
     id="path26" />
  <path
     style="fill:#502d16;stroke-width:0.0060906"
     d="m 31.238666,197.98181 v -0.0146 l 0.409593,-0.004 c 2.047035,-0.0202 2.503029,-0.0542 2.806929,-0.20943 0.158006,-0.0807 0.428778,-0.26043 0.525216,-0.34857 0.01917,-0.0175 0.03612,-0.0306 0.03766,-0.029 0.0052,0.005 -0.164155,0.1668 -0.227802,0.21732 -0.25975,0.2062 -0.543732,0.32878 -0.893052,0.38549 l -0.08527,0.0138 -1.286638,0.002 -1.286639,0.002 z"
     id="path27" />
  <path
     style="fill:#502d16;stroke-width:0.0060906"
     d="m 35.240188,197.06908 c 0,-0.002 0.0094,-0.0256 0.02078,-0.0523 0.129292,-0.30207 0.190592,-0.76698 0.228635,-1.73402 0.003,-0.0764 0.0044,0.0927 0.0037,0.45375 -10e-4,0.56535 -0.0013,0.57707 -0.01478,0.66083 -0.02612,0.16219 -0.05878,0.28479 -0.111965,0.42025 -0.03898,0.0993 -0.126423,0.27322 -0.126423,0.25147 z"
     id="path29" />
  <path
     style="fill:#502d16;stroke-width:0.0043067"
     d="m 22.242285,197.99384 c -0.326062,-0.0233 -0.63769,-0.12899 -0.904732,-0.3068 -0.02842,-0.0189 -0.06718,-0.0461 -0.08613,-0.0603 -0.04767,-0.0359 -0.132115,-0.10696 -0.1298,-0.10928 0.001,-0.001 0.01809,0.0101 0.03786,0.0248 0.07624,0.0566 0.269146,0.17765 0.33881,0.21259 0.205729,0.10321 0.472272,0.14524 1.107587,0.17469 0.425484,0.0197 1.419834,0.0345 2.610938,0.0388 l 0.02046,7e-5 v 0.0151 0.0151 l -1.473969,-6.3e-4 c -0.810683,-3.4e-4 -1.495141,-0.002 -1.521018,-0.004 z"
     id="path30" />
  <path
     style="fill:#502d16;stroke-width:0.0086134"
     d="m 20.75608,197.0686 c -0.116174,-0.19952 -0.193428,-0.42144 -0.236266,-0.6787 -0.01401,-0.0842 -0.01524,-0.24416 -0.01771,-2.30193 l -0.0026,-2.21149 h 0.01745 c 0.01744,0 0.01745,5.7e-4 0.01761,1.22956 1.6e-4,1.21746 0.0086,2.03228 0.02558,2.45698 0.02996,0.75114 0.08894,1.18999 0.197539,1.46966 0.01429,0.0368 0.02463,0.0683 0.02298,0.0699 -0.0016,0.002 -0.01269,-0.0136 -0.02454,-0.034 z"
     id="path31" />
  <path
     style="fill:#502d16;stroke-width:0.0689072"
     d="m 21.8462,151.96219 c -0.396504,-0.0344 -0.729401,-0.071 -0.739771,-0.0813 -0.01037,-0.0104 -0.266991,-0.8819 -0.57027,-1.93674 l -0.551415,-1.91789 0.275195,-7.58655 c 0.151358,-4.1726 0.366798,-10.02069 0.478756,-12.99576 0.111959,-2.97507 0.269143,-7.28522 0.3493,-9.57811 0.08016,-2.29289 0.159514,-4.23865 0.176351,-4.32393 0.03022,-0.15304 0.04484,-0.15504 1.131815,-0.15504 0.605662,0 1.101203,0.0168 1.101203,0.0373 0,0.0205 -0.325586,0.42596 -0.723526,0.90095 l -0.723526,0.86362 v 3.02809 3.02808 l 0.483325,0.55932 c 0.265828,0.30762 0.630175,0.74103 0.80966,0.96312 l 0.326335,0.40379 0.826887,9e-5 0.826887,8e-5 0.80966,-0.96663 0.80966,-0.96662 v -3.02466 -3.02466 l -0.730075,-0.87144 c -0.401541,-0.47929 -0.716399,-0.88511 -0.699686,-0.90182 0.01671,-0.0167 1.153002,-0.0222 2.525086,-0.0123 l 2.494698,0.0181 -0.761404,0.91075 -0.761403,0.91074 v 2.96334 2.96334 l 0.839328,1.0011 0.839328,1.00111 h 0.812413 0.812413 l 0.828919,-0.99112 0.82892,-0.99112 -0.0012,-2.98828 -0.0012,-2.98827 -0.748566,-0.89579 -0.748565,-0.8958 1.103986,-0.019 c 0.607192,-0.0104 1.116011,-0.007 1.130709,0.008 0.03977,0.0398 0.618362,15.18266 1.019354,26.67833 0.130876,3.752 0.250422,7.06988 0.265658,7.37307 0.02623,0.52191 -0.0012,0.65216 -0.515527,2.44621 -0.298776,1.04222 -0.560105,1.94921 -0.580732,2.01554 -0.03538,0.11376 -0.385558,0.12004 -6.18283,0.11102 -3.379929,-0.005 -6.469739,-0.0377 -6.866243,-0.072 z m 3.669363,-3.00199 c 0.09937,-0.10423 0.461133,-0.53698 0.803918,-0.96168 l 0.623245,-0.77218 v -3.00717 -3.00716 l -0.596867,-0.73408 c -0.328277,-0.40374 -0.690955,-0.83485 -0.805951,-0.95802 l -0.209083,-0.22395 h -0.8435 -0.8435 l -0.779529,0.94582 -0.77953,0.94581 -0.02058,3.01408 -0.02058,3.01407 0.806966,0.96698 0.806967,0.96697 h 0.838675 c 0.825181,0 0.841582,-0.003 1.019349,-0.18949 z m 7.64604,-0.79195 0.80966,-0.97865 v -2.9745 -2.97449 l -0.807935,-0.97233 -0.807936,-0.97232 -0.863065,0.004 -0.863065,0.004 -0.808377,0.97805 -0.808377,0.97805 -0.0013,2.95271 -0.0013,2.9527 0.79379,0.95249 c 0.436584,0.52387 0.831939,0.96793 0.878567,0.9868 0.04663,0.0189 0.441373,0.0361 0.877211,0.0384 l 0.792433,0.004 z m -7.028537,-12.97541 0.80966,-0.99501 v -2.98947 -2.98948 l -0.831523,-1.00765 -0.831523,-1.00764 h -0.777487 -0.777486 l -0.837197,1.00643 -0.837198,1.00643 v 2.99276 2.99276 l 0.430671,0.52442 c 0.236868,0.28843 0.610419,0.73689 0.830112,0.99658 l 0.399443,0.47216 0.806434,-0.004 0.806434,-0.004 z m 7.006823,-0.0141 0.831374,-1.01636 -0.0022,-2.96304 -0.0022,-2.96303 -0.84195,-1.01783 -0.84195,-1.01782 -0.791551,0.0187 -0.791552,0.0187 -0.840737,0.99915 -0.840737,0.99916 0.0046,1.99831 c 0.0025,1.09907 0.02389,2.45285 0.04742,3.00841 l 0.04278,1.0101 0.786936,0.97098 0.786936,0.97098 h 0.81067 0.81067 z"
     id="path32" />
  <path
     style="fill:#502d16;stroke-width:0.0689072"
     d="m 22.222581,151.99823 c -1.007912,-0.0819 -1.123958,-0.1037 -1.157741,-0.21759 -0.0189,-0.0637 -0.27206,-0.9342 -0.562585,-1.93442 l -0.528228,-1.81859 0.282826,-7.75952 c 0.155554,-4.26773 0.372951,-10.17816 0.483104,-13.13428 0.110154,-2.95612 0.266524,-7.21975 0.34749,-9.47474 0.08097,-2.25499 0.159214,-4.13874 0.173886,-4.18611 0.01989,-0.0642 0.307775,-0.0861 1.131353,-0.0861 0.607573,0 1.104678,0.0184 1.104678,0.041 0,0.0225 -0.325586,0.43215 -0.723526,0.91026 l -0.723526,0.86928 v 3.00983 3.00983 l 0.52471,0.61057 c 0.28859,0.33581 0.652528,0.77335 0.808752,0.97232 l 0.284043,0.36177 0.827794,-0.002 0.827795,-0.002 0.80966,-0.97274 0.80966,-0.97275 v -3.00627 -3.00627 l -0.729759,-0.88212 c -0.401367,-0.48517 -0.716226,-0.89566 -0.699686,-0.9122 0.01654,-0.0165 1.15523,-0.0219 2.530422,-0.012 l 2.500351,0.0181 -0.767056,0.91941 -0.767056,0.9194 v 2.95952 2.95953 l 0.431365,0.49668 c 0.237251,0.27318 0.615535,0.72149 0.84063,0.99626 l 0.409265,0.49958 h 0.806424 0.806425 l 0.833606,-0.99673 0.833606,-0.99672 -0.0031,-2.98267 -0.0031,-2.98267 -0.751876,-0.89579 -0.751875,-0.8958 1.109249,-0.019 c 0.610088,-0.0104 1.122159,-0.006 1.137938,0.01 0.02883,0.0288 0.216264,4.66832 0.534862,13.23946 0.09439,2.53923 0.205451,5.46951 0.246812,6.51174 0.04136,1.04222 0.178413,4.80972 0.304562,8.37222 l 0.22936,6.47728 -0.410064,1.44705 c -0.225535,0.79588 -0.487742,1.70287 -0.582682,2.01554 l -0.172618,0.56849 -6.180254,-0.0116 c -3.399139,-0.006 -6.304287,-0.0217 -6.455882,-0.034 z m 3.227138,-3.00358 c 0.09265,-0.0853 0.466476,-0.51762 0.830729,-0.96076 l 0.662278,-0.80573 v -3.0043 -3.00431 l -0.797266,-0.9618 -0.797265,-0.96179 h -0.846559 -0.84656 l -0.775472,0.93952 -0.775472,0.93953 -0.03627,3.00541 -0.03628,3.00542 0.817301,0.98192 0.817301,0.98193 h 0.807542 c 0.741601,0 0.821297,-0.0127 0.975994,-0.15504 z m 7.709625,-0.82815 0.807401,-0.98066 0.0023,-2.9649 0.0023,-2.96489 -0.80966,-0.97865 -0.80966,-0.97866 -0.842081,-0.001 -0.842081,-0.001 -0.828919,0.99112 -0.82892,0.99112 v 2.9412 2.9412 l 0.765055,0.90841 c 0.42078,0.49963 0.83164,0.94608 0.91302,0.99211 0.09083,0.0514 0.440659,0.0841 0.905946,0.0849 l 0.75798,10e-4 z m -7.028554,-12.99124 0.811936,-0.98542 v -2.97827 -2.97826 l -0.834898,-1.01486 -0.834898,-1.01486 h -0.769243 -0.769242 l -0.842066,1.01462 -0.842067,1.01463 v 2.97597 2.97596 l 0.331411,0.40224 c 0.182276,0.22124 0.556724,0.67453 0.832106,1.00733 l 0.500694,0.60508 0.802166,-0.0194 0.802165,-0.0194 z m 7.00468,0.003 0.832764,-1.01638 0.0015,-2.95051 0.0015,-2.95051 -0.844114,-1.02796 -0.844113,-1.02795 -0.48996,-9.3e-4 c -1.097397,-0.002 -1.032131,-0.0381 -1.961919,1.08241 l -0.82542,0.99473 0.04738,2.97481 0.04738,2.97482 0.79884,0.9812 0.79884,0.9812 0.802268,7.3e-4 0.802268,7.2e-4 z"
     id="path33" />
  <path
     style="fill:#502d16;stroke-width:0.0689072"
     d="m 20.534354,173.10311 v -11.94785 l 0.43067,-0.45594 c 0.691883,-0.73247 0.290606,-0.68964 6.701227,-0.71529 6.934813,-0.0277 6.952875,-0.0256 7.564,0.89509 l 0.246963,0.37207 0.02223,11.88236 0.02223,11.88235 -7.493661,0.0175 -7.49366,0.0175 z m 9.0613,4.64983 c 0.718473,-0.21081 1.660085,-0.70846 2.211071,-1.16856 1.485835,-1.24076 2.331731,-3.37294 2.095876,-5.28291 -0.176384,-1.42837 -0.69826,-2.50307 -1.700988,-3.50283 -2.212683,-2.20613 -5.603206,-2.35315 -8.038163,-0.34856 -0.843507,0.69442 -1.777645,2.17203 -1.969867,3.11592 -0.09603,0.47156 -0.09623,2.3799 -3.01e-4,2.85287 0.107517,0.53009 0.75789,1.80996 1.182588,2.32722 0.916262,1.11594 2.213794,1.87374 3.70467,2.16363 0.427606,0.0832 2.039948,-0.0174 2.515114,-0.15678 z"
     id="path34" />
  <path
     style="fill:#502d16;stroke-width:0.0689072"
     d="m 20.534354,173.09558 v -11.95477 l 0.43067,-0.4543 c 0.682707,-0.72015 0.265092,-0.67562 6.597867,-0.70359 7.101769,-0.0314 7.086738,-0.0332 7.716854,0.94873 l 0.203326,0.31686 0.04784,11.90092 0.04784,11.90093 h -7.522195 -7.522195 z m 8.984655,4.65259 c 0.662819,-0.16952 1.752045,-0.72832 2.248288,-1.15344 1.038752,-0.88985 1.764759,-2.12433 2.035009,-3.46026 0.156719,-0.77471 0.107918,-2.09141 -0.104827,-2.82837 -0.436003,-1.51035 -1.596722,-2.88413 -3.05358,-3.61409 -0.916222,-0.45908 -1.54615,-0.60736 -2.598658,-0.61169 -0.963358,-0.004 -1.484445,0.0954 -2.316614,0.44185 -1.503741,0.62601 -2.840867,2.04252 -3.381831,3.5826 -0.152934,0.4354 -0.183721,0.6599 -0.211618,1.54313 -0.04559,1.44349 0.03263,1.88635 0.501408,2.83874 0.467337,0.94947 1.019693,1.65687 1.69219,2.16718 0.849648,0.64473 1.544478,0.97152 2.545042,1.19696 0.591178,0.13321 1.925556,0.0814 2.645191,-0.10261 z"
     id="path35" />
</svg>
