<?xml version="1.0" encoding="UTF-8" standalone="no"?>
<svg
   width="100"
   height="300"
   version="1.1"
   id="svg11"
   sodipodi:docname="gun-potato-lmg-top-01.svg"
   inkscape:version="1.4 (e7c3feb1, 2024-10-09)"
   xml:space="preserve"
   xmlns:inkscape="http://www.inkscape.org/namespaces/inkscape"
   xmlns:sodipodi="http://sodipodi.sourceforge.net/DTD/sodipodi-0.dtd"
   xmlns="http://www.w3.org/2000/svg"
   xmlns:svg="http://www.w3.org/2000/svg"><sodipodi:namedview
     id="namedview11"
     pagecolor="#ffffff"
     bordercolor="#000000"
     borderopacity="0.25"
     inkscape:showpageshadow="2"
     inkscape:pageopacity="0.0"
     inkscape:pagecheckerboard="0"
     inkscape:deskcolor="#d1d1d1"
     inkscape:zoom="11.528952"
     inkscape:cx="52.303105"
     inkscape:cy="263.46713"
     inkscape:window-width="1920"
     inkscape:window-height="1022"
     inkscape:window-x="1512"
     inkscape:window-y="30"
     inkscape:window-maximized="0"
     inkscape:current-layer="svg11"
     showguides="false" /><defs
     id="defs2"><inkscape:path-effect
       effect="fillet_chamfer"
       id="path-effect6"
       is_visible="true"
       lpeversion="1"
       nodesatellites_param="F,0,0,1,0,0,0,1 @ F,0,0,1,0,0,0,1 @ C,0,0,1,0,2,0,1 @ C,0,0,1,0,2,0,1"
       radius="0"
       unit="px"
       method="auto"
       mode="F"
       chamfer_steps="1"
       flexible="false"
       use_knot_distance="true"
       apply_no_radius="true"
       apply_with_radius="true"
       only_selected="false"
       hide_knots="false" /><inkscape:path-effect
       effect="fillet_chamfer"
       id="path-effect5"
       is_visible="true"
       lpeversion="1"
       nodesatellites_param="C,0,0,1,0,0,0,1 @ C,0,0,1,0,0,0,1 @ F,0,0,1,0,0,0,1 @ F,0,0,1,0,0,0,1"
       radius="0"
       unit="px"
       method="auto"
       mode="F"
       chamfer_steps="1"
       flexible="false"
       use_knot_distance="true"
       apply_no_radius="true"
       apply_with_radius="true"
       only_selected="false"
       hide_knots="false" /><clipPath
       id="b"><path
         d="m 36,112 4,4 v 26 l -4,4 H 20 l -4,-4 v -26 l 4,-4 z"
         fill="#515151"
         stroke-width="11.471"
         stroke-miterlimit="10"
         stroke-opacity="0.49"
         id="path1" /></clipPath><clipPath
       id="a"><path
         d="m 18,158 -4,4 v 59.82 l 4,4.18 v 20 h 20 v -20 l 4,-4 v -32 h 4 l 0.117,-24 H 42 v -4 l -4,-4 z"
         fill="#273723"
         stroke-width="10.001"
         stroke-miterlimit="10"
         stroke-opacity="0.49"
         id="path2" /></clipPath><clipPath
       clipPathUnits="userSpaceOnUse"
       id="clipPath1211"><path
         inkscape:connector-curvature="0"
         id="path1213"
         d="M 76,68 72,72 71.93306,136 78,144 v 8 h 20 v -8 l 5.93306,-8 L 104,72 100,68 V 54 H 76 Z"
         clip-path="none"
         style="fill:#515151;stroke-width:12.5546;stroke-miterlimit:10;stroke-opacity:0.49"
         sodipodi:nodetypes="ccccccccccccc" /></clipPath><clipPath
       clipPathUnits="userSpaceOnUse"
       id="clipPath1334"><path
         clip-path="none"
         sodipodi:nodetypes="ccccccccccccccccc"
         inkscape:connector-curvature="0"
         id="path1336"
         d="m 104,136 -6,8 v 24 l 6,-6 v 10 l -6,6 v 60 H 78 v -46 l -4,3.95395 V 174 l 4,-4 v -26 l -6,-8 v -10 h 32 z"
         style="fill:#5b1616;fill-opacity:1;stroke-width:15.1754;stroke-miterlimit:10;stroke-opacity:0.49" /></clipPath><clipPath
       clipPathUnits="userSpaceOnUse"
       id="clipPath1271"><path
         sodipodi:nodetypes="ccccc"
         style="fill:#515151;stroke-width:10.4121;stroke-miterlimit:10;stroke-opacity:0.49"
         clip-path="none"
         d="M 30,191.95395 C 56,192 74,174 74,174 v 21.95395 C 74,195.95395 56,212 30,212 Z"
         id="path1273"
         inkscape:connector-curvature="0" /></clipPath><clipPath
       clipPathUnits="userSpaceOnUse"
       id="clipPath1204"><path
         sodipodi:nodetypes="ccccccccc"
         style="fill:#515151;stroke-width:5.94354;stroke-miterlimit:10;stroke-opacity:0.49"
         clip-path="none"
         d="m 76,48 v 20 h 24 V 48 L 96,44 V 38 H 80 v 6 z"
         id="path1207"
         inkscape:connector-curvature="0" /></clipPath><clipPath
       clipPathUnits="userSpaceOnUse"
       id="clipPath1221"><path
         inkscape:connector-curvature="0"
         id="path1223"
         d="m 76,48 v 10 h 24 V 48 L 96,44 V 38 H 80 v 6 z"
         clip-path="none"
         style="fill:#515151;stroke-width:5.94354;stroke-miterlimit:10;stroke-opacity:0.49"
         sodipodi:nodetypes="ccccccccc" /></clipPath><clipPath
       id="a-1"><path
         style="fill-opacity:0.506;stroke:#ffffff;stroke-width:2.117;stroke-opacity:0.502"
         inkscape:connector-curvature="0"
         d="m -45.534,209.35 29.33,16.933 v 33.867 l -29.33,16.933 -29.33,-16.933 v -33.867 z"
         id="path2-0-6" /></clipPath><clipPath
       id="clipPath1"><path
         style="fill-opacity:0.506;stroke:#ffffff;stroke-width:2.117;stroke-opacity:0.502"
         inkscape:connector-curvature="0"
         d="m -45.534,209.35 29.33,16.933 v 33.867 l -29.33,16.933 -29.33,-16.933 v -33.867 z"
         id="path1-5" /></clipPath><clipPath
       id="clipPath2"><path
         style="fill-opacity:0.506;stroke:#ffffff;stroke-width:2.117;stroke-opacity:0.502"
         inkscape:connector-curvature="0"
         d="m -45.534,209.35 29.33,16.933 v 33.867 l -29.33,16.933 -29.33,-16.933 v -33.867 z"
         id="path2-9" /></clipPath><clipPath
       id="clipPath3"><path
         style="fill-opacity:0.506;stroke:#ffffff;stroke-width:2.117;stroke-opacity:0.502"
         inkscape:connector-curvature="0"
         d="m -45.534,209.35 29.33,16.933 v 33.867 l -29.33,16.933 -29.33,-16.933 v -33.867 z"
         id="path3-4" /></clipPath><clipPath
       id="clipPath4"><path
         style="fill-opacity:0.506;stroke:#ffffff;stroke-width:2.117;stroke-opacity:0.502"
         inkscape:connector-curvature="0"
         d="m -45.534,209.35 29.33,16.933 v 33.867 l -29.33,16.933 -29.33,-16.933 v -33.867 z"
         id="path4-3" /></clipPath><clipPath
       id="clipPath5"><path
         style="fill-opacity:0.506;stroke:#ffffff;stroke-width:2.117;stroke-opacity:0.502"
         inkscape:connector-curvature="0"
         d="m -45.534,209.35 29.33,16.933 v 33.867 l -29.33,16.933 -29.33,-16.933 v -33.867 z"
         id="path5-9" /></clipPath><clipPath
       clipPathUnits="userSpaceOnUse"
       id="clipPath1301"><rect
         style="fill:#5b1616;fill-opacity:1;stroke:none;stroke-width:6.72946;stroke-linecap:butt;stroke-linejoin:miter;stroke-miterlimit:10;stroke-dasharray:none;stroke-opacity:1"
         id="rect1303"
         width="12.00001"
         height="13.999999"
         x="-118"
         y="-88" /></clipPath><clipPath
       clipPathUnits="userSpaceOnUse"
       id="clipPath975"><path
         sodipodi:nodetypes="ccccccccccccccc"
         style="fill:#515151;stroke-width:10.0008;stroke-miterlimit:10;stroke-opacity:0.49"
         clip-path="none"
         d="M 14,56 10.11719,62 10,120 h 2 v 72 l 2,2 v 62 h 20 v -62 l 2,-2 v -72 h 2 L 38.11719,62 34,56 Z"
         id="path977"
         inkscape:connector-curvature="0" /></clipPath><clipPath
       clipPathUnits="userSpaceOnUse"
       id="clipPath1040"><path
         sodipodi:nodetypes="ccccccccc"
         inkscape:connector-curvature="0"
         id="path1042"
         d="m 36,128 4,4 v 54 l -4,4 H 12 l -4,-4 v -54 l 4,-4 z"
         style="fill:#515151;stroke-width:11.4715;stroke-miterlimit:10;stroke-opacity:0.49" /></clipPath><clipPath
       clipPathUnits="userSpaceOnUse"
       id="clipPath969"><path
         style="fill:#515151;stroke-width:11.4715;stroke-miterlimit:10;stroke-opacity:0.49"
         d="m 38,76 4,4 v 36 l -4,4 H 10 L 6,116 V 80 l 4,-4 z"
         id="path971"
         inkscape:connector-curvature="0"
         sodipodi:nodetypes="ccccccccc"
         clip-path="none" /></clipPath><clipPath
       clipPathUnits="userSpaceOnUse"
       id="clipPath1040-0"><path
         sodipodi:nodetypes="ccccccccc"
         inkscape:connector-curvature="0"
         id="path1042-5"
         d="m 36,128 4,4 v 54 l -4,4 H 12 l -4,-4 v -54 l 4,-4 z"
         style="fill:#515151;stroke-width:11.4715;stroke-miterlimit:10;stroke-opacity:0.49" /></clipPath><clipPath
       id="b-1"><path
         d="m 36,112 4,4 v 26 l -4,4 H 20 l -4,-4 v -26 l 4,-4 z"
         fill="#515151"
         stroke-width="11.471"
         stroke-miterlimit="10"
         stroke-opacity="0.49"
         id="path1-1" /></clipPath><clipPath
       id="a-1-3"><path
         style="fill-opacity:0.506;stroke:#ffffff;stroke-width:2.117;stroke-opacity:0.502"
         inkscape:connector-curvature="0"
         d="m -45.534,209.35 29.33,16.933 v 33.867 l -29.33,16.933 -29.33,-16.933 v -33.867 z"
         id="path2-0-6-9" /></clipPath><clipPath
       id="clipPath1-5"><path
         style="fill-opacity:0.506;stroke:#ffffff;stroke-width:2.117;stroke-opacity:0.502"
         inkscape:connector-curvature="0"
         d="m -45.534,209.35 29.33,16.933 v 33.867 l -29.33,16.933 -29.33,-16.933 v -33.867 z"
         id="path1-17" /></clipPath><clipPath
       id="clipPath2-4"><path
         style="fill-opacity:0.506;stroke:#ffffff;stroke-width:2.117;stroke-opacity:0.502"
         inkscape:connector-curvature="0"
         d="m -45.534,209.35 29.33,16.933 v 33.867 l -29.33,16.933 -29.33,-16.933 v -33.867 z"
         id="path2-5" /></clipPath><clipPath
       id="clipPath3-1"><path
         style="fill-opacity:0.506;stroke:#ffffff;stroke-width:2.117;stroke-opacity:0.502"
         inkscape:connector-curvature="0"
         d="m -45.534,209.35 29.33,16.933 v 33.867 l -29.33,16.933 -29.33,-16.933 v -33.867 z"
         id="path3-46" /></clipPath><clipPath
       id="clipPath4-0"><path
         style="fill-opacity:0.506;stroke:#ffffff;stroke-width:2.117;stroke-opacity:0.502"
         inkscape:connector-curvature="0"
         d="m -45.534,209.35 29.33,16.933 v 33.867 l -29.33,16.933 -29.33,-16.933 v -33.867 z"
         id="path4-32" /></clipPath><clipPath
       id="clipPath5-2"><path
         style="fill-opacity:0.506;stroke:#ffffff;stroke-width:2.117;stroke-opacity:0.502"
         inkscape:connector-curvature="0"
         d="m -45.534,209.35 29.33,16.933 v 33.867 l -29.33,16.933 -29.33,-16.933 v -33.867 z"
         id="path5-1" /></clipPath><clipPath
       id="a-6"><rect
         ry="6"
         rx="6"
         height="44"
         width="76"
         fill="#555555"
         stroke-width="1.807"
         stroke-linecap="square"
         id="rect1-3"
         x="0"
         y="0" /></clipPath><clipPath
       id="a-1-3-7"><path
         style="fill-opacity:0.506;stroke:#ffffff;stroke-width:2.117;stroke-opacity:0.502"
         inkscape:connector-curvature="0"
         d="m -45.534,209.35 29.33,16.933 v 33.867 l -29.33,16.933 -29.33,-16.933 v -33.867 z"
         id="path2-0-6-9-9" /></clipPath><clipPath
       id="a-1-3-7-2"><path
         style="fill-opacity:0.506;stroke:#ffffff;stroke-width:2.117;stroke-opacity:0.502"
         inkscape:connector-curvature="0"
         d="m -45.534,209.35 29.33,16.933 v 33.867 l -29.33,16.933 -29.33,-16.933 v -33.867 z"
         id="path2-0-6-9-9-2" /></clipPath><inkscape:path-effect
       effect="fillet_chamfer"
       id="path-effect11"
       is_visible="true"
       lpeversion="1"
       nodesatellites_param="F,0,0,1,0,0,0,1 @ F,0,0,1,0,2,0,1 @ F,0,0,1,0,3,0,1 @ F,0,0,1,0,0,0,1"
       radius="0"
       unit="px"
       method="auto"
       mode="F"
       chamfer_steps="1"
       flexible="false"
       use_knot_distance="true"
       apply_no_radius="true"
       apply_with_radius="true"
       only_selected="false"
       hide_knots="false" /><inkscape:path-effect
       effect="fillet_chamfer"
       id="path-effect12"
       is_visible="true"
       lpeversion="1"
       nodesatellites_param="F,0,0,1,0,4,0,1 @ F,0,0,1,0,4,0,1 @ F,0,0,1,0,0,0,1 @ F,0,0,1,0,0,0,1"
       radius="0"
       unit="px"
       method="auto"
       mode="F"
       chamfer_steps="1"
       flexible="false"
       use_knot_distance="true"
       apply_no_radius="true"
       apply_with_radius="true"
       only_selected="false"
       hide_knots="false" /><inkscape:path-effect
       effect="fillet_chamfer"
       id="path-effect1"
       is_visible="true"
       lpeversion="1"
       nodesatellites_param="F,0,0,1,0,2,0,1 @ F,0,0,1,0,2,0,1 @ F,0,0,1,0,0,0,1 @ F,0,0,1,0,0,0,1"
       radius="0"
       unit="px"
       method="auto"
       mode="F"
       chamfer_steps="1"
       flexible="false"
       use_knot_distance="true"
       apply_no_radius="true"
       apply_with_radius="true"
       only_selected="false"
       hide_knots="false" /><clipPath
       id="a-1-8"><path
         style="fill-opacity:0.506;stroke:#ffffff;stroke-width:2.117;stroke-opacity:0.502"
         inkscape:connector-curvature="0"
         d="m -45.534,209.35 29.33,16.933 v 33.867 l -29.33,16.933 -29.33,-16.933 v -33.867 z"
         id="path2-0-6-0" /></clipPath></defs><g
     id="g1"
     transform="translate(0,0.1)"><rect
       width="76"
       height="44"
       rx="5.7142859"
       ry="5.7142859"
       clip-path="url(#a-6)"
       fill="#4a5a27"
       stroke="#000000"
       stroke-width="16"
       stroke-linecap="square"
       id="rect2"
       x="0"
       y="0"
       transform="matrix(1.05,0,0,1.05,10.1,188.9)"
       style="fill:#824420;fill-opacity:1" /><path
       fill="#799340"
       d="M 18.499998,197 H 81.5 v 8.4 H 18.499998 Z"
       id="path2-4"
       style="fill:#b35d2d;fill-opacity:1;stroke-width:1.05" /><g
       transform="rotate(-90,80.17466,219.65435)"
       id="g1087"><path
         sodipodi:nodetypes="cccccc"
         inkscape:connector-curvature="0"
         style="fill:#000000;fill-opacity:0.656566;stroke:none;stroke-width:4.011"
         transform="matrix(0.15539667,-0.26915492,0.26915492,0.15539667,29.01575,110.71198)"
         d="m -45.534,209.35 29.33,50.8 -29.33,16.933 -29.33,-16.933 v -33.867 z"
         clip-path="url(#a-1-8)"
         id="path1078" /><path
         style="fill:#000000;fill-opacity:1;stroke:none;stroke-width:8.86409;stroke-linecap:round;stroke-linejoin:miter;stroke-miterlimit:4;stroke-dasharray:none;stroke-opacity:1;paint-order:normal"
         d="M 95.69742,156.8684 H 100 l 1e-5,12.26322 -10.0394,5.73678 1e-5,21.1316 -4.3026,-1e-5 v -23.99998 l 10.03939,-5.7368 z"
         id="path1080"
         inkscape:connector-curvature="0"
         sodipodi:nodetypes="ccccccccc" /><path
         sodipodi:nodetypes="ccccccccc"
         inkscape:connector-curvature="0"
         id="path1082"
         d="m 79.96061,156.8684 h -4.30258 l -1e-5,12.26322 10.03939,5.73678 3e-4,49.61129 h 4.3026 L 90,172.00001 79.96062,166.26321 Z"
         style="fill:#000000;fill-opacity:1;stroke:none;stroke-width:8.86409;stroke-linecap:round;stroke-linejoin:miter;stroke-miterlimit:4;stroke-dasharray:none;stroke-opacity:1;paint-order:normal" /></g><path
       style="fill:#000000;fill-opacity:1;stroke:none;stroke-width:7.02895;stroke-linecap:round;stroke-linejoin:miter;stroke-miterlimit:4;stroke-dasharray:none;stroke-opacity:1"
       d="M 57,201.90001 V 211.9 h -6 v -9.99999 c 0,-4.00001 6,-4.00001 6,0 z"
       id="path1091"
       inkscape:connector-curvature="0"
       sodipodi:nodetypes="ccccc" /><path
       sodipodi:nodetypes="ccccc"
       inkscape:connector-curvature="0"
       id="path1089"
       d="M 41,221.99999 V 212 h 6 v 9.99999 c 0,4.00001 -6,4.00001 -6,0 z"
       style="fill:#000000;fill-opacity:1;stroke:none;stroke-width:7.02895;stroke-linecap:round;stroke-linejoin:miter;stroke-miterlimit:4;stroke-dasharray:none;stroke-opacity:1" /></g><path
     inkscape:connector-curvature="0"
     id="path1260-7"
     d="m 59.999999,294 v -8 h 9.999999 l 4,-4 V 256 H 82 v 28 l -10.000002,10 z"
     clip-path="none"
     style="fill:#000000;fill-opacity:1;stroke-width:7.648;stroke-miterlimit:10;stroke-opacity:0.49"
     sodipodi:nodetypes="ccccccccc" /><path
     d="m 36,112 4,4 v 26 l -4,4 H 20 l -4,-4 v -26 l 4,-4 z"
     clip-path="url(#b)"
     transform="rotate(-90,118,168)"
     fill="#515151"
     stroke="#000000"
     stroke-width="19.5959"
     stroke-miterlimit="10"
     id="path7"
     style="fill:#353716;fill-opacity:1;stroke-width:14;stroke-dasharray:none"
     inkscape:transform-center-x="5.6698262"
     inkscape:transform-center-y="13.143687" /><path
     clip-path="url(#clipPath1040-0)"
     sodipodi:nodetypes="ccccccccc"
     inkscape:connector-curvature="0"
     id="path1038-6"
     d="m 36,128 4,4 v 54 l -4,4 H 12 l -4,-4 v -54 l 4,-4 z"
     style="fill:#462411;fill-opacity:1;stroke:#000000;stroke-width:13.3356;stroke-miterlimit:10;stroke-dasharray:none;stroke-opacity:1"
     transform="matrix(1.3125,0,0,1.0967742,18.499998,25.6129)" /><path
     style="fill:#1f1812;fill-opacity:1;stroke:#000000;stroke-width:6;stroke-linecap:round;stroke-linejoin:miter;stroke-miterlimit:4;stroke-dasharray:none;stroke-opacity:1"
     d="m 36.499996,167.5 v -118 h 26.999999 v 118 z"
     id="path927-5"
     inkscape:connector-curvature="0"
     sodipodi:nodetypes="ccccc" /><path
     d="m 18,158 -4,4 v 59.82 l 4,4.18 v 20 h 20 v -20 l 4,-4 v -32 h 4 l 0.117,-24 H 42 v -4 l -4,-4 z"
     clip-path="url(#a)"
     fill="#273723"
     stroke-width="14.4123"
     stroke-miterlimit="10"
     stroke="#000000"
     id="path3"
     transform="matrix(1.2324614,0,0,1,15.350573,54)"
     style="fill:#232314;fill-opacity:1" /><rect
     style="fill:#000000;fill-opacity:1;stroke:none;stroke-width:14;stroke-linecap:square;stroke-linejoin:round;stroke-dasharray:none;stroke-opacity:0.2"
     id="rect13"
     width="4"
     height="16"
     x="73"
     y="250" /><rect
     style="fill:#000000;fill-opacity:1;stroke:none;stroke-width:14;stroke-linecap:square;stroke-linejoin:round;stroke-dasharray:none;stroke-opacity:0.2"
     id="rect13-0"
     width="4"
     height="16"
     x="81"
     y="250" /><rect
     style="fill:#000000;fill-opacity:1;stroke:none;stroke-width:8;stroke-linecap:square;stroke-linejoin:round;stroke-opacity:0.2"
     id="rect12-2-0"
     width="5"
     height="124"
     x="43"
     y="42" /><rect
     style="fill:#000000;fill-opacity:1;stroke:none;stroke-width:8.00001;stroke-linecap:square;stroke-linejoin:round;stroke-opacity:0.2"
     id="rect12-2-0-0"
     width="5"
     height="15.999999"
     x="34.5"
     y="42" /><rect
     style="fill:#000000;fill-opacity:1;stroke:none;stroke-width:8.00001;stroke-linecap:square;stroke-linejoin:round;stroke-opacity:0.2"
     id="rect12-2-0-0-8"
     width="5"
     height="16"
     x="60.5"
     y="41.816559" /><rect
     style="fill:#000000;fill-opacity:1;stroke:none;stroke-width:8;stroke-linecap:square;stroke-linejoin:round;stroke-opacity:0.2"
     id="rect12-2-0-3"
     width="5"
     height="124"
     x="52"
     y="42" /><rect
     style="fill:#1f1812;fill-opacity:1;fill-rule:evenodd;stroke:#000000;stroke-width:4;stroke-dasharray:none;stroke-opacity:1"
     id="rect3"
     width="33"
     height="6"
     x="33.499996"
     y="60"
     rx="0"
     ry="0" /><rect
     style="fill:#1f1812;fill-opacity:1;fill-rule:evenodd;stroke:#000000;stroke-width:5;stroke-dasharray:none;stroke-opacity:1"
     id="rect3-0"
     width="33"
     height="10"
     x="33.5"
     y="98"
     rx="0"
     ry="0" /><rect
     style="fill:#1f1812;fill-opacity:1;fill-rule:evenodd;stroke:#000000;stroke-width:6;stroke-dasharray:none;stroke-opacity:1"
     id="rect3-0-9"
     width="48"
     height="12"
     x="26.000002"
     y="144"
     rx="0"
     ry="0" /><rect
     style="fill:#353716;fill-opacity:1;fill-rule:evenodd;stroke:#000000;stroke-width:7;stroke-dasharray:none;stroke-opacity:1"
     id="rect3-0-6"
     width="14.00001"
     height="33"
     x="21.999996"
     y="248.5"
     rx="0"
     ry="0" /><rect
     style="fill:#2a2a2a;fill-opacity:1;fill-rule:evenodd;stroke:#000000;stroke-width:4;stroke-dasharray:none;stroke-opacity:1"
     id="rect3-0-6-2"
     width="8"
     height="33"
     x="46.023884"
     y="226.36377"
     rx="0"
     ry="0" /><path
     id="path1225-7"
     clip-path="url(#a-1-3)"
     d="m -45.534,209.35 29.33,16.933 v 33.867 l -29.33,16.933 -29.33,-16.933 v -33.867 z"
     transform="matrix(0.10708796,0,0,0.10708796,59.276143,177.58114)"
     style="fill:#000000;fill-opacity:1;stroke:none;stroke-width:3.64636"
     inkscape:connector-curvature="0" /><path
     inkscape:connector-curvature="0"
     style="fill:#000000;fill-opacity:1;stroke:none;stroke-width:3.64636"
     transform="matrix(0.10708796,0,0,0.10708796,59.276143,166.58114)"
     d="m -45.534,209.35 29.33,16.933 v 33.867 l -29.33,16.933 -29.33,-16.933 v -33.867 z"
     clip-path="url(#a-1-3)"
     id="path1227-7" /><path
     inkscape:connector-curvature="0"
     style="fill:#000000;fill-opacity:1;stroke:none;stroke-width:3.64636"
     transform="matrix(0.10708796,0,0,0.10708796,59.276143,155.58114)"
     d="m -45.534,209.35 29.33,16.933 v 33.867 l -29.33,16.933 -29.33,-16.933 v -33.867 z"
     clip-path="url(#a-1-3)"
     id="path1229-0" /><path
     inkscape:connector-curvature="0"
     style="fill:#000000;fill-opacity:1;stroke:none;stroke-width:3.64636"
     transform="matrix(0.10708796,0,0,0.10708796,50.476143,177.58114)"
     d="m -45.534,209.35 29.33,16.933 v 33.867 l -29.33,16.933 -29.33,-16.933 v -33.867 z"
     clip-path="url(#a-1-3)"
     id="path1231-9" /><path
     id="path1233-5"
     clip-path="url(#a-1-3)"
     d="m -45.534,209.35 29.33,16.933 v 33.867 l -29.33,16.933 -29.33,-16.933 v -33.867 z"
     transform="matrix(0.10708796,0,0,0.10708796,50.476143,166.58114)"
     style="fill:#000000;fill-opacity:1;stroke:none;stroke-width:3.64636"
     inkscape:connector-curvature="0" /><path
     id="path1235-7"
     clip-path="url(#a-1-3)"
     d="m -45.534,209.35 29.33,16.933 v 33.867 l -29.33,16.933 -29.33,-16.933 v -33.867 z"
     transform="matrix(0.10739857,0,0,0.10703793,50.490286,155.59161)"
     style="fill:#000000;fill-opacity:1;stroke:none;stroke-width:3.64193"
     inkscape:connector-curvature="0" /><rect
     style="fill:#232314;fill-opacity:1;fill-rule:evenodd;stroke-width:1"
     id="rect1"
     width="14"
     height="22"
     x="42.999996"
     y="271.00003" /><path
     style="fill:#b20000;fill-opacity:1;fill-rule:evenodd;stroke:#000000;stroke-width:3;stroke-dasharray:none;stroke-opacity:1"
     id="rect6"
     width="7"
     height="11"
     x="46.5"
     y="273.5"
     inkscape:path-effect="#path-effect6"
     sodipodi:type="rect"
     d="m 46.5,273.5 h 7 v 9 l -2,2 h -3 l -2,-2 z" /><rect
     style="fill:#000000;fill-opacity:1;fill-rule:evenodd;stroke-width:0.999999"
     id="rect5"
     width="12"
     height="8"
     x="-56"
     y="-276"
     transform="scale(-1)" /></svg>
