<?xml version="1.0" encoding="UTF-8" standalone="no"?>
<!-- Created with Inkscape (http://www.inkscape.org/) -->

<svg
   version="1.1"
   id="svg1"
   width="70"
   height="160"
   viewBox="0 0 70 160"
   sodipodi:docname="gun-dp12-01.svg"
   xmlns:inkscape="http://www.inkscape.org/namespaces/inkscape"
   xmlns:sodipodi="http://sodipodi.sourceforge.net/DTD/sodipodi-0.dtd"
   xmlns="http://www.w3.org/2000/svg"
   xmlns:svg="http://www.w3.org/2000/svg">
  <sodipodi:namedview
     id="namedview1"
     pagecolor="#777777"
     bordercolor="#000000"
     borderopacity="0.25"
     inkscape:showpageshadow="2"
     inkscape:pageopacity="0.0"
     inkscape:pagecheckerboard="0"
     inkscape:deskcolor="#d1d1d1">
    <inkscape:page
       x="0"
       y="0"
       width="70"
       height="160"
       id="page2"
       margin="0"
       bleed="0" />
  </sodipodi:namedview>
  <defs
     id="defs1" />
  <g
     id="g1"
     transform="translate(5.2882704,26.978131)">
    <g
       id="g2"
       transform="scale(0.1875,0.18551419)">
      <path
         style="fill:#727272"
         d="m 86.501157,1022.9981 c 0.340556,-0.551 -0.532887,-1.4399 -1.940983,-1.9752 C 83.152078,1020.4875 82,1019.5884 82,1019.0248 82,1018.4611 81.489102,1018 80.864671,1018 79.203657,1018 69,1006.1775 69,1004.2529 69,1003.7775 67.875,1001.8637 66.5,1000 L 64,996.61144 V 852.41271 C 64,729.516 63.792517,708.13436 62.595494,707.67502 c -0.772478,-0.29643 -1.854851,-2.48207 -2.405273,-4.85699 -1.224957,-5.28534 -2.95772,-10.39177 -4.8012,-14.14907 C 54.625059,687.11189 54,685.03508 54,684.05382 c 0,-0.98126 -0.9,-2.92827 -2,-4.32669 -1.139867,-1.44911 -2,-4.05678 -2,-6.06343 0,-1.93646 -0.675,-4.19584 -1.5,-5.02084 -0.825,-0.825 -1.5,-2.46001 -1.5,-3.63336 0,-1.17334 -1.101151,-4.46798 -2.447003,-7.32143 -1.37335,-2.91174 -2.54309,-7.38188 -2.665998,-10.18807 -0.120447,-2.75 -0.379444,-5.45 -0.57555,-6 -0.196105,-0.55 -4.258726,-1.12137 -9.028045,-1.26972 -7.135885,-0.22196 -8.9982,-0.6204 -10.516402,-2.25 C 20.7523,636.89113 19.312764,636 18.568034,636 c -0.744731,0 -1.613078,-0.675 -1.92966,-1.5 -0.316583,-0.825 -1.059331,-1.5 -1.650552,-1.5 -0.989247,0 -4.960823,-3.33989 -12.1485496,-10.2163 L 0,620.06741 0.02263736,563.2837 0.04527472,506.5 4.1642768,503 c 2.2654512,-1.925 5.5055519,-4.7375 7.2002242,-6.25 1.694672,-1.5125 3.42579,-2.75 3.846929,-2.75 0.713491,0 1.621535,-0.67853 7.02579,-5.25 1.609718,-1.36166 3.921056,-1.75 10.41579,-1.75 H 41 l 0.152314,-197.75 c 0.08377,-108.7625 0.256866,-198.2 0.384651,-198.75 0.127784,-0.55 0.284243,-1.699525 0.347685,-2.554499 0.06344,-0.854975 3.715489,-5.129975 8.115658,-9.5 C 62.671464,65.861151 63.829498,65 68.081156,65 h 3.788 L 72.184578,41.25 C 72.476574,19.263865 72.648536,17.314701 74.5,15.00499 78.48165,10.03786 85.375439,3.9438748 87.662054,3.3699711 88.947924,3.0472382 90,2.1569676 90,1.391592 90,0.23225436 95.257297,0 121.5,0 c 24.52996,0 31.5014,0.27658884 31.50632,1.25 0.007,1.3575522 5.3412,4.75 7.46896,4.75 0.72227,0 2.75839,-1.35 4.52472,-3 l 3.21151,-3 h 30.39425 c 27.56106,0 30.57021,0.16312487 32.28205,1.75 1.03829,0.9625 4.17125,3.325 6.96212,5.25 2.79088,1.925 5.59596,4.7375 6.23352,6.25 0.63755,1.5125 1.51884,2.75 1.95842,2.75 1.62337,0 2.14115,6.624066 2.1538,27.554173 L 248.20864,65 h 4.02448 c 3.11184,0 4.8668,0.737009 7.7389,3.25 2.04293,1.7875 4.57247,3.975123 5.6212,4.861384 1.04873,0.886262 4.49428,4.313192 7.65678,7.615401 L 279,86.730801 V 286.8654 487 h 8.32574 c 8.31064,0 8.33649,0.008 14.25,4.47335 3.25834,2.46035 6.29957,4.48535 6.75828,4.5 0.45871,0.0147 3.27121,2.35271 6.25,5.19567 L 320,506.33805 v 57.33097 C 320,601.22301 319.65504,621 319,621 c -0.55,0 -1,0.49446 -1,1.09879 0,1.26097 -5.77866,6.90121 -7.07057,6.90121 -0.47249,0 -1.34073,0.9 -1.92943,2 -0.5887,1.1 -1.90639,2 -2.92819,2 -1.02181,0 -2.11685,0.675 -2.43344,1.5 -0.31658,0.825 -1.19498,1.5 -1.952,1.5 -0.75702,0 -2.19088,0.9 -3.18637,2 -1.55009,1.71283 -3.07997,2 -10.65499,2 H 279 l -0.0151,5.25 c -0.0147,5.11561 -1.28964,10.00405 -3.76466,14.43426 -0.67116,1.20134 -1.22028,3.25283 -1.22028,4.55887 0,1.30604 -0.66069,3.24812 -1.4682,4.31574 -0.8075,1.06762 -1.4825,3.39275 -1.5,5.16696 -0.0175,1.77421 -0.93012,4.69921 -2.02806,6.5 -1.09795,1.80079 -1.99795,4.06167 -2,5.02417 -0.002,0.9625 -0.38171,1.75 -0.84368,1.75 -0.46197,0 -1.40583,1.9125 -2.09746,4.25 -0.69164,2.3375 -1.65521,5.01785 -2.14126,5.95633 -0.48606,0.93847 -1.19068,3.63847 -1.56584,6 -0.37516,2.36152 -1.27688,4.74367 -2.00382,5.29367 -1.08271,0.81917 -1.36963,27.07399 -1.58669,145.19299 l -0.26499,144.193 -2.25,2.09596 c -1.2375,1.15275 -2.25,2.78765 -2.25,3.63295 0,2.3396 -8.8969,13.3954 -11.60954,14.4267 -1.31475,0.4999 -2.39046,1.3397 -2.39046,1.8663 0,0.5265 -0.90653,1.245 -2.01452,1.5967 -1.10799,0.3517 -1.75643,1.057 -1.44098,1.5674 0.35073,0.5675 -28.41313,0.928 -74.0445,0.928 -49.58369,0 -74.410295,-0.3361 -73.998843,-1.0019 z m 158.311343,0.3188 c 0.72187,-0.2889 1.58437,-0.2534 1.91667,0.079 0.33229,0.3323 -0.25834,0.5687 -1.3125,0.5253 -1.16495,-0.048 -1.4019,-0.285 -0.60417,-0.6042 z"
         id="path8" />
      <path
         style="fill:#4b4b4b"
         d="m 89,1023.1684 c 0,-0.4574 -2.233082,-2.2786 -4.962404,-4.0471 -6.510597,-4.2187 -11.252298,-9.8828 -15.542964,-18.5664 L 65,993.48228 64.993839,851.49114 C 64.988252,722.72594 64.837324,709.22056 63.373497,706.5 c -0.887799,-1.65 -1.979229,-4.35 -2.425399,-6 -1.109446,-4.10289 -3.734873,-11.34479 -5.492787,-15.15113 C 54.65489,683.61575 54,681.53335 54,680.72132 c 0,-0.81204 -0.62608,-1.99603 -1.391288,-2.6311 -0.765209,-0.63506 -1.7027,-3.2313 -2.083313,-5.76942 -0.380614,-2.53811 -1.037585,-5.33611 -1.459936,-6.21777 -1.835698,-3.83205 -5.313139,-15.05651 -6.263755,-20.2181 l -1.034133,-5.61507 -7.709906,-0.52845 C 26.80922,639.24459 25.915074,638.91395 19.11849,634.21717 15.142389,631.46948 9.6020678,627.14657 6.8066643,624.61069 4.0112607,622.07481 1.3361871,620 0.8620562,620 0.38792529,620 0,594.98041 0,564.40091 v -55.59908 l 4.4533516,-4.20659 C 6.9026949,502.28161 12.618731,497.7137 17.155654,494.44432 25.293377,488.58015 25.51312,488.49326 33.452303,488 L 41.5,487.5 42,287.97327 42.5,88.446534 46.194469,83.938043 C 50.191235,79.060649 53.855379,75.60087 61.220582,69.75 64.661367,67.016663 66.898025,66 69.470582,66 H 73 L 73.0182,43.25 73.0364,20.5 75.854705,16.342961 C 79.116167,11.532253 84.353676,6.4640405 88.128819,4.4655902 89.574669,3.7001993 91.023046,2.382327 91.347434,1.5369852 91.859173,0.20341341 95.760898,0 120.82874,0 h 28.8915 l 3.71108,3.5 C 155.59089,5.5367351 158.16613,7 159.59107,7 162.29469,7 170,2.5491542 170,0.98745542 170,0.35983024 180.74984,0 199.5,0 225.26838,0 229,0.19287403 229,1.5247508 c 0,0.838613 1.07501,1.9334687 2.38891,2.4330126 3.51523,1.3364901 9.17638,6.6080636 12.6945,11.8209416 l 3.088,4.575544 0.56787,22.822875 L 248.30714,66 h 3.2158 c 4.50893,0 14.09296,7.576782 22.01978,17.408019 L 277.5,88.316037 278,287.90802 278.5,487.5 l 7.89916,0.29475 c 6.00967,0.22424 8.49374,0.76245 10.38486,2.25 1.36713,1.07539 2.91178,1.95525 3.43254,1.95525 1.22412,0 8.97283,6.13567 15.03344,11.90394 l 4.75,4.52088 -0.0316,55.03759 -0.0316,55.03759 -2.2184,2.51088 c -2.88129,3.26118 -15.09512,12.90641 -20.2184,15.96643 -3.22493,1.92617 -5.45326,2.40204 -11.5,2.4559 l -7.5,0.0668 -0.65342,5.5 c -0.72443,6.09778 -5.37245,21.92587 -6.88193,23.43535 -0.53056,0.53056 -0.96465,2.34952 -0.96465,4.04214 0,1.69263 -0.57908,3.96513 -1.28685,5.05 -1.53913,2.35921 -4.86326,10.87478 -7.21091,18.47251 -0.9347,3.025 -2.55634,7.3 -3.60363,9.5 -1.84477,3.87524 -1.90408,8.46618 -1.90139,147.19098 0.002,99.60091 -0.31923,143.39 -1.05502,143.84474 -0.58179,0.35957 -2.26172,3.19649 -3.73319,6.30427 -3.10246,6.5525 -10.83289,14.7476 -17.05,18.0749 -1.21827,0.652 -1.95087,1.6129 -1.628,2.1353 0.3686,0.5964 -26.2249,0.9498 -71.47199,0.9498 C 121.42656,1024 89,1023.6258 89,1023.1684 Z"
         id="path7" />
      <path
         style="fill:#353535"
         d="m 91,1023.0203 c 0,-0.5388 -1.822337,-1.9093 -4.049638,-3.0456 -6.256653,-3.1919 -13.456641,-11.2383 -17.408983,-19.4556 L 66,993.15626 V 851.56723 C 66,714.08427 65.944321,709.85527 64.080037,705.7391 63.024057,703.4076 60.927571,697.9 59.421179,693.5 c -4.284819,-12.51547 -5.148801,-14.79122 -6.833641,-18 -0.866369,-1.65 -1.577989,-3.6146 -1.581377,-4.36579 -0.0061,-1.35725 -1.213494,-5.30437 -5.675641,-18.55467 C 44.048734,648.77329 43,644.21722 43,642.45494 v -3.20414 l -8.582879,-0.45048 c -4.720584,-0.24777 -8.883084,-0.90973 -9.25,-1.47103 -0.366917,-0.5613 -1.841613,-1.65251 -3.277103,-2.42492 -3.713708,-1.99826 -9.915249,-6.8128 -16.3459931,-12.69014 L 0,617.1473 0.06919216,563.32365 0.13838432,509.5 6.8191922,503.67606 C 10.493636,500.47289 16.425,495.87278 20,493.45358 c 6.0513,-4.0949 6.960311,-4.40044 13.168213,-4.42606 3.667516,-0.0151 7.380016,-0.30066 8.25,-0.63451 C 42.853246,487.84234 43,469.36737 43,289.26105 V 90.736068 l 2.21383,-3.618034 C 49.932978,79.405593 64.500311,67.011799 69.130435,66.769938 73.916066,66.519954 74,66.107438 74,42.837063 74,21.804083 74.0899,20.789413 76.226312,17.709507 80.161188,12.036893 85.400115,6.8820877 89.25,4.8949417 91.3125,3.8303675 93,2.293498 93,1.4796761 93,0.20867167 96.948707,0 121,0 c 24.47726,0 28,0.19266661 28,1.5313848 0,0.8422616 0.7875,1.815488 1.75,2.1627252 0.9625,0.3472372 2.94447,1.458114 4.40437,2.4686152 C 156.61427,7.1732263 158.78414,8 159.9763,8 162.90451,8 171,3.1568062 171,1.4049782 171,0.23120559 175.69001,0 199.5,0 223.86242,0 228,0.21265929 228,1.4648162 c 0,0.805649 1.0125,2.0002778 2.25,2.6547308 4.45135,2.3541025 11.1813,9.059184 13.93869,13.887199 L 247,22.929164 v 21.490105 21.490105 l 3.75,0.667907 c 5.74516,1.023264 17.07472,10.133729 23.40754,18.822757 L 277,89.300077 V 287.95004 c 0,153.17219 0.27472,198.92468 1.2,199.84996 0.69277,0.69277 4.01135,1.2 7.85106,1.2 5.23298,0 7.68805,0.55137 11.51472,2.58603 6.03399,3.20831 11.51833,7.43976 17.68422,13.64429 l 4.75,4.77977 v 53.78255 53.78254 l -4.75,4.54983 c -12.80783,12.26809 -19.54965,16.07616 -29.75,16.80409 l -8,0.5709 -0.64719,5 c -0.67081,5.18254 -4.15482,18.5012 -5.75494,22 -0.50306,1.1 -1.56502,4.025 -2.35989,6.5 -1.92572,5.99612 -6.61769,18.72655 -8.34838,22.65113 -0.76428,1.73312 -1.3896,3.59648 -1.3896,4.1408 0,0.54431 -0.89012,2.9513 -1.97804,5.34887 -1.9405,4.27647 -1.97845,7.04285 -2,145.76271 L 255,992.30702 l -2.54015,5.59649 c -1.39709,3.07809 -3.08459,6.58109 -3.75,7.78459 -1.81113,3.2755 -8.85671,11.3119 -9.91723,11.3119 -1.05966,0 -8.12264,5.1175 -8.62595,6.25 C 229.65005,1024.4124 91,1024.1836 91,1023.0203 Z M 128.77752,212.5 c 0.15263,-99 0.0316,-181.0125 -0.26905,-182.25 C 128.00235,28.16652 127.40965,28 120.5,28 c -6.91861,0 -7.49949,0.163819 -7.97824,2.25 -0.28398,1.2375 -0.40506,83.0047 -0.26905,181.70489 l 0.24729,179.45489 2.5,0.71717 c 1.375,0.39445 4.975,0.63975 8,0.54511 L 128.5,392.5 Z M 204.25,392.35815 208,391.73832 V 209.94111 28.143913 l -5.25,-0.605527 c -2.8875,-0.33304 -6.52354,-0.240992 -8.08009,0.20455 l -2.83009,0.810076 0.0764,137.973498 c 0.042,75.88542 0.0781,157.6311 0.0801,181.65707 l 0.004,43.68358 2.75,0.41659 c 4.6657,0.70679 5.62844,0.71433 9.5,0.0744 z"
         id="path6" />
      <path
         style="fill:#232323"
         d="m 92,1023.0955 c 0,-0.4975 -2.405732,-2.2623 -5.346071,-3.9217 -6.47611,-3.6549 -12.451458,-10.2338 -16.294842,-17.9407 L 67.5,995.5 67,851.95568 C 66.542794,720.69712 66.35861,708.1956 64.848028,705.89047 63.939443,704.50398 62.738253,701.82393 62.178717,699.93479 59.877894,692.16663 53.995547,676.71056 52.89823,675.55 52.404203,675.0275 52,673.79179 52,672.80398 c 0,-0.98781 -0.835934,-4.38531 -1.85763,-7.55 -1.021697,-3.16469 -2.821697,-8.73805 -4,-12.38525 C 44.964066,649.22153 44,644.92403 44,643.31873 44,638.88852 42.391491,638 34.371429,638 c -5.092064,0 -7.671918,-0.44335 -8.728572,-1.5 -0.825,-0.825 -1.935638,-1.5 -2.468085,-1.5 C 21.862688,635 8.6767327,624.74729 3.875933,619.99423 L 0,616.15684 v -52.60922 -52.60923 l 5.25,-5.0926 C 10.348784,500.89987 22.04646,492 23.448419,492 c 0.381941,0 1.369438,-0.675 2.194438,-1.5 1.059591,-1.05959 3.645125,-1.5 8.806127,-1.5 4.829894,0 7.67725,-0.44718 8.401127,-1.31939 0.786266,-0.9474 1.055094,-57.19169 0.953466,-199.48454 C 43.672316,104.41543 43.783191,89.897052 45.331021,88.186719 46.24896,87.172409 47,85.91258 47,85.387099 c 0,-1.185873 9.002109,-9.902303 14.866589,-14.394802 2.401624,-1.839769 6.001624,-3.610089 8,-3.934043 L 73.5,66.469246 74,43.984623 74.5,21.5 77.299186,17.191956 C 80.851177,11.72532 85.561878,7.2948923 89.859044,5.3793747 91.706518,4.5558392 93.446502,3.0085789 93.725675,1.9410187 94.212173,0.08064675 95.345385,0 121,0 c 24.63793,0 26.80589,0.13918099 27.25903,1.75 0.27076,0.9625 3.00546,3.0745974 6.07711,4.6935498 l 5.58483,2.9435498 6.03722,-2.9435498 C 169.91641,4.5136505 171.9962,2.8973643 171.9977,1.75 171.99983,0.12645039 173.95771,0 199.09362,0 c 25.95935,0 27.11483,0.08109596 27.60018,1.9370986 0.27861,1.0654042 1.69898,2.3602773 3.15638,2.8774958 3.80124,1.3490252 12.04972,8.9383766 12.75086,11.7319486 0.32735,1.304281 1.22604,2.894979 1.99707,3.534884 1.12221,0.931349 1.40189,5.412017 1.40189,22.45923 0,11.712673 0.27314,22.007572 0.60699,22.877556 C 246.96392,66.34835 248.38752,67 250.06258,67 c 1.56673,0 4.55609,1.143278 6.64301,2.540617 C 262.17528,73.202946 273,83.17872 273,84.557105 c 0,0.645248 0.89889,2.315928 1.99753,3.712622 1.97954,2.51658 1.9998,4.329825 2.25,201.384863 L 277.5,488.5 l 8,0.53386 c 5.27969,0.35233 9.19013,1.20242 11.5,2.5 4.14409,2.32796 18.33765,13.4342 18.87118,14.7664 0.20415,0.50976 1.21665,1.65075 2.25,2.53553 1.79461,1.53659 1.87882,3.98693 1.87882,54.66775 v 53.05907 l -5.75,5.50459 C 307.69607,628.34142 300.55622,634 299.1935,634 c -0.50808,0 -2.04235,0.87986 -3.40948,1.95525 -1.89112,1.48755 -4.37519,2.02576 -10.38486,2.25 L 277.5,638.5 l -0.31875,4.48038 c -0.17532,2.46421 -0.67378,4.93921 -1.10769,5.5 -0.43391,0.56079 -1.58079,4.16962 -2.54862,8.01962 -0.96783,3.85 -2.38188,8.41801 -3.14232,10.15113 -0.76044,1.73312 -1.38262,3.99549 -1.38262,5.02749 0,1.032 -0.62348,2.76651 -1.38551,3.85446 -0.76203,1.08795 -1.85136,3.55058 -2.42073,5.47251 C 264.62439,682.92751 263.1872,686.975 262,690 c -1.1872,3.025 -2.59266,6.95755 -3.12324,8.739 -0.53058,1.78145 -1.83502,5.15645 -2.89876,7.5 -1.88241,4.14716 -1.93466,8.02026 -1.95604,144.97349 L 254,991.92497 l -2.11914,5.66392 c -3.78664,10.12071 -8.13171,15.39971 -17.63086,21.42041 -2.8875,1.8301 -5.25,3.7017 -5.25,4.1591 0,0.4574 -30.825,0.8316 -68.5,0.8316 -40.18068,0 -68.5,-0.374 -68.5,-0.9045 z m 78.66784,-93.60118 C 172.89097,928.56544 174,927.42709 174,926.07408 c 0,-1.11539 1.125,-2.7651 2.5,-3.66604 l 2.5,-1.63806 V 792.00743 c 0,-101.85597 -0.2612,-128.95351 -1.25,-129.67641 -4.56744,-3.33925 -24.63525,-4.14717 -32.5,-1.30844 l -3.25,1.17307 v 129.24719 c 0,127.97719 0.0197,129.26497 2,131.05716 1.1,0.99549 2,2.5379 2,3.42758 0,1.73014 4.88979,4.68342 9,5.43573 3.73217,0.6831 11.88839,-0.28983 15.66784,-1.86899 z M 105,510.69113 c 0,-58.51328 -0.21054,-68.58723 -1.4682,-70.25 -1.2957,-1.71308 -1.47353,6.04789 -1.51365,66.05887 -0.025,37.4 -0.3168,69.0125 -0.64844,70.25 -0.48628,1.81458 -0.19336,2.25 1.51366,2.25 H 105 Z M 218.18709,517.25 c 0.10289,-33.9625 0.24817,-65.2375 0.32283,-69.5 0.10211,-5.82934 -0.19208,-7.75 -1.18708,-7.75 -0.72756,0 -1.32914,0.5625 -1.33684,1.25 -0.008,0.6875 -0.12019,31.9625 -0.25,69.5 -0.18693,54.05921 0.0239,68.25001 1.014,68.25 0.98448,0 1.28974,-13.11645 1.43709,-61.75 z m -90.80414,-91.53372 c -0.0644,-2.08105 -0.41135,-4.07802 -0.77105,-4.43771 -0.35969,-0.3597 -3.36054,-0.84977 -6.66855,-1.08905 -6.26953,-0.4535 -9.94335,1.22953 -9.94335,4.55517 0,3.32803 4.22808,5.24871 11,4.99696 L 127.5,429.5 Z m 23.70692,2.67543 c 1.334,-1.60737 4.44912,-1.57762 19.16013,0.18301 3.36022,0.40215 3.75003,0.21371 3.75033,-1.81296 3.2e-4,-2.23724 -0.1459,-2.26176 -13.48821,-2.26176 -10.53027,0 -13.60456,0.30194 -14.01758,1.37675 C 145.95831,427.27218 147.61585,430 149,430 c 0.41531,0 1.35575,-0.72373 2.08987,-1.60829 z m 57.38276,-0.78368 c 2.7771,-2.38629 2.77925,-2.3981 0.90554,-4.96858 -1.60427,-2.20085 -2.65337,-2.58118 -7.19391,-2.60803 -2.92366,-0.0173 -6.12671,0.4026 -7.1179,0.93306 -1.82539,0.97693 -3.52113,6.49067 -2.50288,8.13823 0.305,0.49351 3.383,0.89729 6.84,0.89729 5.18626,0 6.77225,-0.4183 9.06915,-2.39197 z m -91.5634,-34.2924 c 7.47492,-0.10141 15.95327,-0.19283 18.84077,-0.20316 l 5.25,-0.0188 V 211.58202 c 0,-171.858946 -0.0931,-181.559482 -1.75,-182.411051 -6.18229,-3.177339 -34.56579,-3.225494 -37.75,-0.06405 -0.65747,0.652768 -1.09103,63.705464 -1.26576,184.078491 -0.248421,171.14657 -0.15653,182.99528 1.40923,181.70011 1.2183,-1.00775 5.38056,-1.43579 15.26576,-1.56989 z m 103.08942,-180.8745 c 0.001,-143.276039 -0.2595,-181.413405 -1.24865,-182.757831 -0.74502,-1.012602 -3.06794,-1.869647 -5.75,-2.121467 -2.475,-0.232379 -6.57967,-0.730861 -9.1215,-1.107738 -2.92774,-0.434097 -8.11645,-0.05595 -14.15769,1.031801 l -9.53619,1.717031 -0.64848,11.148537 C 179.17948,46.483158 179.02544,128.225 179.19383,222 L 179.5,392.5 h 5.66625 c 3.11643,0 6.01358,0.34715 6.4381,0.77144 0.42453,0.42429 6.9866,0.64929 14.5824,0.5 L 219.99729,393.5 Z"
         id="path5" />
      <path
         style="fill:#171717"
         d="m 92.687575,1022.6282 c -0.289521,-0.7545 -2.560509,-2.3565 -5.04664,-3.56 -6.175951,-2.9897 -12.834066,-10.1137 -16.818061,-17.9949 L 67.5,994.5 67.443575,852.4656 67.38715,710.43119 65.252246,705.9656 C 64.078049,703.50952 62.798803,700.15 62.409476,698.5 62.02015,696.85 61.093748,694.61237 60.350805,693.52749 59.607862,692.44262 59,690.33167 59,688.83651 c 0,-1.49516 -0.41717,-2.9763 -0.927045,-3.29142 -0.509874,-0.31512 -1.443856,-2.25418 -2.075515,-4.30902 -0.631658,-2.05484 -1.738367,-5.08607 -2.459352,-6.73607 -0.720985,-1.65 -2.103606,-5.7 -3.072491,-9 -3.313759,-11.28658 -4.778037,-16.0007 -5.591085,-18 -0.447332,-1.1 -0.939597,-3.575 -1.093922,-5.5 L 43.5,638.5 l -8,-0.52598 C 25.210032,637.29748 19.001406,633.72252 5.7894546,620.86652 L 0,615.23305 v -51.67792 -51.67792 l 6.25,-6.06553 c 5.550485,-5.38666 10.254516,-9.06695 15.786334,-12.35072 0.962699,-0.57147 2.481756,-1.64605 3.375682,-2.38794 0.900335,-0.74721 5.296967,-1.62191 9.856653,-1.96096 L 43.5,488.5 43.752473,289.65459 C 44.002672,92.599552 44.022931,90.786307 46.002473,88.269727 47.101113,86.873033 48,85.352216 48,84.890134 48,83.616201 58.901631,73.523866 64,70.077913 c 2.475,-1.672835 5.689355,-3.049707 7.143011,-3.059716 1.474506,-0.01015 2.911368,-0.717523 3.25,-1.599984 C 74.726855,64.548229 75,54.224787 75,42.47723 75,29.103927 75.37955,20.883459 76.015151,20.490636 76.573485,20.145567 77.644426,18.393433 78.395022,16.597006 79.893914,13.009651 86.954641,6.7281424 91.378859,5.0460577 92.926932,4.4574815 94.427475,3.0813374 94.7134,1.9879596 95.215245,0.06889873 96.126287,0 121,0 c 24.66474,0 25.78845,0.08301361 26.27433,1.9410187 0.27917,1.0675602 2.07672,2.596645 3.99455,3.3979661 1.91783,0.8013212 3.79346,1.9528628 4.16806,2.5589814 1.01625,1.6443344 8.11567,1.3460294 9.56638,-0.4019623 0.68651,-0.8271978 2.65411,-1.8662958 4.37244,-2.3091066 2.12956,-0.5487832 3.22598,-1.5026368 3.44379,-2.9960039 C 173.139,6.7970512e-4 173.14718,0 199.16317,0 c 24.99359,0 26.04434,0.07750118 26.5359,1.9572502 0.28151,1.0764877 1.92688,2.425329 3.65638,2.9974253 C 232.79514,6.092478 242,14.485348 242,16.483803 c 0,0.685564 0.89108,2.3793 1.98017,3.763858 1.81528,2.307752 2.00264,4.338322 2.25,24.384859 L 246.5,66.5 249.73354,67 c 1.77845,0.275 4.1461,1.2875 5.26143,2.25 1.11534,0.9625 2.37797,1.75 2.80583,1.75 C 259.1804,71 273,84.118393 273,85.427994 c 0,0.696293 0.9,2.303695 2,3.572006 1.98556,2.289374 2,3.741359 2,201.15301 V 489 h 7.36514 c 5.85095,0 7.88787,0.41118 9.90773,2 1.39842,1.1 3.06829,2 3.71082,2 1.50476,0 11.1575,7.47958 17.26631,13.3791 l 4.75,4.58725 v 52.36073 52.36073 l -4.75,4.93161 c -2.6125,2.71238 -6.55,6.26756 -8.75,7.9004 -2.2,1.63284 -4.225,3.21571 -4.5,3.51749 -0.275,0.30177 -2.975,1.76065 -6,3.24194 -3.91754,1.91835 -7.37018,2.76914 -12,2.957 l -6.5,0.26375 -0.63223,4 c -0.34773,2.2 -1.0973,5.35 -1.66572,7 -2.11852,6.14963 -3.20297,10.19753 -3.23385,12.071 -0.0175,1.06095 -0.6925,2.80251 -1.5,3.87013 -0.80751,1.06762 -1.4682,2.87429 -1.4682,4.01481 0,1.14052 -0.9,3.75288 -2,5.80524 -1.1,2.05237 -2,4.53307 -2,5.51269 0,0.97961 -0.6175,2.66875 -1.37223,3.75362 -0.75472,1.08488 -1.69713,3.46532 -2.09425,5.28987 -0.39711,1.82455 -1.35184,4.52455 -2.12161,6 -0.76977,1.47545 -1.40236,3.54721 -1.40575,4.6039 -0.003,1.05669 -0.60352,2.63169 -1.33364,3.5 -3.60561,4.28808 -3.67223,7.00154 -3.68714,150.19476 l -0.0146,140.38398 -3.23539,6.609 c -4.54397,9.2821 -9.94082,14.9603 -17.52889,18.4427 -1.81143,0.8313 -3.54708,2.1723 -3.85699,2.9799 -0.81866,2.1334 -134.84371,2.2289 -135.661925,0.097 z M 207.22761,963.06908 c 1.9008,-0.0481 4.32703,-1.66049 8.00403,-5.31908 l 5.27642,-5.25 -0.1143,-113.5 c -0.10228,-101.57398 0.0508,-113.76269 1.45686,-116 0.86413,-1.375 1.67133,-3.12995 1.79378,-3.89989 0.12245,-0.76994 0.6419,-1.66994 1.15433,-2 0.51244,-0.33006 1.24768,-1.61261 1.63388,-2.85011 0.38619,-1.2375 1.07176,-2.25 1.52349,-2.25 0.45172,0 1.1377,-1.68647 1.52439,-3.74771 0.38669,-2.06124 0.99927,-3.97374 1.36129,-4.25 1.03701,-0.79135 4.41285,-10.31222 4.34433,-12.25229 -0.034,-0.9625 0.29908,-1.75 0.74018,-1.75 0.86915,0 4.07371,-7.75227 4.07371,-9.85486 0,-0.7084 0.67432,-1.96232 1.4985,-2.7865 0.82417,-0.82417 1.69594,-2.47953 1.93725,-3.67857 1.32228,-6.57011 1.69448,-7.66744 3.06575,-9.03871 0.82418,-0.82418 1.4985,-2.6235 1.4985,-3.9985 0,-1.375 0.60255,-3.10255 1.33899,-3.83899 0.73644,-0.73645 1.59656,-2.45609 1.91138,-3.82143 0.31481,-1.36534 0.91255,-3.60744 1.32831,-4.98244 0.41575,-1.375 1.01813,-7.225 1.33862,-13 0.54083,-9.74544 0.73619,-10.52189 2.71862,-10.8046 1.47895,-0.21091 2.3248,-1.24901 2.75,-3.375 C 259.72366,619.13168 260,591.73891 260,559.94758 v -57.80242 l -2.75,-2.07985 c -2.49079,-1.8838 -4.70991,-3.61668 -10.32843,-8.06531 -1.05442,-0.83487 -2.32083,-3.7171 -2.856,-6.5 -0.59338,-3.08554 -0.98135,-77.94095 -1.01325,-195.5 -0.0284,-104.775 -0.0518,-190.765268 -0.052,-191.089485 C 242.99989,98.106497 238.25101,96 236.43886,96 c -1.28585,0 -1.45549,31.94658 -1.37356,258.65457 l 0.0935,258.65458 -4.82939,5.16363 c -2.65616,2.84001 -5.50439,5.58295 -6.32939,6.09543 -0.825,0.51248 -6.9,1.15679 -13.5,1.43179 l -12,0.5 -0.25321,151.63022 c -0.22244,133.2097 -0.43504,151.78112 -1.75,152.87244 -0.82323,0.68323 -1.49679,2.06612 -1.49679,3.0731 0,1.00698 -1.17972,2.63938 -2.62161,3.62756 -1.44189,0.98817 -3.71234,2.80918 -5.04546,4.04668 -1.33311,1.2375 -2.67592,2.25 -2.98403,2.25 -0.3081,0 -1.9384,1.15969 -3.62289,2.57709 l -3.0627,2.57709 -18.46111,-0.32709 C 141.34254,948.51066 140.69246,948.4267 139.24857,946.25 138.42769,945.0125 137.13594,944 136.37803,944 135.62011,944 135,943.325 135,942.5 c 0,-0.83333 -0.88889,-1.5 -2,-1.5 -1.1,0 -2,-0.46114 -2,-1.02475 0,-0.56361 -1.125,-1.45248 -2.5,-1.97525 -1.45743,-0.55412 -2.5,-1.74381 -2.5,-2.8528 0,-1.04627 -0.675,-2.46251 -1.5,-3.1472 -1.32103,-1.09636 -1.50163,-19.15688 -1.51365,-151.37244 -0.008,-82.57016 -0.25944,-151.04233 -0.55984,-152.16037 -0.49749,-1.8516 -1.45462,-2.05654 -10.73635,-2.29894 -11.03517,-0.28818 -18.129525,-1.64833 -17.119718,-3.28223 0.346934,-0.56135 -0.314488,-1.26783 -1.469826,-1.56996 C 91.945277,621.01393 91,620.38488 91,619.91816 c 0,-0.46671 -1.381251,-2.42173 -3.069447,-4.34447 -1.688195,-1.92275 -2.986376,-4.30091 -2.884845,-5.2848 C 85.147238,609.305 85.178489,493.1875 85.115154,352.25 85.000317,96.705051 84.994497,96 83,96 c -1.1,0 -2.9,0.9 -4,2 -1.986172,1.986172 -2,3.33333 -2,194.84636 0,175.2692 -0.14674,193.14051 -1.609946,196.07358 -0.88547,1.77496 -2.23547,3.46725 -3,3.76062 C 71.625524,492.97394 71,493.84083 71,494.60699 c 0,0.76615 -0.5625,1.41174 -1.25,1.43464 -0.6875,0.0229 -3.05,1.63069 -5.25,3.57287 l -4,3.53125 0.125914,59.54062 0.125915,59.54062 2.874085,2.29012 c 2.763251,2.20182 2.881963,2.64997 3.07835,11.62127 0.118702,5.42249 0.642304,9.47714 1.25,9.67971 C 68.529419,646.00981 69,647.70393 69,649.58281 c 0,1.87888 1.089529,5.55388 2.421176,8.16667 1.331647,2.61279 3.402527,7.90052 4.601957,11.75052 1.19943,3.85 3.082047,7.97919 4.183593,9.17597 1.101546,1.19679 1.722262,2.62991 1.379368,3.18473 -0.623679,1.00913 4.240211,14.16491 5.610185,15.17435 C 88.61147,698.0778 91,704.98009 91,708.0269 c 0,1.83003 0.412765,2.83603 1.011745,2.46584 0.562221,-0.34747 1.284217,0.73707 1.625,2.44098 C 93.974035,714.62018 94.64375,716 95.125,716 c 0.48125,0 0.875,0.9 0.875,2 0,1.1 0.45,2 1,2 0.55,0 1,0.87344 1,1.94098 0,1.06754 0.3375,2.14957 0.75,2.4045 0.4125,0.25493 0.723727,51.82804 0.691616,114.60689 l -0.05838,114.14338 5.416344,4.91603 5.41635,4.91603 9.14203,0.28609 c 7.40076,0.23161 77.57373,0.11595 87.86965,-0.14482 z m -34.42387,-32.73974 c 1.26706,-0.79523 2.57661,-2.20715 2.91011,-3.13761 0.3335,-0.93045 1.43431,-2.49676 2.44625,-3.48069 C 179.92805,921.99205 180,916.83025 180,791.70933 V 661.49657 l -4.25,-2.25106 c -3.70476,-1.96227 -5.72535,-2.2486 -15.75,-2.23184 -10.084,0.0169 -11.99252,0.29816 -15.5,2.28456 l -4,2.26534 -0.30057,121.96821 c -0.16531,67.08252 -0.0163,125.6342 0.33116,130.11485 0.40578,5.23289 1.22861,8.93433 2.30057,10.34897 5.16814,6.82031 5.92431,7.38635 10.77941,8.06918 6.5799,0.9254 16.36304,0.0408 19.19317,-1.73544 z M 96.689326,875.25 c -0.251528,-0.9625 -0.457323,-0.175 -0.457323,1.75 0,1.925 0.205795,2.7125 0.457323,1.75 0.251527,-0.9625 0.251527,-2.5375 0,-3.5 z m -5.027045,-134.5 c -0.277413,-0.6875 -0.504386,-0.125 -0.504386,1.25 0,1.375 0.226973,1.9375 0.504386,1.25 0.277412,-0.6875 0.277412,-1.8125 0,-2.5 z M 108.4,609.2363 c -0.055,-0.67996 -0.1675,-4.7013 -0.25,-8.9363 -0.19307,-9.91075 -1.70663,-8.38352 -2.49579,2.51831 -0.54429,7.51912 -0.43651,8.28641 1.12182,7.98631 0.94819,-0.18261 1.67897,-0.88835 1.62397,-1.56832 z m 106.00404,-6.4681 c -0.16215,-4.52749 -0.6569,-8.35106 -1.09943,-8.49683 -0.44254,-0.14576 -0.91005,3.55854 -1.03892,8.2318 -0.18014,6.53247 0.074,8.49683 1.09944,8.49683 1.02753,0 1.26606,-1.88998 1.03891,-8.2318 z m 89.27907,6.0443 c -0.31922,-0.79773 -0.55618,-0.56078 -0.60416,0.60417 -0.0434,1.05416 0.19293,1.64479 0.52522,1.3125 0.33229,-0.33229 0.36781,-1.1948 0.0789,-1.91667 z M 105.76985,510.15032 105.5,440.30064 103,437.6676 c -1.375,-1.44818 -2.8375,-2.64082 -3.25,-2.65032 -0.926385,-0.0213 -1.009196,143.39019 -0.08333,144.31605 C 100.03333,579.7 101.61727,580 103.18652,580 h 2.85318 z M 221.00707,579.25 c 0.59445,-63.05056 0.27617,-143.25011 -0.56851,-143.25006 -1.46762,8e-5 -5.42636,3.81117 -5.49393,5.28902 -0.0744,1.62742 -0.0774,137.00688 -0.003,137.96104 0.0321,0.4125 1.40844,0.75 3.05844,0.75 1.65,0 3.00318,-0.3375 3.00707,-0.75 z M 17.5,517 c 0.339919,-0.55 0.141476,-1 -0.440983,-1 C 16.476558,516 16,516.45 16,517 c 0,0.55 0.198442,1 0.440983,1 0.242541,0 0.719098,-0.45 1.059017,-1 z m 160,-60 c -0.33992,-0.55 -4.38992,-1 -9,-1 -4.61008,0 -8.66008,0.45 -9,1 -0.39566,0.64019 2.84262,1 9,1 6.15738,0 9.39566,-0.35981 9,-1 z m -48.22713,-28 c 1.39842,-1.1 2.99661,-2 3.55153,-2 1.71363,0 1.83067,-2.036 0.59883,-10.41694 -0.65343,-4.44568 -0.98941,-8.42056 -0.74662,-8.83306 0.24278,-0.4125 -0.59763,-0.80332 -1.86759,-0.86848 -6.27779,-0.32213 -7.87815,1.20211 -4.41954,4.20933 1.43579,1.2484 2.61052,2.86367 2.61052,3.58949 0,0.72581 0.47656,1.31966 1.05902,1.31966 0.58246,0 0.77636,0.45734 0.4309,1.01631 -0.34546,0.55897 -1.04702,0.75742 -1.55902,0.44098 -0.51199,-0.31643 -0.9309,-0.19894 -0.9309,0.26109 0,1.27811 -11.20502,0.56792 -12.02715,-0.7623 -0.52605,-0.85117 -1.43194,-0.70138 -3.34706,0.55345 -2.43685,1.59669 -2.62579,1.60004 -2.62579,0.0465 0,-0.92071 0.45,-1.39591 1,-1.05599 0.55,0.33992 1,0.16803 1,-0.38197 0,-1.91743 -2.02748,-2.2334 -3.68638,-0.57451 -1.46298,1.46298 -1.51701,2.24912 -0.43398,6.31376 1.78964,6.71661 5.06914,9.06167 12.7355,9.10676 4.63921,0.0273 6.72881,-0.44675 8.65773,-1.96404 z m 45.06385,-0.93359 c 0.30459,-1.52297 0.29221,-3.76936 -0.0275,-4.99199 -0.47769,-1.8267 -1.04725,-2.1047 -3.19526,-1.55961 -3.0431,0.77223 -19.02606,1.29859 -20.86395,0.6871 -0.6875,-0.22874 -1.25,-1.71774 -1.25,-3.3089 C 149,417.30186 148.60242,416 148.1165,416 c -1.07765,0 -2.52915,12.5233 -1.62169,13.99161 0.40475,0.65489 5.64718,1.00998 13.96801,0.9461 l 13.32009,-0.10225 z M 208.7482,428.25 c 4.0391,-3.67895 5.46492,-12.25 2.03782,-12.25 -0.55,0 -0.78403,0.5625 -0.52007,1.25 0.64371,1.67657 -17.8287,1.58725 -19.51029,-0.0943 -0.87421,-0.87421 0.17161,-1.18174 4.29434,-1.26275 l 5.45,-0.10709 -4.25,-0.95176 c -3.21351,-0.71964 -4.25,-1.42516 -4.25,-2.89291 0,-1.58885 0.77133,-1.97376 4.25,-2.12085 6.44325,-0.27242 11.14362,0.2076 12.2,1.24593 1.95513,1.92173 2.57557,0.84298 0.84668,-1.47213 -1.68447,-2.25564 -2.42615,-2.40935 -11.87587,-2.46135 l -10.07919,-0.0555 -0.007,5.21135 c -0.004,2.86625 -0.35091,7.01977 -0.77145,9.23004 -0.7336,3.85554 -0.6088,4.12956 3.07413,6.75 3.17654,2.26014 4.89562,2.73132 9.96513,2.73132 5.28472,0 6.54116,-0.3778 9.14559,-2.75 z M 174,417.44098 C 174,416.64844 173.325,416 172.5,416 c -1.50623,0 -2.05568,2.11099 -0.86052,3.30615 0.93324,0.93324 2.36052,-0.19452 2.36052,-1.86517 z m -56.65287,-7.90321 C 118.03499,407.74523 117.14997,407 114.33333,407 112.33043,407 112,407.4989 112,410.52305 c 0,3.49543 0.019,3.51064 2.41603,1.94001 1.32882,-0.87067 2.64781,-2.18705 2.9311,-2.92529 z m -6.57607,1.64905 c 0.24358,-0.73075 -0.21359,-0.95424 -1.1875,-0.58051 -0.87096,0.33422 -1.58356,1.04702 -1.58356,1.58401 0,1.31439 2.27278,0.49134 2.77106,-1.0035 z m 6.58686,-16.8742 c 7.22814,-0.10306 15.61708,-0.32806 18.64208,-0.5 l 5.5,-0.31262 0.25269,-182.22519 0.25268,-182.225183 -2.42689,-1.59016 c -2.03775,-1.335189 -5.25827,-1.539596 -20.08524,-1.274813 -16.12127,0.287896 -17.78174,0.484314 -19.0758,2.256476 C 99.206413,30.099585 99,57.052091 99,213.52446 c 0,100.72822 0.300982,183.44319 0.668848,183.81106 0.367872,0.36786 1.541432,-0.11964 2.607922,-1.08334 1.6146,-1.45898 4.13821,-1.78354 15.08115,-1.93956 z M 221.47316,213.18938 c -0.0216,-147.825685 -0.27817,-184.394163 -1.30114,-185.416223 -1.84459,-1.84295 -38.52849,-1.818615 -40.37283,0.02678 -1.05416,1.054763 -1.34785,35.612646 -1.55719,183.228943 l -0.25799,181.929 2.25799,0.54104 c 1.2419,0.29756 4.058,0.51848 6.258,0.49091 2.2,-0.0276 9.72109,0.076 16.71354,0.23003 10.55186,0.23251 13.01274,0.57921 14.47322,2.03907 0.96782,0.96741 2.22172,1.60471 2.78645,1.41622 0.69756,-0.23282 1.01818,-59.38714 0.99995,-184.48577 z"
         id="path4" />
      <path
         style="fill:#0b0b0b"
         d="m 93.986856,1022.75 c -0.0072,-0.6875 -2.643228,-2.5125 -5.857777,-4.0557 C 80.049144,1014.8157 76.111509,1010.4711 70.27945,999 68.605515,995.70754 68.469316,987.02064 67.982527,852.5 67.692692,772.40619 67.071423,708.40024 66.570243,707 c -0.492147,-1.375 -1.228502,-2.725 -1.636346,-3 -0.936244,-0.63129 -4.900132,-11.51188 -5.646776,-15.5 -0.308908,-1.65 -1.174882,-3.88763 -1.924386,-4.97251 C 56.613231,682.44262 56,680.86095 56,680.01268 c 0,-0.84826 -0.9,-3.2215 -2,-5.27386 -1.1,-2.05237 -2.015946,-4.7457 -2.035435,-5.9852 C 51.945075,667.51413 51.286021,665.375 50.5,664 49.713979,662.625 49.054925,660.28906 49.035435,658.80902 49.015946,657.32898 48.55,655.83992 48,655.5 c -0.55,-0.33992 -1.002772,-1.60398 -1.006161,-2.80902 -0.0034,-1.20504 -0.678388,-3.47992 -1.5,-5.05529 C 44.672228,646.06032 44,643.24782 44,641.38569 V 638 H 37.052915 C 31.61601,638 29.112062,637.47161 25.534331,635.56931 19.644364,632.43759 13.846005,627.94733 7.1202744,621.30945 4.1614253,618.38925 1.3489253,616 0.87027436,616 0.3878171,616 0,593.00165 0,564.39095 v -51.60906 l 2.25,-2.4923 C 7.9770061,503.94585 16.057216,497 17.709975,497 18.419489,497 19,496.60127 19,496.11394 c 0,-0.48733 1.555885,-1.62437 3.457522,-2.52676 1.901636,-0.90238 3.728194,-2.07866 4.059017,-2.61394 C 26.847361,490.43796 30.376476,490 34.359017,490 38.657559,490 42.087631,489.51237 42.8,488.8 43.725248,487.87475 44,442.29061 44,289.70773 44,93.329655 44.015303,91.796004 46,89.272871 47.1,87.874447 48,86.16444 48,85.472855 48,83.971139 58.718615,73.870005 62.988767,71.347564 64.644945,70.369236 66,69.215808 66,68.784392 66,68.352977 67.485,68 69.3,68 c 1.815,0 3.84,-0.54 4.5,-1.2 0.859524,-0.859524 1.2,-7.350568 1.2,-22.877555 0,-17.374705 0.278265,-21.908495 1.401887,-22.841018 0.771038,-0.639905 1.653347,-2.165359 1.960687,-3.389899 0.766555,-3.0542 9.511301,-11.2146917 12.921435,-12.0581279 1.563066,-0.386597 3.278044,-1.772865 3.910515,-3.1609877 L 96.32103,0 h 24.73108 24.73107 l 0.59909,2.3869608 c 0.44305,1.7652532 1.52682,2.5610033 4.16097,3.0551728 1.95903,0.3675165 3.81137,1.3183841 4.11631,2.1130391 0.75357,1.9637735 9.65891,1.970958 11.2871,0.00911 0.65535,-0.7896467 2.51088,-1.7254946 4.12339,-2.0796622 1.98409,-0.4357793 3.12821,-1.4263439 3.53931,-3.0642787 L 174.21682,0 h 24.91634 24.91634 l 0.91528,2.4073737 c 0.5791,1.5231456 2.02564,2.6512481 3.9383,3.0713389 C 232.08651,6.177911 242,15.237117 242,17.44702 c 0,0.705794 0.9,2.427427 2,3.825851 1.85905,2.363396 2,4.056784 2,24.027869 C 246,68.590289 245.85485,68 251.58179,68 252.9118,68 254,68.395406 254,68.87868 c 0,0.483273 1.33993,1.433698 2.97763,2.112055 C 261.23482,72.754118 273,84.515016 273,87.007266 c 0,1.130527 0.675,2.314525 1.5,2.631108 1.32634,0.508965 1.5,23.493516 1.5,198.534356 0,134.54563 0.33161,198.57836 1.03518,199.89301 0.89044,1.6638 2.14888,1.93426 9,1.93426 4.38065,0 7.96482,0.41968 7.96482,0.93261 0,0.51294 0.97375,1.24167 2.16389,1.61941 3.50725,1.11316 11.90849,7.49824 18.08611,13.74576 l 5.75,5.81506 V 563.63642 615.16 l -5.75,5.67 c -6.80385,6.70919 -15.06637,13.17 -16.84268,13.17 -0.69546,0 -2.05193,0.7875 -3.0144,1.75 -1.28949,1.28954 -3.80117,1.84333 -9.54576,2.10472 l -7.79582,0.35472 -0.58031,3.64528 c -0.31916,2.0049 -1.00571,4.42667 -1.52566,5.38171 -0.51996,0.95504 -0.94537,2.72309 -0.94537,3.929 0,2.39269 -1.45699,7.47146 -3.61997,12.6185 C 269.62101,665.59009 269,667.7908 269,668.6744 c 0,0.88359 -0.83755,3.45583 -1.86122,5.71607 -1.02366,2.26024 -2.3312,5.45953 -2.90563,7.10953 -2.95244,8.48061 -3.61852,10.21072 -4.8718,12.65429 -0.74874,1.45986 -1.36135,3.79022 -1.36135,5.17857 0,1.38836 -0.5625,3.11893 -1.25,3.84571 -4.212,4.45269 -4.15158,2.20268 -3.993,148.70054 0.15061,139.12739 0.14709,139.39016 -1.94686,145.5 -3.56545,10.40349 -9.87162,17.52099 -19.60365,22.12569 -1.81143,0.8571 -3.54708,2.2192 -3.85699,3.0268 -0.48765,1.2708 -9.49798,1.4684 -66.95649,1.4684 -52.44073,0 -66.395772,-0.2627 -66.406154,-1.25 z M 218.5,1001 c 0.33992,-0.55 1.71648,-1 3.05902,-1 1.3485,0 2.44098,-0.5876 2.44098,-1.31291 0,-0.7221 1.35,-2.60629 3,-4.18709 2.30626,-2.20954 3,-3.7559 3,-6.68709 0,-2.0971 -0.45,-3.81291 -1,-3.81291 -0.55,0 -1,-1.8 -1,-4 0,-3.33333 0.33333,-4 2,-4 1.1,0 2,-0.45 2,-1 0,-0.55 -0.45,-1 -1,-1 -0.55,0 -0.8875,-0.3375 -0.75,-0.75 0.1375,-0.4125 -0.19941,-0.975 -0.74868,-1.25 -0.54928,-0.275 -0.99928,0.4 -1,1.5 -8.7e-4,1.31221 -0.77509,2.10989 -2.25132,2.31955 -1.2375,0.17575 -2.25,0.94913 -2.25,1.71862 0,0.80653 -0.60956,1.16515 -1.43927,0.84676 -0.81645,-0.3133 -2.00236,0.34937 -2.74054,1.53139 -0.71571,1.14602 -1.98054,2.09057 -2.81074,2.09899 -1.3082,0.0133 -1.3152,0.13819 -0.0525,0.93695 2.26468,1.43254 -113.82311,0.75891 -116.95699,-0.67868 -1.949799,-0.89442 -2.096519,-1.16076 -0.666667,-1.21019 2.175237,-0.0752 1.698277,-2.4281 -0.581881,-2.87048 -0.870549,-0.16889 -1.829597,0.50611 -2.131218,1.5 -0.301621,0.9939 -0.401967,0.56959 -0.22299,-0.94291 0.488111,-4.12494 -1.026952,-3.31104 -1.861492,1 -2.303014,11.89684 -2.30375,13.39729 -0.0078,15.87467 1.210761,1.30643 2.519425,2.37533 2.908142,2.37533 0.388717,0 1.355545,0.64879 2.148506,1.44175 1.22106,1.22105 10.18718,1.44785 58.57679,1.48155 31.42428,0.022 57.36835,0.2731 57.65349,0.5583 0.8203,0.8203 2.01268,0.6064 2.68511,-0.4816 z m -8.75,-3.70573 c 1.2375,-0.23836 3.2625,-0.23836 4.5,0 1.2375,0.23835 0.225,0.43337 -2.25,0.43337 -2.475,0 -3.4875,-0.19502 -2.25,-0.43337 z M 101,995.60699 c 0,-0.76616 0.675,-1.65203 1.5,-1.96862 1.02029,-0.39152 1.5,0.054 1.5,1.39301 0,1.08322 -0.67464,1.96862 -1.5,1.96862 -0.825,0 -1.5,-0.62686 -1.5,-1.39301 z m 108.75,-3.31272 c 1.2375,-0.23836 3.2625,-0.23836 4.5,0 1.2375,0.23835 0.225,0.43337 -2.25,0.43337 -2.475,0 -3.4875,-0.19502 -2.25,-0.43337 z M 100.6087,990.57732 C 101.51639,988.21191 104,987.8121 104,990.03138 104,991.32287 103.32287,992 102.03138,992 c -1.29148,0 -1.78083,-0.48935 -1.42268,-1.42268 z m 125.47025,-0.16065 c 0.048,-1.16495 0.28494,-1.4019 0.60416,-0.60417 0.28887,0.72187 0.25335,1.58438 -0.0789,1.91667 -0.3323,0.33229 -0.56864,-0.25834 -0.52522,-1.3125 z M 92.339355,978.94691 c 0.09071,-4.10738 -0.274717,-7.42075 -0.839355,-7.61059 -0.613618,-0.20631 -1.005965,2.93466 -1.015438,8.12917 -0.01868,10.24325 1.627295,9.78305 1.854793,-0.51858 z M 216.09004,959.5 c 2.96701,-3.025 5.96052,-5.5 6.65226,-5.5 0.69173,0 3.0577,-1.8 5.2577,-4 l 4,-4 0.0339,-119.25 c 0.0329,-115.76985 0.0903,-119.36673 1.96607,-123.25 1.06268,-2.2 1.94741,-4.71308 1.96607,-5.58462 0.0187,-0.87155 1.74091,-5.82155 3.82723,-11 2.08631,-5.17846 4.41455,-11.44038 5.17388,-13.91538 0.75932,-2.475 1.75233,-4.9275 2.2067,-5.45 0.45437,-0.5225 0.82612,-1.77583 0.82612,-2.78518 0,-1.00935 0.7083,-2.91619 1.574,-4.23742 2.68606,-4.09945 4.66707,-12.6083 5.34442,-22.95545 0.4255,-6.50006 1.07698,-10.07042 1.88678,-10.34035 0.68029,-0.22676 2.01491,-1.83414 2.96584,-3.57195 1.57319,-2.87499 1.75554,-8.46223 2.02397,-62.01649 0.32172,-64.18643 0.54012,-61.57636 -5.41,-64.65193 C 252.98503,495.23382 248,490.57817 248,489.16026 c 0,-0.54648 -0.5625,-1.18108 -1.25,-1.41022 -0.99314,-0.33102 -1.30341,-40.62082 -1.50991,-196.06677 l -0.25991,-195.65014 -2.24009,-0.453819 c -1.23205,-0.2496 -3.43067,-0.703853 -4.88583,-1.00945 -1.85507,-0.389582 -2.82632,-0.08504 -3.25,1.019042 C 234.27192,96.454972 234,212.83089 234,354.20205 v 257.03848 l -2.75,4.34322 c -1.5125,2.38878 -3.24365,4.35966 -3.84699,4.37974 C 226.79967,619.98357 225.26831,620.9 224,622 c -2.58682,2.24354 -2.7602,2.26932 -16.16496,2.40336 -5.31573,0.0531 -9.92055,0.35146 -10.23294,0.66291 -0.31238,0.31144 -0.60831,68.26144 -0.65763,151 l -0.0897,150.43373 -2.1774,4.61984 c -1.39275,2.95503 -3.61886,5.55024 -6.17741,7.20165 -2.2,1.42 -5.575,4.06607 -7.5,5.88016 l -3.5,3.29835 -15.23889,0.32023 c -14.38543,0.3023 -15.47381,0.19029 -19.43368,-2 -2.30714,-1.27613 -5.21147,-3.24805 -6.45408,-4.38205 -1.24261,-1.134 -3.85995,-2.92383 -5.81632,-3.9774 C 128.17781,936.17948 127,934.83323 127,933.39504 c 0,-1.18258 -0.67356,-2.70915 -1.49679,-3.39238 -1.31496,-1.09132 -1.52756,-19.66274 -1.75,-152.87244 L 123.5,625.5 111.0691,624.86285 c -9.62326,-0.49324 -12.690769,-0.99255 -13.581493,-2.21069 -0.632828,-0.86544 -2.351424,-2.03008 -3.819102,-2.58809 C 92.200827,619.50606 91,618.38089 91,617.56371 c 0,-0.81719 -1.0125,-2.42908 -2.25,-3.58197 L 86.5,611.88558 86.369443,353.86223 C 86.29615,209.01189 85.857151,95.457151 85.368567,94.968567 84.500805,94.100805 77.421343,95.245324 76.218895,96.447772 75.876432,96.790234 75.669957,183.79208 75.76006,289.78522 75.921969,480.24644 75.900634,482.54818 73.935569,486.62021 71.837951,490.96691 63.796426,499 61.542781,499 c -0.730842,0 -1.601948,0.7118 -1.935792,1.58179 C 59.273145,501.45177 59,529.27333 59,562.40747 v 60.2439 l 2.45688,2.30812 c 2.738641,2.57282 4.599502,9.7945 4.412841,17.12547 -0.06421,2.52173 0.388838,5.52964 1.006769,6.68426 0.61793,1.15461 1.12351,3.01519 1.12351,4.13462 0,1.11943 0.9,3.6377 2,5.59616 1.1,1.95846 2,4.35715 2,5.33042 0,0.97327 0.414091,2.19708 0.920203,2.71958 0.506112,0.5225 1.798215,3.425 2.87134,6.45 1.073126,3.025 3.863076,10.9 6.199891,17.5 2.336814,6.6 4.757211,12.63153 5.37866,13.40339 0.819569,1.01794 1.267235,34.52613 1.629906,122 0.275,66.32814 0.870227,121.16909 1.322726,121.86879 0.452499,0.6997 3.25119,3.06619 6.219312,5.25887 2.968122,2.19269 6.301172,4.95766 7.406792,6.1444 5.67597,6.09243 2.90908,5.81075 57.14891,5.81796 L 210.69548,965 Z M 174.34655,930 c 1.38838,-1.65 2.91298,-3 3.388,-3 0.47502,0 1.47166,-1.68135 2.21475,-3.73633 1.10868,-3.06601 1.34872,-26.83397 1.33795,-132.48238 C 181.27388,659.5098 181.26041,659 177.80613,659 c -0.52194,0 -1.62399,-0.675 -2.44899,-1.5 -1.17785,-1.17785 -4.26261,-1.5 -14.36347,-1.5 -13.50555,0 -16.60973,0.61606 -19.95374,3.96007 C 139.00781,661.99219 139,662.49298 139,790.78372 v 128.78372 l 3.50849,5.46628 c 1.92967,3.00645 4.26568,6.02878 5.19113,6.71628 1.11155,0.82575 5.49071,1.25 12.90262,1.25 h 11.21997 z m 5.88814,-289.3663 c 0.40408,-0.62353 0.74158,-3.93037 0.75,-7.34852 0.0126,-5.13039 -0.3222,-6.39544 -1.91895,-7.25 -2.09292,-1.12009 -30.75558,-1.44721 -35.94074,-0.41018 -3.10275,0.62055 -3.125,0.66981 -3.125,6.91821 0,3.46127 0.23402,6.90305 0.52003,7.6484 0.6897,1.79731 38.5632,2.21891 39.71466,0.44209 z M 42.362478,622.49778 c 0.783818,-2.0426 0.824878,-112.90311 0.04297,-116.01848 -0.571683,-2.27777 -1.080848,-2.47671 -6.263856,-2.4475 -3.366946,0.019 -6.42424,0.62377 -7.582722,1.5 -1.067621,0.80751 -2.541963,1.4682 -3.276315,1.4682 -0.734353,0 -3.348344,2.01316 -5.808871,4.47368 L 15,515.94737 l 0.01412,47.27631 0.01412,47.27632 3.772302,4.18134 c 3.926444,4.35219 9.351738,6.96779 17.199466,8.29207 2.475,0.41765 4.789355,0.81949 5.143011,0.89298 0.353656,0.0735 0.902416,-0.54239 1.219467,-1.36861 z m 247.813132,-0.77779 c 4.20793,-1.47148 8.00777,-3.6956 10.71541,-6.27192 l 4.19539,-3.99191 0.033,-47.89504 c 0.0266,-38.51378 -0.22675,-48.14326 -1.2932,-49.16234 -0.72943,-0.69701 -2.67623,-2.58751 -4.32623,-4.20109 -1.65,-1.61359 -4.2375,-3.22674 -5.75,-3.58479 -1.5125,-0.35805 -2.75,-1.03442 -2.75,-1.50304 0,-0.46863 -2.925,-0.91547 -6.5,-0.99299 L 278,503.97592 V 563.98796 624 h 2.82779 c 1.55529,0 5.76181,-1.026 9.34782,-2.28001 z m -181.7574,-9.32698 C 109.68503,611.90689 110,610.13106 110,603.4748 110,592.73586 109.67998,592 105.00964,592 c -3.07092,0 -3.88902,0.42032 -4.37935,2.25 -0.907939,3.38795 -0.750286,13.75 0.20919,13.75 0.46172,0 1.35207,1.125 1.97857,2.5 1.14337,2.50943 2.65884,3.0217 5.60016,1.89301 z m 109.85646,-2.49282 c 2.41598,-2.75331 2.70013,-3.8221 2.542,-9.56152 C 220.62021,593.20858 219.64175,592 214.06574,592 H 211 v 9.91667 c 0,9.74525 0.32471,10.75827 3.52732,11.00438 0.56502,0.0434 2.25133,-1.31596 3.74735,-3.02086 z m -93.95001,0.44182 c 0.36189,-0.3619 0.15378,-1.26553 -0.46248,-2.00807 -0.65147,-0.78498 -0.9078,-3.23688 -0.61238,-5.85781 0.27945,-2.47925 0.11256,-4.75218 -0.37086,-5.05095 -0.48342,-0.29877 -0.87894,2.63334 -0.87894,6.5158 0,6.48907 0.59587,8.12982 2.32466,6.40103 z M 198.20573,604.75 c 0.44096,-7.18887 0.003,-9.68625 -1.32958,-7.58385 -1.14192,1.80143 -1.11145,13.83385 0.035,13.83385 0.50115,0 1.0837,-2.8125 1.29455,-6.25 z m -6.90567,1 c -0.28029,-2.3375 -0.85987,-6.5 -1.28794,-9.25 -0.69477,-4.46331 -0.79086,-4.00713 -0.89522,4.25 -0.0927,7.33257 0.17431,9.25 1.28794,9.25 1.06604,0 1.28194,-1.02499 0.89522,-4.25 z m -59.85714,2.34235 c 0.30853,-0.4992 0.17579,-1.94886 -0.29498,-3.22146 -0.8099,-2.18937 -0.88136,-2.14055 -1.32874,0.90765 -0.44869,3.05707 0.409,4.27928 1.62372,2.31381 z M 194.90799,589.368 c 0.2244,-0.19286 0.99335,0.13516 1.7088,0.72893 1.0027,0.83217 1.44397,0.42913 1.92553,-1.75868 1.07955,-4.90463 1.25271,-5.13432 4.39011,-5.82341 L 206,581.84109 v -62.52753 c 0,-55.16919 -0.17652,-62.4598 -1.5,-61.95193 -1.0294,0.39501 -1.5,-0.0605 -1.5,-1.45203 0,-1.1152 0.40285,-1.77866 0.89522,-1.47436 0.49236,0.3043 1.16736,-0.15595 1.5,-1.02277 0.92307,-2.4055 0.72094,-5.41247 -0.36384,-5.41247 -0.53273,0 -0.70959,-0.675 -0.39301,-1.5 0.38061,-0.99185 -0.0535,-1.52163 -1.28138,-1.56384 -1.02135,-0.0351 -3.20699,-0.19862 -4.85699,-0.36335 l -3,-0.29952 -0.0953,11.11382 c -0.10336,12.05648 -1.72938,17.53106 -5.12546,17.25665 -1.68232,-0.13593 -1.79452,2.7984 -2.05939,53.85624 -0.15408,29.7 -0.009,56.36293 0.32207,59.25096 0.58372,5.08974 0.68444,5.23126 3.28014,4.60933 1.47285,-0.35291 2.86152,-0.79943 3.08591,-0.99229 z m 4.10732,-131.118 c 0.008,-0.9625 0.45153,-2.425 0.98469,-3.25 0.7356,-1.13826 0.97307,-0.71622 0.98469,1.75 0.008,1.7875 -0.43469,3.25 -0.98469,3.25 -0.55,0 -0.99311,-0.7875 -0.98469,-1.75 z M 131.4259,587.53515 c 0.77213,-2.87387 0.71023,-101.93938 -0.0684,-109.38846 C 130.84086,473.20329 130.37239,472 128.96453,472 c -2.62987,0 -3.22189,-2.36721 -3.87126,-15.47919 L 124.5,444.54162 121,444.40102 c -5.08036,-0.20408 -6,0.42804 -6,4.12418 0,3.99406 0.90813,6.64961 2.03569,5.95274 0.45436,-0.28081 1.10877,-0.0532 1.45423,0.50575 0.34578,0.55949 -0.27415,1.01631 -1.37919,1.01631 -1.9892,0 -2.00657,0.56385 -1.92605,62.52201 l 0.0813,62.52201 2.77418,1.63875 c 1.60825,0.95002 3.01113,2.82347 3.33796,4.45762 0.52521,2.62605 0.86944,2.80557 5.0324,2.62439 3.55678,-0.1548 4.5802,-0.60977 5.01542,-2.22963 z M 119.40709,552 c 0,-9.075 0.1516,-12.7875 0.3369,-8.25 0.18529,4.5375 0.18529,11.9625 0,16.5 -0.1853,4.5375 -0.3369,0.825 -0.3369,-8.25 z m 8.95814,-57.5 c 0.003,-5.5 0.17053,-7.62242 0.37317,-4.71648 0.20265,2.90594 0.20052,7.40594 -0.005,10 C 128.52842,502.37758 128.36263,500 128.36523,494.5 Z M 119.27236,476 c 0,-2.475 0.19502,-3.4875 0.43337,-2.25 0.23836,1.2375 0.23836,3.2625 0,4.5 -0.23835,1.2375 -0.43337,0.225 -0.43337,-2.25 z M 120,455.55902 C 120,454.70156 120.45,454 121,454 c 0.55,0 1,0.42344 1,0.94098 0,0.51754 -0.45,1.2191 -1,1.55902 -0.55,0.33992 -1,-0.0835 -1,-0.94098 z m -13.56272,124.54246 c 1.02009,-1.65053 0.77904,-136.46999 -0.2487,-139.10148 -1.28044,-3.27852 -5.74893,-7.38976 -7.114552,-6.54575 -1.194474,0.73822 -1.596453,144.68999 -0.407361,145.87908 0.990431,0.99044 7.128383,0.8073 7.770613,-0.23185 z M 222.01307,578.75 c 0.21525,-37.05836 -0.1749,-143.24517 -0.5276,-143.59787 -0.26867,-0.26866 -1.67848,0.14839 -3.13292,0.92678 -2.86638,1.53404 -6.58184,8.79739 -5.33077,10.42109 0.42378,0.55 0.70475,30.85005 0.62437,67.33344 -0.0804,36.4834 0.0413,66.5209 0.27052,66.75 0.22916,0.22911 2.14166,0.41656 4.25,0.41656 3.30477,0 3.83513,-0.31024 3.8464,-2.25 z M 181.76052,455 c 0.14328,-2.475 -0.0817,-4.95 -0.5,-5.5 -0.47736,-0.62768 -8.44905,-0.88595 -21.41085,-0.69369 l -20.65034,0.30631 -0.43382,4.19369 c -0.2386,2.30653 -0.23193,4.76499 0.0148,5.46324 0.34758,0.98358 5.20963,1.20884 21.58415,1 L 181.5,459.5 Z m -51.20566,-25.02499 4.44514,-2.025 -0.0576,-7.225 C 134.91067,416.75125 134.5655,411.7 134.17532,409.5 l -0.70943,-4 -10.48294,-0.0865 c -9.01601,-0.0743 -10.93678,0.20552 -13.72612,2 -3.07683,1.97944 -3.24351,2.40113 -3.25,8.22214 -0.008,6.88706 1.20857,9.90005 5.52864,13.69614 3.85613,3.38843 12.36179,3.67606 19.01939,0.64318 z M 174.81009,423 c 0.17056,-4.675 0.0305,-10.4125 -0.31127,-12.75 L 173.87745,406 h -13.79924 -13.79924 l -0.51787,11.73513 c -0.28483,6.45433 -0.29483,12.31636 -0.0222,13.02675 0.3798,0.98972 3.79882,1.22692 14.62839,1.01486 L 174.5,431.5 Z m 35.89739,4.44857 4.48704,-4.55142 -0.60642,-6.5457 c -0.83815,-9.04692 -2.39739,-10.2425 -13.5881,-10.4189 -4.675,-0.0737 -9.85,-0.20117 -11.5,-0.28327 l -3,-0.14928 -0.61197,8.5 c -0.33659,4.675 -0.40555,9.67393 -0.15326,11.10873 0.71524,4.06756 6.41804,6.84046 14.12545,6.8683 6.23614,0.0225 6.44776,-0.0658 10.84726,-4.52846 z M 222.10604,212.84331 C 221.97985,49.526029 221.7908,28.362229 220.44608,27.017531 c -1.23316,-1.233144 -4.74352,-1.530866 -18.73181,-1.588689 -21.46619,-0.08873 -23.24312,0.303657 -24.07152,5.315612 -0.34141,2.06555 -0.62569,84.362946 -0.63174,182.883106 -0.009,142.10669 0.24733,179.33656 1.23899,180.13884 0.72331,0.58518 8.78095,1.06836 19.12314,1.14673 16.25399,0.12316 18.10398,0.31701 20.42132,2.13983 1.61482,1.27022 2.89721,1.65537 3.50108,1.0515 0.59801,-0.59801 0.89986,-69.59546 0.8105,-185.26115 z M 102.98035,396.51778 c 1.31398,-1.18913 5.3193,-1.50325 20.25574,-1.58856 15.52137,-0.0886 18.7132,-0.35469 19.1909,-1.59957 C 142.74215,392.50838 143,310.02833 143,210.04066 143,42.08557 142.87398,28.140401 141.34475,26.872445 140.0606,25.8077 135.32402,25.514137 120.21803,25.563056 102.36366,25.620874 100.63251,25.782084 99.373281,27.504185 98.220667,29.080479 98,58.998074 98,213.69113 98,385.24867 98.115625,398 99.671259,398 c 0.919191,0 2.408281,-0.667 3.309091,-1.48222 z M 165.5,210.5 v -182 h -5.5 -5.5 l -0.25269,182.29998 -0.25269,182.29999 5.75269,-0.29999 L 165.5,392.5 Z"
         id="path3" />
      <path
         style="fill:#000000"
         d="m 95.511026,1022.0347 c -0.39355,-1.2399 -1.881501,-2.2012 -4.031759,-2.6046 -1.874405,-0.3516 -3.929143,-1.2672 -4.566083,-2.0347 C 86.276244,1016.6279 85.264744,1016 84.665407,1016 82.874832,1016 75,1007.7234 75,1005.8415 c 0,-0.9582 -0.633944,-2.102 -1.408765,-2.5418 -0.77482,-0.4398 -2.352828,-3.49266 -3.506683,-6.78406 C 67.992071,990.5468 67.986685,990.16815 68.006907,850.45385 68.027594,707.53292 67.993527,706.14604 64.358396,701.92126 63.611278,701.05295 63,699.34962 63,698.13608 63,696.92253 62.369173,694.93297 61.598161,693.71482 60.82715,692.49667 59.869651,689.925 59.470387,688 59.071122,686.075 58.12695,683.61237 57.372226,682.52749 56.617502,681.44262 56,679.56226 56,678.34892 c 0,-1.21333 -0.662552,-2.86861 -1.472337,-3.6784 -0.809785,-0.80979 -1.768894,-3.3269 -2.131352,-5.59359 -0.362459,-2.26669 -1.049907,-4.36284 -1.527663,-4.65811 -0.477757,-0.29527 -0.884594,-1.7478 -0.904083,-3.22784 C 49.945075,659.71094 49.286021,657.375 48.5,656 47.713979,654.625 47.054925,652.06406 47.035435,650.30902 47.015946,648.55398 46.55,646.83992 46,646.5 45.45,646.16008 45,644.42352 45,642.64098 45,637.87218 43.513127,637 35.383333,637 c -3.969166,0 -7.366666,-0.3375 -7.55,-0.75 C 27.65,635.8375 26.063572,634.825 24.307938,634 19.015723,631.51311 7.2066693,621.71985 5.3160361,618.25 4.3420719,616.4625 2.7475239,615 1.7725961,615 0.09874754,615 0,612.13105 0,563.5 0,518.78757 0.19431176,512 1.4743199,512 2.2851958,512 3.5921083,510.75567 4.37857,509.23482 5.8109423,506.46492 17.123192,497 19.001343,497 19.550604,497 20,496.54035 20,495.97856 c 0,-0.56179 1.2375,-1.5488 2.75,-2.19336 1.5125,-0.64456 3.436394,-1.73816 4.275321,-2.43022 0.838926,-0.69206 4.888926,-1.39255 9,-1.55664 L 43.5,489.5 43.752468,290.78386 C 44.003366,93.30315 44.017354,92.06108 46.002468,90.998679 47.156042,90.381305 48,88.905178 48,87.504889 48,84.973109 54.789171,77.872012 61.867739,73 63.865482,71.625 65.859861,69.9375 66.29969,69.25 66.73952,68.5625 68.87702,68 71.04969,68 H 75 V 45.606989 c 0,-18.314788 0.256007,-22.491251 1.405704,-22.932431 0.773137,-0.29668 1.685974,-1.807325 2.028527,-3.356988 C 79.307032,15.369129 88.411784,6 91.376006,6 94.357858,6 96,4.7190322 96,2.3930112 V 0 h 24.28076 24.28076 l 1.13238,3 c 0.91581,2.4262679 1.71321,3 4.16955,3 1.7221,0 3.41818,0.6808317 3.91712,1.5723901 0.48398,0.8648146 2.78539,1.8279623 5.11425,2.1403282 3.35156,0.4495377 4.83782,0.1217365 7.12925,-1.5723901 C 167.61629,6.9631477 169.87633,6 171.04637,6 c 1.44543,0 2.49034,-0.9616614 3.25973,-3 l 1.13238,-3 h 24.28076 C 222.43405,0 224,0.11608851 224,1.8 c 0,2.4735725 1.94486,4.2 4.73138,4.2 1.28227,0 2.59041,0.675 2.90699,1.5 0.31659,0.825 1.18663,1.5 1.93344,1.5 0.7468,0 1.83949,0.9 2.42819,2 0.5887,1.1 1.71147,2 2.49504,2 0.81493,0 1.95533,1.818951 2.66456,4.25 0.68193,2.3375 1.825,4.609861 2.54014,5.04969 0.99993,0.61498 1.30026,5.619855 1.30026,21.668213 0,11.477687 0.27314,21.580326 0.60699,22.45031 C 245.99373,67.426034 247.4324,68 249.57181,68 c 2.26606,0 3.68582,0.612877 4.36663,1.884972 0.55484,1.036734 2.06454,2.149943 3.35488,2.473798 1.29034,0.323854 5.08745,3.197368 8.43802,6.385586 4.52296,4.3038 6.2688,6.739479 6.77863,9.457086 0.48121,2.565098 1.10535,3.49967 2.08589,3.1234 1.19554,-0.458772 1.43595,28.480948 1.65167,198.819118 L 276.5,489.5 l 8,0.27979 c 6.17189,0.21585 8.29548,0.67288 9.29305,2 0.71117,0.94611 1.72367,1.77646 2.25,1.84521 0.52632,0.0688 1.51945,0.19169 2.20695,0.2732 0.6875,0.0815 2.89462,1.60026 4.90472,3.375 2.0101,1.77474 5.09464,4.3518 6.85455,5.7268 4.87474,3.8086 5.99073,5.02021 5.99073,6.50404 0,0.74865 0.9,1.64683 2,1.99596 1.96618,0.62404 2,1.51303 2,52.56739 C 320,610.03608 319.82414,616 318.46862,616 c -0.84227,0 -1.80765,0.71993 -2.14531,1.59985 C 315.03074,620.96822 299.10362,634 296.27944,634 c -0.78226,0 -2.0973,0.675 -2.9223,1.5 -1.03609,1.03609 -3.58095,1.5 -8.22857,1.5 -7.63282,0 -9.12857,0.93397 -9.12857,5.7 0,1.815 -0.40273,3.3 -0.89496,3.3 -0.49224,0 -1.14175,1.6875 -1.44337,3.75 -1.10275,7.54068 -1.99053,10.74226 -3.80286,13.71415 -1.01823,1.66972 -1.85302,4.44325 -1.85507,6.16341 -0.002,1.72015 -0.67874,3.68775 -1.50374,4.37244 -0.825,0.68469 -1.50297,2.42729 -1.50659,3.87244 -0.004,1.44516 -0.90066,3.97756 -1.99341,5.62756 -1.09275,1.65 -1.98979,4.1824 -1.99341,5.62756 -0.004,1.44515 -0.68159,3.18775 -1.50659,3.87244 -0.825,0.68469 -1.5,2.76479 -1.5,4.62244 0,2.04423 -0.78953,4.16709 -2,5.37756 -1.1,1.1 -2,2.81 -2,3.8 0,0.99 -0.44692,2.24692 -0.99316,2.79316 -0.64578,0.64578 -1.08299,50.64538 -1.25,142.95 -0.21527,118.98389 -0.48366,142.52325 -1.65845,145.45684 -0.77089,1.925 -1.57604,3.95 -1.78922,4.5 -1.5644,4.036 -9.86982,13.5 -11.84736,13.5 -0.66931,0 -1.71668,0.6022 -2.32749,1.3382 -0.61081,0.7359 -2.95288,1.8901 -5.20459,2.5647 -2.87364,0.861 -3.92984,1.6544 -3.54326,2.6619 0.47504,1.2379 -8.37268,1.4352 -64.35047,1.4352 -63.640551,0 -64.913341,-0.038 -65.524974,-1.9653 z m 127.005164,-19.8816 c 1.65891,-1.0116 4.58391,-3.37243 6.5,-5.24621 L 232.5,993.5 l 0.32947,-12.75 c 0.30918,-11.96497 0.21276,-12.75 -1.56606,-12.75 -1.04254,0 -4.72422,2.7 -8.1815,6 l -6.28598,6 h -56.20954 -56.20955 l -6.438418,-5.96589 c -8.684291,-8.04693 -9.526219,-7.92539 -10.409706,1.50273 -1.130216,12.06108 -0.07886,16.74615 4.931393,21.97531 2.345153,2.44761 5.33851,4.88015 6.651903,5.40565 1.417158,0.567 26.374168,0.9797 61.387988,1.0151 55.58262,0.056 59.1747,-0.047 62.01619,-1.7798 z m -9.82457,-37.79186 c 0.2873,-0.74868 1.05243,-1.36124 1.70029,-1.36124 0.64787,0 2.6667,-1.8 4.48628,-4 1.81959,-2.2 4.05388,-4.01497 4.96508,-4.03327 2.10478,-0.0423 5.26333,-2.67362 7.73241,-6.44179 1.87013,-2.85409 1.92772,-6.29051 2.04501,-122.03047 0.10941,-107.95697 0.27305,-119.38831 1.75,-122.24441 0.89612,-1.73291 1.62931,-4.24299 1.62931,-5.57796 0,-1.33496 0.675,-2.98741 1.5,-3.6721 0.825,-0.68469 1.5,-2.51323 1.5,-4.06343 0,-1.55019 0.43779,-3.08911 0.97287,-3.4198 0.53508,-0.3307 1.90246,-3.61976 3.03863,-7.30902 1.13617,-3.68926 2.86821,-8.50775 3.84898,-10.70775 2.46933,-5.53906 4.14551,-10.29633 5.2851,-15 0.53302,-2.2 1.39331,-4.4275 1.91177,-4.95 C 255.57581,649.0275 256,644.415 256,639.3 c 0,-5.26048 0.41605,-9.3 0.95785,-9.3 0.52681,0 2.10875,-1.96387 3.51541,-4.36417 l 2.55758,-4.36416 -0.52142,-60.88584 c -0.28678,-33.4872 -0.74806,-151.48728 -1.02506,-262.22239 L 260.98072,96.826878 258.24036,94.045204 C 256.73316,92.515283 254.6,90.191736 253.5,88.881765 c -3.41814,-4.070607 -8.73908,-7.226295 -12.4469,-7.38188 -1.9542,-0.082 -4.2281,-0.340521 -5.0531,-0.574489 -1.19188,-0.338014 -1.62855,1.0125 -2.12579,6.574604 -0.34418,3.85 -0.68168,123.03504 -0.75,264.85564 L 233,610.21129 l -2.5,2.97108 c -1.375,1.63409 -2.5,3.61155 -2.5,4.39436 0,0.83202 -0.98787,1.42327 -2.37803,1.42327 -1.3187,0 -3.0094,0.9509 -3.79536,2.13462 -1.28261,1.93171 -2.56975,2.18209 -13.54036,2.63391 -11.28453,0.46475 -12.16287,0.64564 -12.69916,2.61538 -0.31687,1.16385 -0.57134,68.49109 -0.56549,149.61609 0.006,81.125 0.003,148.5125 -0.005,149.75 -0.01,1.32617 -0.63201,2.25 -1.51612,2.25 -1.04606,0 -1.5,1.05344 -1.5,3.48095 0,2.85135 -0.43908,3.59115 -2.42764,4.09025 -1.33521,0.33511 -2.67108,1.24368 -2.96862,2.01905 -0.29753,0.77536 -1.14894,1.40975 -1.89202,1.40975 -0.74308,0 -2.32922,1.125 -3.52477,2.5 -1.19555,1.375 -2.8142,2.5 -3.597,2.5 -0.78281,0 -1.61053,0.5625 -1.8394,1.25 -0.30659,0.921 -4.11677,1.25 -14.47648,1.25 -11.99347,0 -14.34526,-0.25757 -15.99837,-1.75218 -1.0659,-0.9637 -2.25481,-1.43537 -2.64203,-1.04816 -0.38721,0.38722 -1.78419,-0.46088 -3.1044,-1.88467 -1.32021,-1.42378 -4.20805,-3.42711 -6.41744,-4.45184 -2.99326,-1.3883 -4.186,-2.62774 -4.67992,-4.86315 -0.36457,-1.65 -1.0723,-3.50986 -1.57274,-4.13302 -0.53736,-0.66913 -0.9142,-62.76089 -0.92044,-151.65735 -0.008,-116.82449 -0.28237,-150.74583 -1.22464,-151.51362 -0.66775,-0.5441 -6.50159,-1.31474 -12.96409,-1.71254 -8.09191,-0.49809 -11.75,-1.09802 -11.75,-1.927 0,-0.66206 -1.6875,-1.6206 -3.75,-2.1301 -2.76931,-0.68411 -3.833267,-1.51248 -4.068398,-3.16757 -0.175119,-1.23267 -1.185165,-2.84832 -2.244547,-3.59033 C 88.044041,611.34255 88.010621,606.87075 87.994306,352.7118 87.982275,165.28343 87.67408,93.916604 86.874573,93.422482 c -0.667471,-0.41252 -0.887799,-2.287206 -0.55789,-4.746866 0.613676,-4.57529 -0.768472,-8.099962 -2.86135,-7.296849 -0.765206,0.293637 -1.625568,0.154803 -1.911917,-0.308519 -0.286349,-0.463322 -2.000874,-0.331169 -3.810055,0.293674 C 74.709663,82.408226 73.469487,83.223157 69.536725,86.75 68.770098,87.4375 67.660714,88 67.071429,88 66.482143,88 66,88.368951 66,88.819892 66,89.270832 64.65,91.151881 63,93 l -3,3.360217 0.0058,124.069893 c 0.01122,237.96866 -0.150827,275.97227 -1.184976,277.90459 -1.093409,2.04306 -1.31041,123.22601 -0.225722,126.05266 0.340355,0.88695 1.014643,1.61264 1.498418,1.61264 1.735775,0 4.041502,7.63047 4.381519,14.5 0.349791,7.06702 4.249658,19.93123 11.519947,38 1.770417,4.4 3.452331,9.35 3.737587,11 0.285255,1.65 0.919386,3.50487 1.409179,4.12194 0.489793,0.61707 2.000377,4.29856 3.356852,8.18109 l 2.466319,7.05915 0.110611,116.31891 c 0.06284,66.08514 0.503347,117.88058 1.020012,119.93504 1.042305,4.14462 5.158659,8.70537 9.113545,10.09745 1.490027,0.52447 2.982849,1.81597 3.317389,2.87 0.33453,1.05403 1.03182,1.91642 1.54952,1.91642 0.51769,0 2.32989,1.2375 4.02711,2.75 l 3.08584,2.75 49.6555,0.5 c 27.31052,0.275 50.48109,0.32506 51.49013,0.11124 1.00905,-0.21382 2.0697,-1.00132 2.35699,-1.75 z M 67,491 c 0,-0.55 0.476558,-1 1.059017,-1 0.582459,0 0.780902,0.45 0.440983,1 -0.339919,0.55 -0.816476,1 -1.059017,1 C 67.198442,492 67,491.55 67,491 Z m 109.4196,439.75 c 3.19588,-2.33061 4.47411,-3.97137 4.5185,-5.8 0.0341,-1.4025 0.51856,-3.00666 1.07669,-3.56479 0.67869,-0.67869 0.92709,-43.93534 0.75,-130.60378 L 182.5,661.19244 179.69848,658.59622 C 176.91721,656.01877 176.77736,656 160.35285,656 c -15.12277,0 -16.79363,0.17767 -19.44848,2.06809 L 138,660.13619 v 129.80479 c 0,126.45552 0.0502,129.91772 1.94675,134.1819 1.87718,4.22072 4.91344,7.63592 8.05191,9.05683 0.82574,0.37385 6.55551,0.71135 12.73284,0.75 11.13793,0.0697 11.26861,0.0432 15.6881,-3.17971 z M 142.5,644 c 0.92987,-1.50455 34.02752,-1.31202 36.46809,0.21215 1.06752,0.66667 2.15902,0.99408 2.42554,0.72755 0.74133,-0.74133 1.19248,-19.67811 0.48576,-20.38952 -0.34133,-0.3436 -9.94368,-0.68254 -21.33854,-0.7532 -16.88199,-0.10469 -20.88386,0.13365 -21.61408,1.28727 -1.03391,1.63339 -1.25845,18.25074 -0.2601,19.24908 0.99206,0.99207 3.12903,0.80625 3.83333,-0.33333 z M 42.8,623.8 C 43.70653,622.89347 44,608.00155 44,562.90699 44,495.83994 44.812031,502 35.971127,502 c -5.793585,0 -12.578864,3.28067 -18.163162,8.78186 l -3.77431,3.71814 -0.01037,48.5 -0.01037,48.5 4.07135,4.75 c 2.239242,2.6125 4.881237,4.75 5.871099,4.75 0.989862,0 2.337529,0.64798 2.994815,1.43997 2.060178,2.48236 13.726442,3.48341 15.849824,1.36003 z m 248.72749,-0.1653 c 1.08488,-0.75092 2.91195,-1.65805 4.06016,-2.01586 1.14821,-0.35781 4.15932,-2.63556 6.69135,-5.06168 l 4.6037,-4.41112 0.0592,-48.52595 0.0592,-48.52595 -4.5007,-4.43703 c -7.4546,-7.34914 -16.23372,-10.18478 -24.17179,-7.80743 l -2.17145,0.65032 0.17145,59.78627 c 0.14892,51.92858 0.36859,59.91092 1.67145,60.73468 2.25565,1.42621 11.28128,1.1685 13.52749,-0.38625 z M 110.8,612.8 c 1.25465,-1.25465 1.72438,-17.26991 0.59301,-20.21821 -0.7514,-1.95812 -11.840228,-2.28523 -13.015289,-0.38394 -0.407172,0.65882 -0.671664,4.56361 -0.587759,8.6773 0.142677,6.9952 0.352642,7.6622 3.243018,10.30215 3.25791,2.97565 7.67947,3.71025 9.76702,1.6227 z m 22.95671,-71.14553 0.25672,-70.70178 -3.00672,-0.60135 c -2.89007,-0.57801 -3.01273,-0.81955 -3.16202,-6.22634 -0.50472,-18.27924 -0.75553,-21.45186 -1.74416,-22.06287 -1.51066,-0.93364 -11.18986,-0.3728 -12.27384,0.71118 -1.39375,1.39375 -1.12404,139.16348 0.27573,140.8501 0.62836,0.75713 2.00149,1.37659 3.05141,1.37659 2.6925,0 2.95107,1.23862 3.16018,15.13801 L 120.5,612.5 l 4,0.5287 c 2.2,0.29079 5.125,0.25845 6.5,-0.0719 l 2.5,-0.60058 z m 44.10181,70.80182 c 1.13184,-0.39725 1.29869,-12.15468 1,-70.46554 -0.23424,-45.72679 -0.70517,-69.9989 -1.35852,-70.01805 -6.35924,-0.18638 -26.18381,-0.28315 -30.25,-0.14765 L 142,472 v 70.41667 c 0,45.40796 0.35034,70.53505 0.98646,70.75 1.46151,0.49386 33.2882,-0.15448 34.87206,-0.71038 z m 42.64184,-2.18768 c 2.08626,-2.37069 2.44098,-3.79302 2.46804,-9.89617 0.037,-8.34816 -0.79348,-9.44099 -7.36793,-9.69543 -5.8952,-0.22816 -7.30673,1.66641 -7.48855,10.05119 -0.0757,3.49198 -0.18517,6.66918 -0.24322,7.06043 -0.35911,2.42041 0.41005,4.04497 2.3813,5.02959 3.29408,1.64536 7.47354,0.60579 10.25036,-2.54961 z m -19.93399,-1.86262 c 0.3789,-2.5267 0.46719,-7.69288 0.19619,-11.48039 -0.69173,-9.66784 -0.20252,-11.38016 3.56887,-12.49171 L 207.5,583.5 V 513 442.5 h -7 -7 l -0.60387,13.5 c -0.33213,7.425 -0.66963,13.6125 -0.75,13.75 -0.0804,0.1375 -0.78899,0.25 -1.5747,0.25 -0.78572,0 -2.11443,0.68586 -2.95271,1.52413 -1.33527,1.33528 -1.52988,10.11236 -1.57055,70.83421 -0.0255,38.12054 0.25319,69.60968 0.61937,69.97587 0.36619,0.36618 3.48822,0.66579 6.93785,0.66579 h 6.27206 z M 107.7098,580.71877 c 1.54076,-1.54076 1.67038,-7.25108 1.57637,-69.44878 -0.11093,-73.39645 0.12972,-70.12683 -5.58174,-75.83829 -1.42929,-1.42929 -3.41,-2.4425 -4.40157,-2.25158 -1.714334,0.33009 -1.816391,3.90645 -2.078417,72.83351 -0.151557,39.8675 -0.04117,73.45631 0.245312,74.64178 0.437611,1.81088 1.163479,2.12239 4.541065,1.94878 2.2111,-0.11365 4.77565,-0.96209 5.69898,-1.88542 z m 115.24033,-0.0876 c 1.29334,-3.40173 0.48402,-145.59701 -0.83619,-146.91722 -1.4989,-1.4989 -7.22689,2.74363 -9.36394,6.93555 -1.61573,3.16934 -1.75,8.63738 -1.75,71.26917 0,72.53253 -0.22342,69.38899 5,70.34934 5.09017,0.93585 6.05872,0.70774 6.95013,-1.63684 z M 182.76232,459.75 c 0.64463,-0.80003 0.69849,-3.40987 0.14961,-7.25 -0.47168,-3.3 -0.58566,-7.51093 -0.25328,-9.35762 0.53403,-2.96716 0.17013,-3.7439 -3.12917,-6.67914 l -3.73347,-3.32151 0.14344,-13.41402 c 0.11033,-10.31679 -0.17494,-13.67826 -1.2355,-14.55844 -0.95601,-0.79342 -5.62366,-0.99171 -15.21845,-0.64651 -7.61173,0.27386 -13.96377,0.62217 -14.11563,0.77404 -0.15186,0.15186 -0.39668,6.28953 -0.54403,13.63926 -0.18457,9.2063 -0.66575,13.761 -1.54687,14.64212 -0.70344,0.70343 -1.27897,1.74527 -1.27897,2.31521 0,0.56993 -0.83214,1.48159 -1.8492,2.0259 -1.52058,0.8138 -1.96986,2.70616 -2.52817,10.64878 -0.47285,6.72683 -0.32967,10.08 0.47165,11.04553 1.59088,1.9169 43.13116,2.04375 44.66804,0.1364 z M 132.88476,430.4076 136,428.85352 V 417.5492 c 0,-7.85205 -0.38174,-11.60478 -1.25,-12.28818 -0.6875,-0.54113 -6.47999,-1.07411 -12.8722,-1.1844 -10.86682,-0.1875 -11.7936,-0.0503 -14.25923,2.11142 -2.29806,2.01478 -2.65809,3.14748 -2.80087,8.81196 -0.21083,8.36388 0.48303,10.27811 5.03125,13.88037 5.44652,4.31372 16.04203,5.01619 23.03581,1.52723 z m 79.09682,-2.62448 c 3.95661,-3.9566 4.01842,-4.1306 4.01842,-11.31187 0,-6.95332 -0.1469,-7.41707 -3.14984,-9.94388 -3.04434,-2.56164 -3.52852,-2.64284 -14.45704,-2.42445 -6.21897,0.12427 -11.75462,0.50247 -12.30145,0.84043 -0.54683,0.33796 -1.10533,5.42754 -1.24111,11.31019 -0.23073,9.99666 -0.0947,10.85764 2.08072,13.17332 1.78074,1.89551 3.53062,2.54756 7.44816,2.77537 10.4853,0.60974 13.27321,-0.0902 17.60214,-4.41911 z M 103,398.01492 c 1.36714,-1.95641 5.48801,-3.14595 8.76722,-2.53077 1.95615,0.36698 10.00996,0.34759 17.89735,-0.0431 l 14.34072,-0.7103 L 143.75265,210.11537 143.5,25.5 121.50135,25.229805 C 101.70292,24.986634 99.377547,25.13077 98.251351,26.670935 97.260271,28.026318 97,66.699973 97,212.60934 c 0,101.3249 0.278291,184.9523 0.618425,185.83867 0.604666,1.57574 4.178815,1.2881 5.381575,-0.43309 z M 223.33908,397.75 c 0.71355,-2.88808 -0.20163,-368.669524 -0.92823,-371 -0.49692,-1.593784 -2.42007,-1.75 -21.54398,-1.75 -13.10084,0 -21.756,0.40548 -23.01283,1.078114 -2.00961,1.075511 -2.0138,1.521154 -1.73841,184.562026 0.15183,100.91615 0.65768,183.71976 1.12409,184.00802 0.46642,0.28826 8.36579,0.67144 17.55416,0.85152 9.18837,0.18007 17.49802,0.36631 18.46591,0.41386 0.96788,0.0476 2.53039,0.98646 3.47224,2.08646 2.34874,2.74313 5.90076,2.60873 6.60705,-0.25 z M 166,394.4998 c 1.32665,-0.42086 1.48753,-21.61043 1.39213,-183.35334 -0.0593,-100.58262 -0.43858,-183.412599 -0.84278,-184.066618 -0.86023,-1.391868 -11.23486,-0.794327 -12.76437,0.73518 -0.95624,0.956241 -1.23339,364.650418 -0.27905,366.194568 0.51284,0.82979 10.22272,1.21076 12.49407,0.49021 z"
         id="path2" />
    </g>
  </g>
</svg>
