<?xml version="1.0" encoding="UTF-8" standalone="no"?>
<svg
   width="144"
   height="144"
   viewBox="0 0 38.1 38.1"
   version="1.1"
   id="svg10"
   sodipodi:docname="map-pumpkin-04.svg"
   inkscape:version="1.4.2 (ebf0e940, 2025-05-08)"
   xml:space="preserve"
   xmlns:inkscape="http://www.inkscape.org/namespaces/inkscape"
   xmlns:sodipodi="http://sodipodi.sourceforge.net/DTD/sodipodi-0.dtd"
   xmlns="http://www.w3.org/2000/svg"
   xmlns:svg="http://www.w3.org/2000/svg"
   xmlns:rdf="http://www.w3.org/1999/02/22-rdf-syntax-ns#"
   xmlns:cc="http://creativecommons.org/ns#"
   xmlns:dc="http://purl.org/dc/elements/1.1/"><metadata
     id="metadata16"><rdf:RDF><cc:Work
         rdf:about=""><dc:format>image/svg+xml</dc:format><dc:type
           rdf:resource="http://purl.org/dc/dcmitype/StillImage" /></cc:Work></rdf:RDF></metadata><defs
     id="defs14" /><sodipodi:namedview
     pagecolor="#ffffff"
     bordercolor="#666666"
     borderopacity="1"
     objecttolerance="10"
     gridtolerance="10"
     guidetolerance="10"
     inkscape:pageopacity="0"
     inkscape:pageshadow="2"
     inkscape:window-width="896"
     inkscape:window-height="514"
     id="namedview12"
     showgrid="true"
     inkscape:zoom="2.3666324"
     inkscape:cx="73.944733"
     inkscape:cy="77.113793"
     inkscape:window-x="0"
     inkscape:window-y="25"
     inkscape:window-maximized="0"
     inkscape:current-layer="svg10"
     inkscape:snap-nodes="false"
     inkscape:showpageshadow="2"
     inkscape:pagecheckerboard="0"
     inkscape:deskcolor="#d1d1d1"><inkscape:grid
       type="xygrid"
       id="grid823"
       empspacing="4"
       spacingy="1.0583333"
       spacingx="1.0583333"
       originx="0"
       originy="0"
       units="px" /></sodipodi:namedview><g
     id="g964"
     transform="rotate(32.071813,24.82473,20.964518)"
     style="stroke-width:0.5291667;stroke-miterlimit:4;stroke-dasharray:none"><path
       d="m 23.611955,8.991224 c -1.531265,-0.05538 -2.796277,0.49744 -3.785176,1.287834 -1.163465,0.931238 -1.927601,2.206213 -2.201782,3.130909 -0.590755,1.992061 0.227079,3.536179 1.335785,4.061356 0,0 1.045393,0.523785 2.037394,0.08614 0.554353,-0.262588 0.955325,-0.602301 1.36338,-1.472229 0.431072,-0.919795 0.285132,-2.50409 0.305109,-4.001538 0.0111,-0.74951 0.06767,-1.480113 0.309235,-2.118623 0.135691,-0.368514 0.353158,-0.701472 0.636055,-0.973842 z"
       id="path956"
       inkscape:connector-curvature="0"
       style="fill:#28a200;stroke:#191919;stroke-width:0.5291667;stroke-miterlimit:4;stroke-dasharray:none"
       sodipodi:nodetypes="cccccccccc" /><path
       sodipodi:nodetypes="ccccccc"
       inkscape:connector-curvature="0"
       id="path958"
       d="m 17.54567,15.290913 -0.01144,-1.175354 c 0.195994,0.608612 2.311979,1.984606 2.311979,1.984606 0,0 1.688932,0.114469 2.483222,-0.246576 l -0.363899,0.804897 c -0.783974,0.268202 -2.278581,0.182407 -2.278581,0.182407 -0.907758,-0.505457 -2.14128,-1.54998 -2.141281,-1.54998 z"
       style="fill:#196400;fill-opacity:1;stroke:#191919;stroke-width:0.5291667;stroke-linecap:square;stroke-linejoin:miter;stroke-miterlimit:4;stroke-dasharray:none;stroke-opacity:1;paint-order:fill markers stroke" /><path
       style="fill:#196400;fill-opacity:1;stroke:#191919;stroke-width:0.5291667;stroke-linecap:square;stroke-linejoin:miter;stroke-miterlimit:4;stroke-dasharray:none;stroke-opacity:1;paint-order:fill markers stroke"
       d="m 18.019788,12.716087 0.593971,-1.087824 c 0.195994,0.608611 1.64092,1.918959 1.64092,1.918959 0,0 1.527187,-0.01619 2.321476,-0.377233 l -0.03438,1.001201 c -0.783974,0.268202 -2.417169,0.430407 -2.417169,0.430407 -0.907758,-0.505457 -2.10481,-1.88551 -2.10481,-1.88551 z"
       id="path960"
       inkscape:connector-curvature="0"
       sodipodi:nodetypes="cccccccc" /><path
       sodipodi:nodetypes="cccccc"
       inkscape:connector-curvature="0"
       id="path962"
       d="m 22.274329,9.179051 0.905746,0.02408 C 18.949484,15.4469 20.086092,19.35876 20.086092,19.35876 h -1.050354 c 0,0 -0.641882,-5.365585 3.238591,-10.179706 z"
       style="fill:#196400;fill-opacity:1;stroke:#191919;stroke-width:0.5291667;stroke-linecap:square;stroke-linejoin:miter;stroke-miterlimit:4;stroke-dasharray:none;stroke-opacity:1;paint-order:fill markers stroke" /></g><g
     transform="rotate(130.10756,7.5542483,13.284545)"
     id="g954"><path
       d="m 15.149121,8.4199035 c 0.464443,-1.460183 0.27153,-2.827169 -0.22436,-3.991959 -0.584699,-1.37076 -1.607724,-2.449132 -2.424864,-2.961498 -1.760332,-1.103872 -3.4673248,-0.730606 -4.2708738,0.196406 0,0 -0.785209,0.866397 -0.629951,1.939473 0.104123,0.604499 0.323717,1.081952 1.05216,1.708574 0.770299,0.662182 2.3356128,0.946931 3.7727248,1.36819 0.719015,0.211911 1.407609,0.462547 1.957826,0.866663 0.318557,0.229643 0.58091,0.528515 0.767333,0.874149 z"
       id="path946"
       inkscape:connector-curvature="0"
       style="fill:#28a200;stroke:#191919;stroke-width:0.52916676;stroke-miterlimit:4;stroke-dasharray:none"
       sodipodi:nodetypes="cccccccccc" /><path
       sodipodi:nodetypes="ccccccc"
       inkscape:connector-curvature="0"
       id="path948"
       d="m 10.709299,0.8850585 1.135277,0.304525 c -0.638887,0.02541 -2.5324388,1.694302 -2.5324388,1.694302 0,0 -0.56369,1.596198 -0.42914,2.458258 l -0.677653,-0.566629 c -0.04789,-0.827196 0.436013,-2.243901 0.436013,-2.243901 0.730604,-0.738735 2.0679418,-1.646554 2.0679418,-1.646555 z"
       style="fill:#196400;fill-opacity:1;stroke:#191919;stroke-width:0.40296042;stroke-linecap:square;stroke-linejoin:miter;stroke-miterlimit:4;stroke-dasharray:none;stroke-opacity:1;paint-order:fill markers stroke" /><path
       style="fill:#196400;fill-opacity:1;stroke:#191919;stroke-width:0.40296042;stroke-linecap:square;stroke-linejoin:miter;stroke-miterlimit:4;stroke-dasharray:none;stroke-opacity:1;paint-order:fill markers stroke"
       d="m 13.062315,2.0330285 0.888427,0.86421 c -0.638886,0.02541 -2.289045,1.065503 -2.289045,1.065503 0,0 -0.394403,1.475469 -0.259855,2.337526 l -0.955216,-0.301907 c -0.04789,-0.827197 0.234324,-2.443982 0.234324,-2.443982 0.730604,-0.738735 2.381363,-1.521343 2.381363,-1.521343 z"
       id="path950"
       inkscape:connector-curvature="0"
       sodipodi:nodetypes="cccccccc" /><path
       sodipodi:nodetypes="cccccc"
       inkscape:connector-curvature="0"
       id="path952"
       d="m 15.327298,7.0809575 -0.266359,0.866031 C 10.182161,2.1954605 6.1087692,2.2401365 6.1087692,2.2401365 l 0.281984,-1.011794 c 0,0 5.3409328,0.822165 8.9365418,5.852615 z"
       style="fill:#196400;fill-opacity:1;stroke:#191919;stroke-width:0.40296042;stroke-linecap:square;stroke-linejoin:miter;stroke-miterlimit:4;stroke-dasharray:none;stroke-opacity:1;paint-order:fill markers stroke" /></g><g
     style="stroke-width:0.5291667;stroke-miterlimit:4;stroke-dasharray:none"
     transform="rotate(174.4733,19.566332,20.248484)"
     id="g1005"><path
       d="m 23.611955,8.991224 c -1.531265,-0.05538 -2.796277,0.49744 -3.785176,1.287834 -1.163465,0.931238 -1.927601,2.206213 -2.201782,3.130909 -0.590755,1.992061 0.227079,3.536179 1.335785,4.061356 0,0 1.045393,0.523785 2.037394,0.08614 0.554353,-0.262588 0.955325,-0.602301 1.36338,-1.472229 0.431072,-0.919795 0.285132,-2.50409 0.305109,-4.001538 0.0111,-0.74951 0.06767,-1.480113 0.309235,-2.118623 0.135691,-0.368514 0.353158,-0.701472 0.636055,-0.973842 z"
       id="path997-8"
       inkscape:connector-curvature="0"
       style="fill:#28a200;stroke:#191919;stroke-width:0.5291667;stroke-miterlimit:4;stroke-dasharray:none"
       sodipodi:nodetypes="cccccccccc" /><path
       sodipodi:nodetypes="ccccccc"
       inkscape:connector-curvature="0"
       id="path999-7"
       d="m 17.54567,15.290913 -0.01144,-1.175354 c 0.195994,0.608612 2.311979,1.984606 2.311979,1.984606 0,0 1.688932,0.114469 2.483222,-0.246576 l -0.363899,0.804897 c -0.783974,0.268202 -2.278581,0.182407 -2.278581,0.182407 -0.907758,-0.505457 -2.14128,-1.54998 -2.141281,-1.54998 z"
       style="fill:#196400;fill-opacity:1;stroke:#191919;stroke-width:0.5291667;stroke-linecap:square;stroke-linejoin:miter;stroke-miterlimit:4;stroke-dasharray:none;stroke-opacity:1;paint-order:fill markers stroke" /><path
       style="fill:#196400;fill-opacity:1;stroke:#191919;stroke-width:0.5291667;stroke-linecap:square;stroke-linejoin:miter;stroke-miterlimit:4;stroke-dasharray:none;stroke-opacity:1;paint-order:fill markers stroke"
       d="m 18.019788,12.716087 0.593971,-1.087824 c 0.195994,0.608611 1.64092,1.918959 1.64092,1.918959 0,0 1.527187,-0.01619 2.321476,-0.377233 l -0.03438,1.001201 c -0.783974,0.268202 -2.417169,0.430407 -2.417169,0.430407 -0.907758,-0.505457 -2.10481,-1.88551 -2.10481,-1.88551 z"
       id="path1001-2"
       inkscape:connector-curvature="0"
       sodipodi:nodetypes="cccccccc" /><path
       sodipodi:nodetypes="cccccc"
       inkscape:connector-curvature="0"
       id="path1003-1"
       d="m 22.274329,9.179051 0.905746,0.02408 C 18.949484,15.4469 20.086092,19.35876 20.086092,19.35876 h -1.050354 c 0,0 -0.641882,-5.365585 3.238591,-10.179706 z"
       style="fill:#196400;fill-opacity:1;stroke:#191919;stroke-width:0.5291667;stroke-linecap:square;stroke-linejoin:miter;stroke-miterlimit:4;stroke-dasharray:none;stroke-opacity:1;paint-order:fill markers stroke" /></g><g
     id="g944"
     transform="translate(14.852542,18.404238)"><path
       sodipodi:nodetypes="cccccccccc"
       style="fill:#28a200;stroke:#191919;stroke-width:0.52916676;stroke-miterlimit:4;stroke-dasharray:none"
       inkscape:connector-curvature="0"
       id="path1007-5"
       d="m 15.149121,8.4199035 c 0.464443,-1.460183 0.27153,-2.827169 -0.22436,-3.991959 -0.584699,-1.37076 -1.607724,-2.449132 -2.424864,-2.961498 -1.760332,-1.103872 -3.4673248,-0.730606 -4.2708738,0.196406 0,0 -0.785209,0.866397 -0.629951,1.939473 0.104123,0.604499 0.323717,1.081952 1.05216,1.708574 0.770299,0.662182 2.3356128,0.946931 3.7727248,1.36819 0.719015,0.211911 1.407609,0.462547 1.957826,0.866663 0.318557,0.229643 0.58091,0.528515 0.767333,0.874149 z" /><path
       style="fill:#196400;fill-opacity:1;stroke:#191919;stroke-width:0.40296042;stroke-linecap:square;stroke-linejoin:miter;stroke-miterlimit:4;stroke-dasharray:none;stroke-opacity:1;paint-order:fill markers stroke"
       d="m 10.709299,0.8850585 1.135277,0.304525 c -0.638887,0.02541 -2.5324388,1.694302 -2.5324388,1.694302 0,0 -0.56369,1.596198 -0.42914,2.458258 l -0.677653,-0.566629 c -0.04789,-0.827196 0.436013,-2.243901 0.436013,-2.243901 0.730604,-0.738735 2.0679418,-1.646554 2.0679418,-1.646555 z"
       id="path1009-5"
       inkscape:connector-curvature="0"
       sodipodi:nodetypes="ccccccc" /><path
       sodipodi:nodetypes="cccccccc"
       inkscape:connector-curvature="0"
       id="path1011-0"
       d="m 13.062315,2.0330285 0.888427,0.86421 c -0.638886,0.02541 -2.289045,1.065503 -2.289045,1.065503 0,0 -0.394403,1.475469 -0.259855,2.337526 l -0.955216,-0.301907 c -0.04789,-0.827197 0.234324,-2.443982 0.234324,-2.443982 0.730604,-0.738735 2.381363,-1.521343 2.381363,-1.521343 z"
       style="fill:#196400;fill-opacity:1;stroke:#191919;stroke-width:0.40296042;stroke-linecap:square;stroke-linejoin:miter;stroke-miterlimit:4;stroke-dasharray:none;stroke-opacity:1;paint-order:fill markers stroke" /><path
       style="fill:#196400;fill-opacity:1;stroke:#191919;stroke-width:0.40296042;stroke-linecap:square;stroke-linejoin:miter;stroke-miterlimit:4;stroke-dasharray:none;stroke-opacity:1;paint-order:fill markers stroke"
       d="m 15.327298,7.0809575 -0.266359,0.866031 C 10.182161,2.1954605 6.1087692,2.2401365 6.1087692,2.2401365 l 0.281984,-1.011794 c 0,0 5.3409328,0.822165 8.9365418,5.852615 z"
       id="path1013-7"
       inkscape:connector-curvature="0"
       sodipodi:nodetypes="cccccc" /></g><g
     style="stroke-width:0.5291667;stroke-miterlimit:4;stroke-dasharray:none"
     transform="rotate(-49.692876,16.327228,20.254349)"
     id="g995"><path
       sodipodi:nodetypes="cccccccccc"
       style="fill:#28a200;stroke:#191919;stroke-width:0.5291667;stroke-miterlimit:4;stroke-dasharray:none"
       inkscape:connector-curvature="0"
       id="path826"
       d="m 23.611955,8.991224 c -1.531265,-0.05538 -2.796277,0.49744 -3.785176,1.287834 -1.163465,0.931238 -1.927601,2.206213 -2.201782,3.130909 -0.590755,1.992061 0.227079,3.536179 1.335785,4.061356 0,0 1.045393,0.523785 2.037394,0.08614 0.554353,-0.262588 0.955325,-0.602301 1.36338,-1.472229 0.431072,-0.919795 0.285132,-2.50409 0.305109,-4.001538 0.0111,-0.74951 0.06767,-1.480113 0.309235,-2.118623 0.135691,-0.368514 0.353158,-0.701472 0.636055,-0.973842 z" /><path
       style="fill:#196400;fill-opacity:1;stroke:#191919;stroke-width:0.5291667;stroke-linecap:square;stroke-linejoin:miter;stroke-miterlimit:4;stroke-dasharray:none;stroke-opacity:1;paint-order:fill markers stroke"
       d="m 17.54567,15.290913 -0.01144,-1.175354 c 0.195994,0.608612 2.311979,1.984606 2.311979,1.984606 0,0 1.688932,0.114469 2.483222,-0.246576 l -0.363899,0.804897 c -0.783974,0.268202 -2.278581,0.182407 -2.278581,0.182407 -0.907758,-0.505457 -2.14128,-1.54998 -2.141281,-1.54998 z"
       id="path820"
       inkscape:connector-curvature="0"
       sodipodi:nodetypes="ccccccc" /><path
       sodipodi:nodetypes="cccccccc"
       inkscape:connector-curvature="0"
       id="path847"
       d="m 18.019788,12.716087 0.593971,-1.087824 c 0.195994,0.608611 1.64092,1.918959 1.64092,1.918959 0,0 1.527187,-0.01619 2.321476,-0.377233 l -0.03438,1.001201 c -0.783974,0.268202 -2.417169,0.430407 -2.417169,0.430407 -0.907758,-0.505457 -2.10481,-1.88551 -2.10481,-1.88551 z"
       style="fill:#196400;fill-opacity:1;stroke:#191919;stroke-width:0.5291667;stroke-linecap:square;stroke-linejoin:miter;stroke-miterlimit:4;stroke-dasharray:none;stroke-opacity:1;paint-order:fill markers stroke" /><path
       style="fill:#196400;fill-opacity:1;stroke:#191919;stroke-width:0.5291667;stroke-linecap:square;stroke-linejoin:miter;stroke-miterlimit:4;stroke-dasharray:none;stroke-opacity:1;paint-order:fill markers stroke"
       d="m 22.274329,9.179051 0.905746,0.02408 C 18.949484,15.4469 20.086092,19.35876 20.086092,19.35876 h -1.050354 c 0,0 -0.641882,-5.365585 3.238591,-10.179706 z"
       id="rect832"
       inkscape:connector-curvature="0"
       sodipodi:nodetypes="cccccc" /></g><g
     id="g864"
     transform="matrix(0.97321979,0,0,0.97321979,9.7933105,9.5518565)"><path
       sodipodi:nodetypes="cccccscccccc"
       inkscape:connector-curvature="0"
       style="fill:#a92a03;fill-opacity:1;stroke:#2d2d2d;stroke-width:1.5875;stroke-miterlimit:4;stroke-dasharray:none"
       id="path2"
       d="m 11.849837,1.1646119 c 2.529672,0.4065544 2.955402,1.5894985 4.392895,3.1077674 1.437493,1.5177545 1.937575,2.3931567 2.052822,4.8189918 0.115761,2.4253199 -0.03772,4.0361899 -1.588918,5.6542699 -2.228274,1.889117 -3.137903,3.186211 -5.332216,3.301972 C 9.1795931,18.162859 6.4328407,18.328614 4.9289777,17.502338 3.4251145,16.676061 2.888113,15.558961 2.300562,14.337555 1.7130109,13.116663 0.75921573,11.701634 0.72988967,10.286263 0.70107805,8.870893 0.89298386,7.3268992 1.5067741,5.9614347 2.1205643,4.5964847 3.2170357,4.050446 4.2393333,3.2416628 5.2611166,2.4328797 6.2071825,1.3613525 7.3364948,1.0598595 9.9394912,0.65063059 11.0819,1.0742663 11.849837,1.1646119 Z" /><path
       sodipodi:nodetypes="sssss"
       inkscape:connector-curvature="0"
       id="path832"
       d="M 4.2526021,12.813248 C 3.7732825,12.939273 3.2442944,12.570314 3.1101127,12.120129 2.9759309,11.669945 3.2873673,11.30901 3.7666869,11.182984 c 0.4793197,-0.126025 0.9023676,0.238075 1.0365493,0.68826 0.1341818,0.450184 -0.071314,0.815979 -0.5506341,0.942004 z"
       style="fill:#000000;fill-opacity:0.34117648;stroke:none;stroke-width:0.560115;stroke-linecap:square;stroke-linejoin:miter;stroke-miterlimit:4;stroke-dasharray:none;stroke-opacity:1;paint-order:fill markers stroke" /><path
       style="fill:#000000;fill-opacity:0.34117648;stroke:none;stroke-width:1.13252;stroke-linecap:square;stroke-linejoin:miter;stroke-miterlimit:4;stroke-dasharray:none;stroke-opacity:1;paint-order:fill markers stroke"
       d="m 16.69901,10.266589 c 0,0.987829 -1.007817,1.788623 -1.970843,1.788623 -0.963025,0 -1.516583,-0.800795 -1.516583,-1.788623 0,-0.9878302 0.942923,-1.5889264 1.905949,-1.5889264 0.963026,0 1.581477,0.6010962 1.581477,1.5889264 z"
       id="path835"
       inkscape:connector-curvature="0"
       sodipodi:nodetypes="sssss" /><path
       sodipodi:nodetypes="sssss"
       inkscape:connector-curvature="0"
       id="path837"
       d="m 9.1712177,16.145009 c -0.3468715,0.394865 -1.0538255,0.344594 -1.4606604,-0.0093 -0.4068354,-0.35391 -0.3594931,-0.877441 -0.01262,-1.272304 0.3468722,-0.394864 0.9562881,-0.288618 1.363123,0.06529 0.4068357,0.353909 0.4570309,0.821464 0.1101586,1.216328 z"
       style="fill:#000000;fill-opacity:0.34117648;stroke:none;stroke-width:0.618145;stroke-linecap:square;stroke-linejoin:miter;stroke-miterlimit:4;stroke-dasharray:none;stroke-opacity:1;paint-order:fill markers stroke" /><path
       style="fill:#000000;fill-opacity:0.34117648;stroke:none;stroke-width:0.49911;stroke-linecap:square;stroke-linejoin:miter;stroke-miterlimit:4;stroke-dasharray:none;stroke-opacity:1;paint-order:fill markers stroke"
       d="M 9.7389516,4.433341 C 9.4527535,4.7541286 8.9529064,4.6387735 8.6969718,4.2800533 8.4410373,3.9213333 8.5259335,3.4550874 8.8121316,3.1343 9.0983297,2.8135125 9.5230735,2.9695445 9.7790073,3.3282645 10.034942,3.6869847 10.02515,4.1125533 9.7389516,4.433341 Z"
       id="path839"
       inkscape:connector-curvature="0"
       sodipodi:nodetypes="sssss" /><path
       style="fill:#000000;fill-opacity:0.34117648;stroke:none;stroke-width:0.553575;stroke-linecap:square;stroke-linejoin:miter;stroke-miterlimit:4;stroke-dasharray:none;stroke-opacity:1;paint-order:fill markers stroke"
       d="m 12.28031,12.979661 c 0.05837,0.577521 -0.296435,1.142198 -0.680676,1.234416 -0.384242,0.09222 -0.652421,-0.322952 -0.710786,-0.900476 -0.05837,-0.57752 0.282343,-1.019234 0.666585,-1.11145 0.384242,-0.09222 0.666516,0.199988 0.72488,0.77751 z"
       id="path841"
       inkscape:connector-curvature="0"
       sodipodi:nodetypes="sssss" /><path
       style="fill:#000000;fill-opacity:0.33982036;stroke:none;stroke-width:0.959074;stroke-linecap:square;stroke-linejoin:miter;stroke-miterlimit:4;stroke-dasharray:none;stroke-opacity:1;paint-order:fill markers stroke"
       d="M 4.3907012,8.0771948 C 3.9398571,7.3450178 4.1741191,6.1418459 4.7472076,5.5593147 5.3202959,4.9767835 6.0151938,5.2354853 6.4660374,5.9676621 6.9168815,6.699839 6.630096,7.7157409 6.0570077,8.2982719 5.4839194,8.8808038 4.8415449,8.8093703 4.3907012,8.0771948 Z"
       id="path843"
       inkscape:connector-curvature="0"
       sodipodi:nodetypes="sssss" /><path
       sodipodi:nodetypes="sssss"
       inkscape:connector-curvature="0"
       id="path906"
       d="m 13.635755,7.3113411 c -0.498478,-0.050337 -0.705547,-0.4270136 -0.517277,-0.7479588 0.18827,-0.320945 0.700586,-0.4646218 1.199063,-0.4142857 0.498478,0.050337 0.617462,0.3952107 0.429193,0.7161553 -0.188271,0.3209452 -0.612501,0.4964248 -1.110979,0.4460892 z"
       style="fill:#000000;fill-opacity:0.34117648;stroke:none;stroke-width:0.477992;stroke-linecap:square;stroke-linejoin:miter;stroke-miterlimit:4;stroke-dasharray:none;stroke-opacity:1;paint-order:fill markers stroke" /></g><path
     sodipodi:nodetypes="scscscscscs"
     inkscape:connector-curvature="0"
     id="path1075"
     d="m 21.474213,19.56896 c -0.178289,0.665384 -1.238076,0.842442 -1.238076,0.842442 0,0 -0.393527,0.999817 -1.081441,1.03587 -0.687915,0.03605 -1.183793,-0.917156 -1.183793,-0.917156 0,0 -1.072488,-0.06531 -1.319359,-0.70841 -0.246862,-0.643102 0.506463,-1.40927 0.506463,-1.40927 0,0 -0.26931,-1.040179 0.266025,-1.473692 0.535347,-0.433508 1.496803,0.04618 1.496803,0.04618 0,0 0.906046,-0.57756 1.483772,-0.202383 0.577725,0.375179 0.41862,1.437812 0.41862,1.437812 0,0 0.829277,0.683228 0.650986,1.348609 z"
     inkscape:transform-center-y="0.13259795"
     style="fill:#924a33;fill-opacity:1;stroke:#323232;stroke-width:1.10109496;stroke-linecap:butt;stroke-linejoin:miter;stroke-miterlimit:4;stroke-dasharray:none;stroke-opacity:1"
     inkscape:transform-center-x="-0.00035960416" /></svg>
