<?xml version="1.0" encoding="UTF-8" standalone="no"?>
<svg width="976.00012" height="688" viewBox="0 0 258.23202 182.03291" version="1.1" id="svg9" sodipodi:docname="map-building-hut-floor-03.svg" xml:space="preserve" inkscape:version="1.4.3 (0d15f75042, 2025-12-25)" xmlns:inkscape="http://www.inkscape.org/namespaces/inkscape" xmlns:sodipodi="http://sodipodi.sourceforge.net/DTD/sodipodi-0.dtd" xmlns:xlink="http://www.w3.org/1999/xlink" xmlns="http://www.w3.org/2000/svg" xmlns:svg="http://www.w3.org/2000/svg"><sodipodi:namedview id="namedview9" pagecolor="#ffffff" bordercolor="#000000" borderopacity="0.25" inkscape:showpageshadow="2" inkscape:pageopacity="0.0" inkscape:pagecheckerboard="0" inkscape:deskcolor="#d1d1d1" inkscape:zoom="0.50000001" inkscape:cx="146" inkscape:cy="636.99998" inkscape:window-width="1360" inkscape:window-height="697" inkscape:window-x="-8" inkscape:window-y="-8" inkscape:window-maximized="1" inkscape:current-layer="g11" showguides="false" showgrid="true"><inkscape:grid id="grid1" units="px" originx="2.4123778e-05" originy="9.3998664e-15" spacingx="1.0583278" spacingy="1.0583309" empcolor="#000000" empopacity="1" color="#cd0000" opacity="0.18823529" empspacing="8" dotted="false" gridanglex="30" gridanglez="30" visible="true" /><inkscape:grid id="grid2" units="px" originx="2.4123778e-05" originy="9.3998664e-15" spacingx="1.0583278" spacingy="1.0583308" empcolor="#00e50b" empopacity="0.30196078" color="#96e500" opacity="0.14901961" empspacing="1" enabled="true" visible="false" /></sodipodi:namedview><defs id="defs7"><pattern inkscape:collect="always" xlink:href="#b-4" id="pattern1" patternTransform="matrix(-1.8103259,-1.2676038,0.15199778,-0.21707532,-219.26404,-8.7470036)" x="0" y="0" preserveAspectRatio="none" /><pattern xlink:href="#a" id="b" patternTransform="matrix(0.21044898,0,0,0.21072892,142.01772,62.502293)" x="0" y="0" preserveAspectRatio="none" /><pattern patternUnits="userSpaceOnUse" width="160" height="160" patternTransform="matrix(.26458 0 0 .26458 143.933 59.267)" id="a" inkscape:label="a"><path fill="none" stroke-width="3.78" d="M0 0h160v160H0z" id="path1" /><path fill="none" stroke-width="3.78" d="M0 0h160v160H0z" id="path2" /><path fill="#a76118" stroke-width="18.898" stroke-miterlimit="10" d="M0 0h160v160H0z" id="path3" /><path fill-opacity=".354" stroke-width="8.709" stroke-miterlimit="10" d="M36 0h4v160h-4zM76 0h4v160h-4zM116 0h4v160h-4z" id="path4" /><path transform="rotate(90)" fill-opacity=".354" stroke-width="4.131" stroke-miterlimit="10" d="M36-76h4v36h-4zM156-36h4V0h-4zM116-116h4v36h-4z" id="path5" /><path fill-opacity=".354" stroke-width="8.709" stroke-miterlimit="10" d="M156 0h4v160h-4z" id="path6" /><path transform="rotate(90)" fill-opacity=".354" stroke-width="4.131" stroke-miterlimit="10" d="M76-156h4v36h-4z" id="path7" /></pattern><pattern patternUnits="userSpaceOnUse" width="128" height="168" patternTransform="translate(1.058 -47.625) scale(.26458)" id="b-4" inkscape:label="b-4"><path fill="none" stroke-width="3.78" d="M0 0h128v168H0z" id="path2-6" /><path transform="rotate(-90)" fill="#5e2d03" stroke-width="17.32" stroke-miterlimit="10" d="M-168 0H0v128h-168z" id="path3-9" /><path transform="rotate(-90)" fill-opacity=".294" stroke-width="7.542" stroke-miterlimit="10" d="M-4 4h4v120h-4z" id="path4-6" /><path fill-opacity=".294" stroke-width="8.924" stroke-miterlimit="10" d="M0 0h4v168H0zm124 0h4v168h-4z" id="path5-0" /><path transform="rotate(-90)" fill-opacity=".294" stroke-width="7.542" stroke-miterlimit="10" d="M-32 4h4v120h-4zm-28 0h4v120h-4zm-28 0h4v120h-4zm-28 0h4v120h-4zm-28 0h4v120h-4z" id="path6-0" /></pattern></defs><g id="g11" transform="translate(-12.571563,-13.121565)"><path d="M 266.57061,38.521506 V 190.92116 H 37.971159 V 38.521506 Z" fill="url(#b)" id="path8-4" style="fill:url(#pattern1);stroke:#422002;stroke-width:0;stroke-dasharray:none;stroke-opacity:1" sodipodi:nodetypes="ccccc" /><path d="M 12.571196,13.121565 H 224.23744 l -6e-5,143.933005 H 12.57122 Z" fill="url(#b)" id="path8" style="stroke-width:1.47285;stroke-dasharray:none" sodipodi:nodetypes="ccccc" /><path style="fill:#381a06;fill-opacity:0.49;stroke:#1a1a1e;stroke-width:0;stroke-linecap:square;stroke-dasharray:none;stroke-opacity:1;paint-order:fill markers stroke" d="M 21.037919,97.788033 H 12.57123 l -10e-6,59.266537 h 50.799879 v -8.46665 l -42.33318,4e-5 z" id="path10-6" sodipodi:nodetypes="ccccccc" /><path style="fill:#381a06;fill-opacity:0.490196;stroke:#381a06;stroke-width:0;stroke-linecap:square;stroke-dasharray:none;stroke-opacity:0.490196;paint-order:fill markers stroke" d="m 164.97086,13.121565 v 8.466649 h 50.79988 v 50.79988 l 8.46664,1e-6 6e-5,-59.26653 z" id="path63" sodipodi:nodetypes="ccccccc" /><path style="fill:#381a06;fill-opacity:0.490196;stroke:#381a06;stroke-width:0;stroke-linecap:square;stroke-dasharray:none;stroke-opacity:0.490196;paint-order:fill markers stroke" d="m 164.97086,157.05455 v -8.46665 l 50.79987,2e-5 v -42.33324 h 8.46665 v 50.79987 z" id="path63-5" sodipodi:nodetypes="ccccccc" /><path id="rect64" style="fill:#381a06;fill-opacity:0.490196;stroke:#381a06;stroke-width:0;stroke-linecap:square;stroke-opacity:0.490196;paint-order:fill markers stroke" d="m 97.237686,148.58792 h 42.333234 l -0.002,8.46665 H 97.237686 Z" sodipodi:nodetypes="ccccc" /><path style="fill:#381a06;fill-opacity:0.490196;stroke:#381a06;stroke-width:0;stroke-linecap:square;stroke-dasharray:none;stroke-opacity:0.490196;paint-order:fill markers stroke" d="m 12.57123,72.388092 h 8.466691 v -50.79988 h 76.199798 l -2e-6,84.666508 h 8.466643 V 21.588215 l 33.86656,-3e-6 V 13.121565 H 12.57122 Z" id="path64" sodipodi:nodetypes="ccccccccccc" /><rect style="fill:#5e2d03;fill-opacity:1;stroke:#422002;stroke-width:1.05833;stroke-linecap:square;stroke-dasharray:none;stroke-opacity:1;paint-order:fill markers stroke" id="rect12" width="7.4083166" height="29.633265" x="30.033678" y="157.58372" /><rect style="fill:#5e2d03;fill-opacity:1;stroke:#422002;stroke-width:1.05833;stroke-linecap:square;stroke-dasharray:none;stroke-opacity:1;paint-order:fill markers stroke" id="rect12-7" width="7.4083171" height="232.83279" x="-194.62531" y="30.033678" transform="rotate(-90)" /><rect style="fill:#5e2d03;fill-opacity:1;stroke:#422002;stroke-width:1.05833;stroke-linecap:square;stroke-dasharray:none;stroke-opacity:1;paint-order:fill markers stroke" id="rect13" width="7.4083166" height="156.63297" x="262.86646" y="37.99234" /><rect style="fill:#5e2d03;fill-opacity:1;stroke:#422002;stroke-width:1.05833;stroke-linecap:square;stroke-dasharray:none;stroke-opacity:1;paint-order:fill markers stroke" id="rect14" width="45.508228" height="7.4083166" x="224.76656" y="30.584024" /><g id="g131" style="fill:#451810" transform="matrix(0,-0.9999964,0.9999964,0,-61.809557,197.01703)"><path d="m 93.386,199.749 a 0.507,0.507 0 0 0 -0.507,-0.507 h -2.366 v -1.982 h 2.366 a 0.507,0.507 0 1 0 0,-1.014 h -2.366 v -1.982 h 2.366 a 0.507,0.507 0 1 0 0,-1.014 h -2.366 v -1.982 h 2.366 a 0.507,0.507 0 1 0 0,-1.014 h -2.366 v -1.983 h 2.366 a 0.507,0.507 0 1 0 0,-1.013 h -2.366 v -1.983 h 2.366 a 0.507,0.507 0 0 0 0,-1.014 h -2.366 v -1.982 h 2.366 a 0.507,0.507 0 0 0 0,-1.014 h -2.366 v -1.982 h 2.366 a 0.507,0.507 0 0 0 0,-1.014 h -2.366 v -1.982 h 2.366 a 0.507,0.507 0 0 0 0,-1.014 h -2.366 v -1.983 h 2.366 a 0.507,0.507 0 0 0 0,-1.013 H 50.436 a 0.507,0.507 0 0 0 0,1.013 h 2.366 v 1.983 h -2.366 a 0.507,0.507 0 0 0 0,1.014 h 2.366 v 1.982 h -2.366 a 0.507,0.507 0 0 0 0,1.014 h 2.366 v 1.982 h -2.366 a 0.507,0.507 0 0 0 0,1.014 h 2.366 v 1.982 h -2.366 a 0.507,0.507 0 0 0 0,1.014 h 2.366 v 1.982 h -2.366 a 0.507,0.507 0 1 0 0,1.014 h 2.366 v 1.983 h -2.366 a 0.507,0.507 0 1 0 0,1.013 h 2.366 v 1.983 h -2.366 a 0.507,0.507 0 1 0 0,1.014 h 2.366 v 1.982 h -2.366 a 0.507,0.507 0 1 0 0,1.014 h 2.366 v 1.982 h -2.366 a 0.507,0.507 0 1 0 0,1.014 H 92.88 c 0.28,0 0.507,-0.227 0.507,-0.507 z" id="path127" inkscape:connector-curvature="0" /><path d="m 62.577,186.267 9.08,-6.57 9.081,6.57 -9.08,6.568 z m 9.08,-4.818 -6.657,4.818 6.659,4.816 6.659,-4.816 z m 7.077,11.347 v 1.26 h -1.26 a 0.456,0.456 0 0 0 0,0.912 h 1.26 v 1.26 a 0.456,0.456 0 0 0 0.912,0 v -1.26 h 1.26 a 0.456,0.456 0 0 0 0,-0.912 h -1.26 v -1.26 a 0.456,0.456 0 0 0 -0.912,0 z m -14.878,3.432 v -1.26 h 1.26 a 0.456,0.456 0 0 0 0,-0.912 h -1.26 v -1.26 a 0.456,0.456 0 0 0 -0.912,0 v 1.26 h -1.26 a 0.456,0.456 0 0 0 0,0.912 h 1.26 v 1.26 a 0.456,0.456 0 0 0 0.912,0 z m 15.79,-16.979 v -1.26 h 1.26 a 0.456,0.456 0 0 0 0,-0.912 h -1.26 v -1.26 a 0.456,0.456 0 0 0 -0.912,0 v 1.26 h -1.26 a 0.456,0.456 0 0 0 0,0.912 h 1.26 v 1.26 a 0.456,0.456 0 0 0 0.912,0 z m -15.79,0 v -1.26 h 1.26 a 0.456,0.456 0 0 0 0,-0.912 h -1.26 v -1.26 a 0.456,0.456 0 0 0 -0.912,0 v 1.26 h -1.26 a 0.456,0.456 0 0 0 0,0.912 h 1.26 v 1.26 a 0.456,0.456 0 0 0 0.912,0 z" id="path129" inkscape:connector-curvature="0" /></g><g id="g137" style="fill:#70291b" transform="matrix(0,-0.9999964,0.9999964,0,-61.809557,197.01703)"><path d="M 85.185,200.256 H 58.13 l -2.027,-3.499 2.027,-3.497 -2.027,-3.497 2.027,-3.498 -2.027,-3.497 2.027,-3.497 -2.027,-3.498 2.027,-3.496 h 27.055 l 2.027,3.497 -2.027,3.498 2.027,3.498 -2.027,3.497 2.027,3.498 -2.027,3.497 2.027,3.496 z m -13.527,-8.298 7.87,-5.692 -7.87,-5.693 -7.87,5.693 z" id="path133" inkscape:connector-curvature="0" /><path d="m 72.182,188.028 v -1.26 h 1.26 a 0.456,0.456 0 0 0 0,-0.912 h -1.26 v -1.26 a 0.456,0.456 0 0 0 -0.912,0 v 1.26 h -1.26 a 0.456,0.456 0 0 0 0,0.912 h 1.26 v 1.26 a 0.456,0.456 0 0 0 0.912,0 z" id="path135" inkscape:connector-curvature="0" /></g></g></svg>
