<?xml version="1.0" encoding="UTF-8" standalone="no"?>
<svg
   width="256"
   height="256"
   version="1.1"
   id="svg4"
   xmlns="http://www.w3.org/2000/svg"
   xmlns:svg="http://www.w3.org/2000/svg"
   xmlns:rdf="http://www.w3.org/1999/02/22-rdf-syntax-ns#"
   xmlns:cc="http://creativecommons.org/ns#"
   xmlns:dc="http://purl.org/dc/elements/1.1/">
  <metadata
     id="metadata10">
    <rdf:RDF>
      <cc:Work
         rdf:about="">
        <dc:format>image/svg+xml</dc:format>
        <dc:type
           rdf:resource="http://purl.org/dc/dcmitype/StillImage" />
      </cc:Work>
    </rdf:RDF>
  </metadata>
  <defs
     id="defs8">
    <filter
       id="a"
       x="-0.033075581"
       width="1.0661512"
       y="-0.029390576"
       height="1.0587812"
       color-interpolation-filters="sRGB">
      <feGaussianBlur
         stdDeviation="2.2999999999999998 2.2999999999999998"
         id="feGaussianBlur1" />
    </filter>
  </defs>
  <path
     style="fill:#000000;fill-opacity:1;stroke:none;stroke-width:1px;stroke-linecap:butt;stroke-linejoin:miter;stroke-opacity:1;filter:url(#a)"
     d="m 112.21912,86.251746 c 0,0 -3.97977,-68.731746 15.87807,-68.731746 19.85784,0 15.85399,68.732856 15.85399,68.732856 l 17.55533,9.459 c 0,0 0.35511,-5.97309 7.96432,-4.46023 7.6092,1.51286 5.48078,11.702834 5.48078,11.702834 l 2.50912,1.35526 c 0,0 0.10188,-4.05571 7.48292,-3.93049 7.38104,0.12523 5.92549,11.15531 5.92549,11.15531 l 17.84769,9.61981 c 0,0 2.51549,1.09056 2.63269,4.41018 0.11721,3.31963 0.0925,8.8034 0.0925,8.8034 0,0 0.19709,2.6562 -2.4887,4.55763 -2.6858,1.90143 -49.42176,-12.5966 -49.42176,-12.5966 l -15.99688,-0.17026 -3.32987,46.0218 24.78052,20.67603 c 0,0 2.63561,2.9558 1.57454,8.48955 -1.06106,5.53375 -5.22771,3.67792 -5.22771,3.67792 l -23.18311,-8.25288 -3.6339,-0.18008 c 0,0 -2.23725,5.43535 -6.00025,5.43535 -3.76301,0 -6.86644,-5.4235 -6.86644,-5.4235 l -3.64927,0.17619 -23.132911,8.23381 c 0,0 -4.37623,2.12994 -5.42499,-4.55923 -1.04877,-6.68917 4.06299,-9.54135 4.06299,-9.54135 l 22.460451,-18.73699 -3.3295,-46.01403 -16.486881,0.008 -46.17484,12.8954 c 0,0 -5.66201,1.71764 -5.41062,-5.91996 0.25138,-7.6376 -0.396,-9.0912 1.96682,-11.32936 2.36282,-2.23838 18.75718,-10.28028 18.75718,-10.28028 0,0 -2.42183,-10.4472 4.8419,-11.0464 7.26374,-0.599204 8.58189,3.81769 8.58189,3.81769 l 2.49949,-1.34932 c 0,0 -2.25841,-11.849564 5.80572,-11.771074 8.06414,0.0785 7.65161,4.52476 7.65161,4.52476 z"
     id="path3" />
</svg>
