<?xml version="1.0" encoding="UTF-8" standalone="no"?>
<svg
   width="140"
   height="102"
   viewBox="0 0 37.042 26.988"
   version="1.1"
   id="svg11"
   sodipodi:docname="map-case-hatchet-01.svg"
   inkscape:version="1.4 (e7c3feb1, 2024-10-09)"
   xmlns:inkscape="http://www.inkscape.org/namespaces/inkscape"
   xmlns:sodipodi="http://sodipodi.sourceforge.net/DTD/sodipodi-0.dtd"
   xmlns="http://www.w3.org/2000/svg"
   xmlns:svg="http://www.w3.org/2000/svg">
  <sodipodi:namedview
     id="namedview11"
     pagecolor="#ffffff"
     bordercolor="#000000"
     borderopacity="0.25"
     inkscape:showpageshadow="2"
     inkscape:pageopacity="0.0"
     inkscape:pagecheckerboard="0"
     inkscape:deskcolor="#d1d1d1"
     inkscape:zoom="2.282796"
     inkscape:cx="61.328302"
     inkscape:cy="94.620809"
     inkscape:window-width="1464"
     inkscape:window-height="921"
     inkscape:window-x="49"
     inkscape:window-y="33"
     inkscape:window-maximized="1"
     inkscape:current-layer="svg11" />
  <defs
     id="defs1">
    <clipPath
       id="a">
      <rect
         ry="2.117"
         height="26.988"
         width="37.042"
         rx="2.117"
         fill="#282828"
         stroke-width="5.608"
         id="rect1" />
    </clipPath>
    <clipPath
       id="b">
      <path
         d="M-45.534 209.35l29.33 16.933v33.867l-29.33 16.933-29.33-16.933v-33.867z"
         fill-opacity=".506"
         stroke="#fff"
         stroke-width="2.117"
         stroke-opacity=".502"
         id="path1" />
    </clipPath>
  </defs>
  <rect
     rx="2.117"
     width="37.042"
     height="26.988"
     ry="2.117"
     clip-path="url(#a)"
     fill="#282828"
     stroke-width="3.175"
     stroke="#191919"
     id="rect2" />
  <rect
     width="2.117"
     height="30.692"
     x="2.646"
     y="-33.867"
     ry="1.058"
     transform="rotate(90)"
     rx="1.058"
     fill="#5b5b5b"
     stroke="#191919"
     stroke-width="1.058"
     id="rect3" />
  <rect
     rx="1.058"
     transform="rotate(90)"
     ry="1.058"
     y="-33.867"
     x="22.225"
     height="30.692"
     width="2.117"
     fill="#5b5b5b"
     stroke="#191919"
     stroke-width="1.058"
     id="rect4" />
  <rect
     width="2.117"
     height="4.763"
     x="17.463"
     y="-7.937"
     ry="1.058"
     transform="rotate(90)"
     rx="1.058"
     fill="#5b5b5b"
     stroke="#191919"
     stroke-width="1.058"
     id="rect5" />
  <rect
     rx="1.058"
     transform="rotate(90)"
     ry="1.058"
     y="-7.937"
     x="12.435"
     height="4.763"
     width="2.117"
     fill="#5b5b5b"
     stroke="#191919"
     stroke-width="1.058"
     id="rect6" />
  <rect
     width="2.117"
     height="4.763"
     x="7.408"
     y="-7.937"
     ry="1.058"
     transform="rotate(90)"
     rx="1.058"
     fill="#5b5b5b"
     stroke="#191919"
     stroke-width="1.058"
     id="rect7" />
  <rect
     rx="1.058"
     transform="rotate(90)"
     ry="1.058"
     y="-33.867"
     x="17.463"
     height="4.763"
     width="2.117"
     fill="#5b5b5b"
     stroke="#191919"
     stroke-width="1.058"
     id="rect8" />
  <rect
     width="2.117"
     height="4.763"
     x="12.435"
     y="-33.867"
     ry="1.058"
     transform="rotate(90)"
     rx="1.058"
     fill="#5b5b5b"
     stroke="#191919"
     stroke-width="1.058"
     id="rect9" />
  <rect
     rx="1.058"
     transform="rotate(90)"
     ry="1.058"
     y="-33.867"
     x="7.408"
     height="4.763"
     width="2.117"
     fill="#5b5b5b"
     stroke="#191919"
     stroke-width="1.058"
     id="rect10" />
  <path
     transform="scale(-.24356) rotate(30 496.442 36.98)"
     d="M-45.534 209.35l29.33 16.933v33.867l-29.33 16.933-29.33-16.933v-33.867z"
     clip-path="url(#b)"
     fill-opacity=".283"
     stroke="#fff"
     stroke-width="4.011"
     id="path10" />
  <circle
     style="fill:#f5f5f5;stroke-width:1.59414;stroke-linecap:square;stroke-linejoin:round"
     id="path12"
     cx="18.521"
     cy="13.494"
     r="4.8750381" />
  <g
     id="g1395-7"
     transform="matrix(0.38888571,0,0,0.38625325,10.28965,5.3183708)"
     style="stroke-width:2.58025">
    <path
       id="path1065-9"
       transform="scale(0.26458125)"
       d="M 80,44.222656 A 35.778002,35.778002 0 0 0 44.464844,76 H 53.59375 L 65.642578,55.130859 H 89.738281 L 94.28125,47.263672 A 35.778002,35.778002 0 0 0 80,44.222656 Z m 21.21289,7.03711 -4.544921,7.873046 L 106.40625,76 h 9.10352 A 35.778002,35.778002 0 0 0 101.21289,51.259766 Z M 44.490234,84 a 35.778002,35.778002 0 0 0 14.296875,24.74023 L 63.332031,100.86719 53.59375,84 Z m 61.916016,0 -12.048828,20.86914 H 70.261719 l -4.542969,7.86719 A 35.778002,35.778002 0 0 0 80,115.77734 35.778002,35.778002 0 0 0 115.53516,84 Z"
       style="fill:#1d1d1d;fill-opacity:1;stroke:none;stroke-width:7.21712;stroke-linecap:round;stroke-linejoin:round;stroke-miterlimit:4;stroke-dasharray:none;stroke-opacity:0.705882;paint-order:normal" />
    <path
       inkscape:connector-curvature="0"
       id="path1083-3"
       d="m 23.990078,16.275919 -5.647189,-1.9e-5 -2.823578,4.890581 2.823611,4.8906 5.647189,1.9e-5 2.823578,-4.890581 z m -0.764805,1.324682 1.176528,2.037365 -1.176663,2.038041 -2.352675,-2.21e-4 -1.176527,-2.037365 1.176663,-2.038041 z"
       style="fill:#1d1d1d;fill-opacity:1;stroke:none;stroke-width:6.53863;stroke-linecap:butt;stroke-linejoin:round;stroke-miterlimit:4;stroke-dasharray:none;stroke-opacity:1;paint-order:normal" />
  </g>
</svg>
