<?xml version="1.0" encoding="UTF-8" standalone="no"?>
<!-- Created with Inkscape (http://www.inkscape.org/) -->

<svg
   width="512"
   height="512"
   viewBox="0 0 135.46666 135.46667"
   version="1.1"
   id="svg10588"
   inkscape:version="1.4 (e7c3feb1, 2024-10-09)"
   sodipodi:docname="map-tree-14.svg"
   xmlns:inkscape="http://www.inkscape.org/namespaces/inkscape"
   xmlns:sodipodi="http://sodipodi.sourceforge.net/DTD/sodipodi-0.dtd"
   xmlns="http://www.w3.org/2000/svg"
   xmlns:svg="http://www.w3.org/2000/svg"
   xmlns:rdf="http://www.w3.org/1999/02/22-rdf-syntax-ns#"
   xmlns:cc="http://creativecommons.org/ns#"
   xmlns:dc="http://purl.org/dc/elements/1.1/">
  <defs
     id="defs10582">
    <clipPath
       clipPathUnits="userSpaceOnUse"
       id="clipPath7">
      <path
         id="path8"
         style="fill:#ffffff;fill-opacity:1;stroke:#474747;stroke-width:0;stroke-dasharray:none"
         d="m 33.968468,0.19223633 v 0.0490926 l -0.968415,0.75861004 0.02992,2.48856923 -2.029638,-1.4888416 -2.000396,2.0003947 c 0.825239,0.6328073 2.305896,2.0746537 3.167965,2.0746537 L 28,5.0000003 26.000122,6.9998783 c 0.995368,1.6610436 3.581575,2.5231125 5.305713,2.5231125 L 26.000122,8.999756 25.000183,10.999634 c 1.133238,1.109564 2.857376,1.971633 5.443583,2.833702 l -5.443583,-0.833307 v 1.999878 c 1.133238,1.419635 4.581514,3.143773 6.305652,3.143773 l -6.305652,-1.143895 v 1.999878 c 2.151415,0.82567 4.581514,1.730224 6.305652,2.592293 l -5.305675,-0.592107 3.483413,2.939812 2.453256,3.081264 L 33,26.999999 l -2.743514,-0.731076 3.025719,3.731313 h 0.717788 0.717785 l 4.282223,-4.000237 -4,1 v -1 l 6.685242,-1.972937 0.3148,-3.027242 -5.521794,0.592136 c 1.724138,-0.862069 4.560053,-1.941237 6.521752,-2.592322 V 16.999756 L 35.61618,18.14368 c 1.724138,0 6.034483,-1.724138 7.383821,-3.143802 V 13 l -5.659683,0.833336 c 2.586207,-0.862069 4.003141,-2.003823 5.659683,-2.833731 L 42.000062,8.9997272 36.478249,9.5229908 c 1.724138,0 4.310345,-0.8620689 5.521813,-2.5231416 L 40.000185,4.9999712 35.61618,6.074715 c 0.862069,0 2.440428,-1.463711 3.384065,-2.0746828 L 36.999852,1.9996376 34.754111,3.4885082 34.99993,0.99993897 34.031515,0.24132894 v -0.0490926 l -0.03152,0.0248047 z"
         sodipodi:nodetypes="ccccccccccccccccccccccccccccccccccccccccccccccccccccc" />
    </clipPath>
  </defs>
  <sodipodi:namedview
     id="base"
     pagecolor="#ffffff"
     bordercolor="#666666"
     borderopacity="1.0"
     inkscape:pageopacity="0.0"
     inkscape:pageshadow="2"
     inkscape:zoom="0.61681856"
     inkscape:cx="229.40295"
     inkscape:cy="386.66152"
     inkscape:document-units="px"
     inkscape:current-layer="svg10588"
     showgrid="true"
     units="px"
     inkscape:window-width="1104"
     inkscape:window-height="602"
     inkscape:window-x="52"
     inkscape:window-y="34"
     inkscape:window-maximized="0"
     inkscape:showpageshadow="2"
     inkscape:pagecheckerboard="0"
     inkscape:deskcolor="#d1d1d1"
     showguides="false">
    <inkscape:grid
       type="xygrid"
       id="grid11143"
       originx="0"
       originy="0"
       spacingy="1"
       spacingx="1"
       units="px" />
  </sodipodi:namedview>
  <metadata
     id="metadata10585">
    <rdf:RDF>
      <cc:Work
         rdf:about="">
        <dc:format>image/svg+xml</dc:format>
        <dc:type
           rdf:resource="http://purl.org/dc/dcmitype/StillImage" />
      </cc:Work>
    </rdf:RDF>
  </metadata>
  <g
     id="g22"
     transform="matrix(2,0,0,2,-0.529168,2e-7)"
     style="display:inline">
    <path
       style="fill:#4c6339;fill-opacity:0.94;stroke:#474747;stroke-width:0;stroke-dasharray:none"
       d="M 33.999999,0.99999925 C 36.000001,2 40.851575,6.7886615 41.549331,10.999998 42.649914,17.642612 34.69219,29.999999 34.69219,29.999999 l -0.692191,-10e-7 -0.717938,10e-7 c 0,0 -8.382641,-12.357387 -7.28206,-19.000001 0.697755,-4.2113363 6,-8.999998 7.999998,-9.99999875 z"
       id="path16"
       sodipodi:nodetypes="cscccsc"
       clip-path="url(#clipPath7)"
       transform="matrix(0.89302124,0,0,1.16,3.7741937,-0.62275143)" />
    <path
       style="fill:#4c6339;fill-opacity:0.94;stroke:#474747;stroke-width:0;stroke-dasharray:none"
       d="M 33.999999,0.99999925 C 36.000001,2 40.851575,6.7886615 41.549331,10.999998 42.649914,17.642612 34.69219,29.999999 34.69219,29.999999 l -0.692191,-10e-7 -0.717938,10e-7 c 0,0 -8.382641,-12.357387 -7.28206,-19.000001 0.697755,-4.2113363 6,-8.999998 7.999998,-9.99999875 z"
       id="path4"
       sodipodi:nodetypes="cscccsc"
       clip-path="url(#clipPath7)"
       transform="matrix(-0.44651062,-0.77337908,1.0045895,-0.58,19.377695,77.349127)" />
    <path
       style="fill:#4c6339;fill-opacity:0.94;stroke:#474747;stroke-width:0;stroke-dasharray:none"
       d="M 33.999999,0.99999925 C 36.000001,2 40.851575,6.7886615 41.549331,10.999998 42.649914,17.642612 34.69219,29.999999 34.69219,29.999999 l -0.692191,-10e-7 -0.717938,10e-7 c 0,0 -8.382641,-12.357387 -7.28206,-19.000001 0.697755,-4.2113363 6,-8.999998 7.999998,-9.99999875 z"
       id="path5"
       sodipodi:nodetypes="cscccsc"
       clip-path="url(#clipPath7)"
       transform="matrix(0.44651062,-0.77337908,-1.0045895,-0.58,48.884805,77.369329)" />
    <path
       style="fill:#4c6339;fill-opacity:0.94;stroke:#474747;stroke-width:0;stroke-dasharray:none"
       d="M 33.999999,0.99999925 C 36.000001,2 40.851575,6.7886615 41.549331,10.999998 42.649914,17.642612 34.69219,29.999999 34.69219,29.999999 l -0.692191,-10e-7 -0.717938,10e-7 c 0,0 -8.382641,-12.357387 -7.28206,-19.000001 0.697755,-4.2113363 6,-8.999998 7.999998,-9.99999875 z"
       id="path19"
       sodipodi:nodetypes="cscccsc"
       clip-path="url(#clipPath7)"
       transform="matrix(0.89302124,0,0,-1.16,3.7741937,68.356084)" />
    <path
       style="fill:#4c6339;fill-opacity:0.94;stroke:#474747;stroke-width:0;stroke-dasharray:none"
       d="M 33.999999,0.99999925 C 36.000001,2 40.851575,6.7886615 41.549331,10.999998 42.649914,17.642612 34.69219,29.999999 34.69219,29.999999 l -0.692191,-10e-7 -0.717938,10e-7 c 0,0 -8.382641,-12.357387 -7.28206,-19.000001 0.697755,-4.2113363 6,-8.999998 7.999998,-9.99999875 z"
       id="path20"
       sodipodi:nodetypes="cscccsc"
       clip-path="url(#clipPath7)"
       transform="matrix(-0.44651062,0.77337908,1.0045895,0.58,19.377695,-9.615794)" />
    <path
       style="fill:#4c6339;fill-opacity:0.94;stroke:#474747;stroke-width:0;stroke-dasharray:none"
       d="M 33.999999,0.99999925 C 36.000001,2 40.851575,6.7886615 41.549331,10.999998 42.649914,17.642612 34.69219,29.999999 34.69219,29.999999 l -0.692191,-10e-7 -0.717938,10e-7 c 0,0 -8.382641,-12.357387 -7.28206,-19.000001 0.697755,-4.2113363 6,-8.999998 7.999998,-9.99999875 z"
       id="path21"
       sodipodi:nodetypes="cscccsc"
       clip-path="url(#clipPath7)"
       transform="matrix(0.44651062,0.77337908,-1.0045895,0.58,48.884805,-9.635996)" />
  </g>
  <path
     sodipodi:type="star"
     style="display:inline;fill:#796343;fill-opacity:1;stroke:#1b1917;stroke-width:0.643584;stroke-miterlimit:4;stroke-dasharray:none;stroke-opacity:1"
     id="path13"
     sodipodi:sides="10"
     sodipodi:cx="22.346678"
     sodipodi:cy="274.63733"
     sodipodi:r1="2.9285607"
     sodipodi:r2="2.7180381"
     sodipodi:arg1="0.54205612"
     sodipodi:arg2="0.83360106"
     inkscape:flatsided="false"
     inkscape:rounded="0.22"
     inkscape:randomized="0"
     d="m 24.855429,276.14817 c -0.09242,0.16162 -0.541019,0.37948 -0.681648,0.50148 -0.160999,0.13967 -0.49118,0.59708 -0.685531,0.68458 -0.169761,0.0764 -0.660745,-0.011 -0.846225,0.005 -0.212348,0.0184 -0.74833,0.19435 -0.956995,0.1509 -0.182264,-0.0379 -0.528089,-0.39728 -0.687574,-0.49332 -0.182587,-0.10996 -0.719643,-0.28263 -0.862919,-0.44043 -0.125148,-0.13784 -0.193722,-0.63181 -0.266293,-0.80325 -0.08308,-0.19628 -0.416077,-0.65165 -0.439238,-0.86353 -0.02023,-0.18507 0.214641,-0.62501 0.256703,-0.80637 0.04816,-0.20762 0.04642,-0.77175 0.152218,-0.95678 0.09241,-0.16162 0.541018,-0.37948 0.681647,-0.50148 0.160999,-0.13967 0.49118,-0.59708 0.685531,-0.68458 0.169761,-0.0764 0.660745,0.011 0.846226,-0.005 0.212347,-0.0184 0.74833,-0.19435 0.956994,-0.1509 0.182264,0.0379 0.52809,0.39727 0.687575,0.49332 0.182586,0.10996 0.719643,0.28263 0.862919,0.44043 0.125148,0.13783 0.193722,0.6318 0.266293,0.80325 0.08308,0.19628 0.416077,0.65165 0.439237,0.86353 0.02023,0.18507 -0.214641,0.62501 -0.256703,0.80636 -0.04815,0.20763 -0.04642,0.77176 -0.152217,0.95679 z"
     inkscape:transform-center-x="0.011330118"
     inkscape:transform-center-y="-0.017069609"
     transform="matrix(4.0923426,0,0,4.1478108,-23.71693,-1071.4104)" />
</svg>
