<?xml version="1.0" encoding="UTF-8" standalone="no"?>
<svg
   width="416"
   height="416"
   viewBox="0 0 110.067 110.067"
   version="1.1"
   id="svg8"
   sodipodi:docname="map-statue-04.svg"
   inkscape:version="1.4 (e7c3feb1, 2024-10-09)"
   xmlns:inkscape="http://www.inkscape.org/namespaces/inkscape"
   xmlns:sodipodi="http://sodipodi.sourceforge.net/DTD/sodipodi-0.dtd"
   xmlns="http://www.w3.org/2000/svg"
   xmlns:svg="http://www.w3.org/2000/svg"
   xmlns:rdf="http://www.w3.org/1999/02/22-rdf-syntax-ns#"
   xmlns:cc="http://creativecommons.org/ns#"
   xmlns:dc="http://purl.org/dc/elements/1.1/">
  <metadata
     id="metadata14">
    <rdf:RDF>
      <cc:Work
         rdf:about="">
        <dc:format>image/svg+xml</dc:format>
        <dc:type
           rdf:resource="http://purl.org/dc/dcmitype/StillImage" />
        <dc:title />
      </cc:Work>
    </rdf:RDF>
  </metadata>
  <defs
     id="defs12">
    <clipPath
       id="b">
      <path
         style="fill:#252525;fill-opacity:0.60100002;stroke-width:12.5369997"
         inkscape:connector-curvature="0"
         d="m 188,128 c 0,80 -69.756,119.362 -69.756,119.362 C 64,244 8.638,193.922 8.638,128 8.638,62.078 64,12 118.244,8.638 118.244,8.638 188,48 188,128 Z"
         id="path5" />
    </clipPath>
  </defs>
  <sodipodi:namedview
     pagecolor="#ffffff"
     bordercolor="#666666"
     borderopacity="1"
     objecttolerance="10"
     gridtolerance="10"
     guidetolerance="10"
     inkscape:pageopacity="0"
     inkscape:pageshadow="2"
     inkscape:window-width="1920"
     inkscape:window-height="1021"
     id="namedview10"
     showgrid="true"
     inkscape:zoom="3.5777553"
     inkscape:cx="401.50874"
     inkscape:cy="206.27459"
     inkscape:window-x="1512"
     inkscape:window-y="31"
     inkscape:window-maximized="1"
     inkscape:current-layer="svg8"
     inkscape:showpageshadow="2"
     inkscape:pagecheckerboard="0"
     inkscape:deskcolor="#d1d1d1">
    <inkscape:grid
       type="xygrid"
       id="grid817"
       empspacing="4"
       spacingy="0.52916827"
       spacingx="0.52916827"
       originx="0"
       originy="0"
       units="px" />
  </sodipodi:namedview>
  <path
     style="fill:#2d2d2d;stroke:#191919;stroke-width:2.1170001;stroke-opacity:1"
     clip-path="none"
     d="m 18.891001,18.891001 10.791908,0.133488 3.05654,2.142242 5.360666,-2.116673 27.51675,0 2.116674,2.116673 2.942803,-2.116673 20.498655,-0.159057 -0.158055,14.975768 -2.116673,2.116673 2.116673,3.704178 v 32.279265 l -2.116673,4.233346 2.116673,2.116673 L 91.175,91.174997 76.200231,91.016942 71.966885,88.900269 63.500192,91.016942 H 33.337601 l -2.645841,-2.116673 -1.587505,2.116673 -10.213254,0.158055 0.159057,-12.858093 2.116673,-4.233346 -2.116673,-2.116673 V 52.916827 l 2.116673,-2.116673 -2.116673,-4.233346 z"
     id="rect2"
     inkscape:connector-curvature="0"
     sodipodi:nodetypes="ccccccccccccccccccccccccccccc" />
  <path
     d="m 30.687473,30.8535 h 48.36 l 0.323481,16.609905 -2.116674,2.116673 2.116674,3.083892 -0.323481,26.549531 H 55.558381 l -1.587504,-1.587504 -3.17501,1.587504 H 30.687473 V 39.320193 l 2.116673,-2.116673 -2.116673,-3.33133 z"
     id="path4"
     inkscape:connector-curvature="0"
     style="fill:#404040;stroke:#191919;stroke-width:2.1170001"
     sodipodi:nodetypes="cccccccccccccc" />
  <path
     d="M91.017 19.05l-12.7 12.7M91.017 91.017l-12.7-12.7M19.05 91.017l12.7-12.7M19.05 19.05l12.7 12.7"
     fill="none"
     stroke="#191919"
     stroke-width="2.117"
     id="path6" />
  <circle
     style="fill:#000000;fill-opacity:0.28282827;stroke:none;stroke-width:3.17500949;stroke-miterlimit:4;stroke-dasharray:none;stroke-opacity:1"
     id="path821"
     cx="55.033501"
     cy="55.033501"
     r="11.707346" />
  <g
     id="g1"
     transform="translate(-37.04178)">
    <path
       style="fill:#272727;fill-opacity:1;stroke:none;stroke-width:1.32292;stroke-linecap:round;stroke-opacity:1"
       d="m 130.70329,54.200038 v 2.540008 h 7.93752 l -0.54776,-1.749461 0.34932,-0.790547 z"
       id="path1"
       sodipodi:nodetypes="cccccc" />
    <path
       style="fill:#272727;fill-opacity:1;stroke:none;stroke-width:0.999999px;stroke-linecap:butt;stroke-linejoin:miter;stroke-opacity:1"
       d="m 130.70336,53.279329 v 4.381514 l -0.8763,0.876303 h -5.25782 l -2.62891,0.657226 h -14.89714 l -1.75261,-0.438151 v -6.57227 l 1.75261,-0.438151 h 14.89714 l 2.62891,0.657227 h 5.25782 z"
       id="path33-4"
       sodipodi:nodetypes="ccccccccccccc" />
    <rect
       style="fill:#cfcfcf;fill-opacity:1;stroke:none;stroke-width:1.69334;stroke-linecap:round"
       id="rect2-1"
       width="4.6366673"
       height="3.6277633"
       x="-111.85911"
       y="53.65036"
       transform="scale(-1,1)" />
    <path
       style="fill:#cfcfcf;fill-opacity:1;stroke:none;stroke-width:1.69334;stroke-linecap:round"
       d="m 121.74178,57.446508 2.62027,-0.668546 h -2.62028 z"
       id="path6-6"
       sodipodi:nodetypes="cccc" />
    <rect
       style="fill:#cfcfcf;fill-opacity:1;stroke:none;stroke-width:1.69334;stroke-linecap:round"
       id="rect2-3"
       width="6.1585336"
       height="3.7681355"
       x="-119.75299"
       y="53.497684"
       transform="scale(-1,1)" />
    <rect
       style="fill:#cfcfcf;fill-opacity:1;stroke:none;stroke-width:1.69334;stroke-linecap:round"
       id="rect2-3-6"
       width="7.3085799"
       height="2.599196"
       x="-129.05119"
       y="54.18174"
       transform="scale(-1,1)" />
    <path
       style="fill:#272727;fill-opacity:1;stroke:none;stroke-width:0.264584px;stroke-linecap:butt;stroke-linejoin:miter;stroke-opacity:1"
       d="m 130.70336,53.936559 h 2.62891 v 3.067061 h -2.62891 z"
       id="path4-9"
       sodipodi:nodetypes="ccccc" />
    <path
       style="fill:#d9d9d9;fill-opacity:1;stroke:none;stroke-width:0.264584px;stroke-linecap:butt;stroke-linejoin:miter;stroke-opacity:1"
       d="m 119.74958,53.498406 v 2.84798 h -6.13412 v -2.84798 z"
       id="path39-1"
       sodipodi:nodetypes="ccccc" />
    <path
       style="fill:#272727;fill-opacity:1;stroke:none;stroke-width:0.264584px;stroke-linecap:butt;stroke-linejoin:miter;stroke-opacity:1"
       d="M 128.29352,54.155631 V 56.78454 H 127.6363 V 54.155631 Z"
       id="path13-2" />
    <path
       style="fill:#272727;fill-opacity:1;stroke:none;stroke-width:0.264584px;stroke-linecap:butt;stroke-linejoin:miter;stroke-opacity:1"
       d="m 126.97907,54.155631 v 2.628909 h -0.65722 v -2.628909 z"
       id="path13-7-0" />
    <path
       style="fill:#272727;fill-opacity:1;stroke:none;stroke-width:0.264584px;stroke-linecap:butt;stroke-linejoin:miter;stroke-opacity:1"
       d="m 125.66462,54.155631 v 2.628909 h -0.65723 v -2.628909 z"
       id="path13-8-4" />
    <path
       style="fill:#272727;fill-opacity:1;stroke:none;stroke-width:0.264584px;stroke-linecap:butt;stroke-linejoin:miter;stroke-opacity:1"
       d="m 124.35016,53.717478 v 3.505214 h -0.65722 v -3.505214 z"
       id="path13-4-4"
       sodipodi:nodetypes="ccccc" />
    <path
       style="fill:#272727;fill-opacity:1;stroke:none;stroke-width:0.264584px;stroke-linecap:butt;stroke-linejoin:miter;stroke-opacity:1"
       d="m 123.03571,53.498406 v 3.943359 h -0.65722 v -3.943359 z"
       id="path13-4-7-5"
       sodipodi:nodetypes="ccccc" />
    <path
       style="fill:#272727;fill-opacity:1;stroke:none;stroke-width:0.264584px;stroke-linecap:butt;stroke-linejoin:miter;stroke-opacity:1"
       d="m 105.29058,52.183956 -1.7526,0.876297 -8.763034,0.657225 -0.438156,0.438153 v 2.628909 l 0.438156,0.438152 8.763034,0.657225 1.7526,0.876306 z"
       id="path23-9"
       sodipodi:nodetypes="ccccccccc" />
    <path
       style="fill:#272727;fill-opacity:1;stroke:none;stroke-width:0.999999px;stroke-linecap:butt;stroke-linejoin:miter;stroke-opacity:1"
       d="M 119.74958,57.879916 V 60.7279 h -2.40983 v -2.847984 z"
       id="path31-7"
       sodipodi:nodetypes="ccccc" />
    <path
       style="fill:#272727;fill-opacity:1;stroke:none;stroke-width:0.264584px;stroke-linecap:butt;stroke-linejoin:miter;stroke-opacity:1"
       d="m 123.69294,53.498406 v 1.971684 h -1.97169 v 1.971675 h -1.97167 V 55.47009 h -1.97169 v -1.971684 z"
       id="path34-5"
       sodipodi:nodetypes="ccccccccc" />
    <circle
       style="fill:#272727;fill-opacity:1;fill-rule:evenodd;stroke:#333333;stroke-width:2.11667;stroke-dasharray:none;stroke-opacity:1"
       id="path36-3"
       cx="57.441769"
       cy="-109.45302"
       r="0.69281024"
       clip-path="none"
       transform="rotate(90)" />
    <circle
       style="fill:#cfcfcf;fill-opacity:1;fill-rule:evenodd;stroke-width:0.999999"
       id="circle38-9"
       cx="57.441769"
       cy="-109.45302"
       r="1.0089356"
       transform="rotate(90)" />
    <path
       style="fill:#272727;fill-opacity:1;stroke:none;stroke-width:0.264584px;stroke-linecap:butt;stroke-linejoin:miter;stroke-opacity:1"
       d="m 111.86285,57.441765 v -3.943358 h 1.75261 v 3.943358 z"
       id="path38-0"
       sodipodi:nodetypes="ccccc" />
    <circle
       style="fill:#272727;fill-opacity:1;fill-rule:evenodd;stroke-width:0.264584"
       id="path40-5"
       cx="57.441761"
       cy="-109.45303"
       r="0.65722698"
       transform="rotate(90)" />
    <rect
       style="fill:#272727;fill-opacity:1;stroke:none;stroke-width:2.11667;stroke-linejoin:round;stroke-miterlimit:10;stroke-dasharray:none;stroke-opacity:1"
       id="rect41-5"
       width="0.8763026"
       height="0.4381513"
       x="56.34639"
       y="-109.67209"
       transform="rotate(90)" />
    <rect
       style="fill:#272727;fill-opacity:1;stroke:none;stroke-width:2.11667;stroke-linejoin:round;stroke-miterlimit:10;stroke-dasharray:none;stroke-opacity:1"
       id="rect41-2-6"
       width="0.8763026"
       height="0.4381513"
       x="-91.951859"
       y="-84.032082"
       transform="rotate(165)" />
    <rect
       style="fill:#272727;fill-opacity:1;stroke:none;stroke-width:2.11667;stroke-linejoin:round;stroke-miterlimit:10;stroke-dasharray:none;stroke-opacity:1"
       id="rect41-2-9-3"
       width="0.8763026"
       height="0.4381513"
       x="-105.56792"
       y="65.849136"
       transform="rotate(-120)" />
    <rect
       style="fill:#272727;fill-opacity:1;stroke:none;stroke-width:2.11667;stroke-linejoin:round;stroke-miterlimit:10;stroke-dasharray:none;stroke-opacity:1"
       id="rect41-2-2-2"
       width="0.8763026"
       height="0.4381513"
       x="3.8850961"
       y="123.29091"
       transform="rotate(-60)" />
    <rect
       style="fill:#272727;fill-opacity:1;stroke:none;stroke-width:2.11667;stroke-linejoin:round;stroke-miterlimit:10;stroke-dasharray:none;stroke-opacity:1"
       id="rect41-2-0-6"
       width="0.8763026"
       height="0.4381513"
       x="119.49512"
       y="26.936886"
       transform="rotate(15)" />
  </g>
  <path
     sodipodi:nodetypes="csccssscccssssc"
     inkscape:connector-curvature="0"
     id="ellipse10"
     d="m 55.639813,39.824638 c 0.51948,0.03144 1.03179,0.0869 1.53593,0.165258 0.54714,0.08505 1.61123,0.33454 1.61123,0.33454 0,0 11.00587,6.905904 11.9764,13.312587 0.0758,0.500268 0.12867,1.007491 0.15762,1.520485 0.0357,0.633093 0.035,1.274975 -0.004,1.923423 -0.15266,2.526418 -0.87253,4.883546 -2.02814,6.954832 -0.27696,0.49642 -1.45604,0.978329 -1.45604,0.978329 l -7.48364,2.724375 -3.088,4.059567 c 0,0 -0.90864,0.558289 -1.38375,0.581686 -0.59433,0.02926 -1.19627,0.02633 -1.80397,-0.01045 C 44.69295,71.825837 37.853218,64.099927 38.396271,55.112975 38.939325,46.126021 46.659521,39.281199 55.639813,39.824638 Z"
     style="fill:#a0a0a0;stroke:#333333;stroke-width:2.7;stroke-miterlimit:10" />
  <ellipse
     id="ellipse14"
     stroke-miterlimit="10"
     ry="4.7919998"
     rx="4.7950001"
     transform="matrix(0.06031685,-0.99817928,0.99817507,0.06038654,0,0)"
     cy="71.753609"
     cx="-52.95105"
     style="fill:#7a7a7a;stroke:#333333;stroke-width:1.746;stroke-miterlimit:10" />
  <path
     sodipodi:nodetypes="sssccccsss"
     inkscape:connector-curvature="0"
     id="ellipse16"
     d="m 89.033486,56.621236 c 2.19824,0.132987 3.96047,1.728817 4.39816,3.783957 0.0883,0.414614 0.12269,0.847923 0.0959,1.291685 -0.0151,0.249389 -0.10012,0.730047 -0.10012,0.730047 l -3.17742,0.936315 -2.64585,-2.381259 -3.31497,2.194735 c 0,0 -0.20182,-0.589723 -0.25883,-0.901063 -0.0684,-0.373601 -0.0933,-0.761396 -0.0693,-1.157519 0.15973,-2.643384 2.43075,-4.656714 5.07247,-4.496898 z"
     style="fill:#7a7a7a;stroke:#333333;stroke-width:1.746;stroke-miterlimit:10" />
  <path
     id="path18"
     clip-path="url(#b)"
     d="m 188,128 c 0,80 -69.756,119.362 -69.756,119.362 C 64,244 8.638,193.922 8.638,128 8.638,62.078 64,12 118.244,8.638 118.244,8.638 188,48 188,128 Z"
     transform="matrix(0.14668,0,0,0.14668,33.181787,37.322268)"
     style="fill:#626262;stroke:#272727;stroke-width:36"
     inkscape:connector-curvature="0" />
  <path
     sodipodi:nodetypes="ccccccccccc"
     style="fill:#424242;stroke:#242424;stroke-width:1.21744"
     inkscape:connector-curvature="0"
     id="path20"
     d="m 55.279243,56.096589 -5.33269,1.785984 -0.0505,5.623508 -3.346443,-4.519746 -3.004834,-0.243725 0.905359,-2.646021 -3.264717,-4.579401 5.36404,1.689655 1.757832,-1.872588 1.639133,2.976349 z" />
  <path
     id="path22"
     d="m 47.248787,39.163269 c -7.937,3.704 -6.35,6.35 -6.35,6.35 h 7.407999 c 2.116997,5.292 6.349997,5.292 6.349997,5.292 0,0 4.234,0 6.35,-5.292 h 7.409 c 0,0 1.587,-2.646 -6.35,-6.35 -3.704,-1.974 -10.054,-1.974 -14.816996,0 z"
     style="fill:#d6d6d6;stroke:#515151;stroke-width:2.646;stroke-opacity:0.655"
     inkscape:connector-curvature="0" />
</svg>
