<?xml version="1.0" encoding="UTF-8" standalone="no"?>
<svg
   width="128"
   height="128"
   viewBox="0 0 33.867 33.867"
   version="1.1"
   id="svg2"
   sodipodi:docname="map-decal-caduceus.svg"
   inkscape:version="1.4 (e7c3feb1, 2024-10-09)"
   xmlns:inkscape="http://www.inkscape.org/namespaces/inkscape"
   xmlns:sodipodi="http://sodipodi.sourceforge.net/DTD/sodipodi-0.dtd"
   xmlns="http://www.w3.org/2000/svg"
   xmlns:svg="http://www.w3.org/2000/svg">
  <defs
     id="defs2" />
  <sodipodi:namedview
     id="namedview2"
     pagecolor="#ffffff"
     bordercolor="#000000"
     borderopacity="0.25"
     inkscape:showpageshadow="2"
     inkscape:pageopacity="0.0"
     inkscape:pagecheckerboard="0"
     inkscape:deskcolor="#d1d1d1"
     inkscape:zoom="2.88488"
     inkscape:cx="30.157234"
     inkscape:cy="70.020245"
     inkscape:window-width="1464"
     inkscape:window-height="921"
     inkscape:window-x="50"
     inkscape:window-y="33"
     inkscape:window-maximized="1"
     inkscape:current-layer="svg2" />
  <circle
     cx="16.933"
     cy="16.933"
     r="10.703"
     fill="#303030"
     fill-opacity=".565"
     id="circle1"
     style="fill:#4a4a4a;fill-opacity:0.565" />
  <path
     d="M26.692 7.456a13.604 13.604 0 0 0-8.247-4.035l-1.512-2.268-1.51 2.268A13.604 13.604 0 0 0 3.431 15.414l-2.279 1.52 2.267 1.511a13.604 13.604 0 0 0 11.995 11.991l1.518 2.278 1.512-2.267a13.604 13.604 0 0 0 11.99-11.995l2.279-1.519-2.268-1.51a13.604 13.604 0 0 0-3.754-7.967zM25.32 8.788a11.692 11.692 0 0 1 3.305 8.146 11.692 11.692 0 0 1-11.692 11.691 11.692 11.692 0 0 1-11.69-11.691 11.692 11.692 0 0 1 11.69-11.691 11.692 11.692 0 0 1 8.387 3.545z"
     fill="#474747"
     fill-opacity=".565"
     id="path1"
     style="fill:#616161;fill-opacity:0.565" />
  <path
     id="path1193"
     d="m 16.933461,8.196611 a 8.7368295,8.7448199 0 0 0 -8.7368317,8.74482 8.7368295,8.7448199 0 0 0 8.2808827,8.728964 v -1.960471 c -0.502775,0.215239 -0.815437,0.517698 -0.531438,0.994809 0.05591,0.09655 -0.02633,0.19822 -0.118814,0.193557 a 0.12441246,0.12452624 0 0 1 -0.09413,-0.02732 c -0.392573,-0.275639 -0.418664,-0.552671 -0.418664,-0.776538 0,-0.389671 0.202459,-0.721506 0.578257,-0.982453 l 0.007,-0.0044 c -0.312195,-0.114233 -0.60529,-0.262779 -0.845727,-0.452361 -0.0044,0.0044 -0.0096,0.0089 -0.014,0.01348 -0.33479,-0.266781 -0.575466,-0.631262 -0.575466,-1.103014 0,-0.562471 0.361128,-1.052874 0.980859,-1.363027 -0.280512,-0.101446 -0.425426,-0.170933 -0.615073,-0.284039 -0.840137,-0.502529 -0.965247,-1.15431 -0.965247,-1.498044 0.0018,-0.426044 0.09646,-0.830874 0.545183,-1.218447 0.234142,-0.208011 0.504404,-0.318544 0.743442,-0.331139 0.239275,-0.0126 0.447325,0.07271 0.558929,0.256055 0.204783,0.336498 0.0044,0.874476 -0.447794,1.201887 a 1.2772079,1.278376 0 0 1 -0.483675,0.219205 c 0.05552,0.179318 0.223942,0.361911 0.480916,0.516054 0.206193,0.123126 0.613445,0.264207 1.224555,0.465926 v -3.538508 a 0.99436765,0.99527706 0 0 1 -0.446859,-0.449594 c -0.155401,0.265838 -0.450355,0.454724 -0.78002,0.454724 -0.334104,0 -0.622303,-0.186083 -0.775838,-0.457994 -0.523512,0.52422 -1.496674,0.53425 -2.020415,0.01005 l 0.759053,-0.760215 -0.348078,0.14458 a 1.3408121,1.3420383 0 0 1 -1.75202,-0.726636 l 1.078707,-0.447267 c -1.045625,0 -1.52627,-0.656444 -1.52627,-1.342042 h 3.061857 c 0.600623,0 1.05075,0.26538 1.438426,0.653411 0.421235,0.42162 0.640707,1.359061 1.311458,1.359061 v -1.242932 a 0.88975875,0.89057249 0 0 1 -0.44686,-0.770474 0.8939531,0.89477067 0 1 1 1.787906,0 0.88999166,0.89080561 0 0 1 -0.446859,0.770474 v 1.242932 c 0.67076,0 0.889298,-0.937441 1.310523,-1.359061 0.387686,-0.388031 0.838737,-0.653411 1.439368,-0.653411 h 3.060688 c 0,0.685598 -0.480647,1.342042 -1.526033,1.342042 L 22.745,14.206522 a 1.3412781,1.3425048 0 0 1 -1.752268,0.726636 l -0.349002,-0.14458 0.75975,0.760215 c -0.523503,0.52422 -1.497141,0.514191 -2.020654,-0.01005 -0.153536,0.271911 -0.441268,0.457765 -0.775362,0.457765 -0.329665,0 -0.625085,-0.188428 -0.780488,-0.454495 a 0.99343576,0.99434432 0 0 1 -0.446392,0.449594 v 3.538508 c 0.610644,-0.201719 1.018133,-0.3428 1.224087,-0.465926 0.256975,-0.153905 0.425427,-0.336736 0.480876,-0.516059 a 1.2772079,1.278376 0 0 1 -0.483676,-0.219205 c -0.45245,-0.327411 -0.652347,-0.865389 -0.447792,-1.201887 0.223196,-0.366587 0.833382,-0.340931 1.301903,0.07509 0.448727,0.387564 0.54425,0.792394 0.54565,1.218438 0,0.343505 -0.12511,0.995515 -0.965246,1.498053 -0.189648,0.113097 -0.334561,0.182593 -0.615074,0.28403 0.619732,0.310154 0.98086,0.800556 0.98086,1.362789 0,0.471991 -0.240676,0.836471 -0.575474,1.103014 l -0.014,-0.01304 c -0.240438,0.189353 -0.533524,0.337899 -0.845719,0.452398 0.0026,0.0018 0.0044,0.0026 0.007,0.0044 0.375798,0.260947 0.577791,0.592782 0.577791,0.982453 0,0.223867 -0.02562,0.500908 -0.418197,0.776547 a 0.12464543,0.12475943 0 0 1 -0.09459,0.02732 c -0.09249,0.0044 -0.174272,-0.09701 -0.118357,-0.193557 0.284237,-0.476882 -0.02862,-0.77957 -0.531437,-0.994809 v 1.953473 a 8.7368295,8.7448199 0 0 0 8.281182,-8.722213 8.7368295,8.7448199 0 0 0 -8.736829,-8.744819 z m -2.001787,9.089717 a 0.22529372,0.22549976 0 0 0 -0.223433,0.227138 c 0,0.12592 0.100181,0.227366 0.223662,0.227366 A 0.22506072,0.22526655 0 0 0 15.1551,17.513466 0.22506072,0.22526655 0 0 0 14.931674,17.286328 Z m 4.00357,0 a 0.22506072,0.22526655 0 0 0 -0.223663,0.227138 c 0,0.12592 0.100182,0.227366 0.223663,0.227366 0.123473,0 0.223425,-0.101675 0.223425,-0.227366 a 0.22529372,0.22549976 0 0 0 -0.223663,-0.227138 z m -2.458666,3.566959 c 0,0 -1.097348,0.335801 -1.097348,0.712409 0,0.336736 0.512558,0.600714 1.107369,0.853491 v -1.5659 z m 0.903971,0 v 1.565441 c 0.594802,-0.252785 1.107369,-0.516296 1.107369,-0.853032 0,-0.376608 -1.097587,-0.712409 -1.097587,-0.712409 h -0.0095 z"
     style="fill:#ffffff;fill-opacity:0.36000001;stroke-width:0.264586"
     inkscape:connector-curvature="0" />
</svg>
