<?xml version="1.0" encoding="UTF-8" standalone="no"?>
<svg
   width="172"
   height="89"
   viewBox="0 0 45.508333 23.547917"
   version="1.1"
   id="svg22"
   xmlns="http://www.w3.org/2000/svg"
   xmlns:svg="http://www.w3.org/2000/svg"
   xmlns:rdf="http://www.w3.org/1999/02/22-rdf-syntax-ns#"
   xmlns:cc="http://creativecommons.org/ns#"
   xmlns:dc="http://purl.org/dc/elements/1.1/">
  <metadata
     id="metadata28">
    <rdf:RDF>
      <cc:Work
         rdf:about="">
        <dc:format>image/svg+xml</dc:format>
        <dc:type
           rdf:resource="http://purl.org/dc/dcmitype/StillImage" />
      </cc:Work>
    </rdf:RDF>
  </metadata>
  <defs
     id="defs26">
    <clipPath
       clipPathUnits="userSpaceOnUse"
       id="clipPath903">
      <rect
         style="fill:#434e35;fill-opacity:1;stroke-width:0.92099494"
         rx="0"
         y="-1.499361e-006"
         x="-23.283335"
         height="45.508331"
         width="6.3500018"
         id="rect905" />
    </clipPath>
    <clipPath
       clipPathUnits="userSpaceOnUse"
       id="clipPath917">
      <path
         style="fill:#4d2600;stroke:none;stroke-width:1.25554967;stroke-miterlimit:10"
         id="path919"
         d="M 13.758332,1.8520831 V 25.4 H 8.4666651 V 1.8520831 Z"
         stroke-miterlimit="10"
         clip-path="none" />
    </clipPath>
    <clipPath
       clipPathUnits="userSpaceOnUse"
       id="clipPath927">
      <path
         style="fill:#888888;stroke:none;stroke-width:1.44111466;stroke-miterlimit:10"
         id="path929"
         d="M 39.158331,6.8791664 V 2.910413 h 3.96875 v 3.9687534 z"
         stroke-miterlimit="10" />
    </clipPath>
  </defs>
  <rect
     clip-path="url(#clipPath903)"
     style="fill:#374626;fill-opacity:1;stroke:#191919;stroke-width:2.64583325;stroke-miterlimit:4;stroke-dasharray:none;stroke-opacity:1"
     rx="0"
     y="-1.499361e-006"
     x="-23.283335"
     height="45.508331"
     width="6.3500023"
     id="rect907"
     transform="rotate(-90,-2.9104166,-2.9104181)" />
  <rect
     transform="rotate(-90,-5.4239583,-5.4239598)"
     id="rect909"
     width="6.3500023"
     height="45.508331"
     x="-23.283335"
     y="-1.499361e-006"
     rx="0"
     style="fill:#374626;fill-opacity:1;stroke:#191919;stroke-width:2.64583325;stroke-miterlimit:4;stroke-dasharray:none;stroke-opacity:1"
     clip-path="url(#clipPath903)" />
  <rect
     clip-path="url(#clipPath903)"
     style="fill:#374626;fill-opacity:1;stroke:#191919;stroke-width:2.64583325;stroke-miterlimit:4;stroke-dasharray:none;stroke-opacity:1"
     rx="0"
     y="-1.499361e-006"
     x="-23.283335"
     height="45.508331"
     width="6.3500023"
     id="rect911"
     transform="rotate(-90,-7.9374999,-7.9375014)" />
  <rect
     transform="rotate(-90,-0.39687491,-0.39687641)"
     id="rect901"
     width="6.3500023"
     height="45.508331"
     x="-23.283335"
     y="-1.499361e-006"
     rx="0"
     style="fill:#374626;fill-opacity:1;stroke:#191919;stroke-width:2.64583325;stroke-miterlimit:4;stroke-dasharray:none;stroke-opacity:1"
     clip-path="url(#clipPath903)" />
  <path
     clip-path="url(#clipPath917)"
     stroke-miterlimit="10"
     d="M 13.758332,1.8520831 V 25.4 H 8.4666651 V 1.8520831 Z"
     id="path915"
     style="fill:#51683a;fill-opacity:1;stroke:#191919;stroke-width:2.64583325;stroke-miterlimit:10;stroke-dasharray:none;stroke-opacity:1"
     transform="translate(1.499361e-6,-1.8520831)" />
  <path
     style="fill:#51683a;fill-opacity:1;stroke:#191919;stroke-width:2.64583;stroke-miterlimit:10;stroke-dasharray:none;stroke-opacity:1"
     id="path921"
     d="M 13.758332,1.8520831 V 25.4 H 8.4666651 V 1.8520831 Z"
     stroke-miterlimit="10"
     clip-path="url(#clipPath917)"
     transform="translate(23.283335,-1.8520831)" />
  <path
     stroke-miterlimit="10"
     d="M 39.158332,6.8791665 V 2.910413 h 3.96875 v 3.9687535 z"
     id="path925"
     style="fill:#888888;stroke:#191919;stroke-width:2.64583;stroke-miterlimit:10;stroke-dasharray:none;stroke-opacity:1"
     clip-path="url(#clipPath927)"
     transform="translate(-0.5291643,-1.8520831)" />
  <path
     clip-path="url(#clipPath927)"
     style="fill:#888888;stroke:#191919;stroke-width:2.64583;stroke-miterlimit:10;stroke-dasharray:none;stroke-opacity:1"
     id="path931"
     d="M 39.158332,6.8791665 V 2.910413 h 3.96875 v 3.9687535 z"
     stroke-miterlimit="10"
     transform="translate(-0.5291643,15.610417)" />
  <path
     clip-path="url(#clipPath927)"
     style="fill:#888888;stroke:#191919;stroke-width:2.64583325;stroke-miterlimit:10;stroke-dasharray:none;stroke-opacity:1"
     id="path933"
     d="M 39.158332,6.8791665 V 2.910413 h 3.96875 v 3.9687535 z"
     stroke-miterlimit="10"
     transform="translate(-36.247916,-1.8520831)" />
  <path
     transform="translate(-36.247916,15.610417)"
     stroke-miterlimit="10"
     d="M 39.158332,6.8791665 V 2.910413 h 3.96875 v 3.9687535 z"
     id="path935"
     style="fill:#888888;stroke:#191919;stroke-width:2.64583325;stroke-miterlimit:10;stroke-dasharray:none;stroke-opacity:1"
     clip-path="url(#clipPath927)" />
  <path
     style="fill:#ffd600;fill-opacity:1;stroke:none;stroke-width:0.385677"
     d="m 23.281326,11.191811 c 0.18744,0.408432 0.277688,0.429644 0.536092,0.634824 -0.49161,0.116475 -0.64151,0.0635 -0.8985,-0.429515 z m -2.423981,1.039271 a 0.36166355,0.36166355 0 1 1 0.343381,0.636624 0.36166355,0.36166355 0 0 1 -0.343381,-0.636624 z M 18.829583,15.1693 c 0.09488,2.368444 0.421287,2.531714 1.086581,3.518277 0.487239,0.172397 1.01086,0.100018 1.501313,-0.110561 0.455613,-0.195796 0.587001,-0.425531 0.880758,-0.733558 -0.660537,-1.128749 -1.208713,-1.852666 -1.070125,-3.4279 -1.094553,-0.202609 -1.444362,-0.0144 -2.398527,0.753742 z m 1.350384,1.158574 a 0.3616367,0.3616367 0 1 1 0.343381,0.636497 0.3616367,0.3616367 0 0 1 -0.343381,-0.636497 z m 4.000372,-9.6316463 0.661052,1.151246 3.357705,-1.93867 -0.671978,-1.144819 c -1.831066,1.057398 -1.731562,0.999546 -3.346779,1.932243 z m -0.477339,0.266246 -0.501123,0.289514 -2.344018,1.353471 1.528953,2.5902083 2.812873,-1.6240863 -0.363822,-0.633797 -1.987781,1.1476473 c -0.106447,0.06145 -0.262646,-0.0099 -0.324097,-0.1163453 -0.06145,-0.106447 -0.04216,-0.272418 0.06428,-0.333869 l 1.988295,-1.148033 -0.282701,-0.489552 -1.99678,1.152917 c -0.106447,0.06145 -0.259689,-0.0049 -0.321269,-0.111332 -0.06145,-0.106447 -0.03934,-0.267403 0.0671,-0.328854 l 2.00038,-1.154975 z m -5.164476,6.2947673 c 0.18384,0.419745 0.276659,0.69769 0.275117,1.271064 1.011246,-0.850804 1.935972,-0.887315 2.63469,-0.656552 l 1.076682,-0.63431 c 0.674421,0.153371 1.449889,5.35e-4 1.937385,-0.395062 0.48724,-0.395577 1.086582,-1.283663 1.205628,-1.828497 0.08742,-0.400461 -0.01993,-0.729572 -0.246705,-1.0760393 l -0.629168,0.3633083 0.360222,0.628526 c -0.239891,0.455099 -0.752842,1.334958 -1.185315,1.606217 -0.325897,0.19001 -1.457345,0.02597 -1.457345,0.02597 0,0 -1.389724,-2.398397 -2.128939,-3.6865593 L 19.3955,9.4706607 c 1.324415,2.0717303 0.236034,3.1689823 -0.856976,3.7865803 z m -1.400136,-2.691128 c 0.556918,0.03561 2.208645,0.0094 2.208645,0.0094 0,0 0.33811,0.79578 -0.09578,1.159988 -0.473097,-0.624026 -1.143018,-0.871245 -2.112868,-1.169374 z m 7.964364,-2.2626403 a 190.68911,190.68911 0 0 1 0.643052,1.127464 c 0.03806,-0.50408 0.141929,-0.787939 0.712989,-1.227739 l 1.911673,-1.103681 -0.295686,-0.51205 -2.972028,1.715878 z"
     id="path2-1" />
</svg>
