<?xml version="1.0" encoding="UTF-8" standalone="no"?>
<svg
   width="1056"
   height="1504"
   version="1.1"
   id="svg8"
   sodipodi:docname="map-building-workshop-ceiling-01.svg"
   inkscape:version="1.4 (e7c3feb1, 2024-10-09)"
   xmlns:inkscape="http://www.inkscape.org/namespaces/inkscape"
   xmlns:sodipodi="http://sodipodi.sourceforge.net/DTD/sodipodi-0.dtd"
   xmlns="http://www.w3.org/2000/svg"
   xmlns:svg="http://www.w3.org/2000/svg">
  <sodipodi:namedview
     id="namedview8"
     pagecolor="#ffffff"
     bordercolor="#000000"
     borderopacity="0.25"
     inkscape:showpageshadow="2"
     inkscape:pageopacity="0.0"
     inkscape:pagecheckerboard="0"
     inkscape:deskcolor="#d1d1d1"
     inkscape:zoom="0.21519625"
     inkscape:cx="1180.3179"
     inkscape:cy="1363.8713"
     inkscape:window-width="1920"
     inkscape:window-height="1022"
     inkscape:window-x="1512"
     inkscape:window-y="30"
     inkscape:window-maximized="0"
     inkscape:current-layer="svg8" />
  <defs
     id="defs3">
    <clipPath
       id="c">
      <path
         stroke-miterlimit="10"
         d="M 32,0 H 1472 V 432 H 32 Z"
         fill="#814e3a"
         stroke-width="167.976"
         id="path1" />
    </clipPath>
  </defs>
  <rect
     style="fill:#113922;fill-opacity:0.392157;stroke-width:7.35943;stroke-linecap:round"
     id="rect12"
     width="928.7301"
     height="1195.3043"
     x="63.634892"
     y="154.34778"
     rx="7.9999924"
     ry="7.9999928" />
  <g
     id="g4"
     clip-path="none"
     transform="matrix(0.99999993,0,0,0.93587635,0,48.220987)"
     style="stroke-width:1.03369">
    <g
       inkscape:label="Clip"
       id="g3"
       style="stroke-width:1.03369">
      <path
         d="M 527.99999,1503.7037 H 1055.7038 V 0.2961602 H 527.99999 Z M 682.5799,722.86888 V 539.11906 h 39.08917 v -66.81811 h 177.67806 v 152.74929 l -39.97756,-0.11459 v 47.8196 h 58.63376 V 823.09601 H 878.91416 V 923.32318 H 760.75824 V 873.2096 H 721.66907 V 722.86884 Z"
         clip-path="none"
         stroke-miterlimit="10"
         fill="#222e40"
         stroke="#191919"
         stroke-width="9.33881"
         id="path4"
         sodipodi:nodetypes="cccccccccccccccccccccc"
         style="fill:#11402b;fill-opacity:1" />
    </g>
  </g>
  <g
     id="g2"
     clip-path="none"
     transform="matrix(0.99999993,0,0,0.93587635,0,48.220987)"
     style="stroke-width:1.03369">
    <g
       inkscape:label="Clip"
       id="g1"
       style="stroke-width:1.03369">
      <path
         stroke-miterlimit="10"
         d="M 0.2961586,1503.7037 H 527.99999 V 0.2961602 H 0.2961586 Z M 235.32027,1369.9127 v -49.7258 h -59.51093 v -133.6362 h 58.62253 v -120.0501 h 158.14469 v 76.1497 h 58.17835 v 81.5874 h -39.08917 v 83.2171 c -32.57349,0.3919 -65.14825,0.3056 -97.72293,0.3056 v 62.1523 z M 166.42514,354.9814 V 249.49375 h 39.08918 V 129.25638 h 88.39484 v 51.48393 H 353.4313 V 315.3591 h -40.86596 v 83.52264 h -28.87268 v 59.24465 H 185.96972 V 354.9814 Z"
         clip-path="none"
         fill="#2a394f"
         stroke-width="9.33881"
         stroke="#191919"
         id="path5"
         sodipodi:nodetypes="ccccccccccccccccccccccccccccccccccc"
         style="fill:#0e3423;fill-opacity:1" />
    </g>
  </g>
  <g
     inkscape:label="Clip"
     id="use12" />
  <path
     d="M 31.716239,-0.24244759 H 1472 L 1472.2837,432 H 31.716239 Z"
     stroke-miterlimit="10"
     clip-path="url(#c)"
     transform="matrix(0,-0.97708579,1.2215365,0,0.29615858,1486.7685)"
     fill="none"
     stroke="#191919"
     stroke-width="16.5391"
     id="path7"
     sodipodi:nodetypes="ccccc" />
  <path
     clip-path="url(#c)"
     stroke-miterlimit="10"
     d="M 31.716239,0 H 1472.2837 V 432.24247 H 31.716239 Z"
     fill="none"
     stroke="#191919"
     stroke-width="16.5391"
     id="path8"
     transform="matrix(0,-0.97708579,1.2215365,0,527.99996,1486.7685)"
     sodipodi:nodetypes="ccccc" />
</svg>
