<?xml version="1.0" encoding="UTF-8" standalone="no"?>
<svg
   width="533"
   height="512"
   viewBox="0 0 141.02318 135.467"
   version="1.1"
   id="svg10"
   sodipodi:docname="map-hut-res-02.svg"
   inkscape:version="1.3 (0e150ed6c4, 2023-07-21)"
   xmlns:inkscape="http://www.inkscape.org/namespaces/inkscape"
   xmlns:sodipodi="http://sodipodi.sourceforge.net/DTD/sodipodi-0.dtd"
   xmlns="http://www.w3.org/2000/svg"
   xmlns:svg="http://www.w3.org/2000/svg">
  <sodipodi:namedview
     id="namedview10"
     pagecolor="#ffffff"
     bordercolor="#000000"
     borderopacity="0.25"
     inkscape:showpageshadow="2"
     inkscape:pageopacity="0.0"
     inkscape:pagecheckerboard="0"
     inkscape:deskcolor="#d1d1d1"
     inkscape:zoom="0.97851562"
     inkscape:cx="256"
     inkscape:cy="254.97805"
     inkscape:window-width="1360"
     inkscape:window-height="697"
     inkscape:window-x="-8"
     inkscape:window-y="-8"
     inkscape:window-maximized="1"
     inkscape:current-layer="svg10" />
  <defs
     id="defs5">
    <pattern
       patternUnits="userSpaceOnUse"
       width="136"
       height="112"
       patternTransform="matrix(.26458 0 0 .26458 103.717 -35.983)"
       id="b">
      <path
         fill="none"
         stroke-width="3.78"
         d="M0 0h136v112H0z"
         id="path1" />
      <path
         fill="#cc8b27"
         stroke-width="8.662"
         stroke-linecap="round"
         d="M0 0h136v112H0z"
         id="path2" />
      <path
         fill-opacity=".176"
         stroke-width="7.286"
         stroke-miterlimit="10"
         d="M32 0h4v112h-4zM48 0h4v112h-4zM0 0h4v112H0zM72 0h4v112h-4zM112 0h4v112h-4z"
         id="path3" />
    </pattern>
    <clipPath
       id="c">
      <path
         d="m 68.792,74.083 h 2.646 l 0.529,-0.529 h 8.466 l 0.53,0.53 h 3.175 l 1.058,-1.059 h 6.879 l 1.058,1.058 h 4.234 L 78.052,93.398 74.083,84.667 69.85,82.55 Z"
         fill="#cc8b27"
         stroke-width="0.265"
         id="path4" />
    </clipPath>
    <clipPath
       id="a">
      <path
         d="m 21.167,55.033 h 5.82 l 0.53,-0.529 h 20.108 l 0.53,0.53 h 4.762 l -6.35,8.466 -6.35,2.117 v 6.35 L 35.983,69.85 Z"
         fill="#ab7421"
         stroke-width="0.416"
         id="path5" />
    </clipPath>
    <pattern
       patternUnits="userSpaceOnUse"
       width="136"
       height="112"
       patternTransform="matrix(.26458 0 0 .26458 103.717 -35.983)"
       id="b-5">
      <path
         fill="none"
         stroke-width="3.78"
         d="M0 0h136v112H0z"
         id="path1-1" />
      <path
         fill="#cc8b27"
         stroke-width="8.662"
         stroke-linecap="round"
         d="M0 0h136v112H0z"
         id="path2-6" />
      <path
         fill-opacity=".176"
         stroke-width="7.286"
         stroke-miterlimit="10"
         d="M32 0h4v112h-4zM48 0h4v112h-4zM0 0h4v112H0zM72 0h4v112h-4zM112 0h4v112h-4z"
         id="path3-5" />
    </pattern>
    <clipPath
       id="a-6">
      <path
         d="m 21.167,55.033 h 5.82 l 0.53,-0.529 h 20.108 l 0.53,0.53 h 4.762 l -6.35,8.466 -6.35,2.117 v 6.35 L 35.983,69.85 Z"
         fill="#ab7421"
         stroke-width="0.416"
         id="path5-8" />
    </clipPath>
  </defs>
  <path
     d="m 21.167,55.033 h 5.82 l 0.53,-0.529 h 20.108 l 0.53,0.53 h 4.762 l -6.35,8.466 -6.35,2.117 v 6.35 L 35.983,69.85 Z"
     clip-path="url(#a)"
     transform="rotate(-174.148,57.431168,48.338388)"
     fill="url(#b)"
     stroke="#000000"
     stroke-width="2.117"
     id="path6" />
  <path
     d="m 21.167,55.033 h 5.82 l 0.53,-0.529 h 20.108 l 0.53,0.53 h 4.762 l -6.35,8.466 -6.35,2.117 v 6.35 L 35.983,69.85 Z"
     clip-path="url(#a-6)"
     transform="rotate(112.95698,24.239419,54.952999)"
     fill="url(#b)"
     stroke="#000000"
     stroke-width="2.117"
     id="path6-8"
     style="fill:url(#b-5)" />
  <path
     d="m 68.792,74.083 h 2.646 l 0.529,-0.529 h 8.466 l 0.53,0.53 h 3.175 l 1.058,-1.059 h 6.879 l 1.058,1.058 h 4.234 L 78.052,93.398 74.083,84.667 69.85,82.55 Z"
     clip-path="url(#c)"
     transform="rotate(-110.3012,83.472622,79.46684)"
     fill="url(#b)"
     stroke="#000000"
     stroke-width="2.117"
     id="path7" />
  <path
     d="m 110.34574,61.120808 -3.17301,1.972 0.336,3.554 -17.855026,-10.77 3.48,-0.314 -1.228,-2.055 1.832,-0.237 -0.273,-1.939 z"
     fill="#bc8024"
     stroke="#191919"
     stroke-width="1.2"
     id="path8" />
  <path
     d="m 48.6082,38.378792 3.77,0.672 2.248,-2.903 5.837,20.227 -2.835,-2.127 -0.524,2.38 -1.542,-1.065 -1.16,1.643 z"
     fill="#bc8024"
     stroke="#191919"
     stroke-width="1.226"
     id="path9" />
  <path
     d="M 2.1695634,40.03903 4.34615,36.888322 2.6385142,33.637953 l 20.8246948,3.087783 -3.112058,1.696011 1.94762,1.46484 -1.609085,0.960644 1.013085,1.737443 z"
     fill="#bc8024"
     stroke="#191919"
     stroke-width="1.226"
     id="path9-0" />
  <path
     d="m 108.08257,53.025808 -0.381,3.717 3.01701,1.907 -19.440036,7.542 1.88,-2.945 -2.377,-0.285 0.933,-1.595 -1.7,-0.97 z"
     fill="#bc8024"
     stroke="#191919"
     stroke-width="1.2"
     id="path10" />
</svg>
