<?xml version="1.0" encoding="UTF-8" standalone="no"?>
<svg
   width="160"
   height="160"
   viewBox="0 0 42.333328 42.333328"
   version="1.1"
   id="svg10"
   sodipodi:docname="map-squash-02.svg"
   inkscape:version="1.4.2 (ebf0e940, 2025-05-08)"
   xml:space="preserve"
   xmlns:inkscape="http://www.inkscape.org/namespaces/inkscape"
   xmlns:sodipodi="http://sodipodi.sourceforge.net/DTD/sodipodi-0.dtd"
   xmlns="http://www.w3.org/2000/svg"
   xmlns:svg="http://www.w3.org/2000/svg"
   xmlns:rdf="http://www.w3.org/1999/02/22-rdf-syntax-ns#"
   xmlns:cc="http://creativecommons.org/ns#"
   xmlns:dc="http://purl.org/dc/elements/1.1/"><metadata
     id="metadata16"><rdf:RDF><cc:Work
         rdf:about=""><dc:format>image/svg+xml</dc:format><dc:type
           rdf:resource="http://purl.org/dc/dcmitype/StillImage" /></cc:Work></rdf:RDF></metadata><defs
     id="defs14"><filter
       id="mask-powermask-path-effect7_inverse"
       inkscape:label="filtermask-powermask-path-effect7"
       style="color-interpolation-filters:sRGB"
       height="100"
       width="100"
       x="-50"
       y="-50"><feColorMatrix
         id="mask-powermask-path-effect7_primitive1"
         values="1"
         type="saturate"
         result="fbSourceGraphic" /><feColorMatrix
         id="mask-powermask-path-effect7_primitive2"
         values="-1 0 0 0 1 0 -1 0 0 1 0 0 -1 0 1 0 0 0 1 0 "
         in="fbSourceGraphic" /></filter><clipPath
       clipPathUnits="userSpaceOnUse"
       id="clipPath9"><path
         style="display:inline;fill:#f47500;fill-opacity:1;stroke:#323232;stroke-width:2.03374;stroke-linecap:butt;stroke-linejoin:miter;stroke-miterlimit:4;stroke-dasharray:none;stroke-opacity:1"
         d="m 19.050001,36.477461 c -3.073797,0 -6.002279,-2.936674 -6.002279,-2.936674 0,0 -4.1472921,0.0059 -6.3207953,-2.167712 -2.1735044,-2.173508 -2.1677114,-6.320794 -2.1677114,-6.320794 0,0 -2.9366736,-2.928484 -2.9366736,-6.002281 0,-3.073798 2.9366736,-6.002281 2.9366736,-6.002281 0,0 -0.00581,-4.1472904 2.1677104,-6.3207944 2.1735042,-2.1735036 6.3207953,-2.1677109 6.3207953,-2.1677109 0,0 2.928481,-2.9366737 6.00228,-2.9366737 3.073798,0 6.002279,2.9366737 6.002279,2.9366737 0,0 4.14729,-0.00578 6.320795,2.1677109 2.173504,2.173504 2.167712,6.3207934 2.167712,6.3207934 0,0 2.936672,2.928484 2.936672,6.002282 0,3.073797 -2.936672,6.002281 -2.936672,6.002281 0,0 0.0058,4.147286 -2.167712,6.320794 -2.173505,2.173504 -6.320795,2.167712 -6.320795,2.167712 0,0 -2.928481,2.936674 -6.002279,2.936674 z"
         id="path10"
         inkscape:connector-curvature="0"
         sodipodi:nodetypes="scccscccscccscccs"
         sodipodi:insensitive="true" /></clipPath></defs><sodipodi:namedview
     pagecolor="#ffffff"
     bordercolor="#666666"
     borderopacity="1"
     objecttolerance="10"
     gridtolerance="10"
     guidetolerance="10"
     inkscape:pageopacity="0"
     inkscape:pageshadow="2"
     inkscape:window-width="1280"
     inkscape:window-height="691"
     id="namedview12"
     showgrid="true"
     inkscape:zoom="1.9075909"
     inkscape:cx="75.225775"
     inkscape:cy="92.262971"
     inkscape:window-x="0"
     inkscape:window-y="25"
     inkscape:window-maximized="0"
     inkscape:current-layer="g4"
     inkscape:showpageshadow="2"
     inkscape:pagecheckerboard="0"
     inkscape:deskcolor="#d1d1d1"><inkscape:grid
       type="xygrid"
       id="grid823"
       empspacing="4"
       spacingy="1.0583333"
       spacingx="1.0583333"
       originx="0"
       originy="0"
       units="px" /></sodipodi:namedview><g
     id="g4"
     transform="matrix(1.3296544,0,0,1.3296544,-3.8937556,-4.2790409)"><g
       id="g1"
       transform="translate(-4.4807537,-5.5199701)"
       style="display:inline"><path
         sodipodi:nodetypes="sssccssssssscssss"
         inkscape:connector-curvature="0"
         id="path873"
         d="m 31.742326,19.765043 c -0.744093,0.308116 -0.964678,1.399973 -1.708767,1.7081 -0.526048,0.217836 -1.182103,-0.217956 -1.708101,0 -0.744067,0.308317 -1.7081,1.708992 -1.7081,1.708992 l -6.9e-4,1.708769 c 0,0 1.493956,-1.874382 2.562836,-2.281183 0.532337,-0.2026 1.184374,0.222366 1.708762,0 0.572708,-0.242856 0.725385,-1.096912 1.297353,-1.341505 0.247407,-0.105799 0.561718,-0.11504 0.807223,-0.0049 0.211145,0.09473 0.247816,0.425528 0.458466,0.52135 0.51827,0.235755 1.181114,-0.208171 1.708099,0.0074 0.237025,0.09696 0.313103,0.439621 0.550338,0.536066 0.621436,0.252638 2.012482,0 2.012482,0 0,0 -0.964033,-1.400675 -1.708101,-1.708992 -0.526204,-0.218041 -1.182536,0.217972 -1.708768,0 -0.371957,-0.154069 -0.482096,-0.699974 -0.85405,-0.854049 -0.526295,-0.218007 -1.18266,-0.217989 -1.708982,-4.8e-5 z"
         style="fill:#183905;fill-opacity:1;stroke:#191919;stroke-width:0.529167;stroke-miterlimit:4;stroke-dasharray:none;stroke-opacity:1" /><path
         style="fill:#183905;fill-opacity:1;stroke:#191919;stroke-width:0.529167;stroke-miterlimit:4;stroke-dasharray:none;stroke-opacity:1"
         d="m 20.380208,28.918976 c 0,0 -1.727774,1.389755 -2.101672,2.379844 -0.190005,0.503136 0.244673,1.133495 0.002,1.613451 -0.145755,0.288274 -0.637656,0.284106 -0.781157,0.573509 -0.276353,0.557327 0.264677,1.289275 0.03144,1.865976 -0.213554,0.528034 -0.991303,0.681561 -1.208381,1.208156 -0.435155,1.055614 0.01193,3.425343 0.01193,3.425343 0,0 -1.159172,-0.643538 -1.419883,-1.207489 -0.338043,-0.731228 -0.308319,-1.672505 0,-2.416754 0.217914,-0.526022 0.989969,-0.68171 1.207935,-1.20771 0.308307,-0.744015 -0.346442,-1.689277 4.75e-4,-2.416092 0.206397,-0.432415 0.906554,-0.473968 1.117421,-0.904221 0.209368,-0.427194 -0.151861,-0.987244 0.02986,-1.426911 0.261961,-0.633804 1.421781,-1.487117 1.421781,-1.487117 z"
         id="path17-7"
         inkscape:connector-curvature="0"
         sodipodi:nodetypes="cssssscsssssscc" /><path
         style="fill:#183905;fill-opacity:1;stroke:#191919;stroke-width:0.529;stroke-miterlimit:4;stroke-dasharray:none;stroke-opacity:1"
         d="m 18.911996,22.632396 c 0,0 -2.38136,0.268401 -3.424595,-0.199776 -0.519726,-0.23324 -0.680315,-0.994892 -1.208438,-1.208439 -0.576711,-0.233194 -1.288566,0.263044 -1.865954,0.03153 -0.249752,-0.100142 -0.478355,-0.316011 -0.574121,-0.567474 -0.0823,-0.21611 0.125166,-0.475818 0.044,-0.692357 -0.199842,-0.53315 -0.98177,-0.688473 -1.202153,-1.213466 -0.09906,-0.235986 0.08873,-0.531976 -0.01088,-0.76773 -0.26107,-0.617861 -1.4228825,-1.422883 -1.4228825,-1.422883 0,0 -0.3087524,1.6721 -6.3e-4,2.416248 0.2179042,0.526261 0.9903105,0.68205 1.2082835,1.208283 0.15407,0.371957 -0.15407,0.835853 -10e-7,1.20781 0.217972,0.526233 0.68205,0.99031 1.208283,1.208283 0.744302,0.3083 1.672577,-0.308301 2.416879,-1e-6 0.526026,0.217887 0.681783,0.989922 1.207809,1.207809 0.744204,0.308259 2.416563,-2e-6 2.416563,-2e-6 z"
         id="path1846"
         inkscape:connector-curvature="0"
         sodipodi:nodetypes="cssssssscsssssscc" /><path
         inkscape:connector-curvature="0"
         id="path1896"
         d="m 18.907348,23.332007 c -0.372367,0.154046 -0.48325,0.700011 -0.85562,0.854051 -0.525646,0.217447 -1.181027,-0.217766 -1.70654,0 -0.02932,0.01215 -0.03798,0.05519 -0.0673,0.06734 -0.224267,0.09293 -0.505931,-0.09743 -0.72828,0 -0.385488,0.16892 -0.470352,0.759386 -0.85584,0.928306 -0.521221,0.228398 -1.181452,-0.217772 -1.707201,0 -0.744205,0.30826 -0.964565,1.400509 -1.70877,1.708769 -0.526507,0.218086 -1.183182,-0.218155 -1.7096599,0 -0.7440675,0.308317 -1.3997885,0.964923 -1.7081004,1.708992 -0.2180377,0.526205 -8.7e-4,1.708768 -8.7e-4,1.708768 0,0 1.4941267,-1.874385 2.5630703,-2.281183 0.532135,-0.20251 1.183858,0.222145 1.7081,0 0.573056,-0.242829 0.726071,-1.097647 1.29869,-1.341505 0.495122,-0.210855 1.120767,0.208424 1.614441,-0.0058 0.32965,-0.143047 0.409304,-0.642244 0.73921,-0.784699 0.265043,-0.114447 0.598638,0.108697 0.86609,0 0.237297,-0.09644 0.313483,-0.439112 0.55057,-0.536067 0.527212,-0.215599 1.190374,0.228632 1.70876,-0.0074 0.210482,-0.09584 0.246822,-0.426609 0.4578,-0.52135 0.245465,-0.110228 0.5598,-0.100867 0.80722,0.0049 0.572142,0.24458 1.29802,1.341505 1.29802,1.341505 h 1.70811 l 2.562814,2.281183 -9.06e-4,-1.708769 c 0,0 -0.964031,-1.400675 -1.708098,-1.708992 -0.526475,-0.218154 -1.70965,0 -1.70965,0 0,0 -0.964676,-1.399986 -1.70877,-1.708101 -0.525801,-0.217724 -1.181417,-0.217499 -1.70729,5.2e-5 z"
         style="fill:#183905;fill-opacity:1;stroke:#191919;stroke-width:0.529;stroke-miterlimit:4;stroke-dasharray:none;stroke-opacity:1"
         sodipodi:nodetypes="sssssssssscssssssssssccccscss" /><path
         sodipodi:nodetypes="cssssssscsssssccc"
         inkscape:connector-curvature="0"
         id="path1898"
         d="m 23.096593,15.315098 c 0,0 2.38136,0.268399 3.424595,-0.199778 0.519727,-0.23324 0.680315,-0.994895 1.20844,-1.208441 0.576712,-0.233192 1.288565,0.263052 1.865954,0.03154 0.24975,-0.100141 0.478349,-0.316008 0.574116,-0.567468 0.0823,-0.21611 -0.125158,-0.475821 -0.04399,-0.692361 0.199846,-0.533148 0.98177,-0.688474 1.202152,-1.213466 0.09906,-0.235987 -0.08873,-0.531977 0.01088,-0.767731 0.26107,-0.61786 1.422881,-1.42288 1.422881,-1.42288 0,0 0.308752,1.6721 6.3e-4,2.416247 -0.217904,0.526261 -0.990309,0.68205 -1.208282,1.208282 -0.154069,0.371956 0.154069,0.835852 0,1.207808 -0.217972,0.526232 -0.68205,0.99031 -1.208282,1.208283 -0.744302,0.3083 -1.672577,-0.308299 -2.416879,1e-6 -0.526026,0.217887 -1.207809,1.207809 -1.207809,1.207809 h -2.416564 z"
         style="fill:#183905;fill-opacity:1;stroke:#191919;stroke-width:0.529167;stroke-miterlimit:4;stroke-dasharray:none;stroke-opacity:1" /></g><g
       id="g2"
       transform="matrix(0.5348351,0,0,0.5348351,8.8074494,8.8613901)"><path
         style="display:inline;fill:#f47500;fill-opacity:1;stroke:#323232;stroke-width:2.03374;stroke-linecap:butt;stroke-linejoin:miter;stroke-miterlimit:4;stroke-dasharray:none;stroke-opacity:1"
         d="m 19.050001,36.47746 c -3.073797,0 -6.002279,-2.936673 -6.002279,-2.936673 0,0 -4.1472921,0.0059 -6.3207953,-2.167713 -2.1735043,-2.173506 -2.1677114,-6.320793 -2.1677114,-6.320793 0,0 -2.9366736,-2.928484 -2.9366736,-6.002281 0,-3.073798 2.9366736,-6.002281 2.9366736,-6.002281 0,0 -0.00581,-4.1472905 2.1677104,-6.3207943 2.1735042,-2.1735038 6.3207953,-2.167711 6.3207953,-2.167711 0,0 2.928481,-2.9366737 6.00228,-2.9366737 3.073798,0 6.002279,2.9366737 6.002279,2.9366737 0,0 4.14729,-0.00578 6.320794,2.167711 2.173505,2.1735038 2.167713,6.3207933 2.167713,6.3207933 0,0 2.936671,2.928484 2.936671,6.002282 0,3.073797 -2.936671,6.002281 -2.936671,6.002281 0,0 0.0058,4.147287 -2.167712,6.320793 -2.173504,2.173506 -6.320795,2.167713 -6.320795,2.167713 0,0 -2.928481,2.936673 -6.002279,2.936673 z"
         id="path920"
         inkscape:connector-curvature="0"
         sodipodi:nodetypes="scccscccscccscccs"
         sodipodi:insensitive="true" /><path
         id="path1-2"
         style="display:inline;fill:#fff1e8;fill-opacity:0.766467;stroke:#ffb856;stroke-width:1e-08;stroke-dasharray:none;stroke-opacity:0.0868263"
         d="m 12.7,1.0583333 c -10e-7,0 2.116667,2.7792984 2.116667,4.2333334 0,2.116668 2.075947,3.2157183 1.058333,4.2333333 -1.045491,1.045492 2.000419,3.163344 1.093473,4.19561 -0.295266,-0.403517 -0.603734,-0.657324 -0.912089,-0.657325 -1.458916,0 -0.748114,-3.7418908 -2.244824,-3.7418901 C 12.365662,9.3213935 13.062929,7.076214 11.566219,5.5795044 10.543815,4.5571008 10.06967,1.0893392 10.06967,1.0893392 L 1.0893392,10.06967 c -8e-7,10e-7 3.4620072,0.468391 4.4901652,1.496549 1.496711,1.49671 3.7418895,0.806217 3.7418905,2.245341 1e-6,1.496709 3.7418911,0.805698 3.7418901,2.244824 10e-7,0.308364 0.253786,0.616815 0.657325,0.912089 C 12.675365,17.89009 10.570669,14.82933 9.525,15.875 8.502595,16.897403 7.4083337,14.816667 5.2916667,14.816667 3.8457697,14.816667 1.0583333,12.7 1.0583333,12.7 v 12.7 c 0,1e-6 2.7792984,-2.116667 4.2333334,-2.116667 2.116668,0 3.2157183,-2.075947 4.2333333,-1.058333 0.990102,0.990101 2.942218,-1.689227 4.02301,-1.205611 -0.333416,0.267175 -0.537951,0.543997 -0.537951,0.820622 10e-7,1.439126 -3.7418899,0.748115 -3.7418909,2.244824 -1e-6,1.439124 -2.2451794,0.748631 -3.7418904,2.245341 -1.028158,1.028158 -4.490166,1.496548 -4.4901652,1.496549 l 8.9803305,8.980331 c 0,0 0.474661,-3.467763 1.497066,-4.490166 1.49671,-1.49671 0.798926,-3.741888 2.244824,-3.74189 1.496709,1e-6 0.785908,-3.74189 2.244825,-3.74189 0.288816,-1e-6 0.5777,-0.222573 0.855761,-0.582394 0.02196,0.03316 0.04684,0.06337 0.07441,0.09095 1.017616,1.017616 -2.116666,3.174999 -1.058333,4.233333 1.017614,1.017614 -1.058333,2.116666 -1.058333,4.233333 0,1.454036 -2.116667,4.233334 -2.116667,4.233334 h 12.7 c 0,0 -2.116667,-2.787437 -2.116667,-4.233334 0,-2.116667 -2.080737,-3.210929 -1.058333,-4.233333 1.058333,-1.058334 -2.089943,-3.201722 -1.058333,-4.233333 0.02758,-0.02758 0.05245,-0.05779 0.07441,-0.09095 0.278061,0.359821 0.566945,0.582393 0.855761,0.582394 1.458916,0 0.748115,3.74189 2.244825,3.74189 1.445898,1e-6 0.748114,2.24518 2.244824,3.74189 1.022404,1.022403 1.497066,4.490166 1.497066,4.490166 l 8.980331,-8.980331 c 1e-6,-1e-6 -3.462008,-0.468391 -4.490166,-1.496549 -1.496711,-1.49671 -3.741889,-0.806217 -3.74189,-2.245341 -1e-6,-1.496709 -3.741892,-0.805697 -3.741891,-2.244824 0,-0.276625 -0.204536,-0.553447 -0.537951,-0.820622 1.080793,-0.483613 3.032909,2.195711 4.02301,1.205611 1.017615,-1.017614 2.116665,1.058333 4.233333,1.058333 1.454035,0 4.233334,2.116668 4.233334,2.116667 V 12.7 c 0,0 -2.787437,2.116667 -4.233334,2.116667 -2.116667,0 -3.210928,2.080736 -4.233333,1.058333 -1.045669,-1.04567 -3.150365,2.015088 -4.19561,1.093473 0.403539,-0.295275 0.657324,-0.603725 0.657325,-0.912089 -1e-6,-1.439127 3.741889,-0.748115 3.74189,-2.244824 10e-7,-1.439124 2.24518,-0.748631 3.741891,-2.245341 1.028158,-1.028158 4.490166,-1.496548 4.490165,-1.496549 L 28.03033,1.0893392 c 0,0 -0.474145,3.4677616 -1.496549,4.4901652 -1.49671,1.4967096 -0.799443,3.7418891 -2.245341,3.7418905 -1.49671,-7e-7 -0.785908,3.7418901 -2.244824,3.7418901 -0.308365,10e-7 -0.616814,0.253785 -0.912089,0.657325 C 20.209908,12.675366 23.27067,10.57067 22.225,9.525 21.202597,8.502595 23.283333,7.4083337 23.283333,5.2916667 23.283333,3.8457697 25.4,1.0583333 25.4,1.0583333 Z"
         clip-path="url(#clipPath9)"
         inkscape:label="whiteoutline"
         sodipodi:insensitive="true" /><path
         style="display:inline;fill:none;fill-opacity:1;stroke:#323232;stroke-width:2.96727;stroke-linecap:butt;stroke-linejoin:miter;stroke-miterlimit:4;stroke-dasharray:none;stroke-opacity:1"
         d="m 19.050001,36.477461 c -3.073797,0 -6.002279,-2.936674 -6.002279,-2.936674 0,0 -4.1472921,0.0059 -6.3207953,-2.167712 -2.1735044,-2.173508 -2.1677114,-6.320794 -2.1677114,-6.320794 0,0 -2.9366736,-2.928484 -2.9366736,-6.002281 0,-3.073798 2.9366736,-6.002281 2.9366736,-6.002281 0,0 -0.00581,-4.1472904 2.1677104,-6.3207944 2.1735042,-2.1735036 6.3207953,-2.1677109 6.3207953,-2.1677109 0,0 2.928481,-2.9366737 6.00228,-2.9366737 3.073798,0 6.002279,2.9366737 6.002279,2.9366737 0,0 4.14729,-0.00578 6.320795,2.1677109 2.173504,2.173504 2.167712,6.3207934 2.167712,6.3207934 0,0 2.936672,2.928484 2.936672,6.002282 0,3.073797 -2.936672,6.002281 -2.936672,6.002281 0,0 0.0058,4.147286 -2.167712,6.320794 -2.173505,2.173504 -6.320795,2.167712 -6.320795,2.167712 0,0 -2.928481,2.936674 -6.002279,2.936674 z"
         id="path8"
         inkscape:connector-curvature="0"
         sodipodi:nodetypes="scccscccscccscccs"
         sodipodi:insensitive="true" /><path
         sodipodi:nodetypes="cc"
         inkscape:connector-curvature="0"
         id="path923"
         d="m 25.400003,25.399999 4.23333,4.233334"
         style="display:inline;fill:none;stroke:#d8a781;stroke-width:1.058;stroke-linecap:round;stroke-linejoin:round;stroke-miterlimit:4;stroke-dasharray:none;stroke-opacity:1" /><path
         style="display:inline;fill:none;stroke:#d8a781;stroke-width:1.05833;stroke-linecap:round;stroke-linejoin:round;stroke-miterlimit:4;stroke-dasharray:none;stroke-opacity:1"
         d="M 8.466667,8.466667 12.700001,12.7"
         id="path925"
         inkscape:connector-curvature="0"
         sodipodi:nodetypes="cc" /><path
         style="display:inline;fill:none;stroke:#d8a781;stroke-width:1.05833;stroke-linecap:round;stroke-linejoin:round;stroke-miterlimit:4;stroke-dasharray:none;stroke-opacity:1"
         d="M 12.700001,25.4 8.466667,29.633333"
         id="path927"
         inkscape:connector-curvature="0"
         sodipodi:nodetypes="cc" /><path
         sodipodi:nodetypes="cc"
         inkscape:connector-curvature="0"
         id="path929"
         d="m 29.633333,8.466667 -4.23333,4.233334"
         style="display:inline;fill:none;stroke:#d8a781;stroke-width:1.05833;stroke-linecap:round;stroke-linejoin:round;stroke-miterlimit:4;stroke-dasharray:none;stroke-opacity:1" /><path
         style="display:inline;fill:none;stroke:#d8a781;stroke-width:1.05833;stroke-linecap:round;stroke-linejoin:round;stroke-miterlimit:4;stroke-dasharray:none;stroke-opacity:1"
         d="m 19.050001,28.030255 -1e-6,5.986838"
         id="path931"
         inkscape:connector-curvature="0"
         sodipodi:nodetypes="cc" /><path
         sodipodi:nodetypes="cc"
         inkscape:connector-curvature="0"
         id="path933"
         d="m 19.05,4.082907 1e-6,5.986838"
         style="display:inline;fill:none;stroke:#d8a781;stroke-width:1.05833;stroke-linecap:round;stroke-linejoin:round;stroke-miterlimit:4;stroke-dasharray:none;stroke-opacity:1" /><path
         sodipodi:nodetypes="cc"
         inkscape:connector-curvature="0"
         id="path935"
         d="M 10.069744,19.050001 4.082907,19.05"
         style="display:inline;fill:none;stroke:#d8a781;stroke-width:1.05833;stroke-linecap:round;stroke-linejoin:round;stroke-miterlimit:4;stroke-dasharray:none;stroke-opacity:1" /><path
         style="display:inline;fill:none;stroke:#d8a781;stroke-width:1.05833;stroke-linecap:round;stroke-linejoin:round;stroke-miterlimit:4;stroke-dasharray:none;stroke-opacity:1"
         d="m 34.017093,19.05 -5.98684,1e-6"
         id="path937"
         inkscape:connector-curvature="0"
         sodipodi:nodetypes="cc" /><path
         sodipodi:nodetypes="csssssccsssssssssscsssssssssc"
         inkscape:connector-curvature="0"
         id="path871"
         d="m 25.801604,20.518693 c 0,0 0.606716,-0.480745 0.661092,-0.828306 0.157273,-1.005272 -1.252023,-1.460104 -1.543069,-1.414056 -2.121687,0.335681 -0.833927,2.745993 -1.652564,2.896321 -0.264654,0.0486 -0.552127,-0.06801 -0.778501,-0.213465 -0.510875,-0.328263 -0.8106,-1.363418 -1.321897,-1.691024 -0.846842,-0.5426 -2.75829,-0.497194 -2.75829,-0.497194 l -0.303593,1.079628 c 0,0 1.620885,0.191361 2.288534,0.61321 0.584796,0.369499 0.76096,1.210244 1.345756,1.579743 0.481587,0.304287 1.089085,0.537392 1.65076,0.44232 0.148093,-0.02507 0.226208,-0.286892 0.372619,-0.253367 0.739194,0.169254 0.535625,1.50866 1.137211,1.97034 0.452098,0.346957 1.19925,0.09561 1.651406,0.442493 0.638986,0.490211 0.569469,1.601946 1.208455,2.092158 0.451507,0.346383 1.084796,0.515842 1.649036,0.441858 0.399603,-0.0524 0.648113,-0.551046 1.047716,-0.603442 0.563946,-0.07394 1.08427,0.515867 1.648176,0.441627 0.79863,-0.105142 2.092805,-1.208283 2.092805,-1.208283 0,0 -1.278108,-0.603924 -1.943692,-0.520811 -0.254169,0.03174 -0.416442,0.343037 -0.670545,0.375304 -0.565057,0.07175 -1.090568,-0.529236 -1.652381,-0.435403 -0.228167,0.0381 -0.348832,0.348372 -0.577192,0.385312 -0.265626,0.04297 -0.566833,-0.04746 -0.778448,-0.213657 -0.489345,-0.384327 -0.416077,-1.248907 -0.906587,-1.631747 -0.44878,-0.350271 -1.186878,-0.110508 -1.64968,-0.442031 -0.594089,-0.425568 -1.347485,-1.103141 -1.218618,-1.822476 0.05029,-0.280725 -0.18736,-2.074368 0.193061,-2.120293 0.740668,-0.08942 0.80843,1.135241 0.80843,1.135241 z"
         style="display:inline;fill:#183905;fill-opacity:1;stroke:#191919;stroke-width:0.529167;stroke-miterlimit:4;stroke-dasharray:none;stroke-opacity:1"
         transform="matrix(1.8697352,0,0,1.8697352,-16.467598,-16.568453)" /><g
         id="g3"
         transform="matrix(2.0315247,0,0,2.0315247,-20.5879,-19.650693)"><path
           style="fill:#406824;fill-opacity:1;stroke:#191919;stroke-width:0.98909;stroke-dasharray:none;stroke-opacity:1"
           d="m 33.010636,20.247357 c -0.552441,0.751638 -1.869407,-0.545515 -2.535114,0.107912 -1.052569,1.033181 -1.963889,3.589492 -0.606553,4.16656 1.214036,0.516147 0.797865,-1.085556 1.492492,-0.575018 1.188442,0.873486 1.620814,3.021704 2.494298,1.833261 0.524125,-0.713116 0.351951,-1.44486 1.370782,-1.865059 0.859416,-0.354451 2.060389,0.537979 2.567481,-0.151966 0.530734,-0.722107 -0.74582,-1.48405 -0.664064,-2.437782 0.112671,-1.314382 0.896067,-1.219169 1.413402,-1.923045 0.873482,-1.188443 -1.305855,-0.959777 -2.494299,-1.83326 -0.694629,-0.510539 0.937553,-0.563312 0.08251,-1.567902 -0.955965,-1.123163 -3.122191,0.507765 -3.794027,1.820783 -0.424908,0.830423 1.225529,1.673867 0.673089,2.425503 z"
           id="path2"
           sodipodi:nodetypes="sssssssssssss"
           transform="matrix(0.5348351,0,0,0.5348351,8.8074495,8.8613901)" /><path
           sodipodi:nodetypes="cc"
           inkscape:connector-curvature="0"
           id="path929-0"
           d="M 28.159299,20.998169 26.874032,20.072936"
           style="display:inline;fill:none;stroke:#183905;stroke-width:0.279953;stroke-linecap:round;stroke-linejoin:round;stroke-miterlimit:4;stroke-dasharray:none;stroke-opacity:1" /><path
           sodipodi:nodetypes="cc"
           inkscape:connector-curvature="0"
           id="path929-0-4"
           d="m 28.618629,19.177204 -1.536211,0.384743"
           style="display:inline;fill:none;stroke:#183905;stroke-width:0.279953;stroke-linecap:round;stroke-linejoin:round;stroke-miterlimit:4;stroke-dasharray:none;stroke-opacity:1" /><path
           sodipodi:nodetypes="cc"
           inkscape:connector-curvature="0"
           id="path929-0-4-5"
           d="M 26.598308,22.049338 26.318355,20.490621"
           style="display:inline;fill:none;stroke:#183905;stroke-width:0.279953;stroke-linecap:round;stroke-linejoin:round;stroke-miterlimit:4;stroke-dasharray:none;stroke-opacity:1" /><path
           sodipodi:nodetypes="cc"
           inkscape:connector-curvature="0"
           id="path929-0-4-5-2"
           d="m 24.977414,21.166666 0.422585,-0.741661"
           style="display:inline;fill:none;stroke:#183905;stroke-width:0.279953;stroke-linecap:round;stroke-linejoin:round;stroke-miterlimit:4;stroke-dasharray:none;stroke-opacity:1" /><path
           sodipodi:nodetypes="cc"
           inkscape:connector-curvature="0"
           id="path929-0-4-5-2-5"
           d="m 26.846756,18.520685 0.508965,-0.529019"
           style="display:inline;fill:none;stroke:#183905;stroke-width:0.279953;stroke-linecap:round;stroke-linejoin:round;stroke-miterlimit:4;stroke-dasharray:none;stroke-opacity:1" /></g><path
         style="display:inline;fill:#aa6318;fill-opacity:1;stroke:#323232;stroke-width:2.02880007;stroke-linecap:butt;stroke-linejoin:miter;stroke-miterlimit:4;stroke-dasharray:none;stroke-opacity:1"
         inkscape:transform-center-y="-0.19717456"
         d="m 19.049999,15.626326 c 0.993155,0 1.635189,1.409815 1.635189,1.409815 0,0 1.539211,0.17495 1.846114,1.1195 0.306901,0.94455 -0.835513,1.99081 -0.835513,1.99081 0,0 0.309253,1.51794 -0.494226,2.10171 -0.80348,0.58376 -2.151564,-0.17943 -2.151564,-0.17943 0,0 -1.348083,0.76319 -2.151562,0.17943 -0.803478,-0.58377 -0.494227,-2.10171 -0.494227,-2.10171 0,0 -1.142413,-1.04626 -0.835512,-1.99081 0.306902,-0.94455 1.846115,-1.1195 1.846115,-1.1195 0,0 0.642033,-1.409815 1.635186,-1.409815 z"
         id="path941"
         inkscape:connector-curvature="0"
         sodipodi:nodetypes="scscscscscs" /></g></g></svg>
