<?xml version="1.0" encoding="UTF-8" standalone="no"?>
<svg
   width="144"
   height="144"
   viewBox="0 0 38.1 38.1"
   version="1.1"
   id="svg10"
   sodipodi:docname="map-pumpkin-res-04.svg"
   inkscape:version="1.4.2 (f4327f4, 2025-05-13)"
   xml:space="preserve"
   xmlns:inkscape="http://www.inkscape.org/namespaces/inkscape"
   xmlns:sodipodi="http://sodipodi.sourceforge.net/DTD/sodipodi-0.dtd"
   xmlns="http://www.w3.org/2000/svg"
   xmlns:svg="http://www.w3.org/2000/svg"
   xmlns:rdf="http://www.w3.org/1999/02/22-rdf-syntax-ns#"
   xmlns:cc="http://creativecommons.org/ns#"
   xmlns:dc="http://purl.org/dc/elements/1.1/"><metadata
     id="metadata16"><rdf:RDF><cc:Work
         rdf:about=""><dc:format>image/svg+xml</dc:format><dc:type
           rdf:resource="http://purl.org/dc/dcmitype/StillImage" /></cc:Work></rdf:RDF></metadata><defs
     id="defs14"><clipPath
       clipPathUnits="userSpaceOnUse"
       id="clipPath12"><path
         style="fill:none;fill-opacity:1;stroke:#323232;stroke-width:1.63118;stroke-linecap:butt;stroke-linejoin:miter;stroke-miterlimit:4;stroke-dasharray:none;stroke-opacity:1"
         d="M 2.8701844,4.2939183 C 1.5746053,5.7412511 0.94254131,9.6735262 0.94254131,9.6735262 c 0,0 4.86340659,2.0943858 7.40858859,2.5993618 L 9.5114059,8.6720484 7.386038,4.0540422 c 0,0 -2.6000835,-0.7639898 -4.5158536,0.2398761 z"
         id="path13"
         inkscape:connector-curvature="0"
         sodipodi:nodetypes="cccccc" /></clipPath><clipPath
       clipPathUnits="userSpaceOnUse"
       id="clipPath14"><path
         style="fill:none;fill-opacity:1;stroke:#323232;stroke-width:1.63118;stroke-linecap:butt;stroke-linejoin:miter;stroke-miterlimit:4;stroke-dasharray:none;stroke-opacity:1"
         d="M 10.316239,4.1552003 4.5376011,6.0564882 c 0,0 -0.472173,4.9668738 1.1699853,7.5474088 l 5.1137166,0.972885 c 0,0 4.075798,-2.454784 4.544985,-3.745052 L 13.955515,6.8347861 c 0,0 -1.293335,-1.9758033 -3.639276,-2.6795858 z"
         id="path15"
         inkscape:connector-curvature="0"
         sodipodi:nodetypes="ccccccc" /></clipPath><clipPath
       clipPathUnits="userSpaceOnUse"
       id="clipPath16"><path
         style="fill:none;fill-opacity:1;stroke:#323232;stroke-width:1.63118;stroke-linecap:butt;stroke-linejoin:miter;stroke-miterlimit:4;stroke-dasharray:none;stroke-opacity:1"
         d="M 10.316239,4.1552003 4.5376011,6.0564882 c 0,0 -0.472173,4.9668738 1.1699853,7.5474088 l 5.1137166,0.972885 c 0,0 4.075798,-2.454784 4.544985,-3.745052 L 13.955515,6.8347861 c 0,0 -1.293335,-1.9758033 -3.639276,-2.6795858 z"
         id="path17"
         inkscape:connector-curvature="0"
         sodipodi:nodetypes="ccccccc" /></clipPath><clipPath
       clipPathUnits="userSpaceOnUse"
       id="clipPath18"><path
         style="fill:none;fill-opacity:1;stroke:#323232;stroke-width:1.63118;stroke-linecap:butt;stroke-linejoin:miter;stroke-miterlimit:4;stroke-dasharray:none;stroke-opacity:1"
         d="M 10.316239,4.1552003 4.5376011,6.0564882 c 0,0 -0.472173,4.9668738 1.1699853,7.5474088 l 5.1137166,0.972885 c 0,0 4.075798,-2.454784 4.544985,-3.745052 L 13.955515,6.8347861 c 0,0 -1.293335,-1.9758033 -3.639276,-2.6795858 z"
         id="path19"
         inkscape:connector-curvature="0"
         sodipodi:nodetypes="ccccccc" /></clipPath><clipPath
       clipPathUnits="userSpaceOnUse"
       id="clipPath20"><path
         style="fill:none;fill-opacity:1;stroke:#323232;stroke-width:1.63118;stroke-linecap:butt;stroke-linejoin:miter;stroke-miterlimit:4;stroke-dasharray:none;stroke-opacity:1"
         d="M 10.316239,4.1552003 4.5376011,6.0564882 c 0,0 -0.472173,4.9668738 1.1699853,7.5474088 l 5.1137166,0.972885 c 0,0 4.075798,-2.454784 4.544985,-3.745052 L 13.955515,6.8347861 c 0,0 -1.293335,-1.9758033 -3.639276,-2.6795858 z"
         id="path21"
         inkscape:connector-curvature="0"
         sodipodi:nodetypes="ccccccc" /></clipPath></defs><sodipodi:namedview
     pagecolor="#ffffff"
     bordercolor="#666666"
     borderopacity="1"
     objecttolerance="10"
     gridtolerance="10"
     guidetolerance="10"
     inkscape:pageopacity="0"
     inkscape:pageshadow="2"
     inkscape:window-width="3440"
     inkscape:window-height="1351"
     id="namedview12"
     showgrid="true"
     inkscape:zoom="8.1281916"
     inkscape:cx="87.842418"
     inkscape:cy="71.664157"
     inkscape:window-x="-9"
     inkscape:window-y="-9"
     inkscape:window-maximized="1"
     inkscape:current-layer="svg10"
     inkscape:snap-nodes="false"
     inkscape:showpageshadow="2"
     inkscape:pagecheckerboard="0"
     inkscape:deskcolor="#d1d1d1"><inkscape:grid
       type="xygrid"
       id="grid823"
       empspacing="4"
       spacingy="1.0583333"
       spacingx="1.0583333"
       originx="0"
       originy="0"
       units="px" /></sodipodi:namedview><g
     id="g864"
     transform="matrix(0.97321979,0,0,0.97321979,9.7933105,9.5518565)"><path
       sodipodi:nodetypes="cccccscccccc"
       inkscape:connector-curvature="0"
       style="fill:#a92a03;fill-opacity:1;stroke:#2d2d2d;stroke-width:1.5875;stroke-miterlimit:4;stroke-dasharray:none"
       id="path2"
       d="m 11.849837,1.1646119 c 2.529672,0.4065544 2.955402,1.5894985 4.392895,3.1077674 1.437493,1.5177545 1.937575,2.3931567 2.052822,4.8189918 0.115761,2.4253199 -0.03772,4.0361899 -1.588918,5.6542699 -2.228274,1.889117 -3.137903,3.186211 -5.332216,3.301972 C 9.1795931,18.162859 6.4328407,18.328614 4.9289777,17.502338 3.4251145,16.676061 2.888113,15.558961 2.300562,14.337555 1.7130109,13.116663 0.75921573,11.701634 0.72988967,10.286263 0.70107805,8.870893 0.89298386,7.3268992 1.5067741,5.9614347 2.1205643,4.5964847 3.2170357,4.050446 4.2393333,3.2416628 5.2611166,2.4328797 6.2071825,1.3613525 7.3364948,1.0598595 9.9394912,0.65063059 11.0819,1.0742663 11.849837,1.1646119 Z"
       clip-path="url(#clipPath14)" /><path
       style="fill:#000000;fill-opacity:0.34117648;stroke:none;stroke-width:1.13252;stroke-linecap:square;stroke-linejoin:miter;stroke-miterlimit:4;stroke-dasharray:none;stroke-opacity:1;paint-order:fill markers stroke"
       d="m 16.69901,10.266589 c 0,0.987829 -1.007817,1.788623 -1.970843,1.788623 -0.963025,0 -1.516583,-0.800795 -1.516583,-1.788623 0,-0.9878302 0.942923,-1.5889264 1.905949,-1.5889264 0.963026,0 1.581477,0.6010962 1.581477,1.5889264 z"
       id="path835"
       inkscape:connector-curvature="0"
       sodipodi:nodetypes="sssss"
       clip-path="url(#clipPath16)" /><path
       style="fill:#000000;fill-opacity:0.34117648;stroke:none;stroke-width:0.553575;stroke-linecap:square;stroke-linejoin:miter;stroke-miterlimit:4;stroke-dasharray:none;stroke-opacity:1;paint-order:fill markers stroke"
       d="m 12.28031,12.979661 c 0.05837,0.577521 -0.296435,1.142198 -0.680676,1.234416 -0.384242,0.09222 -0.652421,-0.322952 -0.710786,-0.900476 -0.05837,-0.57752 0.282343,-1.019234 0.666585,-1.11145 0.384242,-0.09222 0.666516,0.199988 0.72488,0.77751 z"
       id="path841"
       inkscape:connector-curvature="0"
       sodipodi:nodetypes="sssss"
       clip-path="url(#clipPath18)" /><path
       style="fill:#000000;fill-opacity:0.33982036;stroke:none;stroke-width:0.959074;stroke-linecap:square;stroke-linejoin:miter;stroke-miterlimit:4;stroke-dasharray:none;stroke-opacity:1;paint-order:fill markers stroke"
       d="M 4.3907012,8.0771948 C 3.9398571,7.3450178 4.1741191,6.1418459 4.7472076,5.5593147 5.3202959,4.9767835 6.0151938,5.2354853 6.4660374,5.9676621 6.9168815,6.699839 6.630096,7.7157409 6.0570077,8.2982719 5.4839194,8.8808038 4.8415449,8.8093703 4.3907012,8.0771948 Z"
       id="path843"
       inkscape:connector-curvature="0"
       sodipodi:nodetypes="sssss"
       clip-path="url(#clipPath20)" /><path
       style="fill:none;fill-opacity:1;stroke:#323232;stroke-width:1.5875;stroke-linecap:butt;stroke-linejoin:miter;stroke-miterlimit:4;stroke-dasharray:none;stroke-opacity:1"
       d="m 18.174048,12.924884 -5.623885,1.850371 c 0,0 -0.459528,4.83386 1.138653,7.345288 l 4.97677,0.946831 c 0,0 3.966647,-2.389045 4.42327,-3.644759 L 21.715863,15.53271 c 0,0 -1.258699,-1.922891 -3.541815,-2.607826 z"
       id="path20"
       inkscape:connector-curvature="0"
       sodipodi:nodetypes="ccccccc"
       transform="matrix(1.0275171,0,0,1.0275171,-8.357906,-9.125339)" /></g><path
     sodipodi:nodetypes="scscscscscs"
     inkscape:connector-curvature="0"
     id="path1075"
     d="m 21.474213,19.56896 c -0.178289,0.665384 -1.238076,0.842442 -1.238076,0.842442 0,0 -0.393527,0.999817 -1.081441,1.03587 -0.687915,0.03605 -1.183793,-0.917156 -1.183793,-0.917156 0,0 -1.072488,-0.06531 -1.319359,-0.70841 -0.246862,-0.643102 0.506463,-1.40927 0.506463,-1.40927 0,0 -0.26931,-1.040179 0.266025,-1.473692 0.535347,-0.433508 1.496803,0.04618 1.496803,0.04618 0,0 0.906046,-0.57756 1.483772,-0.202383 0.577725,0.375179 0.41862,1.437812 0.41862,1.437812 0,0 0.829277,0.683228 0.650986,1.348609 z"
     inkscape:transform-center-y="0.13259795"
     style="fill:#924a33;fill-opacity:1;stroke:#323232;stroke-width:1.10109496;stroke-linecap:butt;stroke-linejoin:miter;stroke-miterlimit:4;stroke-dasharray:none;stroke-opacity:1"
     inkscape:transform-center-x="-0.00035960416" /><g
     id="g1"
     transform="translate(1.659231,0.670896)" /><g
     id="g9"
     transform="matrix(0.57337922,0,0,0.57337922,6.7580226,4.0917459)"><path
       sodipodi:nodetypes="cccccscccccc"
       inkscape:connector-curvature="0"
       style="fill:#a92a03;fill-opacity:1;stroke:#2d2d2d;stroke-width:1.5875;stroke-miterlimit:4;stroke-dasharray:none"
       id="path1"
       d="m 11.849837,1.1646119 c 2.529672,0.4065544 2.955402,1.5894985 4.392895,3.1077674 1.437493,1.5177545 1.937575,2.3931567 2.052822,4.8189918 0.115761,2.4253199 -0.03772,4.0361899 -1.588918,5.6542699 -2.228274,1.889117 -3.137903,3.186211 -5.332216,3.301972 C 9.1795931,18.162859 6.4328407,18.328614 4.9289777,17.502338 3.4251145,16.676061 2.888113,15.558961 2.300562,14.337555 1.7130109,13.116663 0.75921573,11.701634 0.72988967,10.286263 0.70107805,8.870893 0.89298386,7.3268992 1.5067741,5.9614347 2.1205643,4.5964847 3.2170357,4.050446 4.2393333,3.2416628 5.2611166,2.4328797 6.2071825,1.3613525 7.3364948,1.0598595 9.9394912,0.65063059 11.0819,1.0742663 11.849837,1.1646119 Z"
       clip-path="url(#clipPath12)" /><path
       style="fill:#000000;fill-opacity:0.33982;stroke:none;stroke-width:0.959074;stroke-linecap:square;stroke-linejoin:miter;stroke-miterlimit:4;stroke-dasharray:none;stroke-opacity:1;paint-order:fill markers stroke"
       d="M 4.3907012,8.0771948 C 3.9398571,7.3450178 4.1741191,6.1418459 4.7472076,5.5593147 5.3202959,4.9767835 6.0151938,5.2354853 6.4660374,5.9676621 6.9168815,6.699839 6.630096,7.7157409 6.0570077,8.2982719 5.4839194,8.8808038 4.8415449,8.8093703 4.3907012,8.0771948 Z"
       id="path8"
       inkscape:connector-curvature="0"
       sodipodi:nodetypes="sssss" /><path
       style="fill:none;fill-opacity:1;stroke:#323232;stroke-width:1.63118;stroke-linecap:butt;stroke-linejoin:miter;stroke-miterlimit:4;stroke-dasharray:none;stroke-opacity:1"
       d="m 2.8701845,4.2939182 c -1.2955791,1.4473329 -1.92764307,5.379608 -1.92764307,5.379608 0,0 4.86340647,2.0943858 7.40858847,2.5993618 L 9.5114059,8.6720485 7.3860379,4.0540423 c 0,0 -2.6000835,-0.7639898 -4.5158534,0.2398759 z"
       id="path12"
       inkscape:connector-curvature="0"
       sodipodi:nodetypes="cccccc" /></g></svg>
