<?xml version="1.0" encoding="UTF-8" standalone="no"?>
<svg
   width="512"
   height="512"
   viewBox="0 0 135.466 135.466"
   version="1.1"
   id="svg2"
   sodipodi:docname="map-tree-03ch.svg"
   inkscape:version="1.4 (e7c3feb1, 2024-10-09)"
   xml:space="preserve"
   xmlns:inkscape="http://www.inkscape.org/namespaces/inkscape"
   xmlns:sodipodi="http://sodipodi.sourceforge.net/DTD/sodipodi-0.dtd"
   xmlns="http://www.w3.org/2000/svg"
   xmlns:svg="http://www.w3.org/2000/svg"><defs
     id="defs2" /><sodipodi:namedview
     id="namedview2"
     pagecolor="#ffffff"
     bordercolor="#000000"
     borderopacity="0.25"
     inkscape:showpageshadow="2"
     inkscape:pageopacity="0.0"
     inkscape:pagecheckerboard="0"
     inkscape:deskcolor="#d1d1d1"
     inkscape:zoom="0.61596157"
     inkscape:cx="252.45081"
     inkscape:cy="323.0721"
     inkscape:window-width="1104"
     inkscape:window-height="537"
     inkscape:window-x="51"
     inkscape:window-y="34"
     inkscape:window-maximized="0"
     inkscape:current-layer="svg2" /><path
     d="m 126.184,101.16094 c -3.568,5.998 -11.34,3.606 -16.336,8.506 -4.996,4.9 -2.358,13.088 -8.43,16.54 -6.074001,3.456 -11.920001,-3.02 -18.694001,-1.294 -6.774,1.728 -8.136,10.208 -15.146,10.168 -7.01,-0.04 -9.02,-8.444 -15.746,-10.316 -6.724,-1.872 -12.072,4.044 -18.136,0.58 -6.066,-3.468 -3.16,-11.008 -8.124,-15.934 -4.966,-4.926 -12.706,-2.164 -16.1900001,-8.22 -3.482,-6.060004 2.6040001,-11.770004 0.7760001,-18.512004 -1.8280001,-6.744 -10.08400014,-8.632 -10.07800014,-15.586 0.008,-6.952 8.75800004,-8.668 10.56800014,-15.384 1.812,-6.714 -4.5860001,-12.148 -1.0040001,-18.152 3.5800001,-6.004 11.1480001,-3.37 16.1000001,-8.31 4.952,-4.94 2.63,-12.376 8.7,-15.8159998 6.068,-3.44 11.65,2.9659998 18.424,1.1679998 6.774,-1.7999998 8.192,-10.20399978 15.194,-10.21399978 7.006,-0.012 8.294,7.99199998 15.022,9.83799978 6.73,1.846 12.746,-4.5439998 18.776001,-1.0379998 6.032,3.5059998 3.306,11.5799998 8.198,16.5539998 4.892,4.974 12.848,2.236 16.35,8.284 3.502,6.05 -3.144,11.526 -1.404,18.274 1.74,6.748 10.39,8.382 10.382,15.35 -0.006,6.966 -8.338,8.906 -10.198,15.62 -1.86,6.712 4.562,11.898 0.996,17.894004 z"
     fill="#3e502e"
     fill-opacity="0.941"
     id="path1"
     style="stroke-width:2" /><path
     d="m 83.236897,81.792748 c -0.959506,1.09702 -4.941768,1.441434 -6.183482,2.181284 -1.241714,0.733472 -3.499374,4.094688 -4.90414,4.400834 -1.411038,0.3189 -4.828886,-1.785846 -6.26501,-1.93254 -1.429852,-0.1467 -5.19262,1.218202 -6.509588,0.631424 -1.316968,-0.586778 -2.872246,-4.337054 -3.950906,-5.306514 -1.07239,-0.975836 -4.910412,-2.117502 -5.63161,-3.38035 -0.727468,-1.269226 0.18186,-5.229976 -0.12542,-6.658652 -0.313564,-1.428678 -2.74682,-4.649578 -2.60258,-6.103766 0.13796,-1.460566 3.160724,-4.1202 3.743954,-5.459584 0.576958,-1.339386 0.464074,-5.402184 1.417308,-6.499204 0.959506,-1.084262 4.94177,-1.435054 6.183482,-2.168526 1.247986,-0.746228 3.499376,-4.101068 4.910414,-4.41359 1.404766,-0.306144 4.828884,1.785846 6.258736,1.938918 1.429852,0.1467 5.198892,-1.22458 6.51586,-0.637802 1.31697,0.593156 2.872246,4.337054 3.950906,5.31289 1.066118,0.975838 4.904142,2.117504 5.63161,3.380352 0.721198,1.269226 -0.18814,5.229976 0.12542,6.658652 0.301022,1.428676 2.74682,4.649576 2.602582,6.103766 -0.14424,1.454188 -3.166998,4.1202 -3.743956,5.459584 -0.583228,1.339384 -0.464074,5.402184 -1.42358,6.492824 z"
     fill="#462d12"
     stroke="#1b1917"
     stroke-width="4.07292"
     id="path2" /><g
     id="g7"
     transform="matrix(2,0,0,2,-1.1384321e-6,-0.00106378)"><circle
       id="circle2"
       cx="32.298546"
       cy="-38.856339"
       r="1.442928"
       style="fill:#de0000;fill-opacity:1;stroke:#070707;stroke-width:0.582534;stroke-miterlimit:4;stroke-dasharray:none;stroke-opacity:1"
       transform="rotate(75)" /><circle
       style="fill:#de0000;fill-opacity:1;stroke:#070707;stroke-width:0.582534;stroke-miterlimit:4;stroke-dasharray:none;stroke-opacity:1"
       r="1.442928"
       cy="-23.503296"
       cx="59.475174"
       id="circle3"
       transform="rotate(75)" /><circle
       id="circle4"
       cx="49.857471"
       cy="-8.5914612"
       r="1.442928"
       style="fill:#de0000;fill-opacity:1;stroke:#070707;stroke-width:0.582534;stroke-miterlimit:4;stroke-dasharray:none;stroke-opacity:1"
       transform="rotate(75)" /><circle
       style="fill:#de0000;fill-opacity:1;stroke:#070707;stroke-width:0.582534;stroke-miterlimit:4;stroke-dasharray:none;stroke-opacity:1"
       r="1.442928"
       cy="-8.9443893"
       cx="32.122074"
       id="circle5"
       transform="rotate(75)" /><circle
       id="circle6"
       cx="23.298496"
       cy="-23.856266"
       r="1.442928"
       style="fill:#de0000;fill-opacity:1;stroke:#070707;stroke-width:0.582534;stroke-miterlimit:4;stroke-dasharray:none;stroke-opacity:1"
       transform="rotate(75)" /><circle
       id="circle7"
       cx="50.563358"
       cy="-39.385742"
       r="1.442928"
       style="fill:#de0000;fill-opacity:1;stroke:#070707;stroke-width:0.582534;stroke-miterlimit:4;stroke-dasharray:none;stroke-opacity:1"
       transform="rotate(75)" /></g><g
     transform="matrix(-0.34525388,1.288505,-1.288505,-0.34525388,417.88186,114.2486)"
     id="g1407"
     style="fill:#eac700;fill-opacity:1;stroke:#070707;stroke-width:0.873392;stroke-miterlimit:4;stroke-dasharray:none;stroke-opacity:1"><circle
       id="circle1395"
       cx="20.628044"
       cy="240.27866"
       r="2.1633775"
       style="fill:#eac700;fill-opacity:1;stroke:#070707;stroke-width:0.873392;stroke-miterlimit:4;stroke-dasharray:none;stroke-opacity:1" /><circle
       style="fill:#eac700;fill-opacity:1;stroke:#070707;stroke-width:0.873392;stroke-miterlimit:4;stroke-dasharray:none;stroke-opacity:1"
       r="2.1633775"
       cy="263.29742"
       cx="61.373882"
       id="circle1397" /><circle
       id="circle1399"
       cx="46.954086"
       cy="285.65469"
       r="2.1633775"
       style="fill:#eac700;fill-opacity:1;stroke:#070707;stroke-width:0.873392;stroke-miterlimit:4;stroke-dasharray:none;stroke-opacity:1" /><circle
       style="fill:#eac700;fill-opacity:1;stroke:#070707;stroke-width:0.873392;stroke-miterlimit:4;stroke-dasharray:none;stroke-opacity:1"
       r="2.1633775"
       cy="285.12555"
       cx="20.363462"
       id="circle1401" /><circle
       id="circle1403"
       cx="7.1342959"
       cy="262.76822"
       r="2.1633775"
       style="fill:#eac700;fill-opacity:1;stroke:#070707;stroke-width:0.873392;stroke-miterlimit:4;stroke-dasharray:none;stroke-opacity:1" /><circle
       id="circle1405"
       cx="48.012421"
       cy="239.48492"
       r="2.1633775"
       style="fill:#eac700;fill-opacity:1;stroke:#070707;stroke-width:0.873392;stroke-miterlimit:4;stroke-dasharray:none;stroke-opacity:1" /></g><g
     id="g11"
     transform="matrix(2,0,0,2,-1.1384321e-6,-0.00106378)"><circle
       id="circle827"
       cx="34.074627"
       cy="7.1134176"
       r="2.2059476"
       style="fill:#00e147;fill-opacity:1;stroke:#0b0b0b;stroke-width:0.674474;stroke-miterlimit:4;stroke-dasharray:none;stroke-opacity:1" /><circle
       style="fill:#00e147;fill-opacity:1;stroke:#0b0b0b;stroke-width:0.674474;stroke-miterlimit:4;stroke-dasharray:none;stroke-opacity:1"
       r="2.2059476"
       cy="20.343508"
       cx="10.73782"
       id="circle845" /><circle
       id="circle847"
       cx="9.6586609"
       cy="47.716755"
       r="2.2059476"
       style="fill:#00e147;fill-opacity:1;stroke:#0b0b0b;stroke-width:0.674474;stroke-miterlimit:4;stroke-dasharray:none;stroke-opacity:1" /><circle
       style="fill:#00e147;fill-opacity:1;stroke:#0b0b0b;stroke-width:0.674474;stroke-miterlimit:4;stroke-dasharray:none;stroke-opacity:1"
       r="2.2059476"
       cy="60.801567"
       cx="33.939735"
       id="circle849" /><circle
       id="circle851"
       cx="57.951015"
       cy="47.716785"
       r="2.2059476"
       style="fill:#00e147;fill-opacity:1;stroke:#0b0b0b;stroke-width:0.674474;stroke-miterlimit:4;stroke-dasharray:none;stroke-opacity:1" /><circle
       style="fill:#00e147;fill-opacity:1;stroke:#0b0b0b;stroke-width:0.674474;stroke-miterlimit:4;stroke-dasharray:none;stroke-opacity:1"
       r="2.2059476"
       cy="20.208611"
       cx="58.085918"
       id="circle853" /></g><g
     id="g10"
     transform="matrix(2,0,0,2,-1.1384321e-6,-0.00106378)"><circle
       style="fill:#0344f2;fill-opacity:1;stroke:#0b0b0b;stroke-width:0.654833;stroke-miterlimit:4;stroke-dasharray:none;stroke-opacity:1"
       r="2.1713126"
       cy="10.323239"
       cx="20.120247"
       id="circle817" /><circle
       id="circle837"
       cx="61.015537"
       cy="33.955605"
       r="2.1713126"
       style="fill:#0344f2;fill-opacity:1;stroke:#0b0b0b;stroke-width:0.654833;stroke-miterlimit:4;stroke-dasharray:none;stroke-opacity:1" /><circle
       style="fill:#0344f2;fill-opacity:1;stroke:#0b0b0b;stroke-width:0.654833;stroke-miterlimit:4;stroke-dasharray:none;stroke-opacity:1"
       r="2.1713126"
       cy="56.924038"
       cx="47.072014"
       id="circle839" /><circle
       id="circle841"
       cx="20.383858"
       cy="56.922119"
       r="2.1713126"
       style="fill:#0344f2;fill-opacity:1;stroke:#0b0b0b;stroke-width:0.654833;stroke-miterlimit:4;stroke-dasharray:none;stroke-opacity:1" /><circle
       style="fill:#0344f2;fill-opacity:1;stroke:#0b0b0b;stroke-width:0.654833;stroke-miterlimit:4;stroke-dasharray:none;stroke-opacity:1"
       r="2.1713126"
       cy="33.953621"
       cx="7.1061683"
       id="circle843" /><circle
       style="fill:#0344f2;fill-opacity:1;stroke:#0b0b0b;stroke-width:0.654833;stroke-miterlimit:4;stroke-dasharray:none;stroke-opacity:1"
       r="2.1713126"
       cy="10.055761"
       cx="48.134232"
       id="circle855" /></g></svg>
