<?xml version="1.0" encoding="UTF-8" standalone="no"?>
<svg width="160" height="160" viewBox="0 0 42.333334 42.333334" version="1.1" id="svg6" sodipodi:docname="map-stone-04x.svg" inkscape:version="1.4.2 (ebf0e940d0, 2025-05-08)" xml:space="preserve" xmlns:inkscape="http://www.inkscape.org/namespaces/inkscape" xmlns:sodipodi="http://sodipodi.sourceforge.net/DTD/sodipodi-0.dtd" xmlns="http://www.w3.org/2000/svg" xmlns:svg="http://www.w3.org/2000/svg" xmlns:rdf="http://www.w3.org/1999/02/22-rdf-syntax-ns#" xmlns:cc="http://creativecommons.org/ns#" xmlns:dc="http://purl.org/dc/elements/1.1/"><metadata id="metadata12"><rdf:RDF><cc:Work rdf:about=""><dc:format>image/svg+xml</dc:format><dc:type rdf:resource="http://purl.org/dc/dcmitype/StillImage" /></cc:Work></rdf:RDF></metadata><defs id="defs10"><inkscape:path-effect effect="fillet_chamfer" id="path-effect2" is_visible="true" lpeversion="1" nodesatellites_param="F,0,0,1,0,0,0,1 @ F,0,0,1,0,2.9129418,0,1 @ F,0,0,1,0,0,0,1 @ F,0,0,1,0,0,0,1" radius="0" unit="px" method="auto" mode="F" chamfer_steps="1" flexible="false" use_knot_distance="true" apply_no_radius="true" apply_with_radius="true" only_selected="false" hide_knots="false" /><clipPath clipPathUnits="userSpaceOnUse" id="clipPath4602"><rect ry="3.175" rx="3.175" style="fill:#3d3632;fill-opacity:1;stroke:none;stroke-width:2.38125;stroke-linecap:butt;stroke-linejoin:miter;stroke-miterlimit:4;stroke-dasharray:none;stroke-opacity:1" id="rect4604" width="38.099998" height="38.099998" x="0" y="1.2e-06" /></clipPath><clipPath clipPathUnits="userSpaceOnUse" id="clipPath4626"><rect y="7.4083343" x="7.4083333" height="23.283333" width="23.283333" id="rect4628" style="fill:#635851;fill-opacity:1;stroke:none;stroke-width:5.23875;stroke-linecap:butt;stroke-linejoin:miter;stroke-miterlimit:4;stroke-dasharray:none;stroke-opacity:1" /></clipPath></defs><sodipodi:namedview pagecolor="#ffffff" bordercolor="#666666" borderopacity="1" objecttolerance="10" gridtolerance="10" guidetolerance="10" inkscape:pageopacity="0" inkscape:pageshadow="2" inkscape:window-width="1464" inkscape:window-height="920" id="namedview8" showgrid="true" inkscape:showpageshadow="false" inkscape:zoom="3.6504358" inkscape:cx="91.769865" inkscape:cy="98.755333" inkscape:window-x="52" inkscape:window-y="34" inkscape:window-maximized="1" inkscape:current-layer="g2" inkscape:pagecheckerboard="0" inkscape:deskcolor="#d1d1d1"><inkscape:grid type="xygrid" id="grid4534" empspacing="4" spacingy="1.0583333" spacingx="1.0583333" originx="0" originy="0" units="px" /></sodipodi:namedview><g id="g2" transform="translate(-40.5485,-31.408169)"><rect y="1.2e-06" x="0" height="38.099998" width="38.099998" id="rect4600" style="fill:#77c4dd;fill-opacity:1;stroke:#0a0a0a;stroke-width:3.96875;stroke-linecap:butt;stroke-linejoin:miter;stroke-miterlimit:4;stroke-dasharray:none;stroke-opacity:1" rx="3.175" ry="3.175" clip-path="url(#clipPath4602)" transform="translate(42.540548,33.373898)" /><rect style="fill:#257a93;fill-opacity:1;stroke:none;stroke-width:5.715;stroke-linecap:butt;stroke-linejoin:miter;stroke-miterlimit:4;stroke-dasharray:none;stroke-opacity:1" id="rect4618" width="25.399998" height="25.4" x="49.015167" y="39.874836" /><path style="fill:none;stroke:#0a0a0a;stroke-width:1.98438;stroke-linecap:butt;stroke-linejoin:miter;stroke-miterlimit:4;stroke-dasharray:none;stroke-opacity:1" d="M 44.781835,35.641503 53.2485,44.10817" id="path4572" inkscape:connector-curvature="0" sodipodi:nodetypes="cc" /><path sodipodi:nodetypes="cc" inkscape:connector-curvature="0" id="path4574" d="M 78.648499,35.641503 70.181833,44.10817" style="fill:none;stroke:#0a0a0a;stroke-width:1.98438;stroke-linecap:butt;stroke-linejoin:miter;stroke-miterlimit:4;stroke-dasharray:none;stroke-opacity:1" /><path sodipodi:nodetypes="cc" inkscape:connector-curvature="0" id="path4576" d="M 78.648499,69.508168 70.181833,61.041502" style="fill:none;stroke:#0a0a0a;stroke-width:1.98438;stroke-linecap:butt;stroke-linejoin:miter;stroke-miterlimit:4;stroke-dasharray:none;stroke-opacity:1" /><path style="fill:none;stroke:#0a0a0a;stroke-width:1.98438;stroke-linecap:butt;stroke-linejoin:miter;stroke-miterlimit:4;stroke-dasharray:none;stroke-opacity:1" d="M 44.781835,69.508168 53.2485,61.041502" id="path4578" inkscape:connector-curvature="0" sodipodi:nodetypes="cc" /><rect style="fill:#b2eaff;fill-opacity:1;stroke:#0a0a0a;stroke-width:3.96875;stroke-linecap:butt;stroke-linejoin:miter;stroke-miterlimit:4;stroke-dasharray:none;stroke-opacity:1" id="rect4624" width="23.283333" height="23.283333" x="7.4083333" y="7.4083343" clip-path="url(#clipPath4626)" transform="translate(42.665168,33.524835)" /><path inkscape:connector-curvature="0" style="fill:#0060a0;fill-opacity:0.560606;stroke:none;stroke-width:1.55828;stroke-linecap:round;stroke-linejoin:round;stroke-miterlimit:4;stroke-dasharray:none;stroke-opacity:1" d="m 61.715164,59.671645 a 7.096811,7.096811 0 0 0 7.096813,-7.096813 7.096811,7.096811 0 0 0 -7.096813,-7.096806 7.096811,7.096811 0 0 0 -7.096807,7.096806 7.096811,7.096811 0 0 0 7.096807,7.096813 z m 0,-3.692926 c -3.471353,0 -6.242706,-3.023263 -6.357931,-3.151799 -0.128504,-0.143664 -0.128504,-0.360509 0,-0.504167 0.115254,-0.128539 2.886629,-3.151801 6.35793,-3.151801 3.471304,0 6.24269,3.023262 6.357933,3.151801 0.128531,0.143657 0.128531,0.360503 0,0.504167 -0.115243,0.128536 -2.886579,3.151799 -6.357932,3.151799 z m 0,-0.756626 c 1.459594,0 2.647261,-1.187665 2.647261,-2.647261 0,-1.459595 -1.187667,-2.647253 -2.647261,-2.647253 -1.459592,0 -2.647254,1.187658 -2.647254,2.647253 0,1.459596 1.187662,2.647261 2.647254,2.647261 z m -0.01623,-0.756253 c -0.308982,0 -0.596379,-0.08165 -0.854205,-0.213642 0.287324,-0.205863 0.476077,-0.540647 0.476077,-0.921107 0,-0.744335 -0.718766,-1.32007 -1.480351,-1.074872 0.152638,-0.890617 0.925001,-1.572387 1.858478,-1.572387 1.042626,0 1.891008,0.848377 1.891008,1.891 0,1.042629 -0.848382,1.891008 -1.891007,1.891008 z" id="path874-8-3" /><path style="fill:#f8f7f7;fill-opacity:1;stroke:#000000;stroke-width:3.175;stroke-linecap:butt;stroke-linejoin:miter;stroke-miterlimit:4;stroke-dasharray:none;stroke-opacity:0.196078" d="M 40.5485,58.924834 C 40.056073,48.757668 40.270471,39.010901 40.430766,34.318061 c 0.05491,-1.607466 1.42049,-2.97129 3.028167,-3.030509 13.335613,-0.491214 22.509872,0.01248 22.509872,0.01248 -2.116666,10.583332 -3.606861,12.11012 -12.75071,15.2793 C 42.803048,50.189097 46.857156,56.666998 40.5485,58.924834 Z" id="path897" inkscape:connector-curvature="0" sodipodi:nodetypes="cccsc" inkscape:path-effect="#path-effect2" inkscape:original-d="m 40.5485,58.924834 c -0.686123,-14.166419 0,-27.516665 0,-27.516665 14.892902,-0.686123 25.420305,-0.108138 25.420305,-0.108138 -2.116666,10.583332 -3.606861,12.11012 -12.75071,15.2793 C 42.803048,50.189097 46.857156,56.666998 40.5485,58.924834 Z" transform="translate(2.0325662,2.149116)" /></g></svg>
