<?xml version="1.0" encoding="UTF-8" standalone="no"?>
<svg
   width="768.00006"
   height="608.00006"
   viewBox="0 0 203.19994 160.86663"
   version="1.1"
   id="svg24"
   sodipodi:docname="map-bunker-twins-compartment-floor-01.svg"
   inkscape:version="1.4 (e7c3feb1, 2024-10-09)"
   xml:space="preserve"
   xmlns:inkscape="http://www.inkscape.org/namespaces/inkscape"
   xmlns:sodipodi="http://sodipodi.sourceforge.net/DTD/sodipodi-0.dtd"
   xmlns:xlink="http://www.w3.org/1999/xlink"
   xmlns="http://www.w3.org/2000/svg"
   xmlns:svg="http://www.w3.org/2000/svg"><sodipodi:namedview
     id="namedview24"
     pagecolor="#ffffff"
     bordercolor="#000000"
     borderopacity="0.25"
     inkscape:showpageshadow="2"
     inkscape:pageopacity="0.0"
     inkscape:pagecheckerboard="0"
     inkscape:deskcolor="#d1d1d1"
     inkscape:zoom="4.589778"
     inkscape:cx="148.59106"
     inkscape:cy="396.4244"
     inkscape:window-width="1920"
     inkscape:window-height="1022"
     inkscape:window-x="0"
     inkscape:window-y="128"
     inkscape:window-maximized="1"
     inkscape:current-layer="svg24"
     showgrid="true"
     inkscape:clip-to-page="false"><inkscape:grid
       id="grid1"
       units="px"
       originx="0"
       originy="0"
       spacingx="1.058333"
       spacingy="1.058333"
       empcolor="#0099e5"
       empopacity="0.30196078"
       color="#0099e5"
       opacity="0.14901961"
       empspacing="8"
       enabled="true"
       visible="true" /></sodipodi:namedview><defs
     id="defs5"><clipPath
       id="g"><path
         d="m -8.467,12.7 h 40.504 c 9.254,8.466 9.254,21.166 9.254,21.166 0,0 0,12.7 -9.254,21.167 H -8.467 Z"
         id="path13"
         inkscape:connector-curvature="0"
         style="fill:#051021;stroke-width:2.452" /></clipPath><clipPath
       id="h"><path
         d="m 95.25,364.067 v 10.63 c -0.8,-0.485 -2.117,-1.059 -2.117,-1.059 v -9.571 z"
         id="path16"
         inkscape:connector-curvature="0"
         style="fill:#640000;stroke-width:3.074;stroke-opacity:0.706" /></clipPath><clipPath
       id="i"><path
         d="m 98.425,364.067 v 13.044 c 0,0 -1.211,-1.11 -2.117,-1.786 v -11.258 z"
         id="path19"
         inkscape:connector-curvature="0"
         style="fill:#00640c;stroke-width:4.127;stroke-opacity:0.706" /></clipPath><clipPath
       id="j"><path
         d="m 80.994,374.65 c 0,0 -3.35,1.08 -4.42,2.117 l -6.724,0.022 v 3.175 H 63.5 v -2.117 h 4.233 v -3.197 z"
         id="path22"
         inkscape:connector-curvature="0"
         style="fill:#0097f0;fill-opacity:0.584;stroke-width:1.058;stroke-opacity:0.197" /></clipPath><clipPath
       id="k"><path
         clip-path="url(#c-5)"
         d="m 63.5,396.897 v 2.117 h 8.487 c 0,0 -0.78,-1.059 -1.145,-2.117 z"
         id="path28-5"
         inkscape:connector-curvature="0"
         style="fill:#0097f0;fill-opacity:0.584;stroke-width:1.058;stroke-opacity:0.197" /></clipPath><clipPath
       id="c-5"><path
         d="m 63.5,396.897 v 2.117 h 8.487 c 0,0 -0.78,-1.059 -1.145,-2.117 z"
         id="path25-8"
         inkscape:connector-curvature="0"
         style="fill:#0097f0;fill-opacity:0.584;stroke-width:1.058;stroke-opacity:0.197" /></clipPath><clipPath
       clipPathUnits="userSpaceOnUse"
       id="clipPath20"><path
         id="path21"
         d="m 512.00003,1056.0022 10e-5,-31.9999 -32.00016,-1e-4 6e-5,544.0002 H -96.000001 v -352 H 352.00003 l 2.4e-4,-192.0002 -32.00027,1e-4 3e-5,160.0001 H -128 v 416 h 639.99999 z"
         style="fill:#1a1c21;fill-opacity:1;stroke:none;stroke-width:3.17501;stroke-miterlimit:4;stroke-dasharray:none;stroke-opacity:0.705882"
         clip-path="none"
         sodipodi:nodetypes="cccccccccccccc" /></clipPath><filter
       inkscape:collect="always"
       style="color-interpolation-filters:sRGB"
       id="filter2377"
       x="-0.031611914"
       width="1.0632238"
       y="-0.033114681"
       height="1.0662294"><feGaussianBlur
         inkscape:collect="always"
         stdDeviation="2.4553388"
         id="feGaussianBlur2379" /></filter><pattern
       inkscape:collect="always"
       xlink:href="#a-1"
       id="pattern2267"
       patternTransform="matrix(0.06614598,0,0,0.06614598,55.033194,-287.86745)" /><pattern
       patternUnits="userSpaceOnUse"
       width="128"
       height="128"
       patternTransform="matrix(.26458 0 0 .26458 -67.733 -33.867)"
       id="a-1"><path
         fill="none"
         stroke-width="3.78"
         d="M0 0h128v128H0z"
         id="path31-7" /><path
         d="M0 0h128v128H0z"
         fill="#e0e0e0"
         stroke-width="15.118"
         stroke-miterlimit="10"
         id="path33-7" /><path
         d="M60 128V68H0v-8h60V0h8v60h60v8H68v60z"
         fill-opacity=".076"
         stroke-width="1.414"
         id="path35-1" /></pattern></defs><path
     inkscape:connector-curvature="0"
     style="fill:#130902;fill-opacity:0.945;stroke-width:2.55099;filter:url(#filter2377)"
     d="m 127.09188,-33.866716 h 67.78587 V 144.08496 H 8.4666079 l 7e-7,-127.108301 118.6252714,-1e-6 z"
     id="path38"
     sodipodi:nodetypes="ccccccc"
     transform="matrix(0.99922459,0,0,0.99914763,0.00662092,-0.0288058)" /><path
     d="m 142.87534,-8.4666625 h 35.98342 V 128.0586 H 24.341726 V 32.808446 H 142.87534 Z"
     id="path38-9"
     inkscape:connector-curvature="0"
     style="fill:url(#pattern2267);fill-opacity:1;stroke-width:1.24394"
     sodipodi:nodetypes="ccccccc" /><path
     d="m 46.25274,91.148908 v 7.937497 h -2.645832 v -7.937497 z"
     id="path1446"
     inkscape:connector-curvature="0"
     style="fill-opacity:0.584;stroke-width:1.11794"
     sodipodi:nodetypes="ccccc" /><path
     d="m 50.006281,121.70831 v 5.29168 h -2.645832 v -5.29168 z"
     id="path1446-8"
     inkscape:connector-curvature="0"
     style="fill-opacity:0.584;stroke-width:1.11794"
     sodipodi:nodetypes="ccccc" /><path
     sodipodi:nodetypes="ccccc"
     style="fill-opacity:0.584;stroke-width:1.11797"
     inkscape:connector-curvature="0"
     id="path1448-7"
     d="M 69.056305,90.487417 V 106.36246 H 66.410473 V 90.487417 Z" /><path
     sodipodi:nodetypes="ccccc"
     style="fill-opacity:0.584;stroke-width:1.2"
     inkscape:connector-curvature="0"
     id="path1450"
     d="m 31.510313,60.139971 h -6.350011 v -2.5404 h 6.350011 z" /><path
     sodipodi:nodetypes="ccccc"
     style="fill-opacity:0.584;stroke-width:1.3692"
     inkscape:connector-curvature="0"
     id="path1450-7"
     d="m 33.337479,117.73955 h -7.937497 v -2.64584 h 7.937497 z" /><path
     sodipodi:nodetypes="ccccc"
     style="fill-opacity:0.584;stroke-width:1.26492"
     inkscape:connector-curvature="0"
     id="path1450-7-5"
     d="m 66.410393,106.36246 h -10.58333 v -2.54001 h 10.58333 z" /><path
     d="m 31.510314,56.303514 h -6.350012 v -2.5404 h 6.350012 z"
     id="path1452"
     inkscape:connector-curvature="0"
     style="fill-opacity:0.584;stroke-width:1.2"
     sodipodi:nodetypes="ccccc" /><g
     id="g1350"
     transform="matrix(-1.2,0,0,-1.2,746.17795,-96.80217)"><path
       transform="rotate(180,294.32626,-51.62312)"
       clip-path="url(#g)"
       d="m -8.467,12.7 h 40.504 c 9.254,8.466 9.254,21.166 9.254,21.166 0,0 0,12.7 -9.254,21.167 H -8.467 Z"
       id="path1340"
       inkscape:connector-curvature="0"
       style="fill:#595959;stroke:#b6b6b6;stroke-width:3.175;stroke-opacity:0.197" /><path
       d="m 95.25,364.067 v 10.63 c -0.8,-0.485 -2.117,-1.059 -2.117,-1.059 v -9.571 z"
       clip-path="url(#h)"
       transform="rotate(90,592.54238,368.64514)"
       id="path1342"
       inkscape:connector-curvature="0"
       style="fill:#640000;stroke:#252525;stroke-width:1.058" /><path
       d="m 98.425,364.067 v 13.044 c 0,0 -1.211,-1.11 -2.117,-1.786 v -11.258 z"
       clip-path="url(#i)"
       transform="rotate(90,592.54238,368.64514)"
       id="path1344"
       inkscape:connector-curvature="0"
       style="fill:#00640c;stroke:#252525;stroke-width:1.058" /><path
       d="m 80.994,374.65 c 0,0 -3.35,1.08 -4.42,2.117 l -6.724,0.022 v 3.175 H 63.5 v -2.117 h 4.233 v -3.197 z"
       clip-path="url(#j)"
       transform="rotate(90,592.54238,370.76214)"
       id="path1346"
       inkscape:connector-curvature="0"
       style="fill:#0097f0;fill-opacity:0.584;stroke:#252525;stroke-width:1.058" /><path
       d="m 63.5,396.897 v 2.117 h 8.487 c 0,0 -0.78,-1.059 -1.145,-2.117 z"
       clip-path="url(#k)"
       id="path1348"
       inkscape:connector-curvature="0"
       style="fill:#0097f0;fill-opacity:0.584;stroke:#252525;stroke-width:1.058"
       transform="rotate(90,592.54238,370.76214)" /></g><path
     id="path2037"
     d="m 512.00003,1056.0022 10e-5,-31.9999 -32.00016,-1e-4 6e-5,544.0002 H -96.000001 v -352 H 352.00003 l 2.4e-4,-192.0002 -32.00027,1e-4 3e-5,160.0001 H -128 v 416 h 639.99999 z"
     style="fill:#1a1c21;fill-opacity:1;stroke:#000000;stroke-width:12;stroke-miterlimit:4;stroke-dasharray:none;stroke-opacity:0.705882"
     clip-path="url(#clipPath20)"
     sodipodi:nodetypes="cccccccccccccc"
     transform="matrix(0.26458319,0,0,0.26458324,50.800022,-287.8672)" /></svg>
