<?xml version="1.0" encoding="UTF-8" standalone="no"?>
<svg width="159.99121" height="179.99977" viewBox="0 0 42.330983 47.624863" version="1.1" id="svg61" sodipodi:docname="map-bunker-chrys-chamber-floor-01a.svg" inkscape:version="1.4.2 (ebf0e940d0, 2025-05-08)" xmlns:inkscape="http://www.inkscape.org/namespaces/inkscape" xmlns:sodipodi="http://sodipodi.sourceforge.net/DTD/sodipodi-0.dtd" xmlns:xlink="http://www.w3.org/1999/xlink" xmlns="http://www.w3.org/2000/svg" xmlns:svg="http://www.w3.org/2000/svg" xmlns:rdf="http://www.w3.org/1999/02/22-rdf-syntax-ns#" xmlns:cc="http://creativecommons.org/ns#" xmlns:dc="http://purl.org/dc/elements/1.1/">
  <metadata id="metadata65">
    <rdf:RDF>
      <cc:Work rdf:about="">
        <dc:format>image/svg+xml</dc:format>
        <dc:type rdf:resource="http://purl.org/dc/dcmitype/StillImage" />
      </cc:Work>
    </rdf:RDF>
  </metadata>
  <sodipodi:namedview pagecolor="#ffffff" bordercolor="#666666" borderopacity="1" objecttolerance="10" gridtolerance="10" guidetolerance="10" inkscape:pageopacity="0" inkscape:pageshadow="2" inkscape:window-width="1920" inkscape:window-height="1017" id="namedview63" showgrid="true" inkscape:zoom="0.22187467" inkscape:cx="698.59259" inkscape:cy="790.98709" inkscape:window-x="1912" inkscape:window-y="-8" inkscape:window-maximized="1" inkscape:current-layer="svg61" inkscape:object-paths="true" inkscape:snap-intersection-paths="true" inkscape:snap-smooth-nodes="true" inkscape:snap-midpoints="true" fit-margin-top="2" fit-margin-left="2" fit-margin-right="2" fit-margin-bottom="2" inkscape:showpageshadow="false" showguides="false" inkscape:pagecheckerboard="0" inkscape:deskcolor="#d1d1d1">
    <inkscape:grid type="xygrid" id="grid843" empspacing="8" spacingy="0.52916582" spacingx="0.52916637" originx="-0.0023248625" originy="-156.10393" units="px" />
  </sodipodi:namedview>
  <defs id="defs27">
    <clipPath id="f">
      <path d="m -45.534,209.35 29.33,16.933 v 33.867 l -29.33,16.933 -29.33,-16.933 v -33.867 z" id="path2" inkscape:connector-curvature="0" style="fill-opacity:0.506;stroke:#ffffff;stroke-width:2.117;stroke-opacity:0.502" />
    </clipPath>
    <clipPath id="g-9-9-1">
      <path d="m -22.25,168.075 v -9.525 h -46.568 v 9.525 z" clip-path="url(#clipPath6865)" id="path5-4-2-4" inkscape:connector-curvature="0" style="fill:#a3977d;stroke-width:2.081" />
    </clipPath>
    <pattern patternTransform="matrix(0.26458318,0,0,0.26458318,313.26419,174.09564)" id="pattern2095" xlink:href="#pattern2006" inkscape:collect="always" />
    <pattern patternUnits="userSpaceOnUse" width="192" height="192" patternTransform="matrix(0.26458367,0,0,0.26458367,-203.20039,287.86707)" id="pattern2006">
      <g clip-path="url(#clipPath2002)" id="g2000" transform="matrix(3.7795227,0,0,3.7795227,768.00051,-1088.0001)">
        <path style="fill:#6b6b6b;fill-opacity:1;stroke:#3f3f3f;stroke-width:1.05833471;stroke-linecap:butt;stroke-linejoin:miter;stroke-miterlimit:4;stroke-dasharray:none;stroke-opacity:1" d="m -211.66708,287.86704 8.46668,25.40003 h 8.46668 16.93335 l -8.46667,-25.40003 h -8.46668 z" id="path1733" inkscape:connector-curvature="0" />
        <path inkscape:connector-curvature="0" id="path1982" d="m -186.26705,287.86704 8.46668,25.40003 h 8.46668 16.93335 l -8.46667,-25.40003 h -8.46668 z" style="fill:#6b6b6b;fill-opacity:1;stroke:#3f3f3f;stroke-width:1.05833471;stroke-linecap:butt;stroke-linejoin:miter;stroke-miterlimit:4;stroke-dasharray:none;stroke-opacity:1" />
        <path style="fill:#6b6b6b;fill-opacity:1;stroke:#3f3f3f;stroke-width:1.05833471;stroke-linecap:butt;stroke-linejoin:miter;stroke-miterlimit:4;stroke-dasharray:none;stroke-opacity:1" d="m -194.73372,338.6671 8.46668,-25.40003 h 8.46668 16.93335 l -8.46667,25.40003 h -8.46668 z" id="path1984" inkscape:connector-curvature="0" />
        <path inkscape:connector-curvature="0" id="path1986" d="m -220.13375,338.6671 8.46668,-25.40003 h 8.46668 16.93335 l -8.46667,25.40003 h -8.46668 z" style="fill:#6b6b6b;fill-opacity:1;stroke:#3f3f3f;stroke-width:1.05833471;stroke-linecap:butt;stroke-linejoin:miter;stroke-miterlimit:4;stroke-dasharray:none;stroke-opacity:1" />
        <path inkscape:connector-curvature="0" id="path1988" d="m -169.3337,338.6671 8.46668,-25.40003 h 8.46668 16.93335 l -8.46667,25.40003 h -8.46668 z" style="fill:#6b6b6b;fill-opacity:1;stroke:#3f3f3f;stroke-width:1.05833471;stroke-linecap:butt;stroke-linejoin:miter;stroke-miterlimit:4;stroke-dasharray:none;stroke-opacity:1" />
        <path style="fill:#6b6b6b;fill-opacity:1;stroke:#3f3f3f;stroke-width:1.05833471;stroke-linecap:butt;stroke-linejoin:miter;stroke-miterlimit:4;stroke-dasharray:none;stroke-opacity:1" d="m -160.86702,287.86704 8.46668,25.40003 h 8.46668 16.93335 l -8.46667,-25.40003 h -8.46668 z" id="path1990" inkscape:connector-curvature="0" />
      </g>
    </pattern>
    <clipPath clipPathUnits="userSpaceOnUse" id="clipPath2002">
      <rect style="fill:#373737;fill-opacity:1;stroke:none;stroke-width:1.05833;stroke-linecap:butt;stroke-linejoin:miter;stroke-miterlimit:4;stroke-dasharray:none;stroke-opacity:1" id="rect2004" width="50.800064" height="50.800064" x="-203.20039" y="287.86707" />
    </clipPath>
    <filter inkscape:collect="always" style="color-interpolation-filters:sRGB" id="filter1065" x="-0.0091034438" width="1.0182069" y="-0.010153841" height="1.0203077">
      <feGaussianBlur inkscape:collect="always" stdDeviation="1.8626647" id="feGaussianBlur1067" />
    </filter>
    <clipPath clipPathUnits="userSpaceOnUse" id="clipPath1009">
      <path sodipodi:nodetypes="cccccccccccccccccccccccccccccccccccc" inkscape:connector-curvature="0" id="path1011" d="m 8.9983886,8.4647212 -0.003,195.2617288 237.0669914,0.004 v -42.33434 l 245.53279,-0.003 0.003,-364.06695 h -76.19932 v 8.46666 h 67.73332 l -0.003,143.933737 H 428.0959 v 33.866648 h 55.03335 V 152.9255 h -253.9997 l -1e-5,42.33379 -211.667051,0.003 V 8.466641 Z M 229.12955,119.05885 h 84.6666 V -16.407746 h 55.03335 v -33.866648 h -55.03335 l 0.003,-143.933736 h 67.73332 v -8.46666 H 305.3324 l -0.003,262.470498 -253.999854,-0.0035 V 8.466641 h -8.46718 v 68.260414 l 186.266574,-5.3e-4 z" style="fill:#2b2622;fill-opacity:1;stroke-width:2.226" />
    </clipPath>
  </defs>
  <path inkscape:connector-curvature="0" style="fill:#130902;fill-opacity:0.945;stroke-width:1.00507;filter:url(#filter1065)" d="M -4.2356516,55.562442 H 292.09751 l -10e-6,-228.599872 h 33.86665 v -59.26663 h 126.99993 v 59.26663 h 33.86665 l 10e-6,338.66647 H 241.29753 v 42.33331 H -4.2356516 Z" id="path38-1" sodipodi:nodetypes="ccccccccccccc" />
  <path d="m -0.00332032,68.261938 237.06728032,4.19e-4 4.3e-4,135.466663 -237.06671032,-7e-5 z" id="path33" inkscape:connector-curvature="0" style="fill:#302e28;stroke-width:0.917663" sodipodi:nodetypes="ccccc" />
  <path style="fill:url(#pattern2095);fill-opacity:1;stroke:none;stroke-width:2.39841;stroke-linecap:butt;stroke-linejoin:miter;stroke-miterlimit:4;stroke-dasharray:none;stroke-opacity:1" d="M 296.33086,-16.404249 H 482.59441 V 161.39566 l -245.53032,4.7e-4 v -50.79997 l 59.26677,-4.9e-4 z" id="rect1624" inkscape:connector-curvature="0" sodipodi:nodetypes="ccccccc" />
  <path d="m -22.25,168.075 v -9.525 h -46.568 v 9.525 z" clip-path="url(#g-9-9-1)" transform="matrix(0.90906186,0,0,0.99999608,62.558529,-124.15365)" id="path56-7-7" inkscape:connector-curvature="0" style="fill:#584335;fill-opacity:1;stroke:#000000;stroke-width:2.117;stroke-opacity:0.706" />
  <path transform="matrix(0.90906186,0,0,0.99999608,62.558529,-115.68697)" clip-path="url(#g-9-9-1)" d="m -22.25,168.075 v -9.525 h -46.568 v 9.525 z" id="path58-8-8" inkscape:connector-curvature="0" style="fill:#4b392d;fill-opacity:1;stroke:#000000;stroke-width:2.117;stroke-opacity:0.706" />
  <path d="m -22.25,168.075 v -9.525 h -46.568 v 9.525 z" clip-path="url(#g-9-9-1)" transform="matrix(0.90906186,0,0,0.99999608,62.557618,-107.2203)" id="path60-6-5" inkscape:connector-curvature="0" style="fill:#3f3026;fill-opacity:1;stroke:#000000;stroke-width:2.117;stroke-opacity:0.706" />
  <path transform="matrix(0.90906186,0,0,0.99999608,62.558529,-98.753668)" clip-path="url(#g-9-9-1)" d="m -22.25,168.075 v -9.525 h -46.568 v 9.525 z" id="path62-1" inkscape:connector-curvature="0" style="fill:#32261e;fill-opacity:1;stroke:#000000;stroke-width:2.117;stroke-opacity:0.706" />
  <path style="fill:#7d5f4b;fill-opacity:1;stroke:none;stroke-width:2.117;stroke-opacity:0.706" inkscape:connector-curvature="0" id="path4924-5" d="m -22.25,168.075 v -9.525 h -46.568 v 9.525 z" clip-path="url(#g-9-9-1)" transform="matrix(0.90906186,0,0,0.99999608,62.557618,-148.49531)" />
  <path transform="matrix(0.90906186,0,0,0.99999608,62.557618,-132.62029)" clip-path="url(#g-9-9-1)" d="m -22.25,168.075 v -9.525 h -46.568 v 9.525 z" id="path54-9-3" inkscape:connector-curvature="0" style="fill:#644c3c;fill-opacity:1;stroke:#000000;stroke-width:2.117;stroke-opacity:0.706" />
  <path style="fill:#715644;fill-opacity:1;stroke:#000000;stroke-width:2.117;stroke-opacity:0.706" inkscape:connector-curvature="0" id="path916" d="m -22.25,168.075 v -9.525 h -46.568 v 9.525 z" clip-path="url(#g-9-9-1)" transform="matrix(0.90906186,0,0,0.99999608,62.557618,-141.08695)" />
  <path d="m 232.8309,152.92866 v -33.866 h 8.467 v 33.866 z" id="path53" inkscape:connector-curvature="0" style="fill:#555555" />
  <path d="m 19.899711,173.92371 c -1.929399,2.44915 -4.793,2.56669 -6.887738,1.23745 -2.194592,-1.53109 -4.3904359,-4.83981 0.573496,-10.28864 3.192252,-2.54911 4.201132,-1.97541 6.78703,0.84289 1.69947,2.13718 1.03592,5.26897 -0.471792,8.20826 z" id="path58" inkscape:connector-curvature="0" style="fill:#0c0c0c;fill-opacity:0.328;stroke-width:0.999999" />
  <g id="g1204" transform="rotate(-90,113.94949,136.34031)">
    <path transform="matrix(-0.91414178,-0.52778,0.52778,-0.91414178,-55.689401,295.66894)" d="m -45.534,209.35 29.33,16.933 v 33.867 l -29.33,16.933 -29.33,-16.933 v -33.867 z" clip-path="url(#f)" id="path1100" inkscape:connector-curvature="0" style="fill-opacity:0.118;stroke:#ffffff;stroke-width:4.011;stroke-opacity:0.157" />
    <path d="m 83.977371,96.77015 16.105999,0.686 a 14.227,14.227 0 0 1 -0.01,-0.289 14.227,14.227 0 0 1 7.372,-12.45 l -8.649999,-13.61 z m 45.826999,-25.664 -8.647,13.605 a 14.227,14.227 0 0 1 0.255,0.136 14.227,14.227 0 0 1 7.095,12.61 l 16.114,-0.687 z m -0.688,52.52 -7.459,-14.292 a 14.227,14.227 0 0 1 -0.245,0.154 14.227,14.227 0 0 1 -14.468,-0.16 l -7.460999,14.298 z" id="path1102" inkscape:connector-curvature="0" style="fill:#ffffff;fill-opacity:0.157" />
    <path inkscape:connector-curvature="0" id="path848" d="m 114.29993,85.003993 a 12.362517,12.362516 0 0 0 -12.36251,12.362516 12.362517,12.362516 0 0 0 12.36251,12.362521 12.362517,12.362516 0 0 0 12.36252,-12.362521 12.362517,12.362516 0 0 0 -12.36252,-12.362516 z m -0.005,2.023075 c 0.84425,0 1.52859,0.684316 1.52859,1.528574 0,0.84424 -1.30837,7.040195 -1.30837,7.040195 -0.0657,0.21999 -0.37897,0.21999 -0.43977,0 0,0 -1.30901,-6.311829 -1.30901,-7.040195 0,-0.844258 0.68432,-1.528574 1.52856,-1.528574 z m -3.39776,0.671568 c 0.59572,0.0016 1.16119,0.353647 1.40624,0.93749 0.28188,0.671611 1.51763,6.997699 1.51763,6.997699 0.0291,0.22631 -0.25994,0.347412 -0.40565,0.169986 0,0 -3.60416,-5.20642 -3.93089,-5.984876 -0.32673,-0.778479 0.0393,-1.673802 0.81773,-2.000539 0.19462,-0.08161 0.39638,-0.120312 0.59494,-0.119764 z m 6.80454,0 h 6.4e-4 c 0.19856,-6.23e-4 0.40033,0.03803 0.59495,0.119764 0.77848,0.326737 1.14446,1.22206 0.81773,2.000539 -0.32674,0.778456 -3.9309,5.984876 -3.9309,5.984876 -0.0546,0.06654 -0.12959,0.09118 -0.20023,0.0837 -0.0942,-0.0097 -0.18062,-0.07593 -0.20218,-0.174489 -0.006,-0.02467 -0.008,-0.05091 -0.004,-0.07919 0,0 1.23574,-6.326088 1.51762,-6.997699 0.24506,-0.583843 0.81052,-0.936244 1.40624,-0.93749 z m -9.64341,1.90653 c 0.39122,0 0.78259,0.14901 1.08108,0.447498 0.51503,0.515028 4.05258,5.9031 4.05258,5.9031 0.11263,0.198513 -0.10898,0.420787 -0.31099,0.311641 0,0 -5.30677,-3.45561 -5.90375,-4.052587 -0.59697,-0.596979 -0.59697,-1.565177 0,-2.162154 0.29851,-0.298488 0.68987,-0.447498 1.08108,-0.447498 z m 12.48228,0 c 0.39122,0 0.78259,0.14901 1.08108,0.447498 0.59698,0.596977 0.59698,1.565175 0,2.162154 -0.59698,0.596977 -5.90375,4.052587 -5.90375,4.052587 -0.20197,0.109149 -0.42363,-0.113173 -0.31099,-0.311641 0,0 3.53756,-5.388072 4.05258,-5.9031 0.29849,-0.298488 0.68986,-0.447498 1.08108,-0.447498 z m -14.42229,2.890383 c 0.19855,-0.0029 0.40066,0.0333 0.59623,0.112674 0.67486,0.274016 6.02995,3.860708 6.02995,3.860708 0.18099,0.139041 0.0631,0.429507 -0.16548,0.407577 0,0 -6.23221,-1.11824 -7.01443,-1.435855 -0.78226,-0.317624 -1.15918,-1.209291 -0.84155,-1.991522 0.23822,-0.586649 0.79962,-0.944866 1.39529,-0.953589 z m 16.36231,0 c 0.59565,0.0086 1.15706,0.366939 1.39529,0.953588 0.31761,0.782232 -0.0593,1.673898 -0.84156,1.991523 -0.78223,0.317614 -7.01444,1.435855 -7.01444,1.435855 -0.22852,0.02193 -0.34646,-0.268537 -0.16547,-0.407578 0,0 5.35509,-3.586692 6.02994,-3.860708 0.19556,-0.07937 0.39769,-0.115166 0.59624,-0.112674 z m -17.00233,3.347538 c 0.72837,0 7.03955,1.30901 7.03955,1.30901 0.21999,0.06073 0.21999,0.374106 0,0.439768 0,0 -6.19531,1.309013 -7.03955,1.309013 -0.84426,0 -1.52857,-0.684342 -1.52857,-1.528574 0,-0.844267 0.68431,-1.529217 1.52857,-1.529217 z m 17.64234,0 c 0.84426,0 1.52858,0.68495 1.52858,1.529217 0,0.844232 -0.68432,1.528574 -1.52858,1.528574 -0.84425,0 -7.03955,-1.309013 -7.03955,-1.309013 -0.21999,-0.06566 -0.21999,-0.37909 0,-0.439768 0,0 6.31119,-1.30901 7.03955,-1.30901 z m -8.82568,0.05216 a 1.4765519,1.4765518 0 0 1 1.47642,1.477064 1.4765519,1.4765518 0 0 1 -1.47642,1.476418 1.4765519,1.4765518 0 0 1 -1.47642,-1.476418 1.4765519,1.4765518 0 0 1 1.47642,-1.477064 z m -1.71594,1.961263 c 0.22853,-0.02193 0.34646,0.268536 0.16548,0.407577 0,0 -5.3551,3.586693 -6.02995,3.860703 -0.78223,0.31761 -1.67389,-0.0587 -1.99152,-0.84091 -0.31762,-0.78222 0.0593,-1.673901 0.84155,-1.991515 0.78223,-0.317615 7.01444,-1.435855 7.01444,-1.435855 z m 3.4409,0 c 0,0 6.23221,1.11824 7.01444,1.435855 0.78225,0.317614 1.15917,1.209295 0.84156,1.991515 -0.31763,0.78222 -1.2093,1.15852 -1.99153,0.84091 -0.67485,-0.27401 -6.02994,-3.860703 -6.02994,-3.860703 -0.18099,-0.139041 -0.0631,-0.429507 0.16547,-0.407577 z m -2.99855,0.582713 c 0.14682,0.02033 0.25687,0.186077 0.17062,0.338037 0,0 -3.53755,5.38807 -4.05258,5.90309 -0.59698,0.59698 -1.56518,0.59698 -2.16216,0 -0.59697,-0.59697 -0.59697,-1.56517 0,-2.16214 0.59698,-0.59698 5.90375,-4.052591 5.90375,-4.052591 0.0253,-0.01333 0.0508,-0.02202 0.076,-0.02576 0.022,-0.0035 0.0434,-0.0035 0.0644,-6.42e-4 z m 2.55556,0 c 0.021,-0.0029 0.043,-0.0029 0.065,6.43e-4 0.0252,0.004 0.0507,0.01209 0.076,0.02575 0,0 5.30677,3.455604 5.90375,4.052594 0.59698,0.59697 0.59698,1.56517 0,2.16214 -0.59698,0.59698 -1.56518,0.59698 -2.16216,0 -0.51502,-0.51502 -4.05258,-5.903093 -4.05258,-5.903093 -0.0862,-0.15196 0.0232,-0.317684 0.16998,-0.338037 z m -1.96126,0.406287 c 0.11768,0.01209 0.22359,0.112214 0.2054,0.253689 0,0 -1.23575,6.326081 -1.51763,6.997691 -0.32673,0.77848 -1.22272,1.14447 -2.00118,0.81773 -0.77848,-0.32673 -1.14446,-1.22206 -0.81773,-2.00053 0.32673,-0.77846 3.93089,-5.984877 3.93089,-5.984877 0.0546,-0.06654 0.1296,-0.09118 0.20025,-0.0837 z m 1.3676,0 c 0.0706,-0.0072 0.14555,0.01717 0.20025,0.08371 0,0 3.60416,5.20642 3.93089,5.98488 0.32674,0.77847 -0.0393,1.6738 -0.81772,2.00053 -0.77847,0.32674 -1.67445,-0.0392 -2.00119,-0.81773 -0.28188,-0.67161 -1.51762,-6.997694 -1.51762,-6.997694 -0.0182,-0.141433 0.0877,-0.241231 0.20539,-0.253689 z m -0.69024,0.126843 c 0.0942,0 0.18925,0.05481 0.22214,0.164834 0,0 1.30837,6.195953 1.30837,7.040193 0,0.84426 -0.68433,1.52858 -1.52858,1.52858 -0.84425,0 -1.52857,-0.68432 -1.52857,-1.52858 0,-0.72836 1.30901,-7.040193 1.30901,-7.040193 0.0304,-0.110008 0.12344,-0.164834 0.21763,-0.164834 z" style="fill:#ffffff;fill-opacity:0.156863;stroke:none;stroke-width:6.18126;stroke-linecap:round;stroke-linejoin:miter;stroke-miterlimit:4;stroke-dasharray:none;stroke-opacity:1" />
  </g>
  <g transform="matrix(0,0.99999815,-0.99999815,0,155.57192,-64.029413)" id="g1948">
    <path id="path13-8" d="m 168.27507,148.16686 -2.117,-2.116 v -2.118 l -2.117,-2.11701 v -2.115 l -1.15001,-1.06 v -2.934 l 1.31601,1.22 v 0.749 l 1.69,1.592 0.007,2 1.662,1.60901 v 2.116 l 2.826,3.175 z" style="fill:#445a17;stroke:#000000;stroke-width:0.529001" inkscape:connector-curvature="0" />
    <path sodipodi:nodetypes="cccccccccccccccccccccccccccccccccc" id="path17-1" d="m 162.9834,148.16686 2.117,-2.11701 v -2.117 l 2.116,-2.116 v -1.58401 l 1.037,-1.463 v -1.714 l -2.549,-2.04 v 1.887 l 0.858,0.694 -0.005,1.046 -1.198,1.62501 -0.005,1 -1.662,1.608 v 2.117 l -2.826,3.17501 z m 11.29201,0.017 -2.117,-2.11601 v -2.116 l -2.116,-2.117 v -2.11701 l 1.058,-1.058 v -2.117 l 2.117,-2.116 v 2.493 l -0.664,0.68201 -0.009,2.116 -0.646,0.568 0.006,1 1.662,1.607 v 2.117 l 2.82601,3.17501 z" style="fill:#445a17;stroke:#000000;stroke-width:0.529001" inkscape:connector-curvature="0" />
    <path inkscape:connector-curvature="0" style="fill:#445a17;stroke:#000000;stroke-width:0.529001" d="m 179.25909,148.18386 v -2.93501 l -1.459,-2.117 v -2.117 l 2.187,-1.88701 -0.01,1.88701 -0.645,0.568 0.006,1 1.298,1.846 0.012,3.73801 z" id="path1939" sodipodi:nodetypes="ccccccccccc" />
    <path sodipodi:nodetypes="ccccccccccc" id="path1941" d="m 158.01039,148.18386 v -2.93501 l 1.459,-2.117 v -2.117 l -2.187,-1.88701 0.01,1.88701 0.645,0.568 -0.006,1 -1.298,1.846 -0.012,3.73801 z" style="fill:#445a17;stroke:#000000;stroke-width:0.529001" inkscape:connector-curvature="0" />
  </g>
  <g transform="matrix(-0.99999815,0,0,-0.99999815,108.16315,420.15832)" id="g1932">
    <path sodipodi:nodetypes="ccccccccccccccccccccccccccccccccccccccccccccccccccccccccccccccccccccccc" id="path15-5" d="m 55.967943,224.36728 2.117,2.11701 v 2.116 l 2.117,2.117 v 2.117 l 1.15,1.05801 v 2.936 l -1.316,-1.22 v -0.749 l -1.69,-1.592 -0.007,-2.00101 -1.66301,-1.607 v -2.117 l -2.825,-3.17501 z m -6.576363,0.018 -2.116,2.11701 v 2.117 l -2.118,2.116 v 1.584 l -1.037,1.46301 v 1.714 l 2.549,2.04 v -1.886 l -0.857,-0.694 0.005,-1.046 1.197,-1.625 0.005,-1.00001 1.662,-1.608 v -2.117 l 2.82601,-3.17501 z m -12.70001,-0.018 2.117,2.11701 v 2.116 l 2.117,2.117 v 2.117 l -1.058,1.05801 v 2.117 l -2.117,2.116 v -2.493 l 0.663,-0.682 0.01,-2.11601 0.645,-0.568 -0.006,-1 -1.662,-1.607 v -2.117 l -2.825,-3.17501 z m -5.61001,0 v 2.93601 l -1.458,2.117 v 2.116 l 2.186,1.887 -0.01,-1.887 -0.645,-0.567 0.006,-1 1.298,-1.846 0.012,-3.73801 z m 37.393467,0 v 2.93601 l 1.458,2.117 v 2.116 l -2.186,1.887 0.009,-1.887 0.646,-0.567 -0.006,-1 -1.298,-1.846 -0.012,-3.73801 z" style="fill:#445a17;stroke:#000000;stroke-width:0.529001" inkscape:connector-curvature="0" />
    <path sodipodi:nodetypes="ccccccccccccccccc" id="path17-7" d="m 40.692241,224.36695 -1.668,2.117 v 2.11701 l -1.50701,2.116 v 2.117 l 1.50001,2.10001 1.73,-0.013 2.116,2.175 v -2.182 l -1.373,-1.402 h -1.47 l -0.868,-1.24601 0.006,-1 1.274,-1.864 v -1.86 l 2.377,-3.17501 z" style="fill:#445a17;stroke:#000000;stroke-width:0.529001" inkscape:connector-curvature="0" />
  </g>
  <path id="path1202" d="m 152.85193,75.670695 -2.117,2.117 v 2.116 l -2.11599,2.117 v 1.584 l -1.037,1.463 v 1.714 l 2.54899,2.03999 v -1.88499 l -0.85799,-0.695 0.005,-1.045 1.198,-1.626 0.005,-1 1.66199,-1.60701 v -2.11699 l 2.826,-3.175 z m -11.29199,-0.018 2.117,2.116 v 2.118 l 2.11599,2.117 v 2.115 l -1.05799,1.06 v 2.11399 l -2.117,2.11701 v -2.49301 l 0.664,-0.68199 0.009,-2.117 0.646,-0.567 -0.006,-1 -1.662,-1.60801 v -2.11599 l -2.826,-3.175 z m -6.299,0 v 2.936 l -1.45899,2.118 v 2.116 l 2.18699,1.887 -0.009,-1.887 -0.646,-0.567 0.006,-1 1.298,-1.847 0.012,-3.737 z m 23.94099,0 v 2.936 l 1.45899,2.118 v 2.116 l -2.18699,1.887 0.01,-1.887 0.645,-0.567 -0.006,-1 -1.298,-1.847 -0.012,-3.737 z" style="fill:#445a17;stroke:#000000;stroke-width:0.529" inkscape:connector-curvature="0" sodipodi:nodetypes="cccccccccccccccccccccccccccccccccccccccccccccccccccccccc" />
  <path style="fill:#2b2622;fill-opacity:1;stroke:#000000;stroke-width:3.175;stroke-miterlimit:4;stroke-dasharray:none;stroke-opacity:0.705882" d="m 8.9983885,8.4647211 -0.003,195.2617289 237.0669915,0.004 v -42.33434 l 245.53278,-0.003 0.003,-364.06695 h -76.1994 v 8.46666 h 67.73332 l -0.003,143.933737 h -55.03325 v 33.866647 h 55.03333 V 152.9255 H 229.12955 l -1e-5,42.33379 -211.667051,0.003 V 8.4666411 Z M 229.12955,119.05885 h 84.66661 V -16.407746 h 55.03333 v -33.866649 h -55.03333 l 0.003,-143.933735 h 67.73332 v -8.46666 H 305.3325 l -0.003,262.470499 -253.999863,-0.0035 V 8.4666411 h -8.46718 V 76.727054 l 186.266573,-5.29e-4 z" id="path1007" inkscape:connector-curvature="0" sodipodi:nodetypes="cccccccccccccccccccccccccccccccccccc" clip-path="url(#clipPath1009)" transform="translate(-8.9981488)" />
</svg>
