<?xml version="1.0" encoding="UTF-8" standalone="no"?>
<svg width="128" height="128" viewBox="0 0 33.867 33.867" version="1.1" id="svg9" sodipodi:docname="map-toilet-02.svg" inkscape:version="1.4.3 (0d15f75042, 2025-12-25)" xmlns:inkscape="http://www.inkscape.org/namespaces/inkscape" xmlns:sodipodi="http://sodipodi.sourceforge.net/DTD/sodipodi-0.dtd" xmlns="http://www.w3.org/2000/svg" xmlns:svg="http://www.w3.org/2000/svg">
  <sodipodi:namedview id="namedview9" pagecolor="#ffffff" bordercolor="#000000" borderopacity="0.25" inkscape:showpageshadow="2" inkscape:pageopacity="0.0" inkscape:pagecheckerboard="0" inkscape:deskcolor="#d1d1d1" inkscape:zoom="6.1015625" inkscape:cx="63.918054" inkscape:cy="64" inkscape:current-layer="svg9" />
  <defs id="defs4" />
  <g id="g10" transform="translate(26.72318,-1.3220703)">
    <g id="g21" transform="translate(-58.427242,1.3219592)">
      <path style="baseline-shift:baseline;display:inline;overflow:visible;vector-effect:none;fill:#ffffff;stroke-width:1.1856;enable-background:accumulate;stop-color:#000000" d="M 41.152461,5.6449396 H 56.123047 V 19.106612 H 41.152461 Z" id="path20" />
      <path id="path21" style="baseline-shift:baseline;display:inline;overflow:visible;vector-effect:none;fill:#2d2d2d;stroke-width:1.34101;enable-background:accumulate;stop-color:#000000" d="M 40.17107,4.7625469 V 19.989158 H 57.104053 V 4.7625469 Z m 1.586482,2.8561845 H 55.517571 V 17.13349 H 41.757552 Z" />
    </g>
    <g id="g19" transform="translate(-68.352832,1.3219592)">
      <path style="baseline-shift:baseline;display:inline;overflow:visible;vector-effect:none;fill:#bdbdbd;stroke-width:0.839115;enable-background:accumulate;stop-color:#000000" d="m 65.800455,21.380012 c 0,4.414582 -3.213809,10.208669 -7.237364,10.208669 -4.023555,0 -7.237364,-5.794087 -7.237364,-10.208669 0,-4.415421 3.239822,-7.986693 7.237364,-7.986693 3.996703,0 7.237364,3.571272 7.237364,7.986693 z" id="path17" />
      <path id="path18" style="baseline-shift:baseline;display:inline;overflow:visible;vector-effect:none;fill:#ffffff;enable-background:accumulate;stop-color:#000000" d="m 58.562913,12.496985 c -4.391403,0 -7.950321,3.923004 -7.950321,8.773459 0,4.849532 3.530342,11.214764 7.950321,11.214764 4.419979,0 7.950799,-6.365232 7.950799,-11.214764 0,-4.850455 -3.560317,-8.773459 -7.950799,-8.773459 z m 9.8e-4,3.384889 c 2.241091,0 4.39099,2.094938 4.39099,5.285518 0,1.60317 -0.7363,4.071334 -1.826264,5.740274 -1.089964,1.66895 -2.199365,2.191103 -2.564726,2.191103 -0.365361,0 -1.476313,-0.522153 -2.566277,-2.191103 -1.089963,-1.66894 -1.826263,-4.137104 -1.826263,-5.740274 0,-3.19111 2.149919,-5.285518 4.39254,-5.285518 z" sodipodi:nodetypes="ssssssssssss" />
    </g>
    <path d="m -8.25468,21.958959 c 0,1.192 -0.687,2.766 -1.535,2.766 -0.847,0 -1.535,-1.574 -1.535,-2.766 0,-1.191 0.688,-1.55 1.535,-1.55 0.848,0 1.535,0.359 1.535,1.55 z" fill="#2d2d2d" id="path8-6" />
    <g id="g14" transform="translate(-67.572768,1.3218962)">
      <path style="baseline-shift:baseline;display:inline;overflow:visible;vector-effect:none;fill:#fefefe;enable-background:accumulate;stop-color:#000000" d="m 57.782966,1.1370909 c 4.059851,0 11.242936,1.8732325 11.242936,4.6839665 v 2.8107339 c 0,0.9375016 -0.835695,1.8741177 -1.873233,1.8741177 H 48.414148 C 47.378381,10.441284 46.54003,9.5692929 46.54003,8.6317913 V 5.8210574 c 0,-2.810734 7.183085,-4.6839665 11.242936,-4.6839665 z" id="path13" sodipodi:nodetypes="sssscsss" />
      <path id="path14" style="baseline-shift:baseline;display:inline;overflow:visible;vector-effect:none;fill:#2d2d2d;enable-background:accumulate;stop-color:#000000" d="m 57.783088,0.53020541 c -4.586,0 -12.700125,2.11568519 -12.700125,5.29068519 v 3.1750313 c 0,1.0590001 0.947205,2.0442041 2.117205,2.1172041 h 21.166875 c 1.172,0 2.11617,-1.058204 2.11617,-2.1172041 V 5.8208906 c 0,-3.175 -8.114125,-5.29068519 -12.700125,-5.29068519 z m 5.17e-4,1.58699889 c 2.04884,0 5.139724,0.5100977 7.537082,1.3632377 1.198679,0.42657 2.227333,0.9479009 2.849466,1.4299009 0.622134,0.48199 0.724511,0.792451 0.724511,0.910031 v 3.1760647 c 0,0.1156 -0.310495,0.5291719 -0.527105,0.5291719 H 47.295253 C 46.960806,9.4997105 46.670479,9.1082886 46.670479,8.9964386 V 5.8203739 c 0,-0.11758 0.102378,-0.428041 0.724511,-0.910031 0.622133,-0.482 1.650787,-1.0033309 2.849466,-1.4299009 2.397359,-0.85314 5.490309,-1.3632377 7.539149,-1.3632377 z" />
    </g>
    <path id="path15" style="baseline-shift:baseline;display:inline;overflow:visible;vector-effect:none;fill:#2d2d2d;enable-background:accumulate;stop-color:#000000" d="m -9.790197,12.970879 c -4.763,0 -8.623848,4.25582 -8.623848,9.51682 0,5.262 3.829848,12.16734 8.623848,12.16734 4.795,0 8.624881,-6.90534 8.624881,-12.16734 0,-5.261 -3.860881,-9.51682 -8.624881,-9.51682 z m 0,1.47951 c 3.882545,0 7.144337,3.4999 7.144337,8.03679 0,2.27192 -0.879622,5.11416 -2.273269,7.24821 -1.393646,2.13405 -3.183988,3.43962 -4.871068,3.43962 -1.686431,0 -3.477521,-1.30555 -4.871069,-3.43962 -1.393548,-2.13407 -2.273785,-4.97629 -2.273785,-7.24821 0,-4.53689 3.263495,-8.03679 7.144854,-8.03679 z" />
  </g>
  <rect width="1.753" height="6.3499999" x="-6.9635024" y="-30.133137" ry="2.1170001" rx="0.87599999" transform="rotate(150)" fill="#5f3f14" id="rect9" />
</svg>
