<?xml version="1.0" encoding="UTF-8" standalone="no"?>
<svg
   width="1040"
   height="752"
   viewBox="0 0 275.16524 198.9662"
   version="1.1"
   id="svg9"
   sodipodi:docname="map-building-hut-floor-03.svg"
   xml:space="preserve"
   inkscape:version="1.3 (0e150ed6c4, 2023-07-21)"
   xmlns:inkscape="http://www.inkscape.org/namespaces/inkscape"
   xmlns:sodipodi="http://sodipodi.sourceforge.net/DTD/sodipodi-0.dtd"
   xmlns:xlink="http://www.w3.org/1999/xlink"
   xmlns="http://www.w3.org/2000/svg"
   xmlns:svg="http://www.w3.org/2000/svg"><sodipodi:namedview
     id="namedview9"
     pagecolor="#ffffff"
     bordercolor="#000000"
     borderopacity="0.25"
     inkscape:showpageshadow="2"
     inkscape:pageopacity="0.0"
     inkscape:pagecheckerboard="0"
     inkscape:deskcolor="#d1d1d1"
     inkscape:zoom="0.62162861"
     inkscape:cx="573.49355"
     inkscape:cy="354.7134"
     inkscape:window-width="1360"
     inkscape:window-height="697"
     inkscape:window-x="-8"
     inkscape:window-y="-8"
     inkscape:window-maximized="1"
     inkscape:current-layer="g11"
     showguides="false"
     showgrid="false"><inkscape:grid
       id="grid1"
       units="px"
       originx="0"
       originy="0"
       spacingx="0.21166559"
       spacingy="0.21166625"
       empcolor="#0099e5"
       empopacity="0.30196078"
       color="#0099e5"
       opacity="0.14901961"
       empspacing="5"
       dotted="false"
       gridanglex="30"
       gridanglez="30"
       visible="false" /></sodipodi:namedview><defs
     id="defs7"><pattern
       inkscape:collect="always"
       xlink:href="#b-4"
       id="pattern1"
       patternTransform="matrix(-1.8103259,-1.2676038,0.15199778,-0.21707532,-223.42736,-12.979042)"
       x="0"
       y="0"
       preserveAspectRatio="none" /><pattern
       xlink:href="#a"
       id="b"
       patternTransform="matrix(0.21044898,0,0,0.21072892,137.8544,58.270255)"
       x="0"
       y="0"
       preserveAspectRatio="none" /><pattern
       patternUnits="userSpaceOnUse"
       width="160"
       height="160"
       patternTransform="matrix(.26458 0 0 .26458 143.933 59.267)"
       id="a"
       inkscape:label="a"><path
         fill="none"
         stroke-width="3.78"
         d="M0 0h160v160H0z"
         id="path1" /><path
         fill="none"
         stroke-width="3.78"
         d="M0 0h160v160H0z"
         id="path2" /><path
         fill="#a76118"
         stroke-width="18.898"
         stroke-miterlimit="10"
         d="M0 0h160v160H0z"
         id="path3" /><path
         fill-opacity=".354"
         stroke-width="8.709"
         stroke-miterlimit="10"
         d="M36 0h4v160h-4zM76 0h4v160h-4zM116 0h4v160h-4z"
         id="path4" /><path
         transform="rotate(90)"
         fill-opacity=".354"
         stroke-width="4.131"
         stroke-miterlimit="10"
         d="M36-76h4v36h-4zM156-36h4V0h-4zM116-116h4v36h-4z"
         id="path5" /><path
         fill-opacity=".354"
         stroke-width="8.709"
         stroke-miterlimit="10"
         d="M156 0h4v160h-4z"
         id="path6" /><path
         transform="rotate(90)"
         fill-opacity=".354"
         stroke-width="4.131"
         stroke-miterlimit="10"
         d="M76-156h4v36h-4z"
         id="path7" /></pattern><clipPath
       id="a-7"><rect
         width="8.467"
         height="59.266998"
         x="-45.534"
         y="116.216"
         rx="1.058"
         ry="1.058"
         fill="#ffffff"
         stroke-width="3.96"
         id="rect1" /></clipPath><clipPath
       id="a-7-9"><rect
         width="8.467"
         height="59.266998"
         x="-45.534"
         y="116.216"
         rx="1.058"
         ry="1.058"
         fill="#ffffff"
         stroke-width="3.96"
         id="rect1-6" /></clipPath><clipPath
       id="a-5"><path
         d="m -54.001,140.558 v 27.517 h 8.467 v -27.517 z"
         fill="#d8a584"
         stroke-width="2.203"
         id="path1-0" /></clipPath><clipPath
       id="a-6"><path
         fill="#ffffff"
         stroke-width="3.347"
         d="M 0,0 H 8.467 V 42.333 H 0 Z"
         id="path1-06" /></clipPath><clipPath
       id="a-5-9"><path
         d="m -54.001,140.558 v 27.517 h 8.467 v -27.517 z"
         fill="#d8a584"
         stroke-width="2.203"
         id="path1-0-1" /></clipPath><clipPath
       id="a-7-9-3"><rect
         width="8.467"
         height="59.266998"
         x="-45.534"
         y="116.216"
         rx="1.058"
         ry="1.058"
         fill="#ffffff"
         stroke-width="3.96"
         id="rect1-6-2" /></clipPath><clipPath
       id="a-5-9-9"><path
         d="m -54.001,140.558 v 27.517 h 8.467 v -27.517 z"
         fill="#d8a584"
         stroke-width="2.203"
         id="path1-0-1-2" /></clipPath><clipPath
       id="a-6-4"><path
         fill="#ffffff"
         stroke-width="3.347"
         d="M 0,0 H 8.467 V 42.333 H 0 Z"
         id="path1-06-2" /></clipPath><clipPath
       id="a-6-7"><path
         fill="#ffffff"
         stroke-width="3.347"
         d="M 0,0 H 8.467 V 42.333 H 0 Z"
         id="path1-06-4" /></clipPath><clipPath
       id="a-7-9-9"><rect
         width="8.467"
         height="59.266998"
         x="-45.534"
         y="116.216"
         rx="1.058"
         ry="1.058"
         fill="#ffffff"
         stroke-width="3.96"
         id="rect1-6-4" /></clipPath><clipPath
       id="a-7-9-9-1"><rect
         width="8.467"
         height="59.266998"
         x="-45.534"
         y="116.216"
         rx="1.058"
         ry="1.058"
         fill="#ffffff"
         stroke-width="3.96"
         id="rect1-6-4-8" /></clipPath><clipPath
       id="a-7-2"><rect
         width="8.467"
         height="59.266998"
         x="-45.534"
         y="116.216"
         rx="1.058"
         ry="1.058"
         fill="#ffffff"
         stroke-width="3.96"
         id="rect1-4" /></clipPath><clipPath
       id="a-7-9-98"><rect
         width="8.467"
         height="59.266998"
         x="-45.534"
         y="116.216"
         rx="1.058"
         ry="1.058"
         fill="#ffffff"
         stroke-width="3.96"
         id="rect1-6-46" /></clipPath><clipPath
       id="a-5-6"><path
         d="m -54.001,140.558 v 27.517 h 8.467 v -27.517 z"
         fill="#d8a584"
         stroke-width="2.203"
         id="path1-0-0" /></clipPath><clipPath
       id="f"><path
         fill="#eda500"
         stroke-width="2.114"
         stroke-miterlimit="10"
         d="m -307.054,16.14 h 5.821 v 5.821 h -5.821 z"
         id="path1-08" /></clipPath><clipPath
       id="a-4"><rect
         rx="0"
         y="-4.2329998"
         x="-301.233"
         height="37.042"
         width="26.988001"
         fill="#ed9000"
         stroke-width="1.713"
         id="rect1-9" /></clipPath><clipPath
       id="b-2"><path
         d="m -4.763,273.187 v -5.82 h 28.575 v 5.82 z"
         fill="#4d2600"
         stroke-width="3.532"
         id="path2-3" /></clipPath><clipPath
       id="c"><path
         d="m -4.763,273.187 v -5.82 h 28.575 v 5.82 z"
         fill="#4d2600"
         stroke-width="3.532"
         id="path3-8" /></clipPath><clipPath
       id="d"><path
         d="m -4.763,273.187 v -5.82 h 28.575 v 5.82 z"
         fill="#4d2600"
         stroke-width="3.532"
         id="path4-3" /></clipPath><clipPath
       id="e"><path
         d="m -4.763,273.187 v -5.82 h 28.575 v 5.82 z"
         fill="#4d2600"
         stroke-width="3.532"
         id="path5-9" /></clipPath><clipPath
       id="a-5-8"><path
         d="m -54.001,140.558 v 27.517 h 8.467 v -27.517 z"
         fill="#d8a584"
         stroke-width="2.203"
         id="path1-0-01" /></clipPath><clipPath
       id="a-7-4"><rect
         width="8.467"
         height="59.266998"
         x="-45.534"
         y="116.216"
         rx="1.058"
         ry="1.058"
         fill="#ffffff"
         stroke-width="3.96"
         id="rect1-8" /></clipPath><clipPath
       id="a-6-4-2"><path
         fill="#ffffff"
         stroke-width="3.347"
         d="M 0,0 H 8.467 V 42.333 H 0 Z"
         id="path1-06-2-0" /></clipPath><clipPath
       id="a-6-71"><path
         fill="#ffffff"
         stroke-width="3.347"
         d="M 0,0 H 8.467 V 42.333 H 0 Z"
         id="path1-06-7" /></clipPath><clipPath
       id="a-6-4-2-9"><path
         fill="#ffffff"
         stroke-width="3.347"
         d="M 0,0 H 8.467 V 42.333 H 0 Z"
         id="path1-06-2-0-3" /></clipPath><clipPath
       id="a-7-4-6"><rect
         width="8.467"
         height="59.266998"
         x="-45.534"
         y="116.216"
         rx="1.058"
         ry="1.058"
         fill="#ffffff"
         stroke-width="3.96"
         id="rect1-8-1" /></clipPath><clipPath
       id="a-7-2-0"><rect
         width="8.467"
         height="59.266998"
         x="-45.534"
         y="116.216"
         rx="1.058"
         ry="1.058"
         fill="#ffffff"
         stroke-width="3.96"
         id="rect1-4-6" /></clipPath><clipPath
       id="a-7-2-0-8"><rect
         width="8.467"
         height="59.266998"
         x="-45.534"
         y="116.216"
         rx="1.058"
         ry="1.058"
         fill="#ffffff"
         stroke-width="3.96"
         id="rect1-4-6-5" /></clipPath><clipPath
       clipPathUnits="userSpaceOnUse"
       id="clipPath823"><rect
         id="rect825"
         y="-2.8686179e-06"
         x="-3.9672852e-07"
         height="76.199997"
         width="8.467"
         style="fill:#ffffff;stroke-width:2.569" /></clipPath><clipPath
       clipPathUnits="userSpaceOnUse"
       id="clipPath820"><rect
         id="rect822"
         y="-0.0031538503"
         x="0"
         height="152.40599"
         width="8.467"
         style="fill:#ffffff;stroke-width:3.63319" /></clipPath><clipPath
       id="a-1"><path
         fill="#ffffff"
         stroke-width="2.967"
         d="M 0,0 H 8.467 V 101.6 H 0 Z"
         id="path1-1" /></clipPath><clipPath
       id="a-65"><path
         fill="#ffffff"
         stroke-width="3.204"
         d="M 0,0 H 8.467 V 118.533 H 0 Z"
         id="path1-3" /></clipPath><clipPath
       id="a-8"><path
         fill="#fbfbfb"
         stroke-width="3.469"
         d="M 0,0 H 8.467 V 50.8 H 0 Z"
         id="path1-48" /></clipPath><clipPath
       id="a-0"><path
         fill="#ffffff"
         stroke-width="3.347"
         d="M 0,0 H 8.467 V 42.333 H 0 Z"
         id="path1-7" /></clipPath><clipPath
       id="a-2"><path
         fill="#fbfbfb"
         stroke-width="3.469"
         d="M 0,0 H 8.467 V 50.8 H 0 Z"
         id="path1-2" /></clipPath><clipPath
       id="a-2-0"><path
         fill="#fbfbfb"
         stroke-width="3.469"
         d="M 0,0 H 8.467 V 50.8 H 0 Z"
         id="path1-2-7" /></clipPath><clipPath
       id="a-7-2-8"><rect
         width="8.467"
         height="59.266998"
         x="-45.534"
         y="116.216"
         rx="1.058"
         ry="1.058"
         fill="#ffffff"
         stroke-width="3.96"
         id="rect1-4-4" /></clipPath><pattern
       patternUnits="userSpaceOnUse"
       width="128"
       height="168"
       patternTransform="translate(1.058 -47.625) scale(.26458)"
       id="b-4"
       inkscape:label="b-4"><path
         fill="none"
         stroke-width="3.78"
         d="M0 0h128v168H0z"
         id="path2-6" /><path
         transform="rotate(-90)"
         fill="#5e2d03"
         stroke-width="17.32"
         stroke-miterlimit="10"
         d="M-168 0H0v128h-168z"
         id="path3-9" /><path
         transform="rotate(-90)"
         fill-opacity=".294"
         stroke-width="7.542"
         stroke-miterlimit="10"
         d="M-4 4h4v120h-4z"
         id="path4-6" /><path
         fill-opacity=".294"
         stroke-width="8.924"
         stroke-miterlimit="10"
         d="M0 0h4v168H0zm124 0h4v168h-4z"
         id="path5-0" /><path
         transform="rotate(-90)"
         fill-opacity=".294"
         stroke-width="7.542"
         stroke-miterlimit="10"
         d="M-32 4h4v120h-4zm-28 0h4v120h-4zm-28 0h4v120h-4zm-28 0h4v120h-4zm-28 0h4v120h-4z"
         id="path6-0" /></pattern><pattern
       patternUnits="userSpaceOnUse"
       width="128"
       height="168"
       patternTransform="translate(1.058 -47.625) scale(.26458)"
       id="b-45"><path
         fill="none"
         stroke-width="3.78"
         d="M0 0h128v168H0z"
         id="path2-8" /><path
         transform="rotate(-90)"
         fill="#5e2d03"
         stroke-width="17.32"
         stroke-miterlimit="10"
         d="M-168 0H0v128h-168z"
         id="path3-1" /><path
         transform="rotate(-90)"
         fill-opacity=".294"
         stroke-width="7.542"
         stroke-miterlimit="10"
         d="M-4 4h4v120h-4z"
         id="path4-63" /><path
         fill-opacity=".294"
         stroke-width="8.924"
         stroke-miterlimit="10"
         d="M0 0h4v168H0zm124 0h4v168h-4z"
         id="path5-6" /><path
         transform="rotate(-90)"
         fill-opacity=".294"
         stroke-width="7.542"
         stroke-miterlimit="10"
         d="M-32 4h4v120h-4zm-28 0h4v120h-4zm-28 0h4v120h-4zm-28 0h4v120h-4zm-28 0h4v120h-4z"
         id="path6-4" /></pattern><pattern
       patternUnits="userSpaceOnUse"
       width="128"
       height="168"
       patternTransform="translate(1.058 -47.625) scale(.26458)"
       id="b-3"><path
         fill="none"
         stroke-width="3.78"
         d="M0 0h128v168H0z"
         id="path2-32" /><path
         transform="rotate(-90)"
         fill="#5e2d03"
         stroke-width="17.32"
         stroke-miterlimit="10"
         d="M-168 0H0v128h-168z"
         id="path3-98" /><path
         transform="rotate(-90)"
         fill-opacity=".294"
         stroke-width="7.542"
         stroke-miterlimit="10"
         d="M-4 4h4v120h-4z"
         id="path4-30" /><path
         fill-opacity=".294"
         stroke-width="8.924"
         stroke-miterlimit="10"
         d="M0 0h4v168H0zm124 0h4v168h-4z"
         id="path5-4" /><path
         transform="rotate(-90)"
         fill-opacity=".294"
         stroke-width="7.542"
         stroke-miterlimit="10"
         d="M-32 4h4v120h-4zm-28 0h4v120h-4zm-28 0h4v120h-4zm-28 0h4v120h-4zm-28 0h4v120h-4z"
         id="path6-5" /></pattern><clipPath
       id="d-2"><path
         d="m 21.167,21.167 h 5.82 l 0.53,-0.53 h 20.108 l 0.53,0.53 h 4.762 l 1.058,-1.059 h 16.933 l 1.059,1.059 h 5.82 l 0.53,-0.53 H 88.9 l 0.53,0.53 h 3.703 l 1.059,-1.059 h 13.758 l 1.058,1.059 H 114.3 L 67.733,67.733 Z"
         fill="#ab7421"
         stroke-width="0.416"
         id="path1-20" /></clipPath><clipPath
       id="c-7"><path
         d="M 2.117,2.117 H 8.996 L 10.054,1.058 H 38.1 l 1.058,1.059 h 7.938 l 0.529,-0.53 h 24.342 l 0.529,0.53 H 82.55 l 1.058,-1.059 h 14.288 l 1.058,1.059 h 6.88 l 0.528,-0.53 h 19.58 l 0.529,0.53 h 6.879 L 67.733,67.733 Z"
         fill="#8a5e1a"
         stroke-width="0.605"
         id="path2-68" /></clipPath><clipPath
       id="e-0"><path
         d="m 37.57,37.57 h 12.7 l 0.53,0.53 h 3.175 l 1.058,-1.058 h 12.7 l 1.059,1.058 h 2.646 l 0.529,-0.53 h 8.466 l 0.53,0.53 h 3.175 l 1.058,-1.058 h 6.879 l 1.058,1.058 h 4.234 L 67.733,67.733 Z"
         fill="#cc8b27"
         stroke-width="0.265"
         id="path3-6" /></clipPath><pattern
       patternUnits="userSpaceOnUse"
       width="136"
       height="112"
       patternTransform="matrix(.26458 0 0 .26458 103.717 -35.983)"
       id="b-7"><path
         fill="none"
         stroke-width="3.78"
         d="M0 0h136v112H0z"
         id="path4-9" /><path
         fill="none"
         stroke-width="3.78"
         d="M0 0h136v112H0z"
         id="path5-3" /><path
         fill="none"
         stroke-width="3.78"
         d="M0 0h136v112H0z"
         id="path6-9" /><path
         fill="none"
         stroke-width="3.78"
         d="M0 0h136v112H0z"
         id="path7-9" /><path
         fill="none"
         stroke-width="3.78"
         d="M0 0h136v112H0z"
         id="path8-42" /><path
         fill="#ed9c1f"
         stroke-width="8.662"
         stroke-linecap="round"
         d="M0 0h136v112H0z"
         id="path9" /><path
         fill-opacity=".176"
         stroke-width="7.286"
         stroke-miterlimit="10"
         d="M32 0h4v112h-4zM48 0h4v112h-4zM0 0h4v112H0zM72 0h4v112h-4zM112 0h4v112h-4z"
         id="path10-7" /></pattern><clipPath
       id="a-83"><path
         d="m 94.72,143.404 h -4.232 l -0.53,-0.529 h -3.175 l -1.058,1.058 h -12.7 l -1.058,-1.058 H 69.32 l -0.53,0.53 h -8.466 l -0.53,-0.53 H 49.743 L 38.1,131.233 h 67.733 z"
         fill="#cc8b27"
         stroke-width="0.265"
         id="path11-0" /></clipPath><pattern
       patternUnits="userSpaceOnUse"
       width="136"
       height="112"
       patternTransform="matrix(.26458 0 0 .26458 103.717 -35.983)"
       id="b-7-0"><path
         fill="none"
         stroke-width="3.78"
         d="M0 0h136v112H0z"
         id="path4-9-2" /><path
         fill="none"
         stroke-width="3.78"
         d="M0 0h136v112H0z"
         id="path5-3-9" /><path
         fill="none"
         stroke-width="3.78"
         d="M0 0h136v112H0z"
         id="path6-9-3" /><path
         fill="none"
         stroke-width="3.78"
         d="M0 0h136v112H0z"
         id="path7-9-9" /><path
         fill="none"
         stroke-width="3.78"
         d="M0 0h136v112H0z"
         id="path8-42-8" /><path
         fill="#ed9c1f"
         stroke-width="8.662"
         stroke-linecap="round"
         d="M0 0h136v112H0z"
         id="path9-0" /><path
         fill-opacity=".176"
         stroke-width="7.286"
         stroke-miterlimit="10"
         d="M32 0h4v112h-4zM48 0h4v112h-4zM0 0h4v112H0zM72 0h4v112h-4zM112 0h4v112h-4z"
         id="path10-7-6" /></pattern><clipPath
       id="a-83-4"><path
         d="m 94.72,143.404 h -4.232 l -0.53,-0.529 h -3.175 l -1.058,1.058 h -12.7 l -1.058,-1.058 H 69.32 l -0.53,0.53 h -8.466 l -0.53,-0.53 H 49.743 L 38.1,131.233 h 67.733 z"
         fill="#cc8b27"
         stroke-width="0.265"
         id="path11-0-8" /></clipPath><clipPath
       id="a-70"><path
         fill="#ffffff"
         stroke-width="2.967"
         d="M 0,0 H 8.467 V 101.6 H 0 Z"
         id="path1-74" /></clipPath><clipPath
       id="a-14"><path
         d="m -54.001,140.558 v 27.517 h 8.467 v -27.517 z"
         fill="#d8a584"
         stroke-width="2.203"
         id="path1-25" /></clipPath><clipPath
       id="a-48"><path
         fill="#ffffff"
         stroke-width="3.204"
         d="M 0,0 H 8.467 V 118.533 H 0 Z"
         id="path1-77" /></clipPath><clipPath
       clipPathUnits="userSpaceOnUse"
       id="clipPath825"><path
         id="path827"
         d="M 0,-8.4679981 H 8.467 V 50.8 H 0 Z"
         inkscape:connector-curvature="0"
         style="fill:#fbfbfb;stroke-width:3.74699" /></clipPath><clipPath
       clipPathUnits="userSpaceOnUse"
       id="clipPath825-3"><path
         id="path827-8"
         d="M 0,-8.4679981 H 8.467 V 50.8 H 0 Z"
         inkscape:connector-curvature="0"
         style="fill:#fbfbfb;stroke-width:3.74699" /></clipPath><clipPath
       id="a-27"><path
         fill="#fbfbfb"
         stroke-width="3.469"
         d="M 0,0 H 8.467 V 50.8 H 0 Z"
         id="path1-5" /></clipPath><clipPath
       clipPathUnits="userSpaceOnUse"
       id="clipPath825-4"><path
         id="path827-86"
         d="M 0,-8.4679981 H 8.467 V 50.8 H 0 Z"
         inkscape:connector-curvature="0"
         style="fill:#fbfbfb;stroke-width:3.74699" /></clipPath><clipPath
       id="a-27-2"><path
         fill="#fbfbfb"
         stroke-width="3.469"
         d="M 0,0 H 8.467 V 50.8 H 0 Z"
         id="path1-5-4" /></clipPath><clipPath
       id="a-45"><path
         fill="#fbfbfb"
         stroke-width="3.469"
         d="M 0,0 H 8.467 V 50.8 H 0 Z"
         id="path1-24" /></clipPath><clipPath
       id="a-14-0"><path
         d="m -54.001,140.558 v 27.517 h 8.467 v -27.517 z"
         fill="#d8a584"
         stroke-width="2.203"
         id="path1-25-1" /></clipPath><clipPath
       id="a-20"><path
         fill="#ffffff"
         stroke-width="2.993"
         d="M 0,0 H 8.467 V 33.867 H 0 Z"
         id="path1-8" /></clipPath><clipPath
       id="a-3"><path
         fill="#ffffff"
         stroke-width="3.347"
         d="M 0,0 H 8.467 V 42.333 H 0 Z"
         id="path1-09" /></clipPath><clipPath
       clipPathUnits="userSpaceOnUse"
       id="clipPath821"><rect
         id="rect823"
         y="-8.4684973"
         x="-3.9672852e-07"
         height="84.668495"
         width="8.467"
         style="fill:#ffffff;stroke-width:2.70799" /></clipPath><clipPath
       clipPathUnits="userSpaceOnUse"
       id="clipPath2622"><rect
         style="fill:#003764;fill-opacity:1;stroke-width:4.01678"
         id="rect2624"
         ry="2.5400393"
         rx="2.5400534"
         y="3.1750655"
         x="1.9834799e-07"
         height="25.401232"
         width="57.150375" /></clipPath><clipPath
       clipPathUnits="userSpaceOnUse"
       id="clipPath2663"><rect
         style="fill:#0065b7;fill-opacity:1;stroke:none;stroke-width:6.6325;stroke-linecap:round;stroke-linejoin:miter;stroke-miterlimit:4;stroke-dasharray:none;stroke-opacity:1"
         id="rect2665"
         width="12.700267"
         height="21.167112"
         x="2.1158862"
         y="5.2917767"
         rx="1.0583556"
         ry="1.0583556" /></clipPath><clipPath
       id="f-1"><path
         fill="#eda500"
         stroke-width="2.114"
         stroke-miterlimit="10"
         d="m -307.054,16.14 h 5.821 v 5.821 h -5.821 z"
         id="path1-062" /></clipPath><clipPath
       id="a-03"><rect
         rx="0"
         y="-4.2329998"
         x="-301.233"
         height="37.042"
         width="26.988001"
         fill="#ed9000"
         stroke-width="1.713"
         id="rect1-2" /></clipPath><clipPath
       id="b-46"><path
         d="m -4.763,273.187 v -5.82 h 28.575 v 5.82 z"
         fill="#4d2600"
         stroke-width="3.532"
         id="path2-0" /></clipPath><clipPath
       id="c-8"><path
         d="m -4.763,273.187 v -5.82 h 28.575 v 5.82 z"
         fill="#4d2600"
         stroke-width="3.532"
         id="path3-4" /></clipPath><clipPath
       id="d-4"><path
         d="m -4.763,273.187 v -5.82 h 28.575 v 5.82 z"
         fill="#4d2600"
         stroke-width="3.532"
         id="path4-8" /></clipPath><clipPath
       id="e-2"><path
         d="m -4.763,273.187 v -5.82 h 28.575 v 5.82 z"
         fill="#4d2600"
         stroke-width="3.532"
         id="path5-65" /></clipPath><pattern
       xlink:href="#a-75"
       id="c-6"
       patternTransform="rotate(45 -382.625 182.436) scale(.34612)" /><clipPath
       id="b-1"><rect
         width="42.333"
         height="33.867001"
         x="-4.2329998"
         y="267.367"
         rx="4.2329998"
         ry="4.2329998"
         fill="#9b4c00"
         stroke-width="3.098"
         id="rect1-87" /></clipPath><pattern
       patternUnits="userSpaceOnUse"
       width="159.999"
       height="159.999"
       patternTransform="translate(19.05 305.467) scale(.26458)"
       id="a-75"><path
         fill="none"
         stroke-width="3.78"
         d="M0 0h159.999v159.999H0z"
         id="path1-03" /><path
         d="M0 0h80v80H0zm80 80h79.999v79.999h-80z"
         fill="#81431e"
         id="path2-34" /><path
         d="M80 0h79.999v80h-80zM0 80h80v79.999H0z"
         fill="#572b11"
         id="path3-2" /></pattern><clipPath
       id="c-83"><ellipse
         cx="19.049999"
         cy="19.049999"
         rx="10.583"
         ry="11.642"
         fill="#382b25"
         stroke-width="2.367"
         stroke-linecap="square"
         id="ellipse1" /></clipPath><clipPath
       id="b-8"><circle
         cy="7.408"
         cx="19.049999"
         fill="#382b25"
         stroke-width="0.677"
         stroke-linecap="square"
         id="ellipse2"
         r="3.175" /></clipPath><clipPath
       id="a-71"><path
         d="m 3.175,7.408 h 13.758 a 3.168,3.168 0 0 1 3.175,3.175 v 16.934 a 3.168,3.168 0 0 1 -3.175,3.175 H 3.175 A 3.168,3.168 0 0 1 0,27.517 V 10.583 A 3.168,3.168 0 0 1 3.175,7.408 Z"
         fill="#7e4e40"
         stroke-width="0.365"
         stroke-linecap="square"
         id="path2-1" /></clipPath><clipPath
       id="a-53"><path
         fill="#fbfbfb"
         stroke-width="3.469"
         d="M 0,0 H 8.467 V 50.8 H 0 Z"
         id="path1-9" /></clipPath></defs><g
     id="g11"
     transform="translate(-4.1749538,-4.7193479)"><g
       id="g1"
       transform="translate(4.1633393,4.2320384)"><path
         d="M 262.20107,31.61356 V 184.94333 H 31.273781 V 31.61356 Z"
         fill="url(#b)"
         id="path8-4"
         style="fill:url(#pattern1);stroke:#422002;stroke-width:0;stroke-dasharray:none;stroke-opacity:1" /><path
         d="M 8.4078566,8.8895262 H 220.0741 V 152.88573 H 8.4078566 Z"
         fill="url(#b)"
         id="path8"
         style="stroke-width:1.47285;stroke-dasharray:none" /><path
         style="fill:#381a06;fill-opacity:0.49;stroke:#1a1a1e;stroke-width:0;stroke-linecap:square;stroke-dasharray:none;stroke-opacity:1;paint-order:fill markers stroke"
         d="M 16.889135,93.711651 H 8.4224454 l -1e-5,59.264789 50.7834006,-0.0907 v -8.46666 h -42.33133 z"
         id="path10-6" /><path
         style="fill:#381a06;fill-opacity:0.490196;stroke:#381a06;stroke-width:0;stroke-linecap:square;stroke-dasharray:none;stroke-opacity:0.490196;paint-order:fill markers stroke"
         d="m 161.35331,9.0433946 v 8.4666474 h 50.79789 l -0.01,50.707808 h 8.46714 L 220.0741,8.952673 Z"
         id="path63" /><path
         style="fill:#381a06;fill-opacity:0.490196;stroke:#381a06;stroke-width:0;stroke-linecap:square;stroke-dasharray:none;stroke-opacity:0.490196;paint-order:fill markers stroke"
         d="m 160.80956,152.88573 v -8.46665 h 50.79789 l -0.01,-42.24052 h 8.46665 l 4.9e-4,50.79789 z"
         id="path63-5"
         sodipodi:nodetypes="ccccccc" /><rect
         style="fill:#381a06;fill-opacity:0.490196;stroke:#381a06;stroke-width:0;stroke-linecap:square;stroke-dasharray:none;stroke-opacity:0.490196;paint-order:fill markers stroke"
         id="rect64"
         width="42.331242"
         height="8.4666481"
         x="93.074356"
         y="144.41908" /><path
         style="fill:#381a06;fill-opacity:0.490196;stroke:#381a06;stroke-width:0;stroke-linecap:square;stroke-dasharray:none;stroke-opacity:0.490196;paint-order:fill markers stroke"
         d="m 8.4078666,68.217496 8.4666914,-5e-6 -0.01463,-50.707451 76.214428,-0.09072 -2e-6,84.66651 H 101.541 V 17.419323 l 33.84695,-0.06268 V 9.0433966 L 8.4078566,8.952673 Z"
         id="path64"
         sodipodi:nodetypes="ccccccccccc" /><rect
         style="fill:#5e2d03;fill-opacity:1;stroke:#422002;stroke-width:1.10348;stroke-linecap:square;stroke-dasharray:none;stroke-opacity:1;paint-order:fill markers stroke"
         id="rect12"
         width="7.3167982"
         height="35.455009"
         x="25.892895"
         y="153.43747" /><rect
         style="fill:#5e2d03;fill-opacity:1;stroke:#422002;stroke-width:1.08649;stroke-linecap:square;stroke-dasharray:none;stroke-opacity:1;paint-order:fill markers stroke"
         id="rect12-7"
         width="7.1280437"
         height="232.84706"
         x="-190.4437"
         y="25.883118"
         transform="rotate(-90)" /><rect
         style="fill:#5e2d03;fill-opacity:1;stroke:#422002;stroke-width:1.11236;stroke-linecap:square;stroke-dasharray:none;stroke-opacity:1;paint-order:fill markers stroke"
         id="rect13"
         width="7.4242449"
         height="156.21162"
         x="258.73019"
         y="34.21785" /><rect
         style="fill:#5e2d03;fill-opacity:1;stroke:#422002;stroke-width:1.09341;stroke-linecap:square;stroke-dasharray:none;stroke-opacity:1;paint-order:fill markers stroke"
         id="rect14"
         width="45.473183"
         height="7.3732443"
         x="220.62079"
         y="26.432676" /></g><g
       id="g131"
       style="fill:#451810"
       transform="matrix(0,-0.9999964,0.9999964,0,-61.617846,196.97026)"><path
         d="m 93.386,199.749 a 0.507,0.507 0 0 0 -0.507,-0.507 h -2.366 v -1.982 h 2.366 a 0.507,0.507 0 1 0 0,-1.014 h -2.366 v -1.982 h 2.366 a 0.507,0.507 0 1 0 0,-1.014 h -2.366 v -1.982 h 2.366 a 0.507,0.507 0 1 0 0,-1.014 h -2.366 v -1.983 h 2.366 a 0.507,0.507 0 1 0 0,-1.013 h -2.366 v -1.983 h 2.366 a 0.507,0.507 0 0 0 0,-1.014 h -2.366 v -1.982 h 2.366 a 0.507,0.507 0 0 0 0,-1.014 h -2.366 v -1.982 h 2.366 a 0.507,0.507 0 0 0 0,-1.014 h -2.366 v -1.982 h 2.366 a 0.507,0.507 0 0 0 0,-1.014 h -2.366 v -1.983 h 2.366 a 0.507,0.507 0 0 0 0,-1.013 H 50.436 a 0.507,0.507 0 0 0 0,1.013 h 2.366 v 1.983 h -2.366 a 0.507,0.507 0 0 0 0,1.014 h 2.366 v 1.982 h -2.366 a 0.507,0.507 0 0 0 0,1.014 h 2.366 v 1.982 h -2.366 a 0.507,0.507 0 0 0 0,1.014 h 2.366 v 1.982 h -2.366 a 0.507,0.507 0 0 0 0,1.014 h 2.366 v 1.982 h -2.366 a 0.507,0.507 0 1 0 0,1.014 h 2.366 v 1.983 h -2.366 a 0.507,0.507 0 1 0 0,1.013 h 2.366 v 1.983 h -2.366 a 0.507,0.507 0 1 0 0,1.014 h 2.366 v 1.982 h -2.366 a 0.507,0.507 0 1 0 0,1.014 h 2.366 v 1.982 h -2.366 a 0.507,0.507 0 1 0 0,1.014 H 92.88 c 0.28,0 0.507,-0.227 0.507,-0.507 z"
         id="path127"
         inkscape:connector-curvature="0" /><path
         d="m 62.577,186.267 9.08,-6.57 9.081,6.57 -9.08,6.568 z m 9.08,-4.818 -6.657,4.818 6.659,4.816 6.659,-4.816 z m 7.077,11.347 v 1.26 h -1.26 a 0.456,0.456 0 0 0 0,0.912 h 1.26 v 1.26 a 0.456,0.456 0 0 0 0.912,0 v -1.26 h 1.26 a 0.456,0.456 0 0 0 0,-0.912 h -1.26 v -1.26 a 0.456,0.456 0 0 0 -0.912,0 z m -14.878,3.432 v -1.26 h 1.26 a 0.456,0.456 0 0 0 0,-0.912 h -1.26 v -1.26 a 0.456,0.456 0 0 0 -0.912,0 v 1.26 h -1.26 a 0.456,0.456 0 0 0 0,0.912 h 1.26 v 1.26 a 0.456,0.456 0 0 0 0.912,0 z m 15.79,-16.979 v -1.26 h 1.26 a 0.456,0.456 0 0 0 0,-0.912 h -1.26 v -1.26 a 0.456,0.456 0 0 0 -0.912,0 v 1.26 h -1.26 a 0.456,0.456 0 0 0 0,0.912 h 1.26 v 1.26 a 0.456,0.456 0 0 0 0.912,0 z m -15.79,0 v -1.26 h 1.26 a 0.456,0.456 0 0 0 0,-0.912 h -1.26 v -1.26 a 0.456,0.456 0 0 0 -0.912,0 v 1.26 h -1.26 a 0.456,0.456 0 0 0 0,0.912 h 1.26 v 1.26 a 0.456,0.456 0 0 0 0.912,0 z"
         id="path129"
         inkscape:connector-curvature="0" /></g><g
       id="g137"
       style="fill:#70291b"
       transform="matrix(0,-0.9999964,0.9999964,0,-61.617846,196.97026)"><path
         d="M 85.185,200.256 H 58.13 l -2.027,-3.499 2.027,-3.497 -2.027,-3.497 2.027,-3.498 -2.027,-3.497 2.027,-3.497 -2.027,-3.498 2.027,-3.496 h 27.055 l 2.027,3.497 -2.027,3.498 2.027,3.498 -2.027,3.497 2.027,3.498 -2.027,3.497 2.027,3.496 z m -13.527,-8.298 7.87,-5.692 -7.87,-5.693 -7.87,5.693 z"
         id="path133"
         inkscape:connector-curvature="0" /><path
         d="m 72.182,188.028 v -1.26 h 1.26 a 0.456,0.456 0 0 0 0,-0.912 h -1.26 v -1.26 a 0.456,0.456 0 0 0 -0.912,0 v 1.26 h -1.26 a 0.456,0.456 0 0 0 0,0.912 h 1.26 v 1.26 a 0.456,0.456 0 0 0 0.912,0 z"
         id="path135"
         inkscape:connector-curvature="0" /></g></g></svg>
