<?xml version="1.0" encoding="UTF-8" standalone="no"?>
<svg
   width="160"
   height="160"
   viewBox="0 0 42.333328 42.333328"
   version="1.1"
   id="svg10"
   sodipodi:docname="map-squash-res-02.svg"
   inkscape:version="1.4.2 (ebf0e940, 2025-05-08)"
   xml:space="preserve"
   xmlns:inkscape="http://www.inkscape.org/namespaces/inkscape"
   xmlns:sodipodi="http://sodipodi.sourceforge.net/DTD/sodipodi-0.dtd"
   xmlns="http://www.w3.org/2000/svg"
   xmlns:svg="http://www.w3.org/2000/svg"
   xmlns:rdf="http://www.w3.org/1999/02/22-rdf-syntax-ns#"
   xmlns:cc="http://creativecommons.org/ns#"
   xmlns:dc="http://purl.org/dc/elements/1.1/"><metadata
     id="metadata16"><rdf:RDF><cc:Work
         rdf:about=""><dc:format>image/svg+xml</dc:format><dc:type
           rdf:resource="http://purl.org/dc/dcmitype/StillImage" /></cc:Work></rdf:RDF></metadata><defs
     id="defs14"><filter
       id="mask-powermask-path-effect7_inverse"
       inkscape:label="filtermask-powermask-path-effect7"
       style="color-interpolation-filters:sRGB"
       height="100"
       width="100"
       x="-50"
       y="-50"><feColorMatrix
         id="mask-powermask-path-effect7_primitive1"
         values="1"
         type="saturate"
         result="fbSourceGraphic" /><feColorMatrix
         id="mask-powermask-path-effect7_primitive2"
         values="-1 0 0 0 1 0 -1 0 0 1 0 0 -1 0 1 0 0 0 1 0 "
         in="fbSourceGraphic" /></filter><clipPath
       clipPathUnits="userSpaceOnUse"
       id="clipPath9"><path
         style="display:inline;fill:#f47500;fill-opacity:1;stroke:#323232;stroke-width:2.03374;stroke-linecap:butt;stroke-linejoin:miter;stroke-miterlimit:4;stroke-dasharray:none;stroke-opacity:1"
         d="m 19.050001,36.477461 c -3.073797,0 -6.002279,-2.936674 -6.002279,-2.936674 0,0 -4.1472921,0.0059 -6.3207953,-2.167712 -2.1735044,-2.173508 -2.1677114,-6.320794 -2.1677114,-6.320794 0,0 -2.9366736,-2.928484 -2.9366736,-6.002281 0,-3.073798 2.9366736,-6.002281 2.9366736,-6.002281 0,0 -0.00581,-4.1472904 2.1677104,-6.3207944 2.1735042,-2.1735036 6.3207953,-2.1677109 6.3207953,-2.1677109 0,0 2.928481,-2.9366737 6.00228,-2.9366737 3.073798,0 6.002279,2.9366737 6.002279,2.9366737 0,0 4.14729,-0.00578 6.320795,2.1677109 2.173504,2.173504 2.167712,6.3207934 2.167712,6.3207934 0,0 2.936672,2.928484 2.936672,6.002282 0,3.073797 -2.936672,6.002281 -2.936672,6.002281 0,0 0.0058,4.147286 -2.167712,6.320794 -2.173505,2.173504 -6.320795,2.167712 -6.320795,2.167712 0,0 -2.928481,2.936674 -6.002279,2.936674 z"
         id="path10"
         inkscape:connector-curvature="0"
         sodipodi:nodetypes="scccscccscccscccs"
         sodipodi:insensitive="true" /></clipPath><clipPath
       clipPathUnits="userSpaceOnUse"
       id="clipPath7"><path
         style="fill:none;fill-opacity:1;stroke:#323232;stroke-width:2.53888;stroke-linecap:butt;stroke-linejoin:miter;stroke-miterlimit:4;stroke-dasharray:none;stroke-opacity:1"
         d="M 7.3845806,6.4217794 C 4.9813498,8.2561473 4.5780231,12.922814 4.5780231,12.922814 c 0,0 5.1812536,3.259712 9.1425869,4.045659 l 4.064945,-3.409824 -4.017932,-8.7365741 c 0,0 -3.707195,-0.4427495 -6.3830424,1.5997045 z"
         id="path9"
         inkscape:connector-curvature="0"
         sodipodi:nodetypes="sccccs" /></clipPath><clipPath
       clipPathUnits="userSpaceOnUse"
       id="clipPath11"><path
         style="fill:none;fill-opacity:1;stroke:#323232;stroke-width:2.53888;stroke-linecap:butt;stroke-linejoin:miter;stroke-miterlimit:4;stroke-dasharray:none;stroke-opacity:1"
         d="M 7.3845806,6.4217794 C 4.9813498,8.2561473 4.5780231,12.922814 4.5780231,12.922814 c 0,0 5.1812536,3.259712 9.1425869,4.045659 l 4.064945,-3.409824 -4.017932,-8.7365741 c 0,0 -3.707195,-0.4427495 -6.3830424,1.5997045 z"
         id="path12"
         inkscape:connector-curvature="0"
         sodipodi:nodetypes="sccccs" /></clipPath><clipPath
       clipPathUnits="userSpaceOnUse"
       id="clipPath13"><path
         style="fill:none;fill-opacity:1;stroke:#323232;stroke-width:2.6753;stroke-linecap:butt;stroke-linejoin:miter;stroke-miterlimit:4;stroke-dasharray:none;stroke-opacity:1"
         d="m 26.174251,11.979964 -6.097158,0.453955 -4.693002,-0.744839 -3.683537,3.198358 0.405908,5.416551 -2.2572655,3.430036 5.6697665,1.814399 4.655774,3.190015 3.316657,-4.192837 3.59273,-1.431095 -1.322391,-5.629111 z"
         id="path14"
         inkscape:connector-curvature="0"
         sodipodi:nodetypes="cccccccccccc" /></clipPath><clipPath
       clipPathUnits="userSpaceOnUse"
       id="clipPath15"><path
         style="fill:none;fill-opacity:1;stroke:#323232;stroke-width:2.6753;stroke-linecap:butt;stroke-linejoin:miter;stroke-miterlimit:4;stroke-dasharray:none;stroke-opacity:1"
         d="m 26.174251,11.979964 -6.097158,0.453955 -4.693002,-0.744839 -3.683537,3.198358 0.405908,5.416551 -2.2572655,3.430036 5.6697665,1.814399 4.655774,3.190015 3.316657,-4.192837 3.59273,-1.431095 -1.322391,-5.629111 z"
         id="path16"
         inkscape:connector-curvature="0"
         sodipodi:nodetypes="cccccccccccc" /></clipPath></defs><sodipodi:namedview
     pagecolor="#ffffff"
     bordercolor="#666666"
     borderopacity="1"
     objecttolerance="10"
     gridtolerance="10"
     guidetolerance="10"
     inkscape:pageopacity="0"
     inkscape:pageshadow="2"
     inkscape:window-width="1280"
     inkscape:window-height="691"
     id="namedview12"
     showgrid="true"
     inkscape:zoom="2.4203367"
     inkscape:cx="92.75569"
     inkscape:cy="66.106505"
     inkscape:window-x="0"
     inkscape:window-y="25"
     inkscape:window-maximized="0"
     inkscape:current-layer="svg10"
     inkscape:showpageshadow="2"
     inkscape:pagecheckerboard="0"
     inkscape:deskcolor="#d1d1d1"><inkscape:grid
       type="xygrid"
       id="grid823"
       empspacing="4"
       spacingy="1.0583333"
       spacingx="1.0583333"
       originx="0"
       originy="0"
       units="px" /></sodipodi:namedview><g
     id="g16"><g
       id="g2"
       transform="matrix(0.71114584,0,0,0.71114584,7.8171082,7.5035454)"><path
         style="display:inline;fill:#f47500;fill-opacity:1;stroke:#323232;stroke-width:2.03374;stroke-linecap:butt;stroke-linejoin:miter;stroke-miterlimit:4;stroke-dasharray:none;stroke-opacity:1"
         d="m 19.050001,36.47746 c -3.073797,0 -6.002279,-2.936673 -6.002279,-2.936673 0,0 -4.1472921,0.0059 -6.3207953,-2.167713 -2.1735043,-2.173506 -2.1677114,-6.320793 -2.1677114,-6.320793 0,0 -2.9366736,-2.928484 -2.9366736,-6.002281 0,-3.073798 2.9366736,-6.002281 2.9366736,-6.002281 0,0 -0.00581,-4.1472905 2.1677104,-6.3207943 2.1735042,-2.1735038 6.3207953,-2.167711 6.3207953,-2.167711 0,0 2.928481,-2.9366737 6.00228,-2.9366737 3.073798,0 6.002279,2.9366737 6.002279,2.9366737 0,0 4.14729,-0.00578 6.320794,2.167711 2.173505,2.1735038 2.167713,6.3207933 2.167713,6.3207933 0,0 2.936671,2.928484 2.936671,6.002282 0,3.073797 -2.936671,6.002281 -2.936671,6.002281 0,0 0.0058,4.147287 -2.167712,6.320793 -2.173504,2.173506 -6.320795,2.167713 -6.320795,2.167713 0,0 -2.928481,2.936673 -6.002279,2.936673 z"
         id="path920"
         inkscape:connector-curvature="0"
         sodipodi:nodetypes="scccscccscccscccs"
         sodipodi:insensitive="true"
         clip-path="url(#clipPath13)" /><path
         id="path1-2"
         style="display:inline;fill:#fff1e8;fill-opacity:0.766467;stroke:#ffb856;stroke-width:1e-08;stroke-dasharray:none;stroke-opacity:0.0868263"
         d="m 12.7,1.0583333 c -10e-7,0 2.116667,2.7792984 2.116667,4.2333334 0,2.116668 2.075947,3.2157183 1.058333,4.2333333 -1.045491,1.045492 2.000419,3.163344 1.093473,4.19561 -0.295266,-0.403517 -0.603734,-0.657324 -0.912089,-0.657325 -1.458916,0 -0.748114,-3.7418908 -2.244824,-3.7418901 C 12.365662,9.3213935 13.062929,7.076214 11.566219,5.5795044 10.543815,4.5571008 10.06967,1.0893392 10.06967,1.0893392 L 1.0893392,10.06967 c -8e-7,10e-7 3.4620072,0.468391 4.4901652,1.496549 1.496711,1.49671 3.7418895,0.806217 3.7418905,2.245341 1e-6,1.496709 3.7418911,0.805698 3.7418901,2.244824 10e-7,0.308364 0.253786,0.616815 0.657325,0.912089 C 12.675365,17.89009 10.570669,14.82933 9.525,15.875 8.502595,16.897403 7.4083337,14.816667 5.2916667,14.816667 3.8457697,14.816667 1.0583333,12.7 1.0583333,12.7 v 12.7 c 0,1e-6 2.7792984,-2.116667 4.2333334,-2.116667 2.116668,0 3.2157183,-2.075947 4.2333333,-1.058333 0.990102,0.990101 2.942218,-1.689227 4.02301,-1.205611 -0.333416,0.267175 -0.537951,0.543997 -0.537951,0.820622 10e-7,1.439126 -3.7418899,0.748115 -3.7418909,2.244824 -1e-6,1.439124 -2.2451794,0.748631 -3.7418904,2.245341 -1.028158,1.028158 -4.490166,1.496548 -4.4901652,1.496549 l 8.9803305,8.980331 c 0,0 0.474661,-3.467763 1.497066,-4.490166 1.49671,-1.49671 0.798926,-3.741888 2.244824,-3.74189 1.496709,1e-6 0.785908,-3.74189 2.244825,-3.74189 0.288816,-1e-6 0.5777,-0.222573 0.855761,-0.582394 0.02196,0.03316 0.04684,0.06337 0.07441,0.09095 1.017616,1.017616 -2.116666,3.174999 -1.058333,4.233333 1.017614,1.017614 -1.058333,2.116666 -1.058333,4.233333 0,1.454036 -2.116667,4.233334 -2.116667,4.233334 h 12.7 c 0,0 -2.116667,-2.787437 -2.116667,-4.233334 0,-2.116667 -2.080737,-3.210929 -1.058333,-4.233333 1.058333,-1.058334 -2.089943,-3.201722 -1.058333,-4.233333 0.02758,-0.02758 0.05245,-0.05779 0.07441,-0.09095 0.278061,0.359821 0.566945,0.582393 0.855761,0.582394 1.458916,0 0.748115,3.74189 2.244825,3.74189 1.445898,1e-6 0.748114,2.24518 2.244824,3.74189 1.022404,1.022403 1.497066,4.490166 1.497066,4.490166 l 8.980331,-8.980331 c 1e-6,-1e-6 -3.462008,-0.468391 -4.490166,-1.496549 -1.496711,-1.49671 -3.741889,-0.806217 -3.74189,-2.245341 -1e-6,-1.496709 -3.741892,-0.805697 -3.741891,-2.244824 0,-0.276625 -0.204536,-0.553447 -0.537951,-0.820622 1.080793,-0.483613 3.032909,2.195711 4.02301,1.205611 1.017615,-1.017614 2.116665,1.058333 4.233333,1.058333 1.454035,0 4.233334,2.116668 4.233334,2.116667 V 12.7 c 0,0 -2.787437,2.116667 -4.233334,2.116667 -2.116667,0 -3.210928,2.080736 -4.233333,1.058333 -1.045669,-1.04567 -3.150365,2.015088 -4.19561,1.093473 0.403539,-0.295275 0.657324,-0.603725 0.657325,-0.912089 -1e-6,-1.439127 3.741889,-0.748115 3.74189,-2.244824 10e-7,-1.439124 2.24518,-0.748631 3.741891,-2.245341 1.028158,-1.028158 4.490166,-1.496548 4.490165,-1.496549 L 28.03033,1.0893392 c 0,0 -0.474145,3.4677616 -1.496549,4.4901652 -1.49671,1.4967096 -0.799443,3.7418891 -2.245341,3.7418905 -1.49671,-7e-7 -0.785908,3.7418901 -2.244824,3.7418901 -0.308365,10e-7 -0.616814,0.253785 -0.912089,0.657325 C 20.209908,12.675366 23.27067,10.57067 22.225,9.525 21.202597,8.502595 23.283333,7.4083337 23.283333,5.2916667 23.283333,3.8457697 25.4,1.0583333 25.4,1.0583333 Z"
         clip-path="url(#clipPath15)"
         inkscape:label="whiteoutline"
         sodipodi:insensitive="true" /><path
         style="display:inline;fill:#aa6318;fill-opacity:1;stroke:#323232;stroke-width:2.0288;stroke-linecap:butt;stroke-linejoin:miter;stroke-miterlimit:4;stroke-dasharray:none;stroke-opacity:1"
         inkscape:transform-center-y="-0.19717456"
         d="m 19.049999,15.626326 c 0.993155,0 1.635189,1.409815 1.635189,1.409815 0,0 1.539211,0.17495 1.846114,1.1195 0.306901,0.94455 -0.835513,1.99081 -0.835513,1.99081 0,0 0.309253,1.51794 -0.494226,2.10171 -0.80348,0.58376 -2.151564,-0.17943 -2.151564,-0.17943 0,0 -1.348083,0.76319 -2.151562,0.17943 -0.803478,-0.58377 -0.494227,-2.10171 -0.494227,-2.10171 0,0 -1.142413,-1.04626 -0.835512,-1.99081 0.306902,-0.94455 1.846115,-1.1195 1.846115,-1.1195 0,0 0.642033,-1.409815 1.635186,-1.409815 z"
         id="path941"
         inkscape:connector-curvature="0"
         sodipodi:nodetypes="scscscscscs" /><path
         style="fill:none;fill-opacity:1;stroke:#323232;stroke-width:1.90253;stroke-linecap:butt;stroke-linejoin:miter;stroke-miterlimit:4;stroke-dasharray:none;stroke-opacity:1"
         d="m 26.430819,16.023047 -4.335969,0.322828 -3.337409,-0.529689 -2.619532,2.274499 0.28866,3.851958 -1.605245,2.439256 4.032031,1.290302 3.310934,2.268566 2.358627,-2.981719 2.554954,-1.017717 -0.940412,-4.003119 z"
         id="path920-7"
         inkscape:connector-curvature="0"
         sodipodi:nodetypes="cccccccccccc"
         transform="matrix(1.4061813,0,0,1.4061813,-10.992272,-10.551345)" /></g><g
       id="g5"
       transform="matrix(0.71114584,0,0,0.71114584,0.82597814,1.6912741)"><path
         style="display:inline;fill:#f47500;fill-opacity:1;stroke:#323232;stroke-width:2.03374;stroke-linecap:butt;stroke-linejoin:miter;stroke-miterlimit:4;stroke-dasharray:none;stroke-opacity:1"
         d="m 19.050001,36.47746 c -3.073797,0 -6.002279,-2.936673 -6.002279,-2.936673 0,0 -4.1472921,0.0059 -6.3207953,-2.167713 -2.1735043,-2.173506 -2.1677114,-6.320793 -2.1677114,-6.320793 0,0 -2.9366736,-2.928484 -2.9366736,-6.002281 0,-3.073798 2.9366736,-6.002281 2.9366736,-6.002281 0,0 -0.00581,-4.1472905 2.1677104,-6.3207943 2.1735042,-2.1735038 6.3207953,-2.167711 6.3207953,-2.167711 0,0 2.928481,-2.9366737 6.00228,-2.9366737 3.073798,0 6.002279,2.9366737 6.002279,2.9366737 0,0 4.14729,-0.00578 6.320794,2.167711 2.173505,2.1735038 2.167713,6.3207933 2.167713,6.3207933 0,0 2.936671,2.928484 2.936671,6.002282 0,3.073797 -2.936671,6.002281 -2.936671,6.002281 0,0 0.0058,4.147287 -2.167712,6.320793 -2.173504,2.173506 -6.320795,2.167713 -6.320795,2.167713 0,0 -2.928481,2.936673 -6.002279,2.936673 z"
         id="path1"
         inkscape:connector-curvature="0"
         sodipodi:nodetypes="scccscccscccscccs"
         sodipodi:insensitive="true"
         clip-path="url(#clipPath7)" /><path
         id="path2"
         style="display:inline;fill:#fff1e8;fill-opacity:0.766467;stroke:#ffb856;stroke-width:1e-08;stroke-dasharray:none;stroke-opacity:0.0868263"
         d="m 12.7,1.0583333 c -10e-7,0 2.116667,2.7792984 2.116667,4.2333334 0,2.116668 2.075947,3.2157183 1.058333,4.2333333 -1.045491,1.045492 2.000419,3.163344 1.093473,4.19561 -0.295266,-0.403517 -0.603734,-0.657324 -0.912089,-0.657325 -1.458916,0 -0.748114,-3.7418908 -2.244824,-3.7418901 C 12.365662,9.3213935 13.062929,7.076214 11.566219,5.5795044 10.543815,4.5571008 10.06967,1.0893392 10.06967,1.0893392 L 1.0893392,10.06967 c -8e-7,10e-7 3.4620072,0.468391 4.4901652,1.496549 1.496711,1.49671 3.7418895,0.806217 3.7418905,2.245341 1e-6,1.496709 3.7418911,0.805698 3.7418901,2.244824 10e-7,0.308364 0.253786,0.616815 0.657325,0.912089 C 12.675365,17.89009 10.570669,14.82933 9.525,15.875 8.502595,16.897403 7.4083337,14.816667 5.2916667,14.816667 3.8457697,14.816667 1.0583333,12.7 1.0583333,12.7 v 12.7 c 0,1e-6 2.7792984,-2.116667 4.2333334,-2.116667 2.116668,0 3.2157183,-2.075947 4.2333333,-1.058333 0.990102,0.990101 2.942218,-1.689227 4.02301,-1.205611 -0.333416,0.267175 -0.537951,0.543997 -0.537951,0.820622 10e-7,1.439126 -3.7418899,0.748115 -3.7418909,2.244824 -1e-6,1.439124 -2.2451794,0.748631 -3.7418904,2.245341 -1.028158,1.028158 -4.490166,1.496548 -4.4901652,1.496549 l 8.9803305,8.980331 c 0,0 0.474661,-3.467763 1.497066,-4.490166 1.49671,-1.49671 0.798926,-3.741888 2.244824,-3.74189 1.496709,1e-6 0.785908,-3.74189 2.244825,-3.74189 0.288816,-1e-6 0.5777,-0.222573 0.855761,-0.582394 0.02196,0.03316 0.04684,0.06337 0.07441,0.09095 1.017616,1.017616 -2.116666,3.174999 -1.058333,4.233333 1.017614,1.017614 -1.058333,2.116666 -1.058333,4.233333 0,1.454036 -2.116667,4.233334 -2.116667,4.233334 h 12.7 c 0,0 -2.116667,-2.787437 -2.116667,-4.233334 0,-2.116667 -2.080737,-3.210929 -1.058333,-4.233333 1.058333,-1.058334 -2.089943,-3.201722 -1.058333,-4.233333 0.02758,-0.02758 0.05245,-0.05779 0.07441,-0.09095 0.278061,0.359821 0.566945,0.582393 0.855761,0.582394 1.458916,0 0.748115,3.74189 2.244825,3.74189 1.445898,1e-6 0.748114,2.24518 2.244824,3.74189 1.022404,1.022403 1.497066,4.490166 1.497066,4.490166 l 8.980331,-8.980331 c 1e-6,-1e-6 -3.462008,-0.468391 -4.490166,-1.496549 -1.496711,-1.49671 -3.741889,-0.806217 -3.74189,-2.245341 -1e-6,-1.496709 -3.741892,-0.805697 -3.741891,-2.244824 0,-0.276625 -0.204536,-0.553447 -0.537951,-0.820622 1.080793,-0.483613 3.032909,2.195711 4.02301,1.205611 1.017615,-1.017614 2.116665,1.058333 4.233333,1.058333 1.454035,0 4.233334,2.116668 4.233334,2.116667 V 12.7 c 0,0 -2.787437,2.116667 -4.233334,2.116667 -2.116667,0 -3.210928,2.080736 -4.233333,1.058333 -1.045669,-1.04567 -3.150365,2.015088 -4.19561,1.093473 0.403539,-0.295275 0.657324,-0.603725 0.657325,-0.912089 -1e-6,-1.439127 3.741889,-0.748115 3.74189,-2.244824 10e-7,-1.439124 2.24518,-0.748631 3.741891,-2.245341 1.028158,-1.028158 4.490166,-1.496548 4.490165,-1.496549 L 28.03033,1.0893392 c 0,0 -0.474145,3.4677616 -1.496549,4.4901652 -1.49671,1.4967096 -0.799443,3.7418891 -2.245341,3.7418905 -1.49671,-7e-7 -0.785908,3.7418901 -2.244824,3.7418901 -0.308365,10e-7 -0.616814,0.253785 -0.912089,0.657325 C 20.209908,12.675366 23.27067,10.57067 22.225,9.525 21.202597,8.502595 23.283333,7.4083337 23.283333,5.2916667 23.283333,3.8457697 25.4,1.0583333 25.4,1.0583333 Z"
         clip-path="url(#clipPath11)"
         inkscape:label="whiteoutline"
         sodipodi:insensitive="true" /><path
         style="display:inline;fill:none;stroke:#d8a781;stroke-width:1.05833;stroke-linecap:round;stroke-linejoin:round;stroke-miterlimit:4;stroke-dasharray:none;stroke-opacity:1"
         d="m 9.3053392,8.959445 4.2333338,4.233333"
         id="path4"
         inkscape:connector-curvature="0"
         sodipodi:nodetypes="cc" /><path
         style="fill:none;fill-opacity:1;stroke:#323232;stroke-width:2.53888;stroke-linecap:butt;stroke-linejoin:miter;stroke-miterlimit:4;stroke-dasharray:none;stroke-opacity:1"
         d="M 7.3845804,6.4217795 C 4.98135,8.2561472 4.5780232,12.922814 4.5780232,12.922814 c 0,0 5.1812534,3.259712 9.1425868,4.045659 l 4.064945,-3.409824 -4.017932,-8.7365742 c 0,0 -3.707195,-0.4427493 -6.3830426,1.5997047 z"
         id="path11"
         inkscape:connector-curvature="0"
         sodipodi:nodetypes="sccccs" /></g></g></svg>
