<?xml version="1.0" encoding="UTF-8" standalone="no"?>
<!-- Created with Inkscape (http://www.inkscape.org/) -->

<svg width="927.99988" height="644.00012" viewBox="0 0 245.53331 170.3917" version="1.1" id="svg1" inkscape:version="1.4.3 (0d15f75042, 2025-12-25)" sodipodi:docname="map-building-hut-ceiling-04.svg" xml:space="preserve" xmlns:inkscape="http://www.inkscape.org/namespaces/inkscape" xmlns:sodipodi="http://sodipodi.sourceforge.net/DTD/sodipodi-0.dtd" xmlns:xlink="http://www.w3.org/1999/xlink" xmlns="http://www.w3.org/2000/svg" xmlns:svg="http://www.w3.org/2000/svg"><sodipodi:namedview id="namedview1" pagecolor="#ffffff" bordercolor="#000000" borderopacity="0.25" inkscape:showpageshadow="2" inkscape:pageopacity="0.0" inkscape:pagecheckerboard="0" inkscape:deskcolor="#d1d1d1" inkscape:document-units="px" showguides="true" inkscape:zoom="0.5" inkscape:cx="191" inkscape:cy="441" inkscape:window-width="1920" inkscape:window-height="1021" inkscape:window-x="1512" inkscape:window-y="31" inkscape:window-maximized="1" inkscape:current-layer="layer1" showgrid="true"><inkscape:grid id="grid61" units="px" originx="-7.4083357" originy="204.25833" spacingx="1.0583333" spacingy="1.0583333" empcolor="#0099e5" empopacity="0.30196078" color="#0099e5" opacity="0.14901961" empspacing="8" enabled="true" visible="true" /></sodipodi:namedview><defs id="defs1"><pattern inkscape:collect="always" xlink:href="#pattern123" preserveAspectRatio="none" id="pattern212" patternTransform="matrix(0.26458,0,0,0.26458,104.86216,-243.75995)" /><pattern inkscape:collect="always" xlink:href="#pattern84" preserveAspectRatio="none" id="pattern211" patternTransform="matrix(0,0.26457999,-0.26457999,0,104.86216,-243.75995)" /><pattern inkscape:collect="always" xlink:href="#pattern85" preserveAspectRatio="none" id="pattern210" patternTransform="matrix(0,0.26457999,-0.26457999,0,104.86216,-243.75995)" /><pattern inkscape:collect="always" xlink:href="#pattern86" preserveAspectRatio="none" id="pattern209" patternTransform="matrix(0.26458,0,0,0.26458,104.86216,-243.75995)" /><pattern inkscape:collect="always" xlink:href="#pattern1" preserveAspectRatio="none" id="pattern208" patternTransform="matrix(0.26458,0,0,0.26458,195.79065,2.1176244)" /><pattern inkscape:collect="always" xlink:href="#pattern1" preserveAspectRatio="none" id="pattern207" patternTransform="matrix(-0.26458,0,0,-0.26458,98.425285,-62.44078)" x="0" y="0" /><pattern inkscape:collect="always" xlink:href="#pattern86" preserveAspectRatio="none" id="pattern188" patternTransform="matrix(0.52915994,0,0,0.52915994,83.953848,-364.64577)" /><pattern inkscape:collect="always" xlink:href="#pattern85" preserveAspectRatio="none" id="pattern187" patternTransform="matrix(0,0.52915992,-0.52915992,0,83.953848,-364.64577)" /><pattern inkscape:collect="always" xlink:href="#pattern84" preserveAspectRatio="none" id="pattern186" patternTransform="matrix(0,0.52915992,-0.52915992,0,83.953848,-364.64577)" /><pattern inkscape:collect="always" xlink:href="#pattern123" preserveAspectRatio="none" id="pattern185" patternTransform="matrix(0.52915994,0,0,0.52915994,83.953848,-364.64577)" /><pattern inkscape:collect="always" xlink:href="#pattern86" preserveAspectRatio="none" id="pattern182" patternTransform="matrix(0.3527733,0,0,0.3527733,97.89273,-284.05521)" /><pattern inkscape:collect="always" xlink:href="#pattern85" preserveAspectRatio="none" id="pattern181" patternTransform="matrix(0,0.35277328,-0.35277328,0,97.89273,-284.05521)" /><pattern inkscape:collect="always" xlink:href="#pattern84" preserveAspectRatio="none" id="pattern180" patternTransform="matrix(0,0.35277328,-0.35277328,0,97.89273,-284.05521)" /><pattern inkscape:collect="always" xlink:href="#pattern123" preserveAspectRatio="none" id="pattern179" patternTransform="matrix(0.3527733,0,0,0.3527733,97.89273,-284.05521)" /><pattern inkscape:collect="always" xlink:href="#b-1-0-78" id="pattern123" patternTransform="matrix(0.26458,0,0,0.26458,97.453827,-39.501621)" x="0" y="0" preserveAspectRatio="none" /><pattern inkscape:collect="always" xlink:href="#b-1-0-78" id="pattern86" patternTransform="matrix(0.26458,0,0,0.26458,97.453827,-39.501621)" x="0" y="0" preserveAspectRatio="none" /><pattern inkscape:collect="always" xlink:href="#b-1-0-78" id="pattern85" patternTransform="matrix(0,0.26457999,-0.26457999,0,97.453827,-39.501621)" x="0" y="0" preserveAspectRatio="none" /><pattern inkscape:collect="always" xlink:href="#b-1-0-78" id="pattern84" patternTransform="matrix(0,0.26457999,-0.26457999,0,97.453827,-39.501621)" x="0" y="0" preserveAspectRatio="none" /><pattern patternUnits="userSpaceOnUse" width="136" height="112" patternTransform="matrix(.26458 0 0 .26458 103.717 -35.983)" id="b-1-0-78" inkscape:label="b-1-0-78"><path fill="none" stroke-width="3.78" d="M0 0h136v112H0z" id="path4-73-56-07" /><path fill="none" stroke-width="3.78" d="M0 0h136v112H0z" id="path5-4-7-0" /><path fill="none" stroke-width="3.78" d="M0 0h136v112H0z" id="path6-2-0-94" /><path fill="none" stroke-width="3.78" d="M0 0h136v112H0z" id="path7-76-73-84" /><path fill="none" stroke-width="3.78" d="M0 0h136v112H0z" id="path8-44-3-9" /><path fill="#ed9c1f" stroke-width="8.662" stroke-linecap="round" d="M0 0h136v112H0z" id="path9-5-80-91" /><path fill-opacity=".176" stroke-width="7.286" stroke-miterlimit="10" d="M32 0h4v112h-4zM48 0h4v112h-4zM0 0h4v112H0zM72 0h4v112h-4zM112 0h4v112h-4z" id="path10-2-65-2" /></pattern><clipPath clipPathUnits="userSpaceOnUse" id="clipPath123"><path d="m 7.2371208,-203.30743 v 10.28782 l -1.05833,1.14876 v 5.74436 l 1.05833,1.14876 v 23.12204 l -1.05833,1.14876 v 19.52905 l 1.05833,1.14876 v 9.07438 l -1.05833,1.26504 v 5.61465 l 1.05833,1.27796 v 25.272867 l -1.05833,1.148771 v 16.083259 l 1.05833,1.14876 v 5.67201 l -1.05833,1.220589 v 22.936595 l 1.05833,1.187521 v 5.68596 L 125.77044,-122.8741 Z" style="fill:#000000;stroke:none;stroke-width:2.11667;stroke-dasharray:none;paint-order:fill markers stroke;stop-color:#000000" id="path124" sodipodi:nodetypes="cccccccccccccccccccccccc" /></clipPath><clipPath clipPathUnits="userSpaceOnUse" id="clipPath125"><path d="m 17.829751,-204.36576 -1.14877,1.05833 H 7.2371208 l 118.5333192,80.43333 118.53334,-80.43333 h -21.9909 l -1.14929,-1.05833 h -19.52904 l -1.14877,1.05833 h -25.27339 l -1.14877,-1.05833 h -20.67779 l -1.14878,1.05833 H 125.8149 l -1.14878,-1.05833 h -10.3389 l -1.14877,1.05833 h -12.63644 l -1.148758,-1.05833 H 82.16123 l -1.14877,1.05833 H 59.18588 l -1.14876,-1.05833 h -6.89261 l -1.14875,1.05833 H 33.912501 l -1.14877,-1.05833 z" style="fill:#000000;stroke:none;stroke-width:2.11667;stroke-dasharray:none;paint-order:fill markers stroke;stop-color:#000000" id="path126" sodipodi:nodetypes="cccccccccccccccccccccccccccc" /></clipPath><clipPath clipPathUnits="userSpaceOnUse" id="clipPath128"><path d="M 7.2371208,-42.440758 H 17.698491 l 1.14877,1.058328 h 14.93397 l 1.148771,-1.058328 h 16.08274 l 1.148768,1.058328 h 6.892602 l 1.149279,-1.058328 h 21.82658 l 1.14876,1.058328 h 17.231509 l 1.14877,-1.058328 h 12.63695 l 1.14877,1.058328 h 10.3389 l 1.14877,-1.058328 h 26.42216 l 1.14877,1.058328 h 20.6778 l 1.14877,-1.058328 h 25.27339 l 1.14877,1.058328 h 19.52904 l 1.14877,-1.058328 h 20.97391 L 125.77044,-122.8741 Z" style="fill:#000000;stroke:none;stroke-width:2.11667;stroke-dasharray:none;paint-order:fill markers stroke;stop-color:#000000" id="path130" sodipodi:nodetypes="cccccccccccccccccccccccccccc" /></clipPath><clipPath clipPathUnits="userSpaceOnUse" id="clipPath131"><path d="m 125.77044,-122.8741 118.53334,80.433342 v -15.573214 l 1.05832,-1.187521 v -22.93659 l -1.05832,-1.220591 v -5.672008 l 1.05832,-1.148771 V -106.2627 l -1.05832,-1.14877 v -25.27288 l 1.05832,-1.27795 v -5.61465 l -1.05832,-1.26504 v -9.07438 l 1.05832,-1.14877 v -19.52904 l -1.05832,-1.14876 v -13.78521 l 1.05832,-1.14877 v -5.74435 l -1.05832,-1.14877 v -9.73739 z" style="fill:#000000;stroke:none;stroke-width:2.11667;stroke-dasharray:none;paint-order:fill markers stroke;stop-color:#000000" id="path132" sodipodi:nodetypes="cccccccccccccccccccccccc" /></clipPath><pattern inkscape:collect="always" xlink:href="#b" id="pattern1" patternTransform="matrix(0.26458,0,0,0.26458,-41.274844,-8.4656867)" x="0" y="0" preserveAspectRatio="none" /><pattern patternUnits="userSpaceOnUse" width="136" height="112" patternTransform="matrix(.26458 0 0 .26458 103.717 -35.983)" id="b" inkscape:label="b"><path fill="none" stroke-width="3.78" d="M0 0h136v112H0z" id="path4" /><path fill="none" stroke-width="3.78" d="M0 0h136v112H0z" id="path5" /><path fill="none" stroke-width="3.78" d="M0 0h136v112H0z" id="path6" /><path fill="none" stroke-width="3.78" d="M0 0h136v112H0z" id="path7" /><path fill="none" stroke-width="3.78" d="M0 0h136v112H0z" id="path8" /><path fill="#ed9c1f" stroke-width="8.662" stroke-linecap="round" d="M0 0h136v112H0z" id="path9" /><path fill-opacity=".176" stroke-width="7.286" stroke-miterlimit="10" d="M32 0h4v112h-4zM48 0h4v112h-4zM0 0h4v112H0zM72 0h4v112h-4zM112 0h4v112h-4z" id="path10" /></pattern><clipPath id="a"><path d="m 94.72,143.404 h -4.232 l -0.53,-0.529 h -3.175 l -1.058,1.058 h -12.7 l -1.058,-1.058 H 69.32 l -0.53,0.53 h -8.466 l -0.53,-0.53 H 49.743 L 38.1,131.233 h 67.733 z" fill="#cc8b27" stroke-width="0.265" id="path11" /></clipPath></defs><g inkscape:label="Layer 1" inkscape:groupmode="layer" id="layer1" transform="translate(-12.441963,200.84714)"><path d="m 94.72,143.404 h -4.232 l -0.53,-0.529 h -3.175 l -1.058,1.058 h -12.7 l -1.058,-1.058 H 69.32 l -0.53,0.53 h -8.466 l -0.53,-0.53 H 49.743 L 38.1,131.233 h 67.733 z" clip-path="url(#a)" fill="url(#b)" stroke="#000000" stroke-width="2.11699" id="path207" style="fill:url(#pattern207)" transform="matrix(1.0000049,0,0,1.0000049,17.733436,-174.38914)" /><path d="m 94.72,143.404 h -4.232 l -0.53,-0.529 h -3.175 l -1.058,1.058 h -12.7 l -1.058,-1.058 H 69.32 l -0.53,0.53 h -8.466 l -0.53,-0.53 H 49.743 L 38.1,131.233 h 67.733 z" clip-path="url(#a)" fill="url(#b)" stroke="#000000" stroke-width="2.11699" id="path38" style="fill:url(#pattern208)" transform="matrix(0,-1.0000049,1.0000049,0,114.04157,-41.038624)" /><path d="M 7.2371208,-42.440759 H 17.698491 l 1.14877,1.05833 h 14.93397 l 1.14877,-1.05833 h 16.08274 l 1.14877,1.05833 h 6.8926 l 1.14928,-1.05833 h 21.82658 l 1.14876,1.05833 h 17.231509 l 1.14877,-1.05833 h 12.63695 l 1.14877,1.05833 h 10.3389 l 1.14877,-1.05833 h 26.42216 l 1.14877,1.05833 h 20.6778 l 1.14877,-1.05833 h 25.27339 l 1.14877,1.05833 h 19.52904 l 1.14877,-1.05833 h 20.97391 L 125.77044,-122.8741 Z" style="fill:url(#pattern209);stroke:#000000;stroke-width:2.11667;stroke-dasharray:none;paint-order:fill markers stroke;stop-color:#000000" id="path81" sodipodi:nodetypes="cccccccccccccccccccccccccccc" clip-path="url(#clipPath128)" transform="translate(6.2631725,3.5186214)" /><path d="m 7.2371208,-203.30743 v 10.28782 l -1.05833,1.14876 v 5.74436 l 1.05833,1.14876 v 23.12204 l -1.05833,1.14876 v 19.52905 l 1.05833,1.14876 v 9.07438 l -1.05833,1.26504 v 5.61465 l 1.05833,1.27796 v 25.272867 l -1.05833,1.14877 v 16.08326 l 1.05833,1.14876 v 5.67201 l -1.05833,1.22059 v 22.936594 l 1.05833,1.18752 v 5.68596 L 125.77044,-122.8741 Z" style="fill:url(#pattern210);stroke:#000000;stroke-width:2.11667;stroke-dasharray:none;paint-order:fill markers stroke;stop-color:#000000" id="path82" sodipodi:nodetypes="cccccccccccccccccccccccc" clip-path="url(#clipPath123)" transform="translate(6.2631725,3.5186214)" /><path d="m 125.77044,-122.8741 118.53334,80.433341 v -15.573214 l 1.05832,-1.18752 v -22.93659 l -1.05832,-1.22059 v -5.67201 l 1.05832,-1.14877 V -106.2627 l -1.05832,-1.14877 v -25.27288 l 1.05832,-1.27795 v -5.61465 l -1.05832,-1.26504 v -9.07438 l 1.05832,-1.14877 v -19.52904 l -1.05832,-1.14876 v -13.78521 l 1.05832,-1.14877 v -5.74435 l -1.05832,-1.14877 v -9.73739 z" style="fill:url(#pattern211);stroke:#000000;stroke-width:2.11667;stroke-dasharray:none;paint-order:fill markers stroke;stop-color:#000000" id="path83" sodipodi:nodetypes="cccccccccccccccccccccccc" clip-path="url(#clipPath131)" transform="translate(6.2631725,3.5186214)" /><path d="m 13.500293,-38.922137 h 10.46137 l 1.14877,1.058328 h 14.933971 l 1.14877,-1.058328 h 16.08274 l 1.148769,1.058328 h 6.892601 l 1.14928,-1.058328 h 21.826579 l 1.14876,1.058328 h 17.231507 l 1.14877,-1.058328 h 12.63695 l 1.14877,1.058328 h 10.3389 l 1.14877,-1.058328 h 26.42216 l 1.14877,1.058328 h 20.6778 l 1.14877,-1.058328 h 25.27339 l 1.14877,1.058328 h 19.52904 l 1.14877,-1.058328 h 20.97391 L 132.03361,-119.35548 Z" style="opacity:0.2;fill:#000000;stroke:none;stroke-width:2.11667;stroke-dasharray:none;paint-order:fill markers stroke;stop-color:#000000" id="path193" sodipodi:nodetypes="cccccccccccccccccccccccccccc" /><path d="m 17.829751,-204.36576 -1.14877,1.05833 H 7.2371208 l 118.5333192,80.43333 118.53334,-80.43333 h -21.9909 l -1.14929,-1.05833 h -19.52904 l -1.14877,1.05833 h -25.27339 l -1.14877,-1.05833 h -20.67779 l -1.14878,1.05833 H 125.8149 l -1.14878,-1.05833 h -10.3389 l -1.14877,1.05833 h -12.63644 l -1.148759,-1.05833 h -17.23202 l -1.14877,1.05833 h -21.82658 l -1.14876,-1.05833 h -6.89261 l -1.14875,1.05833 h -16.08326 l -1.14877,-1.05833 z" style="fill:url(#pattern212);stroke:#000000;stroke-width:2.11667;stroke-dasharray:none;paint-order:fill markers stroke;stop-color:#000000" id="path84" sodipodi:nodetypes="cccccccccccccccccccccccccccc" clip-path="url(#clipPath125)" transform="translate(6.2631725,3.5186214)" /><path d="m 13.500293,-199.78881 v 10.28782 l -1.05833,1.14876 v 5.74436 l 1.05833,1.14876 v 23.12204 l -1.05833,1.14876 v 19.52905 l 1.05833,1.14876 v 9.07438 l -1.05833,1.26504 v 5.61465 l 1.05833,1.27796 v 25.272868 l -1.05833,1.148771 v 16.083259 l 1.05833,1.14876 v 5.67201 l -1.05833,1.220589 v 22.936595 l 1.05833,1.187521 v 5.68596 L 132.03361,-119.35548 Z" style="opacity:0.2;fill:#000000;stroke:none;stroke-width:2.11667;stroke-dasharray:none;paint-order:fill markers stroke;stop-color:#000000" id="path194" sodipodi:nodetypes="cccccccccccccccccccccccc" /><path d="M 7.2371208,-42.440759 H 17.698491 l 1.14877,1.05833 h 14.93397 l 1.14877,-1.05833 h 16.08274 l 1.14877,1.05833 h 6.8926 l 1.14928,-1.05833 h 21.82658 l 1.14876,1.05833 h 17.231509 l 1.14877,-1.05833 h 12.63695 l 1.14877,1.05833 h 10.3389 l 1.14877,-1.05833 h 26.42216 l 1.14877,1.05833 h 20.6778 l 1.14877,-1.05833 h 25.27339 l 1.14877,1.05833 h 19.52904 l 1.14877,-1.05833 h 20.97391 L 125.77044,-122.8741 Z" style="fill:url(#pattern182);stroke:#000000;stroke-width:2.82223;stroke-dasharray:none;paint-order:fill markers stroke;stop-color:#000000" id="path176" sodipodi:nodetypes="cccccccccccccccccccccccccccc" clip-path="url(#clipPath128)" transform="matrix(0.75000008,0,0,0.75000008,37.705783,-27.199898)" /><path d="m 132.03361,-119.35548 118.53334,80.433343 v -15.573214 l 1.05832,-1.187521 v -22.93659 l -1.05832,-1.220591 v -5.672008 l 1.05832,-1.148771 v -16.083248 l -1.05832,-1.14877 v -25.27288 l 1.05832,-1.27795 v -5.61465 l -1.05832,-1.26504 v -9.07438 l 1.05832,-1.14877 v -19.52904 l -1.05832,-1.14876 v -13.78521 l 1.05832,-1.14877 v -5.74435 l -1.05832,-1.14877 v -9.73739 z" style="opacity:0.2;fill:#000000;stroke:none;stroke-width:2.11667;stroke-dasharray:none;paint-order:fill markers stroke;stop-color:#000000" id="path195" sodipodi:nodetypes="cccccccccccccccccccccccc" /><path d="m 7.2371208,-203.30743 v 10.28782 l -1.05833,1.14876 v 5.74436 l 1.05833,1.14876 v 23.12204 l -1.05833,1.14876 v 19.52905 l 1.05833,1.14876 v 9.07438 l -1.05833,1.26504 v 5.61465 l 1.05833,1.27796 v 25.272867 l -1.05833,1.14877 v 16.08326 l 1.05833,1.14876 v 5.67201 l -1.05833,1.22059 v 22.936594 l 1.05833,1.18752 v 5.68596 L 125.77044,-122.8741 Z" style="fill:url(#pattern181);stroke:#000000;stroke-width:2.82223;stroke-dasharray:none;paint-order:fill markers stroke;stop-color:#000000" id="path177" sodipodi:nodetypes="cccccccccccccccccccccccc" clip-path="url(#clipPath123)" transform="matrix(0.75000008,0,0,0.75000008,37.705783,-27.199898)" /><path d="m 24.092924,-200.84714 -1.14877,1.05833 h -9.443861 l 118.533317,80.43333 118.53334,-80.43333 h -21.9909 l -1.14929,-1.05833 h -19.52904 l -1.14877,1.05833 h -25.27339 l -1.14877,-1.05833 H 159.649 l -1.14878,1.05833 h -26.42215 l -1.14878,-1.05833 h -10.3389 l -1.14877,1.05833 h -12.63644 l -1.14876,-1.05833 H 88.424402 l -1.14877,1.05833 h -21.82658 l -1.14876,-1.05833 h -6.89261 l -1.14875,1.05833 H 40.175674 l -1.14877,-1.05833 z" style="opacity:0.2;fill:#000000;stroke:none;stroke-width:2.11667;stroke-dasharray:none;paint-order:fill markers stroke;stop-color:#000000" id="path192" sodipodi:nodetypes="cccccccccccccccccccccccccccc" /><path d="m 125.77044,-122.8741 118.53334,80.433341 v -15.573214 l 1.05832,-1.18752 v -22.93659 l -1.05832,-1.22059 v -5.67201 l 1.05832,-1.14877 V -106.2627 l -1.05832,-1.14877 v -25.27288 l 1.05832,-1.27795 v -5.61465 l -1.05832,-1.26504 v -9.07438 l 1.05832,-1.14877 v -19.52904 l -1.05832,-1.14876 v -13.78521 l 1.05832,-1.14877 v -5.74435 l -1.05832,-1.14877 v -9.73739 z" style="fill:url(#pattern180);stroke:#000000;stroke-width:2.82223;stroke-dasharray:none;paint-order:fill markers stroke;stop-color:#000000" id="path178" sodipodi:nodetypes="cccccccccccccccccccccccc" clip-path="url(#clipPath131)" transform="matrix(0.75000008,0,0,0.75000008,37.705783,-27.199898)" /><path d="m 17.829751,-204.36576 -1.14877,1.05833 H 7.2371208 l 118.5333192,80.43333 118.53334,-80.43333 h -21.9909 l -1.14929,-1.05833 h -19.52904 l -1.14877,1.05833 h -25.27339 l -1.14877,-1.05833 h -20.67779 l -1.14878,1.05833 H 125.8149 l -1.14878,-1.05833 h -10.3389 l -1.14877,1.05833 h -12.63644 l -1.148759,-1.05833 h -17.23202 l -1.14877,1.05833 h -21.82658 l -1.14876,-1.05833 h -6.89261 l -1.14875,1.05833 h -16.08326 l -1.14877,-1.05833 z" style="fill:url(#pattern179);stroke:#000000;stroke-width:2.82223;stroke-dasharray:none;paint-order:fill markers stroke;stop-color:#000000" id="path179" sodipodi:nodetypes="cccccccccccccccccccccccccccc" clip-path="url(#clipPath125)" transform="matrix(0.75000008,0,0,0.75000008,37.705783,-27.199898)" /><path d="m 43.133624,-59.03047 h 7.846029 l 0.861577,0.793746 h 11.200479 l 0.861578,-0.793746 h 12.062057 l 0.861576,0.793746 h 5.169452 l 0.861959,-0.793746 h 16.369937 l 0.861572,0.793746 h 12.92363 l 0.86158,-0.793746 h 9.47771 l 0.86158,0.793746 h 7.75418 l 0.86157,-0.793746 h 19.81663 l 0.86157,0.793746 h 15.50835 l 0.86158,-0.793746 h 18.95505 l 0.86157,0.793746 h 14.64679 l 0.86157,-0.793746 h 15.73044 l -88.90002,-60.32501 z" style="opacity:0.1;fill:#000000;stroke:none;stroke-width:2.11667;stroke-dasharray:none;paint-order:fill markers stroke;stop-color:#000000" id="path201" sodipodi:nodetypes="cccccccccccccccccccccccccccc" /><path d="M 7.2371208,-42.440759 H 17.698491 l 1.14877,1.05833 h 14.93397 l 1.14877,-1.05833 h 16.08274 l 1.14877,1.05833 h 6.8926 l 1.14928,-1.05833 h 21.82658 l 1.14876,1.05833 h 17.231509 l 1.14877,-1.05833 h 12.63695 l 1.14877,1.05833 h 10.3389 l 1.14877,-1.05833 h 26.42216 l 1.14877,1.05833 h 20.6778 l 1.14877,-1.05833 h 25.27339 l 1.14877,1.05833 h 19.52904 l 1.14877,-1.05833 h 20.97391 L 125.77044,-122.8741 Z" style="fill:url(#pattern188);stroke:#000000;stroke-width:4.23334;stroke-dasharray:none;paint-order:fill markers stroke;stop-color:#000000" id="path182" sodipodi:nodetypes="cccccccccccccccccccccccccccc" clip-path="url(#clipPath128)" transform="matrix(0.50000005,0,0,0.50000005,69.148405,-57.91843)" /><path d="m 43.133624,-179.68049 v 7.71587 l -0.793747,0.86157 v 4.30827 l 0.793747,0.86157 v 17.34153 l -0.793747,0.86157 v 14.64679 l 0.793747,0.86157 v 6.80579 l -0.793747,0.94878 v 4.21098 l 0.793747,0.95847 v 18.95466 l -0.793747,0.861575 v 12.062446 l 0.793747,0.86157 v 4.254008 l -0.793747,0.915442 v 17.202448 l 0.793747,0.890641 v 4.26447 l 88.899996,-60.32501 z" style="opacity:0.1;fill:#000000;stroke:none;stroke-width:2.11667;stroke-dasharray:none;paint-order:fill markers stroke;stop-color:#000000" id="path202" sodipodi:nodetypes="cccccccccccccccccccccccc" /><path d="m 7.2371208,-203.30743 v 10.28782 l -1.05833,1.14876 v 5.74436 l 1.05833,1.14876 v 23.12204 l -1.05833,1.14876 v 19.52905 l 1.05833,1.14876 v 9.07438 l -1.05833,1.26504 v 5.61465 l 1.05833,1.27796 v 25.272867 l -1.05833,1.14877 v 16.08326 l 1.05833,1.14876 v 5.67201 l -1.05833,1.22059 v 22.936594 l 1.05833,1.18752 v 5.68596 L 125.77044,-122.8741 Z" style="fill:url(#pattern187);stroke:#000000;stroke-width:4.23334;stroke-dasharray:none;paint-order:fill markers stroke;stop-color:#000000" id="path183" sodipodi:nodetypes="cccccccccccccccccccccccc" clip-path="url(#clipPath123)" transform="matrix(0.50000005,0,0,0.50000005,69.148405,-57.91843)" /><path d="m 132.03362,-119.35548 88.90002,60.32501 v -11.679912 l 0.79374,-0.89064 v -17.202445 l -0.79374,-0.915443 v -4.254007 l 0.79374,-0.861578 v -12.062435 l -0.79374,-0.86158 v -18.95466 l 0.79374,-0.95846 v -4.21099 l -0.79374,-0.94878 v -6.80579 l 0.79374,-0.86158 v -14.64678 l -0.79374,-0.86157 v -10.33891 l 0.79374,-0.86157 v -4.30827 l -0.79374,-0.86157 v -7.30305 z" style="opacity:0.1;fill:#000000;stroke:none;stroke-width:2.11667;stroke-dasharray:none;paint-order:fill markers stroke;stop-color:#000000" id="path203" sodipodi:nodetypes="cccccccccccccccccccccccc" /><path d="m 125.77044,-122.8741 118.53334,80.433341 v -15.573214 l 1.05832,-1.18752 v -22.93659 l -1.05832,-1.22059 v -5.67201 l 1.05832,-1.14877 V -106.2627 l -1.05832,-1.14877 v -25.27288 l 1.05832,-1.27795 v -5.61465 l -1.05832,-1.26504 v -9.07438 l 1.05832,-1.14877 v -19.52904 l -1.05832,-1.14876 v -13.78521 l 1.05832,-1.14877 v -5.74435 l -1.05832,-1.14877 v -9.73739 z" style="fill:url(#pattern186);stroke:#000000;stroke-width:4.23334;stroke-dasharray:none;paint-order:fill markers stroke;stop-color:#000000" id="path184" sodipodi:nodetypes="cccccccccccccccccccccccc" clip-path="url(#clipPath131)" transform="matrix(0.50000005,0,0,0.50000005,69.148405,-57.91843)" /><path d="m 51.078098,-180.47423 -0.861578,0.79374 h -7.082896 l 88.899996,60.32501 88.90002,-60.32501 h -16.49318 l -0.86197,-0.79374 h -14.64678 l -0.86158,0.79374 h -18.95504 l -0.86158,-0.79374 h -15.50834 l -0.86159,0.79374 h -19.81661 l -0.86159,-0.79374 h -7.75417 l -0.86158,0.79374 h -9.47733 l -0.86157,-0.79374 H 99.326712 l -0.861578,0.79374 H 82.095198 l -0.86157,-0.79374 H 76.06417 l -0.861563,0.79374 H 63.140161 l -0.861577,-0.79374 z" style="opacity:0.1;fill:#000000;stroke:none;stroke-width:2.11667;stroke-dasharray:none;paint-order:fill markers stroke;stop-color:#000000" id="path200" sodipodi:nodetypes="cccccccccccccccccccccccccccc" /><path d="m 17.829751,-204.36576 -1.14877,1.05833 H 7.2371208 l 118.5333192,80.43333 118.53334,-80.43333 h -21.9909 l -1.14929,-1.05833 h -19.52904 l -1.14877,1.05833 h -25.27339 l -1.14877,-1.05833 h -20.67779 l -1.14878,1.05833 H 125.8149 l -1.14878,-1.05833 h -10.3389 l -1.14877,1.05833 h -12.63644 l -1.148759,-1.05833 h -17.23202 l -1.14877,1.05833 h -21.82658 l -1.14876,-1.05833 h -6.89261 l -1.14875,1.05833 h -16.08326 l -1.14877,-1.05833 z" style="fill:url(#pattern185);stroke:#000000;stroke-width:4.23334;stroke-dasharray:none;paint-order:fill markers stroke;stop-color:#000000" id="path185" sodipodi:nodetypes="cccccccccccccccccccccccccccc" clip-path="url(#clipPath125)" transform="matrix(0.50000005,0,0,0.50000005,69.148405,-57.91843)" /><circle cx="132.03362" cy="-119.35548" r="13.13854" fill="#dda44c" stroke="#000000" stroke-width="2.29792" stroke-linecap="round" id="circle176" /><path d="m 230.68337,-169.49026 c 0.27245,5.28838 1.68572,7.2737 1.68572,7.2737 0,0 0.64042,-8.54043 2.29249,-13.59327 0,0 -1.57934,0.79239 -3.97821,6.31957 z m 7.99877,11.16509 c 2.84392,-4.46777 2.84392,-6.90356 2.84392,-6.90356 0,0 -5.4729,6.58769 -9.74746,9.74746 0,0 1.74651,0.2692 6.90354,-2.8439 z" fill="#43c900" stroke="#000000" stroke-width="1.14842" id="path37-3" /><path d="m 21.840363,-83.142359 c 0.272452,5.28839 1.685725,7.2737 1.685725,7.2737 0,0 0.640424,-8.54043 2.2925,-13.59327 0,0 -1.579349,0.79239 -3.978225,6.31957 z m 7.998782,11.16508 c 2.843915,-4.46776 2.843915,-6.90355 2.843915,-6.90355 0,0 -5.472908,6.58769 -9.747464,9.74746 0,0 1.746512,0.26921 6.903549,-2.84391 z" fill="#43c900" stroke="#000000" stroke-width="1.14842" id="path204" /></g></svg>
