<?xml version="1.0" encoding="UTF-8" standalone="no"?>
<svg
   width="288"
   height="144"
   viewBox="0 0 76.2 38.1"
   version="1.1"
   id="svg4"
   sodipodi:docname="map-table-res-02.svg"
   inkscape:version="1.4 (e7c3feb1, 2024-10-09)"
   xmlns:inkscape="http://www.inkscape.org/namespaces/inkscape"
   xmlns:sodipodi="http://sodipodi.sourceforge.net/DTD/sodipodi-0.dtd"
   xmlns="http://www.w3.org/2000/svg"
   xmlns:svg="http://www.w3.org/2000/svg">
  <defs
     id="defs4" />
  <sodipodi:namedview
     id="namedview4"
     pagecolor="#ffffff"
     bordercolor="#000000"
     borderopacity="0.25"
     inkscape:showpageshadow="2"
     inkscape:pageopacity="0.0"
     inkscape:pagecheckerboard="0"
     inkscape:deskcolor="#d1d1d1"
     inkscape:zoom="1.6162303"
     inkscape:cx="100.5426"
     inkscape:cy="9.8995794"
     inkscape:window-width="1920"
     inkscape:window-height="1021"
     inkscape:window-x="1512"
     inkscape:window-y="30"
     inkscape:window-maximized="0"
     inkscape:current-layer="svg4" />
  <path
     d="m 41.031898,27.341791 -0.878434,3.141765 2.315037,2.089334 -17.85458,3.606973 2.054645,-2.256542 -2.002075,-0.598846 1.038773,-1.233199 -1.319329,-1.087543 z"
     fill="#81431e"
     stroke-width="1.049"
     id="path2"
     style="stroke:#191919" />
  <path
     d="m 33.71449,33.998959 -3.227,-2.062 -3.187,1.823 2.342,-20.923 1.807,3.049 1.393,-1.998 1.018,1.574 1.7,-1.076 z"
     fill="#572b11"
     stroke-width="1.226"
     id="path3"
     style="stroke:#191919" />
  <path
     d="m 56.183193,12.735916 -0.546827,3.681116 2.949732,2.106886 -19.88053,6.21282 2.019411,-2.811918 -2.375829,-0.444759 1.007891,-1.527147 -1.667238,-1.082568 z"
     fill="#81431e"
     stroke-width="1.204"
     id="path1"
     style="stroke:#191919" />
  <g
     id="g7"
     transform="rotate(-58.7467,33.136517,-12.678095)">
    <path
       style="fill:#3366ac;fill-opacity:1;stroke:#191919;stroke-width:0.529167;stroke-linecap:round;stroke-dasharray:none"
       d="m 21.440193,10.24664 1.96482,7.690474 -1.846768,1.436564 -2.738894,-0.08418 -2.917665,-1.886276 -0.737386,-3.404235 1.14891,-2.442468 z"
       id="path6"
       sodipodi:nodetypes="cccccccc" />
    <path
       inkscape:connector-curvature="0"
       style="fill:#000000;fill-opacity:0.499121;stroke:none;stroke-width:1.55828;stroke-linecap:round;stroke-linejoin:round;stroke-miterlimit:4;stroke-dasharray:none;stroke-opacity:1"
       d="m 19.547092,18.31707 a 2.7951781,2.6273327 77.291939 0 0 1.962212,-3.295078 2.7951781,2.6273327 77.291939 0 0 -3.16916,-2.163427 2.7951781,2.6273327 77.291939 0 0 -1.96221,3.295071 2.7951781,2.6273327 77.291939 0 0 3.169158,2.163434 z m -0.314026,-1.420206 c -1.254986,0.276768 -2.513984,-0.664946 -2.566572,-0.705191 -0.05868,-0.04501 -0.07711,-0.128396 -0.04283,-0.1939 0.03073,-0.05863 0.775581,-1.44225 2.030549,-1.719015 1.254968,-0.276763 2.513979,0.664946 2.566572,0.705192 0.05869,0.045 0.07712,0.128394 0.04283,0.193901 -0.03074,0.05862 -0.775563,1.442246 -2.030549,1.719013 z m -0.06433,-0.290982 c 0.527681,-0.116372 0.856063,-0.66781 0.731948,-1.229134 -0.12412,-0.56132 -0.654482,-0.923374 -1.182164,-0.807003 -0.527681,0.116372 -0.856061,0.667808 -0.731945,1.229131 0.124111,0.561324 0.65448,0.923377 1.182161,0.807006 z m -0.07016,-0.289546 c -0.111711,0.02462 -0.222548,0.01615 -0.326983,-0.01406 0.08637,-0.102077 0.126141,-0.245876 0.09379,-0.392193 -0.06333,-0.286244 -0.372105,-0.450357 -0.626587,-0.295341 -0.02054,-0.354679 0.200705,-0.678448 0.538182,-0.752873 0.376935,-0.08313 0.755791,0.175495 0.844449,0.576461 0.08866,0.400968 -0.14591,0.794874 -0.522849,0.878003 z"
       id="path874-8-3-6-5-6" />
  </g>
  <path
     d="m 45.657282,7.6762623 3.685527,-1.246638 0.544317,-3.660347 15.311743,15.0171307 -3.583258,-0.495426 0.726432,2.357608 -1.904456,-0.18939 -0.206293,2.01736 z"
     fill="#572b11"
     stroke-width="1.243"
     id="path4"
     style="stroke:#191919" />
  <path
     style="fill:#585858;fill-opacity:1;stroke:#191919;stroke-width:1.5875;stroke-linecap:round;stroke-dasharray:none"
     d="M 21.294011,2.7006827 8.1891912,25.685614 15.08467,29.61706 l 2.771885,-3.449525 0.58696,-4.236441 2.675706,-2.588435 0.699334,-2.629626 2.736204,-3.696717 1.480408,-3.4984887 2.154323,-2.8856987 z"
     id="path5"
     sodipodi:nodetypes="ccccccccccc" />
  <rect
     style="fill:#191919;fill-opacity:1;stroke:none;stroke-width:1.85208;stroke-linecap:round;stroke-dasharray:none;stroke-opacity:1"
     id="rect36-5"
     width="26.458334"
     height="1.3229166"
     x="-18.207003"
     y="23.78373"
     transform="rotate(-60.310447)" />
  <path
     style="fill:#663300;fill-opacity:1;stroke:#191919;stroke-width:1.22608;stroke-linecap:round;stroke-dasharray:none;stroke-opacity:1"
     d="m 34.437335,11.512463 5.786645,1.967176 2.384454,-7.0141138 -2.574163,-0.483853 -1.690435,-1.357137 -1.522045,-0.126185 z"
     id="path1-3"
     sodipodi:nodetypes="ccccccc" />
  <path
     style="fill:#663300;fill-opacity:1;stroke:#191919;stroke-width:1.22608;stroke-linecap:round;stroke-dasharray:none;stroke-opacity:1"
     d="m 61.262788,31.666926 -0.524165,-6.089358 -7.381037,0.635351 0.443566,1.913697 -0.732025,2.29373 0.812623,1.881931 z"
     id="path1-4"
     sodipodi:nodetypes="ccccccc" />
  <rect
     style="fill:#2d2d2d;fill-opacity:1;stroke:#191919;stroke-width:1.85208;stroke-linecap:round;stroke-dasharray:none;stroke-opacity:1"
     id="rect3"
     width="22.208082"
     height="4.8703361"
     x="15.093428"
     y="-9.3788948"
     transform="matrix(0.64116881,0.76739987,-0.76825221,0.64014728,0,0)" />
</svg>
