<?xml version="1.0" encoding="UTF-8" standalone="no"?>
<svg width="2720" height="1568" viewBox="0 0 719.667 414.867" version="1.1" id="svg150" sodipodi:docname="map-building-police-floor.svg" inkscape:version="1.4.2 (ebf0e940d0, 2025-05-08)" xmlns:inkscape="http://www.inkscape.org/namespaces/inkscape" xmlns:sodipodi="http://sodipodi.sourceforge.net/DTD/sodipodi-0.dtd" xmlns:xlink="http://www.w3.org/1999/xlink" xmlns="http://www.w3.org/2000/svg" xmlns:svg="http://www.w3.org/2000/svg">
  <sodipodi:namedview id="namedview150" pagecolor="#ffffff" bordercolor="#000000" borderopacity="0.25" inkscape:showpageshadow="2" inkscape:pageopacity="0.0" inkscape:pagecheckerboard="0" inkscape:deskcolor="#d1d1d1" inkscape:zoom="0.51211735" inkscape:cx="2165.5193" inkscape:cy="549.6787" inkscape:current-layer="svg150" />
  <defs id="defs55">
    <pattern xlink:href="#a" id="f" patternTransform="translate(-217.058 -25.505) scale(.26458)" />
    <pattern xlink:href="#b" id="h" patternTransform="rotate(90 185.74 98.852) scale(.0926)" />
    <pattern patternUnits="userSpaceOnUse" width="160" height="160" patternTransform="translate(142.971 268.336) scale(.26458)" id="b">
      <path fill="none" stroke-width="3.78" d="M0 0h160v160H0z" id="path1" />
      <path fill="none" stroke-width="3.78" d="M0 0h160v160H0z" id="path2" />
      <path fill="none" stroke-width="3.78" d="M0 0h160v160H0z" id="path3" />
      <path fill="#b7b7b7" stroke-width="18.898" stroke-miterlimit="10" d="M0 0h160v160H0z" id="path4" />
      <path fill-opacity=".354" stroke-width="8.709" stroke-miterlimit="10" d="M36 0h4v160h-4zm40 0h4v160h-4zm40 0h4v160h-4z" id="path5" />
      <path transform="rotate(90)" fill-opacity=".354" stroke-width="4.131" stroke-miterlimit="10" d="M36-76h4v36h-4zm120 40h4V0h-4zm-80-80h4v36h-4z" id="path6" />
      <path fill-opacity=".354" stroke-width="8.709" stroke-miterlimit="10" d="M156 0h4v160h-4z" id="path7" />
      <path transform="rotate(90)" fill-opacity=".354" stroke-width="4.131" stroke-miterlimit="10" d="M116-156h4v36h-4zm0 80h4v36h-4zm40-40h4v36h-4zM36-156h4v36h-4zM76-36h4V0h-4z" id="path8" />
    </pattern>
    <pattern xlink:href="#c" id="i" patternTransform="rotate(90 -6.874 308.404) scale(.0926)" />
    <pattern patternUnits="userSpaceOnUse" width="160" height="160" patternTransform="translate(142.971 268.336) scale(.26458)" id="c">
      <path fill="none" stroke-width="3.78" d="M0 0h160v160H0z" id="path9" />
      <path fill="none" stroke-width="3.78" d="M0 0h160v160H0z" id="path10" />
      <path fill="none" stroke-width="3.78" d="M0 0h160v160H0z" id="path11" />
      <path fill="#b7b7b7" stroke-width="18.898" stroke-miterlimit="10" d="M0 0h160v160H0z" id="path12" />
      <path fill-opacity=".354" stroke-width="8.709" stroke-miterlimit="10" d="M36 0h4v160h-4zm40 0h4v160h-4zm40 0h4v160h-4z" id="path13" />
      <path transform="rotate(90)" fill-opacity=".354" stroke-width="4.131" stroke-miterlimit="10" d="M36-76h4v36h-4zm120 40h4V0h-4zm-80-80h4v36h-4z" id="path14" />
      <path fill-opacity=".354" stroke-width="8.709" stroke-miterlimit="10" d="M156 0h4v160h-4z" id="path15" />
      <path transform="rotate(90)" fill-opacity=".354" stroke-width="4.131" stroke-miterlimit="10" d="M116-156h4v36h-4zm0 80h4v36h-4zm40-40h4v36h-4zM36-156h4v36h-4zM76-36h4V0h-4z" id="path16" />
    </pattern>
    <pattern xlink:href="#d" id="j" patternTransform="translate(381.96 184.045) scale(.0926)" />
    <pattern patternUnits="userSpaceOnUse" width="160" height="160" patternTransform="translate(142.971 268.336) scale(.26458)" id="d">
      <path fill="none" stroke-width="3.78" d="M0 0h160v160H0z" id="path17" />
      <path fill="none" stroke-width="3.78" d="M0 0h160v160H0z" id="path18" />
      <path fill="none" stroke-width="3.78" d="M0 0h160v160H0z" id="path19" />
      <path fill="#b7b7b7" stroke-width="18.898" stroke-miterlimit="10" d="M0 0h160v160H0z" id="path20" />
      <path fill-opacity=".354" stroke-width="8.709" stroke-miterlimit="10" d="M36 0h4v160h-4zm40 0h4v160h-4zm40 0h4v160h-4z" id="path21" />
      <path transform="rotate(90)" fill-opacity=".354" stroke-width="4.131" stroke-miterlimit="10" d="M36-76h4v36h-4zm120 40h4V0h-4zm-80-80h4v36h-4z" id="path22" />
      <path fill-opacity=".354" stroke-width="8.709" stroke-miterlimit="10" d="M156 0h4v160h-4z" id="path23" />
      <path transform="rotate(90)" fill-opacity=".354" stroke-width="4.131" stroke-miterlimit="10" d="M116-156h4v36h-4zm0 80h4v36h-4zm40-40h4v36h-4zM36-156h4v36h-4zM76-36h4V0h-4z" id="path24" />
    </pattern>
    <clipPath id="l">
      <path d="M15.346 274.246c-4.764 0-8.615 4.225-8.62 9.517l1.214-.53 1.058 1.06 1.059-1.588.76.604c.382-2.632 2.263-4.63 4.531-4.63 2.185 0 4.01 1.853 4.484 4.341l1.337-.315 1.059 1.337 1.058-.808.685.53c0-5.293-3.969-9.518-8.625-9.518z" fill="#939393" stroke-width="2.96" id="path25" />
    </clipPath>
    <clipPath id="k">
      <path d="M11.392 286.1l-1.216.532c-.002 5.291 3.83 12.166 8.624 12.166 4.26 0 8.625-6.875 8.625-12.166l-.688-.531-1.058.808-1.058-1.337-1.338.315c.078.41.124.835.124 1.274 0 3.103-2.046 7.055-4.607 7.055-2.56 0-4.606-3.952-4.606-7.055 0-.335.028-.662.074-.981l-.76-.608-1.058 1.587z" clip-path="url(#clipPath4708)" fill="#939393" stroke-width="2.96" id="path26" />
    </clipPath>
    <radialGradient xlink:href="#e" id="m" cx="7.457" cy="10.606" fx="7.457" fy="10.606" r="18.477" gradientTransform="matrix(2.11914 0 0 2.05684 25.08 234.926)" gradientUnits="userSpaceOnUse" />
    <linearGradient id="e">
      <stop offset="0" id="stop26" />
      <stop offset="1" stop-color="#080808" stop-opacity=".052" id="stop27" />
    </linearGradient>
    <filter id="n" color-interpolation-filters="sRGB" x="-0.050462444" y="-0.051261256" width="1.1009249" height="1.1025225">
      <feColorMatrix in="SourceGraphic" values="1 0 0 0 0 0 1 0 0 0 0 0 1 0 0 -0.2125 -0.7154 -0.0721 1 0" result="colormatrix" id="feColorMatrix27" />
      <feComposite in="SourceGraphic" in2="colormatrix" operator="arithmetic" k2="1" result="composite" id="feComposite27" />
      <feGaussianBlur stdDeviation="1.62 0.01" result="blur1" id="feGaussianBlur27" />
      <feGaussianBlur in="composite" stdDeviation="0.01 1.57" result="blur2" id="feGaussianBlur28" />
      <feBlend in="blur2" in2="blur1" mode="darken" result="blend" id="feBlend28" />
    </filter>
    <clipPath id="o">
      <path d="M-19.678 158.645l-6.35-3.175v-8.467l5.291-3.175-1.058 6.35 3.175 4.234z" fill="#797979" stroke-width="16.285" id="path28" />
    </clipPath>
    <clipPath id="p">
      <path d="M-83.223 165.614l-2.103-2.604-3.116.651 7.565-16.827.666 3.039 1.686-1.287.415 1.592 1.69-.433z" fill="#a3977d" stroke-width="1.07" id="path29" />
    </clipPath>
    <clipPath id="q">
      <path d="M-83.223 165.614l-2.103-2.604-3.116.651 7.565-16.827.666 3.039 1.686-1.287.415 1.592 1.69-.433z" fill="#a3977d" stroke-width="1.07" id="path30" />
    </clipPath>
    <clipPath id="r">
      <path d="M-83.223 165.614l-2.103-2.604-3.116.651 7.565-16.827.666 3.039 1.686-1.287.415 1.592 1.69-.433z" fill="#a3977d" stroke-width="1.07" id="path31" />
    </clipPath>
    <clipPath id="s">
      <path d="M-83.223 165.614l-2.103-2.604-3.116.651 7.565-16.827.666 3.039 1.686-1.287.415 1.592 1.69-.433z" fill="#a3977d" stroke-width="1.07" id="path32" />
    </clipPath>
    <clipPath id="t">
      <path d="M343.86 327.986v8.467l59.266-.004-.004-93.133h-8.467l.004 84.662z" fill="#363d4d" stroke-width="2.049" id="path33" />
    </clipPath>
    <clipPath id="K">
      <path d="M398.896 124.778h177.796V-44.555H288.826v8.467h279.4v152.4h-177.8l.004 93.133h8.466z" fill="#363d4d" stroke-width="2.646" id="path34" />
    </clipPath>
    <pattern patternUnits="userSpaceOnUse" width="48" height="48" patternTransform="translate(-214.94 -19.155) scale(.26458)" id="a">
      <path fill="none" stroke-width="3.78" d="M0 0h48v48H0z" id="path35" />
      <path d="M0 0h48v48H0z" fill="#637262" stroke-width="5.669" stroke-miterlimit="10" id="path36" />
      <path d="M22.5 48V25.5H0v-3h22.5V0h3v22.5H48v3H25.5V48z" fill="#505a50" stroke-width=".53" id="path37" />
    </pattern>
    <clipPath id="v">
      <path d="M496.26-65.722v-10.054h-25.4v10.054z" fill="#252525" stroke-width="1.467" id="path38" />
    </clipPath>
    <clipPath id="w">
      <path d="M496.26-65.722v-10.054h-25.4v10.054z" fill="#252525" stroke-width="1.467" id="path39" />
    </clipPath>
    <clipPath id="x">
      <path d="M496.26-65.722v-10.054h-25.4v10.054z" fill="#252525" stroke-width="1.467" id="path40" />
    </clipPath>
    <clipPath id="y">
      <path d="M496.26-65.722v-10.054h-25.4v10.054z" fill="#252525" stroke-width="1.467" id="path41" />
    </clipPath>
    <clipPath id="z">
      <path d="M496.26-65.722v-10.054h-25.4v10.054z" fill="#252525" stroke-width="1.467" id="path42" />
    </clipPath>
    <clipPath id="A">
      <path d="M496.26-65.722v-10.054h-25.4v10.054z" fill="#252525" stroke-width="1.467" id="path43" />
    </clipPath>
    <clipPath id="C">
      <path d="M496.26-65.722v-10.054h-25.4v10.054z" fill="#252525" stroke-width="1.467" id="path44" />
    </clipPath>
    <clipPath id="B">
      <path d="M496.26-65.722v-10.054h-25.4v10.054z" fill="#252525" stroke-width="1.467" id="path45" />
    </clipPath>
    <clipPath id="u">
      <path d="M500.493-54.61v10.055h84.666v55.033h-84.667v25.4h84.667v55.034h-84.667v10.054h94.721V-54.61z" fill="#3b3b3b" stroke-width="4.7" id="path46" />
    </clipPath>
    <clipPath id="D">
      <path d="M496.26-65.722v-10.054h-25.4v10.054z" fill="#252525" stroke-width="1.467" id="path47" />
    </clipPath>
    <clipPath id="E">
      <path d="M496.26-65.722v-10.054h-25.4v10.054z" fill="#252525" stroke-width="1.467" id="path48" />
    </clipPath>
    <clipPath id="F">
      <path d="M536.476 38.524h86.254v58.208h-86.254v-5.82h80.433V44.345h-80.433z" fill="#5d2f09" stroke-width=".748" id="path49" />
    </clipPath>
    <clipPath id="G">
      <path d="M536.476 38.524h86.254v58.208h-86.254v-5.82h80.433V44.345h-80.433z" fill="#5d2f09" stroke-width=".748" id="path50" />
    </clipPath>
    <clipPath id="H">
      <path d="M-168.378-27.63l.004 169.342 72.492-.008-2.646-2.117 1.587-1.587-2.116-2.117v-2.646l-60.59.007-.264-152.407h355.6V-53.03h33.87l.004-8.466h-42.341v33.866z" fill="#363d4d" stroke-width="2.366" id="path51" />
    </clipPath>
    <clipPath id="I">
      <path d="M199.926 260.245l.004 84.666h59.262v-8.466h-50.8v-76.2z" fill="#363d4d" stroke-width="3.924" id="path52" />
    </clipPath>
    <clipPath id="J">
      <path d="M-268.916 144.89l2.117 1.584 1.058 3.704-1.058 1.588 3.177 1.591 186.264-.008V94.087h50.8l.004 127h8.463V85.62h-67.73l-.004 59.267z" fill="#363d4d" stroke-width="3.924" id="path53" />
    </clipPath>
    <pattern patternUnits="userSpaceOnUse" width="128" height="128" patternTransform="translate(403.126 141.712) scale(.26458)" id="g">
      <path fill="#686868" stroke-width="12" d="M0 0h64v64H0zm64 64h64v64H64z" id="path54" />
      <path fill="#5b5b5b" stroke-width="12" d="M64 0h64v64H64zM0 64h64v64H0z" id="path55" />
    </pattern>
  </defs>
  <path d="M563.992 107.845V-61.488H199.93v33.866h-55.038V82.445h55.034l.004 59.266v177.8h186.266V107.848z" fill="url(#g)" id="path151" transform="translate(155.674 78.422)" style="fill:#5b5b5b;fill-opacity:1" />
  <path fill="#595959" d="M0 160.867h355.6v254H0z" id="path56" />
  <path fill="url(#f)" d="M-155.674-27.622h300.567v169.333h-300.567z" transform="translate(155.674 78.422)" id="path57" />
  <path d="M563.992 107.845V-61.488H199.93v33.866h-55.038V82.445h55.034l.004 59.266v177.8h186.266V107.848z" fill="url(#g)" id="path58" transform="translate(155.674 78.422)" />
  <path d="M242.26-78.422h33.866v16.933h-33.867z" fill="url(#h)" transform="translate(155.674 78.422)" id="path59" />
  <path fill-opacity=".305" d="M389.466 16.933h50.8v16.933h-50.8z" id="path60" />
  <path d="M259.196 319.512h67.734v16.933h-67.734z" fill="url(#i)" transform="translate(155.674 78.422)" id="path61" />
  <path fill-opacity=".305" d="M406.404 381h84.667v16.933h-84.667zm135.462-118.533v50.8h-16.933v-50.8z" id="path62" />
  <path d="M386.192 226.378v-33.866h16.934v33.866z" fill="url(#j)" transform="translate(155.674 78.422)" id="path63" />
  <path d="M364.072 220.133h169.33v-8.466h-169.33z" fill="#2a303d" fill-opacity=".58" id="path64" />
  <path d="M533.404 59.269v84.664h8.467V59.27z" fill="#2a303d" fill-opacity=".581" id="path65" />
  <path d="M296.337 93.133V152.4h8.467v-50.8H355.6v-8.467h-59.263zm-59.27 42.334v8.466h.004v67.733h8.466v-67.733h16.929v-8.466h-25.4zm-59.267 0v8.466h.004v67.733h8.467v-67.733h16.928v-8.466H177.8zm-59.267 0v8.466h.004v67.733h8.467v-67.733h16.931v-8.466h-25.402zm-59.266 0v8.466h.004v67.733h8.466v-67.733h16.929v-8.466h-25.4zm-33.867 0H8.467v8.466h16.931z" fill="#2a303d" fill-opacity=".58" id="path66" />
  <path fill="#d7d7d7" d="M61.383 220.134h4.233V330.2h-4.233zm59.267 0h4.233V330.2h-4.233zm59.266 0h4.233V330.2h-4.233zm59.267 0h4.233V330.2h-4.233zm59.267 0h4.233V330.2h-4.233z" id="path67" />
  <path transform="rotate(158.275 60.164 213.311) scale(.73817)" clip-path="url(#k)" d="M11.392 286.1l-1.216.532c-.002 5.291 3.83 12.166 8.624 12.166 4.26 0 8.625-6.875 8.625-12.166l-.688-.531-1.058.808-1.058-1.337-1.338.315c.078.41.124.835.124 1.274 0 3.103-2.046 7.055-4.607 7.055-2.56 0-4.606-3.952-4.606-7.055 0-.335.028-.662.074-.981l-.76-.608-1.058 1.587z" fill="#9e9e9e" fill-opacity=".718" stroke="#2d2d2d" stroke-width="2.117" stroke-opacity=".718" id="path68" />
  <path d="M15.346 274.246c-4.764 0-8.615 4.225-8.62 9.517l1.214-.53 1.058 1.06 1.059-1.588.76.604c.382-2.632 2.263-4.63 4.531-4.63 2.185 0 4.01 1.853 4.484 4.341l1.337-.315 1.059 1.337 1.058-.808.685.53c0-5.293-3.969-9.518-8.625-9.518z" clip-path="url(#l)" transform="rotate(141.591 62.09 219.26) scale(.73817)" fill="#9e9e9e" fill-opacity=".718" stroke="#2d2d2d" stroke-width="2.117" stroke-opacity=".718" id="path69" />
  <path d="M61.281 282.344l-15.094-15.157 6.682 23.643-9.957-20.369-1.255 17.49-2.02-19.127-7.036 23.888 3.762-23.888-8.723 16.323 5.448-17.96-21.3 15.786 18.025-19.061-16.19 4.414 14.553-7.689-24.709 4.476 24.173-8-16.82-5.607 14.081.944-22.388-9.052 25.663 5.778L9.02 235.105l22.432 12.433-6.614-10.05 8.251 6.775-5.597-25.297L38 244.263l.853-15.185 2.421 15.185 8.22-25.525-5.646 27.891 14.106-24.924-8.493 22.558 9.016-9.578-7.379 12.853 22.153-9.47-21.362 14.545 14.998-1.107-14.151 4.219 27.3 3.26-27.3.015 19.758 6.523-19.758-3.248 20.152 17.686-21.79-16.049z" transform="translate(73.717 116.701) scale(.4768)" fill="url(#m)" filter="url(#n)" id="path70" />
  <path d="M448.733 312.574l13.377 9.376-5.113-15.171 13.377-9.387h-16.528l-5.113-15.172-5.113 15.172h-16.527l13.377 9.387-5.113 15.171z" fill="#df2407" fill-opacity=".606" id="path71" />
  <g stroke="#373737" stroke-opacity=".652" fill="none" stroke-width="6.35" id="g73">
    <path d="M448.733 254.894c16.934 14.817 33.867 16.933 33.867 16.933v33.867c-8.467 16.933-33.867 33.867-33.867 33.867s-25.4-16.934-33.866-33.867v-33.867s16.933-2.116 33.866-16.933z" id="path72" />
    <path d="M418.042 286.808c1.058 0 13.758-1.424 30.691-14.124 16.934 12.7 29.634 14.124 30.692 14.124" id="path73" />
  </g>
  <path d="M-19.678 158.645l-6.35-3.175v-8.467l5.291-3.175-1.058 6.35 3.175 4.234z" clip-path="url(#o)" transform="rotate(-75.442 94.73 86.22) scale(.82583)" fill="#797979" fill-opacity=".718" stroke="#2d2d2d" stroke-width="1.905" stroke-opacity=".718" id="path74" />
  <path d="M-83.223 165.614l-2.103-2.604-3.116.651 7.565-16.827.666 3.039 1.686-1.287.415 1.592 1.69-.433z" clip-path="url(#p)" transform="translate(192.423 91.833)" fill="#363d4d" fill-opacity=".718" stroke="#191919" stroke-width="1.587" stroke-opacity=".718" id="path75" />
  <path d="M-83.223 165.614l-2.103-2.604-3.116.651 7.565-16.827.666 3.039 1.686-1.287.415 1.592 1.69-.433z" clip-path="url(#q)" transform="rotate(120 -27.172 246.646)" fill="#363d4d" fill-opacity=".718" stroke="#191919" stroke-width="1.587" stroke-opacity=".718" id="path76" />
  <path d="M-83.223 165.614l-2.103-2.604-3.116.651 7.565-16.827.666 3.039 1.686-1.287.415 1.592 1.69-.433z" clip-path="url(#r)" transform="rotate(45 -78.076 389.578)" fill="#363d4d" fill-opacity=".718" stroke="#191919" stroke-width="1.587" stroke-opacity=".718" id="path77" />
  <path d="M-83.223 165.614l-2.103-2.604-3.116.651 7.565-16.827.666 3.039 1.686-1.287.415 1.592 1.69-.433z" clip-path="url(#s)" transform="rotate(90 -22.055 283.19)" fill="#363d4d" fill-opacity=".718" stroke="#191919" stroke-width="1.587" stroke-opacity=".718" id="path78" />
  <path d="M343.86 327.986v8.467l59.266-.004-.004-93.133h-8.467l.004 84.662z" clip-path="url(#t)" transform="translate(138.74 61.488)" fill="#363d4d" stroke="#050505" stroke-width="3.175" id="path79" />
  <path d="M50.1 371.118c2.357-2.732 5.674-2.723 8.032-1.084 2.46 1.879 4.834 5.81-1.182 11.855-3.82 2.784-4.959 2.071-7.81-1.314-1.857-2.554-.932-6.138.96-9.457zm-24.255-72.084c-.528-5.81 4.166-9.59 9.807-10.41 6.125-.664 15.024 1.116 15.063 14.887-1.46 7.542-4.075 8.028-12.875 7.417-6.227-.795-9.98-5.944-11.995-11.894zm177.571 10.76c2.036-2.363 4.9-2.356 6.937-.938 2.124 1.626 4.174 5.027-1.021 10.255-3.3 2.408-4.283 1.791-6.744-1.137-1.604-2.209-.805-5.31.828-8.18zm-54.13-52.198c-.189-3.707 1.485-6.117 3.496-6.64 2.184-.425 5.356.71 5.37 9.497-.52 4.812-1.452 5.122-4.59 4.732-2.22-.507-3.558-3.792-4.276-7.589zm120.876-9.456c-.333-4.429 2.628-7.31 6.187-7.934 3.863-.507 9.477.85 9.502 11.347-.922 5.749-2.571 6.12-8.122 5.654-3.928-.607-6.296-4.531-7.567-9.067zm-53.394 125.049c1.725-1.494 4.154-1.49 5.88-.593 1.802 1.027 3.54 3.177-.865 6.482-2.797 1.522-3.63 1.132-5.717-.718-1.36-1.397-.683-3.357.702-5.171zm-78.552-1.489c1.523-6.262 8.43-4.398 11.934-1.75 5.57 5.07 15.669 20.119-.034 17.661-9.249-1.735-12.919 4.024-17.154-1.442-2.76-4.125 3.72-7.197 5.254-14.47zM272.1 350.646c9.432-.245 9.21 5.97 6.68 9.534-5.245 5.876-23.077 17.948-25.105 4.25-.786-8.138-10.258-9.806-3.98-14.664 4.89-3.302 11.533 1.361 22.405.88zm57.863-59.985c2.006-2.217 4.944-1.909 7.08-.237 2.236 1.894 4.455 5.607-.693 10.44-3.3 2.132-4.33 1.394-6.955-1.875-1.72-2.44-1.008-5.546.568-8.328z" fill="#424242" fill-opacity=".631" id="path80" />
  <path fill="#a3977d" fill-opacity=".718" d="M0 406.4h355.6v8.467H0zm8.466-186.26V406.4H0V220.14zM355.6 160.867V406.4h-8.467V160.867z" id="path81" />
  <path d="M500.493-54.61v10.055h84.666v55.033h-84.667v25.4h84.667v55.034h-84.667v10.054h94.721V-54.61z" clip-path="url(#u)" transform="translate(117.574 78.422)" fill="#3b3b3b" stroke="#191919" stroke-width="3.175" id="path82" />
  <path clip-path="url(#v)" d="M496.26-65.722v-10.054h-25.4v10.054z" transform="translate(155.674 99.588)" fill="#252525" stroke="#191919" stroke-width="3.175" id="path83" />
  <path clip-path="url(#w)" d="M496.26-65.722v-10.054h-25.4v10.054z" transform="translate(198.008 99.588)" fill="#252525" stroke="#191919" stroke-width="3.175" id="path84" />
  <path clip-path="url(#x)" d="M496.26-65.722v-10.054h-25.4v10.054z" transform="rotate(90 530.652 106.36)" fill="#252525" stroke="#191919" stroke-width="3.175" id="path85" />
  <path clip-path="url(#y)" d="M496.26-65.722v-10.054h-25.4v10.054z" transform="rotate(90 488.319 148.693)" fill="#252525" stroke="#191919" stroke-width="3.175" id="path86" />
  <path clip-path="url(#z)" d="M496.26-65.722v-10.054h-25.4v10.054z" transform="rotate(180 561.396 11.59)" fill="#252525" stroke="#191919" stroke-width="3.175" id="path87" />
  <path clip-path="url(#A)" d="M496.26-65.722v-10.054h-25.4v10.054z" transform="rotate(180 582.563 11.59)" fill="#252525" stroke="#191919" stroke-width="3.175" id="path88" />
  <path clip-path="url(#B)" d="M496.26-65.722v-10.054h-25.4v10.054z" transform="rotate(180 561.396 19.262)" fill="#252525" stroke="#191919" stroke-width="3.175" id="path89" />
  <path clip-path="url(#C)" d="M496.26-65.722v-10.054h-25.4v10.054z" transform="rotate(180 582.563 19.262)" fill="#252525" stroke="#191919" stroke-width="3.175" id="path90" />
  <path clip-path="url(#D)" d="M496.26-65.722v-10.054h-25.4v10.054z" transform="rotate(180 561.396 51.806)" fill="#252525" stroke="#191919" stroke-width="3.175" id="path91" />
  <path clip-path="url(#E)" d="M496.26-65.722v-10.054h-25.4v10.054z" transform="rotate(180 582.563 51.806)" fill="#252525" stroke="#191919" stroke-width="3.175" id="path92" />
  <path d="M536.476 38.524h86.254v58.208h-86.254v-5.82h80.433V44.345h-80.433z" clip-path="url(#F)" transform="translate(81.59 74.188)" fill="#5d2f09" stroke="#191919" stroke-width="2.117" id="path93" />
  <path d="M536.476 38.524h86.254v58.208h-86.254v-5.82h80.433V44.345h-80.433z" clip-path="url(#G)" transform="translate(81.59 -6.245)" fill="#5d2f09" stroke="#191919" stroke-width="2.117" id="path94" />
  <path clip-path="url(#H)" d="M-168.378-27.63l.004 169.342 72.492-.008-2.646-2.117 1.587-1.587-2.116-2.117v-2.646l-60.59.007-.264-152.407h355.6V-53.03h33.87l.004-8.466h-42.341v33.866z" transform="translate(168.374 78.422)" fill="#363d4d" stroke="#050505" stroke-width="3.175" id="path95" />
  <path d="M199.926 260.245l.004 84.666h59.262v-8.466h-50.8v-76.2z" clip-path="url(#I)" transform="translate(155.674 53.022)" fill="#363d4d" stroke="#050505" stroke-width="3.175" id="path96" />
  <path clip-path="url(#J)" d="M-268.916 144.89l2.117 1.584 1.058 3.704-1.058 1.588 3.177 1.591 186.264-.008V94.087h50.8l.004 127h8.463V85.62h-67.73l-.004 59.267z" transform="translate(382.154 66.78)" fill="#363d4d" stroke="#050505" stroke-width="3.175" id="path97" />
  <g transform="translate(34.141 -88.255) scale(.63461)" fill="#4e4545" id="g109">
    <circle cx="19.162" cy="278.017" r="11.264" id="circle97" />
    <circle cx="10.187" cy="270.029" r="3.725" id="circle98" />
    <circle cx="28.093" cy="265.856" r="2.693" id="circle99" />
    <circle cx="27.868" cy="276.402" r="4.892" id="circle100" />
    <circle cx="5.43" cy="285.826" r="2.827" id="circle101" />
    <circle cx="23.605" cy="287.666" r="2.962" id="circle102" />
    <circle cx="16.829" cy="263.388" r="2.019" id="circle103" />
    <circle cx="32.446" cy="270.299" r=".763" id="circle104" />
    <circle cx="33.702" cy="284.928" r="1.84" id="circle105" />
    <circle cx="29.573" cy="291.66" r="2.199" id="circle106" />
    <circle cx="3.276" cy="277.21" r=".853" id="circle107" />
    <circle cx="14.63" cy="289.192" r="3.231" id="circle108" />
    <circle cx="8.167" cy="278.96" r="1.436" id="circle109" />
  </g>
  <g transform="translate(129.652 79.511) scale(.39744)" fill="#4e4545" id="g126">
    <ellipse cx="17.816" cy="279.992" rx="11.982" ry="11.713" id="ellipse109" />
    <circle cx="30.785" cy="267.741" r="2.693" id="circle110" />
    <circle cx="21.496" cy="271.824" r="4.892" id="circle111" />
    <circle cx="6.866" cy="276.806" r="2.827" id="circle112" />
    <circle cx="28.272" cy="281.114" r="2.962" id="circle113" />
    <circle cx="21.63" cy="263.163" r="2.019" id="circle114" />
    <circle cx="32.311" cy="270.074" r=".763" id="circle115" />
    <circle cx="34.51" cy="287.98" r="1.84" id="circle116" />
    <circle cx="27.24" cy="293.096" r="2.199" id="circle117" />
    <circle cx="4.802" cy="286.095" r=".853" id="circle118" />
    <circle cx="11.399" cy="289.91" r="3.231" id="circle119" />
    <circle cx="8.167" cy="278.96" r="1.436" id="circle120" />
    <circle cx="8.796" cy="267.292" r="1.705" id="circle121" />
    <circle cx="22.124" cy="288.698" r="3.186" id="circle122" />
    <circle cx="14.316" cy="268.952" r=".853" id="circle123" />
    <circle cx="28.855" cy="275.594" r=".763" id="circle124" />
    <circle cx="27.868" cy="291.121" r=".673" id="circle125" />
    <circle cx="7.449" cy="268.369" r=".898" id="circle126" />
  </g>
  <g transform="translate(236.96 -109.286) scale(.7927)" fill="#4e4545" id="g150">
    <ellipse cx="19.611" cy="276.85" rx="11.982" ry="11.713" id="ellipse126" />
    <circle cx="27.195" cy="269.356" r="2.693" id="circle127" />
    <circle cx="21.496" cy="271.824" r="4.892" id="circle128" />
    <circle cx="9.289" cy="274.652" r="2.827" id="circle129" />
    <circle cx="28.272" cy="281.114" r="2.962" id="circle130" />
    <circle cx="21.361" cy="265.317" r="2.019" id="circle131" />
    <circle cx="30.875" cy="272.677" r=".763" id="circle132" />
    <circle cx="26.253" cy="285.646" r="1.84" id="circle133" />
    <circle cx="29.933" cy="276.671" r="2.199" id="circle134" />
    <circle cx="5.071" cy="284.21" r=".853" id="circle135" />
    <circle cx="11.937" cy="283.537" r="3.231" id="circle136" />
    <circle cx="8.167" cy="278.96" r="1.436" id="circle137" />
    <circle cx="12.117" cy="267.83" r="1.705" id="circle138" />
    <circle cx="18.175" cy="286.275" r="3.186" id="circle139" />
    <circle cx="14.316" cy="268.952" r=".853" id="circle140" />
    <circle cx="28.855" cy="275.594" r=".763" id="circle141" />
    <circle cx="12.161" cy="288.967" r=".673" id="circle142" />
    <circle cx="9.963" cy="270.433" r=".898" id="circle143" />
    <circle cx="6.642" cy="268.728" r="1.616" id="circle144" />
    <circle cx="15.258" cy="262.894" r="1.705" id="circle145" />
    <circle cx="27.375" cy="263.163" r="2.513" id="circle146" />
    <circle cx="34.196" cy="280.126" r="1.705" id="circle147" />
    <circle cx="24.009" cy="290.672" r="1.571" id="circle148" />
    <circle cx="31.638" cy="285.826" r="1.032" id="circle149" />
    <circle cx="4.936" cy="276.895" r="1.346" id="circle150" />
  </g>
  <path clip-path="url(#K)" d="M398.896 124.778h177.796V-44.555H288.826v8.467h279.4v152.4h-177.8l.004 93.133h8.466z" transform="translate(142.97 61.488)" fill="#363d4d" stroke="#050505" stroke-width="3.175" id="path150" />
</svg>
