<?xml version="1.0" encoding="UTF-8" standalone="no"?>
<svg
   width="416"
   height="416"
   viewBox="0 0 110.067 110.067"
   version="1.1"
   id="svg8"
   sodipodi:docname="map-statue-03.svg"
   inkscape:version="1.4 (e7c3feb1, 2024-10-09)"
   xmlns:inkscape="http://www.inkscape.org/namespaces/inkscape"
   xmlns:sodipodi="http://sodipodi.sourceforge.net/DTD/sodipodi-0.dtd"
   xmlns="http://www.w3.org/2000/svg"
   xmlns:svg="http://www.w3.org/2000/svg"
   xmlns:rdf="http://www.w3.org/1999/02/22-rdf-syntax-ns#"
   xmlns:cc="http://creativecommons.org/ns#"
   xmlns:dc="http://purl.org/dc/elements/1.1/">
  <metadata
     id="metadata14">
    <rdf:RDF>
      <cc:Work
         rdf:about="">
        <dc:format>image/svg+xml</dc:format>
        <dc:type
           rdf:resource="http://purl.org/dc/dcmitype/StillImage" />
        <dc:title />
      </cc:Work>
    </rdf:RDF>
  </metadata>
  <defs
     id="defs12">
    <clipPath
       id="b">
      <path
         style="fill:#252525;fill-opacity:0.60100002;stroke-width:12.5369997"
         inkscape:connector-curvature="0"
         d="m 188,128 c 0,80 -69.756,119.362 -69.756,119.362 C 64,244 8.638,193.922 8.638,128 8.638,62.078 64,12 118.244,8.638 118.244,8.638 188,48 188,128 Z"
         id="path5" />
    </clipPath>
    <clipPath
       clipPathUnits="userSpaceOnUse"
       id="clipPath17">
      <path
         style="fill:#565038;fill-opacity:1;stroke:#000000;stroke-width:1px;stroke-linecap:butt;stroke-linejoin:miter;stroke-opacity:1"
         d="m 14,144 h 28 v 64 l -2,8 H 16 l -2,-8 z"
         id="path18-8"
         sodipodi:nodetypes="ccccccc" />
    </clipPath>
    <clipPath
       clipPathUnits="userSpaceOnUse"
       id="clipPath23">
      <path
         style="fill:#000000;fill-opacity:1;stroke:#000000;stroke-width:1px;stroke-linecap:butt;stroke-linejoin:miter;stroke-opacity:1"
         d="m 20,216 h 16 v 16 l 4,10 v 22 l -2,12 v 10 l -4,4 H 22 l -4,-4 v -10 l -2,-12 v -22 l 4,-10 z"
         id="path24"
         sodipodi:nodetypes="ccccccccccccccc" />
    </clipPath>
    <clipPath
       clipPathUnits="userSpaceOnUse"
       id="clipPath27">
      <path
         style="fill:none;stroke:#000000;stroke-width:1px;stroke-linecap:butt;stroke-linejoin:miter;stroke-opacity:1"
         d="M 22,276 H 34 V 262 H 22 Z"
         id="path28"
         sodipodi:nodetypes="ccccc" />
    </clipPath>
  </defs>
  <sodipodi:namedview
     pagecolor="#ffffff"
     bordercolor="#666666"
     borderopacity="1"
     objecttolerance="10"
     gridtolerance="10"
     guidetolerance="10"
     inkscape:pageopacity="0"
     inkscape:pageshadow="2"
     inkscape:window-width="1472"
     inkscape:window-height="920"
     id="namedview10"
     showgrid="true"
     inkscape:zoom="1.7701732"
     inkscape:cx="264.66337"
     inkscape:cy="196.87339"
     inkscape:window-x="1729"
     inkscape:window-y="31"
     inkscape:window-maximized="0"
     inkscape:current-layer="svg8"
     inkscape:showpageshadow="2"
     inkscape:pagecheckerboard="0"
     inkscape:deskcolor="#d1d1d1">
    <inkscape:grid
       type="xygrid"
       id="grid817"
       empspacing="4"
       spacingy="0.52916827"
       spacingx="0.52916827"
       originx="0"
       originy="0"
       units="px" />
  </sodipodi:namedview>
  <path
     style="fill:#2d2d2d;stroke:#191919;stroke-width:2.1170001;stroke-opacity:1"
     clip-path="none"
     d="m 18.891001,18.891001 10.791908,0.133488 3.05654,2.142242 5.360666,-2.116673 27.51675,0 2.116674,2.116673 2.942803,-2.116673 20.498655,-0.159057 -0.158055,14.975768 -2.116673,2.116673 2.116673,3.704178 v 32.279265 l -2.116673,4.233346 2.116673,2.116673 L 91.175,91.174997 76.200231,91.016942 71.966885,88.900269 63.500192,91.016942 H 33.337601 l -2.645841,-2.116673 -1.587505,2.116673 -10.213254,0.158055 0.159057,-12.858093 2.116673,-4.233346 -2.116673,-2.116673 V 52.916827 l 2.116673,-2.116673 -2.116673,-4.233346 z"
     id="rect2"
     inkscape:connector-curvature="0"
     sodipodi:nodetypes="ccccccccccccccccccccccccccccc" />
  <path
     d="m 30.687473,30.8535 h 48.36 l 0.323481,16.609905 -2.116674,2.116673 2.116674,3.083892 -0.323481,26.549531 H 55.558381 l -1.587504,-1.587504 -3.17501,1.587504 H 30.687473 V 39.320193 l 2.116673,-2.116673 -2.116673,-3.33133 z"
     id="path4"
     inkscape:connector-curvature="0"
     style="fill:#404040;stroke:#191919;stroke-width:2.1170001"
     sodipodi:nodetypes="cccccccccccccc" />
  <path
     d="M91.017 19.05l-12.7 12.7M91.017 91.017l-12.7-12.7M19.05 91.017l12.7-12.7M19.05 19.05l12.7 12.7"
     fill="none"
     stroke="#191919"
     stroke-width="2.117"
     id="path6" />
  <circle
     style="fill:#000000;fill-opacity:0.28282827;stroke:none;stroke-width:3.17500949;stroke-miterlimit:4;stroke-dasharray:none;stroke-opacity:1"
     id="path821"
     cx="55.033501"
     cy="55.033501"
     r="11.707346" />
  <g
     id="g1"
     transform="translate(-42.333463)">
    <path
       style="fill:#272727;fill-opacity:1;stroke:none;stroke-width:0.211667px;stroke-linecap:butt;stroke-linejoin:miter;stroke-opacity:1"
       d="m 136.37313,51.953775 -1.27,-0.846664 h -6.77335 l -1.27001,0.846664 v 6.350023 l 1.27001,0.846664 h 6.77335 l 1.27,-0.846664 z"
       id="path14"
       sodipodi:nodetypes="ccccccccc" />
    <path
       style="fill:#272727;fill-opacity:1;stroke:none;stroke-width:0.211667px;stroke-linecap:butt;stroke-linejoin:miter;stroke-opacity:1"
       d="m 137.43147,52.37711 -0.21167,-0.423335 h -9.31336 v 6.350023 h 9.31336 l 0.21167,-0.423336 z"
       id="path12"
       sodipodi:nodetypes="ccccccc" />
    <path
       style="fill:#515151;fill-opacity:1;stroke:#272727;stroke-width:16;stroke-linecap:butt;stroke-linejoin:miter;stroke-dasharray:none;stroke-opacity:1"
       d="m 14,144 h 28 v 64 l -2,8 H 16 l -2,-8 z"
       id="path15"
       clip-path="url(#clipPath17)"
       sodipodi:nodetypes="ccccccc"
       transform="matrix(0,0.2116673,-0.2116673,0,158.38653,49.202103)" />
    <path
       style="fill:#585858;fill-opacity:1;stroke:none;stroke-width:0.211667px;stroke-linecap:butt;stroke-linejoin:miter;stroke-opacity:1"
       d="m 126.2131,53.858783 v 2.540008 h -5.71502 v -2.540008 z"
       id="path25"
       sodipodi:nodetypes="ccccc" />
    <path
       style="fill:#272727;fill-opacity:1;stroke:none;stroke-width:0.211667px;stroke-linecap:butt;stroke-linejoin:miter;stroke-opacity:1"
       d="m 125.5781,53.858783 v 2.540008 h -0.635 v -2.540008 z"
       id="path19-8"
       sodipodi:nodetypes="ccccc" />
    <path
       style="fill:#272727;fill-opacity:1;stroke:none;stroke-width:0.211667px;stroke-linecap:butt;stroke-linejoin:miter;stroke-opacity:1"
       d="m 124.3081,53.858783 v 2.540008 h -0.63501 v -2.540008 z"
       id="path19-8-0"
       sodipodi:nodetypes="ccccc" />
    <path
       style="fill:#272727;fill-opacity:1;stroke:none;stroke-width:0.211667px;stroke-linecap:butt;stroke-linejoin:miter;stroke-opacity:1"
       d="m 123.03809,53.858783 v 2.540008 h -0.635 v -2.540008 z"
       id="path19-8-2"
       sodipodi:nodetypes="ccccc" />
    <path
       style="fill:#272727;fill-opacity:1;stroke:none;stroke-width:0.211667px;stroke-linecap:butt;stroke-linejoin:miter;stroke-opacity:1"
       d="m 121.76809,53.858783 v 2.540008 h -0.635 v -2.540008 z"
       id="path19-8-3"
       sodipodi:nodetypes="ccccc" />
    <path
       style="fill:#272727;fill-opacity:1;stroke:none;stroke-width:0.211667px;stroke-linecap:butt;stroke-linejoin:miter;stroke-opacity:1"
       d="m 120.49808,53.858783 v 2.540008 h -1.69333 v -2.540008 z"
       id="path19-9-3"
       sodipodi:nodetypes="ccccc" />
    <path
       style="fill:#272727;fill-opacity:1;stroke:none;stroke-width:0.211667px;stroke-linecap:butt;stroke-linejoin:miter;stroke-opacity:1"
       d="m 118.38141,54.493783 v 1.270007 h -1.905 v -1.270007 z"
       id="path20-0"
       sodipodi:nodetypes="ccccc" />
    <path
       style="fill:#333333;fill-opacity:1;stroke:none;stroke-width:0.211667px;stroke-linecap:butt;stroke-linejoin:miter;stroke-opacity:1"
       d="m 115.62974,53.858783 v 2.540008 h -1.27001 v -2.540008 z"
       id="path21"
       sodipodi:nodetypes="ccccc" />
    <path
       style="fill:#515151;fill-opacity:1;stroke:#272727;stroke-width:16;stroke-linecap:butt;stroke-linejoin:miter;stroke-dasharray:none;stroke-opacity:1"
       d="m 20,216 h 16 v 16 l 4,10 v 22 l -2,12 v 10 l -4,4 H 22 l -4,-4 v -10 l -2,-12 v -22 l 4,-10 z"
       id="path22-2"
       clip-path="url(#clipPath23)"
       sodipodi:nodetypes="ccccccccccccccc"
       transform="matrix(0,0.2116673,-0.2116673,0,158.38653,49.202103)" />
    <path
       style="fill:#646464;fill-opacity:1;stroke:#272727;stroke-width:8;stroke-linecap:butt;stroke-linejoin:miter;stroke-dasharray:none;stroke-opacity:1"
       d="M 22,276 H 34 V 262 H 22 Z"
       id="path26"
       clip-path="url(#clipPath27)"
       sodipodi:nodetypes="ccccc"
       transform="matrix(0,0.2116673,-0.2116673,0,158.38653,49.202103)" />
    <path
       style="fill:#272727;fill-opacity:1;stroke:none;stroke-width:0.211667px;stroke-linecap:butt;stroke-linejoin:miter;stroke-opacity:1"
       d="m 124.94311,58.515463 h -0.2197 l 0.008,-0.846664 h -1.05833 v 0.846664 h -0.21167 l -0.008,2.116672 h 1.48168 z"
       id="path29"
       sodipodi:nodetypes="ccccccccc" />
    <path
       style="fill:#515151;fill-opacity:1;stroke:#272727;stroke-width:1.69333;stroke-linecap:round;stroke-dasharray:none;stroke-opacity:1"
       d="m 127.90415,53.223852 v 3.809922 h 14.63791 l 1.75503,-1.078885 -0.89856,-1.421402 0.40687,-1.307417 z"
       id="path7"
       sodipodi:nodetypes="ccccccc" />
  </g>
  <path
     sodipodi:nodetypes="ssscccssss"
     inkscape:connector-curvature="0"
     id="ellipse10"
     d="m 56.016544,39.824626 c 8.98029,0.543438 15.820025,8.269346 15.276971,17.2563 -0.145124,2.401615 -0.802793,4.650253 -1.860084,6.645795 -0.304156,0.574063 -0.641038,1.400388 -0.641038,1.400388 l -6.350019,1.553014 -4.233346,5.291683 c 0,0 -0.534067,0.226587 -1.138292,0.30211 -0.984574,0.123063 -1.994439,0.157456 -3.020763,0.09535 -8.980291,-0.543439 -15.820024,-8.269349 -15.27697,-17.256301 0.543053,-8.986954 8.263249,-15.831776 17.243541,-15.288339 z"
     style="fill:#a0a0a0;stroke:#333333;stroke-width:2.7;stroke-miterlimit:10;stroke-opacity:1" />
  <ellipse
     id="ellipse14"
     stroke-miterlimit="10"
     ry="4.7919998"
     rx="4.7950001"
     transform="matrix(0.06031685,-0.99817928,0.99817507,0.06038654,0,0)"
     cy="72.129654"
     cx="-52.928288"
     style="fill:#cfcfcf;stroke:#333333;stroke-width:1.746;stroke-miterlimit:10" />
  <path
     sodipodi:nodetypes="sssccccsss"
     inkscape:connector-curvature="0"
     id="ellipse16"
     d="m 90.322989,55.981445 c 2.51034,0.838097 3.86568,3.553865 3.02723,6.065835 -0.11656,0.349221 -0.26939,0.676117 -0.45288,0.977896 -0.26242,0.431572 -0.9591,1.132431 -0.9591,1.132431 l -2.57312,-1.064829 -1.30392,-1.974883 -3.646545,1.335719 c 0,0 -0.27512,-0.752005 -0.34034,-1.14956 -0.12201,-0.743679 -0.0701,-1.527177 0.18516,-2.291793 0.83844,-2.511971 3.553175,-3.868914 6.063515,-3.030816 z"
     style="fill:#cfcfcf;stroke:#333333;stroke-width:1.746;stroke-miterlimit:10;stroke-opacity:1" />
  <path
     style="fill:#626262;stroke:#272727;stroke-width:36;stroke-opacity:1"
     id="path18"
     clip-path="url(#b)"
     d="m 188,128 c 0,80 -69.756,119.362 -69.756,119.362 C 64,244 8.638,193.922 8.638,128 8.638,62.078 64,12 118.244,8.638 118.244,8.638 188,48 188,128 Z"
     transform="matrix(0.14668,0,0,0.14668,33.558519,37.322257)"
     inkscape:connector-curvature="0" />
  <path
     sodipodi:nodetypes="ccccccccccc"
     inkscape:connector-curvature="0"
     style="fill:#424242;stroke:#242424;stroke-width:1.21744;stroke-opacity:1"
     id="path20"
     d="m 51.859009,56.096758 -1.535728,1.785805 -0.05052,5.623508 -3.346439,-4.519747 -5.36404,1.689655 3.264565,-4.579401 -1.434527,-3.17483 3.53385,0.285084 3.346439,-4.519746 0.05052,5.623508 z" />
  <path
     id="path22"
     d="m 47.625519,39.163258 c -7.938,3.704 -6.35,6.35 -6.35,6.35 h 7.407999 l 6.35,7.408 6.350001,-7.408 h 7.408999 c 0,0 1.586999,-2.646 -6.350001,-6.35 -3.704999,-1.974 -10.054998,-1.974 -14.816998,0 z"
     style="fill:#c2c2c2;stroke:#515151;stroke-width:2.646;stroke-opacity:0.657"
     inkscape:connector-curvature="0" />
</svg>
