<?xml version="1.0" encoding="UTF-8" standalone="no"?>
<svg width="546" height="1024" viewBox="0 0 144.4625 270.93368" version="1.1" id="svg139" sodipodi:docname="map-building-workshop-floor-02.svg" inkscape:version="1.4.2 (ebf0e940d0, 2025-05-08)" xmlns:inkscape="http://www.inkscape.org/namespaces/inkscape" xmlns:sodipodi="http://sodipodi.sourceforge.net/DTD/sodipodi-0.dtd" xmlns:xlink="http://www.w3.org/1999/xlink" xmlns="http://www.w3.org/2000/svg" xmlns:svg="http://www.w3.org/2000/svg" xmlns:rdf="http://www.w3.org/1999/02/22-rdf-syntax-ns#" xmlns:cc="http://creativecommons.org/ns#" xmlns:dc="http://purl.org/dc/elements/1.1/">
  <metadata id="metadata143">
    <rdf:RDF>
      <cc:Work rdf:about="">
        <dc:format>image/svg+xml</dc:format>
        <dc:type rdf:resource="http://purl.org/dc/dcmitype/StillImage" />
      </cc:Work>
    </rdf:RDF>
  </metadata>
  <sodipodi:namedview pagecolor="#ffffff" bordercolor="#666666" borderopacity="1" objecttolerance="10" gridtolerance="10" guidetolerance="10" inkscape:pageopacity="0" inkscape:pageshadow="2" inkscape:window-width="1920" inkscape:window-height="1017" id="namedview141" showgrid="true" inkscape:zoom="1.8587963" inkscape:cx="423.93026" inkscape:cy="83.656288" inkscape:window-x="1912" inkscape:window-y="-8" inkscape:window-maximized="1" inkscape:current-layer="svg139" fit-margin-top="0" fit-margin-left="0" fit-margin-right="0" fit-margin-bottom="0" inkscape:showpageshadow="2" inkscape:pagecheckerboard="0" inkscape:deskcolor="#d1d1d1">
    <inkscape:grid type="xygrid" id="grid972" empspacing="8" spacingy="1.0583347" spacingx="1.0583333" originx="8.2041127e-12" originy="-50.800064" units="px" />
  </sodipodi:namedview>
  <defs id="defs95">
    <pattern inkscape:collect="always" xlink:href="#d-03-6" id="pattern6" patternTransform="matrix(0.25792299,0,0,0.258,150.70891,442.25887)" x="0" y="0" preserveAspectRatio="none" />
    <pattern patternUnits="userSpaceOnUse" width="74" height="121.948" patternTransform="matrix(.26458 0 0 .26458 82.55 263.539)" id="d-03-6" inkscape:label="d-03">
      <g clip-path="url(#a-0-1)" transform="matrix(3.77953 0 0 3.77953 -224 -996.052)" fill="#505050" stroke="#050505" stroke-opacity=".278" id="g32-7">
        <path d="M59.267 262.996h20.108v32.808H59.267z" id="path20-2-5" />
        <path clip-path="url(#b-07-7)" stroke-width="1.588" d="M59.267 262.467H69.85V279.4H59.267z" id="path22-3-3" />
        <path clip-path="url(#b-07-7)" transform="translate(0 16.126)" stroke-width="1.588" d="M59.267 262.467H69.85V279.4H59.267z" id="path24-7-5" />
        <path transform="translate(9.79 8.467)" clip-path="url(#b-07-7)" stroke-width="1.588" d="M59.267 262.467H69.85V279.4H59.267z" id="path26-7-6" />
        <path clip-path="url(#b-07-7)" transform="translate(9.79 -7.673)" stroke-width="1.588" d="M59.267 262.467H69.85V279.4H59.267z" id="path28-1-2" />
        <path clip-path="url(#b-07-7)" transform="translate(9.79 24.606)" stroke-width="1.588" d="M59.267 262.467H69.85V279.4H59.267z" id="path30-9-9" />
      </g>
    </pattern>
    <clipPath id="a-0-1">
      <path fill="#797e7e" stroke-width="1.014" d="m 59.267,263.539 h 19.579 v 32.265 H 59.267 Z" id="path17-9-2" />
    </clipPath>
    <clipPath id="b-07-7">
      <path fill="#353737" stroke-width="4.626" d="M 59.267,262.467 H 69.85 V 279.4 H 59.267 Z" id="path14-1-0" />
    </clipPath>
    <pattern xlink:href="#a-97-7" id="k-2-8" patternTransform="matrix(0.625,0,0,0.625,2384.0007,-183)" />
    <pattern patternUnits="userSpaceOnUse" width="128" height="128" patternTransform="translate(2160 -183)" id="a-97-7" inkscape:label="a-97">
      <path fill="#999" stroke-width="15.118" stroke-miterlimit="10" d="M0 0h128v128H0z" id="path25-5-9" />
      <path d="M0 0v2.34L125.66 128H128v-2.34L2.34 0z" fill="#191919" fill-opacity=".457" stroke-width="1.7" id="path26-4-2" />
      <path d="M125.66 0L0 125.66V128h2.34L128 2.34V0z" fill="#191919" fill-opacity=".451" stroke-width="1.7" id="path27-4-0" />
    </pattern>
    <clipPath id="j-0-23">
      <path fill="url(#f)" stroke-width="5.781" stroke-miterlimit="10" d="m 1767.9999,-471.00284 224.0006,-0.002 v 736.00472 l -224.0006,2e-5 z" id="path5-3-7" style="fill:url(#f-1-5)" sodipodi:nodetypes="ccccc" />
    </clipPath>
    <pattern xlink:href="#c-4-9" id="f-1-5" patternTransform="translate(2248 -159) scale(.53217)" />
    <pattern xlink:href="#d-0-2" id="c-4-9" patternTransform="translate(2248 344) scale(.53217)" />
    <pattern xlink:href="#e-3-2" id="d-0-2" patternTransform="translate(2248 -159) scale(.53217)" />
    <pattern patternUnits="userSpaceOnUse" width="128" height="128" patternTransform="translate(2248 -159)" id="e-3-2" inkscape:label="e-3">
      <path fill="#999" stroke-width="15.118" stroke-miterlimit="10" d="M0 0h128v128H0z" id="path2-42-8" />
      <path d="M0 0v2.34L125.66 128H128v-2.34L2.34 0z" fill="#191919" stroke-width="1.7" id="path3-7-9" />
      <path d="M125.66 0L0 125.66V128h2.34L128 2.34V0z" fill="#191919" stroke-width="1.7" id="path4-5-7" />
    </pattern>
    <pattern inkscape:collect="always" xlink:href="#pattern1700" id="pattern1718" patternTransform="matrix(0.214,0,0,0.214,-33.226961,59.247447)" x="0" y="0" preserveAspectRatio="none" />
    <pattern patternUnits="userSpaceOnUse" width="160.00015" height="160.00009" patternTransform="matrix(0.26458398,0,0,0.26458398,-76.200218,-50.800144)" id="pattern1700" inkscape:label="pattern1700">
      <rect style="fill:none;stroke:none;stroke-width:3.77952766" width="160.00012" height="160.00008" x="0" y="1.4417718e-005" id="rect1652" />
      <rect id="rect1656" y="-5.6843419e-014" x="2.8835437e-005" height="160.00006" width="160.00012" style="fill:none;stroke:none;stroke-width:3.77952647" />
      <rect id="rect1658" y="-5.6843419e-014" x="8.6506312e-005" height="160.00005" width="160.00005" style="fill:none;stroke:none;stroke-width:3.77952647" />
      <rect transform="rotate(90)" id="rect1660" y="-160.00008" x="-4.7046565e-014" height="160.00005" width="160.00005" style="fill:none;stroke:none;stroke-width:3.77952766" />
      <rect transform="rotate(90)" id="rect1662" y="-160.00012" x="2.8835437e-005" height="160.00005" width="160.00003" style="fill:none;stroke:none;stroke-width:3.77952766" />
      <rect transform="rotate(90)" y="-160.00012" x="2.8835437e-005" height="159.99997" width="159.99998" id="rect1664" style="fill:#91714f;fill-opacity:1;stroke:none;stroke-width:18.89763641;stroke-linecap:butt;stroke-linejoin:miter;stroke-miterlimit:10;stroke-dasharray:none;stroke-opacity:1;paint-order:normal" />
      <rect transform="rotate(90)" y="-160.00012" x="36.000019" height="159.99997" width="4" id="rect1666" style="fill:#000000;fill-opacity:0.35353537;stroke:none;stroke-width:8.70860863;stroke-linecap:butt;stroke-linejoin:miter;stroke-miterlimit:10;stroke-dasharray:none;stroke-opacity:1;paint-order:normal" />
      <rect transform="rotate(90)" y="-160.00012" x="75.999939" height="159.99997" width="4" id="rect1668" style="fill:#000000;fill-opacity:0.35353537;stroke:none;stroke-width:8.70860863;stroke-linecap:butt;stroke-linejoin:miter;stroke-miterlimit:10;stroke-dasharray:none;stroke-opacity:1;paint-order:normal" />
      <rect transform="rotate(90)" y="-160.00012" x="115.99994" height="159.99997" width="4" id="rect1670" style="fill:#000000;fill-opacity:0.35353537;stroke:none;stroke-width:8.70860863;stroke-linecap:butt;stroke-linejoin:miter;stroke-miterlimit:10;stroke-dasharray:none;stroke-opacity:1;paint-order:normal" />
      <rect transform="scale(-1)" y="-75.999939" x="-124.00009" height="36" width="4" id="rect1672" style="fill:#000000;fill-opacity:0.35353537;stroke:none;stroke-width:4.13085508;stroke-linecap:butt;stroke-linejoin:miter;stroke-miterlimit:10;stroke-dasharray:none;stroke-opacity:1;paint-order:normal" />
      <rect transform="scale(-1)" y="-36.000019" x="-4.0000806" height="36" width="4" id="rect1674" style="fill:#000000;fill-opacity:0.35353537;stroke:none;stroke-width:4.13085508;stroke-linecap:butt;stroke-linejoin:miter;stroke-miterlimit:10;stroke-dasharray:none;stroke-opacity:1;paint-order:normal" />
      <rect transform="scale(-1)" y="-115.99994" x="-44.000137" height="35.999996" width="4" id="rect1676" style="fill:#000000;fill-opacity:0.35353537;stroke:none;stroke-width:4.13085508;stroke-linecap:butt;stroke-linejoin:miter;stroke-miterlimit:10;stroke-dasharray:none;stroke-opacity:1;paint-order:normal" />
      <rect transform="rotate(90)" y="-160.00008" x="155.99997" height="159.99997" width="4" id="rect1678" style="fill:#000000;fill-opacity:0.35353537;stroke:none;stroke-width:8.70860863;stroke-linecap:butt;stroke-linejoin:miter;stroke-miterlimit:10;stroke-dasharray:none;stroke-opacity:1;paint-order:normal" />
      <rect transform="scale(-1)" y="-155.99997" x="-84.000046" height="36" width="4" id="rect1680" style="fill:#000000;fill-opacity:0.35353537;stroke:none;stroke-width:4.13085508;stroke-linecap:butt;stroke-linejoin:miter;stroke-miterlimit:10;stroke-dasharray:none;stroke-opacity:1;paint-order:normal" />
    </pattern>
    <clipPath clipPathUnits="userSpaceOnUse" id="clipPath10">
      <path id="path11" style="opacity:1;fill:#c8b7b7;fill-opacity:1;stroke:none;stroke-width:3.175;stroke-linecap:butt;stroke-dasharray:none" d="M -2.7180997e-4,50.800064 V 321.73374 H 143.93324 v 76.20011 h 67.73342 v -8.46668 H 152.39992 V 270.93368 h -8.46668 v 42.33338 H 8.4664056 V 152.40019 H 42.333115 v -8.46667 H 8.4664056 V 59.266742 H 76.199825 v -8.466678 z m 101.33554180997,0 v 8.466678 h 42.59797 v 16.933355 h 8.46668 V 59.266742 h 59.26674 v -8.466678 z m 254.26508,0 v 8.466678 h 59.26654 V 389.46717 h -59.26654 v 8.46668 h 67.73322 V 50.800064 Z M 143.93324,101.60013 v 42.33339 H 76.199825 v 8.46667 h 67.733415 v 84.66678 h 8.46668 V 101.60013 Z" sodipodi:nodetypes="cccccccccccccccccccccccccccccccccccccccccccccc" />
    </clipPath>
    <pattern xlink:href="#a-97-7-6" id="k-2-8-7" patternTransform="matrix(0.625,0,0,0.625,3888.0048,-182.9999)" />
    <pattern patternUnits="userSpaceOnUse" width="128" height="128" patternTransform="translate(2160 -183)" id="a-97-7-6" inkscape:label="a-97">
      <path fill="#999" stroke-width="15.118" stroke-miterlimit="10" d="M0 0h128v128H0z" id="path25-5-9-5" />
      <path d="M0 0v2.34L125.66 128H128v-2.34L2.34 0z" fill="#191919" fill-opacity=".457" stroke-width="1.7" id="path26-4-2-6" />
      <path d="M125.66 0L0 125.66V128h2.34L128 2.34V0z" fill="#191919" fill-opacity=".451" stroke-width="1.7" id="path27-4-0-9" />
    </pattern>
    <clipPath id="j-0-23-3">
      <path fill="url(#f)" stroke-width="5.781" stroke-miterlimit="10" d="m 1800,-471.00284 224.0006,-0.002 V 264.99988 L 1800,264.9999 Z" id="path5-3-7-7" style="fill:url(#f-1-5-4)" sodipodi:nodetypes="ccccc" />
    </clipPath>
    <pattern xlink:href="#c-4-9-5" id="f-1-5-4" patternTransform="translate(2248 -159) scale(.53217)" />
    <pattern xlink:href="#d-0-2-2" id="c-4-9-5" patternTransform="translate(2248 344) scale(.53217)" />
    <pattern xlink:href="#e-3-2-54" id="d-0-2-2" patternTransform="translate(2248 -159) scale(.53217)" />
    <pattern patternUnits="userSpaceOnUse" width="128" height="128" patternTransform="translate(2248 -159)" id="e-3-2-54" inkscape:label="e-3">
      <path fill="#999" stroke-width="15.118" stroke-miterlimit="10" d="M0 0h128v128H0z" id="path2-42-8-7" />
      <path d="M0 0v2.34L125.66 128H128v-2.34L2.34 0z" fill="#191919" stroke-width="1.7" id="path3-7-9-4" />
      <path d="M125.66 0L0 125.66V128h2.34L128 2.34V0z" fill="#191919" stroke-width="1.7" id="path4-5-7-4" />
    </pattern>
  </defs>
  <path clip-path="url(#j-0-23)" fill="url(#k)" d="m 1767.9999,-471.00284 224.0006,-0.002 v 736.00472 l -224.0006,2e-5 z" transform="matrix(0,0.26458292,-0.26458293,0,256.64583,-129.11547)" id="path34-2" style="opacity:1;fill:url(#k-2-8)" sodipodi:nodetypes="ccccc" />
  <path clip-path="url(#j-0-23-3)" fill="url(#k)" d="m 1800,-471.00284 224.0006,-0.002 V 264.99988 L 1800,264.9999 Z" transform="matrix(0,0.26458292,-0.26458293,0,256.64586,-527.04931)" id="path34-2-0" style="opacity:1;fill:url(#k-2-8-7)" sodipodi:nodetypes="ccccc" />
  <path d="M 423.59833,1.3571777e-6 H 144.198 V 347.13379 h 279.40033 z" fill="url(#d)" id="path45-9" style="opacity:1;mix-blend-mode:normal;fill:url(#pattern6);fill-opacity:1;fill-rule:nonzero;stroke:none;stroke-width:0.900189;stroke-dasharray:none;stroke-opacity:1" sodipodi:nodetypes="ccccc" />
  <path d="m 0.26449125,270.93368 0,-270.93368064282225 L 152.66467,1.3571777e-6 V 270.93368 Z" id="path97" inkscape:connector-curvature="0" style="opacity:1;fill:url(#pattern1718);fill-opacity:1;stroke-width:0.839879" sodipodi:nodetypes="ccccc" />
  <path id="path7" style="opacity:1;fill:#c8b7b7;fill-opacity:1;stroke:#050505;stroke-width:3.175;stroke-linecap:butt;stroke-dasharray:none;stroke-opacity:1" d="M -2.7180997e-4,50.800064 V 321.73374 H 143.93324 v 76.20011 h 67.73342 v -8.46668 H 152.39992 V 270.93368 h -8.46668 v 42.33338 H 8.4664056 V 152.40019 H 42.333115 v -8.46667 H 8.4664056 V 59.266742 H 76.199825 v -8.466678 z m 101.33554180997,0 v 8.466678 h 42.59797 v 16.933355 h 8.46668 V 59.266742 h 59.26674 v -8.466678 z m 254.26508,0 v 8.466678 h 59.26654 V 389.46717 h -59.26654 v 8.46668 h 67.73322 V 50.800064 Z M 143.93324,101.60013 v 42.33339 H 76.199825 v 8.46667 h 67.733415 v 84.66678 h 8.46668 V 101.60013 Z" clip-path="url(#clipPath10)" transform="translate(0.26476306,-50.800065)" sodipodi:nodetypes="cccccccccccccccccccccccccccccccccccccccccccccc" />
</svg>
