<?xml version="1.0" encoding="UTF-8" standalone="no"?>
<svg
   width="128"
   height="128"
   viewBox="0 0 33.866667 33.866667"
   version="1.1"
   id="svg6"
   sodipodi:docname="proj-tomato-01.svg"
   inkscape:version="1.3 (0e150ed6c4, 2023-07-21)"
   xmlns:inkscape="http://www.inkscape.org/namespaces/inkscape"
   xmlns:sodipodi="http://sodipodi.sourceforge.net/DTD/sodipodi-0.dtd"
   xmlns:xlink="http://www.w3.org/1999/xlink"
   xmlns="http://www.w3.org/2000/svg"
   xmlns:svg="http://www.w3.org/2000/svg"
   xmlns:rdf="http://www.w3.org/1999/02/22-rdf-syntax-ns#"
   xmlns:cc="http://creativecommons.org/ns#"
   xmlns:dc="http://purl.org/dc/elements/1.1/">
  <metadata
     id="metadata12">
    <rdf:RDF>
      <cc:Work
         rdf:about="">
        <dc:format>image/svg+xml</dc:format>
        <dc:type
           rdf:resource="http://purl.org/dc/dcmitype/StillImage" />
      </cc:Work>
    </rdf:RDF>
  </metadata>
  <defs
     id="defs10">
    <linearGradient
       id="linearGradient1"
       inkscape:collect="always">
      <stop
         style="stop-color:#cb3232;stop-opacity:1;"
         offset="0"
         id="stop1" />
      <stop
         style="stop-color:#cd0000;stop-opacity:1;"
         offset="1"
         id="stop2" />
    </linearGradient>
    <radialGradient
       inkscape:collect="always"
       xlink:href="#linearGradient1"
       id="radialGradient2"
       cx="14.471719"
       cy="14.109533"
       fx="14.471719"
       fy="14.109533"
       r="14.623535"
       gradientTransform="matrix(-1.4706435,-0.05456529,0.05284155,-1.4241727,42.043176,40.054022)"
       gradientUnits="userSpaceOnUse" />
  </defs>
  <sodipodi:namedview
     pagecolor="#ffffff"
     bordercolor="#666666"
     borderopacity="1"
     objecttolerance="10"
     gridtolerance="10"
     guidetolerance="10"
     inkscape:pageopacity="0"
     inkscape:pageshadow="2"
     inkscape:window-width="2560"
     inkscape:window-height="1400"
     id="namedview8"
     showgrid="false"
     inkscape:zoom="0.8293123"
     inkscape:cx="-194.13676"
     inkscape:cy="-110.93529"
     inkscape:window-x="-12"
     inkscape:window-y="-12"
     inkscape:window-maximized="1"
     inkscape:current-layer="svg6"
     inkscape:showpageshadow="2"
     inkscape:pagecheckerboard="0"
     inkscape:deskcolor="#d1d1d1" />
  <path
     id="path1"
     style="fill:url(#radialGradient2);fill-opacity:1;fill-rule:evenodd;stroke:#202020;stroke-width:3.175;stroke-dasharray:none;stroke-opacity:1"
     d="m 29.969369,18.520834 c 0,7.199604 -5.836432,13.036036 -13.036036,13.036036 -3.522116,0 -6.380472,-1.812036 -8.7263691,-4.081924 -2.449383,-2.370021 -4.3096659,-5.276624 -4.3096658,-8.954112 0,-1.567394 0.2766222,-3.070181 0.78371,-4.462202 C 6.5031556,9.0566038 10.394001,6.0895473 16.02621,6.089547 c 3.504667,-10e-8 7.102561,1.3509479 9.445205,3.6009718 2.469827,2.3721772 4.497954,5.1353782 4.497954,8.8303152 z"
     sodipodi:nodetypes="ssssssss" />
  <path
     style="fill:#28a200;fill-opacity:1;stroke:#202020;stroke-width:1.65365;stroke-dasharray:none;stroke-opacity:1"
     d="M 27.55584,8.7768619 C 26.478783,7.3879865 23.983729,4.8649262 21.085305,5.3333949 20.806232,5.3787732 20.573118,5.1222985 20.648237,4.8494395 L 21.299619,2.4833657 C 21.450708,1.9366843 21.202549,1.3867236 20.74872,1.2617808 L 19.510832,0.92098752 C 19.056995,0.79604542 18.562317,1.141504 18.411774,1.6883347 l -0.690019,2.5064017 c -0.06516,0.2366634 -0.328905,0.356948 -0.54793,0.2451315 -0.985887,-0.503253 -3.852826,-0.6437833 -6.912695,0.7555663 -0.4136802,0.114355 -0.5444776,1.1375297 -0.116331,1.1751298 1.417751,0.6446705 2.760543,0.1481125 4.021921,0.2343394 0.251261,0.1883855 0.304381,-0.064913 0.0053,0.031278 -0.969526,0.2980447 -2.276122,0.6436188 -2.603874,2.3288669 -0.07752,0.3985857 0.0968,0.758105 0.467709,0.5924335 1.597063,-0.3449314 2.443354,-1.1725622 3.996296,-0.5747369 0.186889,0.078409 0.29036,0.2770267 0.233765,0.4717162 -0.269382,1.1033248 -0.407885,3.0110878 -0.179286,4.6572728 0.08202,0.263407 0.40084,0.363152 0.616641,0.19073 0.59579,-0.71254 1.459433,-0.739428 2.861105,-3.860254 0.05654,-0.218072 0.27934,-0.346631 0.494519,-0.279604 0.822358,0.25515 2.277218,0.629742 3.413088,2.574886 0.185953,0.318973 0.666671,0.220078 0.719316,-0.145229 0.14403,-0.999719 0.679561,-2.283291 -0.933509,-3.9464598 -0.244977,-0.2525519 -0.450672,-0.3008533 -0.09933,-0.2909931 0.60315,0.2865195 1.839928,1.1657261 3.988913,1.0548397 0.380454,0.11732 0.651834,-0.3189273 0.40844,-0.6327854 z"
     id="path1-6"
     sodipodi:nodetypes="scccsssccccccsccccccccccccss" />
</svg>
