<?xml version="1.0" encoding="UTF-8" standalone="no"?>
<svg version="1.0" width="128" height="128" viewBox="0 0 96 96.000001" preserveAspectRatio="xMidYMid" id="svg10" sodipodi:docname="icon_wiki.svg" inkscape:version="1.4.3 (0d15f75042, 2025-12-25)" xmlns:inkscape="http://www.inkscape.org/namespaces/inkscape" xmlns:sodipodi="http://sodipodi.sourceforge.net/DTD/sodipodi-0.dtd" xmlns="http://www.w3.org/2000/svg" xmlns:svg="http://www.w3.org/2000/svg">
  <defs id="defs10" />
  <sodipodi:namedview id="namedview10" pagecolor="#ffffff" bordercolor="#000000" borderopacity="0.25" inkscape:showpageshadow="2" inkscape:pageopacity="0.0" inkscape:pagecheckerboard="0" inkscape:deskcolor="#d1d1d1" inkscape:document-units="pt" inkscape:zoom="2.1501946" inkscape:cx="128.36048" inkscape:cy="19.300579" inkscape:current-layer="svg10" />
  <metadata id="metadata1">
Created by potrace 1.16, written by Peter Selinger 2001-2019
</metadata>
  <g transform="matrix(0.0242999,0,0,-0.0242999,13.252656,81.051297)" fill="#ff1985" stroke="none" id="g10" style="fill:#f9f9f9;stroke-width:4.11526">
    <path d="M 701,2334 C 555,2295 407,2177 338,2045 303,1977 44,1178 19,1060 3,984 14,856 43,771 129,524 352,370 625,370 c 189,0 311,46 460,175 145,125 267,173 415,161 134,-10 224,-51 350,-161 178,-156 384,-201 597,-130 148,49 269,153 338,289 53,106 68,182 62,301 -4,95 -11,120 -140,515 -74,228 -145,439 -156,468 -49,123 -147,231 -269,295 -113,60 -157,67 -411,67 -136,0 -221,-4 -216,-9 6,-5 62,-39 125,-76 63,-36 123,-75 133,-87 10,-12 17,-37 17,-60 0,-48 -11,-59 -155,-158 l -110,-75 197,-5 c 190,-5 197,-6 222,-29 31,-29 27,-19 177,-481 130,-402 135,-426 89,-475 -61,-65 -122,-57 -215,25 -38,33 -91,75 -119,94 C 1647,1257 1162,1227 823,940 710,844 703,840 638,840 c -34,0 -72,7 -89,15 -34,18 -69,69 -69,102 0,12 60,212 134,444 106,335 140,427 160,448 26,26 28,26 229,33 111,3 220,11 242,18 49,15 260,135 286,163 21,23 25,64 8,100 -12,27 -197,139 -278,169 -62,23 -476,25 -560,2 z m 1580,-163 c 39,-40 40,-89 1,-132 -48,-54 -134,-38 -162,30 -40,98 85,177 161,102 z" id="path4" style="fill:#f9f9f9;stroke-width:4.11526" />
  </g>
</svg>
