<?xml version="1.0" encoding="UTF-8" standalone="no"?>
<svg
   width="128"
   height="128"
   version="1.1"
   id="svg2"
   sodipodi:docname="flag-nonbinary.svg"
   xml:space="preserve"
   inkscape:version="1.3.2 (091e20e, 2023-11-25, custom)"
   xmlns:inkscape="http://www.inkscape.org/namespaces/inkscape"
   xmlns:sodipodi="http://sodipodi.sourceforge.net/DTD/sodipodi-0.dtd"
   xmlns="http://www.w3.org/2000/svg"
   xmlns:svg="http://www.w3.org/2000/svg"><defs
     id="defs2"><clipPath
       clipPathUnits="userSpaceOnUse"
       id="clipPath3"><circle
         r="64"
         cx="64"
         fill="#f0f0f0"
         id="circle4"
         cy="64"
         style="stroke-width:0.25" /></clipPath><clipPath
       clipPathUnits="userSpaceOnUse"
       id="clipPath7"><ellipse
         cx="3.75"
         fill="#f0f0f0"
         id="circle7"
         cy="2.5"
         style="stroke-width:0.0119604"
         rx="3.75"
         ry="2.5" /></clipPath><clipPath
       clipPathUnits="userSpaceOnUse"
       id="clipPath63"><g
         id="g68"><g
           id="g67"
           transform="scale(17.066667,25.6)"
           clip-path="url(#clipPath7)"><path
             fill="#d42c00"
             d="M 0,0 H 7.5 V 1 H 0 Z"
             id="path63" /><path
             fill="#fd9855"
             d="M 0,1 H 7.5 V 2 H 0 Z"
             id="path64" /><path
             fill="#ffffff"
             d="M 0,2 H 7.5 V 3 H 0 Z"
             id="path65" /><path
             fill="#d161a2"
             d="M 0,3 H 7.5 V 4 H 0 Z"
             id="path66" /><path
             fill="#a20161"
             d="M 0,4 H 7.5 V 5 H 0 Z"
             id="path67" /></g></g></clipPath><clipPath
       clipPathUnits="userSpaceOnUse"
       id="clipPath68"><g
         id="g73"><g
           id="g72"
           transform="scale(17.066667,25.6)"
           clip-path="url(#clipPath7)"><path
             fill="#d42c00"
             d="M 0,0 H 7.5 V 1 H 0 Z"
             id="path68" /><path
             fill="#fd9855"
             d="M 0,1 H 7.5 V 2 H 0 Z"
             id="path69" /><path
             fill="#ffffff"
             d="M 0,2 H 7.5 V 3 H 0 Z"
             id="path70" /><path
             fill="#d161a2"
             d="M 0,3 H 7.5 V 4 H 0 Z"
             id="path71" /><path
             fill="#a20161"
             d="M 0,4 H 7.5 V 5 H 0 Z"
             id="path72" /></g></g></clipPath><clipPath
       clipPathUnits="userSpaceOnUse"
       id="clipPath73"><g
         id="g78"><g
           id="g77"
           transform="scale(17.066667,25.6)"
           clip-path="url(#clipPath7)"><path
             fill="#d42c00"
             d="M 0,0 H 7.5 V 1 H 0 Z"
             id="path73" /><path
             fill="#fd9855"
             d="M 0,1 H 7.5 V 2 H 0 Z"
             id="path74" /><path
             fill="#ffffff"
             d="M 0,2 H 7.5 V 3 H 0 Z"
             id="path75" /><path
             fill="#d161a2"
             d="M 0,3 H 7.5 V 4 H 0 Z"
             id="path76" /><path
             fill="#a20161"
             d="M 0,4 H 7.5 V 5 H 0 Z"
             id="path77" /></g></g></clipPath><clipPath
       clipPathUnits="userSpaceOnUse"
       id="clipPath78"><g
         id="g83"><g
           id="g82"
           transform="scale(17.066667,25.6)"
           clip-path="url(#clipPath7)"><path
             fill="#d42c00"
             d="M 0,0 H 7.5 V 1 H 0 Z"
             id="path78" /><path
             fill="#fd9855"
             d="M 0,1 H 7.5 V 2 H 0 Z"
             id="path79" /><path
             fill="#ffffff"
             d="M 0,2 H 7.5 V 3 H 0 Z"
             id="path80" /><path
             fill="#d161a2"
             d="M 0,3 H 7.5 V 4 H 0 Z"
             id="path81" /><path
             fill="#a20161"
             d="M 0,4 H 7.5 V 5 H 0 Z"
             id="path82" /></g></g></clipPath><clipPath
       clipPathUnits="userSpaceOnUse"
       id="clipPath83"><g
         id="g88"><g
           id="g87"
           transform="scale(17.066667,25.6)"
           clip-path="url(#clipPath7)"><path
             fill="#d42c00"
             d="M 0,0 H 7.5 V 1 H 0 Z"
             id="path83" /><path
             fill="#fd9855"
             d="M 0,1 H 7.5 V 2 H 0 Z"
             id="path84" /><path
             fill="#ffffff"
             d="M 0,2 H 7.5 V 3 H 0 Z"
             id="path85" /><path
             fill="#d161a2"
             d="M 0,3 H 7.5 V 4 H 0 Z"
             id="path86" /><path
             fill="#a20161"
             d="M 0,4 H 7.5 V 5 H 0 Z"
             id="path87" /></g></g></clipPath><clipPath
       clipPathUnits="userSpaceOnUse"
       id="clipPath88"><ellipse
         style="opacity:1;fill:#ff0000;stroke:none;stroke-width:10.2782;stroke-linecap:round"
         id="circle88"
         cx="150"
         cy="100"
         rx="150"
         ry="100" /></clipPath></defs><sodipodi:namedview
     id="namedview2"
     pagecolor="#ffffff"
     bordercolor="#000000"
     borderopacity="0.25"
     inkscape:showpageshadow="2"
     inkscape:pageopacity="0.0"
     inkscape:pagecheckerboard="0"
     inkscape:deskcolor="#d1d1d1"
     inkscape:zoom="3.2897038"
     inkscape:cx="-8.5114046"
     inkscape:cy="46.964715"
     inkscape:window-width="2560"
     inkscape:window-height="1369"
     inkscape:window-x="-8"
     inkscape:window-y="-8"
     inkscape:window-maximized="1"
     inkscape:current-layer="svg2" /><g
     id="g24"
     transform="matrix(-0.42666667,0,0,0.64,128,0)"
     clip-path="url(#clipPath88)"><path
       fill="#2d2d2d"
       d="M 0,0 H 300 V 200 H 0"
       id="path1" /><path
       fill="#9b59d0"
       d="M 0,0 H 300 V 150 H 0"
       id="path2" /><path
       fill="#ffffff"
       d="M 0,0 H 300 V 100 H 0"
       id="path3" /><path
       fill="#fff433"
       d="M 0,0 H 300 V 50 H 0"
       id="path4" /></g></svg>
