<?xml version="1.0" encoding="UTF-8" standalone="no"?>
<svg width="128" height="128" version="1.1" id="svg2" xmlns="http://www.w3.org/2000/svg" xmlns:svg="http://www.w3.org/2000/svg">
  <defs id="defs2" />
  <path id="circle1" d="M 7.1699219,34.564453 C 5.3247826,38.127484 3.8188036,41.856139 2.671875,45.701172 l 3.21875,-2.339844 5.425781,3.935547 -2.0761716,-6.373047 5.4199216,-3.945312 -6.7031248,0.0039 z m 81.5488281,79.523437 -2.068359,6.37695 -6.703125,0.004 5.351562,3.88281 c 3.039736,-1.07246 5.994107,-2.37304 8.837891,-3.89062 h -3.341797 z" style="fill:#ffffff" />
  <path d="M64 0C41.307 0 21.375 11.81 10.011 29.62l86.79 89.342C115.487 107.787 128 87.356 128 64c0-35.346-28.654-64-64-64z" fill="#ffda44" id="path1" />
  <path d="M128 64c0-16.605-6.325-31.733-16.696-43.107v86.214C121.675 95.733 128 80.606 128 64zm-48.053 56.468l6.704-.004 2.068-6.377 2.075 6.374 3.363-.001a63.938 63.938 0 0 0 5.975-3.633l-88.96-88.96a64.015 64.015 0 0 0-4.005 6.688l.79 2.428 6.704-.004-5.42 3.944 2.075 6.374-5.426-3.936-3.236 2.354A63.978 63.978 0 0 0 0 64c0 35.346 28.654 64 64 64a63.865 63.865 0 0 0 21.313-3.638zm-65.672-59.25l2.067-6.378-5.425-3.937 6.703-.004 2.068-6.378 2.076 6.375 6.703-.004-5.42 3.944 2.075 6.375-5.426-3.937zM28.08 75.13l2.067-6.376-5.425-3.938 6.704-.004 2.067-6.377 2.076 6.374 6.704-.004-5.421 3.944 2.075 6.375-5.426-3.937zm13.806 13.914l2.067-6.378-5.425-3.937 6.704-.004 2.067-6.377 2.076 6.374 6.704-.004-5.421 3.944 2.075 6.374-5.426-3.937zm19.227 9.969l-5.421 3.943 2.067-6.377-5.425-3.937 6.704-.004 2.068-6.378 2.075 6.375 6.704-.004-5.421 3.944 2.075 6.374zm8.385 17.856l2.068-6.376-5.426-3.938 6.704-.004 2.068-6.377 2.075 6.374 6.704-.004-5.421 3.944 2.075 6.375-5.425-3.938z" fill="#0052b4" id="path2" />
  <path d="m 69.498,116.869 2.068,-6.376 -5.426,-3.938 6.704,-0.004 2.068,-6.377 2.075,6.374 6.704,-0.004 -5.421,3.944 2.075,6.375 -5.425,-3.938 z" id="path9" style="fill:#ffffff" />
  <path d="m 61.113,99.013 -5.421,3.943 2.067,-6.377 -5.425,-3.937 6.704,-0.004 2.068,-6.378 2.075,6.375 6.704,-0.004 -5.421,3.944 2.075,6.374 z" id="path8" style="fill:#ffffff" />
  <path d="m 41.886,89.044 2.067,-6.378 -5.425,-3.937 6.704,-0.004 2.067,-6.377 2.076,6.374 6.704,-0.004 -5.421,3.944 2.075,6.374 -5.426,-3.937 z" id="path7" style="fill:#ffffff" />
  <path d="m 28.08,75.13 2.067,-6.376 -5.425,-3.938 6.704,-0.004 2.067,-6.377 2.076,6.374 6.704,-0.004 -5.421,3.944 2.075,6.375 -5.426,-3.937 z" id="path6" style="fill:#ffffff" />
  <path d="m 14.275,61.218 2.067,-6.378 -5.425,-3.937 6.703,-0.004 2.068,-6.378 2.076,6.375 6.703,-0.004 -5.42,3.944 2.075,6.375 -5.426,-3.937 z" id="path5" style="fill:#ffffff" />
  <path d="m 128,64 c 0,-16.605 -6.325,-31.733 -16.696,-43.107 v 86.214 C 121.675,95.733 128,80.606 128,64 Z" id="path4" style="fill:#0052b4;fill-opacity:1" />
</svg>
