<?xml version="1.0" encoding="UTF-8" standalone="no"?>
<!-- Created with Inkscape (http://www.inkscape.org/) -->

<svg
   width="110.08173"
   height="110.08174"
   viewBox="0 0 29.125792 29.125795"
   version="1.1"
   id="svg10588"
   inkscape:version="1.4 (e7c3feb1, 2024-10-09)"
   sodipodi:docname="tomato.svg"
   xml:space="preserve"
   xmlns:inkscape="http://www.inkscape.org/namespaces/inkscape"
   xmlns:sodipodi="http://sodipodi.sourceforge.net/DTD/sodipodi-0.dtd"
   xmlns="http://www.w3.org/2000/svg"
   xmlns:svg="http://www.w3.org/2000/svg"
   xmlns:rdf="http://www.w3.org/1999/02/22-rdf-syntax-ns#"
   xmlns:cc="http://creativecommons.org/ns#"
   xmlns:dc="http://purl.org/dc/elements/1.1/"><defs
     id="defs10582"><clipPath
       clipPathUnits="userSpaceOnUse"
       id="clipPath1"><path
         style="fill:#6a4e31;fill-opacity:1;stroke:#312516;stroke-width:0.370417;stroke-linecap:round;stroke-opacity:1"
         d="m 5.6407951,5.1411076 -7.7437088,5.9523404 4.0000001,16 14.8678636,1.28189 c 0,0 15.483577,-6.069825 11,-9.999999 C 21.283026,29.197456 -1.1223595,25.980979 5.6407951,5.1411076 Z"
         id="path2"
         sodipodi:nodetypes="cccccc" /></clipPath><clipPath
       clipPathUnits="userSpaceOnUse"
       id="clipPath3"><path
         style="fill:#674c2f;fill-opacity:1;stroke:#312516;stroke-width:0.370417;stroke-linecap:round;stroke-opacity:1"
         d="M 10.900977,5.5812867 C 7.6180786,6.4387622 10.397579,9.3753394 10.397579,9.3753394 15.057217,9.6110409 15.181964,7.7798212 15.181964,7.7798212 12.988126,8.8314128 10.76495,8.177108 10.900977,5.5812867 Z"
         id="path4"
         sodipodi:nodetypes="cccc" /></clipPath><clipPath
       clipPathUnits="userSpaceOnUse"
       id="clipPath3-0"><path
         style="fill:#674c2f;fill-opacity:1;stroke:#312516;stroke-width:0.370417;stroke-linecap:round;stroke-opacity:1"
         d="M 10.900977,5.5812867 C 7.6180786,6.4387622 10.397579,9.3753394 10.397579,9.3753394 15.057217,9.6110409 15.181964,7.7798212 15.181964,7.7798212 12.988126,8.8314128 10.76495,8.177108 10.900977,5.5812867 Z"
         id="path4-4"
         sodipodi:nodetypes="cccc" /></clipPath><clipPath
       clipPathUnits="userSpaceOnUse"
       id="clipPath3-0-6"><path
         style="fill:#674c2f;fill-opacity:1;stroke:#312516;stroke-width:0.370417;stroke-linecap:round;stroke-opacity:1"
         d="M 10.900977,5.5812867 C 7.6180786,6.4387622 10.397579,9.3753394 10.397579,9.3753394 15.057217,9.6110409 15.181964,7.7798212 15.181964,7.7798212 12.988126,8.8314128 10.76495,8.177108 10.900977,5.5812867 Z"
         id="path4-4-8"
         sodipodi:nodetypes="cccc" /></clipPath></defs><sodipodi:namedview
     id="base"
     pagecolor="#ffffff"
     bordercolor="#666666"
     borderopacity="1.0"
     inkscape:pageopacity="0.0"
     inkscape:pageshadow="2"
     inkscape:zoom="2.3072769"
     inkscape:cx="127.85635"
     inkscape:cy="49.6256"
     inkscape:document-units="px"
     inkscape:current-layer="svg10588"
     showgrid="true"
     units="px"
     inkscape:window-width="1920"
     inkscape:window-height="1022"
     inkscape:window-x="1512"
     inkscape:window-y="30"
     inkscape:window-maximized="1"
     inkscape:showpageshadow="2"
     inkscape:pagecheckerboard="0"
     inkscape:deskcolor="#d1d1d1"
     showguides="true"><inkscape:grid
       type="xygrid"
       id="grid11143"
       originx="-38.235052"
       originy="-42.624661"
       spacingy="1"
       spacingx="1"
       units="px" /></sodipodi:namedview><metadata
     id="metadata10585"><rdf:RDF><cc:Work
         rdf:about=""><dc:format>image/svg+xml</dc:format><dc:type
           rdf:resource="http://purl.org/dc/dcmitype/StillImage" /></cc:Work></rdf:RDF></metadata><path
     id="path1"
     style="fill:#cc0000;fill-opacity:1;fill-rule:evenodd;stroke:none;stroke-width:3.175;stroke-dasharray:none"
     d="m 26.121907,14.570962 c 0,6.479643 -5.252788,11.732432 -11.732432,11.732432 -3.169904,0 -5.3835046,-1.846185 -7.4948128,-3.889084 -2.2044447,-2.133019 -4.2376185,-4.533609 -4.2376185,-7.843349 0,-1.410654 0.2489598,-2.763162 0.705339,-4.015981 1.6399332,-4.5018251 5.1416937,-7.1721756 10.2106813,-7.1721756 3.154201,-9e-7 6.392305,1.2158532 8.500685,3.240874 2.222844,2.1349593 4.048158,4.6218396 4.048158,7.9472836 z"
     sodipodi:nodetypes="ssssssss" /><path
     style="fill:#74ab41;fill-opacity:1;stroke:none;stroke-width:1.65365;stroke-dasharray:none;stroke-opacity:1"
     d="m 23.786142,7.9719397 c 0,-1.5818072 -2.917031,-4.2157695 -5.525613,-3.7941473 -0.251166,0.040842 -0.460968,-0.1899873 -0.393361,-0.4355595 l 0.586244,-2.1294666 c 0.13598,-0.4920138 -0.08736,-0.98697785 -0.495809,-1.09942655 l -1.1141,-0.30671373 C 16.43505,0.09417732 15.98984,0.40509045 15.854351,0.89723831 L 15.233334,3.1529993 C 15.17469,3.3659968 14.93732,3.4742524 14.740197,3.373618 13.852899,2.9206904 11.069753,3.3489487 8.3496865,4.101112 7.9773744,4.2040306 8.0287401,5.2263388 8.4140725,5.2601788 9.6900484,5.8403819 10.932379,4.9401941 12.067619,5.0177984 c 0.226135,0.1695473 0.240127,0.2459303 -0.02902,0.3325013 -0.810588,0.2593855 -0.99096,0.4281787 -2.3434876,2.0959804 -0.230184,0.2838447 0.08712,0.6822945 0.4209386,0.5331906 1.301601,-0.5819499 2.168783,-1.1157795 3.596667,-0.5172633 0.1682,0.070569 0.261324,0.2493243 0.210389,0.4245444 -0.242444,0.9929925 -0.367097,2.7099792 -0.161358,4.1915462 0.07382,0.237066 0.360756,0.326836 0.554977,0.171657 0.536211,-0.641286 1.31349,-0.665486 2.574995,-3.4742291 0.05089,-0.1962648 0.251406,-0.3119679 0.445067,-0.2516436 0.740122,0.229635 2.049496,0.5667677 3.071779,2.3173977 0.167358,0.287076 0.600004,0.19807 0.647384,-0.130706 0.129627,-0.8997473 0.408705,-1.9873291 -1.043058,-3.4841803 -0.22048,-0.2272968 -0.06744,-0.6089364 0.248769,-0.6000624 0.638823,0.017892 1.472371,1.3907828 3.156885,1.9149176 0.342409,0.105588 0.367596,-0.2120502 0.367596,-0.5695074 z"
     id="path1-6"
     sodipodi:nodetypes="scccsssccccccsccccccccccccss" /></svg>
