<?xml version="1.0" encoding="UTF-8" standalone="no"?>
<svg
   width="160"
   height="170"
   viewBox="0 0 42.333 44.978812"
   version="1.1"
   id="svg1"
   sodipodi:docname="player-patch-01po.svg"
   inkscape:version="1.4 (e7c3feb1, 2024-10-09)"
   xmlns:inkscape="http://www.inkscape.org/namespaces/inkscape"
   xmlns:sodipodi="http://sodipodi.sourceforge.net/DTD/sodipodi-0.dtd"
   xmlns="http://www.w3.org/2000/svg"
   xmlns:svg="http://www.w3.org/2000/svg">
  <defs
     id="defs1" />
  <sodipodi:namedview
     id="namedview1"
     pagecolor="#ffffff"
     bordercolor="#000000"
     borderopacity="0.25"
     inkscape:showpageshadow="2"
     inkscape:pageopacity="0.0"
     inkscape:pagecheckerboard="0"
     inkscape:deskcolor="#d1d1d1"
     inkscape:zoom="7.2040823"
     inkscape:cx="45.807361"
     inkscape:cy="52.05382"
     inkscape:window-width="1464"
     inkscape:window-height="921"
     inkscape:window-x="50"
     inkscape:window-y="33"
     inkscape:window-maximized="1"
     inkscape:current-layer="svg1" />
  <path
     d="m 13.758,-28.57475 c -7.937,3.704 -6.35,6.35 -6.35,6.35 h 7.409 l 6.35,7.408 6.35,-7.408 h 7.408 c 0,0 1.588,-2.646 -6.35,-6.35 -3.704,-1.974 -10.054,-1.974 -14.817,0 z"
     fill="#c2c2c2"
     stroke="#515151"
     stroke-width="2.646"
     stroke-opacity="0.657"
     id="path1" />
  <path
     style="fill:#cc0000;fill-opacity:1;stroke:#000000;stroke-width:2.64581;stroke-linecap:butt;stroke-linejoin:miter;stroke-miterlimit:4;stroke-dasharray:none;stroke-opacity:0.196078"
     d="M 14.496459,6.0756317 C 10.396455,8.0037206 7.2228694,10.356623 7.6003389,12.25165 c 0.5753728,2.88857 1.4310043,3.251042 3.8009191,4.795309 1.761625,1.147897 2.966756,0.668954 3.825962,-0.03881 1.341821,-1.105314 2.988345,0.06937 5.22097,-2.064298 0.698173,-0.667229 2.266644,-0.03385 2.661993,0.891998 1.074543,2.516421 1.984174,4.490369 2.962141,5.800762 1.639298,2.196524 3.514802,1.703767 3.842899,-0.659063 0.165766,-1.193776 -0.530365,-2.663598 -1.120508,-4.357218 -0.348862,-1.00118 1.2366,-1.060782 2.115185,-1.377085 6.032712,-2.171863 5.990868,-3.614374 -0.01019,-7.4360787 C 26.197391,4.812545 19.953402,3.5094218 14.496459,6.0756317 Z"
     id="path836"
     inkscape:connector-curvature="0"
     sodipodi:nodetypes="ssssssssssss" />
  <path
     style="fill:#74ab41;fill-opacity:1;stroke:#000000;stroke-width:1.32291;stroke-dasharray:none;stroke-opacity:0.5"
     d="M 31.912291,7.8796038 C 31.100691,6.731452 29.195989,4.626623 26.86295,4.8983641 26.638304,4.9247459 26.461082,4.7115121 26.530782,4.4961014 L 27.135181,2.6281857 C 27.275296,2.1966246 27.096446,1.7483013 26.738166,1.632371 L 25.760906,1.3161593 C 25.40262,1.2002293 24.995033,1.4588013 24.855349,1.890501 L 24.215102,3.8691993 C 24.154642,4.0560349 23.939594,4.1428255 23.768508,4.0457027 22.998403,3.6085778 20.515949,3.7470871 18.0709,4.307964 c -0.334668,0.07674 -0.329288,0.9865819 0.01156,1.0317974 1.110246,0.565444 2.243013,-0.052784 3.248063,0.060808 0.194138,0.1594593 0.203556,0.2278387 -0.03885,0.294123 -0.73002,0.1984351 -0.896835,0.3412264 -2.16353,1.7690213 -0.215577,0.2429978 0.05051,0.6093131 0.352813,0.4900448 1.178738,-0.4655515 1.969812,-0.9054689 3.214234,-0.3177844 0.146585,0.069284 0.222246,0.2316869 0.170118,0.3852799 -0.254373,0.8722455 -0.432639,2.392041 -0.308249,3.715784 0.05623,0.213423 0.307491,0.304433 0.486069,0.174275 0.5014,-0.548365 1.192584,-0.539263 2.423354,-2.9838068 0.05291,-0.1722825 0.235529,-0.267137 0.405128,-0.2059466 0.648198,0.2330465 1.797666,0.5839552 2.636567,2.1787654 0.137318,0.261513 0.525014,0.199502 0.580027,-0.09059 0.150519,-0.793883 0.441146,-1.7486827 -0.789125,-3.1350379 -0.186842,-0.2105191 -0.03591,-0.5433951 0.244527,-0.5230706 0.566577,0.041034 1.544608,0.6875076 3.019847,1.2192405 0.299906,0.1072395 0.532247,-0.2318013 0.348842,-0.4912607 z"
     id="path1-6"
     sodipodi:nodetypes="scccsssccccccsccccccccccccss" />
</svg>
