<?xml version="1.0" encoding="UTF-8" standalone="no"?>
<svg
   width="128"
   height="128"
   version="1.1"
   id="svg4"
   sodipodi:docname="loot-perk-lifeline.svg"
   inkscape:version="1.4 (e7c3feb1, 2024-10-09)"
   xmlns:inkscape="http://www.inkscape.org/namespaces/inkscape"
   xmlns:sodipodi="http://sodipodi.sourceforge.net/DTD/sodipodi-0.dtd"
   xmlns="http://www.w3.org/2000/svg"
   xmlns:svg="http://www.w3.org/2000/svg">
  <defs
     id="defs4" />
  <sodipodi:namedview
     id="namedview4"
     pagecolor="#3f3f3f"
     bordercolor="#000000"
     borderopacity="0.25"
     inkscape:showpageshadow="2"
     inkscape:pageopacity="0.0"
     inkscape:pagecheckerboard="false"
     inkscape:deskcolor="#d1d1d1"
     inkscape:zoom="5.8783045"
     inkscape:cx="74.00093"
     inkscape:cy="71.364115"
     inkscape:window-width="1920"
     inkscape:window-height="1022"
     inkscape:window-x="0"
     inkscape:window-y="128"
     inkscape:window-maximized="1"
     inkscape:current-layer="svg4" />
  <path
     id="path1-2"
     style="fill:#ffffff;fill-opacity:1;stroke-width:5.19973"
     d="M 37.982422 22.732422 C 23.543415 22.977257 11.980469 35.736242 11.980469 55.267578 C 11.980469 58.696627 14.410994 65.72334 15.5625 69.171875 L 29.146484 69.171875 C 32.535557 69.171875 33.181151 69.106675 33.716797 68.892578 C 34.252444 68.67896 34.766578 68.280552 37.220703 65.945312 L 45.175781 58.373047 L 51.935547 51.605469 L 58.220703 59.15625 L 76.693359 81.529297 C 77.071543 81.987716 77.381714 82.362511 77.654297 82.681641 C 77.941964 82.373426 78.267547 82.012624 78.666016 81.570312 L 84.019531 75.626953 L 84.410156 75.193359 C 86.306787 73.081092 87.990573 71.20633 90.285156 70.185547 C 92.579218 69.164684 95.098805 69.16742 97.9375 69.171875 L 98.521484 69.171875 L 112.4375 69.171875 C 113.58869 65.72334 116.01953 58.696734 116.01953 55.267578 C 116.01953 24.544686 87.407756 10.579039 64 35.714844 C 55.953512 27.074417 47.291386 23.055442 39.388672 22.748047 C 38.917203 22.729707 38.448196 22.724532 37.982422 22.732422 z M 85.099609 35.59375 C 85.099609 35.59375 86.502008 44.26844 89.535156 46.994141 C 92.568297 49.719837 101.3457 50.191406 101.3457 50.191406 C 101.3457 50.191406 92.670999 51.591867 89.945312 54.625 C 87.219615 57.658132 86.748047 66.435547 86.748047 66.435547 C 86.748047 66.435547 85.34368 57.760854 82.310547 55.035156 C 79.277415 52.309457 70.503906 51.837891 70.503906 51.837891 C 70.503906 51.837891 79.176643 50.433526 81.902344 47.400391 C 84.628041 44.367259 85.099609 35.59375 85.099609 35.59375 z " />
  <path
     d="m 18.987345,76.968634 c 7.183797,13.315479 18.640251,22.236912 29.20771,30.846576 6.928849,5.64553 11.491166,9.45632 15.804945,9.45632 4.094213,0 8.876094,-3.81079 15.805099,-9.45632 C 90.372349,99.205546 101.8288,90.284113 109.01271,76.968634 H 98.520688 c -3.76725,0 -4.481481,0.0785 -5.062538,0.337324 -0.580538,0.25831 -1.117379,0.736482 -3.638768,3.535337 l -5.487022,6.091472 -6.861378,7.079576 -6.669946,-7.36752 -18.480102,-22.380958 c -0.351288,-0.425149 -0.637136,-0.771303 -0.889378,-1.066527 -0.285744,0.262996 -0.61097,0.572245 -1.010687,0.952702 l -8.199063,7.802487 c -1.851687,1.767156 -3.494724,3.335236 -5.606821,4.179833 -2.112098,0.844071 -4.384262,0.840435 -6.945079,0.8368 z"
     fill="#1c274c"
     id="path2-5"
     style="fill:#ffffff;fill-opacity:1;stroke-width:5.19973"
     sodipodi:nodetypes="ccsccscccccccccccc" />
</svg>
