<?xml version="1.0" encoding="UTF-8" standalone="no"?>
<svg
   width="128"
   height="128"
   version="1.1"
   id="svg3"
   sodipodi:docname="loot-perk-combat-stims.svg"
   inkscape:version="1.4 (e7c3feb1, 2024-10-09)"
   xmlns:inkscape="http://www.inkscape.org/namespaces/inkscape"
   xmlns:sodipodi="http://sodipodi.sourceforge.net/DTD/sodipodi-0.dtd"
   xmlns="http://www.w3.org/2000/svg"
   xmlns:svg="http://www.w3.org/2000/svg">
  <defs
     id="defs3">
    <inkscape:path-effect
       effect="fillet_chamfer"
       id="path-effect1"
       is_visible="true"
       lpeversion="1"
       nodesatellites_param="C,0,0,1,0,5,0,1 @ C,0,0,1,0,5,0,1 @ F,0,0,1,0,0,0,1 @ F,0,0,1,0,0,0,1"
       radius="0"
       unit="px"
       method="auto"
       mode="F"
       chamfer_steps="1"
       flexible="false"
       use_knot_distance="true"
       apply_no_radius="true"
       apply_with_radius="true"
       only_selected="false"
       hide_knots="false" />
  </defs>
  <sodipodi:namedview
     id="namedview3"
     pagecolor="#ffffff"
     bordercolor="#000000"
     borderopacity="0.25"
     inkscape:showpageshadow="2"
     inkscape:pageopacity="0.0"
     inkscape:pagecheckerboard="0"
     inkscape:deskcolor="#d1d1d1"
     inkscape:zoom="1.7672441"
     inkscape:cx="44.136517"
     inkscape:cy="127.03395"
     inkscape:window-width="1920"
     inkscape:window-height="1022"
     inkscape:window-x="0"
     inkscape:window-y="128"
     inkscape:window-maximized="0"
     inkscape:current-layer="svg3" />
  <path
     d="m 42.39386,73.861776 -5.936408,5.936406 -0.89684,-0.896841 -5.015439,5.015439 14.127995,14.127995 5.015438,-5.01544 -0.896844,-0.896844 5.936407,-5.936407 z"
     fill="#ffcd1d"
     stroke="#323232"
     stroke-width="2.95955"
     stroke-linejoin="round"
     id="path1-2"
     style="fill:#ffffff;fill-opacity:1;stroke:none"
     sodipodi:nodetypes="ccccccccc" />
  <path
     id="path2-7"
     style="fill:#ffffff;fill-opacity:1;stroke:none;stroke-width:0.4995"
     d="m 80.702199,37.998151 a 2.997,2.997 0 0 0 -4.238398,10e-7 l -14.481192,14.481194 8.829996,8.829995 -2.825599,2.825598 -8.829995,-8.829996 -2.4724,2.472398 9.889595,9.889596 -3.178798,3.178799 -9.889596,-9.889595 -2.825598,2.825598 8.829995,8.829996 -2.825598,2.825598 -8.829995,-8.829995 -4.591599,4.591598 14.127994,14.127994 33.200784,-33.200784 a 2.997,2.997 0 0 0 10e-7,-4.2384 z" />
  <rect
     style="fill:#ffffff;fill-opacity:1;fill-rule:evenodd;stroke-width:0.45745"
     id="rect1"
     width="5.994"
     height="13.985999"
     x="87.929817"
     y="40.233185"
     rx="0"
     ry="0"
     transform="rotate(45)" />
  <path
     style="fill:#ffffff;fill-opacity:1;fill-rule:evenodd;stroke-width:1.11718"
     id="rect1-5"
     width="25"
     height="20"
     x="51.5"
     y="-25.999996"
     rx="0"
     ry="0"
     inkscape:path-effect="#path-effect1"
     sodipodi:type="rect"
     d="m 56.5,-25.999996 h 15 l 5,5 v 14.9999998 h -25 V -20.999996 Z"
     transform="matrix(0.25455844,0.25455844,-0.52979975,0.52979975,67.942458,28.064004)" />
  <rect
     style="fill:#ffffff;fill-opacity:1;fill-rule:evenodd;stroke-width:0.686521"
     id="rect1-8-2"
     width="5.4000001"
     height="34.965"
     x="88.22683"
     y="-69.157326"
     rx="0"
     ry="0"
     transform="rotate(45)" />
  <ellipse
     style="fill:none;fill-opacity:1;stroke:#ffffff;stroke-width:3.31543;stroke-linecap:square;stroke-linejoin:round;stroke-dasharray:none;stroke-opacity:1"
     id="path3"
     cx="90.926826"
     cy="60.604481"
     rx="7.0835328"
     ry="7.0835333"
     transform="rotate(45)" />
  <g
     id="g3"
     style="fill:#ffffff;fill-opacity:1"
     transform="matrix(0.1054704,0,0,0.1054704,101.50946,18.20938)">
    <path
       d="m 125.449,56.034 c -4.847,-6.451 -15.65,-6.451 -20.497,0 -6.802,9.071 -49.4856,90.061 -49.4856,135.672 0,42.351 17.3826,76.8 59.7336,76.8 42.351,0 59.7336,-34.449 59.7336,-76.8 0,-45.611 -42.6836,-126.601 -49.4846,-135.672 z"
       id="path2-9"
       sodipodi:nodetypes="ccsssc"
       style="fill:#ffffff;fill-opacity:1" />
  </g>
  <path
     d="m 55.763888,29.380689 c -5.969538,5.969536 -5.969538,12.96 -5.969538,12.96 0,0 0,-6.990464 -5.969522,-12.96 -5.969538,-5.969533 -12.96,-5.969531 -12.96,-5.969531 0,0 6.990462,-2e-6 12.96,-5.969536 5.969522,-5.969535 5.969522,-12.9599998 5.969522,-12.9599998 0,0 0,6.9904648 5.969538,12.9599998 5.969539,5.969534 12.960001,5.969536 12.960001,5.969536 0,0 -6.990462,-2e-6 -12.960001,5.969531 z"
     id="path2-1"
     inkscape:connector-curvature="0"
     style="fill:#ffffff;fill-opacity:1;stroke:none;stroke-width:2.72719"
     sodipodi:nodetypes="ccccccccc" />
  <path
     d="m 83.109143,109.24427 c -4.974614,4.97461 -4.974614,10.8 -4.974614,10.8 0,0 0,-5.82539 -4.974601,-10.8 -4.974615,-4.97461 -10.799999,-4.97461 -10.799999,-4.97461 0,0 5.825384,0 10.799999,-4.97461 4.974601,-4.97461 4.974601,-10.799995 4.974601,-10.799995 0,0 0,5.825385 4.974614,10.799995 4.974615,4.97461 10.800002,4.97461 10.800002,4.97461 0,0 -5.825385,0 -10.800002,4.97461 z"
     id="path2-1-7"
     inkscape:connector-curvature="0"
     style="fill:#ffffff;fill-opacity:1;stroke:none;stroke-width:2.27267"
     sodipodi:nodetypes="ccccccccc" />
</svg>
