<svg version="1.2" xmlns="http://www.w3.org/2000/svg" viewBox="0 0 811 811" width="128" height="128">
	<style>
		.s0 { fill: #323232 } 
		.s1 { fill: #7e7e7e } 
		.s2 { fill: #ffffff } 
	</style>
	<g id="Background">
		<path id="Path 0" class="s0" d="m712.85 98.31c-39.41 33.1-72.04 60.52-72.5 60.93-0.47 0.41-0.26 1.99 0.46 3.5 1.17 2.46 1.06 3.16-1 6.46-1.27 2.03-3.44 4.15-4.81 4.72-1.38 0.56-17.99 14.2-36.92 30.3-18.93 16.1-34.91 30.07-35.5 31.02-0.89 1.45-0.26 2.57 3.65 6.5 4.2 4.22 5.01 4.65 7.17 3.76 1.34-0.55 16.32-12.68 33.27-26.96 16.96-14.28 33.08-28.23 35.82-31 2.75-2.77 6.35-5.78 8-6.68 2.72-1.48 3.25-1.49 5.51-0.1 2.46 1.51 2.74 1.34 18-11.36 8.52-7.09 41.15-34.44 72.5-60.78 43.94-36.92 57-48.4 57-50.11 0-1.33-3.14-5.93-7.75-11.37-4.49-5.29-8.49-9.12-9.5-9.08-0.96 0.03-33.99 27.14-73.4 60.25zm-66.89 132.43c-0.75 0.23-1.27 1.06-1.16 1.84 0.11 0.78-0.7 2.32-1.8 3.42-1.43 1.43-2.86 1.86-5 1.5-2.51-0.42-3.23-0.05-4.4 2.25-0.77 1.51-4.14 5.34-7.5 8.5q-6.1 5.75-8.6 5.75c-1.38 0-3.74 0.62-5.25 1.38-1.51 0.76-3.31 2.11-4 3-1.01 1.31-0.97 2.15 0.18 4.37 0.78 1.51 1.12 3.2 0.75 3.75-0.37 0.55-2.48 2.42-4.68 4.16-2.84 2.25-4.43 2.9-5.5 2.27-0.83-0.5-2.31-0.91-3.3-0.91-0.98-0.01-2.9 1.11-4.25 2.48-1.35 1.38-2.46 2.16-2.48 1.75-0.02-0.41-0.7 0.15-1.52 1.25-0.82 1.1-1.48 1.66-1.47 1.25 0.01-0.41-2.46 0.82-5.48 2.75-3.02 1.93-5.95 3.5-6.5 3.5-0.55 0-1.34-1.15-1.75-2.56-0.73-2.49-1.15-2.21-15.5 10-8.66 7.38-14.96 13.49-15.25 14.81-0.28 1.24-1.67 3.38-3.1 4.75-1.42 1.38-3.56 2.57-4.74 2.67-1.19 0.09-2.5 0.2-2.91 0.25-0.41 0.04-1.14 1.32-1.61 2.83-0.47 1.51-0.58 3.5-0.25 4.43 0.34 0.92 3.2 4.63 6.36 8.25 4.75 5.43 6.23 6.53 8.5 6.32 2.12-0.19 2.98-0.98 3.75-3.46 0.55-1.76 2.46-4.57 4.25-6.25 1.86-1.74 3.04-3.68 2.75-4.54-0.32-0.95 0.14-1.51 1.25-1.52 0.96-0.01 2.65 0.62 3.75 1.4 1.76 1.24 1.85 1.73 0.75 4.02-0.69 1.43-1.02 3.28-0.75 4.1 0.38 1.14 1.41 1.35 4.25 0.87 2.06-0.35 5.21-1.47 7-2.5 1.79-1.03 3.25-2.55 3.25-3.37 0-0.89-0.61-1.3-1.5-1-0.83 0.27-1.5 0.05-1.5-0.5 0-0.55 1.8-3.25 4-6 2.95-3.69 4-5.92 4-8.5 0-2.71 0.73-4.12 3.23-6.25 1.78-1.51 4.59-4.15 6.25-5.86 1.66-1.71 11.91-10.14 22.77-18.75 10.86-8.6 19.98-16.09 20.25-16.64 0.27-0.55 2.75-2.8 5.5-5 2.75-2.2 6.01-3.99 7.25-3.97 1.24 0.01 3.37-1.16 4.75-2.6 1.37-1.45 4.08-3.38 6-4.3 3.24-1.55 3.48-1.96 3.17-5.65-0.19-2.38-1.2-4.88-2.5-6.22-1.19-1.23-3.56-2.63-5.26-3.1-1.69-0.47-3.7-0.66-4.45-0.42zm-107.88 5.26c-0.59 1.65-1.48 3-1.96 3-0.49 0-2.25 1.24-3.92 2.75-1.67 1.51-4.42 3.99-6.12 5.5-1.69 1.51-3.53 2.75-4.08 2.75-0.55 0-1.23 0.9-1.5 2-0.27 1.1-1.51 2.23-2.75 2.51-1.24 0.28-2.81 1.63-3.5 3-0.69 1.37-2.04 2.48-3 2.46-0.96-0.01-2.31 1.11-3 2.5-0.69 1.39-2.04 2.52-3 2.5-0.96-0.01-2.31 1.11-3 2.5-0.69 1.39-2.04 2.52-3 2.5-0.96-0.01-2.31 1.11-3 2.5-0.69 1.39-2.04 2.52-3 2.5-0.96-0.01-2.31 1.11-3 2.5-0.69 1.39-2.04 2.52-3 2.5-0.96-0.01-2.31 1.11-3 2.5q-1.25 2.54-3.75 2.53c-1.85 0-2.56 0.58-2.75 2.25-0.18 1.65-0.98 2.32-3 2.5-1.9 0.17-2.76 0.82-2.78 2.1-0.01 1.01-0.8 2.57-1.75 3.47-0.94 0.9-2.4 1.64-3.22 1.65-0.83 0.01-1.95 1.04-2.5 2.28-0.55 1.24-1.9 2.37-3 2.53-1.1 0.15-2.45 1.28-3 2.5-0.55 1.22-2.01 2.33-3.25 2.47q-2.25 0.25-2.25 2.25c0 1.39-0.92 2.23-3.02 2.75-1.95 0.48-3.02 1.38-3 2.5 0.01 1.12-1.06 2.02-3 2.5-1.95 0.48-3.02 1.38-3 2.5 0.01 1.01-1.24 2.28-2.99 3-1.65 0.69-3 1.81-3 2.5 0.01 0.69-1.34 1.81-3 2.5-1.65 0.69-3 1.81-3 2.5 0.01 0.69-1.33 1.81-2.96 2.5-1.63 0.69-3.43 2.26-4 3.5-0.57 1.24-1.82 2.24-2.78 2.22-0.96-0.01-2.31 1.11-3 2.5-0.69 1.39-2.04 2.52-3 2.5-0.96-0.01-2.31 1.11-3 2.5-0.69 1.39-2.04 2.52-3 2.5-0.96-0.01-2.31 1.11-3 2.5-0.69 1.39-2.04 2.52-3 2.5-0.96-0.01-2.31 1.11-3 2.5-0.71 1.45-2.11 2.53-3.25 2.53-1.11 0-2 0.67-2 1.5 0 0.82-0.79 2.21-1.75 3.07-0.96 0.87-2.31 1.32-3 1-0.77-0.35-1.44 0.39-1.75 1.93q-0.5 2.5-3 3c-1.4 0.28-2.72 1.38-3 2.5-0.27 1.1-1.51 2.23-2.75 2.51-1.24 0.28-2.81 1.63-3.5 3-0.69 1.37-2.04 2.48-3 2.46-0.96-0.01-2.31 1.11-3 2.5-0.69 1.39-2.04 2.52-3 2.5-0.96-0.01-2.31 1.11-3 2.5-0.69 1.39-2.04 2.52-3 2.5-0.96-0.01-2.31 1.11-3 2.5-0.69 1.39-2.04 2.52-3 2.5-0.96-0.01-2.31 1.11-3 2.5-0.69 1.39-2.04 2.52-3 2.5-0.96-0.01-2.31 1.11-3 2.5q-1.25 2.54-3.75 2.53c-1.72 0-2.49 0.55-2.48 1.75 0.01 0.96-0.53 2.31-1.2 3-0.67 0.69-2.03 1.25-3.02 1.25-1.13 0-1.8 0.74-1.8 2 0 1.39-0.92 2.23-3.02 2.75-1.95 0.48-3.02 1.38-3 2.5 0.01 1.01-0.93 1.97-2.23 2.26-1.24 0.28-2.81 1.63-3.5 3-0.69 1.37-2.04 2.48-3 2.46-0.96-0.01-2.31 1.11-3 2.5-0.69 1.39-2.04 2.52-3 2.5-0.96-0.01-2.31 1.11-3 2.5q-1.25 2.54-3.75 2.53c-1.85 0-2.56 0.58-2.75 2.25-0.18 1.65-0.98 2.32-3 2.5-2 0.18-2.75 0.8-2.75 2.25 0 1.25-1.03 2.41-2.75 3.1-1.51 0.61-3.2 2.07-3.75 3.25-0.55 1.18-1.9 2.27-3 2.43-1.1 0.15-2.45 1.28-3 2.5-0.55 1.22-1.9 2.34-3 2.5-1.1 0.15-2.45 1.28-3 2.5-0.55 1.22-2.01 2.33-3.25 2.47-1.36 0.15-2.27 0.94-2.29 2-0.02 0.96-0.81 2.3-1.75 2.97-0.94 0.67-2.5 1.23-3.46 1.25-0.96 0.02-1.75 0.71-1.75 1.53 0 0.82-1.22 2.29-2.71 3.25-1.48 0.96-3.71 2.76-4.95 4-1.24 1.24-2.72 2.25-3.29 2.25-0.58 0-1.28 0.9-1.55 2-0.28 1.1-1.51 2.23-2.75 2.51-1.24 0.28-2.81 1.63-3.5 3-0.69 1.37-2.04 2.48-3 2.46-0.96-0.01-2.31 1.11-3 2.5-0.69 1.39-2.04 2.52-3 2.5-0.96-0.01-2.31 1.11-3 2.5-0.69 1.39-2.04 2.52-3 2.5-0.96-0.01-2.31 1.11-3 2.5-0.69 1.39-2.04 2.52-3 2.5-0.96-0.01-2.31 1.11-3 2.5-0.69 1.39-2.04 2.52-3 2.5-0.96-0.01-2.31 1.11-3 2.5-0.69 1.39-2.15 2.76-3.25 3.03-1.99 0.5-1.99 0.51 0.03 3.25 1.12 1.51 2.02 3.76 2 5-0.01 1.24 0.47 3.26 1.09 4.5 1.01 2.04 0.49 2.86-5.54 8.75-3.67 3.58-8.22 8.08-10.12 10-2.02 2.05-3.47 4.54-3.5 6-0.03 1.38 0.67 3.17 1.56 4 0.88 0.83 2.02 3.08 2.53 5 0.71 2.67 0.51 4.54-0.81 7.88-1.43 3.58-5.17 7.38-20.68 21-10.42 9.14-23.47 20.6-29 25.47-5.53 4.87-13.32 11.51-17.31 14.75-4.54 3.69-8.19 5.9-9.75 5.9-1.38 0-4.3-0.9-6.5-2-2.2-1.1-4.3-2.79-4.67-3.75-0.49-1.29 0.79-3.06 4.85-6.75 3.03-2.75 7.36-7.25 9.62-10 2.26-2.75 4.15-5.9 4.2-7 0.06-1.22-1.68-3.46-4.45-5.75-2.5-2.06-5.23-3.75-6.05-3.75-0.83 0-15.11 10.65-31.75 23.67-16.64 13.02-35.09 27.42-41 32-6.28 4.86-10.76 9.06-10.78 10.08-0.02 0.96 1.56 3.89 3.5 6.5 1.94 2.61 4.32 5.18 5.28 5.71 1.3 0.71 3.61 0.07 9-2.5 6.44-3.08 7.42-3.29 8.75-1.96 0.82 0.83 1.5 2.17 1.5 3 0 0.83-2.45 3.41-5.44 5.75-2.99 2.34-5.7 4.92-6.02 5.75-0.39 0.99 1.71 3.6 6.19 7.7l6.77 6.2c-3.1 3.23-4.45 4.15-5 4.13-0.55-0.02-5.73-4.45-11.5-9.85-5.78-5.4-11.29-10.12-12.25-10.5-0.96-0.37-3.1-0.01-4.75 0.82-1.65 0.83-8.51 6.7-15.25 13.06-6.74 6.35-12.4 12.09-12.58 12.75-0.18 0.65 7.26 8.84 16.53 18.19 9.27 9.35 19.58 20.38 22.9 24.5 3.32 4.13 10.17 13.01 15.22 19.75 6.39 8.52 9.79 12.25 11.18 12.25 1.29 0 4.05-2.58 7.75-7.25 3.16-3.99 8.74-9.95 12.39-13.25 5.06-4.58 6.78-6.83 7.24-9.5 0.34-1.92 0.83-4.62 1.1-6 0.27-1.37 1.5-3.52 2.75-4.78 1.25-1.25 2.94-2.27 3.77-2.28 0.82 0 2.4 0.92 3.5 2.06 1.1 1.14 2.79 2.05 3.75 2.03 1.06-0.02 1.85-0.91 2-2.28 0.22-1.94 0.77-2.22 4-2 3.74 0.25 3.75 0.24 3.06-3-0.69-3.23-0.68-3.25 2.5-2.5 3.12 0.73 3.18 0.68 2.94-2.5-0.24-3.15-0.14-3.24 3.25-2.93 3.07 0.28 3.34 0.13 2.25-1.25-0.88-1.11-0.96-2.15-0.25-3.57 0.69-1.37 1.84-1.92 3.66-1.75 2.19 0.21 2.8-0.28 3.5-2.75 0.46-1.65 3.2-5.37 6.09-8.27 4.38-4.4 5.07-5.55 4.15-7-0.61-0.95-2.18-1.86-3.5-2.01-1.32-0.15-3.3-0.47-4.4-0.7-1.1-0.23-4.52-3.48-7.59-7.22-3.08-3.74-6.16-7.92-6.85-9.3-0.7-1.37-0.99-3.51-0.66-4.75 0.33-1.24 10.49-11.01 22.6-21.75 12.1-10.73 23.12-21.19 24.48-23.25 1.36-2.06 4.06-4.99 6-6.5 1.94-1.51 4.98-3.03 6.77-3.37 3.04-0.59 3.36-0.37 4.89 3.25 0.9 2.13 2.42 7.7 3.38 12.37 0.95 4.67 2.52 10.75 3.47 13.5 0.95 2.75 3.78 10.17 6.29 16.5 2.51 6.33 5.32 14.42 6.26 18 1.02 3.89 2.65 7.4 4.08 8.75 1.31 1.24 3.5 2.25 4.88 2.25 1.37 0 6.21-1.18 10.75-2.62 4.54-1.45 10.05-3.86 12.25-5.38 2.2-1.51 5.83-4.71 8.06-7.12 2.23-2.41 5.28-6.18 6.77-8.38 1.82-2.68 2.79-5.49 2.92-8.5 0.15-3.65-0.42-5.35-3.02-9-2.11-2.95-3.57-6.56-4.26-10.5-0.68-3.87-1.93-6.98-3.51-8.75-1.7-1.9-2.45-3.91-2.44-6.5 0.01-2.34-0.84-4.92-2.25-6.86-1.83-2.5-2.22-4.21-2.02-8.75l0.25-5.64c14.34-14.91 19.17-20.2 20-21.37 0.82-1.17 1.72-4.83 2-8.13 0.44-5.31 0.76-6.03 2.75-6.25 2.15-0.24 2.2-0.42 1-4.25-1.14-3.65-1.07-4.14 0.75-5.47 1.1-0.81 2.45-1.46 3-1.45 0.55 0.01 3.59 3.37 6.75 7.47 3.16 4.1 6.42 7.45 7.25 7.45 0.82 0 13.44-11.81 28.04-26.25 14.6-14.44 26.52-26.7 26.49-27.25-0.04-0.55-5.42-6.4-11.97-13-11.64-11.74-11.89-12.08-11.2-15.5 0.6-2.96 2.92-5.34 15.08-15.5 12.68-10.59 14.71-12.71 17.23-18 1.56-3.3 3.89-7.35 5.17-9 1.49-1.92 2.18-3.9 1.9-5.5-0.23-1.37 0.18-3.02 0.92-3.65 0.74-0.64 2.36-1.31 3.6-1.5 1.25-0.19 48.4-39.95 104.79-88.35 56.39-48.4 102.51-88.34 102.49-88.75-0.02-0.41-0.94-0.75-2.04-0.75-1.1 0-3.24 0.92-4.75 2.03-1.51 1.12-3.31 2.02-4 2-0.69-0.01-1.47-0.37-1.73-0.78-0.27-0.41 1.31-3.56 3.5-7 2.19-3.44 3.99-6.81 3.99-7.5 0.01-0.69-2.35-3.61-5.25-6.49-2.89-2.88-5.93-5.23-6.76-5.22-0.83 0.01-3.3 1.5-5.5 3.31-2.2 1.81-4.56 3.6-5.25 3.97-0.69 0.37-1.7 0-2.25-0.82-0.75-1.12-0.18-2.56 2.29-5.75 1.82-2.34 3.62-4.81 4-5.5 0.39-0.69-0.19-2.37-1.29-3.75-1.1-1.37-2.86-2.5-3.92-2.5-1.23 0-2.31 1.08-3 3z"/>
		<path id="Path 1" class="s1" d="m549.37 256.75c-0.26 0.96-0.34 2.19-0.17 2.73 0.16 0.53 1.09 1.1 2.05 1.25 0.96 0.15 2.2-0.41 2.75-1.23 0.55-0.82 0.77-2.18 0.5-3-0.27-0.82-1.43-1.5-2.58-1.5-1.14 0-2.29 0.79-2.55 1.75zm-23.65 2c-0.34 0.41-0.42 1.31-0.17 2 0.25 0.69 1.12 1.25 1.95 1.25 0.83 0 1.65-0.63 1.83-1.4 0.18-0.77 0.07-1.69-0.25-2.03-0.32-0.34-1.07-0.61-1.66-0.6-0.6 0.02-1.36 0.37-1.7 0.78zm-4.67 20.91c-0.8 0.28-1.36 1.37-1.25 2.42 0.11 1.06-0.36 1.9-1.05 1.88-0.89-0.04-0.82 0.41 0.25 1.54 0.83 0.87 2.74 1.57 4.25 1.54 1.72-0.02 3.12-0.79 3.75-2.04 0.55-1.1 0.89-2.56 0.75-3.25-0.14-0.69-0.7-1.58-1.25-1.98-0.55-0.41-1.67-0.71-2.5-0.68-0.83 0.04-2.15 0.29-2.95 0.57zm-30.75 26.69c0.36 1.73 1.23 3.75 1.93 4.48 0.73 0.76 2.23 1.08 3.52 0.75 1.28-0.33 2.38-1.49 2.56-2.69 0.17-1.16-0.3-2.85-1.04-3.75-0.75-0.9-2.77-1.71-4.5-1.79-3.01-0.15-3.11-0.03-2.47 3zm-27.19 22.2c-1.45 0.99-2.03 2.34-1.86 4.27 0.21 2.34 0.75 2.85 3.25 3.05 1.65 0.13 3.5-0.35 4.11-1.07 0.6-0.71 1.39-2.31 1.75-3.55 0.35-1.24 0.3-2.15-0.11-2.04-0.41 0.12-1.71-0.31-2.89-0.95-1.7-0.92-2.59-0.86-4.25 0.29zm-29.11 26.65c-0.77 0.66-1.31 2.01-1.2 3q0.2 1.8 2.7 1.8 2.5 0 3.38-2.25c0.49-1.24 0.71-2.59 0.5-3-0.21-0.41-1.19-0.75-2.18-0.75-0.99 0-2.43 0.54-3.2 1.2zm-25.93 23.55c-0.04 0.69-1.08 1.45-2.32 1.69-1.79 0.35-2.1 0.86-1.5 2.5 0.54 1.49 0.4 1.88-0.5 1.41q-1.31-0.69-0.25 0.53c0.72 0.85 1.76 0.89 3.75 0.15 1.51-0.57 2.72-1.59 2.68-2.28-0.04-0.69-0.46-2.15-0.93-3.25-0.47-1.1-0.89-1.44-0.93-0.75zm-246.43 240.95c-0.96 0.99-1.75 3.15-1.75 4.8 0 1.65 0.81 3.8 1.8 4.78 1 0.98 3.02 1.77 4.49 1.75 1.47-0.02 3.38-0.7 4.25-1.53 0.86-0.83 1.84-2.51 2.16-3.75 0.37-1.43-0.12-3.16-1.35-4.75-1.12-1.45-3.18-2.63-4.89-2.8-1.85-0.18-3.62 0.38-4.71 1.5z"/>
		<path id="Path 2" fill-rule="evenodd" class="s2" d="m534.53 267.11c-5.33 4.46-9.66 8.29-9.61 8.5 0.04 0.22 0.53 1.29 1.08 2.39 0.55 1.1 1.79 1.98 2.75 1.96 0.96-0.02 5.88-3.51 10.92-7.75 5.04-4.24 9.43-8.39 9.75-9.21 0.32-0.83 0.02-2.08-0.67-2.79-0.69-0.72-1.98-1.28-2.88-1.25-0.9 0.02-6 3.69-11.34 8.15zm-23.37 6.89c-4.49 3.85-7.93 7.23-7.66 7.5 0.28 0.27 1.33-0.06 2.35-0.75 1.02-0.69 4.82-3.73 8.44-6.75 3.63-3.02 6.62-5.84 6.65-6.25 0.03-0.41-0.32-0.75-0.78-0.75-0.46 0-4.51 3.15-9 7zm3.04 9.25c-0.75 0.9-0.23 2.15 1.88 4.5 1.61 1.79 3.37 3.25 3.92 3.25 0.55 0 1.23-0.45 1.5-1 0.28-0.55-0.74-2.57-2.25-4.5-1.51-1.92-3.04-3.5-3.39-3.5-0.35 0-1.1 0.56-1.66 1.25zm15.28 9.38c-4.39 3.72-8.3 7.24-8.7 7.82-0.39 0.58-0.28 1.16 0.25 1.3 0.53 0.14 4.23-2.53 8.22-5.93 3.99-3.4 7.63-6.44 8.09-6.75 0.46-0.31 0.68-1.16 0.48-1.88-0.23-0.82-3.37 1.23-8.34 5.44zm-21.28-4.38c-0.75 0.9-0.23 2.15 1.88 4.5 1.61 1.79 3.37 3.25 3.92 3.25 0.55 0 1.23-0.45 1.5-1 0.28-0.55-0.74-2.57-2.25-4.5-1.51-1.92-3.04-3.5-3.39-3.5-0.35 0-1.1 0.56-1.66 1.25zm-21.62 6.75c-1.42 1.65-3.03 3-3.58 3-0.55 0-1.79 1.05-2.75 2.33-0.96 1.28-2.76 2.85-4 3.5-1.32 0.68-1.98 1.69-1.59 2.42 0.45 0.86 1.54 0.24 3.5-2 1.56-1.79 3.29-3.25 3.84-3.25 0.55 0 1.9-1.13 3-2.5 1.1-1.38 2.34-2.49 2.75-2.47 0.41 0.02 1.57-0.88 2.58-2 1.48-1.65 1.55-2.03 0.33-2.03-0.82 0-2.66 1.35-4.08 3zm15.77-1.25q-0.59 1.75 2.51 4.75c2.45 2.36 3.38 2.74 4.37 1.79 1.02-0.96 0.72-1.91-1.48-4.75-1.51-1.95-3.21-3.54-3.77-3.54-0.57 0-1.3 0.79-1.63 1.75zm-6.22 4.5c-0.81 0.94-0.22 2.12 2.39 4.75 2.74 2.75 3.75 3.24 4.73 2.29 0.99-0.95 0.69-1.93-1.5-4.75-1.51-1.95-3.15-3.54-3.64-3.54-0.49 0-1.38 0.56-1.98 1.25zm-11.58 9.75c-0.3 0.55 0.58 2.57 1.95 4.5 1.38 1.92 3.02 3.39 3.65 3.25 0.63-0.14 1.33-0.7 1.56-1.25 0.22-0.55-0.75-2.46-2.15-4.25-1.41-1.79-2.99-3.25-3.51-3.25-0.52 0-1.2 0.45-1.5 1zm14.95 10.01c-4.4 3.83-8.18 7.75-8.41 8.73-0.37 1.6-0.23 1.62 1.58 0.26 1.1-0.83 5.45-4.43 9.67-8 4.23-3.58 7.68-6.84 7.67-7.25-0.01-0.41-0.57-0.74-1.26-0.73-0.69 0.02-4.85 3.16-9.25 6.99zm-20.95-5.01c-0.3 0.55 0.69 2.6 2.2 4.55 1.51 1.95 3 3.52 3.3 3.5 0.3-0.03 1.09-0.61 1.75-1.3 0.94-0.98 0.5-1.95-2.05-4.52-1.79-1.8-3.57-3.26-3.95-3.25-0.39 0.01-0.95 0.47-1.25 1.02zm-19.64 5.42c-1.33 1.34-3.91 3.81-5.74 5.5-1.83 1.7-3.63 3.06-4 3.04-0.37-0.03-1.34 0.67-2.17 1.54-1.07 1.13-1.14 1.58-0.25 1.54 0.69-0.02 2.6-1.39 4.25-3.04 1.65-1.65 3.45-3 4-3 0.55 0 1.97-1.03 3.16-2.29 1.18-1.26 2.76-2.61 3.5-3 0.74-0.39 1.34-1.16 1.34-1.71 0-0.55-0.38-1-0.84-1-0.47 0-1.93 1.09-3.25 2.42zm13.64-0.42c-0.3 0.55 0.69 2.46 2.2 4.25 1.51 1.78 2.85 3.47 2.98 3.75 0.12 0.27 0.91-0.06 1.75-0.75 1.34-1.1 1.19-1.67-1.23-4.75-1.51-1.92-3.29-3.5-3.95-3.5-0.66 0-1.45 0.45-1.75 1zm-5.96 4.75c-0.27 0.41 0.83 2.44 2.45 4.5 1.81 2.29 3.54 3.56 4.46 3.25 0.83-0.27 1.51-1.06 1.52-1.75 0.01-0.69-1.22-2.48-2.75-3.98-1.52-1.5-3.31-2.74-3.97-2.75-0.66-0.01-1.43 0.32-1.71 0.73zm-19.26 19.04c-5.04 4.24-9.43 8.38-9.76 9.21-0.33 0.82 0.2 2.3 1.17 3.28 0.97 0.98 2.32 1.77 3.01 1.75 0.69-0.02 5.54-3.74 10.79-8.28 5.24-4.54 9.52-8.93 9.51-9.75-0.01-0.83-0.59-2.07-1.28-2.77-0.7-0.69-1.94-1.24-2.77-1.21-0.82 0.03-5.63 3.52-10.67 7.77zm23.42 0.76c-4.81 4.1-8.75 7.9-8.75 8.45 0 0.55 0.34 1.02 0.75 1.04 0.41 0.02 4.69-3.35 9.5-7.5 4.81-4.15 8.75-7.99 8.75-8.54 0-0.55-0.34-0.98-0.75-0.95-0.41 0.03-4.69 3.4-9.5 7.5zm-52.68 24.06c-5.73 4.73-10.33 9-10.24 9.5 0.09 0.49 0.62 1.79 1.17 2.89 0.55 1.1 1.68 2 2.5 2 0.83 0 6.01-3.94 11.52-8.75 5.51-4.81 10.02-9.43 10.02-10.25 0-0.83-0.58-2.07-1.27-2.77-0.7-0.69-1.72-1.26-2.28-1.25-0.56 0.01-5.7 3.89-11.42 8.63zm23.49 0.93c-4.92 4.16-8.86 7.98-8.75 8.51 0.1 0.52 0.61 0.84 1.12 0.7 0.51-0.14 4.79-3.51 9.5-7.5 4.71-3.99 8.57-7.7 8.57-8.25 0-0.55-0.34-1-0.75-1-0.41-0.01-4.77 3.39-9.69 7.54zm-38.56-0.82c-0.82 0.31-4.42 3.06-8 6.1-3.57 3.05-6.95 5.91-7.5 6.35-0.55 0.44-0.66 1.03-0.25 1.31 0.41 0.29 4.58-2.63 9.25-6.48 4.68-3.85 8.5-7.23 8.5-7.5 0-0.27-0.11-0.46-0.25-0.42-0.14 0.04-0.92 0.33-1.75 0.64zm-12.18 22.53c-4.58 3.99-9.89 8.36-11.82 9.71-1.92 1.35-6.09 4.72-9.26 7.5-3.17 2.77-5.77 5.27-5.78 5.54-0.01 0.27 1.12 1.06 2.51 1.75 1.39 0.69 2.76 2.37 3.03 3.75l0.5 2.5c6.54-5.04 10.7-8.75 13.47-11.51 2.77-2.75 8.74-8.26 13.28-12.25 4.54-3.98 8.26-7.8 8.27-8.49 0.01-0.69-0.89-2.26-2-3.5-1.11-1.24-2.44-2.25-2.95-2.25-0.51 0-4.67 3.26-9.25 7.25zm22.54 2.41c-4.87 4.18-8.97 8.21-9.11 8.97-0.14 0.75-0.02 1.37 0.25 1.37 0.28 0 4.21-3.2 8.75-7.1 4.54-3.91 8.93-7.68 9.75-8.39 1.05-0.9 1.16-1.46 0.36-1.87-0.63-0.32-5.13 2.84-10 7.02zm-63.36 31.01c-3.03 2.56-9.18 8.3-13.68 12.75-5.28 5.22-7.98 8.61-7.63 9.58 0.31 0.82 0.27 2.51-0.07 3.75-0.34 1.24-5.91 6.55-12.37 11.81-6.46 5.26-12.65 11.04-13.75 12.85-1.1 1.81-5.83 6.62-10.51 10.69-4.68 4.07-21.33 18.17-37 31.32-15.67 13.16-28.71 24.08-28.99 24.28-0.27 0.19 0.71 2.92 2.19 6.07 1.48 3.15 2.92 6.85 3.2 8.23 0.28 1.37 1.77 3.24 3.31 4.15 2.76 1.62 2.87 1.59 6.86-2 2.23-2.01 5.49-3.99 7.25-4.4 1.75-0.41 5.78-0.28 8.94 0.29 3.16 0.58 6.43 0.82 7.25 0.54 0.83-0.28 2.43-1.54 3.57-2.79 1.13-1.26 4.28-8.09 7-15.18l4.93-12.89c22.78-20.59 23.51-21.49 24.06-25.72 0.33-2.48 1.34-5.94 2.27-7.7 0.92-1.76 7.07-7.64 13.67-13.06 6.6-5.41 12-10.5 12.01-11.29 0-0.8 3.36-5.5 7.46-10.45 4.09-4.95 9.71-11.73 12.49-15.08 2.77-3.34 6.55-7.39 8.39-9l3.36-2.92c-5.41-2.18-6.32-3.27-6.63-5.5-0.24-1.65-0.8-3-1.25-3-0.46 0-3.31 2.1-6.33 4.67zm-40.44 15.4c-1.96 1.48-2.72 2.91-2.66 5 0.06 1.61 0.21 2.94 0.35 2.95 0.14 0.01 1.6-0.62 3.25-1.41 1.65-0.79 3.56-2.15 4.25-3.02 1-1.27 1-1.99 0-3.59-0.69-1.11-1.52-2.01-1.85-2-0.33 0-1.83 0.93-3.34 2.07zm-33.72 29.81c-0.82 0.34-10.12 8.04-20.67 17.12-10.56 9.07-19.36 16.95-19.55 17.5-0.2 0.55 0.03 2.01 0.51 3.25 0.48 1.24 1.55 2.25 2.37 2.25 0.83 0 11.18-8.1 23-18 18.69-15.65 21.34-18.21 20.25-19.62-0.69-0.89-1.97-1.95-2.84-2.37-0.87-0.41-2.26-0.47-3.07-0.13zm31.13 52.07l-4.47 3.91 11 11.17 8.5-8.53-10.56-10.46zm-11.66 10.28c-0.55 0.7-2.24 4.42-3.76 8.27-1.52 3.85-3.57 9.02-4.55 11.5-1.75 4.38-1.74 4.56 0.16 7l1.94 2.5c13.88-13.95 17.89-18.23 17.86-18.5-0.03-0.28-2.44-3.1-5.36-6.27-4-4.35-5.55-5.45-6.29-4.5zm-78.15 17.85c-1.19 1.05-2.16 2.14-2.16 2.42 0 0.27 0.92 1.73 2.03 3.25 1.12 1.51 2.03 3.42 2.03 4.25-0.01 0.82-1.71 6.16-3.79 11.85l-3.77 10.35c-31.78 28.02-41.23 36.31-41.5 36.49-0.28 0.19-0.05 0.79 0.5 1.35 0.67 0.68 2.48-0.27 5.5-2.88 2.47-2.14 6.3-5.09 8.5-6.56 2.24-1.49 5.32-2.63 7-2.59 2.05 0.04 3.95 1.1 6 3.33 1.65 1.79 4.45 5.94 6.21 9.21 2.1 3.87 4.06 9.96 5.64 17.45 1.5 7.13 4.51 16.62 7.94 25 3.04 7.42 6.02 15.41 6.62 17.75 0.6 2.33 1.43 4.45 1.84 4.69 0.41 0.24 3-0.6 5.75-1.88 2.75-1.28 6.6-4.07 8.55-6.19 1.96-2.13 4.1-4.55 4.76-5.37 0.97-1.21 0.71-2.49-1.3-6.5-1.37-2.75-2.86-7.03-3.29-9.5-0.44-2.48-1.81-5.85-3.04-7.5-1.24-1.65-2.5-4.58-2.79-6.5-0.3-1.93-1.94-6.43-3.65-10-2.83-5.91-3.01-6.87-2.01-10.5 0.6-2.2 1.36-4.9 1.68-6 0.44-1.52-2.05-5.13-10.37-15l-10.95-13c13.14-11.98 15.65-14.94 15.16-15.75-0.41-0.69-0.75-4.86-0.75-9.26 0-6.46-0.41-8.63-2.09-11.17-2.08-3.14-2.1-3.14-4.25-1.24zm27.46 26.21l-7.88 7.21c1.89 6.26 3.16 7.9 5.01 8.73 1.51 0.67 3.07 1.68 3.46 2.25 0.39 0.56 0.39 1.39 0 1.85-0.39 0.46-2.42 0.01-4.52-1-2.38-1.15-4.34-3.05-5.25-5.08-0.79-1.79-1.89-3.03-2.44-2.75-0.55 0.27-1 0.95-1 1.5 0 0.55 2.14 3.66 4.75 6.93 2.61 3.26 5.2 5.96 5.75 6.01 0.55 0.04 3.52-2.52 6.61-5.68 3.08-3.17 6.34-6.89 7.25-8.26 1.14-1.73 1.66-4.68 1.66-9.5 0.01-4.33-0.47-7.49-1.25-8.27-0.7-0.7-1.95-1.24-2.77-1.21-0.83 0.03-5.05 3.3-9.38 7.27zm-95.84 53.6c-2.16 0.35-5.52 2.12-8 4.21-2.71 2.28-4.92 5.31-6.03 8.25l-1.75 4.65c4.97 6.19 6.23 6.87 9.25 6.92 3.23 0.07 4.71-0.79 10.74-6.17 5.27-4.71 7.12-7.05 7.5-9.5 0.35-2.25-0.11-4.18-1.49-6.25-1.32-1.98-2.77-2.96-4.25-2.86-1.24 0.08-3.92 0.41-5.97 0.75zm-52.28 13.46q-5 4.31-3.75 4.98c0.69 0.37 1.87 0.33 2.62-0.08 0.75-0.42 3-2.22 5-4 2-1.79 3.4-3.7 3.13-4.25-0.28-0.55-0.84-0.99-1.25-0.98-0.41 0.01-3 1.96-5.75 4.33zm-2 26.7c-10.45 8.8-19.11 16.66-19.25 17.47-0.14 0.81 0.31 1.81 1 2.21 0.69 0.4 3.05 0.74 5.24 0.75 3.55 0.01 4.11 0.35 5 3.04 0.74 2.22 1.54 2.93 3.01 2.7 1.1-0.18 3.01 0.37 4.25 1.23 1.24 0.85 2.05 2.11 1.81 2.8-0.24 0.68 0.1 1.8 0.75 2.47 0.92 0.95 0.79 1.63-0.58 3-1.6 1.6-1.63 1.93-0.24 3.28 1.38 1.33 1.74 1.31 3.28-0.23 0.95-0.95 2.29-1.73 2.98-1.75 0.69-0.01 1.47 0.43 1.75 0.98 0.27 0.55-0.51 1.84-1.75 2.88-2.02 1.69-2.09 2.06-0.75 3.53 1.33 1.45 1.67 1.47 3 0.14 0.82-0.83 2.06-1.51 2.75-1.53 0.69-0.01 1.47 0.43 1.75 0.98 0.27 0.55-0.29 1.62-1.25 2.39-1.56 1.24-1.59 1.57-0.25 3.02 1.35 1.47 1.68 1.48 3.25 0.11 1.04-0.91 1.95-1.12 2.25-0.52 0.27 0.55 0.27 1.45 0 2-0.28 0.55-0.28 1.45 0 2 0.27 0.55 3.54-1.82 7.25-5.25 3.71-3.44 6.86-6.59 7-7 0.14-0.42-1.93-3.34-4.59-6.5-2.67-3.17-5.76-7.55-6.88-9.75-1.12-2.2-2.36-5.58-2.75-7.5-0.4-2.02-0.17-5.63 0.55-8.5 0.87-3.46 2.58-6.4 5.51-9.5l4.25-4.5c-5.86-8.14-7.96-10.49-8.45-10.47-0.49 0.02-9.44 7.23-19.89 16.02zm-16.8-10.81c-3.06 2.75-4.46 4.7-3.97 5.5 0.56 0.9 2.22 0.06 5.96-3 2.85-2.33 5.06-4.69 4.9-5.24-0.16-0.55-0.71-1.12-1.23-1.26-0.51-0.14-3.06 1.66-5.66 4zm-47.25 46.77l-4.95 5c14.88 15.1 22.53 23.31 26.6 27.99 4.07 4.67 10.1 12 13.4 16.29l6 7.79c8.16-8.2 10.52-10.92 10.51-11.33 0-0.42-2.65-4.02-5.88-8-3.23-3.99-8.73-10.4-12.23-14.25-5.27-5.81-6.82-6.96-9.12-6.75-1.53 0.13-3.75-0.32-4.93-1-1.83-1.06-2.06-1.83-1.5-5 0.6-3.46 0.36-3.99-3.1-6.81-2.06-1.68-5.12-4.38-6.8-6l-3.05-2.93zm41.04 4.41c-1.93 1.43-1.87 1.59 2.25 5.77 4.05 4.11 4.32 4.22 6 2.54 1.68-1.68 1.58-1.94-2.25-5.77-3.7-3.69-4.16-3.89-6-2.54zm16.24 17.53c-1.65 1.94-1.64 2.18 0.14 4.79 1.03 1.52 2.63 3.43 3.56 4.25 1.5 1.35 1.9 1.27 3.87-0.75l2.2-2.26c-8-8.05-8.04-8.06-9.77-6.03z"/>
		<path id="Path 3" class="s0" d="m346.94 431.28c-1.95 1.77-4.99 4.46-6.75 5.97-1.75 1.51-2.96 3.2-2.69 3.75 0.27 0.55 0.95 1 1.5 1 0.55 0 3.81-2.34 7.25-5.2 3.44-2.86 6.56-5.67 6.93-6.25 0.38-0.58 0.49-1.39 0.25-1.8-0.23-0.41-0.99-0.74-1.68-0.72-0.69 0.01-2.85 1.47-4.81 3.25zm-245.94 255.39c-1.37 0.87-2.39 2.19-2.25 2.95 0.14 0.76 0.7 1.61 1.25 1.88 0.55 0.28 2.34-0.51 3.98-1.75 2.38-1.8 2.73-2.51 1.75-3.54-0.68-0.72-1.45-1.26-1.73-1.2-0.28 0.05-1.62 0.8-3 1.66zm4.39 5.73c-2.59 2.21-2.73 2.64-1.39 4.05 1.36 1.43 1.76 1.32 4.29-1.19 2.36-2.34 2.57-2.96 1.39-4.05-1.16-1.06-1.91-0.86-4.29 1.19zm4.28 4.78c-2.38 1.99-2.59 2.56-1.47 4.02 1.2 1.57 1.52 1.51 4.3-0.73 2.71-2.19 2.85-2.58 1.47-4.02-1.41-1.46-1.78-1.4-4.3 0.73zm4.8 5.37c-2.65 2.15-2.81 2.57-1.47 3.95 1.35 1.4 1.8 1.3 4.5-0.95 2.68-2.24 2.83-2.67 1.47-3.96-1.35-1.28-1.9-1.16-4.5 0.96zm4.31 5.26c-0.95 0.93-1.74 2.25-1.75 2.94-0.02 0.69 0.42 1.48 0.97 1.75 0.55 0.28 2.35-0.4 4-1.5 2.52-1.68 2.8-2.25 1.75-3.54-0.69-0.85-1.7-1.5-2.25-1.45-0.55 0.06-1.77 0.87-2.72 1.8z"/>
		<path id="Path 4" class="s2" d="m163.74 623.2c-0.31 0.71-0.27 1.9 0.1 2.62 0.36 0.73 1.56 1.17 2.66 0.99 1.22-0.21 2-1.12 2-2.32 0-1.26-0.77-2.1-2.1-2.29-1.15-0.17-2.35 0.28-2.66 1z"/>
	</g>
</svg>