<svg height="128" width="128" xmlns="http://www.w3.org/2000/svg">
  <g fill="#fff">
    <path d="m61.456.68v6.562c-29.328 1.297-52.917 24.886-54.214 54.214h-6.562v5.088h6.56c1.298 29.328 24.887 52.917 54.215 54.214v6.561h5.088v-6.56c29.328-1.298 52.917-24.887 54.214-54.215h6.561v-5.088h-6.56c-1.298-29.328-24.887-52.917-54.215-54.214v-6.562zm0 11.653v4.113h5.088v-4.113c26.572 1.283 47.84 22.551 49.123 49.123h-5.61v5.088h5.61c-1.283 26.572-22.551 47.84-49.123 49.123v-4.413h-5.088v4.413c-26.572-1.283-47.84-22.551-49.123-49.123h5.11v-5.088h-5.11c1.283-26.572 22.551-47.84 49.123-49.123z"/>
    <path d="m48.23779 90.310997h-6.546006v-41.712602q-2.363835 2.254735-6.218705 4.509471-3.818503 2.254735-6.873306 3.382102v-6.327805q5.491372-2.582035 9.600808-6.255072 4.109437-3.673036 5.818672-7.127873h4.218537zm11.778049-13.964812 6.873305-.581867q.763701 5.018604 3.52757 7.564273 2.800236 2.509302 6.727839 2.509302 4.727671 0 8.000673-3.563936 3.273003-3.563936 3.273003-9.455341 0-5.600472-3.163902-8.837108-3.127536-3.236636-8.218874-3.236636-3.163903 0-5.709572 1.454668-2.545668 1.418301-4.000336 3.709403l-6.145972-.800067 5.164071-27.384123h26.511322v6.255072h-21.274518l-2.872969 14.328478q4.800404-3.345736 10.073575-3.345736 6.982406 0 11.78281 4.836771 4.800404 4.836771 4.800404 12.43741 0 7.236973-4.218536 12.510144-5.127705 6.473272-14.001179 6.473272-7.273339 0-11.89191-4.07307-4.582204-4.07307-5.236804-10.800909z" stroke-width=".997"/>
  </g>
</svg>
