<?xml version="1.0" encoding="UTF-8" standalone="no"?>
<!-- Created with Inkscape (http://www.inkscape.org/) -->

<svg
   version="1.1"
   id="svg1"
   width="128"
   height="128"
   viewBox="0 0 128 128"
   sodipodi:docname="loot-perk-energized.png"
   xmlns:inkscape="http://www.inkscape.org/namespaces/inkscape"
   xmlns:sodipodi="http://sodipodi.sourceforge.net/DTD/sodipodi-0.dtd"
   xmlns="http://www.w3.org/2000/svg"
   xmlns:svg="http://www.w3.org/2000/svg">
  <defs
     id="defs1" />
  <sodipodi:namedview
     id="namedview1"
     pagecolor="#686868"
     bordercolor="#000000"
     borderopacity="0.25"
     inkscape:showpageshadow="2"
     inkscape:pageopacity="0.0"
     inkscape:pagecheckerboard="0"
     inkscape:deskcolor="#d1d1d1">
    <inkscape:page
       x="0"
       y="0"
       width="128"
       height="128"
       id="page2"
       margin="0"
       bleed="0" />
  </sodipodi:namedview>
  <g
     inkscape:groupmode="layer"
     inkscape:label="Image"
     id="g1">
    <g
       id="g8"
       transform="matrix(0.14102332,0,0,0.14102332,-6.713471,-6.9820839)"
       style="fill:#ffffff">
      <path
         style="fill:#ffffff"
         d="m 233,919.57702 c 0,-0.78263 2.85388,-6.52013 6.34197,-12.75 3.48808,-6.22986 11.19835,-19.87702 17.13394,-30.32702 5.93558,-10.45 14.62007,-25.75 19.29885,-34 4.67878,-8.25 11.30994,-19.95 14.7359,-26 3.42596,-6.05 10.05477,-17.75 14.73069,-26 4.67592,-8.25 18.51824,-32.775 30.76071,-54.5 12.24247,-21.725 26.19506,-46.475 31.00575,-55 4.81069,-8.525 14.05705,-24.95 20.54747,-36.5 6.49041,-11.55 15.47576,-27.525 19.96744,-35.5 4.49168,-7.975 10.63212,-18.775 13.64544,-24 3.01331,-5.225 8.48319,-14.91983 12.15529,-21.54407 C 436.99555,556.83168 440,551.09418 440,550.70593 440,550.31767 389.13588,550 326.96862,550 c -95.61263,0 -113.11365,-0.21436 -113.56516,-1.39098 -0.29357,-0.76504 9.11216,-20.45254 20.90163,-43.75 C 246.09455,481.56156 272.73069,428.75 293.4965,387.5 c 20.76581,-41.25 46.64278,-92.55 57.50439,-114 10.8616,-21.45 31.00657,-61.275 44.7666,-88.5 13.76003,-27.225 28.25098,-55.8 32.20212,-63.5 3.95114,-7.7 7.72446,-14.55904 8.38516,-15.24231 0.9484,-0.98079 40.23093,-1.24721 186.60764,-1.26561 117.72217,-0.0148 185.75839,0.32872 186.37064,0.94097 0.61901,0.61901 0.38049,1.85519 -0.66618,3.45261 -0.89673,1.3686 -4.22613,5.60704 -7.39865,9.41876 -3.17252,3.81172 -10.04322,12.2228 -15.26822,18.69128 -5.225,6.46847 -13.775,17.04175 -19,23.49617 -5.225,6.45442 -23.45,28.93933 -40.5,49.96646 -17.05,21.02712 -33.42541,41.22601 -36.3898,44.8864 -2.9644,3.6604 -14.19625,17.45527 -24.95967,30.65527 -10.76343,13.2 -26.70082,32.775 -35.41644,43.5 -8.71561,10.725 -17.53432,21.525 -19.59711,24 -2.0628,2.475 -11.33914,13.95 -20.61409,25.5 -9.27495,11.55 -18.58689,23.05396 -20.69321,25.56436 -2.10633,2.51039 -3.82968,4.87289 -3.82968,5.25 0,0.3771 55.125,0.68564 122.5,0.68564 120.59101,0 122.5,0.0303 122.5,1.94095 0,1.25415 -5.92296,7.18109 -16.73874,16.75 -9.2063,8.14498 -39.2438,34.79177 -66.75,59.2151 -27.50619,24.42333 -53.32624,47.37333 -57.37788,51 -4.05164,3.62667 -13.7515,12.21895 -21.55525,19.09395 -7.80375,6.875 -23.11685,20.375 -34.02912,30 -10.91226,9.625 -24.43458,21.55 -30.04958,26.5 -5.61501,4.95 -15.51568,13.725 -22.00148,19.5 -6.4858,5.775 -14.15371,12.525 -17.0398,15 -2.88609,2.475 -14.66435,12.825 -26.17391,23 -11.50957,10.175 -25.59641,22.55 -31.3041,27.5 -5.70769,4.95 -18.75346,16.425 -28.9906,25.5 -10.23714,9.075 -31.18521,27.57731 -46.55126,41.11625 -15.36606,13.53894 -39.44969,34.68894 -53.51919,47 -14.0695,12.31106 -38.09302,33.40875 -53.3856,46.88375 -15.29257,13.475 -29.92935,26.3 -32.52617,28.5 -2.59682,2.2 -10.01994,8.725 -16.49582,14.5 -6.47588,5.775 -13.57852,11.9625 -15.78364,13.75 -2.20513,1.7875 -4.62099,3.25 -5.36859,3.25 C 233.61167,921 233,920.35966 233,919.57702 Z"
         id="path14" />
      <path
         style="fill:#ffffff"
         d="m 234.01812,918.75 c 0.01,-0.6875 1.27721,-3.5 2.8161,-6.25 1.5389,-2.75 9.23371,-16.25 17.09959,-30 7.86588,-13.75 16.22991,-28.375 18.58674,-32.5 2.35682,-4.125 10.24454,-18.075 17.52825,-31 7.28372,-12.925 19.98014,-35.425 28.21428,-50 8.23414,-14.575 24.21625,-42.925 35.51581,-63 11.29955,-20.075 24.57384,-43.7 29.49842,-52.5 4.92457,-8.8 11.76537,-20.95 15.20176,-27 3.4364,-6.05 10.2006,-17.975 15.03156,-26.5 4.83096,-8.525 11.57533,-20.45 14.98748,-26.5 3.41216,-6.05 7.62096,-13.52978 9.35291,-16.62173 1.73194,-3.09195 3.14898,-5.90445 3.14898,-6.25 0,-0.34555 -50.5125,-0.63516 -112.25,-0.64358 -70.66011,-0.01 -112.80577,-0.3741 -113.75,-0.98366 -1.2471,-0.80507 4.9703,-13.82708 36.8759,-77.23468 C 272.98265,429.81986 301.04733,374.125 314.24186,348 c 13.19454,-26.125 35.24615,-69.775 49.0036,-97 13.75745,-27.225 34.23749,-67.725 45.51121,-90 11.27372,-22.275 22.0826,-43.425 24.01973,-47 1.93714,-3.575 4.21592,-7.0625 5.06396,-7.75 1.22117,-0.98999 39.72429,-1.24681 185.10077,-1.23469 111.2791,0.009 184.13732,0.38115 185.02788,0.94437 1.22927,0.77744 0.98447,1.57866 -1.5,4.90946 -1.63296,2.18921 -6.58802,8.40175 -11.01124,13.80563 -4.42323,5.40387 -13.85272,17.02523 -20.95442,25.82523 -7.1017,8.8 -17.6577,21.85895 -23.45777,29.01989 -5.80007,7.16094 -20.89558,25.76802 -33.54558,41.34908 -12.65,15.58105 -25.42541,31.3221 -28.3898,34.98011 -2.9644,3.65801 -14.19625,17.45092 -24.95967,30.65092 -10.76343,13.2 -26.70082,32.775 -35.41644,43.5 -8.71561,10.725 -17.53102,21.525 -19.5898,24 -2.05877,2.475 -11.34389,13.95 -20.63359,25.5 -9.28969,11.55 -18.60493,23.05396 -20.70053,25.56436 -2.09559,2.51039 -3.81017,5.09789 -3.81017,5.75 0,0.90774 28.71296,1.18564 122.5,1.18564 105.1668,0 122.5,0.20097 122.5,1.42029 0,0.78116 -12.7125,12.646 -28.25,26.3663 -15.5375,13.7203 -41.3,36.54978 -57.25,50.73217 -15.95,14.18239 -34.37552,30.55506 -40.94561,36.3837 -6.57008,5.82865 -14.68558,13.07254 -18.03445,16.09754 -3.34887,3.025 -10.9831,9.775 -16.96495,15 -5.98186,5.225 -14.74136,12.93709 -19.46555,17.13798 -4.72419,4.20088 -17.13944,15.17073 -27.58944,24.37743 -10.45,9.2067 -27.73985,24.44461 -38.42189,33.86202 -10.68204,9.41741 -22.4126,19.82257 -26.06791,23.12257 -3.65531,3.3 -14.6651,12.975 -24.4662,21.5 -9.8011,8.525 -29.80911,26.075 -44.46225,39 -14.65314,12.925 -39.4535,34.80139 -55.11191,48.61419 C 396.31143,779.427 370.9,801.73632 355.5,815.19046 c -15.4,13.45414 -36.13533,31.62775 -46.07852,40.38581 -9.94318,8.75805 -28.79224,25.37373 -41.8868,36.92373 -13.09455,11.55 -25.61005,22.4625 -27.81221,24.25 -2.20216,1.7875 -4.3906,3.25 -4.8632,3.25 -0.4726,0 -0.85112,-0.5625 -0.84115,-1.25 z"
         id="path13" />
      <path
         style="fill:#ffffff"
         d="m 235.53006,916.75 c 0.36566,-1.2375 2.37819,-5.175 4.47229,-8.75 2.0941,-3.575 8.42013,-14.6 14.05785,-24.5 5.63771,-9.9 11.90148,-20.925 13.91949,-24.5 2.018,-3.575 5.94036,-10.55 8.71635,-15.5 2.77599,-4.95 9.89421,-17.55 15.81826,-28 5.92406,-10.45 14.83253,-26.2 19.79662,-35 4.96408,-8.8 11.57268,-20.5 14.68576,-26 3.11309,-5.5 15.03517,-26.65 26.49351,-47 11.45834,-20.35 24.86562,-44.2 29.79397,-53 4.92834,-8.8 12.66641,-22.525 17.1957,-30.5 4.52929,-7.975 12.17023,-21.475 16.97986,-30 4.80964,-8.525 10.42817,-18.425 12.48564,-22 2.05746,-3.575 5.60508,-9.91887 7.88359,-14.09748 2.27852,-4.17861 3.84912,-7.89111 3.49024,-8.25 C 440.9603,549.29363 389.89167,549 327.83333,549 225.64278,549 215,548.8509 215,547.41928 c 0,-0.8694 14.45815,-30.2319 32.12923,-65.25 C 264.80031,447.15117 292.75622,391.725 309.25348,359 c 16.49726,-32.725 38.65599,-76.6 49.24163,-97.5 10.58564,-20.9 31.19223,-61.625 45.79242,-90.5 14.60019,-28.875 28.06507,-55.2 29.92195,-58.5 l 3.37614,-6 185.20719,-0.25265 c 147.861,-0.2017 185.19823,-5e-5 185.16274,1 -0.0245,0.68896 -1.93695,3.59185 -4.25,6.45088 -2.31305,2.85902 -10.33053,12.75902 -17.81661,22 C 778.40286,144.9392 767.17975,158.8 760.9487,166.5 c -6.23105,7.7 -17.86904,22.1 -25.8622,32 -7.99316,9.9 -23.54505,29.05212 -34.55976,42.56027 C 689.51203,254.56842 670.825,277.48204 659,291.97942 c -11.825,14.49739 -23.71791,29.09527 -26.42869,32.43974 -2.71078,3.34446 -10.61712,13.05584 -17.56964,21.58084 -6.95252,8.525 -20.22184,24.95 -29.48737,36.5 -9.26553,11.55 -18.12169,22.47816 -19.68036,24.2848 -1.55867,1.80663 -2.83394,3.71913 -2.83394,4.25 0,0.61501 44.42305,0.9652 122.44098,0.9652 67.34254,0 122.66285,0.35899 122.93402,0.79775 0.27117,0.43876 0.18523,1.22946 -0.19098,1.75711 -0.37621,0.52766 -8.10902,7.47419 -17.18402,15.43675 -9.075,7.96255 -24.6,21.70489 -34.5,30.53853 -9.9,8.83363 -28.125,25.04973 -40.5,36.03578 -12.375,10.98604 -34.2,30.35625 -48.5,43.04492 -14.3,12.68866 -38.375,33.99843 -53.5,47.35504 -15.125,13.35661 -36.21212,31.99086 -46.86027,41.40944 C 556.49159,637.79389 545.1824,647.75 542.0082,650.5 c -3.17419,2.75 -23.48707,20.57777 -45.13973,39.61728 -21.65266,19.0395 -45.69095,40.1895 -53.41841,47 -7.72747,6.81049 -26.85247,23.66952 -42.5,37.4645 -15.64754,13.79497 -38.16589,33.59497 -50.0408,44 -11.8749,10.40502 -39.5499,34.65163 -61.5,53.88135 -21.95009,19.22972 -42.78684,37.56722 -46.30388,40.75 -3.51705,3.18278 -6.80987,5.78687 -7.31739,5.78687 -0.50752,0 -0.62359,-1.0125 -0.25793,-2.25 z"
         id="path12" />
      <path
         style="fill:#ffffff"
         d="m 237.61775,913.75 c 0.91801,-1.7875 6.38191,-11.575 12.14201,-21.75 5.7601,-10.175 12.28853,-21.65 14.50763,-25.5 2.21909,-3.85 5.71342,-9.925 7.76517,-13.5 2.05176,-3.575 9.94218,-17.525 17.53428,-31 7.5921,-13.475 15.44294,-27.425 17.4463,-31 2.00337,-3.575 5.6649,-10.1 8.13675,-14.5 2.47184,-4.4 14.52294,-25.775 26.78023,-47.5 12.25728,-21.725 27.47054,-48.725 33.80723,-60 6.33669,-11.275 13.42806,-23.875 15.7586,-28 2.33053,-4.125 8.17927,-14.475 12.99718,-23 4.81792,-8.525 10.45067,-18.425 12.51723,-22 2.06655,-3.575 7.01974,-12.35 11.00708,-19.5 3.98734,-7.15 8.7646,-15.61975 10.61614,-18.82167 C 440.48511,554.47641 442,551.21391 442,550.42833 442,549.19899 426.2656,549 329.05902,549 c -73.06752,0 -113.1559,-0.34775 -113.54974,-0.98498 -0.33481,-0.54175 9.48273,-20.90425 21.81677,-45.25 C 249.6601,478.41926 273.81131,430.6 290.99542,396.5 c 17.18411,-34.1 42.27197,-83.825 55.75079,-110.5 13.47883,-26.675 35.31577,-69.875 48.52654,-96 13.21076,-26.125 28.06104,-55.375 33.00062,-65 4.93957,-9.625 9.4863,-17.83061 10.10384,-18.23469 0.61753,-0.40408 83.55873,-0.74158 184.31377,-0.75 131.06166,-0.0109 183.38254,0.29463 183.86413,1.07385 0.37022,0.59904 -0.61572,2.79545 -2.19099,4.88091 -1.57526,2.08546 -7.58912,9.53459 -13.36412,16.55363 -5.775,7.01903 -11.92287,14.61013 -13.66194,16.86909 C 775.599,147.65176 766.68878,158.725 757.53758,170 c -9.1512,11.275 -23.70332,29.22005 -32.33806,39.87788 -8.63474,10.65784 -23.26718,28.65784 -32.51655,40 -9.24937,11.34217 -20.27437,24.87148 -24.5,30.06514 -4.22563,5.19366 -10.15797,12.44901 -13.18297,16.12301 -3.025,3.67399 -8.875,10.84776 -13,15.94169 -4.125,5.09394 -12.6955,15.61359 -19.04555,23.377 -6.35005,7.7634 -19.14944,23.56528 -28.44308,35.11528 -9.29364,11.55 -20.41381,25.26549 -24.7115,30.47886 -4.29768,5.21337 -7.6608,9.93837 -7.47361,10.5 0.22852,0.68561 40.64698,1.10459 123.00705,1.27509 C 752.79999,412.89363 808,413.36628 808,413.80429 c 0,0.43802 -4.1165,4.37374 -9.14777,8.74605 -5.03127,4.37231 -13.28369,11.54966 -18.33871,15.94966 -5.05501,4.4 -27.82602,24.5925 -50.60223,44.87223 -22.77621,20.27973 -48.69213,43.33371 -57.59094,51.23107 -8.89881,7.89737 -22.17381,19.64868 -29.5,26.11404 -7.32619,6.46536 -32.67035,28.86499 -56.32035,49.77696 -23.65,20.91198 -45.07331,39.81816 -47.60736,42.01374 -2.53405,2.19558 -22.52522,19.74196 -44.42482,38.99196 -21.8996,19.25 -46.19964,40.625 -54.00008,47.5 -7.80044,6.875 -19.53427,17.24609 -26.07518,23.04688 -6.54091,5.80078 -28.54256,25.13542 -48.89256,42.96586 -20.35,17.83044 -44.65,39.16046 -54,47.40003 -9.35,8.23958 -21.95,19.3317 -28,24.64916 -6.05,5.31747 -18.80002,16.47886 -28.33338,24.80309 C 245.63326,910.18926 237.40921,917 236.89094,917 c -0.51827,0 -0.1912,-1.4625 0.72681,-3.25 z"
         id="path11" />
      <path
         style="fill:#ffffff"
         d="m 238,914.22251 c 0,-0.42763 0.61678,-1.66513 1.37063,-2.75 0.75384,-1.08488 4.27379,-7.14751 7.82211,-13.47251 3.54831,-6.325 11.85671,-20.95 18.4631,-32.5 6.60639,-11.55 15.53891,-27.3 19.85003,-35 4.31112,-7.7 11.29272,-20.075 15.51466,-27.5 4.22194,-7.425 10.83998,-19.125 14.70677,-26 3.86679,-6.875 12.63654,-22.4 19.48835,-34.5 6.85181,-12.1 15.96247,-28.3 20.24591,-36 4.28345,-7.7 9.46902,-16.925 11.52349,-20.5 2.05447,-3.575 5.75548,-10.1 8.22447,-14.5 2.46898,-4.4 7.11496,-12.725 10.3244,-18.5 3.20944,-5.775 9.29572,-16.575 13.52508,-24 4.22936,-7.425 9.83534,-17.325 12.45773,-22 2.6224,-4.675 6.4217,-11.425 8.44291,-15 2.0212,-3.575 8.03214,-14.23043 13.35764,-23.67872 5.3255,-9.4483 9.68272,-17.8858 9.68272,-18.75 C 443,548.15214 432.01046,548 329.5,548 237.03846,548 216,547.75903 216,546.7 c 0,-0.715 0.39506,-1.7275 0.87791,-2.25 0.48285,-0.5225 20.79243,-40.55 45.13239,-88.95 24.33997,-48.4 53.36049,-106 64.49005,-128 11.12956,-22 32.05232,-63.4 46.49502,-92 14.4427,-28.6 33.72963,-66.625 42.85986,-84.5 9.13022,-17.875 17.8734,-35.0875 19.42929,-38.25 L 438.1134,107 H 622.0567 C 723.22551,107 806,107.3831 806,107.85133 c 0,0.46822 -1.2375,2.47107 -2.75,4.45076 -1.5125,1.9797 -7.08011,8.9091 -12.37247,15.39868 -5.29236,6.48958 -16.51351,20.34923 -24.93589,30.79923 -8.42238,10.45 -17.59226,21.76367 -20.37753,25.14149 -2.78526,3.37782 -7.18278,8.77782 -9.77225,12 -2.58948,3.22218 -12.19639,15.08351 -21.34869,26.35851 -9.1523,11.275 -19.00555,23.425 -21.89612,27 -2.89056,3.575 -13.8844,17.075 -24.43074,30 -10.54634,12.925 -22.49817,27.55 -26.55961,32.5 -4.06145,4.95 -15.6357,19.17088 -25.72057,31.60197 C 605.75126,355.53305 593.225,371.00713 588,377.48882 c -5.225,6.4817 -13.42413,16.56081 -18.22029,22.39804 -4.79616,5.83723 -8.58368,11.06314 -8.4167,11.61314 0.19969,0.65772 42.01767,1.08694 122.1743,1.254 67.02888,0.13971 122.23214,0.61545 122.6739,1.05721 0.44177,0.44177 -2.91253,4.00957 -7.454,7.92845 -4.54146,3.91889 -12.79713,11.09314 -18.34593,15.94279 -5.54879,4.84965 -28.27379,25.00385 -50.5,44.7871 -22.2262,19.78325 -50.32033,44.75825 -62.4314,55.5 C 655.36882,548.7113 628.40242,572.575 607.55456,591 c -20.84787,18.425 -44.23882,39.07875 -51.97989,45.89722 -7.74107,6.81847 -16.1187,14.24347 -18.61695,16.5 -2.49826,2.25653 -9.24826,8.22093 -15,13.25422 -5.75175,5.03329 -25.53272,22.33027 -43.95772,38.43774 -18.425,16.10748 -39.32558,34.48933 -46.44573,40.84857 -7.12015,6.35924 -19.04515,16.93035 -26.5,23.49136 -7.45485,6.56101 -22.32927,19.60088 -33.05427,28.9775 -10.725,9.37662 -32.55,28.5126 -48.5,42.52442 -15.95,14.01181 -33.05,29.12596 -38,33.587 -4.95,4.46105 -12.18785,10.78196 -16.08411,14.04648 -3.89626,3.26452 -12.30382,10.54799 -18.68347,16.18549 C 244.35278,910.3875 238.87813,915 238.56653,915 238.25494,915 238,914.65013 238,914.22251 Z"
         id="path10" />
      <path
         style="fill:#ffffff"
         d="m 240,912.52073 c 0,-0.39159 0.82244,-1.90646 1.82764,-3.36636 1.0052,-1.4599 3.98916,-6.70437 6.63101,-11.65437 2.64186,-4.95 6.99442,-12.64785 9.67236,-17.10634 C 260.80896,875.93517 263,871.9206 263,871.4724 c 0,-0.44821 0.63946,-1.52535 1.42102,-2.39366 0.78156,-0.86831 2.64212,-4.05374 4.13459,-7.07874 1.49246,-3.025 3.30205,-6.18175 4.02131,-7.01501 0.71925,-0.83326 2.82779,-4.43326 4.68564,-8 1.85785,-3.56674 5.32256,-9.85999 7.69936,-13.98499 2.37681,-4.125 7.40156,-13.07149 11.16612,-19.88109 3.76456,-6.80959 7.32207,-12.95634 7.90559,-13.65943 0.58351,-0.70309 2.31006,-3.6816 3.83679,-6.61891 1.52672,-2.93731 4.9445,-9.16557 7.59508,-13.84057 2.65057,-4.675 6.49332,-11.425 8.53944,-15 2.04612,-3.575 5.51212,-9.65 7.70223,-13.5 2.1901,-3.85 6.98639,-12.4 10.65842,-19 3.67203,-6.6 7.34754,-13.125 8.16781,-14.5 0.82027,-1.375 3.5808,-6.325 6.1345,-11 2.55371,-4.675 7.16063,-12.8812 10.2376,-18.23599 3.07698,-5.35479 7.43159,-13.00479 9.67693,-17 2.24534,-3.99521 6.33909,-11.31401 9.09723,-16.26401 2.75814,-4.95 10.32243,-18.45 16.80953,-30 6.4871,-11.55 12.95564,-22.8 14.37454,-25 1.4189,-2.2 4.00235,-6.7 5.74099,-10 1.73864,-3.3 4.45134,-8.30054 6.02822,-11.11231 1.57688,-2.81177 4.7082,-8.43677 6.95848,-12.5 2.25028,-4.06323 5.14191,-9.21946 6.42583,-11.45829 1.34311,-2.34204 2.06075,-4.78376 1.68996,-5.75 C 443.10904,547.12057 434.94757,547 330.03138,547 267.86412,547 217,546.80178 217,546.55951 c 0,-0.24227 2.41411,-5.07977 5.36469,-10.75 2.95057,-5.67023 24.84891,-49.00951 48.66296,-96.30951 23.81406,-47.3 43.9289,-87.35 44.69964,-89 0.77074,-1.65 1.89701,-3.9 2.50282,-5 0.60581,-1.1 10.07733,-19.775 21.04781,-41.5 10.97048,-21.725 29.63228,-58.625 41.47066,-82 11.83839,-23.375 28.5283,-56.225 37.08869,-73 8.5604,-16.775 16.69533,-32.8625 18.07764,-35.75 L 438.4282,108 H 621.7141 C 722.52135,108 805,108.20749 805,108.46109 c 0,0.25359 -2.1123,3.06609 -4.694,6.25 -2.5817,3.1839 -7.43938,9.16391 -10.79485,13.28891 -3.35547,4.125 -9.03603,11.1 -12.62348,15.5 -3.58744,4.4 -13.01726,16.01434 -20.95515,25.80965 -7.93789,9.79531 -15.55752,19.29778 -16.93252,21.11658 -1.375,1.81881 -7.9,9.92675 -14.5,18.01765 -6.6,8.09089 -14.5999,17.93843 -17.77755,21.88342 -3.17766,3.94498 -8.00974,9.8727 -10.73796,13.1727 -2.72822,3.3 -10.70332,13.03685 -17.72244,21.63745 -7.01913,8.6006 -17.03705,20.93853 -22.26205,27.41762 -5.225,6.4791 -12.2,15.03923 -15.5,19.02252 -3.3,3.98329 -8.11013,9.87036 -10.68918,13.08238 -2.57905,3.21202 -9.47329,11.69003 -15.32053,18.84003 -5.84725,7.15 -12.73712,15.62284 -15.31083,18.82854 -2.5737,3.20569 -8.05446,10.0018 -12.17946,15.10246 -4.125,5.10066 -11.775,14.51465 -17,20.91997 -5.225,6.40532 -9.5,12.43421 -9.5,13.39754 0,1.65772 6.54502,1.76509 122.25,2.00546 74.32176,0.1544 122.25,0.61776 122.25,1.1819 0,0.51037 -1.42828,1.94497 -3.17395,3.18799 -1.74567,1.24303 -9.30917,7.68618 -16.80777,14.3181 -7.4986,6.63192 -23.28283,20.64457 -35.07605,31.13922 -11.79323,10.49465 -40.1479,35.69465 -63.01038,56 -22.86248,20.30535 -55.48748,49.19731 -72.5,64.20435 -17.01252,15.00704 -32.28185,28.47952 -33.93185,29.93884 -1.65,1.45931 -8.4,7.37233 -15,13.14004 -6.6,5.7677 -14.49919,12.77023 -17.55375,15.56116 -3.05457,2.79094 -10.47957,9.42195 -16.5,14.73559 -6.02044,5.31365 -29.62125,25.96893 -52.44625,45.90063 -22.825,19.93171 -45.775,40.13935 -51,44.90586 -5.225,4.76652 -27.95,24.80294 -50.5,44.52538 -22.55,19.72244 -45.08211,39.49228 -50.07136,43.93297 -4.98924,4.4407 -11.45416,10.099 -14.36648,12.574 -2.91232,2.475 -6.09776,5.24255 -7.07875,6.1501 -0.98099,0.90756 -14.54107,12.82759 -30.13351,26.48896 -15.59245,13.66136 -30.0374,26.35868 -32.0999,28.21626 -2.0625,1.85757 -3.75,3.05701 -3.75,2.66541 z"
         id="path9" />
      <path
         style="fill:#ffffff"
         d="m 246,904.27911 c 0,-1.03815 1.43959,-4.11315 3.19909,-6.83333 1.7595,-2.72018 4.22797,-7.11387 5.48549,-9.76376 1.25752,-2.64989 2.74293,-4.53584 3.30091,-4.19099 C 258.54347,883.83588 259,884.96492 259,886 c 0,1.03508 -0.50143,2.19186 -1.11428,2.57063 -0.66216,0.40923 -0.90633,2.23903 -0.60178,4.50961 0.44762,3.33726 0.21651,3.92214 -1.82564,4.62035 -1.28598,0.43968 -3.37768,2.33972 -4.64822,4.22232 -1.27054,1.8826 -2.87258,3.6076 -3.56008,3.83333 -0.70347,0.23098 -1.25,-0.41486 -1.25,-1.47713 z m 17,-14.65667 c 0,-0.75765 0.69407,-1.95358 1.54238,-2.65761 1.0503,-0.87167 1.86842,-0.95403 2.56429,-0.25816 0.69587,0.69587 0.50004,1.54377 -0.61381,2.65762 C 265.59321,890.26393 264.43929,891 263.92857,891 263.41786,891 263,890.3801 263,889.62244 Z m 8,-8.01545 c 0,-0.76616 0.71561,-1.66762 1.59024,-2.00325 0.87464,-0.33562 2.02149,-0.34371 2.54856,-0.018 0.58572,0.362 0.50302,1.14087 -0.21269,2.00325 C 274.28206,882.36506 273.13521,883 272.37756,883 271.6199,883 271,882.37314 271,881.60699 Z m -9.81136,-1.46925 c -1.04379,-0.66193 -0.85009,-1.78107 0.94926,-5.48468 1.24335,-2.55918 2.90484,-4.65306 3.69221,-4.65306 1.09779,0 1.28705,0.87434 0.81174,3.75 -0.34091,2.0625 -0.62479,4.5375 -0.63084,5.5 -0.006,1.00171 -0.7593,1.74345 -1.76101,1.73469 -0.9625,-0.008 -2.34011,-0.38955 -3.06136,-0.84695 z M 279.38,874.54789 c -0.30647,-0.79867 -0.26579,-1.92367 0.0904,-2.5 0.3562,-0.57634 1.74608,-1.04789 3.08862,-1.04789 1.34254,0 2.44098,0.38026 2.44098,0.84501 0,0.46476 -0.82293,1.58976 -1.82874,2.5 -1.00581,0.91025 -2.14493,1.65499 -2.53139,1.65499 -0.38645,0 -0.95339,-0.65345 -1.25987,-1.45211 z M 269.63837,871.5 c 0.31659,-0.825 0.75246,-1.5 0.96862,-1.5 0.21615,0 0.39301,0.675 0.39301,1.5 0,0.825 -0.43588,1.5 -0.96862,1.5 -0.53273,0 -0.70959,-0.675 -0.39301,-1.5 z M 288,866 c 0,-1.46667 0.66667,-2 2.5,-2 1.375,0 2.5,0.36 2.5,0.8 0,0.44 -0.54,1.34 -1.2,2 -0.66,0.66 -1.785,1.2 -2.5,1.2 -0.715,0 -1.3,-0.9 -1.3,-2 z m -18.6271,-0.47062 c -0.34548,-0.90031 0.17263,-3.41273 1.15135,-5.58316 C 271.50297,857.7758 272.5854,856 272.92963,856 c 0.34424,0 0.3884,2.32688 0.0981,5.17085 -0.29027,2.84397 -1.09002,5.35639 -1.77723,5.58316 -0.68721,0.22677 -1.53215,-0.32431 -1.87763,-1.22463 z m 26.00527,-4.98626 c -0.32568,-0.84871 -0.33313,-2.21812 -0.0165,-3.04312 0.31658,-0.825 1.67792,-1.5 3.0252,-1.5 1.34728,0 3.2739,-0.29706 4.28138,-0.66013 1.44832,-0.52194 1.30844,-0.084 -0.66821,2.09182 -1.375,1.51358 -3.29418,3.18004 -4.26484,3.70326 -1.2975,0.69939 -1.92164,0.54268 -2.35699,-0.59183 z M 276,855.05902 c 0,-0.51754 0.45,-1.2191 1,-1.55902 0.55,-0.33992 1.00224,-2.27898 1.00497,-4.30902 0.003,-2.40635 0.84747,-4.73511 2.42565,-6.69098 l 2.42069,-3 -0.50234,4.5 c -0.27628,2.475 -0.87702,5.4 -1.33497,6.5 -0.45796,1.1 -1.08433,2.7875 -1.39194,3.75 -0.30761,0.9625 -1.24841,1.75 -2.09068,1.75 C 276.68912,856 276,855.57656 276,855.05902 Z m 28,-3.46796 c 0,-0.19039 0.675,-0.90637 1.5,-1.59106 0.86459,-0.71755 1.5,-0.81474 1.5,-0.22943 0,0.5585 -0.675,1.27447 -1.5,1.59106 -0.825,0.31658 -1.5,0.41982 -1.5,0.22943 z m 7,-3.53204 c 0,-0.51754 0.45,-1.2191 1,-1.55902 0.55,-0.33992 1,0.0835 1,0.94098 0,0.85746 -0.45,1.55902 -1,1.55902 -0.55,0 -1,-0.42344 -1,-0.94098 z m 2,-4.48892 c 0,-0.72887 0.56502,-1.79413 1.25559,-2.36726 0.69058,-0.57313 2.53513,-1.36319 4.09899,-1.7557 2.39018,-0.5999 2.78777,-0.42933 2.49441,1.07011 -0.19746,1.00927 -1.97721,2.34697 -4.09899,3.08091 -3.09939,1.07209 -3.75,1.06722 -3.75,-0.0281 z m -28.56624,-2.88213 c -0.31201,-0.81309 -0.084,-3.27309 0.50665,-5.46667 0.59067,-2.19358 1.74571,-4.54584 2.56677,-5.22726 1.28208,-1.06403 1.47875,-0.69226 1.39314,2.63352 -0.0548,2.12984 -0.40474,4.96408 -0.77758,6.2983 -0.37285,1.33422 -1.22776,2.60915 -1.8998,2.83316 -0.67204,0.22401 -1.47717,-0.25796 -1.78918,-1.07105 z M 326,834.12244 c 0,-0.48265 0.68587,-1.44678 1.52417,-2.1425 0.83829,-0.69572 1.79388,-0.99522 2.12353,-0.66557 0.32966,0.32966 0.33291,1.29378 0.007,2.1425 C 329.32924,834.30559 328.37365,835 327.53138,835 326.68912,835 326,834.6051 326,834.12244 Z m 7,-6.56574 c 0,-0.79381 0.99417,-2.13964 2.20927,-2.99073 1.55488,-1.08908 2.51754,-1.23295 3.25,-0.48572 0.72506,0.73968 0.32467,1.64681 -1.32005,2.99073 C 335.84078,828.13194 334.37828,829 333.88922,829 333.40015,829 333,828.35052 333,827.5567 Z m -40.33333,-1.22337 C 292.3,825.96667 292,824.82374 292,823.7935 c 0,-1.03025 0.86711,-3.57285 1.92691,-5.65024 1.0598,-2.07738 2.5223,-4.27243 3.25,-4.8779 1.07708,-0.89615 1.25907,-0.047 0.97877,4.5669 -0.19948,3.2835 -1.00085,6.40391 -1.90499,7.41774 -0.85837,0.9625 -1.86592,1.75 -2.23901,1.75 -0.37309,0 -0.97835,-0.3 -1.34501,-0.66667 z m 48.84087,-5.32114 c -0.38691,-0.62602 0.0854,-2.00986 1.04949,-3.0752 0.96412,-1.06535 2.3582,-1.93699 3.09796,-1.93699 0.73975,0 1.34501,0.37156 1.34501,0.82569 0,0.45412 -1.07753,1.83797 -2.3945,3.0752 -1.63289,1.53402 -2.61825,1.88749 -3.09796,1.1113 z M 349,813.54969 c 0,-0.79767 0.59644,-1.81017 1.32541,-2.25 0.72898,-0.43983 1.61485,-1.58719 1.96862,-2.54969 0.35376,-0.9625 1.44482,-1.75307 2.42459,-1.75683 0.97976,-0.004 2.85189,-1.57876 4.16028,-3.5 1.3084,-1.92124 2.94775,-3.49317 3.64301,-3.49317 0.69526,0 1.52313,-0.675 1.83972,-1.5 0.31658,-0.825 1.03972,-1.5 1.60699,-1.5 0.56726,0 1.03138,0.6197 1.03138,1.3771 0,0.75741 -3.77841,4.80741 -8.39647,9 -4.61806,4.1926 -8.66806,7.6229 -9,7.6229 C 349.27159,815 349,814.34736 349,813.54969 Z m -49.30215,-1.8947 c -0.28387,-0.73975 0.33507,-3.2462 1.37541,-5.56989 1.04035,-2.32369 2.34946,-3.94188 2.90914,-3.59598 0.55968,0.3459 1.0176,1.69806 1.0176,3.0048 0,1.30673 -0.43886,3.53018 -0.97525,4.94098 -0.53639,1.41081 -1.61324,2.5651 -2.39301,2.5651 -0.77977,0 -1.65002,-0.60525 -1.93389,-1.34501 z m 8.84407,-15.52291 c -0.32607,-1.02735 -0.17827,-2.95835 0.32844,-4.2911 0.50671,-1.33274 1.60311,-2.98903 2.43644,-3.68064 1.0332,-0.85748 1.72304,-0.92108 2.16872,-0.19995 0.35947,0.58163 0.44135,1.84098 0.18197,2.79856 -0.25938,0.95758 -0.747,2.97855 -1.0836,4.49105 -0.3366,1.5125 -1.2481,2.75 -2.02555,2.75 -0.77746,0 -1.68035,-0.84056 -2.00642,-1.86792 z m 60.18015,-2.17729 c 0.29416,-1.12486 2.25911,-2.92486 4.36655,-4 2.10744,-1.07513 4.07463,-1.95479 4.37154,-1.95479 0.29691,0 0.53984,0.66896 0.53984,1.48658 0,0.81762 -1.575,2.14466 -3.5,2.94897 -1.925,0.80432 -3.5,1.93536 -3.5,2.51342 0,0.57807 -0.63287,1.05103 -1.40638,1.05103 -0.92441,0 -1.22309,-0.70089 -0.87155,-2.04521 z M 377,785.96778 c 0,-0.56773 1.0125,-1.41528 2.25,-1.88344 1.2375,-0.46817 2.44215,-0.67402 2.677,-0.45745 0.23485,0.21658 -0.44015,1.04981 -1.5,1.85164 -1.05985,0.80182 -2.2645,1.47217 -2.677,1.48967 -0.4125,0.0175 -0.75,-0.4327 -0.75,-1.00042 z M 314,784.5 c 0,-0.275 0.225,-0.5 0.5,-0.5 0.275,0 0.5,0.225 0.5,0.5 0,0.275 -0.225,0.5 -0.5,0.5 -0.275,0 -0.5,-0.225 -0.5,-0.5 z m 1.50712,-1.48847 c -0.336,-0.54366 0.26145,-2.96059 1.32767,-5.37095 1.06622,-2.41037 2.48971,-4.7231 3.16332,-5.13941 0.94055,-0.58129 1.05633,0.49098 0.49898,4.62095 -0.39916,2.95783 -0.92586,5.71538 -1.17044,6.12788 -0.24458,0.4125 -1.06657,0.75 -1.82665,0.75 -0.76008,0 -1.65688,-0.44481 -1.99288,-0.98847 z m 76.52311,-7.06802 c 0.60533,-1.13106 1.76557,-2.31166 2.57831,-2.62354 0.81275,-0.31187 1.75555,-0.28921 2.09512,0.0504 0.33958,0.33957 -0.19957,1.52017 -1.19811,2.62354 -0.99854,1.10337 -2.43661,2.00613 -3.19572,2.00613 -1.08296,0 -1.14317,-0.44289 -0.2796,-2.05649 z m 8.36278,-7.5253 c 0.33385,-0.86998 0.60699,-1.76998 0.60699,-2 0,-0.23001 0.9,-0.41821 2,-0.41821 1.1,0 2,0.36 2,0.8 0,0.44 -0.54,1.34 -1.2,2 -0.66,0.66 -1.83314,1.2 -2.60699,1.2 -0.87215,0 -1.17625,-0.60129 -0.8,-1.58179 z m -75.86459,-0.37222 c -0.32428,-0.52471 -0.31037,-2.06659 0.0309,-3.42641 0.34129,-1.35981 1.48006,-3.25025 2.5306,-4.20097 1.84949,-1.67377 1.91006,-1.60317 1.91006,2.2264 0,2.17525 -0.54,4.49499 -1.2,5.15499 -0.66,0.66 -1.53344,1.2 -1.94098,1.2 -0.40754,0 -1.00631,-0.42931 -1.3306,-0.95401 z m 82.97613,-5.03863 c -0.3485,-0.56389 -0.34927,-1.92123 -0.002,-3.01631 0.44174,-1.39179 1.51459,-1.99105 3.56455,-1.99105 1.61293,0 2.93261,0.38026 2.93261,0.84501 0,0.46476 -0.7875,1.52131 -1.75,2.3479 -0.9625,0.82658 -2.28141,1.80367 -2.9309,2.1713 -0.6495,0.36763 -1.46604,0.20705 -1.81455,-0.35685 z m -75.80426,-3.6404 c -0.37109,-0.3711 -0.39288,-2.51797 -0.0484,-4.77084 0.34445,-2.25287 1.28414,-5.39915 2.08819,-6.99174 1.13429,-2.2467 1.65995,-2.58286 2.34561,-1.5 0.48604,0.76759 0.8906,2.31812 0.89902,3.44562 0.008,1.1275 -0.40006,2.4775 -0.90774,3 -0.50768,0.5225 -1.07018,2.2653 -1.25,3.87288 -0.17982,1.60759 -0.80507,3.07946 -1.38945,3.27083 -0.58438,0.19138 -1.36612,0.0443 -1.73721,-0.32675 z M 416.18358,753.25 c 0.26678,-2.31857 0.78707,-2.75 3.31642,-2.75 2.59145,0 3.0461,-0.40855 3.33849,-3 0.18616,-1.65 0.80376,-3.5625 1.37244,-4.25 0.56868,-0.6875 2.3023,-1.25 3.8525,-1.25 1.55019,0 3.02337,0.3375 3.27372,0.75 0.25036,0.4125 -2.8624,3.5625 -6.91724,7 -4.05483,3.4375 -7.638,6.25 -7.96259,6.25 -0.32459,0 -0.44777,-1.2375 -0.27374,-2.75 z M 339,742.07332 C 339,740.933 339.1882,740 339.41821,740 c 0.23002,0 1.16962,-0.28834 2.088,-0.64076 1.31662,-0.50523 1.5983,-0.13726 1.33179,1.73979 -0.1859,1.3093 -1.1255,2.53063 -2.088,2.71408 -1.21121,0.23085 -1.75,-0.3048 -1.75,-1.73979 z m 93.59656,-3.91709 c -0.34605,-0.55992 -0.1419,-1.31919 0.45366,-1.68727 0.59556,-0.36808 1.3604,-0.39167 1.69964,-0.0524 0.33925,0.33924 0.1351,1.09851 -0.45366,1.68727 -0.71818,0.71818 -1.27752,0.73543 -1.69964,0.0524 z M 341,735.69113 c 0,-0.71988 0.64286,-2.18238 1.42858,-3.25 1.33135,-1.80902 1.47475,-1.82202 2.10699,-0.19113 0.37312,0.9625 0.41939,2.425 0.1028,3.25 -0.31658,0.825 -1.26472,1.5 -2.10699,1.5 C 341.68912,737 341,736.41101 341,735.69113 Z M 439.65724,732.75 c 0.33398,-1.7875 0.88523,-3.55248 1.225,-3.92218 0.33977,-0.36971 2.30526,-0.98229 4.36776,-1.36129 2.57771,-0.47369 3.75,-0.32576 3.75,0.47321 0,0.63927 -1.62407,1.84089 -3.60904,2.67027 -1.98498,0.82937 -3.83746,2.38141 -4.11663,3.44897 -0.27918,1.06756 -0.89386,1.94102 -1.36596,1.94102 -0.4721,0 -0.58511,-1.4625 -0.25113,-3.25 z M 346,727.5 c 0,-0.825 0.81562,-2.31562 1.8125,-3.3125 0.99687,-0.99688 1.65708,-2.27875 1.46713,-2.84862 -0.18996,-0.56987 0.53599,-2.11674 1.6132,-3.4375 1.78614,-2.18995 2.01983,-2.24402 2.65416,-0.61413 0.43031,1.10566 0.0399,2.51172 -1.02367,3.68698 -0.94558,1.04486 -1.42111,2.38213 -1.05673,2.97171 0.36438,0.58957 0.37813,1.96793 0.0306,3.06301 C 351.09432,728.27818 349.98332,729 348.43261,729 346.93696,729 346,728.42225 346,727.5 Z m 108.53001,-5.45144 C 454.17359,721.47185 454.16008,720.55 454.5,720 c 0.33992,-0.55 1.26648,-1 2.05902,-1 0.79254,0 1.44098,0.3949 1.44098,0.87756 0,0.48265 -0.63494,1.4045 -1.41097,2.04855 -0.96456,0.80051 -1.61601,0.83925 -2.05902,0.12245 z m 6.87623,-7.20026 c -0.39148,-0.63344 0.11797,-1.75844 1.13211,-2.5 1.01415,-0.74157 2.4329,-1.3483 3.15278,-1.3483 0.71988,0 1.30887,0.38026 1.30887,0.84501 0,0.46476 -0.82293,1.58976 -1.82874,2.5 -1.00581,0.91025 -2.10425,1.65499 -2.44098,1.65499 -0.33674,0 -0.93255,-0.51827 -1.32404,-1.1517 z m -106.51048,-0.91273 c -1.01519,-0.62741 -1.03148,-1.2756 -0.0783,-3.11396 0.66207,-1.27688 2.08297,-3.67161 3.15756,-5.32161 1.07458,-1.65 3.08584,-5.25 4.46945,-8 1.38361,-2.75 3.41229,-6.45311 4.50819,-8.22913 1.31465,-2.13054 2.51217,-3.02972 3.51993,-2.64301 0.84006,0.32237 1.52739,1.2271 1.52739,2.01051 0,0.78342 -0.675,1.68342 -1.5,2 -0.825,0.31659 -1.5,1.63663 -1.5,2.93344 0,1.30443 -0.86074,2.81848 -1.92662,3.38892 -1.05964,0.5671 -2.85964,3.52482 -4,6.5727 -1.14036,3.04788 -2.07689,6.31221 -2.08118,7.25408 -0.004,0.94187 -1.08929,2.21377 -2.4111,2.82645 -1.32181,0.61268 -2.98022,0.7574 -3.68534,0.32161 z m 114.75372,-6.40663 c -0.31048,-0.80908 0.1494,-2.18496 1.02195,-3.05751 0.87255,-0.87255 2.24023,-1.33557 3.0393,-1.02894 0.79906,0.30663 1.71948,0.55751 2.04537,0.55751 0.32589,0 -0.46435,1.125 -1.7561,2.5 -1.29175,1.375 -2.67204,2.5 -3.06733,2.5 -0.39528,0 -0.97272,-0.66198 -1.28319,-1.47106 z m 7.92637,-7.19187 c -0.34671,-0.9035 0.12219,-2.45092 1.05503,-3.48169 C 479.56009,695.82862 481.65841,695 483.3293,695 h 3.01933 l -2.42432,2.59182 c -1.33337,1.4255 -3.16683,2.99226 -4.07435,3.48169 -1.17755,0.63505 -1.82874,0.42417 -2.27411,-0.73644 z M 486,691.547 c 0,-1.97719 0.71647,-2.65082 3.69377,-3.47289 2.03158,-0.56095 3.89334,-0.82034 4.13725,-0.57642 0.24391,0.24391 -1.01588,1.80671 -2.79953,3.47289 C 489.24784,692.63676 487.38608,694 486.89424,694 486.40241,694 486,692.89615 486,691.547 Z m 8.03327,-6.597 c 0.0183,-0.7975 0.87793,-2.4625 1.91029,-3.7 1.03236,-1.2375 2.49537,-2.25 3.25113,-2.25 0.75575,0 2.18873,-1.37906 3.18439,-3.06458 0.99566,-1.68552 2.90489,-3.56331 4.24273,-4.17287 1.76762,-0.80539 2.7328,-0.80794 3.53138,-0.009 0.79858,0.79858 -0.50708,2.6124 -4.77713,6.63641 -3.23183,3.04561 -6.57356,5.55388 -7.42606,5.57394 -0.8525,0.0201 -2.09,0.57646 -2.75,1.23646 -0.93333,0.93333 -1.19261,0.87778 -1.16673,-0.25 z M 374.2,680.8 c -0.66,-0.66 -1.2,-1.68054 -1.2,-2.26787 0,-0.58732 1.14913,-2.75896 2.55363,-4.82587 1.4045,-2.0669 2.9795,-3.4948 3.5,-3.17311 0.5205,0.32168 0.94637,1.4326 0.94637,2.46871 0,1.0361 -0.94445,3.48454 -2.09878,5.44098 -1.15432,1.95644 -2.18932,3.55716 -2.3,3.55716 -0.11067,0 -0.74122,-0.54 -1.40122,-1.2 z M 513,667 c 0,-0.55 0.45,-1 1,-1 0.55,0 1,0.45 1,1 0,0.55 -0.45,1 -1,1 -0.55,0 -1,-0.45 -1,-1 z m -131.981,-2.25 c 0.0104,-0.6875 1.35733,-3.275 2.99307,-5.75 1.63574,-2.475 3.41072,-5.175 3.94441,-6 0.53369,-0.825 2.08637,-4.04522 3.4504,-7.15604 1.36403,-3.11083 2.89698,-5.91372 3.40656,-6.22866 0.50958,-0.31494 2.1836,-3.05722 3.72005,-6.09396 1.53645,-3.03674 3.16997,-5.52134 3.63003,-5.52134 0.46006,0 0.83648,0.42344 0.83648,0.94098 0,0.51754 -0.45,1.2191 -1,1.55902 -0.55,0.33992 -1.00689,2.27898 -1.01531,4.30902 -0.008,2.03004 -0.41301,4.31905 -0.89908,5.0867 -0.48607,0.76764 -1.60418,1.11926 -2.48469,0.78138 -1.25781,-0.48267 -1.61289,0.0755 -1.65679,2.60428 -0.0307,1.77024 -0.87387,5.24362 -1.87364,7.71862 -1.24206,3.0748 -2.49121,4.60121 -3.94413,4.81955 -1.33732,0.20097 -2.12636,1.04754 -2.12636,2.28139 0,1.079 -0.675,2.22085 -1.5,2.53743 -0.825,0.31659 -1.5,1.65246 -1.5,2.96862 0,1.72634 -0.55718,2.39301 -2,2.39301 -1.1,0 -1.99145,-0.5625 -1.981,-1.25 z m 138.62048,0.55615 C 519.28777,664.95443 519,664.29167 519,663.83333 519,663.375 519.675,663 520.5,663 c 0.825,0 1.5,0.42344 1.5,0.94098 0,0.51754 -0.38723,1.18031 -0.86052,1.47282 -0.47329,0.2925 -1.14829,0.24406 -1.5,-0.10765 z m 3.54802,-4.36865 c 0.24063,-0.72187 1.02813,-1.50937 1.75,-1.75 0.75,-0.25 1.125,0.125 0.875,0.875 -0.24063,0.72187 -1.02813,1.50937 -1.75,1.75 -0.75,0.25 -1.125,-0.125 -0.875,-0.875 z m 6.15751,-4.76624 c 0.91025,-1.00581 1.65499,-2.35581 1.65499,-3 0,-0.64419 0.675,-1.17126 1.5,-1.17126 0.825,0 1.5,0.37156 1.5,0.82569 0,0.45412 -1.0415,1.80412 -2.31445,3 -1.27295,1.19587 -2.69269,2.17431 -3.15499,2.17431 -0.46229,0 -0.0958,-0.82293 0.81445,-1.82874 z M 535,650.63486 c 0,-0.75083 0.93266,-2.55083 2.07258,-4 1.13992,-1.44917 2.93992,-2.63486 4,-2.63486 1.06008,0 1.92742,0.40338 1.92742,0.89641 0,0.49302 -1.59066,2.29302 -3.5348,4 -1.94413,1.70697 -3.74413,3.10359 -4,3.10359 C 535.20934,652 535,651.38569 535,650.63486 Z m 9,-8.42086 c 0,-1.04721 0.82293,-2.64877 1.82874,-3.55901 1.00581,-0.91025 2.35581,-1.65499 3,-1.65499 0.64419,0 1.17126,0.60526 1.17126,1.34501 0,0.73976 -0.7875,2.02131 -1.75,2.8479 -0.9625,0.82658 -2.3125,1.82289 -3,2.214 -0.81132,0.46156 -1.25,0.0429 -1.25,-1.19291 z m 7.46487,-6.27084 c -0.35923,-0.58125 -0.37722,-2.15625 -0.04,-3.5 0.38099,-1.518 1.33235,-2.44316 2.51235,-2.44316 1.04454,0 2.61097,-0.27314 3.48095,-0.60699 0.87267,-0.33487 1.58179,-0.0956 1.58179,0.5337 0,0.62739 -1.36552,2.47553 -3.03448,4.10699 -1.66896,1.63147 -3.2174,2.9663 -3.44098,2.9663 -0.22358,0 -0.70043,-0.47558 -1.05967,-1.05684 z M 561,625.55902 c 0,-0.79254 0.45,-1.7191 1,-2.05902 0.55,-0.33992 1.47185,-0.32641 2.04856,0.03 0.7168,0.44301 0.67806,1.09446 -0.12245,2.05902 C 563.28206,626.36506 562.36021,627 561.87756,627 561.3949,627 561,626.35156 561,625.55902 Z m -155.73809,-1.39715 c -0.92672,-0.57274 -0.71706,-1.7234 0.85817,-4.70989 1.14647,-2.17359 2.47095,-4.36197 2.94329,-4.86307 0.47235,-0.5011 2.00132,-1.0329 3.39772,-1.18178 1.66242,-0.17724 2.53891,0.22359 2.53891,1.16109 0,0.78748 -0.87149,1.43178 -1.93664,1.43178 -1.43729,0 -2.01744,0.80874 -2.25,3.13652 -0.17683,1.76995 -1.18731,3.7131 -2.31925,4.45988 -1.10323,0.72786 -2.55773,0.98232 -3.2322,0.56547 z m 162.214,-3.89967 c 0.38668,-2.06921 1.16789,-4.3247 1.73602,-5.0122 0.56813,-0.6875 2.59036,-1.25 4.49385,-1.25 2.33515,0 3.31872,0.40659 3.02381,1.25 -0.24039,0.6875 -1.17598,1.11821 -2.07907,0.95714 -1.04502,-0.18638 -2.24862,0.97923 -3.31051,3.20604 -0.91768,1.92439 -2.32071,3.74917 -3.11784,4.05506 -1.17798,0.45203 -1.3177,-0.14821 -0.74626,-3.20604 z M 413.39626,608.59026 c -0.29753,-0.77536 0.17815,-2.80036 1.05707,-4.5 0.87891,-1.69964 2.03647,-3.09026 2.57235,-3.09026 0.53588,0 0.97432,1.15458 0.97432,2.56574 0,1.41116 -0.46583,3.43616 -1.03518,4.5 -0.56935,1.06384 -1.48348,1.93426 -2.03139,1.93426 -0.54791,0 -1.23964,-0.63438 -1.53717,-1.40974 z M 583,608.05195 c 0,-1.1631 0.69441,-2.38119 1.54313,-2.70687 0.84872,-0.32569 1.8453,-0.28998 2.21463,0.0793 0.36932,0.36932 0.20527,1.41063 -0.36457,2.31401 -0.56984,0.90339 -1.56643,1.81931 -2.21463,2.03537 C 583.52151,609.99283 583,609.23091 583,608.05195 Z m 7.50167,-6.04925 C 590.16083,601.45122 590.16008,600.55 590.5,600 c 0.33992,-0.55 1.49148,-1 2.55902,-1 1.06754,0 1.94098,0.43417 1.94098,0.96482 0,0.53065 -0.87269,1.43186 -1.93931,2.0027 -1.28965,0.6902 -2.14691,0.70199 -2.55902,0.0352 z m -171.04061,-2.06571 c -0.36134,-0.58466 0.0621,-1.85759 0.94098,-2.82874 C 421.28092,596.1371 422,594.1903 422,592.78204 c 0,-1.40826 0.92887,-3.62282 2.06416,-4.92126 2.06416,-2.36078 2.06416,-2.36078 1.44717,4.13922 -0.40601,4.27738 -1.17719,6.92743 -2.25529,7.75 -0.90106,0.6875 -1.97573,1.25 -2.38815,1.25 -0.41242,0 -1.0455,-0.47836 -1.40683,-1.06301 z m 178.92763,-5.36646 c -0.31125,-0.81111 -0.27448,-1.94631 0.0817,-2.52264 0.3562,-0.57634 1.73195,-1.04789 3.05723,-1.04789 1.53858,0 2.23323,0.45963 1.92168,1.27151 -0.26836,0.69933 -1.38945,1.83453 -2.49131,2.52265 -1.65271,1.03213 -2.10245,0.99299 -2.56931,-0.22363 z m 7.10578,-6.57948 c -0.34296,-0.55492 -0.33953,-1.90387 0.008,-2.99767 0.34716,-1.0938 1.69061,-2.25463 2.98546,-2.57961 1.29484,-0.32499 3.17734,-0.41608 4.18335,-0.20243 1.56725,0.33284 1.3487,0.84656 -1.52667,3.58855 -1.84566,1.76006 -3.7316,3.20011 -4.19098,3.20011 -0.45937,0 -1.11583,-0.45403 -1.45879,-1.00895 z m -177.06552,-4.31561 c -0.27955,-0.72851 0.51228,-3.54101 1.75964,-6.25 l 2.26792,-4.92544 0.33156,4.87294 c 0.18235,2.68012 0.0938,5.49262 -0.19687,6.25 C 432.30056,584.38032 431.35952,585 430.5,585 c -0.85952,0 -1.7915,-0.59605 -2.07105,-1.32456 z M 614,578.56739 c 0,-1.49291 0.71817,-2.66055 1.85912,-3.02268 1.02252,-0.32453 2.52542,-0.33438 3.33979,-0.0219 0.81436,0.31251 2.0415,-0.10758 2.72697,-0.93352 0.68546,-0.82593 0.9811,-1.9308 0.65697,-2.45526 -0.32414,-0.52446 -0.31473,-1.66917 0.0209,-2.54381 0.33563,-0.87463 1.49168,-1.59024 2.56899,-1.59024 1.07731,0 2.86771,-0.48646 3.97866,-1.08102 1.11095,-0.59456 2.21295,-0.88798 2.44889,-0.65203 0.23594,0.23594 -3.1997,3.6474 -7.63475,7.58102 C 619.53047,577.78158 615.47389,581 614.9509,581 614.4279,581 614,579.90532 614,578.56739 Z M 436,567.98013 c 0,-1.11093 1.13065,-3.81093 2.51254,-6 1.3819,-2.18907 2.65778,-3.98013 2.83528,-3.98013 0.17751,0 0.2755,2.1375 0.21775,4.75 -0.0577,2.6125 -0.46017,5.3125 -0.89429,6 -0.43412,0.6875 -1.66276,1.25 -2.7303,1.25 C 436.6603,570 436,569.31286 436,567.98013 Z m 195.44615,-5.06726 c -0.36954,-0.59793 -0.28359,-1.43983 0.19098,-1.87089 0.47458,-0.43107 2.07279,-1.06851 3.55158,-1.41654 1.4788,-0.34803 2.94883,-0.21192 3.26673,0.30247 0.31791,0.51438 -0.42964,1.64104 -1.66122,2.50367 -1.23158,0.86263 -2.78755,1.56842 -3.45771,1.56842 -0.67016,0 -1.52082,-0.48921 -1.89036,-1.08713 z m 8.89488,-7.46654 c -0.33363,-0.86942 -0.19528,-1.99208 0.30744,-2.4948 0.50272,-0.50272 2.40805,-1.21283 4.23408,-1.57804 2.85624,-0.57125 3.27097,-0.40947 2.96875,1.15807 -0.19322,1.00214 -1.82558,2.4236 -3.62748,3.15881 -2.86343,1.16832 -3.35261,1.13758 -3.88279,-0.24404 z m -194.67436,-3.113 C 445.3,551.96667 445,550.16667 445,548.33333 445,546.5 445.46114,545 446.02475,545 c 0.56361,0 1.45099,1.12109 1.97195,2.49132 0.52096,1.37022 0.68667,3.17022 0.36826,4 -0.31842,0.82977 -0.90579,1.50868 -1.30528,1.50868 -0.39949,0 -1.02635,-0.3 -1.39301,-0.66667 z m 205.87604,-5.26423 c -0.31644,-0.512 -0.23049,-1.12478 0.19098,-1.36174 0.42147,-0.23697 2.11631,-0.72962 3.76631,-1.09479 l 3,-0.66395 -2.5,2.00345 c -1.375,1.1019 -2.81094,2.01346 -3.19098,2.02569 -0.38004,0.0122 -0.94988,-0.39667 -1.26631,-0.90866 z m -433.3302,-2.2114 c 0.70812,-1.18301 2.18749,-3.76496 3.28749,-5.73766 1.1,-1.97269 2.45,-3.36922 3,-3.10338 0.55,0.26584 1,2.05834 1,3.98334 v 3.5 l 107.75012,0.5 c 70.58209,0.32753 107.83632,0.84495 108,1.5 0.16519,0.66108 -37.80619,1.08619 -112.03761,1.25431 -112.28749,0.25432 -112.28749,0.25432 -111,-1.89661 z m 442.28031,-4.86933 c -0.35496,-0.57433 0.40144,-1.9167 1.6809,-2.98304 1.27945,-1.06633 2.88878,-1.95376 3.57628,-1.97206 0.6875,-0.0183 1.25,0.34699 1.25,0.81174 0,0.46476 -0.7875,1.52131 -1.75,2.3479 -0.9625,0.82658 -2.28141,1.80367 -2.9309,2.1713 -0.6495,0.36763 -1.47133,0.1985 -1.82628,-0.37584 z M 668,532.46862 c 0,-0.84227 0.7875,-1.83205 1.75,-2.19952 0.9625,-0.36746 2.46545,-1.36584 3.3399,-2.21861 0.87444,-0.85277 1.87281,-2.33799 2.21861,-3.30049 0.3458,-0.9625 1.31784,-1.75 2.16011,-1.75 0.84226,0 1.53915,-0.5625 1.54866,-1.25 0.01,-0.6875 1.08542,-2.2625 2.39094,-3.5 1.30552,-1.2375 2.87275,-2.25 3.48273,-2.25 0.60998,0 1.10905,0.60372 1.10905,1.34159 0,0.73788 -1.0125,2.35004 -2.25,3.58259 -1.2375,1.23254 -4.91873,4.67883 -8.1805,7.6584 C 672.30772,531.56216 669.27022,534 668.8195,534 668.36877,534 668,533.31088 668,532.46862 Z m -442,-1.05435 c 0,-0.32216 3.65554,-7.99162 8.12341,-17.04326 4.46788,-9.05163 8.34847,-16.23246 8.62354,-15.95739 0.27507,0.27507 0.1396,1.30703 -0.30106,2.29325 -0.44065,0.98622 -0.90702,3.49976 -1.03637,5.58565 -0.12936,2.08588 -0.76758,4.43399 -1.41827,5.21803 -0.65069,0.78403 -1.70241,1.3274 -2.33716,1.20748 -0.69731,-0.13174 -1.28059,1.56231 -1.47372,4.28016 -0.17579,2.47401 -0.89489,5.17401 -1.598,6 -0.7031,0.826 -1.55765,2.28931 -1.89899,3.25181 -0.34133,0.9625 -1.53473,1.75 -2.652,1.75 -1.36471,0 -2.03138,0.65637 -2.03138,2 0,1.1 -0.45,2 -1,2 -0.55,0 -1,-0.26358 -1,-0.58573 z M 689,513.58333 C 689,512.7125 689.7125,512 690.58333,512 c 0.87084,0 1.40521,0.53437 1.1875,1.1875 -0.2177,0.65313 -0.9302,1.36563 -1.58333,1.58333 -0.65313,0.21771 -1.1875,-0.31666 -1.1875,-1.1875 z m 6.77939,-6.33333 c -0.24963,-0.9625 -0.26462,-2.3125 -0.0333,-3 0.23132,-0.6875 1.0722,-1.25 1.86863,-1.25 0.79643,0 1.70927,0.68073 2.02854,1.51273 0.31927,0.83201 0.025,2.18201 -0.65383,3 -0.67888,0.818 -1.57674,1.48727 -1.99524,1.48727 -0.41851,0 -0.96517,-0.7875 -1.2148,-1.75 z M 706,500 c 0,-0.73333 0.3,-1.03333 0.66667,-0.66667 0.36666,0.36667 0.36666,0.96667 0,1.33334 C 706.3,501.03333 706,500.73333 706,500 Z m 5,-4.60318 c 0,-1.07349 0.70052,-2.95194 1.5567,-4.17431 0.85619,-1.22238 1.98119,-2.22251 2.5,-2.22251 0.51882,0 0.9433,0.82156 0.9433,1.82569 0,1.00412 -1.125,2.88256 -2.5,4.17431 -2.34388,2.20197 -2.5,2.22675 -2.5,0.39682 z m -465.59913,-0.79455 c -0.295,-0.76875 0.82248,-4.03125 2.48329,-7.25 l 3.01964,-5.85227 0.0481,5.02749 c 0.0287,3.00295 -0.57878,5.92249 -1.5086,7.25 -0.85619,1.22238 -1.99531,2.22251 -2.53139,2.22251 -0.53607,0 -1.21604,-0.62898 -1.51104,-1.39773 z m 474.05848,-7.56618 c 1.62764,-1.0729 3.15426,-1.75581 3.3925,-1.51757 0.23823,0.23823 -0.13607,1.11902 -0.83179,1.95731 -0.69572,0.8383 -2.22235,1.5212 -3.3925,1.51758 -1.88802,-0.006 -1.79436,-0.22622 0.83179,-1.95732 z M 727,480.62244 c 0,-0.75765 0.65529,-1.92139 1.4562,-2.58609 0.8009,-0.66469 1.95522,-0.90011 2.56514,-0.52316 0.75942,0.46934 0.56678,1.28445 -0.61118,2.58609 C 729.46408,481.14467 728.30977,482 727.84501,482 727.38026,482 727,481.3801 727,480.62244 Z m -474,-2.30672 c 0,-0.92635 0.94014,-3.62635 2.08921,-6 1.14906,-2.37364 2.48792,-4.31572 2.97525,-4.31572 0.49835,0 0.4716,1.09006 -0.0612,2.49132 -0.52096,1.37022 -0.70017,3.13506 -0.39824,3.92186 0.30192,0.78679 0.0485,2.3657 -0.56324,3.50868 C 256.43012,479.06484 255.27047,480 254.46482,480 253.65917,480 253,479.24208 253,478.31572 Z M 735,473.7 c 0,-0.715 0.54,-1.84 1.2,-2.5 0.66,-0.66 2.08844,-1.2 3.17431,-1.2 1.86594,0 1.84539,0.13724 -0.37431,2.5 -1.29175,1.375 -2.72019,2.5 -3.17431,2.5 C 735.37156,475 735,474.415 735,473.7 Z m 8,-8.23138 c 0,-1.39227 0.70525,-2.80202 1.56722,-3.13279 0.86197,-0.33077 2.06633,-0.10228 2.67637,0.50776 0.8122,0.8122 0.61885,1.65093 -0.72221,3.13278 C 745.51414,467.08937 744.30977,468 743.84501,468 743.38026,468 743,466.86088 743,465.46862 Z m -481.80994,-1.33 c -1.03458,-0.65611 -0.7472,-2.01928 1.36707,-6.48468 1.47235,-3.10967 2.97569,-5.65394 3.34073,-5.65394 0.36505,0 0.52966,2.32568 0.36581,5.16817 -0.16386,2.8425 -0.79531,5.7675 -1.40324,6.5 -0.60793,0.73251 -1.38772,1.32494 -1.73287,1.31652 -0.34516,-0.008 -1.21703,-0.38915 -1.9375,-0.84607 z m 489.46764,-5.33957 c -0.32571,-1.24551 -0.22246,-2.63429 0.22945,-3.0862 0.4519,-0.4519 2.26887,-1.00479 4.03771,-1.22865 2.08677,-0.2641 3.08435,-0.0118 2.84094,0.71839 -0.20632,0.61897 -1.75681,2.19092 -3.44552,3.49321 -3.07038,2.36781 -3.07038,2.36781 -3.66258,0.10325 z M 759,449.96862 c 0,-1.11727 0.70525,-2.30202 1.56722,-2.63279 0.86197,-0.33077 2.0579,-0.11071 2.65762,0.48901 0.7872,0.7872 0.73446,1.51928 -0.18967,2.63278 C 762.33114,451.30593 761.13521,452 760.37756,452 759.6199,452 759,451.08588 759,449.96862 Z m -489.63836,-2.46858 c -0.31657,-0.82497 0.0898,-3.16822 0.90308,-5.20722 0.81326,-2.039 1.94684,-3.86334 2.51906,-4.05408 0.66191,-0.22064 0.86053,1.21897 0.54598,3.95723 -0.27194,2.36722 -0.66826,4.86653 -0.88071,5.55403 -0.21245,0.6875 -0.86453,1.25 -1.44905,1.25 -0.58452,0 -1.32178,-0.67498 -1.63836,-1.49996 z M 768,442 c 0,-1.31306 0.66667,-2 1.94098,-2 1.06754,0 2.2191,-0.45 2.55902,-1 0.33992,-0.55 1.26648,-1 2.05902,-1 0.79254,0 1.44098,0.45661 1.44098,1.0147 0,0.55808 -1.4625,1.9064 -3.25,2.99626 -1.7875,1.08986 -3.5875,1.98325 -4,1.9853 C 768.3375,443.99832 768,443.1 768,442 Z m 8,-8.38871 c 0,-0.80286 1.51962,-1.67379 3.60218,-2.06448 1.9812,-0.37168 3.82627,-0.4517 4.10014,-0.17782 0.27387,0.27387 0.1771,1.01709 -0.21504,1.6516 -0.39215,0.6345 -1.56176,0.93169 -2.59914,0.66041 -1.03738,-0.27128 -2.13815,-0.0855 -2.44616,0.41288 C 778.13397,434.59225 777.45852,435 776.94098,435 776.42344,435 776,434.37508 776,433.61129 Z m -498.78662,-1.45826 c -1.02079,-0.64767 -0.88293,-1.75812 0.66724,-5.37452 1.07462,-2.507 2.4411,-4.85931 3.03662,-5.22736 0.72027,-0.44515 1.08276,0.95754 1.08276,4.18983 0,2.67246 -0.54,5.39902 -1.2,6.05902 -0.66,0.66 -1.4475,1.19311 -1.75,1.18469 -0.3025,-0.008 -1.12898,-0.38267 -1.83662,-0.83166 z M 784,426.73997 c 0,-0.78042 1.14617,-1.94117 2.54705,-2.57945 1.40088,-0.63829 3.42588,-1.16052 4.5,-1.16052 1.07412,0 1.95295,0.3949 1.95295,0.87756 0,0.48265 -0.5625,1.33069 -1.25,1.88452 -0.6875,0.55384 -2.7125,1.31969 -4.5,1.7019 -2.46621,0.52734 -3.25,0.35273 -3.25,-0.72401 z M 285,423.5 c 0,-0.275 0.225,-0.5 0.5,-0.5 0.275,0 0.5,0.225 0.5,0.5 0,0.275 -0.225,0.5 -0.5,0.5 -0.275,0 -0.5,-0.225 -0.5,-0.5 z m 510.40417,-4.49583 c -0.64681,-0.64681 -41.95637,-1.08491 -117.8667,-1.25 -88.14037,-0.19169 -116.96671,-0.54174 -117.26076,-1.42397 -0.28592,-0.85782 4.6257,-1.25786 18.41669,-1.5 C 589.03703,414.64859 644.075,414.725 701,415 c 103.5,0.5 103.5,0.5 100,2.74626 -1.925,1.23545 -3.7475,2.24795 -4.05,2.25 -0.3025,0.002 -0.99812,-0.44438 -1.54583,-0.99209 z M 285,415.96788 c 0,-1.11766 0.76391,-3.70516 1.69757,-5.75 l 1.69757,-3.71788 0.37611,3.38837 c 0.20686,1.86361 0.10938,4.45111 -0.21662,5.75 C 288.22862,416.93727 287.29547,418 286.48095,418 285.65886,418 285,417.09592 285,415.96788 Z M 561.4673,404.75 c -0.3747,-0.9625 -0.42226,-2.425 -0.10567,-3.25 0.31658,-0.825 1.23817,-1.5 2.04797,-1.5 0.8098,0 1.72151,0.40313 2.02602,0.89584 0.30451,0.49271 -0.3105,1.95521 -1.36669,3.25 -1.73375,2.12542 -1.98654,2.18412 -2.60163,0.60416 z M 293.091,401.60965 c -1.00199,-1.20733 -0.80104,-2.40505 1.05701,-6.30019 l 2.2942,-4.80946 0.33994,4.90324 c 0.22562,3.25422 -0.12986,5.37304 -1.057,6.30018 -1.19594,1.19594 -1.57498,1.18245 -2.63415,-0.0938 z m 274.65082,-5.1799 c -0.30683,-1.60509 -0.34771,-3.25842 -0.0908,-3.67405 0.25687,-0.41564 1.34049,-0.7557 2.40803,-0.7557 1.06754,0 1.94098,0.62515 1.94098,1.38922 0,0.76406 -0.83257,2.41739 -1.85015,3.67405 -1.85015,2.28484 -1.85015,2.28484 -2.40803,-0.63352 z M 575.4673,387.75 c -0.3747,-0.9625 -0.42226,-2.425 -0.10567,-3.25 0.31658,-0.825 1.23817,-1.5 2.04797,-1.5 0.8098,0 1.72151,0.40313 2.02602,0.89584 0.30451,0.49271 -0.3105,1.95521 -1.36669,3.25 -1.73375,2.12542 -1.98654,2.18412 -2.60163,0.60416 z m -274.58578,-2 c -0.0652,-0.6875 -0.045,-1.925 0.0449,-2.75 0.0899,-0.825 0.64778,-2.7375 1.2398,-4.25 0.59202,-1.5125 1.47181,-2.75 1.95508,-2.75 0.48327,0 0.87868,1.7632 0.87868,3.91821 0,2.15502 -0.27314,4.63002 -0.60699,5.5 -0.33384,0.86999 -1.23384,1.58179 -2,1.58179 -0.76615,0 -1.44633,-0.5625 -1.51149,-1.25 z M 583,377.63528 c 0,-1.26607 0.3375,-2.63945 0.75,-3.05195 0.4125,-0.4125 0.75,-1.2375 0.75,-1.83333 0,-0.59583 0.52433,-1.25811 1.16517,-1.47172 0.76349,-0.2545 1.07114,0.75098 0.8924,2.91666 -0.15002,1.81778 -0.33684,3.59442 -0.41517,3.94807 -0.0783,0.35366 -0.8174,0.90203 -1.6424,1.21862 -1.06562,0.40891 -1.5,-0.091 -1.5,-1.72635 z m -274.65284,-7.17299 c -0.32454,-0.84573 0.1768,-3.54573 1.11409,-6 0.93729,-2.45426 2.11695,-4.46229 2.62146,-4.46229 0.50451,0 0.91729,1.54571 0.91729,3.4349 0,1.8892 -0.43886,4.5892 -0.97525,6 -0.53639,1.41081 -1.45051,2.5651 -2.03138,2.5651 -0.58088,0 -1.32167,-0.69197 -1.64621,-1.53771 z M 591,367.73678 c 0,-1.41527 0.27314,-3.28501 0.60699,-4.15499 0.33384,-0.86999 1.23384,-1.58179 2,-1.58179 0.79466,0 1.39301,1.00727 1.39301,2.34501 0,1.28976 -0.9,3.1595 -2,4.15499 -1.95077,1.76542 -2,1.74663 -2,-0.76322 z m 6,-7.28173 c 0,-0.8152 0.41715,-2.26358 0.927,-3.21862 0.50985,-0.95504 1.17073,-2.52393 1.46862,-3.48643 0.29788,-0.9625 1.45573,-1.75 2.573,-1.75 1.11726,0 2.03138,0.50938 2.03138,1.13197 0,0.62258 -0.90911,2.60293 -2.02024,4.40077 -1.11113,1.79785 -2.68613,3.52434 -3.5,3.83665 C 597.58358,361.71329 597,361.35269 597,360.45505 Z M 316.66667,357.33333 C 316.3,356.96667 316,355.60221 316,354.30121 c 0,-1.30099 0.72029,-4.03849 1.60064,-6.08333 1.53833,-3.57314 1.64106,-3.63151 2.63877,-1.49935 0.74165,1.58492 0.67579,3.51271 -0.2306,6.75 -0.6978,2.49231 -1.58525,4.53147 -1.9721,4.53147 -0.38686,0 -1.00338,-0.3 -1.37004,-0.66667 z M 606.42362,350 c 0.30199,-1.375 0.55522,-3.5125 0.56273,-4.75 0.009,-1.5154 0.61603,-2.25 1.85866,-2.25 1.01476,0 2.52932,-0.7875 3.36569,-1.75 0.83638,-0.9625 1.81469,-2.9875 2.17404,-4.5 0.44064,-1.85464 1.29834,-2.75 2.63431,-2.75 1.08952,0 1.98095,0.67024 1.98095,1.48941 0,0.81918 -2.1375,3.9319 -4.75,6.91716 -2.6125,2.98526 -5.56573,6.47752 -6.56272,7.76058 C 605.87456,352.5 605.87456,352.5 606.42362,350 Z M 324,338.96788 c 0,-1.66766 0.62908,-4.53773 1.39797,-6.37792 0.76888,-1.84019 1.9468,-3.685 2.61759,-4.09958 0.91206,-0.56368 1.07816,0.22513 0.65867,3.12793 -0.30853,2.13493 -0.86252,5.34419 -1.2311,7.13169 -0.36857,1.7875 -1.29405,3.25 -2.05663,3.25 C 324.50935,342 324,340.88612 324,338.96788 Z m 297.18664,-10.20969 c 0.20661,-2.13743 0.91056,-3.35495 2.06638,-3.57391 0.96417,-0.18265 2.03124,0.39293 2.37129,1.27906 0.34576,0.90105 -0.16463,2.47622 -1.15802,3.57391 -0.97694,1.07951 -2.18503,1.96275 -2.68464,1.96275 -0.4996,0 -0.76736,-1.45881 -0.59501,-3.24181 z M 331,325.21877 c 0,-1.05618 0.50911,-3.44997 1.13135,-5.31955 0.62224,-1.86957 1.72104,-4.03195 2.44178,-4.80528 1.11104,-1.19213 1.40159,-1.03998 1.90959,1 0.32954,1.32333 0.22492,4.20606 -0.2325,6.40606 -0.63277,3.04338 -1.36003,4.07642 -3.04094,4.31955 C 331.58628,327.0543 331,326.6295 331,325.21877 Z m 297.70185,-2.85025 c -0.34732,-0.34732 -0.18148,-1.47232 0.36852,-2.5 0.55,-1.02769 1.65916,-1.86852 2.46481,-1.86852 0.80565,0 1.46482,0.25458 1.46482,0.56574 0,0.31116 -0.46583,1.43616 -1.03518,2.5 -0.56935,1.06384 -1.39435,1.93426 -1.83334,1.93426 -0.43898,0 -1.08231,-0.28417 -1.42963,-0.63148 z m 3.92493,-7.07507 C 632.28205,314.94872 632,314.31278 632,313.88025 c 0,-0.43253 1.59109,-1.54144 3.53576,-2.46424 1.94466,-0.92281 3.78972,-1.42386 4.10013,-1.11345 0.31041,0.31041 0.26578,1.04752 -0.0992,1.63802 -0.36495,0.5905 -1.92796,1.7275 -3.47335,2.52665 -1.54539,0.79915 -3.09185,1.17095 -3.43659,0.82622 z m -293.0799,-4.21759 c -0.35002,-0.56634 -0.12324,-2.9526 0.50396,-5.30279 0.62719,-2.35019 2.58906,-6.85384 4.3597,-10.00812 2.48138,-4.42039 3.49101,-5.4634 4.40441,-4.55 C 349.46673,291.86673 350,293.435 350,294.7 c 0,1.75977 -0.56254,2.3 -2.39496,2.3 -2.00906,0 -2.47817,0.60425 -2.91131,3.75 -0.28398,2.0625 -0.90532,5.29136 -1.38074,7.17523 -0.47542,1.88388 -1.37409,3.59514 -1.99705,3.80279 -0.62296,0.20765 -1.41904,-0.0858 -1.76906,-0.65216 z m 301.12893,-3.73338 C 640.30412,306.97078 640,306.11913 640,305.44991 c 0,-0.66922 1.2375,-1.45448 2.75,-1.74503 1.5125,-0.29055 2.86073,-0.41978 2.99606,-0.28718 0.13533,0.13259 -0.79806,1.22197 -2.07419,2.42084 -1.27613,1.19886 -2.62436,1.87564 -2.99606,1.50394 z m 5.81083,-8.38456 c -0.33865,-1.06701 -0.3672,-2.34217 -0.0634,-2.83368 0.30377,-0.4915 1.88527,-1.08928 3.51443,-1.3284 2.96213,-0.43474 2.96213,-0.43474 1.31516,2.35335 -0.90583,1.53345 -2.21024,3.00424 -2.89869,3.26842 -0.68845,0.26418 -1.52881,-0.39268 -1.86747,-1.45969 z m 6.18003,-6.62459 C 652.3,291.96667 652,291.28053 652,290.80858 c 0,-0.47194 1.18741,-1.30953 2.63869,-1.86131 1.45128,-0.55177 2.87352,-0.7684 3.16053,-0.48138 0.28702,0.28702 -0.29513,1.42461 -1.29367,2.52798 -0.99854,1.10337 -2.12078,2.00613 -2.49387,2.00613 -0.37309,0 -0.97835,-0.3 -1.34501,-0.66667 z M 349,287.43426 c 0,-0.86116 0.51712,-2.53199 1.14915,-3.71295 1.14915,-2.14721 1.14915,-2.14721 1.96819,0.0668 0.45047,1.21774 0.56021,2.88857 0.24386,3.71295 C 352.04485,288.3255 351.15917,289 350.39301,289 349.62686,289 349,288.29542 349,287.43426 Z m 310,-5.81768 c 0,-0.76089 1.2375,-1.62115 2.75,-1.9117 1.5125,-0.29055 2.92663,-0.35388 3.1425,-0.14074 0.21588,0.21314 -0.17672,1.0734 -0.87244,1.91169 C 663.32434,282.31413 661.91021,283 660.87756,283 659.8449,283 659,282.37746 659,281.61658 Z m -305.26644,-1.21635 c -0.32987,-0.32987 -0.10764,-1.67987 0.49385,-3 C 354.8289,276.0801 355.66847,275 356.09313,275 c 0.42465,0 1.05647,0.89597 1.40403,1.99105 0.34756,1.09508 0.35133,2.44508 0.008,3 -0.34296,0.55492 -1.19701,1.00895 -1.89788,1.00895 -0.70087,0 -1.54421,-0.2699 -1.87409,-0.59977 z M 666.6875,275.35417 C 666.30938,274.97604 666,274.06667 666,273.33333 666,272.6 666.933,272 668.07332,272 c 1.39797,0 1.96801,0.54305 1.75,1.66713 -0.17782,0.91693 -0.80144,1.8263 -1.38582,2.02084 -0.58438,0.19453 -1.37188,0.0443 -1.75,-0.3338 z m -309.46906,-5.03029 c 0.70646,-1.55314 2.38598,-4.96138 3.73228,-7.57388 1.3463,-2.6125 2.80814,-4.75 3.24855,-4.75 0.4404,0 0.80073,1.76968 0.80073,3.93261 0,3.01255 -0.45345,4.07654 -1.93819,4.54777 -1.1585,0.3677 -2.06362,1.7022 -2.25,3.31739 -0.2232,1.93428 -0.96062,2.79427 -2.59482,3.02611 -2.1611,0.30658 -2.21443,0.17308 -0.99855,-2.5 z m 314.44823,-1.99055 C 671.3,267.96667 671,267.11842 671,266.44834 c 0,-0.67007 1.17311,-1.98697 2.6069,-2.92643 1.74779,-1.1452 2.93834,-1.37667 3.61261,-0.7024 0.67427,0.67427 0.39188,1.84803 -0.8569,3.56167 -1.02444,1.40578 -2.35011,2.57011 -2.94594,2.5874 -0.59584,0.0173 -1.38334,-0.26858 -1.75,-0.63525 z m 8.00218,-7.99781 C 679.30098,259.96765 679,258.79954 679,257.73971 c 0,-1.09483 0.87578,-2.15597 2.02804,-2.45729 1.38783,-0.36293 1.85194,-1.0852 1.4702,-2.28796 -0.3317,-1.0451 0.0493,-1.99061 0.93993,-2.33236 0.82378,-0.31611 1.74453,-0.1755 2.04612,0.31248 0.30158,0.48797 0.091,1.16988 -0.46798,1.51534 -0.55897,0.34546 -1.01631,1.65681 -1.01631,2.91411 0,1.2573 -0.82402,3.03172 -1.83115,3.94316 -1.00713,0.91145 -2.13213,1.35619 -2.5,0.98833 z m -314.14437,-3.29591 c -0.35947,-0.58163 -0.33679,-2.05561 0.0504,-3.2755 0.38718,-1.2199 1.92695,-4.1829 3.42172,-6.58446 2.13379,-3.42824 2.85587,-4.00651 3.36058,-2.69126 0.35356,0.92135 0.64283,2.58051 0.64283,3.68702 0,1.17083 -0.83606,2.23046 -2,2.53484 -1.25605,0.32847 -2,1.36402 -2,2.78394 0,1.2435 -0.63494,2.78787 -1.41097,3.43192 -0.97374,0.80813 -1.61351,0.8433 -2.06455,0.1135 z m 321.66368,-6.77813 c 0.18414,-0.95618 1.15448,-1.89637 2.1563,-2.0893 1.55997,-0.30042 1.66095,-0.0508 0.70333,1.73852 -0.61498,1.14911 -1.58532,2.0893 -2.1563,2.0893 -0.57098,0 -0.88747,-0.78233 -0.70333,-1.73852 z M 691,244 c 0,-0.55 0.45,-1 1,-1 0.55,0 1,0.45 1,1 0,0.55 -0.45,1 -1,1 -0.55,0 -1,-0.45 -1,-1 z m 3.51672,-2.75 c 0.40188,-0.9625 1.01935,-3.04315 1.37214,-4.62366 0.48067,-2.15337 1.51278,-3.15599 4.11764,-4 2.71876,-0.88093 3.58869,-1.77734 3.99255,-4.11413 0.30664,-1.77431 1.22399,-3.12406 2.25866,-3.32332 0.98603,-0.1899 1.74229,0.27172 1.74229,1.06347 0,0.76946 -1.17443,2.48995 -2.60985,3.82333 -1.43541,1.33337 -4.12982,4.78681 -5.98758,7.67431 -1.85775,2.8875 -3.88146,5.25 -4.49714,5.25 -0.6778,0 -0.83115,-0.69038 -0.38871,-1.75 z M 373,239.96676 c 0,-0.56829 1.13258,-3.26829 2.51685,-6 1.38426,-2.73172 2.91112,-4.96676 3.39301,-4.96676 0.48189,0 1.13518,0.675 1.45177,1.5 0.31658,0.825 0.31658,2.175 0,3 -0.31659,0.825 -1.21371,1.5 -1.99362,1.5 -0.7799,0 -1.68801,1.35 -2.01801,3 -0.33,1.65 -1.21875,3 -1.975,3 -0.75625,0 -1.375,-0.46496 -1.375,-1.03324 z m 8.40954,-15.34189 c -0.32533,-0.8478 0.44563,-3.61811 1.71324,-6.15626 1.26761,-2.53814 2.61055,-4.8038 2.98431,-5.03479 0.37376,-0.231 0.97442,0.75481 1.3348,2.19069 0.41967,1.67207 0.13561,3.19757 -0.79009,4.24308 -0.79493,0.89783 -1.60428,2.49512 -1.79856,3.54954 -0.19428,1.05443 -0.9155,2.10435 -1.60271,2.33316 -0.68721,0.22882 -1.51566,-0.27763 -1.84099,-1.12542 z M 711,219.54705 c 0,-1.34912 0.53162,-3.61972 1.18138,-5.04578 0.81046,-1.77878 1.83084,-2.49997 3.25,-2.29705 1.44583,0.20673 1.96411,0.8925 1.7215,2.2778 -0.19091,1.09011 -1.23405,3.22761 -2.31809,4.75 C 713.75075,220.75441 712.44445,222 711.93191,222 711.41936,222 711,220.89617 711,219.54705 Z m 8.53348,-8.6246 c -0.33831,-0.86765 -0.14397,-2.81673 0.43186,-4.33128 0.57583,-1.51456 1.6067,-2.56737 2.29081,-2.33959 0.68412,0.22779 1.37525,1.09117 1.53585,1.91863 0.1606,0.82747 -0.59347,2.59018 -1.67571,3.91714 -1.6464,2.01869 -2.06815,2.15505 -2.58281,0.8351 z m -329.39874,-1.6086 c -1.15745,-1.25151 -1.09588,-2.07363 0.40446,-5.40079 0.97336,-2.15851 2.31552,-4.37753 2.98259,-4.93114 0.8362,-0.69399 1.57129,-0.5747 2.36703,0.38411 0.81169,0.97803 0.85841,2.16862 0.15743,4.01233 -0.54821,1.4419 -1.45789,2.62164 -2.0215,2.62164 -0.56361,0 -1.02475,0.87344 -1.02475,1.94098 0,1.06754 -0.3375,2.14531 -0.75,2.39504 -0.4125,0.24973 -1.36437,-0.21024 -2.11526,-1.02217 z M 727,201.125 c 0,-1.03125 0.28125,-3.28125 0.625,-5 0.34375,-1.71875 1.03325,-3.125 1.53222,-3.125 0.49898,0 1.28855,1.0125 1.75462,2.25 0.55817,1.48206 0.36775,3.18859 -0.55791,5 -0.77291,1.5125 -1.84373,2.75 -2.37961,2.75 C 727.43844,203 727,202.15625 727,201.125 Z m -328.92705,-8.05876 c -1.19647,-0.7572 -1.03168,-1.67141 1.01987,-5.65797 1.34581,-2.61517 2.94345,-4.92036 3.55029,-5.12264 0.75387,-0.25129 0.88222,0.83304 0.40521,3.42329 -0.38398,2.08509 -1.24277,4.80358 -1.90842,6.04108 -0.66565,1.2375 -1.30693,2.24311 -1.42508,2.23469 -0.11815,-0.008 -0.85699,-0.42172 -1.64187,-0.91845 z M 735,191.2733 c 0,-1.1854 0.41891,-2.41416 0.9309,-2.73059 0.512,-0.31644 1.24024,-0.0748 1.61833,0.53694 0.37808,0.61175 -0.0408,1.84052 -0.93091,2.7306 C 735.12723,193.30135 735,193.25913 735,191.2733 Z m 1.33333,-5.93997 c 0.36667,-0.36666 0.96667,-0.36666 1.33334,0 C 738.03333,185.7 737.73333,186 737,186 c -0.73333,0 -1.03333,-0.3 -0.66667,-0.66667 z m 4.2367,-1.22002 c -0.30141,-0.48768 0.12204,-1.44278 0.94098,-2.12245 0.81894,-0.67966 1.48899,-2.21565 1.48899,-3.4133 0,-1.19766 0.54,-2.71756 1.2,-3.37756 0.66,-0.66 2.235,-1.2 3.5,-1.2 1.83871,0 2.30307,-0.55154 2.31531,-2.75 0.008,-1.5125 0.34592,-3.25913 0.75,-3.88139 0.40408,-0.62226 1.95792,-1.12851 3.45298,-1.125 2.39093,0.006 2.59174,0.24284 1.66746,1.96986 -0.57795,1.07991 -2.50764,3.61116 -4.28819,5.625 -1.78056,2.01384 -4.49683,5.34903 -6.03616,7.41153 -1.53933,2.0625 -3.16881,3.75 -3.62107,3.75 -0.45226,0 -1.0689,-0.39901 -1.3703,-0.88669 z M 406.39722,180.5535 c 0.37889,-1.50964 0.24706,-3.27719 -0.29297,-3.92789 -0.66158,-0.79715 -0.36538,-2.56006 0.90805,-5.40434 1.03945,-2.3217 2.36192,-4.22127 2.93881,-4.22127 0.57689,0 1.03458,1.6875 1.01709,3.75 -0.0175,2.0625 -0.6925,4.62351 -1.5,5.69113 -0.80751,1.06762 -1.4682,2.72856 -1.4682,3.69098 0,0.96242 -0.51563,2.06853 -1.14584,2.45803 -0.81095,0.50119 -0.9445,-0.094 -0.45694,-2.03664 z M 413.5,167 c 0.33992,-0.55 0.84303,-1 1.11803,-1 0.275,0 0.22189,0.45 -0.11803,1 -0.33992,0.55 -0.84303,1 -1.11803,1 -0.275,0 -0.22189,-0.45 0.11803,-1 z m 1.5,-2.5 c 0,-0.275 0.225,-0.5 0.5,-0.5 0.275,0 0.5,0.225 0.5,0.5 0,0.275 -0.225,0.5 -0.5,0.5 -0.275,0 -0.5,-0.225 -0.5,-0.5 z m 343,-2.34501 C 758,160.41974 758.1882,159 758.41821,159 c 0.23002,0 1.13002,-0.27314 2,-0.60699 1.10946,-0.42574 1.58179,-0.0241 1.58179,1.34501 0,1.0736 -0.9,2.76649 -2,3.76198 -1.95985,1.77364 -2,1.74663 -2,-1.34501 z m -343.85254,-0.47731 c -1.00168,-1.20695 -0.96218,-2.18535 0.20058,-4.96823 0.79634,-1.90591 1.94381,-3.77179 2.54993,-4.14639 0.73016,-0.45126 1.10203,0.6241 1.10203,3.18679 0,2.12734 -0.58618,4.66953 -1.30261,5.64932 -1.14917,1.57157 -1.44955,1.60438 -2.54993,0.27851 z m 350.32547,-7.72148 c -0.35481,-0.5741 -0.10127,-1.6991 0.56342,-2.5 0.6647,-0.80091 1.82844,-1.4562 2.58609,-1.4562 0.75766,0 1.37756,0.585 1.37756,1.3 0,0.715 -0.54,1.84 -1.2,2.5 -0.66,0.66 -1.53344,1.2 -1.94098,1.2 -0.40754,0 -1.03128,-0.46971 -1.38609,-1.0438 z M 420,150.55902 c 0,-0.79254 0.47657,-1.73552 1.05905,-2.09551 0.58248,-0.36 0.98267,-1.62405 0.88931,-2.80902 -0.0934,-1.18497 -0.11993,-2.89214 -0.059,-3.79371 0.0609,-0.90156 1.0426,-2.70156 2.18161,-4 2.07091,-2.36078 2.07091,-2.36078 1.55982,4.15154 -0.28111,3.58178 -0.81116,7.29428 -1.17791,8.25 C 424.08609,151.21805 422.93417,152 421.89301,152 420.85186,152 420,151.35156 420,150.55902 Z m 349.00632,-4.44769 c 0.003,-0.33623 1.38263,-1.39463 3.06479,-2.352 1.68215,-0.95737 2.76194,-2.22044 2.39953,-2.80684 -0.36241,-0.58639 -0.38299,-2.16558 -0.0457,-3.50933 0.48317,-1.9251 1.26214,-2.44316 3.6736,-2.44316 2.85999,0 3.0185,-0.19078 2.4205,-2.91343 -0.54029,-2.45993 -0.28025,-3.01708 1.67055,-3.57935 1.27074,-0.36625 3.09794,-0.88553 4.06044,-1.15395 1.14045,-0.31805 1.75,0.0688 1.75,1.11073 0,0.87932 -0.5765,1.81999 -1.28111,2.09038 -0.7046,0.27038 -3.87922,3.8085 -7.0547,7.86249 -3.6652,4.67918 -6.66658,7.54159 -8.2189,7.83834 -1.34491,0.2571 -2.44244,0.19235 -2.43897,-0.14388 z m -339.9645,-12.18947 c 0.6117,-1.14298 0.85701,-2.74313 0.54512,-3.5559 -0.31189,-0.81276 0.17228,-3.1401 1.07592,-5.17186 l 1.643,-3.6941 0.6064,2.9972 c 0.33353,1.64846 0.1624,4.91096 -0.38028,7.25 -0.71264,3.07158 -1.48883,4.2528 -2.79452,4.2528 -1.52061,0 -1.63113,-0.33017 -0.69564,-2.07814 z m 359.62485,-9.58853 C 788.3,123.96667 788,123.12126 788,122.45465 c 0,-0.6666 1.36443,-1.77717 3.03206,-2.46793 1.66764,-0.69076 3.31941,-0.96858 3.67061,-0.61738 0.3512,0.3512 -0.41667,1.76177 -1.70637,3.1346 -1.28971,1.37283 -2.64149,2.49606 -3.00395,2.49606 -0.36246,0 -0.95902,-0.3 -1.32568,-0.66667 z m -352.16112,-4.32435 c -0.37275,-0.60312 -0.20782,-1.66279 0.36651,-2.35482 0.57433,-0.69203 0.79762,-2.20131 0.49619,-3.35396 -0.30142,-1.15266 -0.035,-3.05434 0.59203,-4.22598 0.69177,-1.29259 1.61186,-1.83484 2.33989,-1.379 0.65991,0.41317 25.49983,0.88229 55.19983,1.04248 29.7,0.16018 83.25,0.33297 119,0.38397 35.75,0.051 78.725,0.044 95.5,-0.0156 16.775,-0.0596 34.775,-0.0663 40,-0.015 5.225,0.0513 19.06213,0.003 30.74919,-0.10824 11.68705,-0.11084 21.19372,0.18517 21.12593,0.65781 -0.0678,0.47264 -0.91969,1.87185 -1.89311,3.10935 -0.97342,1.2375 -2.26759,2.25 -2.87593,2.25 C 796.49774,116 796,115.38125 796,114.625 c 0,-0.75625 -1.45751,-1.6665 -3.23891,-2.02278 -1.7814,-0.35628 -77.7189,-0.55357 -168.75,-0.43842 -91.0311,0.11515 -169.29754,0.46291 -173.92542,0.77278 -8.41433,0.56342 -8.41433,0.56342 -9.56889,4.00305 -0.63501,1.8918 -1.64483,3.60305 -2.24403,3.80279 -0.59921,0.19973 -1.39445,-0.13031 -1.7672,-0.73344 z"
         id="path8" />
    </g>
  </g>
</svg>
