<?xml version="1.0" encoding="UTF-8" standalone="no"?>
<!-- Created with Inkscape (http://www.inkscape.org/) -->

<svg
   version="1.1"
   id="svg1"
   width="128"
   height="128"
   viewBox="0 0 128 128"
   xmlns="http://www.w3.org/2000/svg"
   xmlns:svg="http://www.w3.org/2000/svg">
  <defs
     id="defs1" />
  <g
     id="g1">
    <path
       style="fill:#000000"
       d="m 9.5868031,122.73962 c -0.3991333,-0.059 -1.0626326,-0.28695 -1.474443,-0.50644 -0.4118104,-0.2195 -0.9173577,-0.61197 -1.1234384,-0.87217 C 6.782841,121.10081 6.5337792,120.64595 6.435451,120.35021 6.3371229,120.05447 6.1433567,119.025 6.0048595,118.0625 5.8663623,117.1 5.5247499,115.13125 5.2457208,113.6875 4.9666917,112.24375 4.6003813,110.31719 4.4316976,109.40625 4.2630139,108.49531 3.9882721,107.00469 3.8211603,106.09375 3.6540485,105.18281 3.4224625,103.48125 3.3065248,102.3125 3.151624,100.75097 3.1139139,99.55774 3.1643092,97.8125 3.2020284,96.50625 3.3864623,94.059375 3.5741624,92.375 3.8269972,90.106122 3.9182942,88.648449 3.9264676,86.75 3.9364829,84.423754 3.9108441,84.095411 3.64838,83.188669 3.489364,82.639312 3.1940515,81.777249 2.99213,81.272974 2.7496865,80.6675 2.625,80.134161 2.625,79.702598 c 0,-0.444889 0.098604,-0.850891 0.3088765,-1.271805 0.169882,-0.340061 0.4397632,-0.757238 0.5997358,-0.92706 0.2505895,-0.266018 0.2837566,-0.406962 0.2395578,-1.018004 -0.028216,-0.39008 0.017233,-0.916897 0.1009965,-1.170704 0.083764,-0.253807 0.3272076,-0.660678 0.5409858,-0.904158 C 4.6289306,74.167387 5.199978,73.705842 5.6841465,73.385212 6.168315,73.064582 6.7425697,72.670561 6.960268,72.50961 7.2857098,72.269001 7.3703913,72.10323 7.4365592,71.577236 7.480821,71.225381 7.6039201,70.65625 7.7101128,70.3125 7.8163055,69.96875 8.0478787,69.434375 8.2247198,69.125 8.401561,68.815625 8.8304745,68.261666 9.177861,67.89398 9.8094728,67.22546 9.8094728,67.22546 9.5148599,66.986897 9.3528227,66.855688 8.9316289,66.664772 8.5788735,66.56264 8.2261181,66.460508 7.515625,66.362903 7,66.345739 c -0.515625,-0.01716 -1.4186033,0.01736 -2.0066186,0.07672 -1.0362131,0.104603 -1.0803691,0.09825 -1.434659,-0.2065 -0.2925165,-0.251612 -0.3655406,-0.415913 -0.3655406,-0.822449 0,-0.387204 0.08401,-0.595711 0.3532447,-0.876732 0.1942846,-0.202789 0.6807743,-0.515694 1.0810882,-0.695345 0.400314,-0.17965 1.1631359,-0.437965 1.6951598,-0.574034 C 6.8546984,63.111329 7.4959724,63 7.747728,63 c 0.2517555,0 0.7173344,0.08845 1.0346198,0.196564 0.3172855,0.10811 0.7351183,0.178422 0.9285174,0.15625 0.2756716,-0.0316 0.4112808,-0.16183 0.6277388,-0.602814 0.203328,-0.414236 0.299103,-0.90688 0.363361,-1.869043 0.07457,-1.116593 0.12775,-1.347036 0.365777,-1.585063 0.153186,-0.153186 0.524049,-0.341456 0.824139,-0.418378 0.30009,-0.07692 0.61285,-0.162259 0.695022,-0.189637 0.107453,-0.0358 0.116869,-0.163217 0.03353,-0.45379 -0.06373,-0.222206 -0.180904,-0.444205 -0.26039,-0.493331 -0.07949,-0.04912 -0.357412,-0.123361 -0.617611,-0.164969 -0.260199,-0.04161 -0.654196,-0.228041 -0.87555,-0.414298 -0.221353,-0.186257 -0.505721,-0.565976 -0.631928,-0.84382 -0.126207,-0.277844 -0.230703,-0.735249 -0.232213,-1.016456 -0.0018,-0.326807 0.138025,-0.79299 0.387403,-1.29204 0.330539,-0.661468 0.368736,-0.827751 0.25,-1.088347 C 10.563067,52.751653 10.5,52.477238 10.5,52.311016 c 0,-0.170864 0.105087,-0.358461 0.241782,-0.431618 0.132981,-0.07117 0.356837,-0.129398 0.49746,-0.129398 0.172443,0 0.338717,0.162772 0.510758,0.5 0.140295,0.275 0.33254,0.5 0.427212,0.5 0.09467,0 1.063842,-0.435938 2.15371,-0.96875 C 16.3125,50.8125 16.3125,50.8125 18.3125,50.730849 19.62416,50.677299 20.549117,50.57645 21,50.437827 c 0.378125,-0.116254 1.08125,-0.382166 1.5625,-0.590915 0.48125,-0.208748 2.028125,-0.939315 3.4375,-1.623482 1.409375,-0.684166 4.784375,-2.322137 7.5,-3.639934 4.9375,-2.395996 4.9375,-2.395996 6.0625,-2.407868 1.081385,-0.01141 1.180444,-0.03734 2.555115,-0.668733 1.123654,-0.516101 1.519488,-0.642357 1.847183,-0.589179 0.316108,0.0513 0.665876,-0.04781 1.444886,-0.409429 0.565299,-0.262411 1.505941,-0.701985 2.090316,-0.976831 0.584375,-0.274846 4.015625,-1.918839 7.625,-3.653318 3.609375,-1.734479 7.29375,-3.505734 8.1875,-3.936123 0.89375,-0.430388 2.8625,-1.375487 4.375,-2.10022 1.5125,-0.724732 3.9875,-1.908022 5.5,-2.629533 1.5125,-0.721511 5,-2.393079 7.75,-3.714596 2.75,-1.321517 6.153125,-2.951717 7.5625,-3.622667 1.409375,-0.67095 3.4625,-1.653961 4.5625,-2.184469 1.1,-0.530508 3.378125,-1.611576 5.0625,-2.402373 1.684375,-0.790798 3.66133,-1.743458 4.39324,-2.117023 0.7319,-0.373565 1.59441,-0.911305 1.91668,-1.194977 0.32227,-0.283671 0.99564,-1.055292 1.49639,-1.714712 0.50075,-0.6594196 1.01637,-1.2929419 1.14582,-1.4078271 0.12945,-0.1148851 0.8917,-0.5290778 1.69387,-0.9204283 1.45851,-0.7115462 1.45851,-0.7115462 1.26655,-1.2911179 -0.10558,-0.3187644 -0.21822,-0.7784066 -0.25032,-1.021427 -0.041,-0.3107153 0.01,-0.5233193 0.17096,-0.7163357 0.12612,-0.1509642 1.30219,-0.7764307 2.61349,-1.3899255 1.3113,-0.6134948 2.5976,-1.1743719 2.85844,-1.2463935 0.3109,-0.085845 0.68563,-0.090862 1.08793,-0.014567 0.33752,0.06401 0.7106,0.1689598 0.82906,0.2332221 0.11847,0.064262 0.3785,0.2882423 0.57787,0.4977333 0.19936,0.209491 0.5702,0.7627692 0.82409,1.2295071 0.46162,0.8486143 0.46162,0.8486143 1.15085,0.8081989 0.43775,-0.025669 0.86681,0.033763 1.17591,0.1628809 0.26767,0.1118131 0.63726,0.3475344 0.82131,0.5238252 0.18405,0.1762908 0.83955,1.3967444 1.45666,2.712119 0.61711,1.3153747 1.21978,2.6913985 1.33927,3.0578305 0.18474,0.566557 0.19528,0.764381 0.0704,1.322177 -0.0812,0.362689 -0.29862,0.833622 -0.48641,1.053383 -0.25797,0.301903 -1.2429,0.814206 -4.09714,2.131099 -2.06665,0.953508 -3.94339,1.829761 -4.17055,1.947229 -0.22715,0.117467 -0.66474,0.44561 -0.9724,0.729206 -0.30767,0.283596 -0.6945,0.782252 -0.85963,1.108125 -0.16514,0.325873 -0.38124,1.087506 -0.48023,1.692518 -0.099,0.605013 -0.21649,1.427289 -0.26113,1.82728 -0.0493,0.44154 -0.23684,1.028026 -0.47746,1.492828 -0.35537,0.686491 -0.48022,0.808695 -1.20869,1.183058 -0.44681,0.229618 -2.13426,1.041334 -3.74988,1.803814 -1.61562,0.76248 -3.69688,1.751283 -4.625,2.197342 -0.92812,0.446058 -3.796875,1.811076 -6.375,3.033374 -2.578125,1.222297 -5.3625,2.545353 -6.1875,2.940123 -0.825,0.39477 -3.440625,1.645578 -5.8125,2.779572 -2.371875,1.133994 -5.38125,2.566306 -6.6875,3.182914 -1.30625,0.616609 -3.696875,1.756732 -5.3125,2.533608 -1.615625,0.776876 -4.090625,1.958812 -5.5,2.626524 -1.409375,0.667712 -3.85625,1.834235 -5.4375,2.592273 -1.58125,0.758038 -3.775,1.808625 -4.875,2.334638 -1.1,0.526013 -2.884512,1.376302 -3.965583,1.889531 -1.963097,0.931964 -1.9655,0.933618 -1.899398,1.308144 0.03878,0.219731 -0.05023,0.737294 -0.214968,1.25 -0.166703,0.518811 -0.283981,1.205747 -0.288102,1.6875 -0.0067,0.78526 0.03664,0.900505 1.293169,3.4375 0.903309,1.823825 1.3177,2.800094 1.357725,3.198684 0.05173,0.515164 0.02112,0.602621 -0.300117,0.857351 -0.196749,0.156017 -1.454601,0.815885 -2.795226,1.466373 -1.340625,0.650487 -2.597339,1.333429 -2.792698,1.517648 -0.195359,0.184219 -0.471865,0.559944 -0.614459,0.834944 -0.169659,0.327198 -0.278571,0.824003 -0.315134,1.4375 -0.05027,0.843487 -0.01244,1.050316 0.377206,2.0625 0.238195,0.61875 0.505853,1.431093 0.594798,1.805207 0.08894,0.374113 0.163115,1.217863 0.164825,1.875 0.0019,0.748698 -0.07711,1.490249 -0.211749,1.986124 -0.118172,0.435232 -0.350586,1.098237 -0.516477,1.473344 -0.16589,0.375107 -0.570987,1.085183 -0.900215,1.577946 -0.329228,0.492763 -1.104847,1.427175 -1.723597,2.076471 -0.61875,0.649296 -1.496001,1.477024 -1.949447,1.839395 -0.453445,0.362372 -1.26907,0.949974 -1.8125,1.305784 -0.543429,0.35581 -1.606803,0.94835 -2.363053,1.316756 -0.75625,0.368405 -1.834372,0.784948 -2.395827,0.92565 -0.596126,0.149392 -1.429243,0.255823 -2.002512,0.255823 -0.602163,0 -1.335357,-0.09801 -1.896503,-0.253509 -0.50315,-0.13943 -1.189212,-0.392555 -1.524582,-0.5625 C 30.157705,88.389046 29.834696,88.25 29.775278,88.25 c -0.05942,0 -0.185788,0.145286 -0.280821,0.322858 -0.09503,0.177572 -0.399852,0.455289 -0.677373,0.617148 -0.277521,0.16186 -1.010834,0.418743 -1.629584,0.570852 -0.61875,0.152109 -1.34374,0.385765 -1.611088,0.519237 -0.267349,0.133472 -0.754863,0.511451 -1.083366,0.839954 -0.328503,0.328503 -0.755849,0.899942 -0.949658,1.269865 -0.305463,0.583034 -0.352614,0.814054 -0.354134,1.735086 -0.0015,0.893508 0.05153,1.176179 0.333242,1.777233 0.202495,0.432036 0.638096,1.014093 1.101316,1.471594 0.421476,0.416273 0.847291,0.950649 0.946254,1.187502 0.09896,0.236853 0.179934,0.639002 0.179934,0.893665 0,0.254663 -0.0875,0.929986 -0.194446,1.500716 -0.147004,0.78451 -0.164555,1.1986 -0.07193,1.69724 0.06738,0.36275 0.184885,0.82284 0.261121,1.02242 0.07624,0.19958 0.586893,0.80103 1.134792,1.33655 0.547899,0.53552 1.05227,1.12121 1.120824,1.30152 0.06855,0.18031 0.124644,0.53728 0.124644,0.79327 0,0.25598 -0.121336,0.68826 -0.269636,0.96061 -0.1483,0.27235 -0.457675,0.85351 -0.6875,1.29148 -0.352496,0.67173 -0.417652,0.92593 -0.416511,1.625 7.44e-4,0.45578 0.08512,1.10483 0.1875,1.44232 0.102381,0.33749 0.186147,0.87491 0.186147,1.19427 0,0.42238 -0.09621,0.73237 -0.352929,1.13718 -0.194112,0.30608 -0.714424,0.8845 -1.15625,1.28538 -0.441827,0.40087 -1.309571,1.08092 -1.928321,1.51121 -0.61875,0.43029 -1.678121,1.10642 -2.354157,1.50251 -0.676036,0.39609 -1.969786,1.07422 -2.875,1.50695 -0.905214,0.43273 -2.320843,1.01182 -3.145843,1.28686 -0.825,0.27505 -1.95,0.58588 -2.5,0.69074 -0.55,0.10486 -1.3375,0.21656 -1.75,0.24821 -0.4125,0.0317 -1.0765636,0.009 -1.4756969,-0.0498 z m 3.7414619,-1.74341 c 0.764921,-0.19042 1.918046,-0.55538 2.5625,-0.81103 0.644454,-0.25565 1.881947,-0.81837 2.749985,-1.25048 0.868037,-0.43212 2.124741,-1.12996 2.792675,-1.55077 0.667934,-0.4208 1.645221,-1.09361 2.17175,-1.49513 0.526529,-0.40153 1.224512,-1.01648 1.551075,-1.36657 0.364136,-0.39036 0.59375,-0.75171 0.59375,-0.93438 0,-0.16382 -0.114305,-0.74279 -0.254011,-1.2866 -0.187304,-0.72909 -0.231839,-1.1693 -0.169584,-1.67625 0.04643,-0.37812 0.184231,-0.97815 0.306214,-1.33339 0.121984,-0.35524 0.423297,-0.94512 0.669585,-1.31083 0.246288,-0.36572 0.447796,-0.78079 0.447796,-0.92238 0,-0.16007 -0.321423,-0.54522 -0.849771,-1.01826 -0.544296,-0.48732 -0.992606,-1.02881 -1.24711,-1.5063 -0.230083,-0.43169 -0.462402,-1.12491 -0.551908,-1.64687 -0.133243,-0.77701 -0.125018,-1.04495 0.05961,-1.9419 0.117799,-0.57229 0.21418,-1.218852 0.21418,-1.436816 0,-0.319576 -0.170744,-0.576693 -0.881953,-1.3281 -0.571119,-0.6034 -1.02268,-1.22888 -1.28125,-1.774728 C 21.838021,95.616375 21.8125,95.474619 21.8125,94.1875 c 0,-1.337094 0.01303,-1.401664 0.47271,-2.342216 0.286932,-0.587094 0.731592,-1.23238 1.131436,-1.641924 0.362299,-0.37109 0.99333,-0.843405 1.40229,-1.049588 0.40896,-0.206183 1.30356,-0.523747 1.987999,-0.705696 0.684439,-0.18195 1.345377,-0.422169 1.46875,-0.53382 C 28.399058,87.802604 28.5,87.572124 28.5,87.402076 28.5,87.194774 28.242576,86.81914 27.71875,86.262074 27.277619,85.79295 26.698006,84.983853 26.387384,84.403583 26.08482,83.838367 25.64416,83.150315 25.408139,82.874578 25.172119,82.598841 24.716546,82.218947 24.395756,82.030369 23.891126,81.733721 23.677694,81.6875 22.8125,81.6875 c -0.725002,0 -1.360934,0.100942 -2.3125,0.367065 -1.143035,0.319671 -1.522314,0.367152 -2.9375,0.367735 -1.444116,5.94e-4 -1.733918,-0.03705 -2.603479,-0.338198 C 14.420858,81.897725 13.673915,81.549088 13.299149,81.309353 12.924382,81.069618 12.373279,80.64812 12.074474,80.372691 11.775669,80.097263 11.278098,79.492919 10.96876,79.029706 10.659423,78.566493 10.262372,77.901394 10.086425,77.551708 9.9104786,77.202022 9.6454267,76.541085 9.4974213,76.082958 9.3494158,75.624831 9.1561039,75.25 9.0678392,75.25 8.9795745,75.25 8.4078899,75.6034 7.7974289,76.035333 7.186968,76.467266 6.378125,77.026294 6,77.277617 5.621875,77.528941 5.0729147,77.972322 4.7800881,78.26291 4.4823179,78.558403 4.1832914,79.006149 4.1015843,79.278862 3.9677066,79.725707 3.9991235,79.893807 4.477358,81.289487 4.7643841,82.127144 5.0875357,83.234375 5.1954728,83.75 5.3200919,84.345317 5.391484,85.326242 5.39107,86.4375 5.3907114,87.4 5.3026533,89.003125 5.1953854,90 c -0.107268,0.996875 -0.2764641,2.5828 -0.3759914,3.524279 -0.099527,0.941478 -0.2188858,2.685228 -0.2652409,3.875 -0.052145,1.338384 -0.027823,2.878161 0.063787,4.038221 0.081438,1.03125 0.3099271,2.83125 0.5077539,4 0.1978268,1.16875 0.6967863,3.89687 1.1087987,6.0625 0.4120125,2.16563 0.8350898,4.41563 0.9401718,5 0.105082,0.58437 0.252105,1.56875 0.3267178,2.1875 0.099268,0.82321 0.2179134,1.25008 0.4422783,1.59128 0.1686402,0.25645 0.5411434,0.58593 0.827785,0.73216 0.2866415,0.14623 0.7787663,0.30827 1.0936106,0.36008 0.3148438,0.0518 0.9099438,0.0666 1.3224438,0.0328 0.4125,-0.0338 1.375844,-0.2172 2.140765,-0.40761 z m -2.360699,-1.79248 c -0.258464,-0.0963 -0.567839,-0.24891 -0.6875,-0.33914 -0.119662,-0.0902 -0.4054012,-0.33573 -0.6349776,-0.54557 C 9.4155121,118.10918 9.098731,117.68438 8.9411305,117.375 8.7536147,117.0069 8.4128292,115.5813 7.9550622,113.25 7.5703251,111.29063 7.1163506,108.84375 6.9462301,107.8125 6.7761095,106.78125 6.5466874,105.17812 6.4364032,104.25 6.326119,103.32188 6.2034195,101.40937 6.1637377,100 6.1208951,98.478367 6.15114,96.650503 6.2381972,95.5 c 0.080635,-1.065625 0.226795,-2.59481 0.3248008,-3.398189 0.098006,-0.803379 0.2163466,-1.619004 0.2629794,-1.8125 0.046633,-0.193496 0.2151159,-0.61269 0.3744068,-0.931543 0.1592909,-0.318852 0.5232744,-0.779731 0.8088522,-1.024175 0.2855778,-0.244444 0.7800144,-0.573072 1.098748,-0.730285 0.4720621,-0.232841 0.7881126,-0.286302 1.7045156,-0.288325 1.002425,-0.0022 1.199907,0.03699 1.8125,0.359817 0.378125,0.199265 0.910781,0.473729 1.183679,0.60992 0.272898,0.13619 0.807273,0.357672 1.1875,0.49218 0.456315,0.161426 1.235481,0.276889 2.292083,0.339659 1.305406,0.07755 1.662892,0.141117 1.9375,0.344513 0.185206,0.137178 0.4633,0.435374 0.617988,0.662657 0.154688,0.227283 0.28125,0.575079 0.28125,0.772879 0,0.197801 -0.113978,0.68167 -0.253284,1.075265 -0.139306,0.393595 -0.305832,1.081252 -0.370058,1.528127 -0.07427,0.51679 -0.07185,1.129545 0.0067,1.683622 0.06788,0.479117 0.264595,1.182242 0.437136,1.5625 0.17254,0.380258 0.575399,1.073161 0.895242,1.539784 0.495935,0.723525 0.589433,0.957627 0.635205,1.590418 0.03438,0.475306 -0.02556,1.034726 -0.166764,1.556366 -0.160451,0.59276 -0.201208,1.06137 -0.149776,1.72209 0.03886,0.49924 0.194876,1.22962 0.346694,1.62305 0.160393,0.41566 0.562459,1.04406 0.959735,1.5 0.376036,0.43157 0.734443,0.91489 0.79646,1.07406 0.06202,0.15916 0.112758,0.50647 0.112758,0.7718 0,0.26533 -0.171517,0.91076 -0.381149,1.43429 -0.35665,0.8907 -0.379586,1.04597 -0.35683,2.4157 0.01337,0.8051 -0.03902,1.69079 -0.116436,1.96821 -0.07742,0.27741 -0.324654,0.678 -0.54942,0.8902 -0.224766,0.21219 -0.88679,0.70985 -1.471165,1.10589 -0.584375,0.39605 -1.85,1.09989 -2.8125,1.5641 -0.9625,0.46421 -2.3125,1.05539 -3,1.31373 -0.966232,0.36308 -1.477014,0.4803 -2.25,0.51635 -0.657212,0.0307 -1.161088,-0.0134 -1.469934,-0.12843 z m 3.374723,-1.40316 c 0.671116,-0.25004 1.797317,-0.72567 2.502669,-1.05697 0.705353,-0.33129 1.717853,-0.87162 2.25,-1.20072 0.532148,-0.32911 1.236773,-0.78951 1.565832,-1.02312 0.32906,-0.2336 0.688034,-0.59828 0.79772,-0.81039 0.156692,-0.30301 0.182891,-0.60115 0.122252,-1.39126 -0.04245,-0.55309 -0.0193,-1.36465 0.05143,-1.80347 0.07074,-0.43882 0.270892,-1.13589 0.444789,-1.54906 0.189198,-0.44951 0.287117,-0.86699 0.243817,-1.03951 -0.0398,-0.15857 -0.358715,-0.61461 -0.708703,-1.01344 -0.349988,-0.39882 -0.73822,-0.9237 -0.862738,-1.16639 -0.124517,-0.2427 -0.324407,-0.77707 -0.444198,-1.1875 -0.137222,-0.47015 -0.212552,-1.12605 -0.203611,-1.77284 0.0078,-0.56462 0.104927,-1.37675 0.215826,-1.80472 0.110899,-0.42798 0.168973,-0.95225 0.129052,-1.165041 -0.03992,-0.212796 -0.30399,-0.694418 -0.58682,-1.07027 C 19.57678,98.370016 19.207787,97.753125 19.039627,97.375 18.871466,96.996875 18.647138,96.321875 18.541121,95.875 18.406436,95.307288 18.368434,94.723563 18.414985,93.9375 18.451627,93.31875 18.59752,92.446875 18.739191,92 18.880862,91.553125 18.9975,91.062234 18.998387,90.909132 18.999283,90.75455 18.874932,90.552684 18.71875,90.45518 18.549229,90.349349 17.908718,90.249671 17.106424,90.204264 16.188423,90.152309 15.452062,90.026805 14.733607,89.799845 14.16065,89.618848 13.224411,89.224213 12.653076,88.92288 11.760884,88.45232 11.50863,88.375 10.865627,88.375 c -0.411761,0 -0.9470126,0.08288 -1.1894476,0.184174 -0.2424351,0.101296 -0.5868503,0.299065 -0.7653673,0.439486 -0.1785169,0.140422 -0.457699,0.43575 -0.6204047,0.656285 -0.1627057,0.220535 -0.3503037,0.603278 -0.4168845,0.850541 -0.066581,0.247262 -0.2045139,1.176868 -0.306518,2.065791 -0.102004,0.888923 -0.2452058,2.588786 -0.3182262,3.777474 -0.093231,1.517689 -0.09365,2.850407 -0.00141,4.475619 0.072246,1.2729 0.2477535,3.22497 0.3900157,4.33792 0.1422623,1.11295 0.5874127,3.71143 0.9892233,5.77438 0.4018106,2.06296 0.7954594,4.11645 0.8747751,4.56333 0.079316,0.44688 0.2934946,1.08769 0.4759533,1.42403 0.1831789,0.33766 0.5416199,0.75041 0.8004009,0.92166 0.257762,0.17058 0.652281,0.35654 0.876709,0.41324 0.224428,0.0567 0.646456,0.079 0.93784,0.0497 0.291385,-0.0294 1.078885,-0.25799 1.75,-0.50803 z M 35.536218,87.814094 c 0.392558,-0.102249 1.065313,-0.332589 1.495012,-0.511868 0.429698,-0.179279 1.361212,-0.669937 2.070029,-1.090351 0.708818,-0.420414 1.86748,-1.223854 2.574806,-1.78542 0.707325,-0.561567 1.623554,-1.413175 2.036064,-1.892462 0.412509,-0.479287 0.936214,-1.142059 1.163788,-1.472826 0.227574,-0.330768 0.597456,-0.978827 0.82196,-1.440132 0.224503,-0.461305 0.466344,-1.169441 0.537424,-1.573636 0.07108,-0.404194 0.152732,-0.893862 0.18145,-1.088151 0.02872,-0.194288 0.01003,-0.728663 -0.04153,-1.1875 -0.05156,-0.458836 -0.295282,-1.347153 -0.541602,-1.974037 -0.246319,-0.626884 -0.499487,-1.470634 -0.562595,-1.875 -0.06311,-0.404366 -0.07236,-1.080865 -0.02056,-1.503332 0.0518,-0.422467 0.233639,-1.072724 0.40408,-1.445017 0.170441,-0.372292 0.59056,-0.954763 0.933596,-1.294379 0.343037,-0.339616 0.815101,-0.712132 1.049031,-0.827815 0.23393,-0.115683 1.297203,-0.640896 2.362828,-1.167141 1.065625,-0.526245 1.963277,-0.982372 1.994782,-1.013617 0.03151,-0.03124 -0.473561,-1.123219 -1.12237,-2.426609 C 50.223603,60.94141 49.64252,59.875 49.581117,59.875 c -0.0614,0 -0.892273,0.37487 -1.846379,0.833045 C 46.191114,61.449315 46,61.575454 46,61.853006 c 0,0.201483 -0.165958,0.462509 -0.46875,0.737268 -0.283777,0.257506 -1.849878,1.092277 -3.96875,2.115444 -1.925,0.929549 -3.640625,1.747403 -3.8125,1.817453 -0.298145,0.121512 -0.301471,0.133953 -0.0724,0.270846 0.132055,0.07892 0.459134,0.336131 0.726842,0.571589 0.267708,0.235459 0.565652,0.580701 0.662097,0.767205 0.09645,0.186504 0.187958,0.556356 0.203361,0.821894 0.0154,0.265537 -0.01479,0.715663 -0.06711,1.000279 -0.09511,0.517485 -0.09511,0.517485 1.322428,0.5625 1.301695,0.04134 1.485482,0.07846 2.248873,0.45428 0.534568,0.263168 1.046778,0.645181 1.434869,1.070144 0.331946,0.363484 0.758764,0.978437 0.948485,1.366562 0.18972,0.388124 0.435628,1.059646 0.546461,1.49227 0.144099,0.562473 0.184834,1.124956 0.142971,1.974174 -0.04332,0.878766 -0.140251,1.388855 -0.37275,1.961578 -0.172813,0.425696 -0.571074,1.185071 -0.885024,1.6875 -0.31395,0.502429 -0.969558,1.345298 -1.456906,1.873042 -0.487348,0.527744 -1.236775,1.238462 -1.665393,1.579373 -0.428618,0.340911 -1.222451,0.913193 -1.764073,1.271738 -0.541622,0.358545 -1.515139,0.92439 -2.16337,1.257435 -0.683708,0.351271 -1.576937,0.694156 -2.127243,0.816588 -0.665034,0.147956 -1.232799,0.189605 -1.89913,0.139314 -0.522769,-0.03946 -1.25559,-0.191046 -1.628489,-0.336865 -0.3729,-0.14582 -0.974072,-0.461648 -1.335937,-0.70184 -0.361866,-0.240193 -0.984891,-0.786645 -1.384501,-1.214338 -0.39961,-0.427693 -0.903567,-1.113619 -1.119904,-1.524281 -0.216338,-0.410662 -0.49118,-1.154671 -0.610759,-1.653353 -0.160285,-0.668436 -0.200486,-1.210416 -0.152985,-2.0625 0.04195,-0.75242 0.155899,-1.383798 0.326507,-1.809065 0.14414,-0.359294 0.466972,-0.949919 0.717404,-1.3125 0.250432,-0.362582 0.715845,-0.931966 1.034252,-1.265298 0.318407,-0.333333 1.000797,-0.925339 1.516422,-1.315571 0.515625,-0.390232 1.168022,-0.857964 1.44977,-1.039405 0.281749,-0.181441 1.012999,-0.580404 1.625,-0.886584 0.612002,-0.30618 1.703355,-0.770954 2.42523,-1.032832 0.721875,-0.261878 1.436637,-0.586248 1.58836,-0.720822 0.164149,-0.145595 0.33151,-0.512746 0.413284,-0.906646 C 38.497998,69.095023 38.484465,68.95959 38.26092,68.521404 38.121688,68.248488 37.816571,67.907025 37.582882,67.762596 37.287392,67.579974 36.950705,67.5 36.477361,67.5 c -0.623373,0 -1.041452,0.173505 -4.969813,2.0625 -2.985135,1.435435 -4.419886,2.0625 -4.719083,2.0625 -0.236445,0 -0.542478,-0.06025 -0.680072,-0.133888 -0.137595,-0.07364 -0.408429,-0.383434 -0.601855,-0.688434 C 25.234308,70.373416 24.958101,70.1497 24.283961,69.812441 23.804969,69.572812 23.048645,69.042824 22.603241,68.634692 22.157836,68.22656 21.508739,67.480836 21.160803,66.977528 20.812866,66.47422 20.302445,65.61244 20.026534,65.062461 19.750623,64.512483 19.410727,63.689665 19.271209,63.233978 19.131691,62.778291 18.957344,61.972658 18.88377,61.443683 18.810197,60.914708 18.75,60.117139 18.75,59.671308 c 0,-0.445832 0.06302,-1.060877 0.140044,-1.366767 0.12194,-0.484268 0.105781,-0.63581 -0.125,-1.172275 C 18.61927,56.793405 18.5,56.338391 18.5,56.121124 c 0,-0.217267 0.118239,-0.561082 0.262753,-0.764034 0.184964,-0.259758 0.804825,-0.630896 2.09375,-1.253622 1.007048,-0.486541 2.280997,-1.096157 2.830997,-1.354703 0.55,-0.258546 2.40625,-1.15619 4.125,-1.994764 1.71875,-0.838575 4.53125,-2.207815 6.25,-3.042758 2.89341,-1.405574 3.180582,-1.518868 3.875,-1.528746 0.695167,-0.0099 0.946486,-0.109361 3.4375,-1.360563 1.478125,-0.742441 2.705487,-1.366276 2.72747,-1.3863 0.02198,-0.02002 -0.0776,-0.266859 -0.22129,-0.548521 C 43.737486,42.605451 43.598339,42.375 43.571964,42.375 c -0.02638,0 -0.543758,0.237903 -1.14974,0.528674 -1.014561,0.48682 -1.206005,0.534784 -2.418255,0.605865 -1.316469,0.07719 -1.316469,0.07719 -5.066469,1.894316 -2.0625,0.999419 -4.790625,2.322754 -6.0625,2.940745 -1.271875,0.61799 -4.944102,2.42361 -8.160505,4.012488 -5.848006,2.888869 -5.848006,2.888869 -5.65625,3.259683 0.105465,0.203948 0.191755,0.505514 0.191755,0.670148 0,0.164634 -0.09844,0.386825 -0.21875,0.493759 -0.120312,0.106934 -0.436706,0.284465 -0.703097,0.394512 -0.433097,0.178915 -0.47657,0.236446 -0.410841,0.543699 0.04043,0.188986 0.168277,0.765486 0.284108,1.281111 0.145438,0.647419 0.209986,1.498322 0.208609,2.75 -0.0017,1.554268 -0.04887,1.990173 -0.330994,3.059564 -0.18095,0.685886 -0.606212,1.814621 -0.945027,2.5083 -0.338814,0.69368 -0.965499,1.735626 -1.392633,2.315436 -0.427134,0.57981 -1.263968,1.538491 -1.859632,2.130403 -0.5956636,0.591911 -1.6705489,1.506582 -2.3886339,2.032601 -0.718085,0.526019 -1.5446716,1.15659 -1.8368591,1.401268 -0.2921875,0.244679 -0.53125,0.553446 -0.53125,0.686149 0,0.132704 0.034346,0.241279 0.076325,0.241279 0.041979,0 0.4497913,-0.264354 0.90625,-0.587452 0.4564586,-0.323099 1.1858894,-0.829349 1.6209573,-1.125 0.6538435,-0.444321 0.89231,-0.53744 1.375,-0.536927 0.4182468,4.45e-4 0.6823765,0.08026 0.9307417,0.28125 0.232969,0.188532 0.483472,0.649832 0.763308,1.405629 0.229094,0.61875 0.561798,1.40625 0.739343,1.75 0.177544,0.34375 0.577877,0.945489 0.889627,1.337198 0.31175,0.391709 0.863623,0.935932 1.226383,1.209385 0.362761,0.273453 0.96894,0.610391 1.347065,0.748751 0.378125,0.138361 1.042783,0.319375 1.477017,0.402255 0.471661,0.09002 1.176204,0.119254 1.75,0.07261 0.528266,-0.04295 1.635483,-0.253031 2.460483,-0.466855 1.21617,-0.315208 1.677862,-0.379002 2.439974,-0.337143 0.667679,0.03667 1.149116,0.147376 1.661939,0.382154 0.431891,0.197726 1.012289,0.62104 1.444552,1.053587 0.490522,0.490844 0.917866,1.101345 1.330635,1.900937 0.474692,0.919545 0.843624,1.418897 1.682168,2.276822 0.842233,0.8617 1.255989,1.181409 1.916561,1.480926 0.463343,0.21009 1.052081,0.431433 1.308307,0.491873 0.256225,0.06044 0.889983,0.115541 1.408352,0.122447 0.518368,0.0069 1.263671,-0.0711 1.65623,-0.17335 z M 25.166092,80.439748 C 24.948068,80.346577 24.709005,80.156965 24.634842,80.01839 24.560679,79.879815 24.5,79.618414 24.5,79.4375 c 0,-0.180914 0.06078,-0.442499 0.135061,-0.5813 0.07428,-0.1388 0.318546,-0.329029 0.542805,-0.42273 0.224258,-0.0937 0.543168,-0.137425 0.708688,-0.09716 0.16552,0.04026 0.427508,0.187743 0.582196,0.327737 0.196919,0.178215 0.28125,0.395833 0.28125,0.725776 0,0.314376 -0.09362,0.573457 -0.28125,0.778312 -0.154688,0.16889 -0.421875,0.33721 -0.59375,0.374046 -0.171875,0.03684 -0.490884,-0.0093 -0.708908,-0.102429 z m 0.898312,-0.820746 c 0.04469,-0.1408 0.01347,-0.337675 -0.06938,-0.4375 C 25.912174,79.081676 25.713971,79 25.554572,79 c -0.1594,0 -0.326558,0.05945 -0.371463,0.132104 -0.0449,0.07266 -0.04715,0.269533 -0.005,0.4375 0.05934,0.236444 0.158877,0.305396 0.440844,0.305396 0.257257,0 0.388053,-0.07517 0.445446,-0.255998 z M 36.173043,70.195703 C 35.921257,70.086112 35.733463,69.882408 35.641793,69.619442 35.563807,69.395731 35.5,69.141029 35.5,69.053438 c 0,-0.08759 0.145625,-0.332322 0.323612,-0.543847 0.271299,-0.322421 0.412744,-0.384591 0.875,-0.384591 0.382354,0 0.627054,0.07567 0.798208,0.24682 0.135752,0.135752 0.282749,0.389969 0.32666,0.564927 0.04391,0.174958 0.0075,0.492683 -0.08085,0.706055 -0.09948,0.240173 -0.317613,0.453515 -0.572645,0.560074 -0.226573,0.09467 -0.455946,0.169922 -0.509716,0.167231 -0.05377,-0.0027 -0.273021,-0.08117 -0.487222,-0.174404 z m 0.942716,-0.803435 c 0.08752,-0.163532 0.07745,-0.297148 -0.03386,-0.449372 -0.09576,-0.13096 -0.278726,-0.199584 -0.46263,-0.173517 -0.172045,0.02439 -0.322944,0.141333 -0.347318,0.269173 -0.0237,0.124328 -0.01198,0.307141 0.02605,0.40625 0.03803,0.09911 0.20956,0.180198 0.381174,0.180198 0.176376,0 0.366174,-0.101177 0.43658,-0.232732 z M 22.491538,52.484188 c -0.10486,-0.195933 -0.10578,-0.345871 -0.0035,-0.570352 0.112373,-0.246633 0.215836,-0.297106 0.54411,-0.265439 0.339934,0.03279 0.411853,0.0958 0.445634,0.390412 0.02215,0.19322 -0.02692,0.432282 -0.109055,0.53125 -0.08214,0.09897 -0.281097,0.179941 -0.442135,0.179941 -0.17067,0 -0.352132,-0.110871 -0.435054,-0.265812 z m 2.009809,-0.920065 c -0.08806,-0.1061 -0.120631,-0.319879 -0.0759,-0.498096 0.04846,-0.193096 0.19676,-0.341935 0.388679,-0.390104 0.170674,-0.04284 0.396094,-0.04497 0.500932,-0.0047 0.104838,0.04023 0.224858,0.162384 0.266712,0.271452 0.04185,0.109069 0.01366,0.335344 -0.06266,0.502835 -0.100585,0.220727 -0.238424,0.30449 -0.501125,0.30449 -0.199305,0 -0.431793,-0.08364 -0.516638,-0.185877 z M 26.71875,50.739988 C 26.594325,50.667517 26.5,50.464336 26.5,50.268789 c 0,-0.189084 0.0675,-0.411289 0.15,-0.493789 0.0825,-0.0825 0.265312,-0.149139 0.40625,-0.148086 0.140938,0.0011 0.333594,0.05091 0.428125,0.110784 0.09453,0.05988 0.171875,0.265568 0.171875,0.457088 0,0.192198 -0.101715,0.422593 -0.227016,0.514216 -0.124859,0.0913 -0.286578,0.164288 -0.359375,0.162197 -0.0728,-0.0021 -0.230797,-0.06114 -0.351109,-0.131211 z m 2.0545,-1.00369 c -0.232262,-0.08765 -0.281516,-0.186926 -0.25,-0.503873 0.02159,-0.217092 0.128981,-0.450856 0.238653,-0.519476 0.109672,-0.06862 0.344985,-0.08822 0.522919,-0.04357 0.177933,0.04466 0.360037,0.196266 0.404674,0.336905 0.04466,0.14071 0.01087,0.340403 -0.07514,0.444034 -0.08596,0.103579 -0.245298,0.234858 -0.354077,0.291731 -0.10878,0.05687 -0.327943,0.05428 -0.487031,-0.0058 z m 1.853097,-1.172175 c -0.08806,-0.1061 -0.120631,-0.319879 -0.0759,-0.498096 0.04846,-0.193096 0.19676,-0.341935 0.388679,-0.390104 0.170674,-0.04284 0.396094,-0.04497 0.500932,-0.0047 0.104838,0.04023 0.224858,0.162384 0.266712,0.271452 0.04185,0.109069 0.01366,0.335344 -0.06266,0.502835 -0.100585,0.220727 -0.238424,0.30449 -0.501125,0.30449 -0.199305,0 -0.431793,-0.08364 -0.516638,-0.185877 z m 1.994167,-1.072505 c -0.107568,-0.200992 -0.09402,-0.325931 0.06098,-0.5625 0.114514,-0.174772 0.320318,-0.304118 0.483884,-0.304118 0.15654,0 0.352118,0.0675 0.434618,0.15 0.0825,0.0825 0.15,0.268125 0.15,0.4125 0,0.144375 -0.0675,0.33 -0.15,0.4125 -0.0825,0.0825 -0.305521,0.15 -0.495602,0.15 -0.221407,0 -0.395295,-0.09285 -0.483884,-0.258382 z m 3.420168,38.158816 c 0.538001,-0.220233 1.381751,-0.636004 1.875,-0.923935 0.49325,-0.287931 1.353738,-0.848112 1.912196,-1.244847 0.558458,-0.396735 1.436415,-1.138294 1.951014,-1.647908 0.5146,-0.509614 1.226789,-1.369748 1.582642,-1.911408 0.355853,-0.54166 0.757584,-1.342324 0.892736,-1.779253 0.135151,-0.436929 0.245062,-1.140054 0.244246,-1.5625 -8.16e-4,-0.422446 -0.07661,-1.049333 -0.168435,-1.393083 -0.09182,-0.34375 -0.293155,-0.871865 -0.447402,-1.173588 -0.154248,-0.301724 -0.550585,-0.818723 -0.88075,-1.148887 -0.454092,-0.454092 -0.776783,-0.651605 -1.32491,-0.81095 -0.538833,-0.156643 -1.014954,-0.194769 -1.857065,-0.148706 -0.818642,0.04478 -1.469012,0.174376 -2.34699,0.467676 -0.667995,0.223153 -1.297374,0.46957 -1.398621,0.547593 -0.1619,0.124766 -0.160697,0.231944 0.01,0.889357 0.175997,0.677913 0.175504,0.877252 -0.0053,2.141436 -0.176474,1.233965 -0.178426,1.464409 -0.01701,2.007965 0.10029,0.337713 0.382849,0.848267 0.627909,1.134564 0.257992,0.301407 0.77515,0.682796 1.228478,0.905969 0.584994,0.287991 1.06557,0.414359 1.901004,0.499871 0.973257,0.09962 1.154518,0.156523 1.399337,0.439292 0.154688,0.178667 0.28125,0.426626 0.28125,0.551021 0,0.124395 -0.110435,0.366568 -0.245412,0.538163 -0.134976,0.171595 -0.542789,0.444411 -0.90625,0.606259 -0.544794,0.242594 -0.869364,0.293973 -1.848338,0.292585 -1.041928,-0.0015 -1.310087,-0.05071 -2.1875,-0.401621 -0.55,-0.219965 -1.331871,-0.649805 -1.737491,-0.955201 C 34.1694,81.264903 33.594792,80.71912 33.298113,80.357448 33.001424,79.995776 32.64095,79.409778 32.49705,79.055231 32.235413,78.4106 32.235413,78.4106 31.067189,78.471705 c -0.682838,0.03572 -1.329064,0.005 -1.555335,-0.07384 -0.363915,-0.126862 -0.400047,-0.110991 -0.602963,0.264844 -0.164722,0.305094 -0.216507,0.710685 -0.218621,1.712293 -0.0027,1.262899 0.01506,1.349835 0.468927,2.30043 0.350323,0.733722 0.688049,1.200443 1.3125,1.813817 0.476309,0.467859 1.13884,0.968323 1.528303,1.154453 0.378125,0.180712 0.771875,0.361219 0.875,0.401127 0.103125,0.03991 0.6375,0.05759 1.1875,0.0393 0.786998,-0.02618 1.208355,-0.118555 1.978182,-0.433689 z m 3.516575,-3.888728 c 0.18222,-0.07126 0.08424,-0.114734 -0.38349,-0.17013 -0.345536,-0.04092 -1.00514,-0.225287 -1.465788,-0.409697 -0.470719,-0.188441 -1.098645,-0.570045 -1.433703,-0.871291 -0.327889,-0.294801 -0.756854,-0.831245 -0.953254,-1.192098 -0.260588,-0.478784 -0.373768,-0.889157 -0.418796,-1.518482 -0.03394,-0.474312 0.0084,-1.351789 0.09398,-1.949947 0.11885,-0.830249 0.121788,-1.213252 0.01242,-1.618811 -0.07879,-0.292187 -0.183282,-0.530459 -0.232195,-0.529492 -0.04891,9.67e-4 -0.498338,0.224931 -0.998722,0.497698 -0.500385,0.272767 -1.31601,0.79984 -1.8125,1.171273 -0.496491,0.371434 -1.208091,0.989122 -1.581335,1.37264 -0.571983,0.587727 -0.644047,0.710574 -0.458587,0.781742 0.121022,0.04644 0.651403,0.0424 1.178625,-0.009 0.527223,-0.05137 1.15263,-0.101333 1.389793,-0.111024 0.344053,-0.01406 0.463055,0.04554 0.588786,0.294881 0.08667,0.171875 0.336493,0.692606 0.555162,1.15718 0.223383,0.474587 0.655661,1.104422 0.986609,1.4375 0.323965,0.326051 0.8926,0.773532 1.263632,0.994403 0.371033,0.22087 0.98398,0.484356 1.362105,0.585523 0.378125,0.101168 0.996875,0.18369 1.375,0.183382 0.378125,-3.08e-4 0.797641,-0.04364 0.932257,-0.09628 z M 10.54694,68.884751 C 10.921581,68.363763 11.453917,67.515625 11.72991,67 c 0.275992,-0.515625 0.62098,-1.294892 0.766639,-1.731704 0.14566,-0.436812 0.320488,-1.083687 0.388508,-1.4375 0.06802,-0.353813 0.125063,-1.340254 0.126763,-2.192091 0.0018,-0.887136 -0.0512,-1.603084 -0.123989,-1.675874 -0.08319,-0.08319 -0.269247,-0.08639 -0.538705,-0.0093 -0.410589,0.117516 -0.411842,0.12032 -0.497453,1.113374 -0.0472,0.547559 -0.148871,1.287279 -0.225926,1.643823 -0.09602,0.444301 -0.287203,0.814025 -0.607647,1.17512 -0.421028,0.474439 -0.535677,0.532508 -1.1523253,0.583646 C 9.4502462,64.503986 8.9267137,64.4508 8.5342867,64.334262 8.0522415,64.19111 7.7004554,64.16866 7.152662,64.24609 c -0.4042038,0.05713 -1.1663071,0.283468 -1.6935629,0.502965 -0.5272557,0.219498 -0.99562,0.45891 -1.0408094,0.532028 -0.055583,0.08994 0.055548,0.105025 0.3435239,0.04665 C 4.9959411,65.280273 5.69375,65.20768 6.3125,65.166421 c 0.9142752,-0.06096 1.3230168,-0.02494 2.1821557,0.192316 0.5814356,0.147033 1.2689295,0.407478 1.5277643,0.578767 0.258835,0.171288 0.562499,0.48913 0.67481,0.706315 0.129593,0.250606 0.179039,0.549937 0.135333,0.819265 -0.04473,0.275618 -0.293372,0.670026 -0.709312,1.125131 -0.3522446,0.385412 -0.8047982,0.987295 -1.0056748,1.337519 -0.2008766,0.350223 -0.365758,0.718794 -0.3664032,0.819046 -6.721e-4,0.104443 0.2370488,-0.05152 0.5567143,-0.365249 0.306838,-0.301139 0.8644117,-0.973788 1.2390527,-1.494776 z m 18.118382,0.50296 c 0.974698,-0.474258 3.178428,-1.549751 4.897178,-2.389983 1.71875,-0.840232 4.334375,-2.111024 5.8125,-2.823981 1.478125,-0.712957 2.771875,-1.345056 2.875,-1.404664 0.103125,-0.05961 0.2047,-0.195664 0.225723,-0.302345 0.02102,-0.106681 -0.218605,-0.70534 -0.532505,-1.330352 -0.3139,-0.625012 -0.640475,-1.136231 -0.725722,-1.136041 -0.08525,1.9e-4 -1.645621,0.736753 -3.467496,1.636806 -1.821875,0.900053 -3.7625,1.804532 -4.3125,2.009955 -0.59735,0.223107 -1.352319,0.399616 -1.875,0.438368 -0.789201,0.05851 -0.941221,0.0299 -1.550341,-0.291735 -0.487545,-0.257443 -0.746999,-0.494689 -0.933035,-0.853173 -0.160809,-0.309871 -0.257372,-0.732772 -0.256835,-1.124816 6.28e-4,-0.458622 0.100673,-0.811437 0.370536,-1.306718 0.225138,-0.413198 0.627855,-0.881293 1.030007,-1.197221 0.398183,-0.31281 2.246693,-1.278672 4.65625,-2.432928 2.197755,-1.052796 3.995918,-1.963187 3.995918,-2.023091 0,-0.0599 -0.425091,-0.957682 -0.944648,-1.995064 -0.748157,-1.49382 -0.988662,-1.873039 -1.15625,-1.823128 -0.116381,0.03466 -1.896382,0.881028 -3.955557,1.880817 -2.244426,1.089733 -4.125273,1.920688 -4.696012,2.07469 -0.523632,0.141291 -1.116977,0.256579 -1.318545,0.256196 -0.201569,-3.84e-4 -0.566385,-0.05623 -0.810703,-0.124101 -0.244318,-0.06787 -0.570022,-0.240612 -0.723787,-0.383866 -0.153765,-0.143253 -0.312462,-0.424908 -0.352661,-0.625899 -0.0402,-0.20099 -0.108243,-0.362114 -0.151212,-0.358052 -0.04297,0.0041 -1.11875,0.529416 -2.390625,1.167455 -1.271875,0.638039 -2.328472,1.241962 -2.347992,1.342052 -0.01952,0.10009 1.122043,2.541923 2.536809,5.426295 1.414766,2.884372 2.948996,5.989625 3.409399,6.900563 0.460403,0.910938 0.855733,1.65625 0.878512,1.65625 0.02278,0 0.838895,-0.38803 1.813594,-0.862289 z M 26.020313,66.88926 c -0.09195,-0.05777 -0.148202,-0.239296 -0.125,-0.403396 0.03322,-0.234956 0.288796,-0.426056 1.2026,-0.899216 0.72902,-0.37748 1.247512,-0.573208 1.394703,-0.526492 0.128859,0.0409 0.265845,0.156594 0.304413,0.257102 0.03857,0.100508 0.0367,0.269844 -0.0042,0.376301 -0.04085,0.106457 -0.537373,0.409515 -1.103382,0.67346 -0.566008,0.263946 -1.135506,0.51306 -1.265551,0.553588 -0.130045,0.04053 -0.311679,0.02642 -0.403632,-0.03135 z m -4.007164,-8.310916 c -0.07835,-0.09441 -0.108587,-0.259936 -0.06718,-0.367832 0.0414,-0.107896 0.578702,-0.456182 1.193995,-0.773969 0.615293,-0.317787 1.237581,-0.560075 1.382861,-0.538418 0.14528,0.02166 0.322879,0.133097 0.394663,0.247647 0.09558,0.152518 0.08226,0.266484 -0.04973,0.425726 -0.09914,0.1196 -0.627276,0.43369 -1.173639,0.697978 -0.54637,0.264288 -1.116045,0.480524 -1.265951,0.480524 -0.149906,0 -0.336665,-0.07724 -0.415019,-0.171656 z m 0.51373,6.282278 C 21.506055,62.771655 20.483445,60.654688 20.254413,60.15625 20.025381,59.657812 19.802307,59.25 19.758694,59.25 c -0.04361,0 -0.03891,0.505479 0.01045,1.123287 0.04936,0.617808 0.209278,1.558975 0.355369,2.091481 0.146091,0.532507 0.486031,1.438538 0.755422,2.013403 0.269391,0.574865 0.74141,1.397807 1.048931,1.828759 0.307521,0.430953 0.96374,1.158157 1.458263,1.61601 0.494524,0.457853 0.920882,0.810713 0.947463,0.784132 0.02658,-0.02658 -0.786892,-1.757483 -1.807716,-3.84645 z M 32.4375,62.740506 c 0.275,-0.07321 2.257812,-0.98225 4.40625,-2.020101 2.148437,-1.03785 3.90625,-1.940951 3.90625,-2.006891 0,-0.06594 -0.290469,-0.675332 -0.645486,-1.354203 C 39.749496,56.68044 39.406956,56.125 39.343315,56.125 c -0.06364,0 -1.808514,0.818425 -3.877494,1.818723 -2.068979,1.000297 -4.029712,2.015402 -4.357183,2.255788 -0.327472,0.240386 -0.710881,0.623913 -0.85202,0.852282 C 30.115478,61.280161 30,61.638181 30,61.847393 c 0,0.271303 0.110287,0.473184 0.384591,0.703995 0.294114,0.247481 0.522016,0.323448 0.96875,0.322915 0.321287,-3.84e-4 0.809159,-0.06059 1.084159,-0.133797 z M 44.374345,61.75305 c 0.156378,-0.09886 0.0244,-0.445055 -0.809378,-2.123086 -0.547923,-1.10273 -1.053879,-2.004103 -1.124345,-2.00305 -0.07047,0.0011 -0.210579,0.05407 -0.31136,0.117807 -0.152932,0.09672 -0.07317,0.349666 0.482276,1.529336 0.366033,0.777393 0.78599,1.679305 0.933238,2.004247 0.147248,0.324942 0.352099,0.591268 0.455224,0.591836 0.103125,5.67e-4 0.27158,-0.05212 0.374345,-0.11709 z m 3.218832,-1.970412 C 49.373853,58.9375 49.373853,58.9375 49.37591,58.125 49.37701,57.678125 49.45658,57.017187 49.55267,56.65625 49.648756,56.295313 49.713106,56 49.69567,56 c -0.01744,0 -1.151408,0.540811 -2.519936,1.201801 -1.368529,0.660991 -2.513784,1.225604 -2.545013,1.254695 -0.03123,0.02909 0.1793,0.528907 0.467839,1.110699 0.28854,0.581793 0.567215,1.05843 0.619279,1.059193 0.05206,7.63e-4 0.895966,-0.378924 1.875338,-0.84375 z m -0.608141,-3.471493 c 2.369557,-1.172182 2.647233,-1.341321 2.575108,-1.568567 -0.04446,-0.140091 -0.698249,-1.531669 -1.452859,-3.092395 C 47.352676,50.089457 46.250889,47.814062 45.65887,46.59375 45.066851,45.373438 44.512448,44.375 44.426864,44.375 c -0.08559,0 -1.327579,0.570428 -2.759986,1.267617 -1.432408,0.69719 -2.618647,1.278646 -2.636086,1.292125 -0.01744,0.01348 0.479683,1.088364 1.104717,2.388633 0.625034,1.300269 1.789425,3.700062 2.587537,5.332875 0.798112,1.632812 1.48597,2.96875 1.528575,2.96875 0.04261,0 1.272642,-0.591235 2.733415,-1.313855 z m -5.161434,0.142498 c 0.03617,-0.09425 -0.195639,-0.734537 -0.51512,-1.422869 -0.486508,-1.048193 -0.619989,-1.241285 -0.821627,-1.188555 -0.132413,0.03463 -0.276051,0.120074 -0.319196,0.189884 -0.04314,0.06981 0.194551,0.681769 0.528213,1.359911 0.43655,0.887257 0.670492,1.232986 0.834315,1.232986 0.125213,0 0.257249,-0.07711 0.293415,-0.171357 z M 13.183259,56.289348 C 13.426217,56.17349 13.625,56.003136 13.625,55.910784 c 0,-0.09235 -0.170622,-0.505913 -0.379159,-0.919024 C 12.998063,54.500916 12.757019,54.198956 12.550203,54.120325 12.37614,54.054146 12.185453,54 12.126453,54 c -0.059,0 -0.273662,0.140008 -0.477028,0.31113 -0.203366,0.171121 -0.399442,0.466419 -0.435725,0.656218 -0.03628,0.189798 0.0074,0.520564 0.09696,0.735034 0.08961,0.214469 0.293887,0.481671 0.453947,0.593781 C 11.924667,56.408274 12.20995,56.5 12.39857,56.5 c 0.188621,0 0.54173,-0.09479 0.784687,-0.210652 z m 3.186887,-3.262646 c 2.042222,-1.019006 2.053465,-1.026889 1.5,-1.051657 -0.306705,-0.01373 -0.711866,-0.01955 -0.900358,-0.01293 -0.188491,0.0066 -0.986053,0.329631 -1.772358,0.717818 -1.429647,0.705794 -1.429647,0.705794 -1.219789,1.074572 0.115423,0.202828 0.237984,0.353056 0.272359,0.33384 0.03438,-0.01922 0.988441,-0.496955 2.120146,-1.061641 z m 12.193144,0.561771 c 0.412764,-0.17373 2.324671,-1.078763 4.248682,-2.011184 1.924011,-0.932421 3.5161,-1.749004 3.537974,-1.814627 0.02187,-0.06562 -0.10487,-0.348443 -0.281655,-0.628489 C 35.891506,48.854128 35.663296,48.625 35.561157,48.625 c -0.102138,0 -2.022548,0.899895 -4.267578,1.999768 -2.24503,1.099872 -4.269376,2.142783 -4.498547,2.317581 -0.229171,0.174797 -0.479488,0.43518 -0.556259,0.578629 -0.107737,0.201309 -0.100991,0.287186 0.02957,0.376395 0.09304,0.06357 0.478601,0.09114 0.856811,0.06128 0.37821,-0.02987 1.025371,-0.196446 1.438135,-0.370176 z m 23.215693,-0.574078 c 0.568434,-0.267083 2.196693,-1.05263 3.618352,-1.745662 1.42166,-0.693031 3.474785,-1.677443 4.5625,-2.187582 1.087716,-0.510139 3.046415,-1.433491 4.352665,-2.051894 1.30625,-0.618403 3.1625,-1.504053 4.125,-1.968111 0.9625,-0.464058 3.49375,-1.673449 5.625,-2.687537 2.13125,-1.014087 5.73125,-2.729468 8,-3.811958 2.26875,-1.08249 4.74375,-2.26242 5.5,-2.622067 0.75625,-0.359646 3.428125,-1.638935 5.9375,-2.842863 2.509375,-1.203927 6.1375,-2.935499 8.0625,-3.847936 1.925,-0.912437 4.11875,-1.953866 4.875,-2.314287 0.75625,-0.360422 2.19251,-1.046917 3.19169,-1.525545 1.22465,-0.586637 1.88661,-0.976948 2.03125,-1.197695 0.11801,-0.180104 0.21456,-0.415113 0.21456,-0.522242 0,-0.172297 -0.0325,-0.173885 -0.28125,-0.01375 -0.15469,0.09956 -1.85625,0.922687 -3.78125,1.829164 -1.925,0.906476 -4.5125,2.127655 -5.75,2.71373 -1.2375,0.586076 -4.078125,1.937727 -6.3125,3.00367 -2.234375,1.065943 -4.79375,2.287982 -5.6875,2.715642 -0.89375,0.42766 -2.8625,1.369569 -4.375,2.093131 -1.5125,0.723563 -3.340625,1.596215 -4.0625,1.939226 -0.721875,0.343012 -2.746875,1.312902 -4.5,2.155311 -1.753125,0.842408 -5.015625,2.403166 -7.25,3.468349 -2.234375,1.065183 -5.75,2.738396 -7.8125,3.718249 -2.0625,0.979854 -5.521875,2.6379 -7.6875,3.684546 -2.165625,1.046647 -3.949331,1.914052 -3.963792,1.927566 -0.01446,0.01351 0.0062,0.148679 0.04583,0.300364 0.03967,0.151685 0.12079,0.275791 0.180275,0.275791 0.05948,0 0.573237,-0.218522 1.141671,-0.485605 z m -11.91496,-0.379966 c 0.148645,-0.09409 0.135169,-0.207302 -0.08533,-0.716835 -0.144019,-0.332802 -0.663779,-1.439778 -1.155022,-2.459948 -0.869297,-1.805277 -0.902091,-1.852615 -1.226915,-1.77109 -0.183559,0.04607 -0.35092,0.10094 -0.371912,0.121933 -0.02099,0.02099 0.512597,1.14142 1.185755,2.489839 0.673158,1.34842 1.280843,2.450811 1.350412,2.449758 0.06957,-0.0011 0.205923,-0.0522 0.303011,-0.113657 z M 53.5625,50.341983 c 1.65,-0.789621 4.96875,-2.376474 7.375,-3.526342 2.40625,-1.149867 5.407207,-2.591287 6.668792,-3.203155 C 68.867878,43.000619 69.920583,42.5 69.945636,42.5 c 0.02505,0 0.736597,-0.341992 1.581208,-0.759982 0.844611,-0.41799 2.576281,-1.256221 3.848156,-1.862736 1.271875,-0.606514 3.803125,-1.817486 5.625,-2.691047 1.821875,-0.873562 5,-2.392008 7.0625,-3.374326 2.0625,-0.982318 5.04375,-2.403158 6.625,-3.157423 1.58125,-0.754264 5.040625,-2.397272 7.6875,-3.651129 2.64687,-1.253857 5.49186,-2.60594 6.32219,-3.004629 0.83033,-0.39869 1.92892,-0.923831 2.44131,-1.16698 0.93161,-0.442091 0.93161,-0.442091 1.13718,-1.730669 0.11307,-0.708719 0.24371,-1.386417 0.29031,-1.505998 0.0585,-0.149967 -0.68516,0.155267 -2.39688,0.983866 -1.36488,0.660706 -3.24099,1.554003 -4.16911,1.985105 -0.92812,0.431101 -2.7,1.260649 -3.9375,1.84344 -1.2375,0.58279 -2.8125,1.327031 -3.5,1.653868 -0.6875,0.326837 -1.651612,0.779992 -2.142472,1.00701 -0.490859,0.227018 -2.347109,1.098006 -4.125,1.935528 -1.77789,0.837522 -4.329403,2.045368 -5.670028,2.684102 -1.340625,0.638735 -4.18125,1.989277 -6.3125,3.001205 -2.13125,1.011927 -5.1125,2.431843 -6.625,3.155367 -1.5125,0.723524 -3.14375,1.496878 -3.625,1.718564 -0.48125,0.221686 -4.221875,2.021366 -8.3125,3.999289 -4.090625,1.977922 -8.253125,3.989124 -9.25,4.469337 -0.996875,0.480213 -2.220312,1.061847 -2.71875,1.29252 -0.498438,0.230674 -0.90625,0.47625 -0.90625,0.545725 0,0.06947 0.235547,0.601261 0.523438,1.181746 0.519616,1.047719 0.525777,1.054223 0.84375,0.890665 0.176172,-0.09062 1.670312,-0.810815 3.320312,-1.600435 z m 54.21875,-27.549768 c -0.0859,-0.03468 -0.15625,-0.192098 -0.15625,-0.349826 0,-0.157728 0.0817,-0.354563 0.1815,-0.437411 0.0998,-0.08285 0.29151,-0.115719 0.42595,-0.07305 0.13445,0.04267 0.28122,0.173389 0.32615,0.290483 0.053,0.138079 -0.0137,0.290157 -0.1898,0.432741 -0.14932,0.120915 -0.30745,0.215404 -0.3514,0.209977 -0.0439,-0.0054 -0.15021,-0.03824 -0.23615,-0.07292 z M 50.7041,47.299183 c 1.36587,-0.660449 3.692775,-1.778308 5.1709,-2.48413 1.478125,-0.705823 4.9375,-2.366652 7.6875,-3.690733 2.75,-1.324081 5.50625,-2.646924 6.125,-2.939651 0.61875,-0.292726 1.9125,-0.90995 2.875,-1.371609 0.9625,-0.461658 3.746875,-1.78339 6.1875,-2.937182 2.440625,-1.153792 5.05625,-2.392095 5.8125,-2.751784 0.75625,-0.359689 2.021875,-0.963425 2.8125,-1.341636 0.790625,-0.37821 3.265625,-1.546261 5.5,-2.595667 2.234375,-1.049406 6.14375,-2.892232 8.6875,-4.095169 2.54375,-1.202937 6.56562,-3.101815 8.9375,-4.21973 2.37188,-1.117915 5.94375,-2.799973 7.9375,-3.737906 1.99375,-0.937933 3.87692,-1.844402 4.18483,-2.014375 0.34456,-0.19021 0.60619,-0.440857 0.68039,-0.651849 0.0988,-0.281019 0.0494,-0.494882 -0.27407,-1.186534 C 122.81161,10.817177 122.28956,9.678125 121.86855,8.75 121.44754,7.821875 120.9857,6.9359375 120.84225,6.78125 120.69526,6.6227526 120.43337,6.5 120.24221,6.5 c -0.18657,0 -1.4443,0.534375 -2.79496,1.1875 -1.35066,0.653125 -2.47582,1.1875 -2.50035,1.1875 -0.0245,0 -0.85232,0.3859157 -1.83951,0.8575905 -0.98719,0.4716745 -2.77926,1.3226215 -3.98239,1.8909925 -1.20312,0.568372 -3.3125,1.567646 -4.6875,2.220609 -1.375,0.652963 -3.56875,1.693466 -4.875,2.312228 -1.30625,0.618761 -2.9375,1.392513 -3.625,1.719449 -0.6875,0.326935 -2.31875,1.100526 -3.625,1.719092 -1.30625,0.618565 -4.821875,2.291105 -7.8125,3.716756 -2.990625,1.42565 -6.84375,3.26776 -8.5625,4.093577 -1.71875,0.825818 -4.75625,2.289546 -6.75,3.252729 -1.99375,0.963184 -4.1875,2.017989 -4.875,2.344012 -0.6875,0.326023 -3.067899,1.471438 -5.289777,2.545367 C 56.800846,36.621331 54.966292,37.5 54.945936,37.5 c -0.02036,0 -1.268081,0.597126 -2.772723,1.326946 -1.504642,0.729821 -3.691963,1.775457 -4.860713,2.323636 -1.16875,0.548179 -2.141473,1.01284 -2.161608,1.032578 -0.02013,0.01974 0.0608,0.240148 0.179847,0.489798 0.159832,0.33517 0.273982,0.435652 0.436364,0.384114 0.120951,-0.03839 1.418145,-0.64946 2.882654,-1.357938 1.464508,-0.708478 3.056493,-1.47445 3.537743,-1.702162 0.48125,-0.227711 2.5625,-1.225931 4.625,-2.218266 2.0625,-0.992334 4.621875,-2.216423 5.6875,-2.720196 1.065625,-0.503773 2.684759,-1.285527 3.598076,-1.737231 C 67.011393,32.869576 67.779976,32.5 67.806038,32.5 c 0.02606,0 1.022552,-0.470994 2.214423,-1.046652 1.191872,-0.575659 3.320164,-1.595468 4.729539,-2.266243 1.409375,-0.670775 3.265625,-1.557299 4.125,-1.970054 0.859375,-0.412755 2.2375,-1.073033 3.0625,-1.467285 0.825,-0.394252 2.203125,-1.054503 3.0625,-1.467224 0.859375,-0.412721 4.009375,-1.917241 7,-3.343378 2.990625,-1.426137 5.8875,-2.806244 6.4375,-3.066903 0.55,-0.260659 2.15313,-1.020311 3.5625,-1.688114 1.40937,-0.667803 2.98438,-1.411413 3.5,-1.652465 0.51563,-0.241052 1.35847,-0.630839 1.87299,-0.866192 0.593,-0.271255 1.03919,-0.401888 1.21875,-0.356821 0.20842,0.05231 0.28326,0.161891 0.28326,0.414761 0,0.327888 -0.15926,0.417711 -3.46875,1.956405 -1.90781,0.887006 -4.17187,1.946379 -5.03125,2.354164 -0.859375,0.407784 -2.546875,1.207647 -3.75,1.777472 -1.203125,0.569826 -3.03125,1.442793 -4.0625,1.939928 -1.03125,0.497135 -2.2125,1.059576 -2.625,1.249868 -0.4125,0.190293 -1.509375,0.710335 -2.4375,1.15565 -0.928125,0.445314 -3.740625,1.795205 -6.25,2.999758 -2.509375,1.204553 -5.40625,2.597202 -6.4375,3.094776 -1.03125,0.497575 -2.2125,1.058843 -2.625,1.247264 -0.4125,0.18842 -2.2125,1.046168 -4,1.906106 -1.7875,0.859937 -4.43125,2.127613 -5.875,2.817056 -1.44375,0.689443 -3.159375,1.504831 -3.8125,1.811973 -0.653125,0.307142 -2.453125,1.163568 -4,1.903169 -1.546875,0.739602 -3.571875,1.710006 -4.5,2.156454 -0.928125,0.446449 -2.207,1.055836 -2.841945,1.354194 -1.154445,0.542469 -1.154445,0.542469 -0.609282,1.703651 0.29984,0.63865 0.784165,1.653369 1.076278,2.254932 0.292114,0.601562 0.545636,1.09375 0.563382,1.09375 0.01775,0 1.149796,-0.540368 2.515667,-1.200817 z m 61.79847,-30.31229 c -0.17046,-0.06878 -0.41567,-0.220531 -0.54492,-0.337224 -0.12924,-0.116693 -0.39017,-0.521544 -0.57983,-0.899669 -0.18967,-0.378125 -0.55158,-1.206815 -0.80425,-1.841533 -0.41356,-1.038876 -0.44615,-1.203236 -0.32662,-1.647124 0.0745,-0.276527 0.29504,-0.629632 0.50224,-0.803976 0.2032,-0.170986 0.57143,-0.377539 0.81828,-0.459008 0.24685,-0.08147 0.63984,-0.112289 0.87331,-0.06849 0.23347,0.0438 0.58244,0.237582 0.77549,0.43063 0.19305,0.193047 0.65672,1.048722 1.03038,1.901498 0.44196,1.008652 0.68139,1.727158 0.68512,2.056 0.003,0.281463 -0.092,0.654698 -0.21485,0.842143 -0.12132,0.185154 -0.43069,0.443003 -0.6875,0.572997 -0.25681,0.129995 -0.63567,0.268407 -0.84192,0.307583 -0.20625,0.03918 -0.51447,0.01495 -0.68493,-0.05383 z m 1.06572,-1.41568 c 0.18827,-0.287336 0.17574,-0.356718 -0.23125,-1.28125 -0.23666,-0.537605 -0.55613,-1.24465 -0.70993,-1.571213 -0.23941,-0.508335 -0.33199,-0.59375 -0.64356,-0.59375 -0.25823,0 -0.40188,0.08333 -0.49465,0.286951 -0.108,0.237026 -0.0423,0.477541 0.37768,1.3824 0.27963,0.602497 0.50863,1.134306 0.50889,1.181799 2.5e-4,0.04749 0.11193,0.269163 0.24816,0.4926 0.14599,0.239437 0.34992,0.40625 0.49665,0.40625 0.13693,0 0.33853,-0.136704 0.44801,-0.303787 z m 2.49421,-0.316149 c -0.1375,-0.05725 -0.39657,-0.264621 -0.57571,-0.460826 -0.17915,-0.196206 -0.649,-1.108268 -1.04412,-2.026805 -0.54682,-1.271215 -0.70064,-1.758838 -0.64405,-2.041769 0.0409,-0.204437 0.19121,-0.535834 0.33405,-0.7364381 0.14284,-0.200604 0.38104,-0.429667 0.52933,-0.5090289 0.14829,-0.079362 0.46782,-0.1895563 0.71006,-0.2448765 0.25024,-0.057147 0.64015,-0.047355 0.9029,0.022674 0.27573,0.073487 0.56757,0.2708599 0.72276,0.4888044 0.14316,0.2010516 0.54807,1.0293331 0.89979,1.8406251 0.44651,1.029953 0.64108,1.644817 0.64475,2.037576 0.003,0.331907 -0.0838,0.698161 -0.21198,0.893427 -0.11947,0.18201 -0.49216,0.449197 -0.82818,0.59375 -0.33602,0.144553 -0.74114,0.259258 -0.90027,0.2549 -0.15913,-0.0044 -0.40183,-0.05476 -0.53933,-0.112013 z m 1.11607,-1.326493 c 0.10804,-0.108035 0.19643,-0.250465 0.19643,-0.316509 0,-0.06604 -0.29414,-0.79999 -0.65366,-1.630991 -0.35951,-0.831 -0.72872,-1.539715 -0.82047,-1.574923 -0.0918,-0.03521 -0.30543,-8.55e-4 -0.47485,0.07634 -0.16942,0.07719 -0.338,0.218439 -0.37463,0.313879 -0.0366,0.09544 0.25429,0.883427 0.64647,1.751081 0.61099,1.351733 0.75395,1.577554 0.99867,1.577554 0.15709,0 0.37401,-0.08839 0.48204,-0.196429 z m 2.63393,-0.404374 c -0.1375,-0.04768 -0.3372,-0.142947 -0.44377,-0.211697 -0.10658,-0.06875 -0.30609,-0.29375 -0.44337,-0.5 -0.13727,-0.20625 -0.51814,-0.982549 -0.84637,-1.725109 -0.32822,-0.74256 -0.62684,-1.5354158 -0.6636,-1.7619017 -0.0413,-0.2543327 0.0102,-0.5607232 0.13459,-0.8012796 0.11078,-0.214218 0.4451,-0.5322998 0.74295,-0.7068485 C 118.63534,7.6166922 119.0236,7.5 119.34885,7.5 c 0.28291,0 0.66264,0.067549 0.84384,0.1501099 0.21769,0.099186 0.48013,0.44903 0.77361,1.03125 0.24428,0.484627 0.63305,1.3220621 0.86392,1.8609671 0.23088,0.538905 0.41978,1.13993 0.41978,1.335612 0,0.195683 -0.054,0.497775 -0.11997,0.671318 -0.066,0.173543 -0.33316,0.455991 -0.59375,0.627664 -0.26058,0.171673 -0.69878,0.339547 -0.97378,0.373053 -0.275,0.03351 -0.6125,0.02191 -0.75,-0.02578 z m 1.00011,-1.354667 c 0.13793,-0.137925 0.17988,-0.312562 0.12763,-0.53125 -0.0428,-0.179179 -0.37032,-0.916405 -0.72779,-1.63828 -0.36379,-0.7346398 -0.73731,-1.32857 -0.84837,-1.349 -0.10913,-0.020075 -0.33197,0.071649 -0.49521,0.2038303 -0.2968,0.2403304 -0.2968,0.2403304 0.24946,1.5047197 0.30043,0.695415 0.64902,1.433379 0.77462,1.63992 0.12783,0.210196 0.33532,0.37553 0.47128,0.37553 0.1336,0 0.33537,-0.09246 0.44838,-0.20547 z M 111,9.123388 c 1.34063,-0.6354013 2.90216,-1.3729056 3.47008,-1.6388985 0.9708,-0.4546879 1.02315,-0.4990625 0.875,-0.7416694 -0.1346,-0.2204192 -0.1222,-0.2842762 0.0851,-0.4379331 C 115.56359,6.2059492 115.64,6.125 115.59992,6.125 c -0.0401,0 -1.75215,0.7920935 -3.80463,1.7602079 -2.05248,0.9681143 -3.80706,1.8226915 -3.89908,1.8990604 -0.092,0.076369 -0.33288,0.3795007 -0.53524,0.6736267 -0.36794,0.534775 -0.36794,0.534775 0.4168,0.177771 0.4316,-0.196351 1.8816,-0.8768767 3.22223,-1.512278 z M 118.12057,5.75 c -6.2e-4,-0.034375 -0.0989,-0.1895359 -0.21843,-0.344802 -0.2173,-0.2823021 -0.2173,-0.2823021 -1.15285,0.1660485 -0.51456,0.2465928 -0.95659,0.4693877 -0.9823,0.4950997 -0.0257,0.025712 0.0443,0.1378205 0.15563,0.24913 0.11131,0.1113095 0.20238,0.2503701 0.20238,0.3090235 0,0.058653 0.44926,-0.100052 0.99835,-0.3526786 C 117.67244,6.0191945 118.12119,5.784375 118.12057,5.75 Z M 113.0625,5.8749927 C 113.75,5.5507949 114.91719,5.0151313 115.65625,4.6846291 116.42913,4.339006 117,4.0101188 117,3.9104797 c 0,-0.09528 -0.20823,-0.2602418 -0.46274,-0.3665817 -0.3698,-0.1545135 -0.55504,-0.1656926 -0.92229,-0.055661 -0.25275,0.075727 -1.26796,0.5189446 -2.25601,0.9849291 -0.98805,0.4659844 -1.90556,0.9099161 -2.0389,0.9865147 -0.22001,0.1263864 -0.22836,0.1862448 -0.0903,0.6470492 0.11882,0.3966079 0.19927,0.4913515 0.36744,0.432746 0.11841,-0.041268 0.7778,-0.3402856 1.4653,-0.6644833 z"
       id="path18" />
    <path
       style="fill:#f9f9f9;stroke-width:0.25"
       d="m 11.095369,117.88625 c -0.360047,-0.20227 -0.832057,-0.74167 -1.04891,-1.19866 C 9.6080665,115.76375 8.0197213,107.46614 7.6297435,104.06252 7.1052546,99.484935 7.4691575,91.509983 8.2735005,89.954555 8.6995318,89.130702 9.8099995,88.5 10.834517,88.5 c 0.40389,0 1.456266,0.337827 2.338613,0.750727 0.964443,0.451318 2.333806,0.842332 3.43348,0.980412 1.006067,0.126326 1.93704,0.337511 2.068828,0.469299 0.152821,0.152821 0.142311,0.590059 -0.02902,1.207089 -0.335465,1.208168 -0.346677,3.436547 -0.02315,4.601103 0.135016,0.485997 0.574546,1.402509 0.976734,2.036695 0.692833,1.092484 0.724068,1.257876 0.594515,3.148025 -0.180769,2.63736 0.02342,3.56259 1.09644,4.96832 l 0.895447,1.1731 -0.405704,1.68089 c -0.223136,0.92448 -0.405703,2.24541 -0.405703,2.93539 0,1.08391 -0.100877,1.33939 -0.741802,1.87869 -1.668344,1.40382 -6.186192,3.55325 -7.990159,3.80143 -0.538166,0.074 -1.153174,-0.0233 -1.54767,-0.24492 z"
       id="path95" />
    <path
       style="fill:#f9f9f9;stroke-width:0.25"
       d="m 8.6875,120.77082 c -0.446875,-0.28241 -0.8147492,-0.54325 -0.8174982,-0.57964 -0.00275,-0.0364 -0.1568845,-1.00037 -0.3425238,-2.14215 l -0.3375257,-2.07597 0.6405765,0.076 c 0.4814547,0.0571 0.6908817,0.27149 0.8430897,0.86307 0.2336453,0.9081 1.6507935,2.25293 2.6341565,2.49974 0.370483,0.093 1.296545,0.0397 2.057915,-0.11831 1.777021,-0.3689 7.103099,-3.01018 8.32181,-4.12691 0.880506,-0.80683 0.9375,-0.9488 0.9375,-2.33531 0,-0.81194 0.16875,-2.12413 0.375,-2.91598 0.531411,-2.04022 0.487852,-2.33966 -0.5625,-3.86678 L 21.5,104.6855 21.48486,101.90525 C 21.47,99.175265 21.45261,99.093362 20.523373,97.375 19.51974,95.519073 19.475908,94.998955 20.017004,91.36629 c 0.24324,-1.633 -0.336918,-2.123194 -2.807641,-2.372269 -1.411458,-0.14229 -2.514004,-0.435144 -3.66602,-0.973755 C 10.0368,86.380824 7.3180598,87.501743 6.6193108,90.875 6.2519184,92.648612 6.034831,101.77392 6.3082645,103.94989 l 0.2293163,1.82489 -0.6437904,-0.0749 C 5.2833491,105.62888 5.2332817,105.50845 4.9272597,103.375 4.58295,100.97463 4.6839348,94.831061 5.1204,91.625 c 0.1310324,-0.9625 0.2433444,-3.1 0.2495823,-4.75 0.00969,-2.561916 -0.086542,-3.32074 -0.6589655,-5.19643 L 4.0407097,79.482139 4.5448978,78.80357 C 5.0325221,78.147293 8.5103265,75.5 8.884867,75.5 c 0.1015415,0 0.584264,0.841535 1.072717,1.870078 2.072658,4.36443 5.727365,5.972927 10.792416,4.749922 0.825,-0.199204 1.830539,-0.363947 2.23453,-0.366095 0.973664,-0.0052 2.239806,0.891842 2.888841,2.046644 0.288758,0.513775 0.97871,1.508105 1.533228,2.209622 0.554517,0.701517 0.95673,1.409649 0.893805,1.573626 -0.06292,0.163978 -0.895317,0.54965 -1.849763,0.85705 -3.224894,1.038647 -5.03777,3.43158 -4.745456,6.263834 0.134833,1.306403 0.278974,1.58998 2.016628,3.967411 0.532923,0.729138 0.56192,0.917066 0.340129,2.204398 -0.340886,1.9786 0.10493,3.42004 1.52908,4.94391 l 1.117172,1.19539 -0.517033,0.92961 c -0.889251,1.59884 -1.096304,2.76249 -0.779571,4.38127 l 0.284036,1.45166 -0.833355,0.8598 c -1.7655,1.82154 -6.838149,4.72168 -10.237271,5.85288 -0.89375,0.29743 -2.4125,0.59759 -3.375,0.66703 -1.4739855,0.10634 -1.8781495,0.0453 -2.5625,-0.38722 z"
       id="path96" />
    <path
       style="fill:#f9f9f9;stroke-width:0.125"
       d="m 8.0520834,116.07443 c -0.028646,-0.0278 -0.2489584,-0.07 -0.4895834,-0.0937 l -0.4375,-0.0432 -0.4717734,-2.5 c -0.844435,-4.47479 -1.4418196,-7.74947 -1.4183193,-7.77479 0.096895,-0.1044 1.2583207,0.18899 1.3351862,0.33729 0.053452,0.10313 0.1908343,0.80625 0.3052933,1.5625 0.114459,0.75625 0.4920753,2.8375 0.8391475,4.625 0.833589,4.29317 0.7820572,3.9375 0.5704865,3.9375 -0.09947,0 -0.2042917,-0.0228 -0.2329374,-0.0506 z"
       id="path97" />
    <path
       style="fill:#f9f9f9;stroke-width:0.125"
       d="M 15.8125,80.802019 C 14.39305,80.427225 13.271396,79.662586 12.343968,78.4375 11.768423,77.677233 11.523951,77.203824 10.815646,75.477969 10.599056,74.950226 10.270681,74.36683 10.085923,74.181533 9.7669168,73.861595 9.704362,73.848056 8.84375,73.912675 8.038768,73.973118 7.9375,73.956331 7.9375,73.762451 c 0,-0.120048 0.466676,-0.615643 1.0370578,-1.101322 2.3323802,-1.986016 4.0183752,-4.453003 4.9795092,-7.286129 0.375564,-1.107046 0.406351,-1.327235 0.454417,-3.25 0.04386,-1.754408 0.01171,-2.256182 -0.215206,-3.35909 -0.14672,-0.713125 -0.25023,-1.310898 -0.230021,-1.328385 0.02021,-0.01749 0.278055,-0.1535 0.572993,-0.302251 0.669439,-0.33763 0.861906,-0.710346 0.661897,-1.28178 -0.131504,-0.375717 -0.117889,-0.438597 0.140626,-0.64945 C 15.711915,54.899697 22.005704,51.75 22.240714,51.75 c 0.11709,0 0.176516,0.124852 0.169915,0.356986 -0.01219,0.428807 0.10332,0.643014 0.346749,0.643014 0.522235,0 0.0223,0.393732 -1.254125,0.987712 -2.995816,1.394089 -3.334658,1.783978 -2.835353,3.2625 0.237261,0.702569 0.248506,0.864099 0.118414,1.700882 -0.109585,0.704882 -0.108098,1.228969 0.0063,2.205498 0.200758,1.71432 0.437241,2.564737 1.086153,3.905908 1.147451,2.371553 2.479254,3.921289 4.273332,4.972608 0.66116,0.387436 1.114095,0.750147 1.287882,1.031343 0.527808,0.854009 1.11735,1.004035 2.226887,0.566698 0.337471,-0.133019 2.097365,-0.94239 3.910877,-1.798601 3.646553,-1.721644 4.185304,-1.959548 4.43756,-1.959548 0.284656,0 0.195724,0.360431 -0.215055,0.871591 -0.474031,0.589867 -0.421729,1.076344 0.169175,1.573557 0.395943,0.333163 0.561666,0.345192 1.510241,0.10962 0.32089,-0.07969 0.350618,-0.05993 0.3125,0.207686 -0.03584,0.251591 -0.294115,0.399624 -1.729626,0.991334 -2.206155,0.909366 -3.578325,1.634975 -4.788085,2.531957 -2.177277,1.614353 -3.354662,3.049175 -3.842774,4.683005 -0.188031,0.629388 -0.391205,0.667883 -0.862453,0.16341 -0.467129,-0.500064 -0.887273,-0.585991 -1.470969,-0.30084 -0.609519,0.297766 -0.805388,0.91539 -0.490485,1.546626 0.113217,0.22695 0.179636,0.43885 0.147596,0.47089 -0.03204,0.03204 -0.310316,-0.0052 -0.618394,-0.08279 -0.912102,-0.22967 -1.961757,-0.16404 -3.741816,0.233955 -1.891397,0.422889 -3.426814,0.4822 -4.58262,0.177019 z"
       id="path98" />
    <path
       style="fill:#f9f9f9;stroke-width:0.125"
       d="m 44.186611,72.00823 c -1.022894,-1.074693 -1.755985,-1.399389 -3.409952,-1.510316 -0.741588,-0.04974 -1.388399,-0.130488 -1.437359,-0.179448 -0.04896,-0.04896 -0.06996,-0.419795 -0.04668,-0.824079 0.0573,-0.994769 -0.143882,-1.522227 -0.801346,-2.10095 -0.304578,-0.2681 -0.553778,-0.573759 -0.553778,-0.679242 0,-0.126904 1.238066,-0.802569 3.659589,-1.997195 3.647699,-1.799543 4.465411,-2.322313 4.465411,-2.854776 0,-0.187922 0.374759,-0.428391 1.640869,-1.052885 C 48.605846,60.364203 49.418323,60 49.508872,60 c 0.09055,0 0.677271,1.024949 1.303827,2.277665 1.06695,2.133223 1.124865,2.288284 0.913247,2.445118 -0.12427,0.0921 -1.18483,0.636826 -2.356797,1.210504 -1.950874,0.954954 -2.195889,1.112577 -2.900861,1.866195 -0.624128,0.667195 -0.818393,0.979792 -1.025398,1.649997 -0.272226,0.881365 -0.336002,2.208592 -0.139116,2.895096 0.106111,0.369985 0.09245,0.404615 -0.15625,0.396164 -0.161726,-0.0055 -0.552397,-0.303305 -0.960913,-0.732509 z"
       id="path99" />
    <path
       style="fill:#f9f9f9;stroke-width:0.0441942"
       d="m 37.795395,70.379222 0.02509,-0.243068 h -0.138766 c -0.167566,0 -0.181068,-0.08163 -0.04509,-0.272592 0.124284,-0.174542 0.215682,-0.489065 0.215682,-0.742221 0,-0.261594 -0.174422,-0.619761 -0.387244,-0.795187 -0.245983,-0.20276 -0.78573,-0.283289 -1.174745,-0.17527 -0.09343,0.02594 -0.18044,0.0366 -0.193357,0.02368 -0.01292,-0.01292 0.009,-0.10478 0.0488,-0.20414 0.05231,-0.130738 0.05995,-0.20371 0.02763,-0.264093 -0.08578,-0.160276 -0.05434,-0.177637 0.321711,-0.177637 0.469319,0 0.833787,0.0949 1.122579,0.292301 0.427576,0.292265 0.807901,0.909301 0.80872,1.312062 8.99e-4,0.441633 -0.234597,1.193928 -0.437149,1.39648 -0.166265,0.166265 -0.222067,0.122996 -0.193858,-0.150319 z"
       id="path100" />
    <path
       style="fill:#f9f9f9;stroke-width:0.0441942"
       d="m 33.587572,87.958328 c -0.577892,-0.01901 -1.143087,-0.108491 -1.515517,-0.239943 -0.621641,-0.219412 -1.161798,-0.47411 -1.544145,-0.728104 -0.624726,-0.415009 -1.850701,-1.656467 -2.352192,-2.381898 -0.120547,-0.174378 -0.381593,-0.613324 -0.580102,-0.975436 -0.465242,-0.848678 -0.815357,-1.357368 -1.25096,-1.817553 -0.383219,-0.404843 -0.961549,-0.860511 -1.365247,-1.07568 -0.248349,-0.132368 -0.256914,-0.142774 -0.228143,-0.277167 0.01644,-0.0768 0.0371,-0.147509 0.04591,-0.157132 0.0088,-0.0096 0.137906,0.03721 0.286882,0.104061 0.381064,0.171012 0.726386,0.195972 0.984248,0.07114 0.462838,-0.224056 0.71318,-0.643834 0.684094,-1.147104 l -0.01493,-0.258239 0.299694,0.0051 0.299693,0.0051 -0.03453,0.375651 c -0.06202,0.674748 -0.03734,1.839865 0.04815,2.273131 0.304475,1.543079 1.081087,2.870768 2.348001,4.014125 1.360413,1.227736 2.616726,1.729071 4.331029,1.728304 0.838088,-3.75e-4 1.323428,-0.07884 2.041259,-0.330018 1.390324,-0.48649 3.146525,-1.475441 4.836172,-2.723343 0.693553,-0.512229 1.174949,-0.93794 1.895112,-1.675897 1.084477,-1.111271 1.808469,-2.106938 2.404821,-3.30722 0.520292,-1.047193 0.652801,-1.663229 0.656178,-3.050577 0.0023,-0.936514 -0.03976,-1.214272 -0.304317,-2.010835 -0.162024,-0.487837 -0.479321,-1.195076 -0.632968,-1.410853 -0.156679,-0.220036 -0.1276,-0.253599 0.216437,-0.249811 0.288302,0.0032 0.308908,0.01008 0.334653,0.1122 0.01509,0.05985 0.146905,0.43771 0.292926,0.839689 0.519734,1.430775 0.722456,2.552577 0.610026,3.375699 -0.216025,1.581549 -0.580078,2.558154 -1.452297,3.895911 -0.296368,0.45455 -1.174565,1.534688 -1.600312,1.968301 -1.240001,1.262912 -3.121588,2.674615 -4.827017,3.621579 -1.988626,1.104213 -3.283826,1.480391 -4.912615,1.426818 z"
       id="path101" />
    <path
       style="fill:#f9f9f9;stroke-width:0.0883883"
       d="M 10.788183,67.771766 C 11.087882,66.560839 10.353453,65.791518 8.4483691,65.320788 7.8273764,65.167347 7.4752198,65.136509 6.5988915,65.158832 l -1.0824329,0.02757 0.026004,-0.220971 c 0.02212,-0.18797 0.1184069,-0.252271 0.644722,-0.430548 0.8347074,-0.282737 1.6242548,-0.333421 2.4100043,-0.154706 1.1338915,0.257898 1.7927561,0.166398 2.2988361,-0.319251 0.601815,-0.577518 0.788317,-1.182018 1.034798,-3.354047 0.06379,-0.56212 0.156898,-0.677308 0.606443,-0.75026 0.30104,-0.04885 0.313247,-0.03988 0.371994,0.273263 0.03341,0.178075 0.04068,1.06783 0.01617,1.977234 -0.03617,1.34198 -0.08079,1.77834 -0.236842,2.316373 -0.429199,1.479762 -1.469397,3.535534 -1.788942,3.535534 -0.161627,0 -0.17441,-0.03294 -0.111467,-0.287262 z"
       id="path102" />
    <path
       style="fill:#f9f9f9;stroke-width:0.0441942"
       d="m 5.1486213,75.932222 c 0,-0.156822 0.1773844,-0.405654 0.4887274,-0.685578 0.3775447,-0.339445 2.1745932,-1.676035 2.2824155,-1.697591 0.09104,-0.0182 0.094173,-0.01094 0.048014,0.111356 -0.065969,0.174773 -0.02638,0.258265 0.1380547,0.291152 0.07501,0.015 0.1363809,0.04364 0.1363809,0.06364 0,0.02 -0.3728883,0.289975 -0.8286407,0.599943 -0.4557524,0.309969 -1.1152632,0.761456 -1.4655795,1.003304 -0.3503164,0.241849 -0.6734863,0.439725 -0.7181554,0.439725 -0.059828,0 -0.081217,-0.03317 -0.081217,-0.125951 z"
       id="path103" />
    <path
       style="fill:#f9f9f9;stroke-width:0.0441942"
       d="m 8.8167377,70.602292 c 0,-0.07968 0.3104974,-0.673552 0.4954017,-0.94753 0.1259688,-0.186652 0.4177547,-0.556229 1.0468696,-1.325967 l 0.238543,-0.291864 h 0.236536 c 0.130094,0 0.236539,0.01021 0.236544,0.02269 1.2e-5,0.03109 -0.275333,0.443022 -0.546101,0.817002 -0.389503,0.537974 -0.7405777,0.959546 -1.1501207,1.381068 -0.3705755,0.381415 -0.5576726,0.497028 -0.5576726,0.344604 z"
       id="path104" />
    <path
       style="fill:#f9f9f9;stroke-width:0.03125"
       d="m 4.5206694,65.277976 c 0.0085,-0.06014 0.073845,-0.106676 0.3323929,-0.23674 0.3872903,-0.194829 0.7491009,-0.340114 0.7771493,-0.312066 0.011246,0.01125 -0.00529,0.04889 -0.036754,0.08365 -0.039553,0.04371 -0.057973,0.114924 -0.059704,0.23083 l -0.0025,0.167622 -0.40625,0.05386 c -0.2234375,0.02962 -0.4531988,0.06147 -0.5105806,0.07078 -0.095899,0.01555 -0.1034756,0.01087 -0.09375,-0.05793 z"
       id="path105" />
    <path
       style="fill:#f9f9f9;stroke-width:0.0441942"
       d="m 12.131015,56.441486 c -0.22969,-0.07531 -0.392902,-0.185657 -0.566793,-0.383207 -0.210534,-0.239179 -0.323121,-0.543783 -0.331221,-0.896117 -0.0089,-0.388509 0.215294,-0.716635 0.716257,-1.048157 0.162927,-0.10782 0.16759,-0.10826 0.405452,-0.03829 0.357743,0.105237 0.595453,0.373865 0.925756,1.046164 0.147235,0.299682 0.279357,0.616712 0.293605,0.704511 0.0241,0.148487 0.01288,0.169072 -0.160653,0.294777 -0.35393,0.256386 -0.991604,0.415663 -1.282403,0.320318 z"
       id="path106" />
    <path
       style="fill:#f9f9f9;stroke-width:0.176777"
       d="m 33.723374,46.833715 -0.04098,-0.717385 2.365693,-1.148514 c 2.044173,-0.99242 2.591224,-1.180013 4.025126,-1.380286 0.916596,-0.128021 1.989609,-0.400216 2.397017,-0.608059 0.928471,-0.473671 1.227219,-0.473815 1.377391,-6.64e-4 0.148135,0.466732 0.177272,0.446541 -2.672102,1.851717 -1.423673,0.702088 -2.691781,1.201829 -3.301482,1.30106 -0.544467,0.08862 -1.60365,0.444669 -2.35374,0.791232 -0.750091,0.346563 -1.452036,0.629703 -1.559877,0.629199 -0.107841,-5.04e-4 -0.214514,-0.323739 -0.23705,-0.7183 z"
       id="path107" />
    <path
       style="fill:#f9f9f9;stroke-width:0.0883883"
       d="m 14.058759,53.808837 c -0.07568,-0.108044 -0.137594,-0.244337 -0.137594,-0.302873 0,-0.144829 0.787128,-0.584076 1.974362,-1.101767 0.771078,-0.336228 1.08945,-0.430404 1.457167,-0.431038 0.828494,-0.0014 0.59045,0.218017 -1.266015,1.167096 -0.923658,0.472202 -1.726841,0.860005 -1.784852,0.861787 -0.05801,0.0018 -0.167391,-0.08516 -0.243068,-0.193205 z"
       id="path108" />
    <path
       style="fill:#f9f9f9;stroke-width:0.0625"
       d="m 22.930813,52.963638 c 0.02087,-0.05437 0.03794,-0.124686 0.03794,-0.15625 0,-0.03156 0.04062,-0.05739 0.09026,-0.05739 0.04965,0 0.16459,-0.06393 0.255433,-0.142072 0.134909,-0.116044 0.166014,-0.198032 0.169786,-0.447535 0.0037,-0.245567 -0.02322,-0.328007 -0.137357,-0.420429 -0.203729,-0.16497 -0.654481,-0.156449 -0.774315,0.01464 -0.07943,0.113405 -0.107231,0.119324 -0.222457,0.04736 -0.07242,-0.04523 -0.124576,-0.103426 -0.115893,-0.129323 0.02343,-0.06987 11.360197,-5.636472 11.392887,-5.594154 0.0065,0.0084 0.03011,0.177885 0.0525,0.376647 l 0.04071,0.361384 -0.185178,-0.09576 c -0.37296,-0.192866 -0.722915,-0.08281 -0.914457,0.287596 -0.120161,0.232367 -0.06864,0.517844 0.116927,0.647816 0.253977,0.177893 0.778022,0.09678 0.958756,-0.148397 0.05904,-0.0801 0.08819,-0.08284 0.168876,-0.01588 0.05736,0.04761 0.15326,0.06324 0.232908,0.03796 0.0882,-0.02799 0.127225,-0.01847 0.11196,0.02733 -0.02757,0.08272 -11.131523,5.505319 -11.273344,5.505319 -0.02414,0 -0.02681,-0.04449 -0.0059,-0.09886 z M 25.3097,51.711176 c 0.140991,-0.0541 0.28405,-0.353602 0.28405,-0.594669 0,-0.486789 -0.632456,-0.681166 -1.004808,-0.308815 -0.249696,0.249697 -0.257992,0.624005 -0.01801,0.812772 0.162717,0.127993 0.525526,0.172542 0.738771,0.09071 z m 2.024986,-0.925239 c 0.343017,-0.177381 0.436741,-0.738942 0.168155,-1.007528 -0.19945,-0.19945 -0.632587,-0.21437 -0.831927,-0.02866 -0.288094,0.2684 -0.229781,0.850472 0.103339,1.031519 0.209759,0.114002 0.346793,0.115143 0.560433,0.0047 z m 2.04751,-1.112594 c 0.266466,-0.205656 0.33236,-0.308431 0.334567,-0.521823 0.0028,-0.266328 -0.229456,-0.470238 -0.580567,-0.509814 -0.224002,-0.02525 -0.302833,-0.0063 -0.406844,0.09769 -0.180318,0.180318 -0.290342,0.614366 -0.203851,0.804194 0.128872,0.282843 0.57148,0.349878 0.856695,0.129751 z M 31.4347,48.711176 c 0.140991,-0.0541 0.28405,-0.353602 0.28405,-0.594669 0,-0.486789 -0.632456,-0.681166 -1.004807,-0.308815 -0.249697,0.249697 -0.257993,0.624005 -0.01801,0.812772 0.162717,0.127993 0.525526,0.172542 0.738771,0.09071 z"
       id="path114" />
    <path
       style="fill:#f9f9f9;stroke-width:0.0625"
       d="M 43.7619,56.671875 C 43.50486,56.182031 43.098398,55.373438 42.85865,54.875 42.618902,54.376563 41.923824,52.942188 41.314031,51.6875 39.925678,48.830873 39.09375,47.071074 39.09375,46.990879 c 0,-0.06054 2.871036,-1.484714 4.457701,-2.211237 0.597674,-0.273671 0.826343,-0.351278 0.899348,-0.305228 0.05384,0.03396 0.251732,0.341896 0.439753,0.684294 0.55899,1.017958 4.541352,9.266474 4.614458,9.557753 0.02657,0.105871 -0.01542,0.182505 -0.172442,0.314705 -0.209225,0.17615 -4.887068,2.531334 -5.027709,2.531334 -0.04159,0 -0.285919,-0.400781 -0.542959,-0.890625 z"
       id="path115" />
    <path
       style="fill:#f9f9f9;stroke-width:0.0625"
       d="M 26.692584,69.920564 C 26.490501,69.575734 22.387708,61.295456 21.529303,59.5 20.64746,57.655521 20.094251,56.425232 20.093978,56.307958 c -1.33e-4,-0.05722 0.228283,-0.234298 0.546647,-0.423782 0.760653,-0.452728 4.012851,-2.083017 4.098423,-2.054493 0.03858,0.01286 0.112877,0.161912 0.165099,0.331225 0.202599,0.656876 0.935538,1.090914 1.836812,1.087739 1.110436,-0.0039 2.104986,-0.395742 7.134041,-2.810657 2.791781,-1.340592 2.881819,-1.380942 2.989392,-1.339662 0.04538,0.01741 0.212934,0.248506 0.37235,0.513541 0.392238,0.652108 1.624548,3.184187 1.582662,3.25196 -0.03336,0.05398 -1.232671,0.656722 -5.350654,2.689103 -1.185937,0.585305 -2.406064,1.210971 -2.711391,1.390369 -1.39571,0.820064 -2.158891,2.152555 -1.913398,3.340736 0.160208,0.775406 0.524803,1.223276 1.310932,1.610351 0.505183,0.248743 1.090912,0.291664 1.903176,0.13946 1.165908,-0.218472 1.933152,-0.540265 6.004431,-2.51834 2.50124,-1.215255 3.01412,-1.453008 3.134421,-1.453008 0.15704,0 0.746951,1.039994 1.110659,1.958055 0.152668,0.38536 0.160251,0.440288 0.07809,0.565677 -0.05925,0.09042 -1.341753,0.746568 -3.675834,1.880607 -1.971662,0.957954 -5.38484,2.618818 -7.58484,3.69081 -2.2,1.071992 -4.061345,1.968531 -4.136322,1.99231 -0.114039,0.03617 -0.16244,-0.0013 -0.296094,-0.229395 z m 0.277092,-3.20221 c 0.705373,-0.301913 1.57401,-0.756171 1.737868,-0.908829 0.227155,-0.211626 0.172267,-0.567847 -0.109986,-0.713806 -0.150215,-0.07768 -0.212754,-0.07171 -0.575023,0.05488 -0.596199,0.208328 -1.668369,0.784235 -1.941488,1.042853 -0.257323,0.243661 -0.29106,0.389482 -0.140003,0.605145 0.140412,0.200467 0.424598,0.178298 1.028632,-0.08024 z m -3.985909,-8.11623 c 0.88768,-0.334122 1.866467,-0.898218 1.97612,-1.138881 0.06241,-0.136979 0.05829,-0.192642 -0.02353,-0.317516 -0.171992,-0.262493 -0.361109,-0.307422 -0.762041,-0.18104 -0.471062,0.14849 -1.74035,0.796734 -2.033686,1.038636 -0.26748,0.220578 -0.303835,0.427217 -0.109375,0.621677 0.167242,0.167243 0.466514,0.160055 0.952517,-0.02288 z"
       id="path116" />
    <path
       style="fill:#f9f9f9;stroke-width:0.0625"
       d="m 30.982534,62.809265 c -0.285697,-0.05701 -0.512137,-0.194751 -0.763784,-0.464589 -0.129959,-0.139354 -0.155594,-0.227142 -0.152352,-0.521736 0.0025,-0.230896 0.04922,-0.441215 0.134105,-0.60419 0.175622,-0.337199 0.745159,-0.88576 1.216258,-1.171463 0.887829,-0.538432 7.388119,-3.722404 7.821708,-3.831228 0.144412,-0.03624 0.183482,0.003 0.448215,0.450243 0.159507,0.269471 0.461076,0.835412 0.670152,1.257645 0.364961,0.737044 0.375408,0.771257 0.261652,0.856864 -0.339748,0.255676 -6.142101,3.067924 -7.649738,3.707627 -0.717147,0.304292 -1.464313,0.424979 -1.986216,0.320827 z"
       id="path117" />
    <path
       style="fill:#f9f9f9;stroke-width:0.0625"
       d="m 26.296875,53.900424 c -0.162234,-0.07443 -0.07805,-0.34336 0.200802,-0.641474 0.332011,-0.354947 1.400227,-0.933581 4.783573,-2.59118 2.626227,-1.286664 4.121032,-1.98027 4.267721,-1.98027 0.139328,0 0.407676,0.302494 0.625907,0.70555 0.166151,0.306869 0.16927,0.327221 0.0625,0.407864 -0.44456,0.335775 -7.399609,3.678395 -8.154128,3.918902 -0.50501,0.160974 -1.590045,0.270675 -1.786375,0.180608 z"
       id="path118" />
    <path
       style="fill:#f9f9f9;stroke-width:0.125"
       d="m 45.592933,60.34375 c -0.152562,-0.19043 -0.62032,-1.110121 -0.785271,-1.543974 -0.118521,-0.311734 -0.08435,-0.334245 2.175636,-1.433242 C 48.246125,56.75244 49.349617,56.25 49.435502,56.25 c 0.101583,0 0.129055,0.09829 0.07861,0.28125 -0.04265,0.154688 -0.113163,0.703125 -0.156695,1.21875 -0.04353,0.515625 -0.141759,1.017826 -0.218282,1.116001 C 49.00258,59.041192 46.047725,60.5 45.829426,60.5 c -0.06122,0 -0.167645,-0.07031 -0.236493,-0.15625 z"
       id="path119" />
    <path
       style="fill:#f9f9f9;stroke-width:0.0441942"
       d="m 41.332448,56.4422 c -0.261153,-0.289065 -1.042698,-1.861737 -1.121835,-2.257426 -0.02449,-0.122451 -0.01171,-0.16052 0.07674,-0.228519 0.163414,-0.125638 0.322732,-0.105665 0.460186,0.05769 0.243464,0.289341 0.9844,1.959428 1.026316,2.31334 0.01894,0.159897 0.0089,0.184179 -0.09612,0.232019 -0.165597,0.07545 -0.173853,0.07265 -0.345285,-0.117104 z"
       id="path121" />
    <path
       style="fill:#f9f9f9;stroke-width:0.0441942"
       d="m 43.797015,61.677669 c -0.112329,-0.14727 -1.353399,-2.770581 -1.584341,-3.348897 -0.100378,-0.251364 -0.156615,-0.566987 -0.101023,-0.566987 0.0092,0 0.08779,-0.0297 0.17468,-0.06601 l 0.157981,-0.06601 0.22397,0.36394 c 0.276853,0.44987 1.350589,2.569187 1.566127,3.091187 0.192794,0.466916 0.202992,0.61997 0.04607,0.691466 -0.208646,0.09507 -0.35911,0.06435 -0.483468,-0.09869 z"
       id="path123" />
    <path
       style="fill:#f9f9f9;stroke-width:0.0441942"
       d="m 39.385175,52.469533 c -0.585126,-0.972385 -2.364134,-4.5578 -2.307196,-4.649927 0.01349,-0.02184 0.133838,-0.06416 0.267428,-0.09406 0.232421,-0.05201 0.247757,-0.04979 0.35575,0.05167 0.128843,0.121042 0.699444,1.236842 1.456014,2.847211 0.865884,1.843045 0.884384,1.903366 0.621955,2.027897 -0.08267,0.03923 -0.170724,0.07133 -0.195674,0.07133 -0.02495,0 -0.114175,-0.114352 -0.198277,-0.254116 z"
       id="path124" />
    <path
       style="fill:#f9f9f9;stroke-width:0.125"
       d="M 47.244408,46.472049 C 46.731859,45.425426 46.3125,44.442348 46.3125,44.287431 c 0,-0.154917 0.126563,-0.363762 0.28125,-0.4641 0.154688,-0.100337 2.925,-1.444418 6.15625,-2.986845 3.23125,-1.542427 8.9125,-4.25376 12.625,-6.025185 3.7125,-1.771425 9.5625,-4.570055 13,-6.219177 9.874059,-4.737031 19.519184,-9.330445 24,-11.429809 5.65399,-2.649021 6.42182,-3.041005 6.51172,-3.324251 0.0449,-0.141378 -0.004,-0.321504 -0.11849,-0.435902 -0.16545,-0.165452 -0.27128,-0.172095 -0.69919,-0.04389 C 107.2,13.618642 89.152091,22.198946 56.5,37.875129 44.707329,43.53676 45.691463,43.09548 45.485585,42.813925 45.390388,42.683736 45.3125,42.484436 45.3125,42.371036 c 0,-0.147966 1.279406,-0.8175 4.53125,-2.371275 2.492188,-1.190801 8.328125,-3.990672 12.96875,-6.221936 14.780633,-7.10669 17.921161,-8.612014 24.5,-11.743386 C 102.67101,14.724148 110.58248,11 110.75373,11 c 0.23981,0 0.23425,0.177498 -0.012,0.38184 -0.30907,0.256506 -0.55436,0.81892 -0.55311,1.268203 0.001,0.477499 0.96315,2.907325 1.43021,3.613102 0.37755,0.570516 0.96485,0.905463 1.46018,0.832765 0.2655,-0.03897 0.35826,-0.0015 0.3577,0.144489 -5.4e-4,0.138551 -3.46308,1.828893 -11.65625,5.690336 C 85.2878,30.703745 71.17949,37.40616 58.917126,43.293773 53.096545,46.088448 48.298716,48.375 48.255284,48.375 c -0.04343,0 -0.498326,-0.856327 -1.010876,-1.902951 z"
       id="path125" />
    <path
       style="fill:#f9f9f9;stroke-width:0.125"
       d="m 49.442608,50.995224 c -0.274019,-0.566636 -0.4635,-1.08642 -0.421069,-1.155074 0.04243,-0.06865 0.926817,-0.531451 1.965304,-1.028437 1.038486,-0.496988 5.122532,-2.464917 9.075657,-4.373177 C 71.53993,38.89813 92.65448,28.866214 104.17015,23.482172 105.91373,22.666978 107.41949,22 107.51628,22 c 0.11876,0 0.15448,0.09145 0.10986,0.28125 -0.10665,0.45362 0.10836,0.669315 0.52275,0.524418 0.2507,-0.08766 0.36242,-0.220418 0.39066,-0.464219 C 108.56211,22.14669 108.5181,22 108.43711,22 c -0.0781,0 -0.12402,-0.113502 -0.10205,-0.252226 0.0299,-0.188906 0.5002,-0.471334 1.87332,-1.125 1.72979,-0.823463 2.22878,-0.997827 2.22937,-0.779024 0.001,0.368852 -0.42648,2.302113 -0.54298,2.455601 -0.0796,0.104901 -2.61977,1.36676 -5.64477,2.80413 -18.35999,8.724 -24.650637,11.73 -44.375,21.204693 -6.39375,3.071269 -11.694564,5.614089 -11.779588,5.650711 -0.09791,0.04217 -0.337263,-0.311164 -0.652804,-0.963661 z"
       id="path126" />
    <path
       style="fill:#f9f9f9;stroke-width:0.0625"
       d="m 50.561242,53.372964 c -0.02194,-0.03549 -0.06294,-0.14494 -0.09113,-0.243213 l -0.05124,-0.178677 1.571815,-0.766268 C 54.691956,50.867923 58.659797,48.96416 64.75,46.06291 c 3.23125,-1.539302 8.18125,-3.902272 11,-5.251045 C 95.66214,31.283904 107.28517,25.75 107.38491,25.75 c 0.0152,0 0.0191,0.159931 0.009,0.355403 l -0.0187,0.355403 -1.4375,0.681792 c -3.5084,1.664002 -8.111478,3.858125 -13.46875,6.420076 -3.179687,1.520589 -8.776562,4.19237 -12.4375,5.937292 -3.660937,1.744922 -8.582812,4.093073 -10.9375,5.218112 -2.354687,1.125039 -5.490625,2.61608 -6.96875,3.313425 -3.289098,1.551718 -5.042387,2.38985 -7.84375,3.74958 -2.364286,1.147581 -3.469247,1.656417 -3.596985,1.656417 -0.04573,0 -0.101086,-0.02904 -0.123023,-0.06454 z"
       id="path127" />
    <path
       style="fill:#f9f9f9;stroke-width:0.0625"
       d="m 107.40742,26.046875 0.001,-0.328125 2.13946,-1.016028 c 1.1767,-0.558816 2.17461,-1.015847 2.21758,-1.015625 0.0982,5.07e-4 0.0976,0.02025 -0.009,0.274704 -0.12758,0.305351 -0.35976,0.491683 -1.12925,0.906253 -0.78535,0.423121 -3.05444,1.506946 -3.15494,1.506946 -0.0387,0 -0.066,-0.137171 -0.0653,-0.328125 z"
       id="path128" />
    <path
       style="fill:#f9f9f9;stroke-width:0.0625"
       d="m 113.42708,17.19687 c 0,-0.158319 0.0426,-0.196697 0.38319,-0.345066 0.94241,-0.410555 1.30063,-1.066453 1.06953,-1.958295 -0.23118,-0.89214 -1.23144,-3.0596 -1.61201,-3.493044 -0.10043,-0.114375 -0.33654,-0.283276 -0.52471,-0.375337 -0.29791,-0.145756 -0.39053,-0.162322 -0.71686,-0.128213 -0.20612,0.02154 -0.51686,0.100299 -0.69053,0.175013 -0.26578,0.114336 -0.32484,0.12187 -0.37297,0.04758 -0.15626,-0.241179 -0.0513,-0.31426 1.53728,-1.070116 0.85938,-0.4089014 1.7875,-0.844826 2.0625,-0.9687214 0.275,-0.1238955 1.23125,-0.5748147 2.125,-1.0020427 1.761,-0.84179 3.24335,-1.495641 3.43933,-1.5170624 0.63484,-0.069389 0.80624,0.192355 2.36769,3.6155535 0.83994,1.841417 0.88796,1.984189 0.76577,2.276636 -0.17882,0.427978 -0.46802,0.588002 -4.5756,2.531823 -4.28599,2.02825 -5.06632,2.389419 -5.16253,2.389419 -0.0629,0 -0.0951,-0.06036 -0.0951,-0.17813 z m 3.93431,-2.005503 c 0.39012,-0.150433 0.80735,-0.441082 0.99297,-0.691703 0.1843,-0.248845 0.24559,-0.792579 0.14405,-1.277881 -0.15847,-0.757423 -1.2017,-3.158494 -1.55448,-3.577742 -0.55787,-0.6629952 -1.99088,-0.5843697 -2.66428,0.1461823 -0.30095,0.3264957 -0.4984,0.7539607 -0.4984,1.0790117 0,0.128629 0.0665,0.428641 0.14771,0.666693 0.30772,0.901657 1.09687,2.612733 1.45365,3.151855 0.15959,0.24117 0.58809,0.584248 0.80489,0.64445 0.23966,0.06655 0.81508,-0.0025 1.17389,-0.140866 z m 3.93444,-1.865867 c 0.80881,-0.398426 1.11325,-1.011339 0.90215,-1.816217 -0.13138,-0.500937 -0.41826,-1.18503 -1.01294,-2.415533 -0.53447,-1.1058927 -0.77977,-1.4226815 -1.17958,-1.523355 -0.43741,-0.1101417 -0.98987,-0.086165 -1.38028,0.059904 -0.43173,0.1615317 -1.05482,0.7180606 -1.15968,1.0358063 -0.17766,0.5383105 0.0811,1.3982417 0.97489,3.2401447 0.71038,1.463896 0.95323,1.673266 1.90494,1.642324 0.45598,-0.01483 0.59306,-0.047 0.9505,-0.223074 z"
       id="path129" />
    <path
       style="fill:#f9f9f9;stroke-width:0.0625"
       d="m 107.34375,10.630612 c 0,-0.167965 0.46831,-0.7411297 0.73329,-0.8974705 C 108.71049,9.3593981 115.026,6.375 115.18346,6.375 c 0.0551,0 0.0799,0.036399 0.0601,0.088109 -0.0186,0.04846 0.009,0.1716078 0.0621,0.2736619 0.0878,0.169759 0.0868,0.1938629 -0.0119,0.2831798 -0.0593,0.053695 -0.7122,0.3833599 -1.45081,0.7325893 -3.88006,1.8345638 -6.37627,2.99746 -6.4342,2.99746 -0.0357,0 -0.065,-0.05372 -0.065,-0.119388 z"
       id="path130" />
    <path
       style="fill:#f9f9f9;stroke-width:0.0625"
       d="m 111.34829,6.3556856 c -0.0302,-0.079373 -0.0906,-0.263569 -0.13427,-0.4093246 -0.0719,-0.2398013 -0.068,-0.2762712 0.0408,-0.3833889 0.11948,-0.1176746 2.3051,-1.175304 3.53774,-1.7119226 0.9619,-0.4187557 1.16172,-0.4611168 1.56417,-0.3315986 0.18193,0.05855 0.40109,0.162885 0.48703,0.2318555 L 117,3.8767073 116.84375,4.0101584 C 116.56918,4.2446618 111.74997,6.5 111.52345,6.5 c -0.0682,0 -0.14408,-0.062555 -0.17516,-0.1443144 z"
       id="path131" />
    <path
       style="fill:#1a1a1a;stroke-width:0.0625"
       d="m 116.00631,6.3979086 c -0.0953,-0.119469 -0.16011,-0.2516495 -0.14396,-0.2937341 0.0381,-0.099338 1.4552,-0.7947441 1.70161,-0.8350354 0.16349,-0.026732 0.21203,0.00149 0.36012,0.2093569 0.16093,0.225907 0.16458,0.2452808 0.061,0.3244317 -0.1404,0.1073262 -0.93428,0.4785589 -1.42655,0.6670803 l -0.37894,0.1451173 z"
       id="path132" />
  </g>
</svg>
