<svg height="128" width="128" xmlns="http://www.w3.org/2000/svg">
  <g fill="#fff">
    <path d="m61.455.662v6.562c-29.335 1.298-52.933 24.896-54.23 54.231h-6.564v5.09h6.562c1.298 29.336 24.895 52.933 54.231 54.23v6.563h5.09v-6.562c29.336-1.298 52.933-24.895 54.23-54.231h6.563v-5.09h-6.562c-1.297-29.335-24.895-52.933-54.23-54.23v-6.564zm0 11.656v4.113h5.09v-4.113c26.58 1.283 47.854 22.558 49.137 49.137h-5.61v5.09h5.61c-1.283 26.58-22.558 47.854-49.137 49.137v-4.413h-5.09v4.413c-26.58-1.283-47.854-22.558-49.137-49.137h5.111v-5.09h-5.111c1.283-26.58 22.558-47.854 49.137-49.137z"/>
    <path d="m66.693189 90.665001v-12.768653h-23.136363v-6.002359l24.336835-34.559032h5.347555v34.559032h7.20283v6.002359h-7.20283v12.768653zm0-18.771012v-24.045811l-16.697469 24.045811z" stroke-width=".998"/>
  </g>
</svg>
