<?xml version="1.0" encoding="UTF-8" standalone="no"?>
<svg
   width="141.33116"
   height="66.006584"
   viewBox="0 0 141.33116 66.006584"
   version="1.1"
   id="svg9"
   sodipodi:docname="loot-melee-icepick-final.svg"
   inkscape:version="1.4.2 (ebf0e940, 2025-05-08)"
   inkscape:export-xdpi="228"
   inkscape:export-ydpi="228"
   xml:space="preserve"
   xmlns:inkscape="http://www.inkscape.org/namespaces/inkscape"
   xmlns:sodipodi="http://sodipodi.sourceforge.net/DTD/sodipodi-0.dtd"
   xmlns:xlink="http://www.w3.org/1999/xlink"
   xmlns="http://www.w3.org/2000/svg"
   xmlns:svg="http://www.w3.org/2000/svg"
   xmlns:rdf="http://www.w3.org/1999/02/22-rdf-syntax-ns#"
   xmlns:cc="http://creativecommons.org/ns#"
   xmlns:dc="http://purl.org/dc/elements/1.1/"><metadata
     id="metadata13"><rdf:RDF><cc:Work
         rdf:about=""><dc:format>image/svg+xml</dc:format><dc:type
           rdf:resource="http://purl.org/dc/dcmitype/StillImage" /></cc:Work></rdf:RDF></metadata><sodipodi:namedview
     pagecolor="#ffffff"
     bordercolor="#666666"
     borderopacity="1"
     objecttolerance="10"
     gridtolerance="10"
     guidetolerance="10"
     inkscape:pageopacity="0"
     inkscape:pageshadow="2"
     inkscape:window-width="1064"
     inkscape:window-height="560"
     id="namedview11"
     showgrid="true"
     inkscape:showpageshadow="false"
     inkscape:zoom="1.9733575"
     inkscape:cx="82.853715"
     inkscape:cy="25.590903"
     inkscape:window-x="85"
     inkscape:window-y="25"
     inkscape:window-maximized="0"
     inkscape:current-layer="svg9"
     inkscape:snap-smooth-nodes="true"
     inkscape:object-paths="true"
     inkscape:snap-intersection-paths="true"
     fit-margin-top="0"
     fit-margin-left="0"
     fit-margin-right="0"
     fit-margin-bottom="0"
     inkscape:snap-nodes="true"
     inkscape:pagecheckerboard="0"
     inkscape:deskcolor="#d1d1d1"><inkscape:grid
       type="xygrid"
       id="grid822"
       empspacing="4"
       spacingx="1"
       spacingy="1"
       originx="-0.15475115"
       originy="-4.862824"
       units="px" /></sodipodi:namedview><defs
     id="defs5"><linearGradient
       id="linearGradient20"
       inkscape:collect="always"><stop
         style="stop-color:#d3cece;stop-opacity:1;"
         offset="0"
         id="stop20" /><stop
         style="stop-color:#7f7f7f;stop-opacity:1;"
         offset="0.5"
         id="stop22" /><stop
         style="stop-color:#1f1f1f;stop-opacity:1;"
         offset="1"
         id="stop21" /></linearGradient><linearGradient
       id="linearGradient18"
       inkscape:collect="always"><stop
         style="stop-color:#6e6e6e;stop-opacity:1;"
         offset="0"
         id="stop18" /><stop
         style="stop-color:#1d1d1d;stop-opacity:1;"
         offset="1"
         id="stop19" /></linearGradient><linearGradient
       id="linearGradient15"
       inkscape:collect="always"><stop
         style="stop-color:#110808;stop-opacity:1;"
         offset="0"
         id="stop15" /><stop
         style="stop-color:#7f0404;stop-opacity:1;"
         offset="0.42516449"
         id="stop24" /><stop
         style="stop-color:#b60202;stop-opacity:1;"
         offset="0.85238487"
         id="stop26" /><stop
         style="stop-color:#ffffff;stop-opacity:1;"
         offset="0.91118419"
         id="stop17" /></linearGradient><linearGradient
       inkscape:collect="always"
       xlink:href="#linearGradient15"
       id="linearGradient16"
       x1="39.723373"
       y1="50.024067"
       x2="172"
       y2="0"
       gradientUnits="userSpaceOnUse"
       gradientTransform="matrix(0.90111151,0,0,0.60598143,4.1068442,9.440818)" /><linearGradient
       inkscape:collect="always"
       xlink:href="#linearGradient18"
       id="linearGradient19"
       x1="28"
       y1="48"
       x2="0"
       y2="32"
       gradientUnits="userSpaceOnUse"
       gradientTransform="matrix(0.90111151,0,0,0.60598143,4.1068442,9.440818)" /><linearGradient
       inkscape:collect="always"
       xlink:href="#linearGradient20"
       id="linearGradient21"
       x1="120"
       y1="8"
       x2="148"
       y2="24"
       gradientUnits="userSpaceOnUse" /><clipPath
       clipPathUnits="userSpaceOnUse"
       id="clipPath24"><path
         style="fill:#6c6c6c;fill-opacity:0.360176;stroke:#000000;stroke-width:8;stroke-dasharray:none;stroke-opacity:1"
         d="M 123.3647,50.568407 137,48 133,32 114.30129,3.3071513 117.26749,4.2788401 141,30 l 5,6 v 3 L 144.45162,40 130,52 Z"
         id="path24"
         inkscape:label="front axe outline"
         sodipodi:nodetypes="ccccccccccc" /></clipPath><linearGradient
       inkscape:collect="always"
       xlink:href="#linearGradient20"
       id="linearGradient26"
       x1="139.48663"
       y1="70.203743"
       x2="143.82887"
       y2="59.01049"
       gradientUnits="userSpaceOnUse" /></defs><g
     id="g13"
     inkscape:label="back axe"
     transform="matrix(0.92118212,0,0,0.80405601,1.3526589,-1.3105644)"><path
       style="fill:#666666;fill-opacity:0.360176;stroke:#000000;stroke-width:9.29553;stroke-dasharray:none;stroke-opacity:1"
       d="m 137.14904,55.432818 5.47394,2.882521 L 140,70.203742 141,72 l 5,-16 0.29232,-1.659582 z"
       id="path6"
       inkscape:label="back axe outline" /><path
       style="fill:url(#linearGradient26);fill-opacity:1;stroke:#ffffff;stroke-width:0;stroke-opacity:1"
       d="m 137.14904,55.432818 5.47394,2.882521 L 140,70.203742 141,72 l 5,-16 0.29232,-1.659582 z"
       id="path13"
       inkscape:label="back axe" /></g><g
     id="g14"
     inkscape:label="front axe"
     transform="matrix(0.90111151,0,0,0.70745575,4.1068442,4.1641541)"><path
       style="fill:#6c6c6c;fill-opacity:0.360176;stroke:#000000;stroke-width:10.0196;stroke-dasharray:none;stroke-opacity:1"
       d="M 123.3647,50.568407 137,48 133.10409,32.416353 133,32 114.30129,3.3071513 117.26749,4.2788401 141,30 l 5,6 v 3 L 144.45162,40 130,52 Z"
       id="path5"
       inkscape:label="front axe outline"
       sodipodi:nodetypes="cccccccccccc" /><path
       style="fill:url(#linearGradient21);stroke:#ffffff;stroke-width:0;stroke-opacity:0.866764"
       d="M 123.3647,50.568407 135,42 133,32 114.30129,3.3071513 117.26749,4.2788401 141,30 l 5,6 v 3 L 144.45162,40 130,52 Z"
       id="path14"
       inkscape:label="front axe"
       sodipodi:nodetypes="ccccccccccc" /><path
       style="fill:#3f3f3f;fill-opacity:0.655556;stroke:#000000;stroke-width:0;stroke-dasharray:none;stroke-opacity:1"
       d="m 115,2 c 0,0 12,18 19,28 1.87962,2.685175 2.41537,5.753779 3,8 l -3,3 -22,-37 z"
       id="path22"
       sodipodi:nodetypes="cscccc"
       inkscape:label="sharp"
       clip-path="url(#clipPath24)" /></g><path
     style="display:inline;fill:none;fill-opacity:1;stroke:#000000;stroke-width:8;stroke-dasharray:none;stroke-opacity:1"
     d="m 25.845249,28.137176 c -7,0 -7.331019,1.866451 -7.331019,1.866451 l -1.556026,-0.957948 -1.096809,1.265525 -1.326561,0.153805 -1.669929,-1.026804 -1.210874,1.360813 -3.9427408,0.457131 c 2.6534498,3.257234 4.0310438,3.635889 6.4442778,5.272248 7.950181,3.459695 16.756407,5.292392 25.746466,7.0653 l 3.853717,-4.459789 -21.626676,-5.453833 c -1.283826,-1.542899 0.716174,-3.542899 3.716174,-5.542899 z"
     id="path3"
     sodipodi:nodetypes="ccccccccccccc"
     inkscape:label="handle" /><path
     style="display:inline;fill:url(#linearGradient19);fill-opacity:1;stroke:#ffffff;stroke-width:0;stroke-dasharray:none;stroke-opacity:0.866764"
     d="m 25.845249,28.137176 c -7,0 -7.331019,1.866451 -7.331019,1.866451 l -1.556026,-0.957948 -1.096809,1.265525 -1.326561,0.153805 -1.669929,-1.026804 -1.210874,1.360813 -3.9427408,0.457131 c 2.6534498,3.257234 4.0310438,3.635889 6.4442778,5.272248 7.950181,3.459695 16.756407,5.292392 25.746466,7.0653 l 3.853717,-4.459789 -21.626676,-5.453833 c -1.283826,-1.542899 0.716174,-3.542899 3.716174,-5.542899 z"
     id="path10"
     sodipodi:nodetypes="ccccccccccccc"
     inkscape:label="handle" /><path
     style="fill:#d51717;fill-opacity:0.360176;stroke:#000000;stroke-width:8.00002;stroke-dasharray:none;stroke-opacity:1"
     d="m 39.902034,43.593697 c 9.260386,1.600025 15.568166,2.811988 20.974836,3.41797 5.853904,0.656107 10.822139,0.576758 18.46161,1.590695 5.614801,0.745216 7.670623,1.439212 10.373958,1.659491 2.703334,-0.220279 3.604446,-1.141117 9.912226,-2.195652 3.511466,-0.587046 10.926666,-1.998454 17.121116,-3.274284 4.9329,-1.015995 9.08708,-2.030733 9.91223,-1.862393 l 4.50556,0.446254 c 9.01111,-0.605981 3.55835,-2.722156 1.12569,-5.453833 -0.38762,-0.946471 1.611,-3.201561 1.9846,-4.24187 0.3736,-1.040308 0.49415,-1.946261 0.49415,-1.946261 l -3.24429,-2.486719 c 0,0 -1.83379,9.053961 -15.67905,10.746813 -16.482914,2.584461 -30.045708,6.409187 -62.635174,0.753488 l -9.453745,-1.613488 z"
     id="path2"
     sodipodi:nodetypes="csscsscczzcccccc"
     inkscape:label="arm outline" /><path
     style="display:inline;fill:url(#linearGradient16);stroke:#ffffff;stroke-width:0;stroke-opacity:0.866764"
     d="m 39.902034,43.593697 c 9.260386,1.600025 15.568166,2.811988 20.974836,3.41797 5.853904,0.656107 10.822139,0.576758 18.46161,1.590695 5.614801,0.745216 7.670623,1.439212 10.373958,1.659491 2.703334,-0.220279 3.604446,-1.141117 9.912226,-2.195652 3.511466,-0.587046 10.926666,-1.998454 17.121116,-3.274284 4.9329,-1.015995 9.08708,-2.030733 9.91223,-1.862393 l 4.50556,0.446254 c 9.01111,-0.605981 3.55835,-2.722156 1.12569,-5.453833 -0.38762,-0.946471 1.611,-3.201561 1.9846,-4.24187 0.3736,-1.040308 0.49415,-1.946261 0.49415,-1.946261 l -3.24429,-2.486719 c 0,0 -1.83379,9.053961 -15.67905,10.746813 -16.482914,2.584461 -30.045708,6.409187 -62.635174,0.753488 l -9.453745,-1.613488 z"
     id="path11"
     sodipodi:nodetypes="csscsscczzcccccc"
     inkscape:label="arm" /><path
     style="fill:#292929;fill-opacity:0.997275;stroke:#000000;stroke-width:8;stroke-dasharray:none;stroke-opacity:0.998148"
     d="m 36.546859,37.315964 0.366169,4.847851 14.051615,2.423926 2.880606,-6.450565 c -9,2 -9.102775,0.963581 -17.29839,-0.821212 z"
     id="path26"
     sodipodi:nodetypes="ccccc"
     inkscape:label="guard-outline" /><path
     style="fill:#292929;fill-opacity:0.997275;stroke:#ffffff;stroke-width:0;stroke-opacity:0.866764"
     d="m 36.546859,37.315964 0.29839,5.821212 14,3 3,-8 c -9,1 -9.102775,0.963581 -17.29839,-0.821212 z"
     id="path12"
     sodipodi:nodetypes="ccccc"
     inkscape:label="guard" /><ellipse
     style="fill:#0f0f0f;fill-opacity:1;stroke:#ffffff;stroke-width:0;stroke-opacity:0.866764"
     id="path7"
     cx="13.520039"
     cy="33.074093"
     rx="2.3012552"
     ry="1.5475532" /><ellipse
     style="fill:#060606;fill-opacity:0.472222;stroke:#ffffff;stroke-width:0;stroke-opacity:0.866764"
     id="path8"
     ry="1.5246439"
     rx="4.0581021"
     cy="54.837429"
     cx="81.326813"
     transform="matrix(0.99713107,-0.07569427,0.16554469,0.98620229,0,0)" /><ellipse
     style="fill:#060606;fill-opacity:0.470588;stroke:#ffffff;stroke-width:0;stroke-opacity:0.866764"
     id="path8-1"
     ry="2.1493976"
     rx="2.3453062"
     cy="135.27235"
     cx="-1.9962132"
     transform="matrix(0.54405372,-0.83905039,0.95959455,0.28138637,0,0)" /><path
     style="display:none;fill:#000000;fill-opacity:0.531482;stroke:#ffffff;stroke-width:0;stroke-opacity:0.866764"
     d="m 61.777981,42.769797 c -0.901111,0 -1.431476,1.029108 -0.324493,1.211963 27.357838,4.539591 42.084822,1.183573 62.501192,-3.418368 1.07727,-0.423461 0.72648,-1.429484 -0.59672,-1.429484 -21.93107,4.847852 -34.546634,7.271777 -61.579979,3.635889 z"
     id="path9"
     sodipodi:nodetypes="ccccc" /><path
     style="display:none;fill:#000000;fill-opacity:0.533333;stroke:#ffffff;stroke-width:0;stroke-opacity:0.866764"
     d="m 61.201362,44.910733 c -1.225604,0.282989 -1.225604,0.888971 -0.324492,1.211963 3.604446,0.888971 14.741977,2.04454 23.428899,2.100934 1.113616,-0.259656 1.23209,-1.211963 -0.596716,-1.429484 -8.414399,-0.388461 -13.821068,-0.994442 -22.507691,-1.883413 z"
     id="path9-7"
     sodipodi:nodetypes="ccccc" /><path
     style="display:none;fill:#000000;fill-opacity:0.533333;stroke:#ffffff;stroke-width:0;stroke-opacity:0.866764"
     d="m 96.344709,46.405685 c -1.225602,0.282989 -1.225602,0.888971 -0.324491,1.211963 10.347872,-0.605981 19.824452,-3.299658 28.495482,-5.098423 1.11362,-0.259656 0.75014,-1.567373 -0.97156,-1.369472 -8.81479,1.620044 -17.61169,4.043969 -27.199431,5.255932 z"
     id="path9-7-8"
     sodipodi:nodetypes="ccccc" /></svg>
