<?xml version="1.0" encoding="UTF-8" standalone="no"?>
<svg
   width="128"
   height="128"
   version="1.1"
   id="svg1"
   sodipodi:docname="loot-perk-pirate.svg"
   xml:space="preserve"
   inkscape:version="1.4 (e7c3feb1, 2024-10-09)"
   xmlns:inkscape="http://www.inkscape.org/namespaces/inkscape"
   xmlns:sodipodi="http://sodipodi.sourceforge.net/DTD/sodipodi-0.dtd"
   xmlns="http://www.w3.org/2000/svg"
   xmlns:svg="http://www.w3.org/2000/svg"><defs
     id="defs1" /><sodipodi:namedview
     id="namedview1"
     pagecolor="#ffffff"
     bordercolor="#000000"
     borderopacity="0.25"
     inkscape:showpageshadow="2"
     inkscape:pageopacity="0.0"
     inkscape:pagecheckerboard="0"
     inkscape:deskcolor="#d1d1d1"
     showgrid="true"
     inkscape:zoom="1.1790159"
     inkscape:cx="50.465817"
     inkscape:cy="54.706642"
     inkscape:window-width="1104"
     inkscape:window-height="600"
     inkscape:window-x="52"
     inkscape:window-y="34"
     inkscape:window-maximized="0"
     inkscape:current-layer="svg1"
     showguides="true"><inkscape:grid
       id="grid1"
       units="px"
       originx="0"
       originy="0"
       spacingx="1"
       spacingy="1"
       empcolor="#0099e5"
       empopacity="0.30196078"
       color="#0099e5"
       opacity="0.14901961"
       empspacing="5"
       enabled="true"
       visible="true" /></sodipodi:namedview><path
     id="path2"
     style="fill:#ffffff;fill-opacity:1;stroke:#360202;stroke-width:0;stroke-linecap:round;stroke-linejoin:round"
     d="M 9.6237592,72.343623 V 101.22717 L 58.405009,112.78162 V 83.898067 Z m 3.3803708,8.344971 c 0,0 4.183594,5.962798 12.058594,10.597412 7.875,4.634616 14.640869,3.5 14.640869,3.5 0,0 -1.764767,2.209358 -1.972168,3.072755 -0.2074,0.863398 0.456299,2.561769 0.456299,2.561769 0,0 -7.976409,-0.697651 -16.625,-6.973163 C 12.914134,87.171861 13.00413,80.688594 13.00413,80.688594 Z M 45.683329,94.12463 c 0,0 -1.073342,3.218896 -1.406494,5.048338 -0.33315,1.829452 -0.446044,5.458492 -0.446044,5.458492 0,0 -3.469614,-2.6798 -3.705079,-6.304434 1.648242,-3.5865 5.557617,-4.202396 5.557617,-4.202396 z m 0.931397,3.262454 8.078369,1.421875 -0.550293,3.968261 -8.080078,-1.42359 z"
     sodipodi:nodetypes="ccccccscscsccscccccccc" /><path
     style="fill:#ffffff;fill-opacity:1;stroke:#360202;stroke-width:0;stroke-linecap:round;stroke-linejoin:round"
     d="m 64.415327,83.89725 v 28.88364 L 96.812724,95.727207 V 69.411006 Z"
     id="path3"
     sodipodi:nodetypes="ccccc" /><path
     style="fill:#ffffff;fill-opacity:1;stroke:#360202;stroke-width:0;stroke-linecap:round;stroke-linejoin:round"
     d="M 113.19657,29.339273 97.791972,59.506625 c 0,0 1.056606,1.818683 -0.104248,3.61801 0,0 15.826086,-5.241908 19.360006,-12.60403 4.49301,-9.360155 -3.85116,-21.181332 -3.85116,-21.181332 z"
     id="path6"
     sodipodi:nodetypes="cccsc" /><path
     id="path5"
     style="display:inline;fill:#ffffff;fill-opacity:1;stroke:#360202;stroke-width:0;stroke-linecap:round;stroke-linejoin:round"
     inkscape:label="chest interior"
     d="m 36.172832,55.012813 -5.602051,2.801026 c 2.749482,0.62969 5.305582,-0.07727 8.491943,-2.12085 z m 3.267578,0.769043 -0.326416,2.25415 c -3.788022,3.030418 -7.624946,3.437472 -11.42627,1.220215 l -0.04273,0.02051 0.307617,1.406494 c -0.607363,1.019501 -1.272407,1.8928 -1.994384,2.619873 2.83296,5.444397 5.886958,7.105839 12.094481,6.62915 L 36.43772,72.036006 C 30.909602,72.947314 27.037121,70.77442 24.93455,65.581173 l 0.721191,-1.98584 c -2.643128,2.460855 -6.011924,3.04067 -10.053955,1.719238 l -0.0068,-0.01196 -5.096192,2.548096 28.129883,7.03247 -0.251221,-1.534668 c 5.25,3.5 8.75,3.5 14,0 l -0.379394,2.625 c -0.836383,0.669107 -1.675333,1.210259 -2.515625,1.623536 l 7.314453,1.828612 c 4.575289,-1.793157 6.39464,-4.535783 6.996582,-10.069335 l 1.770507,1.975585 c -0.09353,4.326031 -1.813611,7.342934 -5.121825,9.004639 l 1.406494,0.352051 27.345459,-12.154296 c -2.117653,-0.03785 -4.236321,-0.882749 -6.338623,-2.536134 h -0.0017 L 75.956237,64.37463 c 1.372463,1.036097 3.164211,1.771359 5.504639,2.351562 l -2.194335,1.490235 c -3.657448,-0.576239 -6.205976,-2.203664 -7.618653,-4.855225 l -8.228759,-1.936279 c -2.28734,2.262656 -5.366346,3.018292 -9.196046,2.247314 l -1.584187,-2.136231 c 3.153238,0.354397 5.507175,0.123574 7.458007,-0.893798 L 48.045146,57.807002 h -0.0018 c -2.606673,0.6127 -5.218797,-5.52e-4 -7.811767,-1.838866 z m -13.851319,4.523682 -6.483887,3.241943 c 2.536001,-0.143645 4.529225,-1.161247 6.483887,-3.241943 z m 39.723633,3.592285 c 3.633815,5.158283 6.897527,6.420384 13.056641,5.050049 l -1.300537,2.312255 c -5.343037,1.685998 -9.483532,0.0831 -12.30127,-4.759521 z m -26.465332,0.700683 c 5.25,3.5 8.75,3.5 14,0 l -0.377685,2.625 c -4.375,3.5 -8.816651,3.5 -13.191651,0 z" /><path
     id="path7"
     style="display:inline;fill:#ffffff;fill-opacity:1;stroke:#360202;stroke-width:0;stroke-linecap:round;stroke-linejoin:round"
     d="m 15.929911,62.732296 c -0.537816,0.01093 -1.088058,0.09271 -1.616699,0.283691 2.001391,0.464519 3.697877,0.644657 5.203857,0.499024 -0.472236,-0.210884 -1.973708,-0.81551 -3.587158,-0.782715 z m -1.642333,0.292236 c -0.359357,0.132348 -0.709216,0.316151 -1.037354,0.562256 -2.567434,1.925575 -2.751465,4.263916 -2.751465,4.263916 l 9.170411,-1.054443 v -0.792969 c -1.268612,0.01172 -2.625114,-0.21721 -4.067384,-0.688721 z" /><path
     id="path9"
     style="display:inline;fill:#ffffff;fill-opacity:1;stroke:#360202;stroke-width:0;stroke-linecap:round;stroke-linejoin:round"
     d="m 21.521708,56.914913 c -0.990592,-0.05503 -2.139903,0.206688 -3.458984,0.960449 -2.768457,1.581975 -3.641979,3.503357 -3.768311,5.135498 5.296818,1.232872 8.461967,0.48304 11.598878,-3.038574 -0.778207,-1.287527 -2.192281,-2.936296 -4.371583,-3.057373 z m -7.229004,6.119873 c -0.1439,1.967594 0.794678,3.506836 0.794678,3.506836 l 1.922608,-0.837403 c -0.459693,-0.103189 -0.929567,-0.23317 -1.408204,-0.389648 z" /><path
     id="path13"
     style="display:inline;fill:#ffffff;fill-opacity:1;stroke:#360202;stroke-width:0;stroke-linecap:round;stroke-linejoin:round"
     d="m 30.717754,51.757198 c -0.272317,-0.01077 -0.550415,-0.009 -0.835695,0.0086 -0.783552,0.04812 -1.616705,0.208685 -2.495116,0.512696 -7.027294,2.432086 -5.730225,10.141113 -5.730225,10.141113 l 2.667725,-0.922852 v -0.0018 h 0.0018 c 0.869937,-0.713383 1.711872,-1.620902 2.568562,-2.739491 -0.324393,-0.220653 -0.64869,-0.460504 -0.972412,-0.719483 l -0.428955,-2.625 c 4.812872,3.208582 8.153718,3.475787 12.72168,0.801514 -0.79771,-1.119112 -3.412571,-4.29375 -7.497314,-4.455322 z m -3.084718,7.466553 0.229005,1.047607 1.086913,-0.375977 c -0.438912,-0.188657 -0.877848,-0.413268 -1.315918,-0.67163 z" /><path
     id="path14"
     style="display:inline;fill:#ffffff;fill-opacity:1;stroke:#360202;stroke-width:0;stroke-linecap:round;stroke-linejoin:round"
     inkscape:label="coin top"
     d="m 59.187724,40.375362 c -6.125,0 -8.121094,4.797119 -8.121094,4.797119 0,0 -1.022842,-2.131628 -6.130126,-1.838867 -5.107284,0.292762 -6.128419,4.28955 -6.128419,4.28955 0,0 -3.245361,-2.445567 -6.745361,-1.122802 -5.286142,1.997805 -3.5,7.875 -3.5,7.875 l 9.329345,2.021728 c 0.51658,-0.290252 1.050221,-0.618696 1.601319,-0.986084 l -0.430664,-2.625 c 5.25,3.5 8.75,3.5 14,0 l -0.379395,2.625 c -2.461951,1.969562 -4.943564,2.831093 -7.423828,2.583985 l 13.988037,3.031738 c 2.339978,-0.903009 4.095556,-2.773354 5.834473,-5.90625 l 0.864746,2.505371 c -0.792192,1.774058 -1.783003,3.17858 -2.970215,4.209229 l 8.898682,1.927734 c -0.86384,-1.437822 -1.366281,-3.20274 -1.502197,-5.289307 l 1.64917,-2.08667 c 0.637857,4.170041 1.903754,6.706558 4.503173,8.384278 h 0.0018 l 6.591553,1.428711 c -0.124134,-0.09357 -0.248608,-0.189626 -0.372599,-0.288819 l -0.428955,-2.625 c 4.256117,2.837412 7.36123,3.374679 11.181885,1.611573 0.404753,-0.756497 0.68872,-1.64447 0.68872,-2.647217 0,-2.080076 -1.270771,-3.383061 -2.043946,-3.983643 -4.279783,3.268199 -8.620753,3.190848 -12.897704,-0.230713 l -0.428955,-2.625 c 5.187541,3.458362 8.665124,3.499121 13.812011,0.123047 0.327483,-1.51158 0.191394,-3.645211 -1.720947,-6.072021 -3.761113,-4.77295 -10.419678,-1.838868 -10.419678,-1.838868 0,0 -0.351702,-2.986199 -4.904785,-4.622802 -4.553084,-1.636604 -9.074707,1.75 -9.074707,1.75 0,0 -1.196289,-4.375 -7.321289,-4.375 z m -19.694336,15.035644 -0.186279,1.293702 4.002441,0.868164 C 42.03393,57.14653 40.761122,56.425104 39.493388,55.411006 Z m 26.321778,-7.835693 -0.03589,1.727783 c 5.018896,3.811087 8.511167,4.024964 13.964116,0.85791 l -0.541749,2.595948 c -4.582885,3.223011 -9.015617,2.948431 -13.166016,-0.815186 l -0.258056,-2.566895 -0.01879,0.852784 c -3.914552,4.008355 -8.322648,4.550765 -13.09253,1.611572 l -0.74683,-2.553223 c 5.638326,2.832277 9.112761,2.404578 13.895753,-1.710693 z" /><path
     id="path16"
     style="display:inline;fill:#ffffff;fill-opacity:1;stroke:#360202;stroke-width:0;stroke-linecap:round;stroke-linejoin:round"
     d="m 54.14559,15.218385 -17.330181,26.90625 c 0.9051,0 1.810315,0.875 1.810315,0.875 0,0 0.338787,-3.193428 5.687,-3.5 5.348213,-0.306572 6.473452,1.75 6.473452,1.75 0,0 1.89151,-5.25 8.401548,-5.25 7,0 8.436895,3.893821 8.436895,3.893821 0,0 3.366611,-2.59394 8.382202,-1.877311 5.591298,0.798886 5.690696,4.98349 5.690696,4.98349 0,0 4.683069,-2.818049 9.865207,0.875 4.517975,3.219735 4.383033,6.808567 3.769644,11.375 0,0 0.542493,0.566195 0.605356,1.75 L 110.62914,27.248219 Z"
     sodipodi:nodetypes="cccscscscscccc" /></svg>
