<?xml version="1.0" encoding="UTF-8" standalone="no"?>
<!-- Created with Inkscape (http://www.inkscape.org/) -->

<svg
   width="100mm"
   height="100mm"
   viewBox="0 0 100 100"
   version="1.1"
   id="svg1"
   inkscape:export-filename="bitmap.svg"
   inkscape:export-xdpi="96"
   inkscape:export-ydpi="96"
   inkscape:version="1.4 (86a8ad7, 2024-10-11)"
   sodipodi:docname="loot-scope-05.svg"
   xmlns:inkscape="http://www.inkscape.org/namespaces/inkscape"
   xmlns:sodipodi="http://sodipodi.sourceforge.net/DTD/sodipodi-0.dtd"
   xmlns="http://www.w3.org/2000/svg"
   xmlns:svg="http://www.w3.org/2000/svg">
  <sodipodi:namedview
     id="namedview1"
     pagecolor="#505050"
     bordercolor="#ffffff"
     borderopacity="1"
     inkscape:showpageshadow="0"
     inkscape:pageopacity="0"
     inkscape:pagecheckerboard="1"
     inkscape:deskcolor="#505050"
     inkscape:document-units="mm"
     showgrid="true"
     inkscape:zoom="0.49264169"
     inkscape:cx="-411.04926"
     inkscape:cy="313.61536"
     inkscape:window-width="1366"
     inkscape:window-height="705"
     inkscape:window-x="-8"
     inkscape:window-y="-8"
     inkscape:window-maximized="1"
     inkscape:current-layer="layer1">
    <inkscape:grid
       id="grid1"
       units="mm"
       originx="0"
       originy="0"
       spacingx="0.99999998"
       spacingy="1"
       empcolor="#0099e5"
       empopacity="0.30196078"
       color="#0099e5"
       opacity="0.14901961"
       empspacing="5"
       enabled="true"
       visible="true" />
  </sodipodi:namedview>
  <defs
     id="defs1">
    <rect
       x="30.859741"
       y="34.089249"
       width="71.228592"
       height="64.590157"
       id="rect1" />
  </defs>
  <g
     inkscape:label="Layer 1"
     inkscape:groupmode="layer"
     id="layer1">
    <path
       d="M 48.186409,0.97436366 V 6.134562 C 25.123566,7.1544932 6.5737554,25.704313 5.5538093,48.767155 H 0.39362568 v 4.001083 H 5.5522341 C 6.5729529,75.83108 25.122793,94.38092 48.185637,95.400837 v 5.159413 h 4.001082 V 95.401639 C 75.249561,94.38092 93.799372,75.83108 94.819318,52.768238 h 5.159411 V 48.767155 H 94.820091 C 93.799372,25.704313 75.249561,7.1544932 52.186719,6.134562 V 0.97436366 Z m 0,9.16364034 v 3.234374 h 4.001083 v -3.234374 c 20.895594,1.008923 37.620249,17.733557 38.629168,38.629151 h -4.411563 v 4.001083 H 90.81666 C 89.807741,73.663832 73.083086,90.388487 52.187492,91.397406 v -3.470289 h -4.001083 v 3.470289 C 27.290814,90.388487 10.566189,73.663832 9.5572693,52.768238 H 13.575649 V 48.767155 H 9.5572693 C 10.566189,27.871561 27.290814,11.146927 48.186409,10.138004 Z"
       fill="#ffffff"
       id="path1"
       style="stroke-width:0.786375" />
    <text
       xml:space="preserve"
       transform="scale(0.26458333)"
       id="text1"
       style="text-align:start;writing-mode:lr-tb;direction:ltr;white-space:pre;shape-inside:url(#rect1);display:inline;fill:#545454;stroke:#000000;stroke-width:0.19;stroke-linecap:round;stroke-linejoin:round" />
    <text
       style="line-height:1.25;-inkscape-font-specification:Arial"
       x="4.0480738"
       y="26.197405"
       font-weight="400"
       font-size="13.577px"
       font-family="Arial"
       letter-spacing="0"
       word-spacing="0"
       fill="#ffffff"
       stroke-width="0.339252"
       id="text1-4"
       transform="scale(1.0394303,0.96206544)"><tspan
         x="4.0480738"
         y="26.197405"
         style="-inkscape-font-specification:Arial;stroke-width:0.339252"
         font-size="25.3432px"
         letter-spacing="-4.987"
         id="tspan1-5" /></text>
    <path
       style="fill:#ffffff;fill-opacity:1;stroke:#000000;stroke-width:0.0259043;stroke-linecap:round;stroke-linejoin:round"
       d="M 34.019864,71.440086 C 27.986123,70.676336 24.449633,67.882816 23.179923,62.877479 22.99301,62.140683 22.8401,61.462583 22.8401,61.370588 c 0,-0.116203 0.572224,-0.216409 1.874655,-0.328264 1.03106,-0.08855 2.122981,-0.194582 2.426491,-0.235624 l 0.551835,-0.07462 0.245935,1.043192 c 0.683577,2.899582 2.494992,4.774581 5.35635,5.544369 1.287273,0.346313 4.264395,0.418631 5.564515,0.135159 1.234232,-0.269082 2.943568,-1.143373 3.726548,-1.90602 1.246587,-1.214213 1.924367,-3.068105 1.929137,-5.276648 0.0061,-2.731167 -1.145064,-4.590072 -3.581217,-5.783979 -1.825916,-0.89484 -3.711256,-1.228817 -6.94857,-1.230901 l -1.738319,-0.0011 v -2.045059 -2.045077 h 2.187166 c 2.639813,0 3.848459,-0.213451 5.418728,-0.956997 2.707711,-1.28213 4.001456,-3.815183 3.568485,-6.98682 -0.175167,-1.283216 -0.415865,-1.996137 -0.960426,-2.84476 -1.260135,-1.963754 -3.224456,-2.847071 -6.322862,-2.843266 -2.683755,0.0032 -4.458233,0.605116 -5.864303,1.988899 -0.849879,0.836408 -1.632133,2.310917 -1.873154,3.530799 -0.08889,0.449916 -0.16477,0.828024 -0.168618,0.84024 -0.01781,0.05612 -4.612807,-0.356076 -4.676196,-0.419467 -0.160777,-0.160777 0.551883,-2.666633 1.049037,-3.688555 2.082463,-4.280584 7.089678,-6.594049 13.146671,-6.074111 5.40547,0.464016 8.916291,2.840771 10.174282,6.887798 0.41051,1.320637 0.519198,3.970467 0.220889,5.385373 -0.297852,1.412736 -1.160789,3.105602 -2.044462,4.010715 -1.262046,1.292668 -3.342145,2.406382 -5.264399,2.818629 -1.009724,0.216553 -0.873376,0.464849 0.364955,0.664614 3.891256,0.627724 6.64925,2.720983 7.787735,5.910716 0.319915,0.896317 0.349357,1.16338 0.348409,3.160463 -9.1e-4,1.986586 -0.03441,2.29101 -0.374564,3.408465 -0.544783,1.789616 -1.168191,2.817418 -2.524417,4.161975 -1.633506,1.619456 -3.421712,2.511622 -6.152868,3.069774 -0.997206,0.203801 -5.281633,0.374413 -6.267678,0.249611 z"
       id="path2" />
    <path
       style="fill:#ffffff;fill-opacity:1;stroke:#000000;stroke-width:0.0256215;stroke-linecap:round;stroke-linejoin:round"
       d="M 63.802273,71.341727 C 58.018908,70.292278 54.65701,65.893923 53.429295,57.770818 53.096969,55.572006 53.022686,49.589642 53.295754,47.015489 c 0.910409,-8.582516 3.866319,-13.101326 9.494304,-14.514305 2.214336,-0.555938 5.444022,-0.49575 7.656221,0.142687 6.063916,1.750022 9.096963,8.045459 9.124839,18.939648 0.01187,4.670792 -0.426832,7.954817 -1.459084,10.920404 -1.506704,4.328636 -3.98657,7.146343 -7.305244,8.300465 -2.012385,0.699839 -4.89175,0.920725 -7.004508,0.537344 z m 5.183017,-3.978729 c 3.232818,-1.142048 5.07875,-4.679215 5.691207,-10.905479 0.177713,-1.806649 0.176834,-7.617997 -0.0015,-9.526313 -0.606503,-6.492317 -2.375354,-9.753248 -5.862007,-10.806778 -1.233785,-0.372802 -3.883998,-0.334036 -5.056853,0.07397 -1.619386,0.563344 -2.594822,1.305266 -3.504774,2.665757 -1.085776,1.623375 -1.72009,3.636113 -2.181099,6.920832 -0.284626,2.027964 -0.244187,10.269852 0.0603,12.289103 0.863803,5.728478 2.679753,8.522284 6.164962,9.484688 1.094955,0.30236 3.572342,0.198933 4.689683,-0.195781 z"
       id="path3" />
  </g>
</svg>
