<?xml version="1.0" encoding="UTF-8" standalone="no"?>
<!-- Created with Inkscape (http://www.inkscape.org/) -->

<svg
   width="128"
   height="128"
   viewBox="0 0 33.866666 33.866666"
   version="1.1"
   id="svg1"
   xml:space="preserve"
   inkscape:version="1.1.2 (b8e25be833, 2022-02-05)"
   sodipodi:docname="IMBEL.svg"
   xmlns:inkscape="http://www.inkscape.org/namespaces/inkscape"
   xmlns:sodipodi="http://sodipodi.sourceforge.net/DTD/sodipodi-0.dtd"
   xmlns="http://www.w3.org/2000/svg"
   xmlns:svg="http://www.w3.org/2000/svg"><sodipodi:namedview
     id="namedview1"
     pagecolor="#ffffff"
     bordercolor="#111111"
     borderopacity="1"
     inkscape:showpageshadow="0"
     inkscape:pageopacity="0"
     inkscape:pagecheckerboard="1"
     inkscape:deskcolor="#d1d1d1"
     inkscape:document-units="px"
     inkscape:zoom="5.2227881"
     inkscape:cx="56.770444"
     inkscape:cy="56.291773"
     inkscape:window-width="2560"
     inkscape:window-height="1377"
     inkscape:window-x="-8"
     inkscape:window-y="-8"
     inkscape:window-maximized="1"
     inkscape:current-layer="layer1"
     inkscape:pageshadow="0"
     showgrid="false"
     inkscape:lockguides="true" /><defs
     id="defs1" /><g
     inkscape:label="Layer 1"
     inkscape:groupmode="layer"
     id="layer1"><path
       style="font-variation-settings:normal;opacity:1;vector-effect:none;fill:#ffffff;fill-opacity:1;stroke:#323232;stroke-width:0.553699;stroke-linecap:butt;stroke-linejoin:miter;stroke-miterlimit:4;stroke-dasharray:none;stroke-dashoffset:0;stroke-opacity:1;-inkscape-stroke:none;stop-color:#000000;stop-opacity:1"
       d="m 8.5242089,21.459811 2.0337491,2.301199 0.574225,-0.574225 c 0,0 -0.133722,-0.22025 0.09045,-0.420836 0.224185,-0.200582 4.370695,-3.700475 4.370695,-3.700475 l 0.2357,-0.235699 0.617401,0.617401 2.389639,-2.712248 -0.906631,-0.906632 c 0,0 -0.288078,-0.244082 -0.130756,-0.432869 0.157321,-0.188787 0.869202,-0.869202 0.869202,-0.869202 l -1.628646,-1.628647 -0.774808,0.774808 -0.106682,-0.02857 -7.1412174,7.143622 0.082594,0.09833 z"
       id="path1"
       sodipodi:nodetypes="cccscccccsccccccc" /><path
       style="font-variation-settings:normal;opacity:1;vector-effect:none;fill:#ffffff;fill-opacity:1;stroke:#323232;stroke-width:0.553699;stroke-linecap:butt;stroke-linejoin:miter;stroke-miterlimit:4;stroke-dasharray:none;stroke-dashoffset:0;stroke-opacity:1;-inkscape-stroke:none;stop-color:#000000;stop-opacity:1"
       d="m 12.956875,22.380526 1.499001,-1.25427 0.04163,0.07602 0.61749,3.759092 -2.185932,0.584027 c 0,0 -0.328167,0.105682 -0.200238,-0.289232 0.127931,-0.394914 0.239174,-2.00794 0.311484,-2.380605 0.07231,-0.372666 -0.08343,-0.49503 -0.08343,-0.49503 z"
       id="path2"
       sodipodi:nodetypes="cccccssc" /><path
       style="font-variation-settings:normal;opacity:1;vector-effect:none;fill:#ffffff;fill-opacity:1;stroke:#323232;stroke-width:0.553699;stroke-linecap:butt;stroke-linejoin:miter;stroke-miterlimit:4;stroke-dasharray:none;stroke-dashoffset:0;stroke-opacity:1;-inkscape-stroke:none;stop-color:#000000;stop-opacity:1"
       d="m 17.501159,19.605006 1.802142,-2.069127 c 0,0 0.539555,0.528382 1.090184,0.901071 0.550653,0.372666 2.158121,1.145806 2.158121,1.145806 L 21.25562,22.03567 c 0,0 -1.26261,-0.561779 -2.202615,-1.234799 -0.940007,-0.673021 -1.551846,-1.195865 -1.551846,-1.195865 z"
       id="path3"
       sodipodi:nodetypes="ccsccsc" /><path
       style="font-variation-settings:normal;opacity:1;vector-effect:none;fill:#ffffff;fill-opacity:1;stroke:#323232;stroke-width:0.553699;stroke-linecap:butt;stroke-linejoin:miter;stroke-miterlimit:4;stroke-dasharray:none;stroke-dashoffset:0;stroke-opacity:1;-inkscape-stroke:none;stop-color:#000000;stop-opacity:1"
       d="m 17.547362,12.197909 1.817123,1.817123 c 0,0 4.085989,-4.1376635 4.849002,-4.8692105 C 24.976497,8.414278 27.053144,6.258972 27.053144,6.258972 L 25.542488,4.7483161 24.260315,6.0304867 24.126591,5.8967629 Z"
       id="path4"
       sodipodi:nodetypes="ccsccccc" /><path
       style="font-variation-settings:normal;opacity:1;vector-effect:none;fill:none;fill-opacity:1;stroke:#323232;stroke-width:0.553699;stroke-linecap:butt;stroke-linejoin:miter;stroke-miterlimit:4;stroke-dasharray:none;stroke-dashoffset:0;stroke-opacity:1;-inkscape-stroke:none;stop-color:#000000;stop-opacity:1"
       d="m 24.260314,6.030486 c 0,0 0.499469,0.4756255 0.855474,0.8649493 0.355978,0.3893535 0.611839,0.7787041 0.611839,0.7787041"
       id="path5"
       sodipodi:nodetypes="csc" /><path
       style="font-variation-settings:normal;opacity:1;vector-effect:none;fill:none;fill-opacity:1;stroke:#323232;stroke-width:0.553699;stroke-linecap:butt;stroke-linejoin:miter;stroke-miterlimit:4;stroke-dasharray:none;stroke-dashoffset:0;stroke-opacity:1;-inkscape-stroke:none;stop-color:#000000;stop-opacity:1"
       d="m 8.6128242,22.853307 1.3321374,1.521252 -0.305919,0.305919 -1.2598298,-1.259829 c 0,0 -0.2002371,-0.144618 -0.044497,-0.289232 z"
       id="path6"
       sodipodi:nodetypes="cccccc" /><path
       style="font-variation-settings:normal;opacity:1;vector-effect:none;fill:#ffffff;fill-opacity:1;stroke:#323232;stroke-width:0.553699;stroke-linecap:butt;stroke-linejoin:miter;stroke-miterlimit:4;stroke-dasharray:none;stroke-dashoffset:0;stroke-opacity:1;-inkscape-stroke:none;stop-color:#000000;stop-opacity:1"
       d="m 2.6168121,29.88388 c 2.1636814,1.451726 2.5697196,2.247116 2.7866436,2.508537 0.2169241,0.261422 0.2669844,0.367104 0.472784,0.150177 0.2057748,-0.216947 0.3281656,-0.30592 0.3337296,-0.500594 0.00556,-0.194674 0.1725915,-1.003155 0.1725915,-1.003155 L 3.621848,28.689731 c 0,0 -0.582312,0.348697 -0.8270472,0.660183 -0.244732,0.311483 -0.3670986,0.411604 -0.1779887,0.533966 z"
       id="path7"
       sodipodi:nodetypes="cscsccsc" /><path
       style="font-variation-settings:normal;opacity:1;fill:none;fill-opacity:1;stroke:#323232;stroke-width:0.692124;stroke-linecap:butt;stroke-linejoin:miter;stroke-miterlimit:4;stroke-dasharray:none;stroke-dashoffset:0;stroke-opacity:1;stop-color:#000000;stop-opacity:1"
       d="M 3.8054881,28.689731 8.6607181,23.6261"
       id="path8"
       sodipodi:nodetypes="cc" /><path
       style="font-variation-settings:normal;opacity:1;fill:none;fill-opacity:1;stroke:#323232;stroke-width:0.692124;stroke-linecap:butt;stroke-linejoin:miter;stroke-miterlimit:4;stroke-dasharray:none;stroke-dashoffset:0;stroke-opacity:1;stop-color:#000000;stop-opacity:1"
       d="M 6.2997383,31.095318 C 6.9115756,27.713523 6.6438178,27.380909 7.4392073,26.574395 8.234573,25.767857 9.5083318,24.349529 9.5083318,24.349529"
       id="path9"
       sodipodi:nodetypes="ccc" /><path
       style="font-variation-settings:normal;opacity:1;fill:none;fill-opacity:1;stroke:#323232;stroke-width:0.830548;stroke-linecap:butt;stroke-linejoin:miter;stroke-miterlimit:4;stroke-dasharray:none;stroke-dashoffset:0;stroke-opacity:1;stop-color:#000000;stop-opacity:1"
       d="m 6.8106829,25.690011 c 0.7620157,0.69527 0.7620157,0.69527 0.7620157,0.69527"
       id="path10" /><path
       style="font-variation-settings:normal;opacity:1;vector-effect:none;fill:none;fill-opacity:1;stroke:#323232;stroke-width:0.553699;stroke-linecap:round;stroke-linejoin:miter;stroke-miterlimit:4;stroke-dasharray:none;stroke-dashoffset:0;stroke-opacity:1;-inkscape-stroke:none;stop-color:#000000;stop-opacity:1"
       d="M 25.847623,4.8406827 26.164667,4.52364"
       id="path11"
       sodipodi:nodetypes="cc" /><path
       style="font-variation-settings:normal;opacity:1;vector-effect:none;fill:#323232;fill-opacity:1;stroke:none;stroke-width:0.553699;stroke-linecap:butt;stroke-linejoin:miter;stroke-miterlimit:4;stroke-dasharray:none;stroke-dashoffset:0;stroke-opacity:1;-inkscape-stroke:none;stop-color:#000000;stop-opacity:1"
       d="M 24.699491,5.0210182 25.307143,4.4133639 25.124259,4.2304785 c 0,0 -0.178958,-0.1592864 -0.371673,0.03343 -0.192719,0.1927184 -0.173053,0.4247682 -0.159289,0.5053961 0.01376,0.080624 0.04326,0.1887855 0.106194,0.2517136 z"
       id="path12"
       sodipodi:nodetypes="cccssc" /><path
       style="font-variation-settings:normal;opacity:1;vector-effect:none;fill:#323232;fill-opacity:1;stroke:none;stroke-width:0.553699;stroke-linecap:butt;stroke-linejoin:miter;stroke-miterlimit:4;stroke-dasharray:none;stroke-dashoffset:0;stroke-opacity:1;-inkscape-stroke:none;stop-color:#000000;stop-opacity:1"
       d="m 26.699959,5.2873903 0.432634,0.4326355 2.025402,-2.0254006 0.08663,0.023214 0.778499,-0.7784998 0.102401,0.1024004 1.491958,-1.4919579 -0.614172,-0.61417383 -1.4406,1.44059993 0.07231,0.072308 -0.795389,0.7953897 7e-6,0.083432 L 27.805076,4.3619 c 0,0 -0.319823,0.047279 -0.333729,0.066747 -0.01393,0.019445 -0.347636,0.3476356 -0.347636,0.3476356 l -0.08621,-0.086213 -0.141835,0.141835 0.186332,0.1863333 -0.177988,0.177988 -0.05643,-0.056438 z"
       id="path13"
       sodipodi:nodetypes="cccccccccccccsccccccc" /><path
       style="font-variation-settings:normal;opacity:1;fill:none;fill-opacity:1;stroke:#323232;stroke-width:0.346062;stroke-linecap:round;stroke-linejoin:miter;stroke-miterlimit:4;stroke-dasharray:none;stroke-dashoffset:0;stroke-opacity:1;stop-color:#000000;stop-opacity:1"
       d="m 27.538084,5.2574076 c 0.614618,0.6146186 0.614618,0.6146186 0.614618,0.6146186"
       id="path14" /><path
       style="font-variation-settings:normal;opacity:1;vector-effect:none;fill:#323232;fill-opacity:1;stroke:none;stroke-width:0.553699;stroke-linecap:butt;stroke-linejoin:miter;stroke-miterlimit:4;stroke-dasharray:none;stroke-dashoffset:0;stroke-opacity:1;-inkscape-stroke:none;stop-color:#000000;stop-opacity:1"
       d="M 27.883015,5.4408961 C 28.063934,5.2599765 28.063934,5.2599765 28.063934,5.2599765 L 27.92038,5.116419 28.040335,4.9964625 c 0,0 0.173082,-0.1651624 0.06686,-0.2713805 -0.10619,-0.1061919 -0.10619,-0.1061919 -0.10619,-0.1061919 l -0.471964,0.4719648 z"
       id="path15" /><path
       style="font-variation-settings:normal;opacity:1;vector-effect:none;fill:#323232;fill-opacity:1;stroke:none;stroke-width:0.553699;stroke-linecap:butt;stroke-linejoin:miter;stroke-miterlimit:4;stroke-dasharray:none;stroke-dashoffset:0;stroke-opacity:1;-inkscape-stroke:none;stop-color:#000000;stop-opacity:1"
       d="m 8.8232337,20.427252 0.7008326,-0.700831 c 0,0 -0.3990856,-0.254469 -0.7022236,0.04867 -0.3031381,0.303137 0.00139,0.652164 0.00139,0.652164 z"
       id="path16"
       sodipodi:nodetypes="ccscc" /><path
       style="font-variation-settings:normal;opacity:1;vector-effect:none;fill:none;fill-opacity:1;stroke:#323232;stroke-width:0.553699;stroke-linecap:butt;stroke-linejoin:miter;stroke-miterlimit:4;stroke-dasharray:none;stroke-dashoffset:0;stroke-opacity:1;-inkscape-stroke:none;stop-color:#000000;stop-opacity:1"
       d="M 11.132183,23.186785 9.0165181,20.787402"
       id="path17"
       sodipodi:nodetypes="cc" /><path
       style="font-variation-settings:normal;opacity:1;fill:none;fill-opacity:1;stroke:#323232;stroke-width:0.27685;stroke-linecap:butt;stroke-linejoin:miter;stroke-miterlimit:4;stroke-dasharray:none;stroke-dashoffset:0;stroke-opacity:1;stop-color:#000000;stop-opacity:1"
       d="m 14.455876,20.825899 c 0.609058,0.520062 0.932,0.546861 1.36307,0.126918 0.476935,-0.464632 0.423703,-0.736469 0.22521,-1.014363 -0.336762,-0.471466 -0.800416,-0.379322 -0.800416,-0.379322"
       id="path20"
       sodipodi:nodetypes="cssc" /><path
       style="font-variation-settings:normal;opacity:1;fill:#323232;fill-opacity:1;stroke:#323232;stroke-width:0.0692124;stroke-linecap:butt;stroke-linejoin:round;stroke-miterlimit:4;stroke-dasharray:none;stroke-dashoffset:0;stroke-opacity:1;stop-color:#000000;stop-opacity:1"
       d="m 15.170614,19.582756 c -0.609057,0.976159 0.378145,1.243703 0.378145,1.243703 0,0 -0.449632,-0.08571 -0.631304,-0.214143 -0.205522,-0.145291 -0.506157,-0.394915 -0.506157,-0.394915 z"
       id="path21"
       sodipodi:nodetypes="ccscc" /><path
       style="font-variation-settings:normal;opacity:1;vector-effect:none;fill:none;fill-opacity:1;stroke:#323232;stroke-width:0.553699;stroke-linecap:butt;stroke-linejoin:miter;stroke-miterlimit:4;stroke-dasharray:none;stroke-dashoffset:0;stroke-opacity:1;-inkscape-stroke:none;stop-color:#000000;stop-opacity:1"
       d="m 18.836078,18.169965 c 1.479536,1.268175 1.863326,1.318235 2.397292,1.607468 0.533969,0.289232 0.95113,0.417161 0.95113,0.417161"
       id="path22"
       sodipodi:nodetypes="csc" /><path
       style="font-variation-settings:normal;opacity:1;fill:none;fill-opacity:1;stroke:#323232;stroke-width:0.830548;stroke-linecap:butt;stroke-linejoin:miter;stroke-miterlimit:4;stroke-dasharray:none;stroke-dashoffset:0;stroke-opacity:1;stop-color:#000000;stop-opacity:1"
       d="m 14.241837,17.07989 c 2.336111,-2.336109 2.336111,-2.336109 2.336111,-2.336109"
       id="path23" /><path
       style="font-variation-settings:normal;opacity:1;vector-effect:none;fill:none;fill-opacity:1;stroke:#323232;stroke-width:0.553699;stroke-linecap:butt;stroke-linejoin:miter;stroke-miterlimit:4;stroke-dasharray:none;stroke-dashoffset:0;stroke-opacity:1;-inkscape-stroke:none;stop-color:#000000;stop-opacity:1"
       d="m 16.399592,13.644699 1.55918,1.559182"
       id="path24"
       sodipodi:nodetypes="cc" /><circle
       style="font-variation-settings:normal;opacity:1;vector-effect:none;fill:#323232;fill-opacity:1;fill-rule:evenodd;stroke:none;stroke-width:0.553699;stroke-linecap:butt;stroke-linejoin:miter;stroke-miterlimit:4;stroke-dasharray:none;stroke-dashoffset:0;stroke-opacity:1;-inkscape-stroke:none;stop-color:#000000;stop-opacity:1"
       id="path25"
       cx="13.941684"
       cy="22.403305"
       r="0.30284429"
       transform="rotate(-45)" /><path
       style="font-variation-settings:normal;opacity:1;vector-effect:none;fill:none;fill-opacity:1;stroke:#323232;stroke-width:0.553699;stroke-linecap:butt;stroke-linejoin:miter;stroke-miterlimit:4;stroke-dasharray:none;stroke-dashoffset:0;stroke-opacity:1;-inkscape-stroke:none;stop-color:#000000;stop-opacity:1"
       d="M 18.825216,13.480035 C 25.26754,7.0377115 25.26754,7.0377115 25.26754,7.0377115"
       id="path26" /><path
       style="font-variation-settings:normal;opacity:1;fill:none;fill-opacity:1;stroke:#323232;stroke-width:0.415274;stroke-linecap:round;stroke-linejoin:miter;stroke-miterlimit:4;stroke-dasharray:none;stroke-dashoffset:0;stroke-opacity:1;stop-color:#000000;stop-opacity:1"
       d="m 21.436221,9.6028435 0.474532,-0.458791"
       id="path27"
       sodipodi:nodetypes="cc" /><path
       style="font-variation-settings:normal;fill:none;fill-opacity:1;stroke:#323232;stroke-width:0.415274;stroke-linecap:round;stroke-linejoin:miter;stroke-miterlimit:4;stroke-dasharray:none;stroke-dashoffset:0;stroke-opacity:1;stop-color:#000000"
       d="M 22.385286,8.6852604 22.859819,8.2264676"
       id="path27-5-1"
       sodipodi:nodetypes="cc" /><path
       style="font-variation-settings:normal;fill:none;fill-opacity:1;stroke:#323232;stroke-width:0.415274;stroke-linecap:round;stroke-linejoin:miter;stroke-miterlimit:4;stroke-dasharray:none;stroke-dashoffset:0;stroke-opacity:1;stop-color:#000000"
       d="M 23.334352,7.7676762 23.808885,7.3088834"
       id="path27-5-1-4"
       sodipodi:nodetypes="cc" /><circle
       style="font-variation-settings:normal;opacity:1;vector-effect:none;fill:#323232;fill-opacity:1;fill-rule:evenodd;stroke:none;stroke-width:0.553699;stroke-linecap:butt;stroke-linejoin:miter;stroke-miterlimit:4;stroke-dasharray:none;stroke-dashoffset:0;stroke-opacity:1;-inkscape-stroke:none;stop-color:#000000;stop-opacity:1"
       id="path28"
       cx="-6.734324"
       cy="23.209578"
       r="0.25256321"
       transform="rotate(-45)" /><path
       style="font-variation-settings:normal;opacity:1;vector-effect:none;fill:none;fill-opacity:1;stroke:#323232;stroke-width:0.553699;stroke-linecap:butt;stroke-linejoin:miter;stroke-miterlimit:4;stroke-dasharray:none;stroke-dashoffset:0;stroke-opacity:1;-inkscape-stroke:none;stop-color:#000000;stop-opacity:1"
       d="m 15.829042,18.829774 -0.506159,-0.506157 2.562065,-2.562066"
       id="path30" /></g></svg>
