<?xml version="1.0" encoding="UTF-8" standalone="no"?>
<!-- Created with Inkscape (http://www.inkscape.org/) -->

<svg
   version="1.1"
   id="svg1"
   width="128"
   height="128"
   viewBox="0 0 128 128"
   sodipodi:docname="loot-weapon-dp12.png"
   xmlns:inkscape="http://www.inkscape.org/namespaces/inkscape"
   xmlns:sodipodi="http://sodipodi.sourceforge.net/DTD/sodipodi-0.dtd"
   xmlns="http://www.w3.org/2000/svg"
   xmlns:svg="http://www.w3.org/2000/svg">
  <defs
     id="defs1" />
  <sodipodi:namedview
     id="namedview1"
     pagecolor="#686868"
     bordercolor="#000000"
     borderopacity="0.25"
     inkscape:showpageshadow="2"
     inkscape:pageopacity="0.0"
     inkscape:pagecheckerboard="0"
     inkscape:deskcolor="#d1d1d1">
    <inkscape:page
       x="0"
       y="0"
       width="128"
       height="128"
       id="page2"
       margin="0"
       bleed="0" />
  </sodipodi:namedview>
  <g
     inkscape:groupmode="layer"
     inkscape:label="Image"
     id="g1">
    <path
       style="opacity:1;fill:#3e3e3e;stroke:none"
       d="m 25.875,89.875 c 1.131157,-0.52887 2.068731,-1.25016 2.405382,-2.5 0.231999,-0.861313 0.10702,-2.289383 0.757523,-2.951294 0.682276,-0.694244 1.864094,-1.121132 2.712095,-1.586899 1.720901,-0.945221 3.421638,-1.932602 5.125,-2.909149 0.759346,-0.435333 1.981274,-1.453895 2.875,-1.455048 0.43222,-5.56e-4 0.878819,0.306885 1.25,0.499611 0.852528,0.442658 1.751019,0.977265 2.75,0.880593 1.700535,-0.164559 3.086674,-1.923111 4.875,-1.537995 2.760723,0.594513 2.366531,3.697846 2.511189,5.810181 0.295047,4.308456 0.575073,8.530647 1.629631,12.75 0.448741,1.795441 0.739425,3.74557 2.73418,4.40625 2.200962,0.72898 4.017082,-0.61285 5.875,-1.617668 0.944294,-0.510704 1.93071,-0.94146 2.875,-1.452164 0.985466,-0.532966 2.206772,-0.992554 2.683357,-2.086418 0.446999,-1.025963 0.292008,-2.402618 -0.460075,-3.244598 -0.3918,-0.438637 -0.974136,-0.675057 -1.180267,-1.257332 C 65.001854,90.800598 64.92643,89.853951 64.749611,89 c -0.344994,-1.666183 -0.690834,-3.331535 -1.02459,-5 -0.229629,-1.147934 -0.816005,-2.578232 -0.733509,-3.75 0.06355,-0.902695 1.165654,-1.606384 1.883488,-1.96904 1.643341,-0.830223 3.855888,-1.646301 5.101852,-3.032791 1.486199,-1.653824 1.659569,-4.011536 0.872681,-5.998169 -0.382675,-0.966125 -1.115974,-1.979965 -1.310181,-3 -0.122436,-0.643066 0.301255,-1.345169 0.330727,-2 0.06055,-1.345169 -0.454468,-2.484596 -1.120079,-3.625 l 9.5,-5.25 c 0.200859,0.479889 0.455276,0.9244 0.714989,1.374901 0.165291,0.28672 0.32608,0.581741 0.576103,0.805366 0.611954,0.547348 1.495979,0.522957 2.208908,0.206696 1.292175,-0.573219 2.418442,-1.527229 3.75,-2.011963 0.296196,1.02623 0.985123,2.253441 2.125,2.458817 1.166046,0.21009 2.215027,-0.671845 2.947823,0.666282 0.364303,0.665245 0.400497,1.516838 0.552566,2.249901 0.195427,0.942078 0.512917,1.845772 0.836128,2.75 1.012413,2.832336 2.534783,5.448448 3.882523,8.125 0.941284,1.869354 1.786957,4.219666 4.28096,4.227524 1.88792,0.006 3.92265,-1.670723 5.5,-2.567414 1.49753,-0.851318 4.14563,-1.761428 4.72193,-3.53511 0.3874,-1.192291 -0.11701,-2.621277 -0.98495,-3.486877 -0.46189,-0.460648 -1.00444,-0.670189 -1.32919,-1.265053 -1.81393,-3.322685 -3.19622,-6.869271 -4.89583,-10.24807 -0.48495,-0.964088 -1.53932,-1.499084 -1.96595,-2.5 -0.49975,-1.17244 0.91156,-1.730049 1.21122,-2.75 0.355,-1.208267 -0.47057,-2.355057 -1.00723,-3.375 0.65697,0.08593 1.19394,0.521996 1.875,0.486397 0.49335,-0.02579 0.94864,-0.23468 1.375,-0.469521 0.34785,-0.191597 0.69983,-0.399536 0.99451,-0.668106 C 107.3624,44.2603 105.16962,42.107903 104.5,40.5 l 1.375,-0.625 c 0.32239,0.885582 0.88773,1.986832 2,1.846352 0.55197,-0.06972 1.03237,-0.446755 1.5,-0.719902 0.70158,-0.409806 1.41777,-0.797944 2.125,-1.198403 2.11948,-1.200119 4.25941,-2.364975 6.375,-3.571853 0.96645,-0.551331 2.21072,-1.041794 2.97338,-1.867867 1.6339,-1.769768 0.64814,-3.721283 -0.3098,-5.488327 -1.90599,-3.515839 -3.949,-6.963867 -5.81597,-10.5 -0.74321,-1.407677 -1.57393,-3.714157 -3.09809,-4.430748 -0.91301,-0.429253 -1.66407,-0.143005 -2.58883,-0.206116 -0.51226,-0.03496 -0.88538,-0.517433 -1.41069,-0.584488 -0.98082,-0.125198 -2.79284,0.950615 -3.44772,1.643708 -0.682,0.721786 -0.53887,1.811607 -1.42959,2.394584 -1.92145,1.257576 -4.140444,2.105271 -5.985925,3.477913 -0.702233,0.522309 -0.36744,1.336937 -0.926499,1.835839 -0.867653,0.774284 -2.199806,1.274063 -3.210266,1.850502 -2.121025,1.209976 -4.2295,2.448272 -6.375,3.614967 -6.266647,3.407722 -12.423569,7.038177 -18.625,10.563949 l -5.75,3.267937 c -0.829727,0.469818 -1.71616,1.170578 -2.62307,1.46798 C 58.560936,43.49762 58.219456,42.429733 57.744984,42.081116 56.757164,41.355309 55.094288,41.096992 54,41.689812 c -1.231251,0.667015 -2.372917,1.621673 -3.5,2.449653 -1.28117,0.941178 -2.596245,1.836518 -3.875,2.781929 -1.140522,0.843209 -2.629608,1.562752 -3.596451,2.601662 -0.542949,0.58342 -0.426063,1.486626 -0.398727,2.226944 0.01648,0.446373 0.103622,0.816628 -0.275173,1.136963 -0.978917,0.827835 -2.357418,1.409912 -3.479649,2.02623 -1.2789,0.702354 -2.542278,1.570022 -3.875,2.16011 -0.482956,0.213837 -1.017262,0.139061 -1.5,0.353394 -1.460018,0.648239 -2.859119,1.622513 -4.25,2.413193 -3.663647,2.082695 -7.343897,4.13562 -11,6.231674 -1.632071,0.935669 -3.460022,1.73262 -4.994598,2.816559 -0.646927,0.456947 -0.776745,1.274589 -1.39352,1.74884 -1.69795,1.305572 -5.0058902,1.886391 -5.545717,4.238037 -0.2157121,0.939705 -0.2501765,2.570969 0.013503,3.5 0.408134,1.437988 1.4249411,2.8181 2.1317521,4.125 2.2716619,4.200317 4.4309939,8.471733 6.7885799,12.625 0.725835,1.278671 1.391155,2.590851 2.107542,3.875 0.411877,0.738304 0.758698,1.51155 1.517553,1.95457 0.617533,0.36052 1.524599,0.71708 2.249905,0.64545 1.071611,-0.10583 2.091629,-0.93766 3,-1.45621 0.770287,-0.439724 1.798275,-0.880115 2.138309,-1.76881 0.271653,-0.709969 -0.0041,-1.519814 -0.01283,-2.25 -0.01693,-1.422791 -0.142231,-2.832581 -0.239294,-4.25 -0.04621,-0.674774 0.05727,-1.345497 -0.136189,-2 M 108,38.75 106.41358,35.875 101.64236,27.125 99,22.125 c 2.7025,-1.421951 5.3476,-2.968079 8,-4.481194 0.79781,-0.455123 2.2896,-1.683692 3.24952,-1.476753 0.78503,0.169235 1.08133,1.218384 1.42853,1.832947 1.03163,1.826065 2.03737,3.666061 3.05459,5.5 1.11014,2.001495 2.21528,4.006287 3.33931,6 0.39688,0.703957 1.25109,1.779366 1.1441,2.624519 -0.12322,0.973397 -1.84047,1.55349 -2.59105,1.981675 -1.87056,1.0671 -3.75287,2.114532 -5.625,3.178916 -0.94041,0.534668 -1.92063,1.272484 -3,1.46489 M 97.375,24.5 l 2.125,4 -7.375,4.231194 -14,7.946853 -9.875,5.610146 -3.999519,2.263313 L 62.375,47.687408 60.125,48.625 59,46.25 71,39.428047 86.875,30.446564 97.375,24.5 m 3.375,6.125 0.5,0.75 V 31.5 c -1.05239,0.764557 -2.24678,1.337212 -3.375,1.981194 -2.162308,1.234237 -4.335709,2.448425 -6.5,3.678916 -5.827744,3.313317 -11.610718,6.733529 -17.5,9.936051 -2.18708,1.189308 -4.335739,2.458473 -6.5,3.688949 C 66.523796,51.269058 65.417114,52.262611 65,50.875 l 22,-12.481194 9.25,-5.25135 4.5,-2.517456 m 1.75,3.125 2.125,3.75 v 0.125 l -1.375,0.75 -2.25,-3.875 1.5,-0.75 m 1.125,10.5 -2.125,-0.370369 -1.75,0.942322 -3.125,1.764854 L 86,52.553047 81,55.25 C 80.466583,54.345512 79.983826,53.412849 79.46489,52.5 79.200569,52.035042 78.840225,51.546158 78.78154,51 c -0.115112,-1.071312 0.598137,-2.490746 0.927177,-3.5 0.128052,-0.392761 0.227677,-0.864281 0.504052,-1.183838 0.777999,-0.899567 2.38694,-1.426956 3.412231,-2.013504 2.577782,-1.474693 5.140541,-2.979828 7.75,-4.398819 1.723236,-0.937073 3.421982,-1.930656 5.125,-2.903938 0.648849,-0.370819 1.451263,-1.030579 2.249519,-0.820214 0.805954,0.212395 1.20028,1.286644 1.572431,1.945313 1.1194,1.981186 2.42551,4.028343 3.30305,6.125 m -46.875,0.625 -11.625,6.5 c 0.287685,-0.980255 1.700882,-1.631325 2.5,-2.196953 1.590771,-1.125969 3.165459,-2.275078 4.75,-3.410492 0.797367,-0.571357 1.616436,-1.30059 2.5,-1.729652 0.843388,-0.409546 1.533833,0.07009 1.875,0.837097 m 0,2.75 1.25,2.25 c -5.100456,3.121613 -10.425602,5.920242 -15.625,8.875 l -3.125,1.78511 c -0.365597,0.207833 -0.913246,0.665627 -1.361977,0.590668 C 37.231041,61.016029 36.665257,59.561798 36.5,59 L 41.625,56.178047 52,50.267365 56.75,47.625 m 42.5,0.25 c 0.20919,0.341797 0.619034,0.823204 0.593948,1.245079 -0.03619,0.608604 -0.929474,1.26136 -1.150375,1.879921 -0.325661,0.911919 -0.146095,1.884987 0.24614,2.75 0.507141,1.118431 1.558227,1.814392 2.146227,2.875 1.65118,2.978333 2.92071,6.201561 4.44492,9.25 0.32076,0.64151 0.5939,1.454552 1.12076,1.957466 0.43522,0.415444 1.24843,0.567131 1.28684,1.287613 0.036,0.675484 -1.203,1.086937 -1.68846,1.351082 -1.55742,0.847412 -3.07607,1.772385 -4.625,2.636383 -0.58394,0.325722 -1.29363,0.857124 -1.973381,0.460266 C 99.232735,73.32325 99.050301,72.786842 98.844139,72.375 98.484993,71.657547 98.086334,70.962456 97.71769,70.25 96.205429,67.327332 94.485542,64.337845 93.671776,61.125 93.12957,58.984322 92.7957,55.849785 90,55.523148 89.400284,55.453079 88.830338,55.63028 88.25,55.75 l -0.625,-1.375 11.625,-6.5 m -22.375,0.375 -0.601753,3 0.726753,2 -9.375,5.25 -2,-4 7.25,-4.075424 4,-2.174576 m -15,2.25 c 0.369202,0.626045 1.266281,1.727905 1.183643,2.486885 -0.06642,0.610062 -1.144142,0.874031 -1.465374,1.390045 -0.417759,0.671067 0.181736,1.549591 0.90654,1.68084 0.30386,0.05502 0.596932,-0.08215 0.875191,-0.18277 l 2.875,5.375 -1.375,0.25 c -0.905006,-1.90995 -1.683609,-4.575226 -4,-5.024597 -1.033886,-0.200569 -2.390266,1.000694 -3.25,1.489487 -2.414585,1.372795 -4.839306,2.728347 -7.25,4.107452 -0.860199,0.492103 -2.350861,0.986114 -2.793499,1.929588 -0.2313,0.493012 -0.494778,1.33149 -0.381847,1.87307 0.167747,0.804443 0.802875,1.467979 1.050346,2.25 -0.903,-0.480606 -1.993519,-1.498711 -3,-1.674484 -0.571545,-0.09981 -1.146664,0.395286 -1.625,0.642174 -0.771618,0.398262 -2.475948,0.908927 -2.797745,1.787712 -0.116062,0.316948 -0.01099,0.676895 0.04774,0.994598 -4.370174,2.550713 -8.8564,4.914169 -13.25,7.427658 L 24.5,79.072342 c -0.517384,0.296829 -1.120989,0.560104 -1.303432,1.179489 -0.222931,0.756844 -0.22691,2.237274 -0.01736,2.998077 0.09436,0.342606 0.340258,0.686745 0.697723,0.786553 0.656792,0.183388 1.276888,-0.547112 1.872494,-0.702934 0.294268,-0.07698 0.627016,-0.03954 0.689524,0.30999 0.05542,0.309875 -0.08121,0.67807 -0.135899,0.981483 -0.14098,0.782204 -0.109297,1.972488 -0.712866,2.558838 -0.673608,0.654388 -1.832151,0.792435 -2.109762,1.816254 -0.127502,0.47023 0.01716,1.017173 0.01949,1.499908 0.0083,1.710808 0.210025,3.414642 0.251928,5.125 0.016,0.653107 0.187229,1.233948 -0.0018,1.875 H 23.5 l -6.125,-13.375 1.375,0.350212 2,-0.899788 1.267746,-0.955826 0.521992,-3.414932 3.335262,-1.93586 7,-3.983696 2.375,-1.356674 1.186249,-0.816559 L 37.035011,69.625 37.275753,68.375 36.5,66.5 38.907215,64.986877 39.384258,63.165512 42.75,61.267456 49.5,57.447342 57.75,52.767456 61.875,50.5 m -2.125,2.604645 c -0.655777,0.0503 -1.316578,0.601105 -1.875,0.912811 -1.000839,0.558662 -2.00251,1.114685 -3,1.679497 -0.531281,0.300827 -1.158573,0.551094 -1.606483,0.975403 -0.66219,0.627296 -0.384789,1.808441 0.606483,1.851181 0.708149,0.03053 1.420898,-0.558831 2,-0.897087 1.447224,-0.84533 3.385189,-1.516777 4.606483,-2.673806 0.693642,-0.657142 0.30555,-1.927543 -0.731483,-1.847999 m -9.125,5.100601 c -0.883358,0.235641 -1.709351,0.870819 -2.5,1.31221 -0.453732,0.253304 -0.981361,0.470856 -1.320793,0.880692 -0.598778,0.722976 0.0049,1.817199 0.945793,1.672546 0.491146,-0.07551 0.951279,-0.403267 1.375,-0.642647 0.796715,-0.450104 1.980297,-0.848541 2.560764,-1.576195 C 52.334858,59.03817 51.632446,57.936501 50.625,58.205246 M 60.875,59 61.75,60.875 c -2.721466,1.172714 -5.298229,2.945099 -7.875,4.41011 -0.709305,0.403267 -1.421192,0.803467 -2.125,1.21624 -0.277657,0.162842 -0.646168,0.476998 -0.986881,0.460839 C 50.192345,66.935127 49.768631,65.703888 49.625,65.25 L 56.75,61.196953 60.875,59 m -26.625,0.875 2.5,4.625 c -0.682293,0.398605 -1.828785,0.760582 -2.031731,1.625481 -0.162277,0.691581 0.436516,1.39344 0.677277,1.999519 0.239986,0.604118 0.05046,1.453224 -0.358315,1.958908 -0.321598,0.39785 -0.852951,0.598236 -1.287231,0.844139 L 31.375,72.28511 24.5,76.196953 c -1.048904,0.593918 -2.315773,1.09658 -3.243153,1.869209 -1.132335,0.94339 -0.296333,2.473862 -0.832271,3.636475 -0.172823,0.374908 -0.699436,0.594314 -1.049576,0.763031 -0.329094,0.158561 -0.633776,0.261093 -1,0.18074 C 16.922924,82.327835 16.442532,81.071793 15.844136,79.875 14.716798,77.620331 13.344914,75.454651 12.375,73.125 L 14.196277,71.986977 15.375483,70.484474 26.75,64.071564 34.25,59.875 m 9.874905,1.339798 C 43.099461,61.310104 41.884701,62.323174 41,62.821953 c -0.39407,0.222168 -0.893383,0.39463 -1.210262,0.726852 -0.510102,0.534798 -0.191456,1.443352 0.585743,1.410973 0.496948,-0.02071 0.956154,-0.368866 1.374519,-0.602234 0.916195,-0.511055 2.189674,-0.95842 2.947533,-1.68721 0.571758,-0.549828 0.29219,-1.535912 -0.572628,-1.455536 M 63.25,62.875 c 0.809052,1.070488 2.095627,2.449417 3.34684,1.111694 0.235275,-0.251541 0.376671,-0.557129 0.52816,-0.861694 0.388016,0.567955 0.328323,1.45134 -0.159821,1.958908 -0.855651,0.88971 -2.395317,1.449219 -3.465179,2.059898 -1.25708,0.717537 -2.764683,1.350289 -3.708912,2.481675 C 58.337818,71.366806 58.451412,74.17321 59.670334,76 60.157158,76.729599 60.823101,77.212738 61.5,77.75 v 0.125 c -0.414616,0.434517 -0.87146,0.906548 -1.043404,1.5 -0.294864,1.0177 0.30309,2.49369 0.517071,3.5 0.637001,2.995689 1.247128,5.997742 1.851372,9 0.132286,0.65728 0.240059,1.350929 0.70303,1.868149 0.271362,0.303161 0.645668,0.443237 0.931617,0.717209 0.211464,0.202606 0.286637,0.468856 0.08748,0.710067 -0.218346,0.264458 -0.629952,0.413514 -0.922165,0.579575 -0.776199,0.441101 -1.594536,0.800003 -2.375,1.232635 -1.029705,0.570801 -2.069912,1.150315 -3.125,1.672364 -0.529095,0.261787 -1.161697,0.483146 -1.74807,0.252212 -0.641018,-0.252449 -0.802814,-0.931678 -0.95515,-1.532211 -0.35632,-1.404678 -0.6932,-2.819977 -0.931813,-4.25 -0.470592,-2.820282 -0.735195,-5.649002 -0.860046,-8.5 -0.137852,-3.147812 0.01691,-6.827827 -3.379921,-8.387344 -1.338093,-0.614334 -2.78109,-0.573914 -4.125,-0.0037 -0.764584,0.324424 -1.674625,0.981704 -2.5,1.079086 -1.445694,0.170578 -2.641453,-1.769684 -4.125,-1.52681 -0.981903,0.160736 -2.004131,1.028626 -2.875,1.491219 -2.68829,1.427986 -5.243572,3.202598 -8,4.494499 -0.874109,0.409683 -1.511732,-0.112175 -2.375,-0.229355 -0.501797,-0.06811 -0.917637,0.170021 -1.375,0.332367 2.69e-4,-0.350006 -0.05699,-0.783737 0.128473,-1.098381 0.224367,-0.380638 0.75313,-0.585106 1.121527,-0.795425 l 2.5,-1.428536 c 3.234301,-1.854217 6.504162,-3.647003 9.75,-5.480705 0.914322,-0.516541 1.836754,-1.017624 2.75,-1.536843 0.454552,-0.258438 0.9678,-0.659713 1.5,-0.72319 0.487827,-0.05818 0.948425,0.265495 1.375,0.455445 0.878906,0.391357 1.754971,0.794563 2.625,1.205245 0.790733,0.373246 1.390236,0.769639 2.25,0.3695 0.589054,-0.274147 1.509212,-0.593071 1.792244,-1.228783 0.301311,-0.676758 -0.184052,-1.458115 0.476273,-2.00029 0.469924,-0.385834 1.080642,-0.634552 1.606483,-0.935379 1.163589,-0.665665 2.337261,-1.314491 3.5,-1.981094 1.287708,-0.738251 2.593628,-1.449562 3.875,-2.198014 0.992016,-0.579437 2.014717,-1.303718 3.125,-1.62355 M 44.5,63.462479 c -0.489365,0.156143 -0.927784,0.503143 -1.375,0.749328 -0.790462,0.435135 -1.823486,0.822739 -2.471352,1.460556 -0.566555,0.557762 -0.279781,1.534844 0.596833,1.398331 1.064895,-0.165825 2.203495,-1.095299 3.124519,-1.623352 0.378159,-0.216812 0.879246,-0.415634 1.157215,-0.763504 C 46.140182,63.922974 45.269363,63.217003 44.5,63.462479 M 67.5,67.75 c 0.726959,1.871078 2.093155,3.615997 0.829575,5.613327 -0.420678,0.66497 -1.293679,1.009087 -1.954575,1.386581 -0.701408,0.400628 -1.696548,1.16037 -2.5,1.268708 -1.668621,0.224991 -2.643166,-1.960617 -2.75,-3.268616 1.069202,0.731094 1.948212,1.759766 3.25,2.077255 0.508484,0.124024 1.346214,0.129181 1.417244,-0.580726 C 65.84642,73.705124 65.236885,73.494804 64.875,73.254341 64.443542,72.967651 64.075897,72.585632 63.834202,72.125 63.545502,71.574783 63.268036,70.499023 63.628471,69.922363 63.859642,69.552505 64.385567,69.351746 64.75,69.143806 65.609009,68.653671 66.531609,67.971573 67.5,67.75 m -18.375,3.125 -1,0.40036 L 46.5,70.655869 43.375,69.125 c 0.40535,-0.336182 1.079243,-0.813339 1.625,-0.820221 0.452785,-0.0057 0.879356,0.323486 1.25,0.545242 0.902729,0.540116 2.382774,1.06218 2.875,2.024979 m 6.250481,-1.918404 c -0.543988,0.171967 -0.758961,0.63369 -1.151619,0.996148 -0.487286,0.449798 -2.199055,1.20552 -1.169655,2.079467 0.630092,0.534951 1.536125,-0.126045 2.195793,-0.241119 0.369888,-0.06453 0.7686,0.004 1.124519,-0.133881 1.732685,-0.671333 0.730278,-3.247299 -0.999038,-2.700615 M 10.75,74.25 c 1.312132,3.151627 3.036504,6.146317 4.46142,9.25 0.975727,2.125282 1.927418,4.269836 2.94589,6.375 0.580542,1.199966 1.113421,2.421341 1.685765,3.625 0.452318,0.951241 0.845392,1.930908 1.312885,2.875 0.258017,0.521057 0.671892,1.160187 0.746239,1.744598 0.09313,0.732087 -1.113569,1.031838 -1.625578,0.732926 C 19.80867,98.579338 19.536818,97.834 19.28858,97.375 18.615053,96.129639 17.925674,94.885216 17.280575,93.625 15.060657,89.288338 12.653929,85.035095 10.33642,80.75 9.4173384,79.050613 7.2183137,75.97377 9.75,74.652969 c 0.333149,-0.173805 0.634546,-0.319351 1,-0.402969 z"
       id="path1" />
    <path
       style="opacity:1;fill:#ffffff;stroke-width:0.25"
       d="M 105.99183,35.1875 C 100.65092,25.3648 99.125,22.498419 99.125,22.288386 c 0,-0.208693 6.17859,-3.847722 9.47881,-5.582769 1.20202,-0.631947 1.41216,-0.673003 1.87426,-0.366181 0.43517,0.288945 8.00634,13.476121 8.63238,15.035564 0.33115,0.824878 -0.14258,1.569236 -1.41112,2.217235 -0.65963,0.336957 -2.99796,1.6353 -5.19628,2.885207 -2.19832,1.249907 -4.12682,2.272558 -4.28556,2.272558 -0.15874,0 -1.16028,-1.603125 -2.22566,-3.5625 z"
       id="path2" />
    <path
       style="opacity:1;fill:#ffffff;stroke-width:0.25"
       d="M 99.43216,73.4375 C 98.98959,72.893133 95.180654,65.433937 94.61303,64 94.313669,63.24375 93.802193,61.640156 93.476417,60.436457 93.150642,59.232759 92.662663,57.813865 92.392019,57.28336 c -0.624638,-1.224392 -1.913727,-1.886997 -3.236383,-1.663536 -0.845184,0.142793 -0.967652,0.09226 -1.243439,-0.513022 -0.168254,-0.369278 -0.254268,-0.723064 -0.191141,-0.786191 0.06313,-0.06313 2.626714,-1.518856 5.69686,-3.234954 5.661531,-3.164585 6.195797,-3.350159 6.416323,-2.228667 0.04633,0.235618 -0.221519,0.869605 -0.595221,1.408858 -1.127378,1.626806 -0.741069,3.131673 1.511412,5.887724 0.34998,0.428214 1.70104,3.071964 3.00238,5.875 1.79176,3.859425 2.57918,5.284899 3.24412,5.872922 1.46904,1.299103 1.30986,1.512926 -2.82901,3.800016 -2.0389,1.12667 -3.88138,2.04849 -4.09439,2.04849 -0.213021,0 -0.501636,-0.140625 -0.64137,-0.3125 z"
       id="path3" />
    <path
       style="opacity:1;fill:#ffffff;stroke-width:0.25"
       d="m 79.852869,53.3125 c -1.221711,-2.217757 -1.27491,-2.803964 -0.462046,-5.091353 0.708427,-1.993503 1.015115,-2.351987 2.771208,-3.239225 0.776617,-0.392373 4.432867,-2.424335 8.125,-4.51547 8.780317,-4.97296 7.981143,-4.593952 8.697317,-4.124697 0.559721,0.366744 3.800962,5.730087 4.372952,7.236006 l 0.26693,0.70276 -1.11259,-0.166843 c -1.08837,-0.163212 -1.27748,-0.07428 -8.687116,4.085386 C 85.901375,52.647007 81.172002,55.25 81.013692,55.25 c -0.05142,0 -0.573794,-0.871875 -1.160823,-1.9375 z"
       id="path4" />
    <path
       style="opacity:1;fill:#ffffff;stroke-width:0.25"
       d="m 59.546303,47.616518 c -0.231717,-0.485915 -0.420108,-1.02029 -0.418648,-1.1875 0.0015,-0.16721 0.873335,-0.800488 1.9375,-1.407284 12.918794,-7.366414 35.82437,-20.267751 36.084168,-20.324045 0.31172,-0.06755 2.199302,3.074248 2.217775,3.691382 0.0072,0.240623 -2.39981,1.651706 -15.117098,8.862233 -2.3375,1.325331 -7.777051,4.411044 -12.087892,6.857142 l -7.837891,4.447451 -1.003557,-0.394208 c -0.890539,-0.349814 -1.102273,-0.352962 -1.880139,-0.02795 -1.246503,0.520823 -1.422069,0.472884 -1.894218,-0.517221 z"
       id="path5" />
    <path
       style="opacity:1;fill:#ffffff;stroke-width:0.03125"
       d="m 102.13048,36.456676 c -0.61317,-1.056442 -1.11485,-1.93253 -1.11485,-1.946862 0,-0.04071 1.47449,-0.767017 1.49904,-0.738401 0.0871,0.101543 2.12894,3.76751 2.12075,3.80766 -0.008,0.03894 -1.1442,0.696005 -1.3565,0.784422 -0.0185,0.0077 -0.53527,-0.850376 -1.14844,-1.906819 z"
       id="path6" />
    <path
       style="opacity:1;fill:#ffffff;stroke-width:0.03125"
       d="m 81.897816,41.935855 0.0084,-0.657895 2.21875,-1.258188 c 1.220313,-0.692003 4.370313,-2.479979 7,-3.973281 3.934372,-2.234182 9.592394,-5.421491 9.624084,-5.421491 0.0341,0 0.51967,0.78871 0.51149,0.830883 -0.019,0.09783 -0.87692,0.645641 -1.869949,1.193994 -2.766348,1.527592 -8.497982,4.781798 -14.15625,8.037384 -2.902772,1.670163 -3.315781,1.906489 -3.331819,1.906489 -0.0072,0 -0.0094,-0.296053 -0.0047,-0.657895 z"
       id="path7" />
    <path
       style="opacity:1;fill:#ffffff;stroke-width:0.125"
       d="M 66.627422,56.504874 C 66.082187,55.407554 65.661717,54.486303 65.693043,54.457649 65.864201,54.30109 76.753707,48.25 76.86429,48.25 c 0.02189,0 -0.09722,0.660938 -0.264689,1.46875 l -0.304487,1.46875 0.348634,1.024643 c 0.191748,0.563553 0.322223,1.049133 0.289943,1.079067 -0.05907,0.05477 -9.255545,5.20879 -9.294214,5.20879 -0.0114,0 -0.466821,-0.897807 -1.012055,-1.995126 z"
       id="path8" />
    <path
       style="opacity:1;fill:#ffffff;stroke-width:0.0625"
       d="m 65.279643,51.383008 c -0.159344,-0.159344 -0.302621,-0.478256 -0.240274,-0.534812 0.0506,-0.0459 16.799502,-9.535696 16.829909,-9.535696 0.01793,0 0.04062,0.288281 0.05041,0.640625 l 0.01781,0.640625 -1.46875,0.833618 c -1.620115,0.919528 -4.529142,2.54421 -6.84375,3.822213 -1.701495,0.939474 -5.539904,3.12654 -6.542547,3.727842 -0.819685,0.491578 -1.03806,0.585077 -1.366503,0.585077 -0.199471,0 -0.296894,-0.04008 -0.436307,-0.179492 z"
       id="path9" />
    <path
       style="opacity:1;fill:#ffffff;stroke-width:0.176777"
       d="m 56.00701,98.613997 c -1.003028,-1.08068 -2.106464,-7.792318 -2.45134,-14.910232 -0.182743,-3.771625 -0.652514,-5.263423 -2.068482,-6.568616 -1.610651,-1.484647 -3.625382,-1.659482 -6.10054,-0.529397 -2.039912,0.931364 -1.94377,0.930995 -3.682183,0.01412 -1.91818,-1.011687 -2.294769,-0.991537 -4.349841,0.232743 -3.607258,2.148974 -7.458652,4.338431 -8.346921,4.745094 -0.935939,0.428487 -1.000577,0.434573 -1.958617,0.184394 -0.692154,-0.180747 -1.161088,-0.209861 -1.555987,-0.09661 -0.310888,0.08916 -0.585663,0.162111 -0.610612,0.162111 -0.02495,0 -0.04536,-0.190061 -0.04536,-0.422358 0,-0.835396 -0.631521,-0.439004 12.020815,-7.545214 2.479293,-1.3925 4.813291,-2.687127 5.186661,-2.87695 L 42.723457,70.657955 44.3427,71.4044 c 0.890581,0.410545 2.112248,0.951882 2.714811,1.202972 1.089411,0.453961 1.100166,0.454772 1.91319,0.144275 1.263644,-0.482589 1.654666,-0.919838 1.808194,-2.021957 0.101514,-0.728723 0.236892,-1.025832 0.574735,-1.261362 0.923315,-0.643693 11.453739,-6.535824 11.680831,-6.535824 0.131018,0 0.56066,0.316456 0.954761,0.703237 0.403386,0.395894 0.968766,0.753681 1.293657,0.818659 0.513168,0.102634 0.653457,0.03517 1.266143,-0.6089 l 0.689032,-0.724323 0.108428,0.493671 c 0.260402,1.185603 -0.245541,1.65398 -3.866398,3.579317 -3.031834,1.612133 -4.017923,2.491859 -4.446804,3.967161 -0.618787,2.128552 0.05021,4.557154 1.615841,5.865861 0.42943,0.358959 0.780781,0.72376 0.780781,0.810669 0,0.08691 -0.195708,0.390604 -0.434908,0.674876 -0.66738,0.793136 -0.705905,1.454902 -0.205026,3.521862 0.246027,1.015271 0.849587,3.834686 1.341246,6.265365 0.491656,2.43068 0.980909,4.635138 1.087224,4.898796 0.106315,0.263657 0.463334,0.68534 0.793372,0.937073 1.050216,0.801039 0.922571,0.934394 -2.795297,2.920344 -3.7843,2.021437 -4.563063,2.254313 -5.209503,1.557825 z m -0.432515,-26.83177 c 1.179856,-0.215301 1.612766,-0.583623 1.612766,-1.372147 0,-1.333154 -1.524922,-1.942049 -2.448143,-0.977535 -0.257771,0.269299 -0.806758,0.753281 -1.219973,1.075515 -0.767312,0.598366 -0.923273,1.015857 -0.530331,1.419626 0.2257,0.231917 0.64777,0.208173 2.585681,-0.145459 z"
       id="path10" />
    <path
       style="opacity:1;fill:#ffffff;stroke-width:0.176777"
       d="m 20.455954,90.922576 c -1.67437,-3.661988 -3.013064,-6.689403 -2.974876,-6.727591 0.03819,-0.03819 0.336692,6.03e-4 0.663342,0.0862 0.669244,0.175377 1.975902,-0.303405 3.178025,-1.164485 0.631958,-0.45267 0.670742,-0.539992 0.877733,-1.976199 0.119108,-0.826431 0.282986,-1.634969 0.364173,-1.796751 0.08119,-0.161781 2.833273,-1.821903 6.115747,-3.689158 7.774601,-4.422628 7.621159,-4.322795 7.999069,-5.204421 0.543519,-1.267979 0.592435,-2.044833 0.188143,-2.988006 -0.199607,-0.465665 -0.362922,-0.87599 -0.362922,-0.911832 0,-0.03584 0.538325,-0.413409 1.196279,-0.839038 1.110683,-0.718497 1.212913,-0.838766 1.428731,-1.680847 0.221144,-0.862853 0.289799,-0.938803 1.411176,-1.561117 0.648301,-0.359777 4.997103,-2.81524 9.664008,-5.456586 10.526693,-5.957832 11.532172,-6.504341 11.735561,-6.378639 0.350589,0.216675 1.080749,1.693494 1.080749,2.185917 0,0.408547 -0.148074,0.617545 -0.693035,0.978183 -0.836303,0.55344 -1.029497,1.040645 -0.645214,1.627135 0.286247,0.436869 0.798311,0.642386 1.411238,0.566402 0.268589,-0.0333 0.627041,0.496643 1.74247,2.576099 0.772377,1.439911 1.375928,2.645947 1.341226,2.680079 -0.0347,0.03413 -0.341516,0.113826 -0.681811,0.177097 l -0.618719,0.115037 -0.74893,-1.593022 c -1.143639,-2.432594 -2.129282,-3.378492 -3.52045,-3.378492 -0.505222,0 -1.148898,0.290704 -2.704623,1.221493 -1.122884,0.671821 -3.473499,2.018059 -5.223589,2.99164 -5.256283,2.92409 -5.200814,2.87819 -5.349597,4.426603 -0.0642,0.668156 0.01661,1.0338 0.392354,1.775297 0.260265,0.513606 0.446374,0.960664 0.413578,0.99346 -0.0328,0.0328 -0.555352,-0.255553 -1.161235,-0.640776 -1.62572,-1.033639 -1.786472,-1.033323 -3.883335,0.0076 -1.891691,0.939089 -2.42922,1.451538 -2.260292,2.154839 0.09251,0.385139 -0.196098,0.581199 -3.836828,2.606496 -2.165271,1.204518 -6.076517,3.392129 -8.691655,4.861359 -5.334896,2.997238 -5.235211,2.90348 -5.23048,4.919554 0.0046,1.955767 0.639846,2.488832 2.048757,1.719182 1.140451,-0.622997 1.376191,-0.424521 1.22067,1.027716 -0.207912,1.941453 -0.405035,2.333921 -1.573195,3.132197 -0.57266,0.391334 -1.103779,0.881643 -1.180264,1.089577 -0.07648,0.207933 -0.06796,1.60005 0.01894,3.093592 0.198247,3.40716 0.210688,5.632346 0.03149,5.632346 -0.07596,0 -1.50804,-2.996172 -3.18241,-6.65816 z m 23.12423,-25.029063 c 1.983481,-1.199716 2.318782,-1.538933 2.009469,-2.032932 -0.355599,-0.567921 -1.01219,-0.451832 -2.739325,0.484326 -2.05447,1.113583 -2.54638,1.565588 -2.388476,2.194722 0.198856,0.79231 1.022264,0.6217 3.118332,-0.646116 z M 42.60253,63.884642 c 1.929918,-1.02145 2.499385,-1.55743 2.305104,-2.169557 -0.246978,-0.778163 -1.13526,-0.569056 -3.397887,0.799884 -1.803198,1.090974 -2.124827,1.445263 -1.823379,2.008525 0.299492,0.559605 0.900623,0.427913 2.916162,-0.638852 z m 6.762893,-2.587323 c 0.824507,-0.413215 1.728476,-0.962203 2.008821,-1.219973 0.644696,-0.592782 0.673544,-1.271989 0.0708,-1.666921 -0.542736,-0.355614 -1.045834,-0.206311 -2.831454,0.840278 -2.047127,1.199864 -2.330397,1.58745 -1.757743,2.40503 0.388921,0.555261 0.805067,0.495828 2.509575,-0.358414 z m 7.552117,-4.229817 c 3.098496,-1.638014 3.805255,-2.181932 3.805255,-2.928513 0,-1.098864 -0.955273,-1.228925 -2.45175,-0.333807 -0.547468,0.327468 -1.891638,1.090865 -2.987043,1.696437 -1.938841,1.071848 -2.339382,1.424185 -2.339382,2.057849 0,0.417715 0.512391,0.953618 0.911777,0.953618 0.179659,0 1.557173,-0.650513 3.061143,-1.445584 z"
       id="path11" />
    <path
       style="opacity:1;fill:#ffffff;stroke-width:0.176777"
       d="M 20.210055,98.811466 C 20.047232,98.716463 19.0203,96.948906 17.927983,94.88356 16.835667,92.818214 14.471027,88.423703 12.673229,85.117979 10.87543,81.812255 9.2183433,78.709824 8.9908137,78.223688 8.2360321,76.611034 8.543816,75.246289 9.8077069,74.6015 c 0.8770671,-0.447446 1.0118921,-0.444586 1.1608131,0.02462 0.06632,0.20895 1.057383,2.297125 2.202366,4.640388 1.144984,2.343264 2.817609,5.85147 3.716946,7.796014 0.899337,1.944543 2.168519,4.689001 2.820404,6.098796 0.651885,1.409794 1.367227,2.91897 1.589648,3.353724 0.671234,1.312019 0.741278,1.742336 0.347671,2.135943 -0.371037,0.371037 -0.961499,0.437047 -1.4355,0.160481 z"
       id="path12" />
    <path
       style="opacity:1;fill:#ffffff;stroke-width:0.176777"
       d="m 17.833078,82.47754 c -0.303434,-0.132063 -0.747656,-0.506809 -0.987159,-0.832769 -0.580391,-0.789904 -4.147598,-7.539227 -4.293443,-8.123396 -0.101482,-0.406475 -0.01253,-0.525273 0.768579,-1.026512 0.485838,-0.311761 1.165781,-0.911517 1.510983,-1.332792 0.529976,-0.646765 2.024295,-1.549746 9.603199,-5.802976 9.804339,-5.502131 9.776185,-5.486702 9.85737,-5.401924 0.17674,0.184566 2.388557,4.360633 2.388557,4.509765 0,0.0988 -0.323973,0.325731 -0.719942,0.504287 -1.248201,0.562861 -1.477652,1.213265 -0.871048,2.469086 0.43351,0.897474 0.453478,2.048647 0.04419,2.547918 -0.170147,0.207557 -2.974268,1.879863 -6.231378,3.716234 -3.257111,1.836372 -6.319767,3.564666 -6.805903,3.840654 -1.101309,0.625232 -1.501952,1.363227 -1.502327,2.76732 -3.4e-4,1.270494 -0.176899,1.614504 -1.059803,2.064927 -0.809279,0.412864 -0.962689,0.421894 -1.701879,0.100178 z"
       id="path13" />
    <path
       style="opacity:1;fill:#ffffff;stroke-width:0.176777"
       d="m 50.318395,66.763838 c -0.107053,-0.12899 -0.315399,-0.523542 -0.462991,-0.87678 l -0.26835,-0.642252 0.750705,-0.430104 c 5.566936,-3.189486 10.245783,-5.771286 10.458968,-5.771286 0.08923,0 0.986728,1.663456 0.986728,1.828832 0,0.04005 -0.258536,0.176936 -0.574524,0.30419 -0.820814,0.330556 -2.719495,1.39227 -6.718523,3.7569 -1.920792,1.135766 -3.601479,2.06503 -3.73486,2.06503 -0.133381,0 -0.3301,-0.105539 -0.437153,-0.23453 z"
       id="path14" />
    <path
       style="opacity:1;fill:#ffffff;stroke-width:0.0625"
       d="m 47.28125,70.967131 c -0.792935,-0.306613 -3.875,-1.781354 -3.875,-1.854153 0,-0.08048 0.763576,-0.567645 1.075459,-0.686152 0.543232,-0.206412 0.810656,-0.160176 1.518291,0.262501 0.20625,0.123196 0.7125,0.401963 1.125,0.619484 0.4125,0.21752 0.904725,0.50051 1.093833,0.628865 0.376723,0.255697 0.874917,0.762613 0.874917,0.890234 0,0.08085 -0.823674,0.427366 -1,0.420696 -0.05156,-0.002 -0.417187,-0.128614 -0.8125,-0.281475 z"
       id="path15" />
    <path
       style="opacity:1;fill:#ffffff;stroke-width:0.0625"
       d="m 37.62356,61.009311 c -0.103917,-0.06337 -0.295021,-0.269246 -0.424676,-0.457499 -0.259983,-0.377484 -0.747645,-1.497382 -0.679475,-1.56039 0.0237,-0.02191 1.182154,-0.666423 2.574341,-1.432262 1.392188,-0.765838 4.725,-2.642854 7.40625,-4.171145 C 50.615902,51.041982 56.693785,47.625 56.750837,47.625 c 0.03113,0 1.217913,2.171886 1.217913,2.228864 0,0.130734 -4.376134,2.658666 -10.300662,5.950316 -3.321375,1.845346 -6.528943,3.655969 -8.916574,5.033269 -0.554372,0.319788 -0.819214,0.360141 -1.127954,0.171862 z"
       id="path16" />
    <path
       style="opacity:1;fill:#ffffff;stroke-width:0.0625"
       d="m 45.15625,51.289858 c 0,-0.148663 0.380752,-0.658042 0.676443,-0.904961 0.160769,-0.134252 0.629807,-0.462719 1.042307,-0.729927 0.4125,-0.267209 1.03125,-0.687874 1.375,-0.934812 3.345069,-2.402979 4.313988,-3.104123 5.10352,-3.693088 1.698984,-1.267384 2.261706,-1.413122 2.962414,-0.767231 0.235417,0.216999 0.459779,0.581088 0.395604,0.641976 -0.01322,0.01254 -2.527163,1.420581 -5.586538,3.128972 -3.059375,1.708391 -5.653906,3.158778 -5.765625,3.223082 -0.147721,0.08503 -0.203125,0.09484 -0.203125,0.03599 z"
       id="path17" />
  </g>
</svg>
