<?xml version="1.0" encoding="UTF-8" standalone="no"?>
<!-- Created with Inkscape (http://www.inkscape.org/) -->

<svg
   version="1.1"
   id="svg1"
   width="128"
   height="128"
   viewBox="0 0 128 128"
   sodipodi:docname="loot-perk-closer.png"
   xmlns:inkscape="http://www.inkscape.org/namespaces/inkscape"
   xmlns:sodipodi="http://sodipodi.sourceforge.net/DTD/sodipodi-0.dtd"
   xmlns="http://www.w3.org/2000/svg"
   xmlns:svg="http://www.w3.org/2000/svg">
  <defs
     id="defs1" />
  <sodipodi:namedview
     id="namedview1"
     pagecolor="#ffffff"
     bordercolor="#000000"
     borderopacity="0.25"
     inkscape:showpageshadow="2"
     inkscape:pageopacity="0.0"
     inkscape:pagecheckerboard="0"
     inkscape:deskcolor="#d1d1d1">
    <inkscape:page
       x="0"
       y="0"
       width="128"
       height="128"
       id="page2"
       margin="0"
       bleed="0" />
  </sodipodi:namedview>
  <g
     inkscape:groupmode="layer"
     inkscape:label="Image"
     id="g1">
    <path
       style="fill:#000000"
       d="m 17.814286,121.32657 c -0.254746,-1.49228 -0.463175,-11.80124 -0.463175,-22.908792 0,-13.351959 0.246549,-21.930552 0.727571,-25.315556 0.400163,-2.816 0.994779,-6.656 1.321368,-8.533333 0.326589,-1.877333 0.978787,-5.333333 1.449329,-7.68 0.470542,-2.346667 1.083298,-5.034667 1.36168,-5.973333 0.278383,-0.938667 1.313174,-4.262622 2.299537,-7.386568 0.986363,-3.123945 2.554108,-7.347945 3.483879,-9.386666 0.92977,-2.038722 3.011373,-5.882766 4.625786,-8.542322 1.69398,-2.790635 4.859925,-6.783096 7.486406,-9.44084 2.503111,-2.532907 6.192013,-5.55684 8.197561,-6.7198531 2.005548,-1.1630127 5.589548,-2.7523987 7.964444,-3.5319688 2.374897,-0.7795701 6.365995,-1.5624668 8.869106,-1.7397706 3.328503,-0.235769 5.620893,-0.055903 8.533333,0.6695441 2.190222,0.545553 5.497621,1.7368813 7.349775,2.6473963 1.852155,0.910515 4.948289,2.7834711 6.880299,4.1621251 1.93201,1.378654 4.810805,3.926927 6.397321,5.662828 1.586517,1.735902 4.026047,4.887415 5.421179,7.003362 1.395135,2.115947 3.446055,5.767177 4.557605,8.113844 1.11155,2.346666 2.57877,5.930666 3.26049,7.964444 0.68173,2.033778 1.70115,5.489778 2.26538,7.68 0.56423,2.190222 1.19886,5.064407 1.41029,6.387077 0.38441,2.404855 0.38441,2.404855 -1.5123,1.771247 -1.04319,-0.348485 -2.10064,-0.815405 -2.34989,-1.0376 -0.24926,-0.222195 -0.92561,-2.683256 -1.50301,-5.469024 -0.5774,-2.785768 -1.62519,-6.729033 -2.32843,-8.762811 -0.70323,-2.033778 -2.04077,-5.233778 -2.97231,-7.111111 C 99.61597,31.971556 97.739912,28.771556 96.378492,26.737778 95.017071,24.704 92.934966,21.995545 91.751591,20.718989 90.568216,19.442433 88.131197,17.213151 86.335993,15.765029 84.54079,14.316907 82.49279,12.830018 81.784882,12.46083 c -0.707907,-0.369187 0.339251,0.964095 2.327018,2.962849 1.987767,1.998754 5.232997,6.066099 7.211622,9.038543 1.978625,2.972445 4.483098,7.32637 5.565494,9.67539 1.082397,2.349019 2.27071,5.293019 2.640695,6.542222 0.369986,1.249202 1.013669,3.679277 1.430409,5.400166 0.41673,1.720889 0.93521,4.472889 1.15217,6.115556 0.39448,2.986666 0.39448,2.986666 -1.79224,2.99916 -1.202694,0.0069 -3.331436,0.53175 -4.730538,1.166395 -1.399101,0.634646 -3.351506,1.769952 -4.338676,2.522904 -0.98717,0.752951 -1.954451,1.209407 -2.149512,1.014346 -0.195062,-0.195062 -0.354657,-0.818601 -0.354657,-1.385643 0,-0.567042 -0.665427,-3.013256 -1.478725,-5.436031 C 86.454643,50.653912 84.883899,46.872522 83.7774,44.673599 82.670901,42.474675 80.793201,39.24245 79.604733,37.490876 78.416266,35.739303 76.118735,33.114775 74.49911,31.658593 72.879485,30.20241 70.366611,28.446954 68.914946,27.757578 c -2.101872,-0.99815 -3.682092,-1.256572 -7.75939,-1.268938 -4.616586,-0.014 -5.419486,0.149382 -8.165933,1.661697 -1.675263,0.922473 -4.155465,2.653873 -5.511559,3.847555 -1.356095,1.193683 -3.634953,3.725879 -5.06413,5.627104 -1.429176,1.901225 -3.744193,5.558571 -5.144483,8.127436 -1.400289,2.568864 -3.27726,6.445466 -4.171046,8.614671 -0.893787,2.169204 -2.20587,5.608008 -2.91574,7.641786 -0.70987,2.033778 -1.911221,5.745778 -2.66967,8.248889 -0.758449,2.503111 -2.13487,8.007111 -3.058713,12.231111 -0.923843,4.224 -2.320972,11.987382 -3.104732,17.251959 -0.78376,5.264582 -1.595551,12.761892 -1.803979,16.660692 -0.208429,3.89881 -0.57902,7.21238 -0.823535,7.3635 -0.244516,0.15112 -0.653003,-0.9462 -0.90775,-2.43847 z m 81.74127,-28.809035 c -1.095112,-0.363518 -2.77239,-1.08502 -3.727286,-1.603339 -0.954896,-0.518318 -2.776334,-2.070835 -4.047639,-3.450039 -1.278124,-1.3866 -2.879619,-4.012927 -3.58236,-5.874789 -0.966619,-2.560987 -1.203915,-4.131709 -0.991131,-6.560555 0.15387,-1.756374 0.832324,-4.444374 1.507675,-5.973333 0.675351,-1.528958 2.046798,-3.633713 3.047659,-4.677233 1.000862,-1.04352 2.843748,-2.486836 4.095304,-3.20737 1.251555,-0.720534 3.640451,-1.625291 5.308652,-2.010572 2.41894,-0.558667 3.72076,-0.55458 6.42918,0.02018 1.86783,0.396382 4.52939,1.471376 5.91456,2.388875 1.38517,0.917499 3.20453,2.479733 4.04303,3.47163 0.83849,0.991898 2.0439,2.95545 2.67868,4.36345 0.78744,1.746614 1.16554,3.825268 1.19002,6.542223 0.0294,3.258139 -0.25439,4.573326 -1.56051,7.233103 -0.89701,1.826663 -2.72958,4.248358 -4.18299,5.527696 -1.42263,1.252248 -3.97785,2.797352 -5.67828,3.433563 -1.70043,0.636212 -4.29809,1.129906 -5.77257,1.097099 -1.47449,-0.03281 -3.57688,-0.357074 -4.671994,-0.720593 z"
       id="path926" />
    <path
       style="fill:#ffffff;stroke-width:0.5"
       d="M 17.909874,122.19013 C 17.684443,121.12306 17.510188,110.0125 17.52264,97.5 17.544965,75.066345 17.564246,74.63876 18.909272,66.75 23.606765,39.198571 31.3022,22.729528 44.360565,12.281544 53.792703,4.7349011 66.520155,2.1202962 76.65313,5.6476712 92.42523,11.138074 104.43327,26.380164 109.71505,47.613939 111.86526,56.25822 111.89372,56.5 110.76103,56.5 c -1.80691,0 -3.47849,-1.13588 -3.9714,-2.698665 -0.26912,-0.853235 -1.03773,-3.81293 -1.70803,-6.577102 -3.03442,-12.513292 -9.420125,-23.48531 -17.61732,-30.270356 -5.65515,-4.680925 -5.82277,-4.644855 -1.598725,0.344026 8.93501,10.552858 14.164555,21.350971 15.986805,33.010054 0.70741,4.526188 0.45659,5.190678 -1.96167,5.196928 -1.93217,0.005 -6.11419,1.69609 -8.637275,3.492685 C 90.479135,59.548905 89.642615,60 89.39448,60 89.14635,60 88.57106,58.448865 88.11606,56.553035 86.085125,48.090809 80.39788,37.703546 74.96768,32.538668 69.79443,27.618185 67.737055,26.75 61.25,26.75 c -5.047633,0 -5.375271,0.06746 -8.499923,1.75 -16.285364,8.76925 -29.589096,44.00969 -33.038132,87.51517 -0.31546,3.97916 -0.757757,7.43289 -0.98288,7.67496 -0.225124,0.24207 -0.59376,-0.43293 -0.819191,-1.5 z"
       id="path931" />
    <path
       style="fill:#ffffff;stroke-width:0.5"
       d="M 101.25,93.032134 C 95.974481,91.968388 91.512101,88.369496 88.841146,83.024443 83.434752,72.205291 91.948322,58.850022 104.25,58.852516 c 4.36534,8.85e-4 8.2698,1.553778 11.63138,4.626066 3.12815,2.858954 4.73562,5.850513 5.41694,10.081122 1.42039,8.819818 -4.80844,17.477517 -13.94793,19.386784 -2.89146,0.604036 -3.48797,0.61241 -6.10039,0.08565 z"
       id="path932" />
    <path
       style="fill:#ffffff;stroke-width:0.03125"
       d="m 17.355195,101.88281 c -0.01457,-10.322061 0.05709,-17.226972 0.221281,-21.32031 l 0.02319,-0.578125 0.0041,0.453125 c 0.0023,0.249219 -0.0095,1.641406 -0.02624,3.09375 -0.0167,1.452344 -0.03155,6.841797 -0.03301,11.976563 l -0.0027,9.335937 h -0.09125 -0.09126 z"
       id="path933" />
    <path
       style="fill:#ffffff;stroke-width:0.0110485"
       d="m 17.429019,110.37771 c -3.2e-5,-0.12609 -0.0049,-0.5748 -0.01086,-0.99713 -0.01216,-0.86485 -0.02903,-2.4138 -0.04016,-3.68745 l -0.0075,-0.8535 h 0.08317 0.08317 l 0.0072,0.95846 c 0.004,0.52715 0.0119,1.58491 0.01765,2.35058 0.0057,0.76566 0.01374,1.63201 0.01775,1.92521 l 0.0073,0.53309 h -0.07886 -0.07886 z"
       id="path934" />
    <path
       style="fill:#ffffff;stroke-width:0.0110485"
       d="m 17.56166,116.723 c 0,-0.0391 -0.0098,-0.44062 -0.02183,-0.89217 -0.03768,-1.41682 -0.08017,-3.48379 -0.09574,-4.65762 l -0.0075,-0.56624 h 0.07359 0.07359 l 7.6e-5,0.069 c 3.09e-4,0.28118 0.04012,3.10486 0.06079,4.3117 0.0088,0.51652 0.01875,1.09574 0.02202,1.28715 0.0033,0.19142 0.0084,0.38656 0.0115,0.43366 l 0.0056,0.0856 h -0.06103 -0.06103 z"
       id="path935" />
    <path
       style="fill:#ffffff;stroke-width:0.0110485"
       d="m 17.826621,121.42257 c -1.12e-4,-0.009 -0.0074,-0.0565 -0.01628,-0.10651 -0.07451,-0.42124 -0.160335,-1.90057 -0.220677,-3.80375 -0.0092,-0.28864 -0.01857,-0.56831 -0.02094,-0.62148 l -0.0043,-0.0967 h 0.05701 0.05701 l 0.01944,0.81483 c 0.03872,1.62274 0.08845,3.02915 0.129198,3.6534 0.0059,0.0907 0.0083,0.1673 0.0052,0.17033 -0.003,0.003 -0.0056,-0.002 -0.0057,-0.0101 z"
       id="path936" />
  </g>
</svg>
