<?xml version="1.0" encoding="UTF-8" standalone="no"?>
<svg
   width="128"
   height="128"
   version="1.1"
   id="svg1"
   sodipodi:docname="loot-parrotfish-skin.svg"
   xml:space="preserve"
   inkscape:version="1.4.2 (ebf0e940, 2025-05-08)"
   xmlns:inkscape="http://www.inkscape.org/namespaces/inkscape"
   xmlns:sodipodi="http://sodipodi.sourceforge.net/DTD/sodipodi-0.dtd"
   xmlns:xlink="http://www.w3.org/1999/xlink"
   xmlns="http://www.w3.org/2000/svg"
   xmlns:svg="http://www.w3.org/2000/svg"><defs
     id="defs1"><linearGradient
       id="linearGradient71"
       inkscape:collect="always"><stop
         style="stop-color:#599f01;stop-opacity:1;"
         offset="0"
         id="stop70" /><stop
         style="stop-color:#d47966;stop-opacity:1;"
         offset="1"
         id="stop71" /></linearGradient><linearGradient
       id="linearGradient65"
       inkscape:collect="always"><stop
         style="stop-color:#3a8c60;stop-opacity:1;"
         offset="0"
         id="stop64" /><stop
         style="stop-color:#d47966;stop-opacity:1;"
         offset="1"
         id="stop65" /></linearGradient><linearGradient
       id="linearGradient54"
       inkscape:collect="always"><stop
         style="stop-color:#377c6b;stop-opacity:1;"
         offset="0"
         id="stop53" /><stop
         style="stop-color:#d47966;stop-opacity:1;"
         offset="1"
         id="stop54" /></linearGradient><linearGradient
       id="linearGradient40"
       inkscape:collect="always"><stop
         style="stop-color:#5f7652;stop-opacity:1;"
         offset="0"
         id="stop39" /><stop
         style="stop-color:#d47966;stop-opacity:1;"
         offset="1"
         id="stop40" /></linearGradient><linearGradient
       id="linearGradient34"
       inkscape:collect="always"><stop
         style="stop-color:#84733a;stop-opacity:1;"
         offset="0"
         id="stop33" /><stop
         style="stop-color:#d47966;stop-opacity:1;"
         offset="1"
         id="stop34" /></linearGradient><linearGradient
       id="linearGradient1"
       inkscape:collect="always"><stop
         style="stop-color:#02868c;stop-opacity:1;"
         offset="0"
         id="stop1" /><stop
         style="stop-color:#d47966;stop-opacity:1;"
         offset="1"
         id="stop2" /></linearGradient><linearGradient
       inkscape:collect="always"
       xlink:href="#linearGradient71"
       id="linearGradient11"
       gradientUnits="userSpaceOnUse"
       gradientTransform="rotate(-90,99.999995,103)"
       x1="75"
       y1="67.5"
       x2="110.00001"
       y2="67.5" /><linearGradient
       inkscape:collect="always"
       xlink:href="#linearGradient65"
       id="linearGradient12"
       gradientUnits="userSpaceOnUse"
       gradientTransform="rotate(-90,87.824556,108.32456)"
       x1="75"
       y1="67.5"
       x2="110.00001"
       y2="67.5" /><linearGradient
       inkscape:collect="always"
       xlink:href="#linearGradient65"
       id="linearGradient13"
       gradientUnits="userSpaceOnUse"
       gradientTransform="rotate(-90,104.36437,90.784754)"
       x1="75"
       y1="67.5"
       x2="110.00001"
       y2="67.5" /><linearGradient
       inkscape:collect="always"
       xlink:href="#linearGradient65"
       id="linearGradient14"
       gradientUnits="userSpaceOnUse"
       gradientTransform="rotate(-90,69.350871,114.5)"
       x1="75"
       y1="67.5"
       x2="110.00001"
       y2="67.5" /><linearGradient
       inkscape:collect="always"
       xlink:href="#linearGradient65"
       id="linearGradient15"
       gradientUnits="userSpaceOnUse"
       gradientTransform="rotate(-90,110,73.850878)"
       x1="75"
       y1="67.5"
       x2="110.00001"
       y2="67.5" /><linearGradient
       inkscape:collect="always"
       xlink:href="#linearGradient54"
       id="linearGradient16"
       gradientUnits="userSpaceOnUse"
       gradientTransform="rotate(-90,87.999998,90.850875)"
       x1="75"
       y1="67.5"
       x2="110.00001"
       y2="67.5" /><linearGradient
       inkscape:collect="always"
       xlink:href="#linearGradient54"
       id="linearGradient17"
       gradientUnits="userSpaceOnUse"
       gradientTransform="rotate(-90,71.499998,99.5)"
       x1="75"
       y1="67.5"
       x2="110.00001"
       y2="67.5" /><linearGradient
       inkscape:collect="always"
       xlink:href="#linearGradient54"
       id="linearGradient18"
       gradientUnits="userSpaceOnUse"
       gradientTransform="rotate(-90,96,75.000003)"
       x1="75"
       y1="67.5"
       x2="110.00001"
       y2="67.5" /><linearGradient
       inkscape:collect="always"
       xlink:href="#linearGradient54"
       id="linearGradient19"
       gradientUnits="userSpaceOnUse"
       gradientTransform="rotate(-79.58738,53.598985,112.39642)"
       x1="75"
       y1="67.5"
       x2="110.00001"
       y2="67.5" /><linearGradient
       inkscape:collect="always"
       xlink:href="#linearGradient54"
       id="linearGradient20"
       gradientUnits="userSpaceOnUse"
       gradientTransform="matrix(-0.18073578,-0.98353169,-0.98353169,0.18073578,194.97896,145.10064)"
       x1="75"
       y1="67.5"
       x2="110.00001"
       y2="67.5" /><linearGradient
       inkscape:collect="always"
       xlink:href="#linearGradient1"
       id="linearGradient21"
       gradientUnits="userSpaceOnUse"
       gradientTransform="rotate(-90,75.350871,78.500002)"
       x1="75"
       y1="67.5"
       x2="110.00001"
       y2="67.5" /><linearGradient
       inkscape:collect="always"
       xlink:href="#linearGradient1"
       id="linearGradient22"
       gradientUnits="userSpaceOnUse"
       gradientTransform="rotate(-75,53.654872,97.015355)"
       x1="75"
       y1="67.5"
       x2="110.00001"
       y2="67.5" /><linearGradient
       inkscape:collect="always"
       xlink:href="#linearGradient1"
       id="linearGradient23"
       gradientUnits="userSpaceOnUse"
       gradientTransform="matrix(-0.25881905,-0.96592583,-0.96592583,0.25881905,181.94166,123.73256)"
       x1="75"
       y1="67.5"
       x2="110.00001"
       y2="67.5" /><linearGradient
       inkscape:collect="always"
       xlink:href="#linearGradient1"
       id="linearGradient24"
       gradientUnits="userSpaceOnUse"
       gradientTransform="matrix(0.53621983,-0.55857174,0.57506075,0.55204902,-69.8207,51.453578)"
       x1="75"
       y1="67.5"
       x2="110.00001"
       y2="67.5" /><linearGradient
       inkscape:collect="always"
       xlink:href="#linearGradient1"
       id="linearGradient25"
       gradientUnits="userSpaceOnUse"
       gradientTransform="matrix(-0.53621983,-0.55857174,-0.57506075,0.55204902,197.82069,51.453578)"
       x1="75"
       y1="67.5"
       x2="110.00001"
       y2="67.5" /><linearGradient
       inkscape:collect="always"
       xlink:href="#linearGradient40"
       id="linearGradient26"
       gradientUnits="userSpaceOnUse"
       gradientTransform="rotate(-90,62.824555,65.324558)"
       x1="75"
       y1="67.5"
       x2="110.00001"
       y2="67.5" /><linearGradient
       inkscape:collect="always"
       xlink:href="#linearGradient40"
       id="linearGradient27"
       gradientUnits="userSpaceOnUse"
       gradientTransform="matrix(0.45199105,-0.67732199,0.67732199,0.45199105,-47.209838,57.745398)"
       x1="75"
       y1="67.5"
       x2="110.00001"
       y2="67.5" /><linearGradient
       inkscape:collect="always"
       xlink:href="#linearGradient40"
       id="linearGradient28"
       gradientUnits="userSpaceOnUse"
       gradientTransform="matrix(-0.45199105,-0.67732199,-0.67732199,0.45199105,176.06938,57.478828)"
       x1="75"
       y1="67.5"
       x2="110.00001"
       y2="67.5" /><linearGradient
       inkscape:collect="always"
       xlink:href="#linearGradient34"
       id="linearGradient29"
       gradientUnits="userSpaceOnUse"
       gradientTransform="matrix(0,-0.61084433,0.88284443,0,5.038667,71.458318)"
       x1="75"
       y1="67.5"
       x2="110.00001"
       y2="67.5" /><linearGradient
       inkscape:collect="always"
       xlink:href="#linearGradient71"
       id="linearGradient31"
       gradientUnits="userSpaceOnUse"
       gradientTransform="rotate(-90,79.499995,115.35088)"
       x1="75"
       y1="67.5"
       x2="110.00001"
       y2="67.5" /><linearGradient
       inkscape:collect="always"
       xlink:href="#linearGradient71"
       id="linearGradient33"
       gradientUnits="userSpaceOnUse"
       gradientTransform="rotate(-90,110.53433,84.738246)"
       x1="75"
       y1="67.5"
       x2="110.00001"
       y2="67.5" /><clipPath
       clipPathUnits="userSpaceOnUse"
       id="clipPath55"><path
         d="m 63.992084,8.1502943 c -10.38,0 -22.796,3.5259997 -30.355,7.2199997 -8.038,3.266 -14.581,7.287 -19.253,14.509 -6.2830003,9.715 -9.3340003,24.721 -7.2550003,48.603 5.9640003,2.07 11.3330003,1.45 16.8420003,-0.415 -1.727,-7.884 -1.448,-15.764 0.496,-22.204 2.126,-7.044 6.404,-12.722 12.675,-13.701 l 2.77,-0.432 0.074,2.803 c 0.054,2.043 0.09,4.17 0.116,6.335 l 0.027,6.312 c -0.037,8.798 -0.382,18.286 -1.277,27.845 5.637,1.831 14.806,2.954 23.964,3.019 l 4.597,-0.058 c 8.53,-0.275 16.742,-1.449 21.665,-3.063 -1.093,-14.65 -1.166,-29.434 -1.52,-41.334 l -0.097,-3.283 3.18,0.824 c 6.238,1.617 10.549996,7.376 12.759996,14.507 2.02,6.51 2.353,14.37 0.64,22.248 a 29.764,29.764 0 0 0 12.847,1.181 l 4.399,-0.588 c 1.033,-18.811 -1.433,-37.403 -6.27,-46.264 l -4.408,-6.376 c -4.647,-5.357 -10.619996,-8.399 -17.664996,-11.074 -6.746,-3.458 -18.358,-6.6139997 -28.95,-6.6139997 z m 0,3.0499997 c 6.494,0 13.37,1.942 19.274,4.516 -3.123,2.758 -6.971,4.665 -11.067,5.754 l -7.852,17.31 -6.838,-16.882 c -4.757,-0.93 -9.26,-2.957 -12.783,-6.174 6.173,-2.643 13.082,-4.524 19.266,-4.524 z m 0.58,28.539 3.512,5.327 -3.497,5.053 -3.53,-5.053 z m 0,11.888 3.512,5.328 -3.497,5.052 -3.53,-5.053 3.514,-5.327 z m 0,11.733 3.512,5.327 -3.497,5.054 -3.53,-5.054 z m 0,11.876 3.512,5.327 -3.497,5.054 -3.53,-5.053 3.514,-5.327 z m 25.079,13.715 c -6.61,2.055 -15.829,2.907 -25.277,2.951 -9.5,0.045 -18.965,-0.744 -25.902,-2.892 -0.205,1.785 -0.43,3.569 -0.678,5.347 5.968,2.132 16.346,3.408 26.497,3.36 10.143,-0.05 20.355,-1.444 25.912,-3.433 a 241.302,241.302 0 0 1 -0.552,-5.333 z m 1.368,9.086 c -6.782,2.307996 -16.533,3.261996 -26.53,3.309996 -2.935,0.015 -5.866,-0.052 -8.724,-0.213 l -4.227,-0.315 c -5.358,-0.5 -10.307,-1.381996 -14.329,-2.757996 -0.897,5.429996 -2.02,10.771996 -3.413,15.902996 2.117,1.06 4.41,1.968 6.835,2.733 l 3.97,1.096 c 15.85,3.805 35.88,2.156 49.601,-3.513 -1.355,-5.09 -2.387,-10.57 -3.183,-16.242996 z"
         fill="#ffffff"
         id="path55"
         style="display:inline" /></clipPath></defs><sodipodi:namedview
     id="namedview1"
     pagecolor="#ffffff"
     bordercolor="#000000"
     borderopacity="0.25"
     inkscape:showpageshadow="2"
     inkscape:pageopacity="0.0"
     inkscape:pagecheckerboard="0"
     inkscape:deskcolor="#d1d1d1"
     inkscape:zoom="2.3358672"
     inkscape:cx="70.209472"
     inkscape:cy="69.139206"
     inkscape:window-width="896"
     inkscape:window-height="540"
     inkscape:window-x="0"
     inkscape:window-y="25"
     inkscape:window-maximized="0"
     inkscape:current-layer="svg1" /><g
     id="g55"
     clip-path="url(#clipPath55)"><ellipse
       cx="-67.74585"
       cy="-60.020832"
       transform="rotate(-176.54)"
       id="circle2"
       style="fill:#d47966;fill-opacity:1;stroke:none;stroke-width:7.70683;stroke-miterlimit:4;stroke-dasharray:none;stroke-opacity:1"
       rx="64.062988"
       ry="64.062996" /><path
       style="display:inline;fill:url(#linearGradient31);stroke:#d47966;stroke-width:4.29825;stroke-linecap:round;stroke-dasharray:none;stroke-opacity:1"
       d="m 16.298241,86.999995 c 0,0 7.526865,24.000005 16.394679,29.000005 8.867815,5 14.307072,-29.000005 14.307072,-29.000005"
       id="path1-3-7-1-9"
       sodipodi:nodetypes="czc" /><path
       style="display:inline;fill:url(#linearGradient33);stroke:#d47966;stroke-width:4.29825;stroke-linecap:round;stroke-dasharray:none;stroke-opacity:1"
       d="m 77.945206,87.421696 c 0,0 6.570301,33.482994 15.350881,30.701754 C 99.999997,116 106.70084,96.733048 108.64696,87.421696"
       id="path1-3-7-1-9-7-8"
       sodipodi:nodetypes="csc" /><path
       style="fill:url(#linearGradient11);stroke:#d47966;stroke-width:4.29825;stroke-linecap:round;stroke-dasharray:none;stroke-opacity:1"
       d="m 49.149115,95.14912 c 0,0 6.140352,30.70176 15.350878,30.70176 9.210526,0 15.350875,-30.70176 15.350875,-30.70176"
       id="path1-3-7"
       sodipodi:nodetypes="czc" /><path
       style="display:inline;fill:url(#linearGradient12);stroke:#d47966;stroke-width:4.29825;stroke-linecap:round;stroke-dasharray:none;stroke-opacity:1"
       d="m 31.649115,88.29824 c 0,0 6.140352,30.70176 15.350878,30.70176 9.210526,0 15.350875,-30.70176 15.350875,-30.70176"
       id="path1-3-7-7"
       sodipodi:nodetypes="czc" /><path
       style="fill:url(#linearGradient13);stroke:#d47966;stroke-width:4.29825;stroke-linecap:round;stroke-dasharray:none;stroke-opacity:1"
       d="m 65.728733,87.29824 c 0,0 6.140351,30.70176 15.350877,30.70176 9.210533,0 15.350885,-30.70176 15.350885,-30.70176"
       id="path1-3-7-7-4"
       sodipodi:nodetypes="czc" /><path
       style="fill:url(#linearGradient14);stroke:#d47966;stroke-width:4.29825;stroke-linecap:round;stroke-dasharray:none;stroke-opacity:1"
       d="m 6.999993,75.999995 c 0,0 6.14035,30.701755 15.350877,30.701755 9.210524,0 15.350874,-30.701755 15.350874,-30.701755"
       id="path1-3-7-7-4-5"
       sodipodi:nodetypes="czc" /><path
       style="fill:url(#linearGradient15);stroke:#d47966;stroke-width:4.29825;stroke-linecap:round;stroke-dasharray:none;stroke-opacity:1"
       d="m 88.29824,75.999995 c 0,0 6.140357,30.701755 15.35088,30.701755 9.21053,0 15.35088,-30.701755 15.35088,-30.701755"
       id="path1-3-7-7-4-5-1"
       sodipodi:nodetypes="czc" /><path
       style="fill:url(#linearGradient16);stroke:#d47966;stroke-width:4.29825;stroke-linecap:round;stroke-dasharray:none;stroke-opacity:1"
       d="m 49.298245,70.999995 c 0,0 6.140352,30.701755 15.350873,30.701755 9.210524,0 15.350874,-30.701755 15.350874,-30.701755"
       id="path1-3-7-7-4-5-1-1"
       sodipodi:nodetypes="czc" /><path
       style="fill:url(#linearGradient17);stroke:#d47966;stroke-width:4.29825;stroke-linecap:round;stroke-dasharray:none;stroke-opacity:1"
       d="m 24.14912,63.14912 c 0,0 6.140352,30.701755 15.350872,30.701755 9.210525,0 15.350875,-30.701755 15.350875,-30.701755"
       id="path1-3-7-7-4-5-1-1-0"
       sodipodi:nodetypes="czc" /><path
       style="fill:url(#linearGradient18);stroke:#d47966;stroke-width:4.29825;stroke-linecap:round;stroke-dasharray:none;stroke-opacity:1"
       d="m 73.149121,63.14912 c 0,0 6.140352,30.70176 15.350871,30.70176 9.210525,0 15.350878,-30.70176 15.350878,-30.70176"
       id="path1-3-7-7-4-5-1-1-0-6"
       sodipodi:nodetypes="czc" /><path
       style="fill:url(#linearGradient19);stroke:#d47966;stroke-width:4.29825;stroke-linecap:round;stroke-dasharray:none;stroke-opacity:1"
       d="m 4.149118,48.14912 c 0,0 0.490324,31.305935 9.549161,32.970606 9.058833,1.66467 20.646969,-27.421703 20.646969,-27.421703"
       id="path1-3-7-7-4-5-1-1-0-6-9"
       sodipodi:nodetypes="czc" /><path
       style="fill:url(#linearGradient20);stroke:#d47966;stroke-width:4.29825;stroke-linecap:round;stroke-dasharray:none;stroke-opacity:1"
       d="m 124.19613,48.451085 c 0,0 -0.49032,31.30594 -9.54917,32.970611 -9.05883,1.66467 -20.646963,-27.421701 -20.646963,-27.421701"
       id="path1-3-7-7-4-5-1-1-0-6-9-0"
       sodipodi:nodetypes="czc" /><path
       style="fill:url(#linearGradient21);stroke:#d47966;stroke-width:4.29825;stroke-linecap:round;stroke-dasharray:none;stroke-opacity:1"
       d="m 48.999992,45.999995 c 0,0 6.140352,30.701755 15.350873,30.701755 9.210525,0 15.350875,-30.701755 15.350875,-30.701755"
       id="path1-3-7-7-4-5-1-1-00"
       sodipodi:nodetypes="czc" /><path
       style="fill:url(#linearGradient22);stroke:#d47966;stroke-width:4.29825;stroke-linecap:round;stroke-dasharray:none;stroke-opacity:1"
       d="m 24.344382,33.053795 c 0,0 -2.015075,31.244861 6.881605,33.628719 8.896684,2.383859 22.774005,-25.682519 22.774005,-25.682519"
       id="path1-3-7-7-4-5-1-1-00-6"
       sodipodi:nodetypes="czc" /><path
       style="fill:url(#linearGradient23);stroke:#d47966;stroke-width:4.29825;stroke-linecap:round;stroke-dasharray:none;stroke-opacity:1"
       d="m 103.65561,33.053795 c 0,0 2.01508,31.244861 -6.881603,33.628719 C 87.877314,69.066373 73.999992,40.999995 73.999992,40.999995"
       id="path1-3-7-7-4-5-1-1-00-6-4"
       sodipodi:nodetypes="czc" /><path
       style="fill:url(#linearGradient24);stroke:#d47966;stroke-width:3.37689;stroke-linecap:round;stroke-dasharray:none;stroke-opacity:1"
       d="m 19.999992,20.999995 c 0,0 -14.931817,19.53891 -9.635209,24.62357 5.296611,5.084661 25.635209,-7.62357 25.635209,-7.62357"
       id="path1-3-7-7-4-5-1-1-00-4"
       sodipodi:nodetypes="czc" /><path
       style="fill:url(#linearGradient25);stroke:#d47966;stroke-width:3.37689;stroke-linecap:round;stroke-dasharray:none;stroke-opacity:1"
       d="m 108,20.999995 c 0,0 14.93182,19.53891 9.63521,24.62357 -5.29661,5.084661 -25.635214,-7.62357 -25.635214,-7.62357"
       id="path1-3-7-7-4-5-1-1-00-4-9"
       sodipodi:nodetypes="czc" /><path
       style="fill:url(#linearGradient26);stroke:#d47966;stroke-width:4.29825;stroke-linecap:round;stroke-dasharray:none;stroke-opacity:1"
       d="m 49.64912,20.298235 c 0,0 6.140353,30.70176 15.350872,30.70176 9.210525,0 15.350875,-30.70176 15.350875,-30.70176"
       id="path1-3-7-7-4-5-1-1-00-5"
       sodipodi:nodetypes="czc" /><path
       style="fill:url(#linearGradient27);stroke:#d47966;stroke-width:3.5;stroke-linecap:round;stroke-dasharray:none;stroke-opacity:1"
       d="m 36.859542,8.266565 c 0,0 -9.717924,23.57037 -3.479438,27.73343 6.238491,4.163075 24.274408,-13.85651 24.274408,-13.85651"
       id="path1-3-7-7-4-5-1-1-00-5-6"
       sodipodi:nodetypes="czc" /><path
       style="fill:url(#linearGradient28);stroke:#d47966;stroke-width:3.5;stroke-linecap:round;stroke-dasharray:none;stroke-opacity:1"
       d="m 90.999997,7.999995 c 0,0 10.717923,23.57037 4.47944,27.73343 -6.238497,4.16308 -24.274413,-13.85651 -24.274413,-13.85651"
       id="path1-3-7-7-4-5-1-1-00-5-6-7"
       sodipodi:nodetypes="czc" /><path
       style="fill:url(#linearGradient29);stroke:#d47966;stroke-width:3.15646;stroke-linecap:round;stroke-dasharray:none;stroke-opacity:1"
       d="m 51.078224,5.578225 c 0,0 5.420976,18.75399 13.55243,18.75399 8.131461,0 13.552435,-18.75399 13.552435,-18.75399"
       id="path1-3-7-7-4-5-1-1-00-5-5"
       sodipodi:nodetypes="czc" /></g></svg>
