<svg height="128" width="128" xmlns="http://www.w3.org/2000/svg">
  <g fill="#fff">
    <path d="m61.455.662v6.562c-29.335 1.298-52.933 24.896-54.23 54.231h-6.564v5.09h6.562c1.298 29.336 24.895 52.933 54.231 54.23v6.563h5.09v-6.562c29.336-1.298 52.933-24.895 54.23-54.231h6.563v-5.09h-6.562c-1.297-29.335-24.895-52.933-54.23-54.23v-6.564zm0 11.656v4.113h5.09v-4.113c26.58 1.283 47.854 22.558 49.137 49.137h-5.61v5.09h5.61c-1.283 26.58-22.558 47.854-49.137 49.137v-4.413h-5.09v4.413c-26.58-1.283-47.854-22.558-49.137-49.137h5.111v-5.09h-5.111c1.283-26.58 22.558-47.854 49.137-49.137z"/>
    <path d="m67.822362 90.774002h-6.548027v-41.725485q-2.364566 2.255432-6.220626 4.510864-3.819683 2.255431-6.875429 3.383147v-6.32976q5.493067-2.582833 9.603773-6.257004 4.110706-3.67417 5.820469-7.130074h4.21984z" stroke-width=".998"/>
  </g>
</svg>
