<svg height="128" width="128" xmlns="http://www.w3.org/2000/svg">
  <g fill="#fff">
    <path d="m61.46.773v6.551c-29.285 1.296-52.84 24.85-54.136 54.136h-6.551v5.08h6.551c1.296 29.285 24.85 52.84 54.136 54.136v6.551h5.08v-6.551c29.285-1.296 52.84-24.85 54.136-54.136h6.551v-5.08h-6.551c-1.296-29.285-24.85-52.84-54.136-54.136v-6.551zm0 11.636v4.106h5.08v-4.105c26.533 1.28 47.77 22.518 49.051 49.05h-5.6v5.081h5.6c-1.28 26.533-22.518 47.77-49.05 49.051v-4.405h-5.081v4.405c-26.533-1.28-47.77-22.518-49.051-49.05h5.102v-5.082h-5.101c1.28-26.533 22.518-47.77 49.05-49.051z"/>
    <path d="m56.591655 61.4034q-4.067164-1.488873-6.028119-4.248734-1.960954-2.759862-1.960954-6.609142 0-5.810235 4.176106-9.768457 4.176106-3.958222 11.112074-3.958222 6.972281 0 11.221015 4.067164 4.248734 4.03085 4.248734 9.841085 0 3.704024-1.960954 6.463886-1.92464 2.723547-5.882862 4.21242 4.902385 1.597814 7.444363 5.156583 2.578291 3.558769 2.578291 8.497468 0 6.827025-4.829757 11.475213-4.829758 4.648188-12.709888 4.648188-7.880131 0-12.709888-4.648188-4.829758-4.684501-4.829758-11.656783 0-5.192897 2.614606-8.679038 2.650919-3.522454 7.516991-4.793443zm-1.307303-11.07576q0 3.776653 2.433036 6.173374 2.433035 2.396722 6.31863 2.396722 3.776652 0 6.173374-2.360408 2.433036-2.396721 2.433036-5.846548 0-3.595083-2.505664-6.028119-2.46935-2.469349-6.173374-2.469349-3.740339 0-6.209688 2.396722-2.46935 2.396721-2.46935 5.737606zm-2.10621 24.584555q0 2.796175 1.307303 5.410781 1.343617 2.614606 3.958222 4.067164 2.614606 1.416245 5.628665 1.416245 4.684501 0 7.734875-3.014059 3.050373-3.01406 3.050373-7.662247 0-4.720816-3.159315-7.807503-3.123001-3.086687-7.843817-3.086687-4.611874 0-7.662247 3.050373-3.014059 3.050373-3.014059 7.625933z" stroke-width=".996"/>
  </g>
</svg>
