<?xml version="1.0" encoding="UTF-8" standalone="no"?>
<svg
   width="350"
   height="54"
   viewBox="0 0 350 54"
   version="1.1"
   id="svg9"
   sodipodi:docname="loot-melee-naginata-daemon.svg"
   inkscape:version="1.4 (e7c3feb1, 2024-10-09)"
   inkscape:export-filename="C:\Users\kjust\Desktop\projects\surviv\client\img\melee\melee-battleaxe.png"
   inkscape:export-xdpi="228"
   inkscape:export-ydpi="228"
   xmlns:inkscape="http://www.inkscape.org/namespaces/inkscape"
   xmlns:sodipodi="http://sodipodi.sourceforge.net/DTD/sodipodi-0.dtd"
   xmlns:xlink="http://www.w3.org/1999/xlink"
   xmlns="http://www.w3.org/2000/svg"
   xmlns:svg="http://www.w3.org/2000/svg"
   xmlns:rdf="http://www.w3.org/1999/02/22-rdf-syntax-ns#"
   xmlns:cc="http://creativecommons.org/ns#"
   xmlns:dc="http://purl.org/dc/elements/1.1/">
  <metadata
     id="metadata13">
    <rdf:RDF>
      <cc:Work
         rdf:about="">
        <dc:format>image/svg+xml</dc:format>
        <dc:type
           rdf:resource="http://purl.org/dc/dcmitype/StillImage" />
        <dc:title />
      </cc:Work>
    </rdf:RDF>
  </metadata>
  <sodipodi:namedview
     pagecolor="#ffffff"
     bordercolor="#666666"
     borderopacity="1"
     objecttolerance="10"
     gridtolerance="10"
     guidetolerance="10"
     inkscape:pageopacity="0"
     inkscape:pageshadow="2"
     inkscape:window-width="1920"
     inkscape:window-height="1022"
     id="namedview11"
     showgrid="true"
     inkscape:showpageshadow="false"
     inkscape:zoom="1.980548"
     inkscape:cx="143.39466"
     inkscape:cy="36.10112"
     inkscape:window-x="0"
     inkscape:window-y="128"
     inkscape:window-maximized="1"
     inkscape:current-layer="g12"
     inkscape:snap-smooth-nodes="true"
     inkscape:object-paths="true"
     inkscape:snap-intersection-paths="true"
     fit-margin-top="0"
     fit-margin-left="0"
     fit-margin-right="0"
     fit-margin-bottom="0"
     inkscape:snap-nodes="true"
     inkscape:pagecheckerboard="0"
     inkscape:deskcolor="#d1d1d1">
    <inkscape:grid
       type="xygrid"
       id="grid822"
       empspacing="4"
       spacingx="1"
       spacingy="1"
       originx="39.999997"
       originy="-16"
       units="px" />
  </sodipodi:namedview>
  <defs
     id="defs5">
    <linearGradient
       id="linearGradient856"
       inkscape:collect="always">
      <stop
         id="stop852"
         offset="0"
         style="stop-color:#151617;stop-opacity:1" />
      <stop
         id="stop854"
         offset="1"
         style="stop-color:#a1a3a6;stop-opacity:1" />
    </linearGradient>
    <linearGradient
       id="a-8">
      <stop
         stop-color="#ffc321"
         offset="0"
         id="stop3" />
      <stop
         stop-color="#925d15"
         offset="1"
         id="stop5" />
    </linearGradient>
    <clipPath
       clipPathUnits="userSpaceOnUse"
       id="clipPath1069">
      <path
         sodipodi:nodetypes="ccccccccccccccccc"
         inkscape:connector-curvature="0"
         id="path1071"
         d="m 204,22 h 6 v -6 c 0,-2 2,-2 2,-2 h 4 c 0,0 2,0 2,2 v 6 h 6 v 15 h -6 v 6 c 0,2 -2,2 -2,2 h -4 c 0,0 -2,0 -2,-2 v -6 h -6 z"
         style="fill:url(#linearGradient1073);fill-opacity:1;stroke:none;stroke-width:10.84571743;stroke-linecap:square;stroke-linejoin:round;stroke-miterlimit:4;stroke-dasharray:none;stroke-opacity:1;paint-order:fill markers stroke" />
    </clipPath>
    <linearGradient
       inkscape:collect="always"
       xlink:href="#a-8"
       id="linearGradient1073"
       gradientUnits="userSpaceOnUse"
       gradientTransform="matrix(1,0,0,1.8379624,-0.270003,-25.490723)"
       x1="204"
       y1="30"
       x2="224"
       y2="30" />
    <clipPath
       clipPathUnits="userSpaceOnUse"
       id="clipPath1096">
      <path
         style="fill:url(#linearGradient1100);fill-opacity:1;stroke:none;stroke-width:10.84571743;stroke-linecap:square;stroke-linejoin:round;stroke-miterlimit:4;stroke-dasharray:none;stroke-opacity:1;paint-order:fill markers stroke"
         d="m -6.000003,22 h 16 v 15 h -16 c -4,0 -4,-4 -4,-4 v -7 c 0,0 0,-4 4,-4 z"
         id="path1098"
         inkscape:connector-curvature="0"
         sodipodi:nodetypes="ccccccc" />
    </clipPath>
    <linearGradient
       inkscape:collect="always"
       xlink:href="#a-8"
       id="linearGradient1100"
       gradientUnits="userSpaceOnUse"
       gradientTransform="matrix(1,0,0,1.8379624,-214.27,-25.490723)"
       x1="204"
       y1="30"
       x2="224"
       y2="30" />
    <clipPath
       clipPathUnits="userSpaceOnUse"
       id="clipPath1135">
      <path
         clip-path="none"
         sodipodi:nodetypes="scsccs"
         inkscape:connector-curvature="0"
         id="path1137"
         d="m 304,25.142975 c 26.27284,2.54283 36,13.979357 40,25.979357 -11.27,-5.21979 -26.88739,-8.69241 -43.27,-11.21979 -23.73998,-3.66242 -77,-3 -77,-3 v -14.7037 c 0,0 44.27,-0.540145 80.27,2.944133 z"
         style="fill:url(#linearGradient1139);fill-opacity:1;stroke:none;stroke-width:6.83929777;stroke-linecap:butt;stroke-linejoin:miter;stroke-miterlimit:4;stroke-dasharray:none;stroke-opacity:1" />
    </clipPath>
    <linearGradient
       inkscape:collect="always"
       xlink:href="#linearGradient856"
       id="linearGradient1139"
       gradientUnits="userSpaceOnUse"
       gradientTransform="translate(0,17.122332)"
       x1="223.73"
       y1="19.53825"
       x2="344"
       y2="19.53825" />
    <clipPath
       clipPathUnits="userSpaceOnUse"
       id="clipPath1150">
      <rect
         y="-206"
         x="-37.537075"
         height="200"
         width="16.049789"
         id="rect1152"
         style="fill:#c15800;fill-opacity:1;stroke:none;stroke-width:18.26990318;stroke-miterlimit:4;stroke-dasharray:none;stroke-opacity:1"
         ry="2.7"
         rx="2.7" />
    </clipPath>
    <linearGradient
       id="linear-gradient"
       x1="313.17999"
       y1="79.32"
       x2="231.53999"
       y2="-2.3199999"
       gradientUnits="userSpaceOnUse"
       gradientTransform="translate(0,6.785)">
      <stop
         offset="0"
         stop-color="#030303"
         id="stop1"
         style="stop-color:#262626;stop-opacity:1;" />
      <stop
         offset="0.33000001"
         stop-color="#0c0c0c"
         id="stop2"
         style="stop-color:#1a1a1a;stop-opacity:1;" />
      <stop
         offset="0.5"
         stop-color="#000"
         id="stop3-3"
         style="stop-color:#0d0d0d;stop-opacity:1;" />
      <stop
         offset="0.75999999"
         stop-color="#151515"
         id="stop4"
         style="stop-color:#1a1a1a;stop-opacity:1;" />
      <stop
         offset="1"
         stop-color="#030303"
         id="stop5-8" />
    </linearGradient>
    <linearGradient
       inkscape:collect="always"
       xlink:href="#linear-gradient-2"
       id="linearGradient2"
       gradientUnits="userSpaceOnUse"
       gradientTransform="matrix(1,0,0,-1.84,-201.6,423.88)"
       x1="206.08"
       y1="214.58"
       x2="220.08"
       y2="214.58" />
    <linearGradient
       id="linear-gradient-2"
       x1="206.08"
       y1="214.58"
       x2="220.08"
       y2="214.58"
       gradientTransform="matrix(1,0,0,-1.84,-201.6,423.88)"
       gradientUnits="userSpaceOnUse">
      <stop
         offset="0"
         stop-color="#030303"
         id="stop6" />
      <stop
         offset="1"
         stop-color="#0f0f0f"
         id="stop7" />
    </linearGradient>
    <linearGradient
       id="linear-gradient-3"
       x1="193.41"
       y1="30.15"
       x2="210.5"
       y2="30.15"
       xlink:href="#linear-gradient-2" />
    <linearGradient
       id="linear-gradient-4"
       x1="14.67"
       y1="29.51"
       x2="193.41"
       y2="29.51"
       gradientUnits="userSpaceOnUse">
      <stop
         offset="0"
         stop-color="#0c0c0c"
         id="stop10" />
      <stop
         offset="1"
         stop-color="#3d0000"
         id="stop11" />
    </linearGradient>
  </defs>
  <g
     id="g12"
     transform="translate(0.415,-5.255)">
    <path
       class="cls-8"
       d="m 343.93,55.365 c -6.65,-4.03 -21.81,-11.78 -40.09,-11.78 -4.37,0 -8.7,0.46 -12.86,1.35 -3.55,0.77 -6.9,2.06 -9.7,3.22 -0.72,0.3 -1.91,0.65 -3.46,0.65 -0.15,0 -0.31,0 -0.47,0 0.12,-0.9 0.04,-1.91 -0.48,-2.92 -1.25,-2.46 -4.37,-3.66 -9.55,-3.66 -1.02,0 -2.14,0.05 -3.33,0.14 -9.06,0.7 -13.62,3.78 -15.7,5.84 -3.7,-2.03 -12.95,-6.26 -25.59,-6.26 -6.11,0 -12.24,1 -18.26,2.98 v -13.35 c 2.21,-0.03 6.82,-0.36 8.16,-3.79 0.42,-1.07 0.4,-2.2 0.11,-3.29 3.03,0.9 6.16,1.36 9.37,1.36 6.46,0 11.92,-1.83 15.45,-3.42 0.1,0.51 0.27,1.03 0.53,1.54 1.24,2.46 4.07,3.92 8.42,4.32 0.61,0.06 1.2,0.08 1.76,0.08 3.37,0 5.82,-1.03 7.27,-3.05 1.04,-1.44 1.32,-3.07 1.32,-4.44 53.16,1.52 73.99,13.64 82.09,23.63 3.44,4.24 4.63,8.14 5.01,10.84 z"
       id="path9"
       style="fill:url(#linear-gradient)" />
    <path
       class="cls-2"
       d="m 237.84,27.255 c 0,0 0.1,-0.04 0.19,-0.06 -0.67,-0.62 -1.22,-1.32 -1.65,-2.11 -3.6,1.41 -8.58,2.77 -14.3,2.77 -2.28,0 -4.53,-0.23 -6.74,-0.66 8.41,1.98 18.91,1.61 22.49,0.06 z"
       id="path10"
       style="opacity:0.2;fill:#ff0000" />
    <path
       class="cls-2"
       d="m 258.64,22.945 c -0.21,1.12 -0.62,2.14 -1.2,3.06 h 0.11 c 53.49,1.54 73.36,12.52 80.61,21.47 1.13,1.39 1.88,2.52 2.41,3.5 -0.7,-1.59 -1.72,-3.35 -3.22,-5.2 -7.7,-9.5 -27.62,-21.11 -78.72,-22.84 z"
       id="path11"
       style="opacity:0.2;fill:#ff0000" />
    <path
       d="m 346.48,59.255 -3.59,-2.18 c -7.08,-4.29 -21.56,-11.49 -39.05,-11.49 -4.23,0 -8.41,0.44 -12.44,1.31 -3.4,0.73 -6.64,1.98 -9.36,3.11 -0.97,0.4 -2.67,0.88 -4.78,0.79 l -2.18,-0.09 0.28,-2.17 c 0.08,-0.65 0,-1.23 -0.28,-1.76 -1.06,-2.09 -4.81,-2.9 -10.94,-2.43 -8.61,0.66 -12.74,3.58 -14.44,5.27 l -1.06,1.05 -1.31,-0.72 c -3.3,-1.81 -12.31,-6.01 -24.63,-6.01 -5.89,0 -11.82,0.97 -17.63,2.88 l -2.62,0.86 v -18.08 l 1.97,-0.03 c 2.45,-0.04 5.54,-0.5 6.32,-2.51 0.23,-0.59 0.24,-1.27 0.04,-2.06 l -0.89,-3.43 3.4,1.01 c 2.84,0.84 5.8,1.27 8.8,1.27 6.14,0 11.34,-1.76 14.63,-3.24 l 2.3,-1.04 0.48,2.48 c 0.07,0.36 0.19,0.71 0.35,1.03 0.91,1.8 3.2,2.89 6.81,3.22 3.56,0.32 5.97,-0.4 7.23,-2.14 0.63,-0.87 0.94,-1.97 0.94,-3.27 v -2.06 c 0,0 2.06,0.06 2.06,0.06 54,1.55 75.26,14.11 83.59,24.37 3.79,4.67 5.05,9.01 5.44,11.83 l 0.58,4.16 z m -42.64,-17.67 c 15.44,0 28.61,5.29 36.86,9.65 -0.71,-1.66 -1.76,-3.51 -3.34,-5.45 -7.7,-9.5 -27.62,-21.11 -78.72,-22.84 -0.25,1.32 -0.76,2.5 -1.51,3.55 -1.86,2.57 -4.85,3.88 -8.9,3.88 -0.61,0 -1.27,-0.03 -1.94,-0.09 -4.97,-0.46 -8.3,-2.21 -9.92,-5.2 -3.6,1.41 -8.58,2.77 -14.3,2.77 -2.45,0 -4.87,-0.25 -7.24,-0.75 -0.07,0.49 -0.2,0.96 -0.38,1.42 -0.79,2.01 -2.83,4.39 -8.02,4.94 v 8.76 c 5.38,-1.51 10.83,-2.28 16.26,-2.28 11.91,0 20.98,3.68 25.29,5.84 2.8,-2.3 7.66,-4.79 15.85,-5.42 8.13,-0.62 12.91,0.84 14.82,4.61 0.28,0.55 0.48,1.12 0.6,1.71 0.53,-0.1 0.95,-0.24 1.26,-0.37 2.89,-1.19 6.34,-2.52 10.05,-3.32 4.3,-0.93 8.77,-1.4 13.28,-1.4 z"
       id="path12" />
  </g>
  <g
     id="g14"
     transform="translate(0.415,1.53)">
    <g
       id="path1092">
      <path
         class="cls-3"
         d="m 6.67,35 c -1.61,0 -1.98,-1.1 -2,-2.02 V 26 c 0.02,-0.9 0.39,-2 2,-2 l 12,2.42 v 6.18 z"
         id="path13"
         style="fill:url(#linearGradient2)" />
    </g>
    <g
       id="path1092-2"
       data-name="path1092">
      <path
         d="M 6.87,37 H 6.67 C 4.3,37 2.73,35.44 2.67,33.03 V 26 c 0.06,-2.45 1.63,-4 4,-4 l 0.4,0.04 13.6,2.74 v 9.46 z M 6.67,26.04 v 0 c 0,0 0,6.92 0,6.92 l 10,-2 v -2.91 l -10,-2.02 z"
         id="path14" />
    </g>
  </g>
  <g
     id="g16"
     transform="translate(0.415,1.53)">
    <path
       class="cls-6"
       d="m 201.56,39.68 c -0.22,0 -0.43,-0.05 -0.62,-0.15 l -7.53,-3.77 V 23.64 l 17.09,-3.02 -7.64,18.2 c -0.22,0.52 -0.72,0.86 -1.29,0.86 z"
       id="path15"
       style="fill:url(#linear-gradient-3)" />
    <path
       d="m 201.56,41.68 c -0.53,0 -1.04,-0.12 -1.52,-0.36 L 191.4,37 V 21.96 l 22.36,-3.95 -9.06,21.58 c -0.53,1.26 -1.76,2.08 -3.14,2.08 z m -6.15,-7.15 5.85,2.93 5.97,-14.23 -11.83,2.09 v 9.21 z"
       id="path16" />
  </g>
  <g
     id="g20"
     transform="translate(0.415,1.53)">
    <polygon
       class="cls-5"
       points="193.41,35.54 14.67,32.54 14.67,26.49 193.41,23.49 "
       id="polygon16"
       style="fill:url(#linear-gradient-4)" />
    <path
       d="M 195.41,37.57 12.68,34.5 V 24.52 L 195.41,21.45 Z M 16.67,30.57 191.4,33.5 V 25.52 L 16.67,28.45 Z"
       id="path17" />
    <g
       class="cls-7"
       id="g19"
       style="opacity:0.45">
      <polygon
         class="cls-1"
         points="186.71,31.12 183.69,32.5 185.08,29.51 183.69,26.53 186.71,27.9 189.73,26.53 188.34,29.51 189.73,32.5 "
         id="polygon17"
         style="opacity:0.35;fill:#ff0000" />
      <polygon
         class="cls-1"
         points="176.58,30.92 173.93,32.12 175.15,29.51 173.93,26.9 176.58,28.1 179.22,26.9 178,29.51 179.22,32.12 "
         id="polygon18"
         style="opacity:0.35;fill:#ff0000" />
      <polygon
         class="cls-1"
         points="166.44,30.72 164.18,31.75 165.22,29.51 164.18,27.27 166.44,28.3 168.71,27.27 167.67,29.51 168.71,31.75 "
         id="polygon19"
         style="opacity:0.35;fill:#ff0000" />
    </g>
  </g>
</svg>
