<?xml version="1.0" encoding="UTF-8" standalone="no"?>
<!-- Created with Inkscape (http://www.inkscape.org/) -->

<svg
   version="1.1"
   id="svg1"
   width="128"
   height="128"
   viewBox="0 0 128 128"
   sodipodi:docname="loot-perk-vampire.png"
   xmlns:inkscape="http://www.inkscape.org/namespaces/inkscape"
   xmlns:sodipodi="http://sodipodi.sourceforge.net/DTD/sodipodi-0.dtd"
   xmlns="http://www.w3.org/2000/svg"
   xmlns:svg="http://www.w3.org/2000/svg">
  <defs
     id="defs1" />
  <sodipodi:namedview
     id="namedview1"
     pagecolor="#656565"
     bordercolor="#000000"
     borderopacity="0.25"
     inkscape:showpageshadow="2"
     inkscape:pageopacity="0.0"
     inkscape:pagecheckerboard="0"
     inkscape:deskcolor="#d1d1d1">
    <inkscape:page
       x="0"
       y="0"
       width="128"
       height="128"
       id="page2"
       margin="0"
       bleed="0" />
  </sodipodi:namedview>
  <g
     inkscape:groupmode="layer"
     inkscape:label="Image"
     id="g1">
    <path
       style="fill:#000000;stroke-width:1.3164"
       d="m 32.390242,112.73304 c -0.636628,-1.20189 -1.642264,-3.18555 -2.234748,-4.40813 -0.592484,-1.22258 -1.738751,-3.80306 -2.54726,-5.7344 -0.80851,-1.93134 -1.797367,-4.398566 -2.19746,-5.482726 -0.400094,-1.084161 -1.059233,-2.953698 -1.464752,-4.154527 -0.405521,-1.20083 -0.979711,-2.974911 -1.275978,-3.942402 -0.296268,-0.967491 -0.837156,-2.847715 -1.201974,-4.178276 -0.364819,-1.33056 -1.00986,-3.870721 -1.433426,-5.644801 -0.423564,-1.774081 -1.074271,-5.020458 -1.446015,-7.214171 -0.371744,-2.193712 -0.80869,-5.056433 -0.970991,-6.361602 -0.162301,-1.305168 -0.394123,-3.542313 -0.515162,-4.971434 -0.121039,-1.42912 -0.266326,-3.501126 -0.32286,-4.604456 l -0.10279,-2.006058 -0.670285,-1.219544 c -0.368656,-0.67075 -0.935532,-1.864665 -1.259725,-2.653145 -0.324191,-0.788481 -0.758913,-2.038401 -0.966046,-2.777601 -0.207133,-0.7392 -0.516141,-2.158109 -0.686686,-3.153131 -0.170543,-0.995022 -0.38754,-2.648143 -0.482213,-3.673602 -0.10809,-1.17076 -0.141174,-3.464664 -0.08892,-6.165272 0.05429,-2.805758 0.169465,-4.861442 0.331335,-5.913602 0.140773,-0.915027 0.406772,-1.935808 0.614819,-2.359385 0.201684,-0.410622 0.656145,-1.085092 1.009913,-1.498822 0.35377,-0.413731 1.044776,-1.077146 1.53557,-1.474255 0.490796,-0.397108 1.581698,-1.107654 2.424229,-1.57899 0.842531,-0.471335 2.259656,-1.185199 3.149165,-1.586365 0.88951,-0.401166 2.620358,-1.083775 3.846327,-1.516911 1.22597,-0.433136 3.282943,-1.075968 4.571051,-1.428516 1.288108,-0.352547 3.463915,-0.882046 4.835127,-1.176662 1.371212,-0.294618 3.275043,-0.663745 4.230736,-0.820285 0.955693,-0.15654 2.757534,-0.437501 4.00409,-0.62436 1.246556,-0.186857 3.11639,-0.422076 4.155187,-0.522708 1.038797,-0.100639 3.214604,-0.286015 4.835127,-0.411962 1.857725,-0.144385 6.324107,-0.229697 12.087818,-0.230891 l 9.141409,-0.0019 4.00409,0.320267 c 2.202249,0.176145 5.431963,0.519806 7.177141,0.763689 1.745179,0.243882 4.294953,0.649555 5.666165,0.901495 1.371212,0.251938 3.513022,0.699826 4.759578,0.995306 1.246557,0.295479 3.35373,0.860277 4.682607,1.255107 1.328875,0.394829 3.164715,1.004201 4.079645,1.35416 0.91492,0.349959 2.44542,0.993517 3.40112,1.430129 0.9557,0.436611 2.44282,1.235958 3.30473,1.776328 0.86191,0.540368 1.96579,1.346306 2.45303,1.790973 0.48726,0.444665 1.04891,1.066799 1.24813,1.382517 0.19922,0.315719 0.47137,0.830122 0.60478,1.143117 0.1334,0.312996 0.3454,1.280677 0.47108,2.150401 0.12571,0.869725 0.29068,2.831237 0.36664,4.358918 0.0812,1.633307 0.0834,3.884981 0.006,5.465602 -0.0729,1.4784 -0.24343,3.494401 -0.37888,4.480001 -0.13544,0.985601 -0.41495,2.498542 -0.62112,3.362093 -0.20618,0.863552 -0.54714,2.073153 -0.7577,2.688001 -0.21055,0.61485 -0.51945,1.440469 -0.6864,1.834709 -0.16697,0.39424 -0.62538,1.28128 -1.01869,1.971201 l -0.71511,1.2544 -0.10419,2.150401 c -0.0573,1.18272 -0.17143,2.997121 -0.25365,4.032001 -0.0822,1.03488 -0.28827,3.090851 -0.45789,4.568823 -0.16963,1.477973 -0.5455,4.098774 -0.83528,5.824002 -0.28978,1.725229 -0.79789,4.42702 -1.12916,6.003981 -0.33125,1.57696 -0.80847,3.673601 -1.06048,4.659201 -0.25201,0.985601 -0.69492,2.679041 -0.98425,3.763202 -0.28933,1.08416 -0.73503,2.65664 -0.99044,3.494401 -0.25541,0.83776 -0.99304,3.095681 -1.63918,5.017601 -0.64614,1.921921 -1.71757,4.865282 -2.38097,6.540803 -0.6634,1.675522 -1.78732,4.317872 -2.497597,5.871892 -0.710278,1.55402 -1.877153,3.97322 -2.593054,5.376 -0.716434,1.40278 -1.433259,2.75211 -1.593479,2.99851 l -0.291306,0.448 -0.0023,-0.5376 c -0.0013,-0.29568 0.129688,-2.35659 0.291072,-4.5798 0.161383,-2.22321 0.414326,-6.17457 0.562095,-8.7808 l 0.268668,-4.738604 -0.0029,-9.587203 -0.0029,-9.587203 -0.25702,-3.404801 c -0.141381,-1.872641 -0.337218,-4.271681 -0.435214,-5.331202 -0.098,-1.059521 -0.237144,-1.926401 -0.309217,-1.926401 -0.07207,0 -0.386249,0.15441 -0.698164,0.343134 -0.311916,0.188723 -0.972149,0.474652 -1.467184,0.635397 -0.495034,0.160744 -1.71599,0.339635 -2.713235,0.397535 -1.054245,0.06122 -2.34717,0.01993 -3.088958,-0.09863 -0.701682,-0.11215 -1.748454,-0.384446 -2.326161,-0.605114 l -1.050376,-0.401216 -0.166952,0.332237 c -0.09182,0.182731 -0.346866,0.633621 -0.566764,1.001981 -0.219897,0.368358 -0.815826,0.999215 -1.324289,1.401903 -0.508463,0.402689 -1.286741,0.89291 -1.729507,1.08938 -0.442766,0.196471 -1.342703,0.48909 -1.999859,0.650266 -0.657158,0.161175 -1.976762,0.376519 -2.932455,0.478544 -0.955694,0.102029 -2.513198,0.133282 -3.46112,0.06946 -0.947923,-0.06382 -2.307802,-0.236607 -3.021954,-0.383964 -0.714153,-0.147354 -1.64659,-0.456612 -2.072081,-0.687235 -0.425492,-0.230623 -1.053543,-0.719242 -1.395668,-1.085819 l -0.622046,-0.666503 -0.772082,0.823276 c -0.550982,0.587515 -1.053024,0.926187 -1.753132,1.182647 -0.539577,0.197655 -1.399927,0.437308 -1.911888,0.532564 -0.511961,0.09526 -1.71277,0.22513 -2.668463,0.288611 -0.98255,0.06526 -2.52229,0.02678 -3.543347,-0.08858 -0.993105,-0.112207 -2.312709,-0.328211 -2.932412,-0.48002 -0.619702,-0.15181 -1.492623,-0.438377 -1.939823,-0.636816 -0.447201,-0.198437 -1.235024,-0.696549 -1.750719,-1.106913 -0.588161,-0.468029 -1.135055,-1.097726 -1.467326,-1.689491 l -0.529697,-0.943373 -0.302195,0.0853 c -0.166208,0.04691 -0.812151,0.261037 -1.435429,0.475833 l -1.133233,0.39054 -2.568661,0.01954 c -1.711589,0.01305 -2.84595,-0.06185 -3.399699,-0.22439 -0.45707,-0.134156 -1.223415,-0.448325 -1.702988,-0.698143 -0.479574,-0.249818 -0.895911,-0.422289 -0.925193,-0.38327 -0.02929,0.03902 -0.164613,1.401503 -0.300734,3.027744 -0.136121,1.62624 -0.315559,4.085761 -0.398751,5.465602 -0.08319,1.37984 -0.193473,5.492482 -0.245068,9.139203 -0.05803,4.102038 -0.02664,8.407089 0.08234,11.289604 0.09688,2.562561 0.309912,6.83648 0.473399,9.4976 0.163487,2.66112 0.395165,6.04611 0.514842,7.5222 0.119669,1.47609 0.202774,2.70138 0.184663,2.72286 -0.01811,0.0215 -0.553807,-0.94431 -1.190435,-2.1462 z M 29.517111,96.390983 c -0.06851,-1.57696 -0.129617,-5.729922 -0.13579,-9.228803 -0.0062,-3.498881 0.06582,-7.934082 0.159981,-9.856003 0.09416,-1.921921 0.270763,-4.865282 0.392448,-6.540802 0.121684,-1.675521 0.365432,-4.376962 0.54166,-6.003202 l 0.320415,-2.956801 -0.161026,-2.420126 c -0.110145,-1.655348 -0.113541,-3.156005 -0.01076,-4.748801 0.08264,-1.280772 0.304547,-3.318211 0.493105,-4.527641 l 0.342837,-2.198963 -0.772598,-1.84455 C 30.262456,45.05079 29.596619,43.653139 29.20775,42.959402 28.818878,42.265664 28.000688,41.134748 27.389548,40.446254 26.750685,39.726529 25.872055,38.953638 25.32243,38.627905 c -0.698272,-0.413827 -1.163278,-0.566361 -1.725084,-0.565872 -0.493556,4.3e-4 -0.940806,0.124824 -1.248279,0.347171 -0.263532,0.190574 -0.6573,0.707032 -0.875042,1.147682 -0.217741,0.440651 -0.559817,1.594824 -0.760168,2.564831 -0.200351,0.970007 -0.484408,2.932929 -0.631236,4.362049 -0.193439,1.882785 -0.267816,3.930927 -0.270061,7.436803 -0.0023,3.627783 0.06493,5.466129 0.268794,7.347202 0.149542,1.379841 0.434725,3.718402 0.63374,5.196802 0.199015,1.478401 0.567183,3.857282 0.818152,5.286402 0.250968,1.429121 0.734237,3.808001 1.07393,5.286402 0.339692,1.4784 0.823416,3.494401 1.074941,4.480001 0.251525,0.985601 0.799632,2.961281 1.218014,4.390402 0.418384,1.42912 1.157914,3.786183 1.643403,5.237917 0.485488,1.451734 1.266525,3.669335 1.735639,4.928002 0.469114,1.258667 0.952439,2.517739 1.074055,2.797938 0.121615,0.2802 0.236268,0.4818 0.254784,0.448 0.01852,-0.0338 -0.02239,-1.351693 -0.0909,-2.928654 z m 71.802239,-4.748801 c 0.4847,-1.429121 1.19591,-3.631925 1.58046,-4.895122 0.38455,-1.263196 1.04034,-3.642077 1.4573,-5.286402 0.41697,-1.644324 1.05592,-4.400881 1.41989,-6.125682 0.36397,-1.7248 0.80091,-3.982721 0.97099,-5.017601 0.17007,-1.034881 0.44835,-2.929921 0.6184,-4.211202 0.17005,-1.28128 0.33993,-2.571521 0.37753,-2.867201 0.0376,-0.29568 0.18403,-1.86816 0.32542,-3.494401 0.1414,-1.626241 0.25615,-4.287361 0.255,-5.913602 -0.001,-1.626241 -0.11907,-4.327682 -0.26196,-6.003202 -0.14292,-1.675521 -0.3945,-3.852801 -0.55904,-4.838402 -0.17514,-1.04907 -0.50024,-2.272212 -0.78417,-2.950304 -0.30713,-0.733478 -0.67331,-1.308567 -0.99842,-1.568 -0.37095,-0.296016 -0.73111,-0.409697 -1.29797,-0.409697 -0.57546,0 -1.03501,0.148423 -1.72425,0.556899 -0.51682,0.306293 -1.34939,1.006763 -1.85014,1.556599 -0.50075,0.549836 -1.199445,1.448352 -1.552646,1.996702 -0.353202,0.54835 -1.095357,1.988859 -1.649237,3.201131 -0.65551,1.434711 -1.005763,2.404318 -1.003359,2.7776 0.0021,0.31541 0.07011,0.914804 0.151274,1.331986 0.08117,0.417183 0.219052,1.344544 0.306406,2.060801 0.08736,0.716258 0.224971,2.229647 0.305815,3.363087 0.1019,1.428711 0.09428,2.803972 -0.02487,4.483758 l -0.17185,2.422958 0.240192,1.967443 c 0.132105,1.082095 0.343402,3.177045 0.469548,4.655446 0.126145,1.4784 0.295063,3.741264 0.375374,5.028586 0.08031,1.287321 0.22344,4.875803 0.318068,7.974403 0.126768,4.151122 0.12829,6.942074 0.0058,10.604817 -0.09144,2.734049 -0.164994,5.51613 -0.163436,6.182402 l 0.0028,1.211402 0.989892,-2.5984 c 0.54444,-1.429121 1.386459,-3.767682 1.871169,-5.196802 z M 58.584593,67.801983 c 1.124868,-0.133554 1.787443,-0.313399 2.35687,-0.639711 l 0.792108,-0.453919 0.227118,-0.92829 c 0.124915,-0.510559 0.299105,-1.573411 0.38709,-2.361891 0.08799,-0.78848 0.156293,-2.845231 0.151795,-4.570558 -0.0045,-1.725326 -0.11122,-4.184847 -0.237163,-5.465601 -0.125942,-1.280755 -0.393237,-3.138601 -0.593992,-4.128546 -0.200753,-0.989944 -0.530298,-2.320505 -0.732322,-2.956801 -0.202024,-0.636295 -0.657888,-1.84234 -1.013032,-2.680101 -0.355144,-0.83776 -0.934035,-1.96672 -1.286425,-2.5088 -0.35239,-0.542081 -1.021618,-1.411849 -1.487172,-1.932819 -0.465554,-0.520971 -1.204924,-1.145143 -1.643046,-1.38705 -0.511289,-0.282306 -1.067165,-0.439856 -1.552075,-0.439901 -0.563311,-5.1e-5 -0.956765,0.136838 -1.546751,0.53812 -0.435194,0.296004 -1.066612,0.951321 -1.403151,1.45626 -0.336541,0.504939 -0.885128,1.597038 -1.219086,2.426883 -0.333957,0.829845 -0.836946,2.349491 -1.117754,3.376989 -0.280808,1.027499 -0.715275,2.938222 -0.965483,4.24605 -0.250208,1.307829 -0.557707,3.224592 -0.683328,4.259472 -0.125623,1.03488 -0.271219,2.970241 -0.323549,4.300801 -0.05293,1.345783 -0.02629,3.095056 0.06003,3.942402 0.08534,0.83776 0.270377,1.942411 0.411189,2.454778 0.140814,0.512368 0.467805,1.188908 0.72665,1.503424 0.258843,0.314515 0.758317,0.718347 1.109941,0.897405 0.351622,0.179057 0.929571,0.420183 1.28433,0.535836 0.354758,0.115648 1.222965,0.311934 1.929347,0.436183 0.706381,0.12425 2.076056,0.234743 3.043719,0.245543 0.967664,0.01075 2.463531,-0.06397 3.32415,-0.166158 z m 17.354473,-0.07551 c 0.789486,-0.142557 1.841349,-0.426079 2.337476,-0.630053 0.496125,-0.203975 1.114203,-0.543273 1.373505,-0.753995 0.259301,-0.210722 0.615035,-0.632322 0.790519,-0.936891 0.175485,-0.304568 0.427617,-1.037599 0.560296,-1.62896 0.132677,-0.59136 0.280884,-2.0832 0.329349,-3.315201 0.05036,-1.280265 0.0097,-3.199736 -0.09486,-4.480001 -0.100643,-1.232001 -0.311907,-3.090472 -0.469474,-4.129935 -0.157568,-1.039464 -0.461275,-2.692584 -0.674904,-3.673601 -0.21363,-0.981018 -0.629536,-2.630388 -0.924235,-3.665268 -0.294699,-1.034881 -0.813436,-2.503951 -1.152747,-3.264602 -0.339311,-0.76065 -0.908811,-1.77872 -1.265552,-2.262378 -0.356742,-0.483657 -0.956023,-1.050748 -1.331737,-1.2602 -0.400035,-0.223012 -0.981214,-0.380097 -1.402476,-0.379072 -0.445033,0.0011 -1.024784,0.170385 -1.520264,0.443954 -0.440497,0.243212 -1.213403,0.907705 -1.717568,1.47665 -0.504165,0.568946 -1.208496,1.518287 -1.565181,2.109647 -0.356684,0.59136 -0.918923,1.72032 -1.24942,2.508801 -0.330497,0.78848 -0.818745,2.24 -1.084999,3.225601 -0.266252,0.9856 -0.60962,2.558081 -0.763039,3.494401 -0.153417,0.93632 -0.36013,2.733589 -0.45936,3.993931 -0.106034,1.346687 -0.149057,3.67415 -0.104354,5.644801 0.05071,2.235722 0.16149,3.78349 0.332392,4.644164 0.140982,0.70999 0.392046,1.495516 0.557921,1.745612 0.184774,0.278591 0.623164,0.565592 1.13181,0.74096 0.45662,0.157433 1.285085,0.34915 1.841034,0.426038 0.555948,0.07688 1.928733,0.14992 3.050634,0.162292 1.12344,0.01233 2.684678,-0.09394 3.475247,-0.236695 z m 14.794597,-3.762329 c 0.534318,-0.05438 1.321201,-0.28977 1.753786,-0.524646 0.437167,-0.237367 0.95224,-0.693522 1.163121,-1.030075 0.208169,-0.332227 0.464086,-0.886289 0.568705,-1.23125 0.10462,-0.34496 0.224531,-1.775039 0.266472,-3.177954 0.04499,-1.505042 0.0013,-3.268207 -0.106639,-4.300801 -0.100594,-0.962527 -0.34666,-2.733911 -0.546811,-3.936409 -0.200151,-1.2025 -0.637163,-3.173277 -0.971137,-4.379505 -0.333974,-1.206229 -0.850615,-2.722207 -1.14809,-3.368841 -0.297474,-0.646634 -0.712595,-1.391599 -0.92249,-1.655479 -0.209896,-0.263878 -0.581144,-0.577791 -0.824995,-0.697584 l -0.443368,-0.217805 -0.605959,0.215315 c -0.333278,0.11843 -0.881055,0.510072 -1.217283,0.87033 -0.336227,0.360258 -0.866724,1.10144 -1.178881,1.647069 -0.312157,0.545632 -0.806729,1.556537 -1.099047,2.246457 -0.292319,0.68992 -0.703443,1.901062 -0.913609,2.691427 -0.210166,0.790364 -0.481784,2.008114 -0.603594,2.706113 l -0.221475,1.269089 0.288652,2.580287 c 0.194646,1.739969 0.290994,3.69928 0.295842,6.01627 l 0.0071,3.435982 0.591488,0.280684 c 0.325318,0.154376 1.050717,0.36098 1.611996,0.459118 0.56128,0.09814 1.36048,0.202092 1.775998,0.231008 0.415519,0.02891 0.925474,0.03395 1.133233,0.01118 0.20776,-0.02275 0.813865,-0.08576 1.3469,-0.139991 z M 41.717572,63.850529 c 0.488774,-0.107162 1.147204,-0.317515 1.463179,-0.467457 l 0.5745,-0.272615 v -3.19929 c 0,-2.157586 0.09916,-4.115195 0.304537,-6.012225 0.167495,-1.547116 0.260874,-3.10252 0.20751,-3.456456 -0.05337,-0.353935 -0.328473,-1.557942 -0.611351,-2.675571 -0.282878,-1.117628 -0.743456,-2.581915 -1.023508,-3.253969 -0.280052,-0.672054 -0.781087,-1.692991 -1.113413,-2.268749 -0.332325,-0.575758 -0.832049,-1.304826 -1.110498,-1.620151 -0.278447,-0.315324 -0.768289,-0.702937 -1.088538,-0.861361 -0.34413,-0.170239 -0.755165,-0.243006 -1.005016,-0.177923 -0.232512,0.06057 -0.693646,0.434615 -1.024744,0.831217 -0.331098,0.396604 -0.786038,1.122134 -1.010978,1.612288 -0.224938,0.490153 -0.645021,1.713318 -0.933516,2.718145 -0.288496,1.004825 -0.689947,2.580623 -0.892112,3.501771 -0.202166,0.92115 -0.510859,2.846952 -0.685985,4.279561 l -0.318408,2.604744 0.05939,2.709242 0.05939,2.709241 0.339812,0.889453 c 0.186896,0.489199 0.456204,1.0421 0.598461,1.228669 0.142258,0.186569 0.520002,0.497411 0.839431,0.69076 0.31943,0.193349 0.863382,0.417853 1.208782,0.498898 0.345401,0.08104 1.44844,0.156189 2.451198,0.166987 1.002757,0.01075 2.223102,-0.06804 2.711875,-0.175202 z m 70.521298,-21.474781 0.32442,-2.074391 -0.005,-4.748801 c -0.004,-3.580843 -0.0649,-5.123431 -0.24744,-6.272003 l -0.24212,-1.5232 -0.77193,-0.848365 c -0.52654,-0.578694 -1.46295,-1.250628 -2.94586,-2.113868 -1.32402,-0.770457 -3.25257,-1.688142 -4.93054,-2.345927 -1.51586,-0.594234 -3.644742,-1.350003 -4.730841,-1.679483 -1.0861,-0.32948 -2.994636,-0.84133 -4.241192,-1.137444 -1.246556,-0.296113 -3.660342,-0.784185 -5.363969,-1.084605 -1.703627,-0.300419 -4.117413,-0.66738 -5.363969,-0.815468 -1.246556,-0.148088 -3.592349,-0.390788 -5.212872,-0.539335 -1.620523,-0.148546 -4.612258,-0.351764 -6.648299,-0.451592 -2.036042,-0.09984 -5.469738,-0.181573 -7.630436,-0.181649 -2.160697,-7.6e-5 -5.560396,0.08053 -7.554886,0.179098 -1.99449,0.09859 -5.054219,0.301595 -6.799397,0.451143 -1.745179,0.149549 -4.192962,0.395159 -5.439518,0.5458 -1.246556,0.150643 -3.218382,0.433514 -4.381834,0.628604 -1.163453,0.195089 -3.101281,0.558627 -4.306285,0.807861 -1.205005,0.249236 -3.210827,0.724208 -4.457383,1.055496 -1.246556,0.331288 -3.398618,1.008508 -4.78236,1.504935 -1.383742,0.496427 -3.151586,1.196821 -3.928541,1.556433 -0.776956,0.35961 -2.252613,1.141917 -3.27924,1.738459 -1.180633,0.686033 -2.142769,1.386942 -2.618107,1.90727 l -0.751513,0.822644 -0.242971,1.792001 c -0.176117,1.298915 -0.242362,3.000058 -0.240753,6.182402 l 0.0022,4.390401 0.331129,2.150401 c 0.182121,1.18272 0.50615,2.832291 0.720066,3.665714 0.258087,1.005516 0.428333,1.427533 0.506039,1.2544 0.0644,-0.143502 0.161314,-0.865713 0.215351,-1.604913 0.05405,-0.7392 0.26146,-2.296884 0.460937,-3.46152 0.227274,-1.326923 0.560114,-2.610568 0.891475,-3.438094 0.290834,-0.726316 0.820699,-1.696158 1.177477,-2.155204 0.356778,-0.459046 1.045982,-1.072484 1.531564,-1.363195 0.561973,-0.336445 1.223124,-0.566247 1.818968,-0.632237 0.626052,-0.06933 1.247519,-0.009 1.876365,0.182017 0.517148,0.157129 1.332958,0.52275 1.812909,0.812492 0.479951,0.289741 1.366742,1.022743 1.970644,1.628896 0.603904,0.60615 1.570626,1.827357 2.148272,2.713791 0.577647,0.886434 1.200966,1.929704 1.385156,2.318376 0.184189,0.388673 0.376703,0.706677 0.42781,0.706677 0.05111,0 0.175462,-0.270718 0.276346,-0.601597 0.100885,-0.330878 0.471512,-1.231175 0.823617,-2.00066 0.352105,-0.769485 0.933598,-1.786541 1.292206,-2.260126 0.39718,-0.524524 1.031409,-1.082574 1.622732,-1.427826 l 0.970721,-0.566764 1.097025,0.0853 c 0.797287,0.06199 1.321861,0.221044 1.919912,0.582107 0.452587,0.273242 1.213594,0.938788 1.691124,1.47899 0.477531,0.540202 1.203437,1.558993 1.613124,2.263979 0.409688,0.704986 0.962778,1.795738 1.22909,2.423896 0.266311,0.628157 0.5347,1.071677 0.596419,0.985601 0.06172,-0.08607 0.304731,-0.761304 0.540028,-1.500504 0.235298,-0.7392 0.629566,-1.827841 0.876153,-2.419201 0.246586,-0.59136 0.744445,-1.570416 1.106352,-2.175679 0.361907,-0.605262 0.975634,-1.432058 1.363838,-1.837324 0.388205,-0.405265 1.169845,-1.01216 1.73698,-1.348656 0.679461,-0.403141 1.359423,-0.653502 1.993639,-0.734052 0.684905,-0.08699 1.237295,-0.03875 1.91536,0.167273 0.524081,0.159235 1.282618,0.502366 1.685639,0.762514 0.403021,0.260149 1.170619,0.901331 1.705776,1.424852 0.535156,0.523521 1.427725,1.619749 1.983488,2.436064 0.662644,0.973304 1.311975,2.224432 1.886351,3.634609 0.48173,1.18272 0.960181,2.493121 1.063224,2.912001 0.103048,0.418879 0.233821,0.7616 0.290615,0.7616 0.0568,0 0.186608,-0.342721 0.288475,-0.7616 0.101864,-0.41888 0.588635,-1.731507 1.081712,-2.91695 0.528663,-1.271002 1.296773,-2.755696 1.87205,-3.618525 0.536553,-0.804748 1.437423,-1.915689 2.001934,-2.468759 0.564512,-0.55307 1.44265,-1.249128 1.951419,-1.546793 0.508769,-0.297665 1.403947,-0.629126 1.989284,-0.736577 l 1.064249,-0.19537 0.996009,0.291504 c 0.547804,0.160327 1.286605,0.49348 1.64178,0.740339 0.355175,0.246858 0.937542,0.745027 1.29415,1.107042 0.356607,0.362014 0.988861,1.19125 1.405007,1.842747 0.416146,0.651497 0.992995,1.766897 1.281884,2.478665 0.28889,0.71177 0.679368,1.835965 0.867729,2.498212 0.188361,0.662248 0.405523,1.228681 0.482583,1.258739 0.07706,0.03006 0.263924,-0.302421 0.415254,-0.738845 0.15133,-0.436425 0.672843,-1.509452 1.158916,-2.384505 0.486074,-0.875052 1.320084,-2.075065 1.853355,-2.666693 0.533271,-0.59163 1.303644,-1.263851 1.711941,-1.493825 0.475757,-0.267973 1.129713,-0.448884 1.820968,-0.503757 l 1.078611,-0.08561 0.828243,0.449706 c 0.455534,0.247337 1.10929,0.750837 1.452789,1.118886 0.343501,0.36805 0.926614,1.244191 1.295807,1.946979 0.369192,0.702789 0.85293,1.761638 1.07497,2.352998 l 0.40371,1.075201 0.171071,-0.329536 c 0.09409,-0.181245 0.511043,-0.945587 0.926562,-1.698539 0.415519,-0.752953 1.350688,-2.059484 2.078154,-2.903406 0.727466,-0.843921 1.683989,-1.79412 2.125619,-2.111552 0.44162,-0.317432 1.2063,-0.751769 1.69929,-0.96519 0.64086,-0.277445 1.26238,-0.391766 2.18066,-0.40111 l 1.28433,-0.01305 0.85976,0.500727 c 0.51503,0.299956 1.16471,0.89645 1.62031,1.487663 0.4183,0.542814 0.96764,1.501574 1.22076,2.13058 0.25312,0.629003 0.58984,1.894915 0.74825,2.813138 0.15841,0.918223 0.35921,2.274295 0.44623,3.013496 0.087,0.7392 0.20423,1.7472 0.26045,2.24 l 0.10226,0.896001 0.4378,-1.59921 c 0.24079,-0.879566 0.58378,-2.532686 0.76221,-3.673602 z"
       id="path5" />
    <path
       style="fill:#000000;stroke-width:1.3164"
       d="m 32.390242,112.73304 c -0.636628,-1.20189 -1.642264,-3.18555 -2.234748,-4.40813 -0.592484,-1.22258 -1.738751,-3.80306 -2.54726,-5.7344 -0.80851,-1.93134 -1.797367,-4.398566 -2.19746,-5.482726 -0.400094,-1.084161 -1.059233,-2.953698 -1.464752,-4.154527 -0.405521,-1.20083 -0.979711,-2.974911 -1.275978,-3.942402 -0.296268,-0.967491 -0.837156,-2.847715 -1.201974,-4.178276 -0.364819,-1.33056 -1.00986,-3.870721 -1.433426,-5.644801 -0.423564,-1.774081 -1.074271,-5.020458 -1.446015,-7.214171 -0.371744,-2.193712 -0.80869,-5.056433 -0.970991,-6.361602 -0.162301,-1.305168 -0.394123,-3.542313 -0.515162,-4.971434 -0.121039,-1.42912 -0.266326,-3.501126 -0.32286,-4.604456 -0.101875,-1.988199 -0.108758,-2.016913 -0.773075,-3.225602 -0.368656,-0.67075 -0.935532,-1.864665 -1.259725,-2.653145 -0.324191,-0.788481 -0.758913,-2.038401 -0.966046,-2.777601 -0.207133,-0.7392 -0.516141,-2.158109 -0.686686,-3.153131 -0.170543,-0.995022 -0.38754,-2.648143 -0.482213,-3.673602 -0.10809,-1.17076 -0.141174,-3.464664 -0.08892,-6.165272 0.05429,-2.805758 0.169465,-4.861442 0.331335,-5.913602 0.140773,-0.915027 0.406772,-1.935808 0.614819,-2.359385 0.201684,-0.410622 0.656145,-1.085092 1.009913,-1.498822 0.35377,-0.413731 1.044776,-1.077146 1.53557,-1.474255 0.490796,-0.397108 1.581698,-1.107654 2.424229,-1.57899 0.842531,-0.471335 2.259656,-1.185199 3.149165,-1.586365 0.88951,-0.401166 2.620358,-1.083775 3.846327,-1.516911 1.22597,-0.433136 3.282943,-1.075968 4.571051,-1.428516 1.288108,-0.352547 3.463915,-0.882046 4.835127,-1.176662 1.371212,-0.294618 3.275043,-0.663745 4.230736,-0.820285 0.955693,-0.15654 2.757534,-0.437501 4.00409,-0.62436 1.246556,-0.186857 3.11639,-0.422076 4.155187,-0.522708 1.038797,-0.100639 3.214604,-0.286015 4.835127,-0.411962 1.857725,-0.144385 6.324107,-0.229697 12.087818,-0.230891 7.197752,-0.0014 9.992768,0.0662 13.145502,0.318374 2.202249,0.176145 5.431963,0.519806 7.177142,0.763689 1.745179,0.243882 4.294953,0.649555 5.666165,0.901495 1.371211,0.251938 3.513022,0.699826 4.759578,0.995306 1.246556,0.295479 3.35373,0.860277 4.682607,1.255107 1.328881,0.394829 3.164721,1.004201 4.079641,1.35416 0.91492,0.349959 2.44543,0.993517 3.40112,1.430129 0.9557,0.436611 2.44283,1.235958 3.30474,1.776328 0.86191,0.540368 1.96578,1.346306 2.45303,1.790973 0.48726,0.444665 1.04891,1.066799 1.24812,1.382517 0.19922,0.315719 0.47137,0.830122 0.60478,1.143117 0.1334,0.312996 0.3454,1.280677 0.47109,2.150401 0.1257,0.869725 0.29067,2.831237 0.36663,4.358918 0.0812,1.633307 0.0834,3.884981 0.006,5.465602 -0.0729,1.4784 -0.24344,3.494401 -0.37888,4.480001 -0.13545,0.985601 -0.41495,2.498542 -0.62112,3.362093 -0.20618,0.863552 -0.54715,2.073153 -0.7577,2.688001 -0.21056,0.61485 -0.51945,1.440469 -0.68641,1.834709 -0.16697,0.39424 -0.62538,1.28128 -1.01869,1.971201 -0.7151,1.2544 -0.7151,1.2544 -0.81925,3.404801 -0.0573,1.18272 -0.17143,2.997121 -0.25365,4.032001 -0.0822,1.03488 -0.28827,3.090851 -0.45789,4.568823 -0.16963,1.477973 -0.5455,4.098774 -0.83528,5.824002 -0.28978,1.725229 -0.79789,4.42702 -1.12916,6.003981 -0.33125,1.57696 -0.80847,3.673601 -1.06048,4.659201 -0.25201,0.985601 -0.69492,2.679041 -0.98425,3.763202 -0.28933,1.08416 -0.73503,2.65664 -0.99044,3.494401 -0.25541,0.83776 -0.99304,3.095681 -1.63918,5.017601 -0.64613,1.921921 -1.71757,4.865282 -2.38097,6.540803 -0.6634,1.675525 -1.787318,4.317875 -2.497595,5.871895 -0.710278,1.55402 -1.877153,3.97322 -2.593054,5.376 -0.715902,1.40278 -1.432728,2.75211 -1.592947,2.99851 -0.291307,0.448 -0.291307,0.448 -0.29366,-0.0896 -0.0013,-0.29568 0.129688,-2.35659 0.291072,-4.5798 0.161383,-2.22321 0.414326,-6.17457 0.562095,-8.7808 0.205205,-3.619274 0.267988,-7.003253 0.265785,-14.32581 -0.0023,-7.549423 -0.05751,-10.310901 -0.259902,-12.992004 -0.141945,-1.872641 -0.337782,-4.271681 -0.435778,-5.331202 -0.098,-1.059521 -0.237144,-1.926401 -0.309217,-1.926401 -0.07207,0 -0.386249,0.15441 -0.698164,0.343134 -0.311916,0.188723 -0.972149,0.474652 -1.467184,0.635397 -0.495034,0.160744 -1.71599,0.339635 -2.713235,0.397535 -1.054245,0.06122 -2.34717,0.01993 -3.088958,-0.09863 -0.701682,-0.11215 -1.748454,-0.384446 -2.326161,-0.605114 -1.015715,-0.387975 -1.055885,-0.390252 -1.217328,-0.06898 -0.09182,0.182731 -0.346866,0.633622 -0.566764,1.001981 -0.219897,0.368358 -0.815826,0.999215 -1.324289,1.401903 -0.508463,0.402689 -1.286741,0.89291 -1.729507,1.089381 -0.442766,0.19647 -1.342703,0.48909 -1.999859,0.650265 -0.657158,0.161175 -1.976762,0.376519 -2.932455,0.478544 -0.955694,0.10203 -2.513198,0.133282 -3.46112,0.06946 -0.947923,-0.06382 -2.307802,-0.236607 -3.021954,-0.383964 -0.714153,-0.147348 -1.64659,-0.456606 -2.072081,-0.687229 -0.425492,-0.230623 -1.053543,-0.719242 -1.395668,-1.085819 l -0.622046,-0.666503 -0.772082,0.823276 c -0.550982,0.587515 -1.053024,0.926187 -1.753132,1.182647 -0.539577,0.197655 -1.399927,0.437308 -1.911888,0.532564 -0.511961,0.09526 -1.71277,0.22513 -2.668463,0.288611 -0.98255,0.06526 -2.52229,0.02678 -3.543347,-0.08858 -0.993148,-0.112208 -2.312752,-0.328212 -2.932455,-0.480021 -0.619702,-0.15181 -1.492623,-0.438377 -1.939823,-0.636816 -0.447201,-0.198437 -1.235024,-0.696549 -1.750719,-1.106913 -0.588161,-0.468029 -1.135055,-1.097726 -1.467326,-1.689491 -0.408234,-0.727052 -0.598993,-0.923815 -0.831892,-0.85808 -0.166208,0.04691 -0.812151,0.261037 -1.435429,0.475834 -0.952388,0.328217 -1.543147,0.393658 -3.701894,0.41008 -1.711589,0.01304 -2.84595,-0.06185 -3.399699,-0.22439 -0.45707,-0.134157 -1.223415,-0.448326 -1.702988,-0.698144 -0.479574,-0.249818 -0.895911,-0.422288 -0.925193,-0.38327 -0.02929,0.03902 -0.164613,1.401504 -0.300734,3.027744 -0.136121,1.626241 -0.315559,4.085762 -0.398751,5.465602 -0.08319,1.379841 -0.193473,5.492482 -0.245068,9.139203 -0.05803,4.102039 -0.02664,8.407089 0.08234,11.289604 0.09688,2.562561 0.309912,6.836486 0.473399,9.497606 0.163487,2.66112 0.395165,6.04611 0.514842,7.5222 0.119669,1.47609 0.202774,2.70137 0.184663,2.72285 -0.01811,0.0215 -0.553807,-0.94431 -1.190435,-2.1462 z M 29.517111,96.390983 c -0.06851,-1.57696 -0.129617,-5.729922 -0.13579,-9.228803 -0.0062,-3.498881 0.06582,-7.934082 0.159981,-9.856003 0.09416,-1.921921 0.270763,-4.865282 0.392448,-6.540802 0.121684,-1.675521 0.365432,-4.376962 0.54166,-6.003202 0.283684,-2.617835 0.301956,-3.234245 0.159389,-5.376927 -0.110145,-1.655348 -0.113541,-3.156005 -0.01076,-4.748801 0.08264,-1.280772 0.304547,-3.318211 0.493105,-4.527641 l 0.342837,-2.198963 -0.772598,-1.84455 C 30.262456,45.05079 29.596619,43.653139 29.20775,42.959402 28.818878,42.265664 28.000688,41.134748 27.389548,40.446254 26.750685,39.726529 25.872055,38.953638 25.32243,38.627905 c -0.698272,-0.413827 -1.163278,-0.566361 -1.725084,-0.565872 -0.493556,4.3e-4 -0.940806,0.124824 -1.248279,0.347171 -0.263532,0.190574 -0.6573,0.707032 -0.875042,1.147682 -0.217741,0.440651 -0.559817,1.594824 -0.760168,2.564831 -0.200351,0.970007 -0.484408,2.932929 -0.631236,4.362049 -0.193439,1.882785 -0.267816,3.930927 -0.270061,7.436803 -0.0023,3.627783 0.06493,5.466129 0.268794,7.347202 0.149542,1.379841 0.434725,3.718402 0.63374,5.196802 0.199015,1.478401 0.567183,3.857282 0.818152,5.286402 0.250968,1.429121 0.734237,3.808001 1.07393,5.286402 0.339692,1.4784 0.823416,3.494401 1.074941,4.480001 0.251525,0.985601 0.799632,2.961281 1.218014,4.390402 0.418384,1.42912 1.157914,3.786183 1.643403,5.237917 0.485488,1.451734 1.266525,3.669335 1.735639,4.928002 0.469114,1.258667 0.952439,2.517739 1.074055,2.797938 0.121615,0.2802 0.236268,0.4818 0.254784,0.448 0.01852,-0.0338 -0.02239,-1.351693 -0.0909,-2.928654 z m 71.802239,-4.748801 c 0.4847,-1.429121 1.19591,-3.631925 1.58046,-4.895122 0.38455,-1.263196 1.04034,-3.642077 1.4573,-5.286402 0.41697,-1.644324 1.05592,-4.400881 1.41989,-6.125682 0.36397,-1.7248 0.80091,-3.982721 0.97099,-5.017601 0.17007,-1.034881 0.44835,-2.929921 0.6184,-4.211202 0.17005,-1.28128 0.33993,-2.571521 0.37753,-2.867201 0.0376,-0.29568 0.18403,-1.86816 0.32542,-3.494401 0.1414,-1.626241 0.25615,-4.287361 0.255,-5.913602 -0.001,-1.626241 -0.11907,-4.327682 -0.26196,-6.003202 -0.14292,-1.675521 -0.3945,-3.852801 -0.55904,-4.838402 -0.17514,-1.04907 -0.50024,-2.272212 -0.78417,-2.950304 -0.30713,-0.733478 -0.67331,-1.308567 -0.99842,-1.568 -0.37095,-0.296016 -0.73111,-0.409697 -1.29797,-0.409697 -0.57546,0 -1.03501,0.148423 -1.72425,0.556899 -0.51682,0.306293 -1.34939,1.006763 -1.85014,1.556599 -0.50075,0.549836 -1.199445,1.448352 -1.552646,1.996702 -0.353202,0.54835 -1.095357,1.988859 -1.649237,3.201131 -0.65551,1.434711 -1.005763,2.404318 -1.003359,2.7776 0.0021,0.31541 0.07011,0.914804 0.151274,1.331986 0.08117,0.417183 0.219052,1.344544 0.306406,2.060801 0.08736,0.716258 0.224971,2.229647 0.305815,3.363087 0.1019,1.428711 0.09428,2.803972 -0.02487,4.483758 -0.145006,2.04447 -0.13433,2.730291 0.06834,4.390401 0.132106,1.082095 0.343402,3.177045 0.469548,4.655446 0.126145,1.4784 0.295064,3.741264 0.375374,5.028586 0.08031,1.287321 0.223441,4.875803 0.318068,7.974403 0.126769,4.151122 0.12829,6.942074 0.0058,10.604817 -0.09144,2.734049 -0.164994,5.51613 -0.163436,6.182402 l 0.0028,1.211402 0.989891,-2.5984 c 0.544441,-1.429121 1.386472,-3.767682 1.871172,-5.196802 z M 58.584593,67.801983 c 1.124868,-0.133554 1.787443,-0.313399 2.35687,-0.639711 0.729139,-0.417834 0.810163,-0.527714 1.019226,-1.382209 0.124915,-0.510559 0.299105,-1.573411 0.38709,-2.361891 0.08799,-0.78848 0.156293,-2.845231 0.151795,-4.570558 -0.0045,-1.725326 -0.11122,-4.184847 -0.237163,-5.465601 -0.125942,-1.280755 -0.393237,-3.138601 -0.593992,-4.128546 -0.200753,-0.989944 -0.530298,-2.320505 -0.732322,-2.956801 -0.202024,-0.636295 -0.657888,-1.84234 -1.013032,-2.680101 -0.355144,-0.83776 -0.934035,-1.96672 -1.286425,-2.5088 -0.35239,-0.542081 -1.021618,-1.411849 -1.487172,-1.932819 -0.465554,-0.520971 -1.204924,-1.145143 -1.643046,-1.38705 -0.511289,-0.282306 -1.067165,-0.439856 -1.552075,-0.439901 -0.563311,-5.1e-5 -0.956765,0.136838 -1.546751,0.53812 -0.435194,0.296004 -1.066612,0.951321 -1.403151,1.45626 -0.336541,0.504939 -0.885128,1.597038 -1.219086,2.426883 -0.333957,0.829845 -0.836946,2.349491 -1.117754,3.376989 -0.280808,1.027499 -0.715275,2.938222 -0.965483,4.24605 -0.250208,1.307829 -0.557707,3.224592 -0.683328,4.259472 -0.125623,1.03488 -0.271219,2.970241 -0.323549,4.300801 -0.05293,1.345783 -0.02629,3.095056 0.06003,3.942402 0.08534,0.83776 0.270377,1.942411 0.411189,2.454778 0.140814,0.512368 0.467805,1.188908 0.72665,1.503424 0.258843,0.314515 0.758317,0.718347 1.109941,0.897405 0.351622,0.179057 0.929571,0.420183 1.28433,0.535836 0.354758,0.115648 1.222965,0.311934 1.929347,0.436183 0.706381,0.12425 2.076056,0.234743 3.043719,0.245543 0.967664,0.01075 2.463531,-0.06397 3.32415,-0.166158 z m 17.354473,-0.07551 c 0.789486,-0.142557 1.841349,-0.426079 2.337476,-0.630053 0.496125,-0.203975 1.114203,-0.543273 1.373505,-0.753995 0.259301,-0.210722 0.615035,-0.632322 0.790519,-0.936891 0.175485,-0.304568 0.427617,-1.037599 0.560296,-1.62896 0.132677,-0.59136 0.280884,-2.0832 0.329349,-3.315201 0.05036,-1.280265 0.0097,-3.199736 -0.09486,-4.480001 -0.100643,-1.232001 -0.311907,-3.090472 -0.469474,-4.129935 -0.157568,-1.039464 -0.461275,-2.692584 -0.674904,-3.673601 -0.21363,-0.981018 -0.629536,-2.630388 -0.924235,-3.665268 -0.294699,-1.034881 -0.813436,-2.503951 -1.152747,-3.264602 -0.339311,-0.76065 -0.908811,-1.77872 -1.265552,-2.262378 -0.356742,-0.483657 -0.956023,-1.050748 -1.331737,-1.2602 -0.400035,-0.223012 -0.981214,-0.380097 -1.402476,-0.379072 -0.445033,0.0011 -1.024784,0.170385 -1.520264,0.443954 -0.440497,0.243212 -1.213403,0.907705 -1.717568,1.47665 -0.504165,0.568946 -1.208496,1.518287 -1.565181,2.109647 -0.356684,0.59136 -0.918923,1.72032 -1.24942,2.508801 -0.330497,0.78848 -0.818745,2.24 -1.084999,3.225601 -0.266252,0.9856 -0.60962,2.558081 -0.763039,3.494401 -0.153417,0.93632 -0.36013,2.733589 -0.45936,3.993931 -0.106034,1.346687 -0.149057,3.67415 -0.104354,5.644801 0.05071,2.235722 0.16149,3.78349 0.332392,4.644164 0.140982,0.70999 0.392046,1.495516 0.557921,1.745612 0.184774,0.278591 0.623164,0.565592 1.13181,0.74096 0.45662,0.157433 1.285085,0.34915 1.841034,0.426038 0.555948,0.07688 1.928733,0.14992 3.050634,0.162292 1.12344,0.01233 2.684678,-0.09394 3.475247,-0.236695 z m 14.794597,-3.762329 c 0.534318,-0.05438 1.321201,-0.28977 1.753786,-0.524646 0.437167,-0.237367 0.95224,-0.693522 1.163121,-1.030075 0.208169,-0.332227 0.464086,-0.886289 0.568705,-1.23125 0.10462,-0.34496 0.224531,-1.775039 0.266472,-3.177954 0.04499,-1.505042 0.0013,-3.268207 -0.106639,-4.300801 -0.100594,-0.962527 -0.34666,-2.733911 -0.546811,-3.936409 -0.200151,-1.202498 -0.637163,-3.173275 -0.971137,-4.379503 -0.333974,-1.206229 -0.850615,-2.722207 -1.14809,-3.368841 -0.297474,-0.646634 -0.712595,-1.391599 -0.92249,-1.655479 -0.209896,-0.263878 -0.581144,-0.577791 -0.824995,-0.697584 -0.3463,-0.170121 -0.576033,-0.170666 -1.049327,-0.0024 -0.333278,0.11843 -0.881055,0.510072 -1.217283,0.87033 -0.336227,0.360258 -0.866724,1.10144 -1.178881,1.64707 -0.312157,0.545631 -0.806729,1.556536 -1.099047,2.246456 -0.292319,0.68992 -0.703443,1.901062 -0.913609,2.691427 -0.210166,0.790364 -0.481784,2.008114 -0.603594,2.706113 -0.20183,1.15652 -0.195871,1.497961 0.06717,3.849376 0.194647,1.739969 0.290994,3.69928 0.295842,6.01627 l 0.0071,3.435982 0.591488,0.280684 c 0.325319,0.154376 1.050717,0.36098 1.611997,0.459118 0.561279,0.09814 1.360479,0.202092 1.775997,0.231008 0.415519,0.02891 0.925474,0.03395 1.133233,0.01118 0.20776,-0.02275 0.813865,-0.08576 1.3469,-0.139991 z M 41.717572,63.850529 c 0.488774,-0.107162 1.147204,-0.317515 1.463179,-0.467457 l 0.5745,-0.272615 v -3.19929 c 0,-2.157586 0.09916,-4.115195 0.304537,-6.012225 0.167495,-1.547116 0.260874,-3.10252 0.20751,-3.456456 -0.05337,-0.353935 -0.328473,-1.557942 -0.611351,-2.675571 -0.282878,-1.117628 -0.743456,-2.581915 -1.023508,-3.253969 -0.280052,-0.672054 -0.781087,-1.692991 -1.113413,-2.268749 -0.332325,-0.575758 -0.832049,-1.304826 -1.110498,-1.620151 -0.278447,-0.315324 -0.768289,-0.702937 -1.088538,-0.861361 -0.34413,-0.170239 -0.755165,-0.243006 -1.005016,-0.177923 -0.232512,0.06057 -0.693646,0.434615 -1.024744,0.831217 -0.331098,0.396604 -0.786038,1.122134 -1.010978,1.612288 -0.224938,0.490153 -0.645021,1.713318 -0.933516,2.718145 -0.288496,1.004825 -0.689947,2.580623 -0.892112,3.501771 -0.202166,0.92115 -0.510859,2.846952 -0.685985,4.279561 -0.247325,2.023249 -0.305149,3.209567 -0.259017,5.313986 0.05112,2.331718 0.106747,2.833183 0.399204,3.598694 0.186895,0.489199 0.456203,1.0421 0.59846,1.228669 0.142258,0.186569 0.520002,0.497411 0.839431,0.69076 0.319431,0.193349 0.863382,0.417853 1.208782,0.498898 0.345401,0.08104 1.44844,0.156189 2.451198,0.166987 1.002757,0.01075 2.223102,-0.06804 2.711875,-0.175202 z M 112.23887,42.375756 c 0.28088,-1.796015 0.32371,-2.711667 0.3191,-6.823193 -0.004,-3.580843 -0.0649,-5.12343 -0.24743,-6.272002 -0.233,-1.465792 -0.27122,-1.555176 -1.01405,-2.371566 -0.52655,-0.578694 -1.46295,-1.250628 -2.94586,-2.113868 -1.32354,-0.770464 -3.25209,-1.688149 -4.93006,-2.345934 -1.51586,-0.594234 -3.644742,-1.350003 -4.730841,-1.679483 -1.0861,-0.32948 -2.994636,-0.84133 -4.241192,-1.137444 -1.246556,-0.296113 -3.660342,-0.784185 -5.363969,-1.084605 -1.703627,-0.300419 -4.117413,-0.66738 -5.363969,-0.815468 -1.246556,-0.148088 -3.592349,-0.390788 -5.212872,-0.539335 -1.620523,-0.148546 -4.612258,-0.351764 -6.648299,-0.451592 -2.036042,-0.09984 -5.469738,-0.181573 -7.630436,-0.181649 -2.160697,-7.6e-5 -5.560396,0.08053 -7.554886,0.179098 -1.99449,0.09859 -5.054219,0.301595 -6.799397,0.451143 -1.745179,0.149549 -4.192962,0.395159 -5.439518,0.5458 -1.246556,0.150643 -3.218382,0.433514 -4.381834,0.628604 -1.163453,0.195089 -3.101281,0.558627 -4.306285,0.807861 -1.205005,0.249236 -3.210827,0.724208 -4.457383,1.055496 -1.246556,0.331288 -3.398618,1.008508 -4.78236,1.504935 -1.383742,0.496427 -3.151586,1.196821 -3.928541,1.556433 -0.776956,0.35961 -2.252613,1.141917 -3.27924,1.738459 -1.180633,0.686033 -2.142769,1.386942 -2.618107,1.90727 -0.751513,0.822644 -0.751513,0.822644 -0.994484,2.614645 -0.176117,1.298915 -0.242362,3.000058 -0.240753,6.182402 0.0019,3.73689 0.05151,4.710488 0.333349,6.540802 0.182122,1.18272 0.506151,2.832291 0.720067,3.665714 0.258087,1.005516 0.428333,1.427533 0.506038,1.2544 0.0644,-0.143502 0.161315,-0.865713 0.215352,-1.604913 0.05404,-0.7392 0.261459,-2.296884 0.460936,-3.46152 0.227274,-1.326923 0.560115,-2.610568 0.891476,-3.438094 0.290834,-0.726316 0.820698,-1.696158 1.177476,-2.155204 0.356778,-0.459046 1.045982,-1.072484 1.531564,-1.363195 0.561974,-0.336445 1.223124,-0.566247 1.818969,-0.632237 0.626051,-0.06933 1.247519,-0.009 1.876364,0.182017 0.517149,0.157129 1.332959,0.52275 1.81291,0.812492 0.479951,0.289741 1.366741,1.022743 1.970644,1.628896 0.603904,0.60615 1.570626,1.827357 2.148272,2.713791 0.577647,0.886434 1.200966,1.929704 1.385155,2.318376 0.18419,0.388673 0.376704,0.706677 0.427811,0.706677 0.05111,0 0.175462,-0.270718 0.276346,-0.601597 0.100885,-0.330878 0.471512,-1.231175 0.823617,-2.00066 0.352104,-0.769485 0.933597,-1.786541 1.292205,-2.260126 0.397181,-0.524524 1.031409,-1.082574 1.622733,-1.427826 0.887129,-0.517958 1.065188,-0.559418 2.067746,-0.48146 0.797287,0.06199 1.321861,0.221044 1.919912,0.582108 0.452587,0.273241 1.213594,0.938787 1.691124,1.478989 0.477531,0.540203 1.203437,1.558994 1.613124,2.26398 0.409688,0.704986 0.962778,1.795738 1.22909,2.423895 0.266311,0.628157 0.534699,1.071677 0.596419,0.985601 0.06172,-0.08607 0.304731,-0.761304 0.540028,-1.500504 0.235297,-0.7392 0.629566,-1.827841 0.876152,-2.419201 0.246587,-0.59136 0.744446,-1.570416 1.106352,-2.175679 0.361907,-0.605262 0.975635,-1.432058 1.363839,-1.837324 0.388205,-0.405265 1.169844,-1.012159 1.736979,-1.348655 0.679461,-0.403142 1.359424,-0.653503 1.993639,-0.734053 0.684906,-0.08699 1.237296,-0.03875 1.915361,0.167273 0.524081,0.159236 1.282618,0.502366 1.685639,0.762515 0.403021,0.260148 1.170619,0.90133 1.705776,1.424851 0.535155,0.523521 1.427725,1.619749 1.983488,2.436064 0.662644,0.973305 1.311975,2.224432 1.886351,3.634609 0.481729,1.18272 0.960181,2.493122 1.063224,2.912001 0.103048,0.418879 0.23382,0.7616 0.290615,0.7616 0.0568,0 0.186608,-0.342721 0.288474,-0.7616 0.101864,-0.418879 0.588636,-1.731507 1.081713,-2.91695 0.528663,-1.271001 1.296772,-2.755695 1.87205,-3.618525 0.536553,-0.804747 1.437423,-1.915689 2.001933,-2.468759 0.564512,-0.55307 1.442651,-1.249128 1.95142,-1.546793 0.508769,-0.297664 1.403947,-0.629126 1.989284,-0.736577 0.879694,-0.161489 1.236969,-0.144818 2.060257,0.09614 0.547804,0.160327 1.286606,0.49348 1.641781,0.740339 0.355175,0.246859 0.937542,0.745028 1.29415,1.107042 0.356607,0.362014 0.98886,1.19125 1.405007,1.842747 0.416146,0.651497 0.992994,1.766897 1.281884,2.478665 0.28889,0.71177 0.679368,1.835965 0.867728,2.498213 0.188361,0.662247 0.405524,1.22868 0.482584,1.258738 0.07706,0.03006 0.263924,-0.302421 0.415254,-0.738845 0.151329,-0.436425 0.672843,-1.509452 1.158916,-2.384505 0.486074,-0.875052 1.320084,-2.075065 1.853355,-2.666693 0.533271,-0.59163 1.303644,-1.263851 1.71194,-1.493824 0.475758,-0.267973 1.129713,-0.448885 1.820968,-0.503758 0.925045,-0.07343 1.196532,-0.02159 1.906855,0.364086 0.455534,0.247338 1.109289,0.750837 1.452789,1.118887 0.343501,0.368049 0.926613,1.24419 1.295807,1.946978 0.369192,0.70279 0.852929,1.761639 1.074969,2.352999 0.355157,0.945889 0.424285,1.035568 0.574782,0.745664 0.09409,-0.181244 0.511043,-0.945587 0.926562,-1.698538 0.415518,-0.752953 1.350687,-2.059485 2.078154,-2.903407 0.727466,-0.84392 1.683998,-1.794119 2.125618,-2.111551 0.44163,-0.317433 1.20631,-0.751769 1.69929,-0.965191 0.64087,-0.277444 1.26238,-0.391765 2.18067,-0.40111 1.11325,-0.01132 1.39885,0.05363 2.14409,0.487657 0.51503,0.299956 1.1647,0.89645 1.62031,1.487663 0.4183,0.542814 0.96764,1.501574 1.22076,2.13058 0.25312,0.629003 0.58983,1.894916 0.74824,2.813138 0.15842,0.918223 0.35922,2.274295 0.44624,3.013496 0.087,0.7392 0.20422,1.7472 0.26044,2.24 0.10227,0.896001 0.10227,0.896001 0.54004,-0.703209 0.24079,-0.879566 0.58378,-2.532686 0.76221,-3.673602 z"
       id="path2" />
    <path
       style="fill:#000000;stroke-width:1.3164"
       d="m 32.390242,112.73304 c -0.636628,-1.20189 -1.642264,-3.18555 -2.234748,-4.40813 -0.592484,-1.22258 -1.738751,-3.80306 -2.54726,-5.7344 -0.80851,-1.93134 -1.797367,-4.398566 -2.19746,-5.482726 -0.400094,-1.084161 -1.059233,-2.953698 -1.464752,-4.154527 -0.405521,-1.20083 -0.979711,-2.974911 -1.275978,-3.942402 -0.296268,-0.967491 -0.837156,-2.847715 -1.201974,-4.178276 -0.364819,-1.33056 -1.00986,-3.870721 -1.433426,-5.644801 -0.423564,-1.774081 -1.074271,-5.020458 -1.446015,-7.214171 -0.371744,-2.193712 -0.80869,-5.056433 -0.970991,-6.361602 -0.162301,-1.305168 -0.394123,-3.542313 -0.515162,-4.971434 -0.121039,-1.42912 -0.266326,-3.501126 -0.32286,-4.604456 l -0.10279,-2.006058 -0.670285,-1.219544 c -0.368656,-0.67075 -0.935532,-1.864665 -1.259725,-2.653145 -0.324191,-0.788481 -0.758913,-2.038401 -0.966046,-2.777601 -0.207133,-0.7392 -0.516141,-2.158109 -0.686686,-3.153131 -0.170543,-0.995022 -0.38754,-2.648143 -0.482213,-3.673602 l -0.172135,-1.86447 0.08321,-4.300802 0.08321,-4.300801 0.248121,-1.612801 c 0.140773,-0.915027 0.406772,-1.935808 0.614819,-2.359385 0.201684,-0.410622 0.656145,-1.085092 1.009913,-1.498822 0.35377,-0.413731 1.044776,-1.077146 1.53557,-1.474255 0.490796,-0.397108 1.581699,-1.107654 2.424229,-1.57899 0.842531,-0.471335 2.259656,-1.185199 3.149166,-1.586365 0.889509,-0.401166 2.620357,-1.083775 3.846326,-1.516911 1.22597,-0.433136 3.282943,-1.075968 4.571051,-1.428516 1.288108,-0.352547 3.463915,-0.882046 4.835127,-1.176662 1.371212,-0.294618 3.275043,-0.663745 4.230736,-0.820285 0.955693,-0.15654 2.757534,-0.437501 4.00409,-0.62436 1.246556,-0.186857 3.116391,-0.422076 4.155187,-0.522708 1.038797,-0.100639 3.214604,-0.286015 4.835128,-0.411962 l 2.946405,-0.228998 9.141412,-0.0019 9.141413,-0.0019 4.004091,0.320208 c 2.202249,0.176145 5.431963,0.519806 7.177141,0.763689 1.745179,0.243882 4.294953,0.649555 5.666165,0.901495 1.371212,0.251938 3.513022,0.699826 4.759578,0.995306 1.246557,0.295479 3.35373,0.860277 4.682607,1.255107 1.328869,0.394829 3.164709,1.004201 4.079639,1.35416 0.91492,0.349959 2.44542,0.993517 3.40112,1.430129 0.9557,0.436611 2.44282,1.235958 3.30473,1.776328 0.86191,0.540368 1.96579,1.346306 2.45303,1.790973 0.48726,0.444665 1.04891,1.066799 1.24813,1.382517 0.19922,0.315719 0.47137,0.830122 0.60478,1.143117 0.1334,0.312996 0.3454,1.280677 0.47108,2.150401 0.12571,0.869725 0.29068,2.831237 0.36664,4.358918 0.0812,1.633307 0.0834,3.884981 0.006,5.465602 -0.0729,1.4784 -0.24343,3.494401 -0.37888,4.480001 -0.13544,0.985601 -0.41495,2.498542 -0.62112,3.362093 -0.20618,0.863552 -0.54714,2.073153 -0.7577,2.688001 -0.21055,0.61485 -0.51945,1.440469 -0.6864,1.834709 -0.16697,0.39424 -0.62538,1.28128 -1.01869,1.971201 l -0.71511,1.2544 -0.10419,2.150401 c -0.0573,1.18272 -0.17143,2.997121 -0.25365,4.032001 -0.0822,1.03488 -0.28827,3.090851 -0.45789,4.568823 -0.16963,1.477973 -0.5455,4.098774 -0.83528,5.824002 -0.28978,1.725229 -0.79789,4.42702 -1.12916,6.003981 -0.33125,1.57696 -0.80847,3.673601 -1.06048,4.659201 -0.25201,0.985601 -0.69492,2.679041 -0.98425,3.763202 -0.28933,1.08416 -0.73503,2.65664 -0.99044,3.494401 -0.25541,0.83776 -0.99304,3.095681 -1.63918,5.017601 -0.64614,1.921921 -1.71757,4.865282 -2.38097,6.540803 -0.6634,1.675528 -1.787314,4.317878 -2.497591,5.871898 -0.710278,1.55402 -1.877153,3.97322 -2.593054,5.376 -0.716434,1.40278 -1.433259,2.75211 -1.593479,2.99851 l -0.291306,0.448 -0.0023,-0.5376 c -0.0013,-0.29568 0.129688,-2.35659 0.291072,-4.5798 0.161383,-2.22321 0.414326,-6.17457 0.562095,-8.7808 l 0.268668,-4.73861 -0.0029,-9.587203 -0.0029,-9.587203 -0.25702,-3.404801 c -0.141381,-1.872641 -0.337218,-4.271681 -0.435214,-5.331202 -0.098,-1.059521 -0.237144,-1.926401 -0.309217,-1.926401 -0.07207,0 -0.386249,0.15441 -0.698164,0.343134 -0.311916,0.188723 -0.972149,0.474652 -1.467184,0.635397 -0.495034,0.160744 -1.71599,0.339635 -2.713235,0.397535 -1.054245,0.06122 -2.34717,0.01993 -3.088958,-0.09863 -0.701682,-0.11215 -1.748454,-0.384446 -2.326161,-0.605114 l -1.050376,-0.401216 -0.166952,0.332237 c -0.09182,0.182731 -0.346866,0.633621 -0.566764,1.001981 -0.219897,0.368358 -0.815826,0.999215 -1.324289,1.401903 -0.508463,0.402689 -1.286741,0.89291 -1.729507,1.08938 -0.442766,0.196471 -1.342703,0.48909 -1.999859,0.650266 -0.657158,0.161175 -1.976762,0.376519 -2.932455,0.478544 -0.955694,0.102029 -2.513198,0.133282 -3.46112,0.06946 -0.947923,-0.06382 -2.307802,-0.236607 -3.021954,-0.383964 -0.714153,-0.147354 -1.64659,-0.456612 -2.072081,-0.687235 -0.425492,-0.230623 -1.053543,-0.719242 -1.395668,-1.085819 l -0.622046,-0.666503 -0.772082,0.823276 -0.772082,0.823275 -0.98105,0.359372 c -0.539577,0.197655 -1.399927,0.437308 -1.911888,0.532564 -0.511961,0.09526 -1.71277,0.22513 -2.668463,0.288611 -0.98255,0.06526 -2.52229,0.02678 -3.543347,-0.08858 -0.993148,-0.112208 -2.312752,-0.328212 -2.932455,-0.480021 -0.619702,-0.15181 -1.492623,-0.438377 -1.939823,-0.636816 C 48.03788,70.0903 47.250057,69.592188 46.734362,69.181824 l -0.93763,-0.746117 -0.529696,-0.943374 -0.529697,-0.943373 -0.302195,0.0853 c -0.166208,0.04691 -0.812151,0.261037 -1.435429,0.475833 l -1.133233,0.39054 -2.568661,0.01954 -2.568661,0.01954 -0.831038,-0.24393 c -0.45707,-0.134156 -1.223415,-0.448325 -1.702988,-0.698143 -0.479574,-0.249818 -0.895911,-0.422289 -0.925193,-0.38327 -0.02929,0.03902 -0.164613,1.401503 -0.300734,3.027744 -0.136121,1.62624 -0.315559,4.085761 -0.398751,5.465602 -0.08319,1.37984 -0.193473,5.492482 -0.245068,9.139203 l -0.09381,6.630402 0.176151,4.659202 c 0.09688,2.562561 0.309912,6.836477 0.473399,9.497597 0.163488,2.66112 0.395165,6.04611 0.514842,7.5222 0.119669,1.47609 0.202774,2.70138 0.184663,2.72286 -0.01811,0.0215 -0.553807,-0.94431 -1.190435,-2.1462 z M 29.517111,96.390983 c -0.06851,-1.57696 -0.129617,-5.729922 -0.13579,-9.228803 -0.0062,-3.498881 0.06582,-7.934082 0.159981,-9.856003 0.09416,-1.921921 0.270763,-4.865282 0.392448,-6.540802 0.121684,-1.675521 0.365432,-4.376962 0.54166,-6.003202 l 0.320415,-2.956801 -0.161026,-2.420126 -0.161026,-2.420127 0.150272,-2.328674 c 0.08264,-1.280772 0.304547,-3.318211 0.493105,-4.527641 l 0.342832,-2.198963 -0.772598,-1.84455 C 30.262456,45.05079 29.596619,43.653139 29.20775,42.959402 28.818878,42.265664 28.000688,41.134748 27.389548,40.446254 26.750685,39.726529 25.872055,38.953638 25.32243,38.627905 l -0.955955,-0.566541 -0.769129,6.69e-4 -0.76913,6.71e-4 -0.479149,0.3465 c -0.263532,0.190574 -0.6573,0.707032 -0.875042,1.147682 -0.217741,0.440651 -0.559817,1.594824 -0.760168,2.564831 -0.200351,0.970007 -0.484408,2.932929 -0.631236,4.362049 l -0.266962,2.598401 -0.0031,4.838402 -0.0031,4.838402 0.271894,2.5088 c 0.149542,1.379841 0.434725,3.718402 0.63374,5.196802 0.199015,1.478401 0.567183,3.857282 0.818152,5.286402 0.250968,1.429121 0.734237,3.808001 1.07393,5.286402 0.339692,1.4784 0.823416,3.494401 1.074941,4.480001 0.251525,0.985601 0.799632,2.961281 1.218014,4.390402 0.418384,1.42912 1.157914,3.786183 1.643403,5.237917 0.485488,1.451734 1.266525,3.669335 1.735639,4.928002 0.469114,1.258667 0.952439,2.517739 1.074055,2.797938 0.121615,0.2802 0.236268,0.4818 0.254784,0.448 0.01852,-0.0338 -0.02239,-1.351693 -0.0909,-2.928654 z m 71.802239,-4.748801 c 0.4847,-1.429121 1.19591,-3.631925 1.58046,-4.895122 0.38455,-1.263196 1.04034,-3.642077 1.4573,-5.286402 0.41697,-1.644324 1.05592,-4.400881 1.41989,-6.125682 0.36397,-1.7248 0.80091,-3.982721 0.97099,-5.017601 0.17007,-1.034881 0.44835,-2.929921 0.6184,-4.211202 0.17005,-1.28128 0.33993,-2.571521 0.37753,-2.867201 0.0376,-0.29568 0.18403,-1.86816 0.32542,-3.494401 0.1414,-1.626241 0.25615,-4.287361 0.255,-5.913602 -0.001,-1.626241 -0.11907,-4.327682 -0.26196,-6.003202 -0.14292,-1.675521 -0.3945,-3.852801 -0.55904,-4.838402 -0.17514,-1.04907 -0.50024,-2.272212 -0.78417,-2.950304 l -0.48501,-1.158304 -0.51341,-0.409696 -0.51342,-0.409697 h -0.78455 -0.78456 l -0.93969,0.556899 c -0.51682,0.306293 -1.34939,1.006763 -1.85014,1.556599 -0.50075,0.549836 -1.199445,1.448352 -1.552646,1.996702 -0.353202,0.54835 -1.095357,1.988859 -1.649237,3.201131 l -1.007053,2.20413 0.0037,0.57347 c 0.0021,0.31541 0.07011,0.914804 0.151275,1.331986 0.08117,0.417183 0.219051,1.344544 0.306405,2.060801 0.08736,0.716258 0.224971,2.229647 0.305815,3.363087 l 0.146989,2.060801 -0.171849,2.422957 -0.17185,2.422958 0.240192,1.967443 c 0.132105,1.082095 0.343402,3.177045 0.469548,4.655446 0.126145,1.4784 0.295063,3.741264 0.375374,5.028586 0.08031,1.287321 0.22344,4.875803 0.318068,7.974403 l 0.171995,5.633817 -0.166268,4.971 c -0.09144,2.734049 -0.164994,5.51613 -0.163436,6.182402 l 0.0028,1.211402 0.989892,-2.5984 c 0.54444,-1.429121 1.386466,-3.767682 1.871166,-5.196802 z m -42.734757,-23.840199 1.564761,-0.185791 0.792109,-0.45392 0.792108,-0.453919 0.227118,-0.92829 c 0.124915,-0.510559 0.299105,-1.573411 0.38709,-2.361891 0.08799,-0.78848 0.156293,-2.845231 0.151795,-4.570558 -0.0045,-1.725326 -0.11122,-4.184847 -0.237163,-5.465601 -0.125942,-1.280755 -0.393237,-3.138601 -0.593992,-4.128546 -0.200753,-0.989944 -0.530298,-2.320505 -0.732322,-2.956801 -0.202024,-0.636295 -0.657888,-1.84234 -1.013032,-2.680101 -0.355144,-0.83776 -0.934035,-1.96672 -1.286425,-2.5088 -0.35239,-0.542081 -1.021618,-1.411849 -1.487172,-1.932819 -0.465554,-0.520971 -1.204924,-1.145143 -1.643046,-1.38705 l -0.796586,-0.439832 -0.755489,-6.9e-5 -0.755488,-6.8e-5 -0.791263,0.538188 c -0.435194,0.296004 -1.066612,0.951321 -1.403151,1.45626 -0.336541,0.504939 -0.885128,1.597038 -1.219086,2.426883 -0.333957,0.829845 -0.836946,2.349491 -1.117754,3.376989 -0.280808,1.027499 -0.715275,2.938222 -0.965483,4.24605 -0.250208,1.307829 -0.557707,3.224592 -0.683328,4.259472 -0.125623,1.03488 -0.271219,2.970241 -0.323549,4.300801 -0.05293,1.345783 -0.02629,3.095056 0.06003,3.942402 0.08534,0.83776 0.270377,1.942411 0.411189,2.454778 0.140814,0.512368 0.467805,1.188908 0.72665,1.503424 0.258843,0.314515 0.758317,0.718347 1.109941,0.897405 0.351622,0.179057 0.929571,0.420183 1.28433,0.535836 0.354758,0.115648 1.222965,0.311934 1.929347,0.436183 0.706381,0.12425 2.076056,0.234743 3.043719,0.245543 0.967664,0.01075 2.463531,-0.06397 3.32415,-0.166158 z m 17.354473,-0.07551 c 0.789486,-0.142557 1.841349,-0.426079 2.337476,-0.630053 0.496125,-0.203975 1.114203,-0.543273 1.373505,-0.753995 0.259301,-0.210722 0.615035,-0.632322 0.790519,-0.936891 0.175485,-0.304568 0.427617,-1.037599 0.560296,-1.62896 0.132677,-0.59136 0.280884,-2.0832 0.329349,-3.315201 0.05036,-1.280265 0.0097,-3.199736 -0.09486,-4.480001 -0.100643,-1.232001 -0.311907,-3.090472 -0.469474,-4.129935 -0.157568,-1.039464 -0.461275,-2.692584 -0.674904,-3.673601 -0.21363,-0.981018 -0.629536,-2.630388 -0.924235,-3.665268 -0.294699,-1.034881 -0.813436,-2.503951 -1.152747,-3.264602 -0.339311,-0.76065 -0.908811,-1.77872 -1.265552,-2.262378 -0.356742,-0.483657 -0.956023,-1.050748 -1.331737,-1.2602 -0.400035,-0.223012 -0.981214,-0.380097 -1.402476,-0.379072 l -0.71936,0.0017 -0.800904,0.442204 c -0.440497,0.243212 -1.213403,0.907704 -1.717568,1.47665 -0.504165,0.568946 -1.208496,1.518286 -1.565181,2.109647 -0.356684,0.59136 -0.918923,1.72032 -1.24942,2.5088 -0.330497,0.788481 -0.818745,2.240001 -1.084999,3.225602 -0.266252,0.9856 -0.60962,2.55808 -0.763039,3.494401 -0.153417,0.93632 -0.36013,2.733589 -0.45936,3.99393 -0.106034,1.346687 -0.149057,3.674151 -0.104354,5.644802 l 0.07606,3.353272 0.25633,1.290891 c 0.140982,0.709991 0.392046,1.495517 0.557921,1.745613 l 0.301591,0.454722 0.830219,0.286238 c 0.45662,0.157433 1.285085,0.349149 1.841034,0.426038 0.555948,0.07688 1.928733,0.14992 3.050634,0.162292 1.123441,0.01233 2.684678,-0.09394 3.475248,-0.236695 z m 14.794597,-3.762329 c 0.534318,-0.05438 1.321201,-0.28977 1.753786,-0.524646 0.437167,-0.237367 0.95224,-0.693522 1.163121,-1.030075 0.208169,-0.332227 0.464086,-0.886289 0.568705,-1.23125 0.10462,-0.34496 0.224531,-1.775039 0.266472,-3.177954 0.04499,-1.505042 0.0013,-3.268207 -0.106639,-4.300801 -0.100594,-0.962527 -0.34666,-2.733911 -0.546811,-3.936409 -0.200151,-1.2025 -0.637163,-3.173277 -0.971137,-4.379505 -0.333974,-1.206229 -0.850615,-2.722207 -1.14809,-3.368841 -0.297474,-0.646634 -0.712595,-1.391599 -0.92249,-1.655479 -0.209896,-0.263878 -0.581144,-0.577791 -0.824995,-0.697584 l -0.443368,-0.217805 -0.605959,0.215315 c -0.333278,0.11843 -0.881055,0.510072 -1.217283,0.87033 -0.336227,0.360258 -0.866724,1.10144 -1.178881,1.647069 -0.312157,0.545632 -0.806729,1.556537 -1.099047,2.246457 -0.292319,0.68992 -0.703443,1.901062 -0.913609,2.691427 -0.210166,0.790364 -0.481784,2.008114 -0.603594,2.706113 l -0.221475,1.269089 0.288652,2.580287 0.288652,2.580288 0.0071,3.435982 0.0071,3.435982 0.591488,0.280684 c 0.325318,0.154376 1.050717,0.36098 1.611996,0.459118 0.56128,0.09814 1.36048,0.202092 1.775998,0.231008 0.415519,0.02891 0.925474,0.03395 1.133233,0.01118 0.20776,-0.02275 0.813865,-0.08576 1.3469,-0.139991 z M 41.717572,63.850529 c 0.488774,-0.107162 1.147204,-0.317515 1.463179,-0.467457 l 0.5745,-0.272615 v -3.19929 -3.19929 l 0.304537,-2.812935 c 0.167495,-1.547116 0.260874,-3.10252 0.20751,-3.456456 -0.05337,-0.353935 -0.328473,-1.557942 -0.611351,-2.675571 -0.282878,-1.117628 -0.743456,-2.581915 -1.023508,-3.253969 -0.280052,-0.672054 -0.781087,-1.692991 -1.113413,-2.268749 -0.332325,-0.575758 -0.832049,-1.304826 -1.110498,-1.620151 -0.278447,-0.315324 -0.768289,-0.702937 -1.088538,-0.861361 -0.34413,-0.170239 -0.755165,-0.243006 -1.005016,-0.177923 -0.232512,0.06057 -0.693646,0.434615 -1.024744,0.831217 -0.331098,0.396604 -0.786038,1.122134 -1.010978,1.612288 -0.224938,0.490153 -0.645021,1.713318 -0.933516,2.718145 -0.288496,1.004825 -0.689947,2.580623 -0.892112,3.501771 -0.202166,0.92115 -0.510859,2.846952 -0.685985,4.279561 l -0.318408,2.604744 0.05939,2.709242 0.05939,2.709241 0.339812,0.889453 c 0.186896,0.489199 0.456204,1.0421 0.598461,1.228669 0.142258,0.186569 0.520002,0.497411 0.839431,0.69076 0.31943,0.193349 0.863382,0.417853 1.208782,0.498898 0.345401,0.08104 1.44844,0.156189 2.451198,0.166987 1.002757,0.01075 2.223102,-0.06804 2.711875,-0.175202 z m 70.521298,-21.474781 0.32442,-2.074391 -0.005,-4.748801 -0.005,-4.748802 -0.24212,-1.523201 -0.24212,-1.5232 -0.77192,-0.848365 -0.77192,-0.848363 -2.17395,-1.265505 -2.17394,-1.265507 -2.75611,-1.080427 c -1.51683,-0.594227 -3.645712,-1.349996 -4.731811,-1.679476 -1.0861,-0.32948 -2.994636,-0.84133 -4.241192,-1.137444 -1.246556,-0.296113 -3.660342,-0.784185 -5.363969,-1.084605 -1.703627,-0.300419 -4.117413,-0.66738 -5.363969,-0.815468 -1.246556,-0.148088 -3.592349,-0.390788 -5.212872,-0.539335 -1.620523,-0.148546 -4.612258,-0.351764 -6.648299,-0.451592 -2.036042,-0.09984 -5.469738,-0.181573 -7.630436,-0.181649 -2.160697,-7.6e-5 -5.560396,0.08053 -7.554886,0.179098 -1.99449,0.09859 -5.054219,0.301595 -6.799397,0.451143 -1.745179,0.149549 -4.192962,0.395159 -5.439518,0.5458 -1.246556,0.150643 -3.218382,0.433514 -4.381834,0.628604 -1.163453,0.195089 -3.101281,0.558627 -4.306285,0.807861 -1.205005,0.249236 -3.210827,0.724208 -4.457383,1.055496 -1.246556,0.331288 -3.398618,1.008508 -4.78236,1.504935 -1.383742,0.496427 -3.151586,1.196821 -3.928541,1.556433 -0.776956,0.35961 -2.252613,1.141917 -3.27924,1.738459 l -1.866594,1.084625 -0.751513,0.822645 -0.751513,0.822644 -0.242971,1.792001 -0.242972,1.792 0.0022,4.390402 0.0022,4.390401 0.331129,2.150401 c 0.182121,1.18272 0.506151,2.832291 0.720067,3.665714 l 0.388936,1.515312 0.117107,-0.260912 c 0.0644,-0.143502 0.161314,-0.865713 0.215352,-1.604913 0.05404,-0.7392 0.261459,-2.296884 0.460936,-3.46152 l 0.362685,-2.11752 0.52879,-1.320574 c 0.290834,-0.726316 0.820699,-1.696158 1.177477,-2.155204 0.356778,-0.459046 1.045982,-1.072484 1.531564,-1.363195 l 0.882877,-0.528566 0.936092,-0.103664 0.936092,-0.103678 0.940272,0.285688 c 0.517148,0.157129 1.332959,0.52275 1.812909,0.812492 0.479952,0.289741 1.366742,1.022743 1.970644,1.628896 0.603904,0.60615 1.570626,1.827357 2.148273,2.713791 0.577646,0.886434 1.200966,1.929704 1.385155,2.318376 0.184189,0.388673 0.376703,0.706677 0.427811,0.706677 0.05111,0 0.175462,-0.270718 0.276345,-0.601597 0.100885,-0.330878 0.471512,-1.231175 0.823617,-2.00066 0.352105,-0.769485 0.933598,-1.786541 1.292206,-2.260126 l 0.652013,-0.861062 0.97072,-0.566764 0.97072,-0.566764 1.097026,0.0853 1.097025,0.0853 0.822886,0.496804 c 0.452588,0.273242 1.213594,0.938788 1.691125,1.47899 0.47753,0.540202 1.203436,1.558993 1.613124,2.263979 0.409687,0.704986 0.962778,1.795738 1.229089,2.423896 0.266312,0.628156 0.5347,1.071676 0.596419,0.9856 0.06172,-0.08607 0.304732,-0.761303 0.540028,-1.500504 0.235298,-0.7392 0.629566,-1.82784 0.876153,-2.4192 0.246587,-0.591361 0.744445,-1.570417 1.106352,-2.17568 0.361907,-0.605262 0.975634,-1.432058 1.363838,-1.837324 0.388205,-0.405264 1.169845,-1.012159 1.73698,-1.348655 l 1.031152,-0.611809 0.962487,-0.122243 0.962486,-0.122243 0.952875,0.289517 c 0.52408,0.159235 1.282617,0.502366 1.685638,0.762515 0.403022,0.260148 1.17062,0.90133 1.705777,1.424851 0.535155,0.523521 1.427724,1.619749 1.983487,2.436064 l 1.010478,1.484208 0.875873,2.150401 c 0.48173,1.18272 0.960182,2.493121 1.063224,2.912001 0.103049,0.418879 0.233821,0.7616 0.290615,0.7616 0.0568,0 0.186609,-0.342721 0.288475,-0.7616 0.101864,-0.41888 0.588636,-1.731507 1.081712,-2.91695 0.528663,-1.271001 1.296773,-2.755695 1.87205,-3.618525 0.536553,-0.804747 1.437423,-1.915689 2.001934,-2.468759 0.564512,-0.55307 1.442651,-1.249128 1.95142,-1.546793 0.508769,-0.297665 1.403947,-0.629126 1.989283,-0.736577 l 1.064249,-0.19537 0.996009,0.291504 c 0.547804,0.160327 1.286605,0.49348 1.641781,0.740339 0.355175,0.246859 0.937542,0.745028 1.294149,1.107042 0.356608,0.362014 0.988861,1.19125 1.405007,1.842747 0.416146,0.651497 0.992995,1.766897 1.281884,2.478665 0.288891,0.71177 0.679368,1.835965 0.867729,2.498212 0.188361,0.662248 0.405523,1.228681 0.482583,1.258739 0.07706,0.03006 0.263924,-0.302421 0.415254,-0.738845 0.15133,-0.436425 0.672843,-1.509452 1.158916,-2.384505 0.486074,-0.875052 1.320084,-2.075065 1.853355,-2.666693 0.533271,-0.59163 1.303645,-1.263851 1.711941,-1.493824 l 0.742356,-0.418136 1.078612,-0.08563 1.078612,-0.08561 0.828243,0.449706 c 0.455534,0.247337 1.109289,0.750836 1.452788,1.118886 0.343501,0.36805 0.926614,1.24419 1.295807,1.946979 0.369192,0.702789 0.85293,1.761638 1.07497,2.352998 l 0.40371,1.075201 0.171072,-0.329536 c 0.09409,-0.181245 0.511042,-0.945587 0.926561,-1.698539 0.415519,-0.752953 1.350688,-2.059484 2.078155,-2.903406 0.727465,-0.843921 1.683992,-1.79412 2.125622,-2.111552 0.44162,-0.317432 1.2063,-0.751769 1.69929,-0.96519 l 0.89633,-0.38804 1.28433,-0.01305 1.28433,-0.01304 0.85976,0.500726 0.85976,0.500728 0.76055,0.986935 c 0.4183,0.542814 0.96764,1.501575 1.22076,2.13058 0.25312,0.629004 0.58984,1.894916 0.74825,2.813138 0.15841,0.918223 0.35922,2.274296 0.44624,3.013496 0.087,0.7392 0.20422,1.747201 0.26044,2.240001 l 0.10226,0.896 0.4378,-1.59921 c 0.24079,-0.879566 0.58378,-2.532686 0.76221,-3.673601 z"
       id="path1" />
    <path
       style="fill:#ffffff;stroke-width:0.232709"
       d="m 59.365227,12.653711 c -11.509383,-0.111491 -23.081043,1.453205 -34.168645,5.173478 -4.097916,1.619482 -8.644304,3.031731 -11.598225,7.031118 -1.872789,2.346248 -1.336311,5.850447 -1.628999,8.78515 -0.379613,6.745962 0.412084,13.820471 3.548821,19.606613 1.041643,2.778385 0.657229,5.94071 1.125182,8.895194 1.911887,18.488902 7.376633,36.490246 15.90864,52.132736 0.233183,0.94104 1.584985,1.3313 1.565072,0.0386 -0.493887,-8.87347 -1.295032,-17.685676 -1.111168,-26.587581 -0.01762,-6.863664 0.09864,-13.672631 0.720527,-20.474145 3.398733,1.350668 7.206226,1.415278 10.633304,0.156413 1.719844,2.679828 4.425898,4.126106 7.20726,4.436955 3.547748,0.523687 7.333655,0.716809 10.727209,-0.809282 0.645523,-0.30264 1.180996,-0.898097 1.717822,-1.351778 2.968843,2.727414 7.001561,2.605665 10.56506,2.414733 3.27612,-0.23072 7.028486,-1.184841 8.947838,-4.669342 3.492338,1.030459 7.361625,1.299222 10.741816,-0.167797 1.085913,11.016595 0.789987,22.158766 0.489797,33.228864 -0.142452,4.66964 -0.623817,9.33092 -0.863744,13.99917 0.422987,1.32647 1.577233,0.14486 1.855967,-0.66822 9.292949,-17.674995 15.174359,-38.020598 16.206639,-58.865882 0.49899,-2.272232 1.96454,-4.084014 2.49618,-6.37775 1.95824,-5.82329 1.72612,-12.200459 1.49161,-18.338821 -0.0545,-2.934311 -1.10984,-5.934041 -3.34049,-7.427593 C 106.59194,18.238366 99.41815,16.576283 92.508867,15.003877 86.141326,13.659686 79.700774,12.772693 73.225631,12.80219 68.606231,12.6869 63.985614,12.641593 59.365227,12.653711 Z m 5.993181,4.758689 c 10.499992,-0.0043 21.067499,0.879392 31.324758,3.570636 4.811864,1.428541 9.729234,3.02745 13.919164,6.233332 1.69456,1.529557 1.08201,4.440712 1.28628,6.61138 -0.0492,3.470752 0.26483,7.036424 -0.64022,10.400413 -0.43823,-3.487576 -1.1405,-7.421893 -3.83672,-9.461941 -1.66195,-1.264791 -3.90582,-1.03719 -5.68726,-0.261841 -2.633725,1.456786 -4.675809,4.104732 -6.314957,6.891536 -1.210104,-2.788322 -3.019515,-6.147188 -6.040343,-5.951579 -3.381122,0.09317 -5.586124,3.733884 -7.05075,6.927669 -1.296197,-4.083748 -3.752287,-8.634151 -7.712673,-9.245142 -4.231429,-0.271579 -7.508338,3.946634 -9.377833,8.009478 -0.450199,0.881807 -0.847458,2.150597 -1.241285,2.837896 -1.216142,-3.177426 -2.668296,-6.326962 -5.046624,-8.494758 -2.293225,-2.427503 -6.017896,-3.241355 -8.584523,-0.927582 -2.398268,1.662844 -3.525926,4.933155 -4.650977,7.78843 -1.56258,-3.245469 -3.897988,-7.067202 -7.41802,-6.932125 -2.858594,0.15037 -4.575476,3.329719 -5.644693,6.105517 -1.889391,-3.286117 -4.415542,-6.492679 -7.754408,-7.552328 -2.735579,-0.717242 -5.626461,1.139047 -6.708524,4.181549 -0.845164,1.881341 -1.121416,4.424505 -1.449047,6.185701 -0.871924,-4.803546 -0.699658,-9.720716 -0.436968,-14.62354 -0.03843,-1.687062 1.134815,-2.699994 2.295438,-3.336625 9.769081,-5.955894 20.79005,-7.345457 31.584339,-8.481187 5.052656,-0.431984 10.115743,-0.435733 15.185846,-0.474889 z M 54.120359,38.134525 c 2.259131,0.353993 3.611297,2.940784 4.815411,4.974003 3.197946,6.401968 3.024716,14.152241 2.605114,21.304709 0.09365,1.766831 -1.377926,2.682055 -2.69693,2.550608 -3.286011,-0.07134 -6.846279,0.717036 -9.889584,-1.145373 -1.891276,-1.536082 -1.430031,-4.702609 -1.554526,-7.056848 0.08935,-5.981378 1.110264,-12.050959 3.336204,-17.487969 0.702395,-1.492149 1.760907,-3.253943 3.384311,-3.13913 z m 20.057123,0.01391 c 2.456049,0.577501 3.412583,3.772992 4.258245,6.217877 1.615474,5.720852 2.644616,11.86117 2.116396,17.924525 -0.09571,2.014497 -1.145825,3.970147 -2.943587,4.258271 -2.871558,0.725232 -5.874709,0.603907 -8.789861,0.410828 -0.917327,-0.197096 -2.053308,-0.403603 -2.209046,-1.732908 -0.586463,-3.614767 -0.399762,-7.357557 -0.246653,-11.030516 0.438869,-5.390227 1.750114,-11.152841 5.307886,-14.827962 0.714382,-0.661184 1.568201,-1.275333 2.50662,-1.220115 z m -50.572683,0.754342 c 2.008623,0.119247 3.48366,2.183632 4.675601,3.905846 0.976732,1.671935 1.979878,3.512658 2.494686,5.393527 -1.25147,6.685641 -0.331523,13.585553 -1.277813,20.281055 -0.791545,9.051731 -0.598146,18.165436 -0.648857,27.250612 C 24.294777,83.41914 21.106506,70.247654 20.489251,56.803221 20.407187,51.35417 20.357298,45.572232 21.87863,40.472337 c 0.312821,-0.898296 0.776694,-1.813905 1.726169,-1.569565 z m 80.748521,0 c 1.6363,-0.246298 1.99676,2.16964 2.36012,3.585599 2.17951,12.37221 0.26752,25.090678 -2.54126,37.033034 -1.32999,5.540691 -3.08473,10.920544 -4.983602,16.217852 0.01324,-10.226312 0.187779,-20.53191 -0.976896,-30.669822 -0.489249,-5.660983 0.102226,-11.441607 -1.007613,-17.021506 1.48816,-3.524102 3.226571,-7.549 6.488991,-9.093184 0.21773,-0.04616 0.4397,-0.05151 0.66026,-0.05197 z m -14.512601,1.578969 c 1.872038,1.94117 2.383041,5.096214 3.057876,7.814557 0.746256,4.108087 1.311667,8.493898 0.635275,12.695719 -0.744243,2.571128 -3.519363,2.254255 -5.347537,2.264018 -1.083006,-0.0853 -2.263238,-0.124996 -3.284979,-0.621194 -0.170008,-3.793021 -0.119803,-7.608063 -0.496233,-11.388879 0.34665,-3.562461 1.512022,-7.147622 3.514526,-9.871284 0.491955,-0.431379 1.310712,-1.601352 1.921072,-0.892937 z m -51.285937,-0.05647 c 2.212797,0.586502 3.112169,3.524776 3.93939,5.729334 0.804714,2.278533 1.351431,4.714232 0.948642,7.190006 -0.16673,3.092158 -0.243077,6.189653 -0.338056,9.285729 -2.113491,0.781205 -4.459066,0.728049 -6.67889,0.369746 -2.199519,-0.493303 -2.407584,-3.467791 -2.276658,-5.606085 0.119488,-5.373953 0.81706,-10.968811 3.106771,-15.686746 0.324178,-0.51063 0.699369,-1.259115 1.298801,-1.281984 z"
       id="path14" />
    <path
       style="fill:#ffffff;stroke-width:0.232709"
       d="m 62.666901,16.841199 c -11.206621,0.214819 -22.53328,0.883356 -33.442868,4.149869 -4.307946,1.549728 -8.732069,3.165565 -12.493862,6.173822 -1.51955,1.547707 -0.771132,4.260166 -0.990225,6.313901 0.09465,3.429511 -0.209027,6.930657 0.386733,10.309338 1.116852,1.65391 1.500349,-1.304243 1.65981,-2.27837 0.493634,-2.890386 1.798249,-6.022415 4.428527,-6.768287 3.295514,-1.158966 6.160397,1.881433 8.225707,4.51148 0.807618,0.798073 1.226564,2.059504 2.084151,2.747821 1.182589,-0.426055 1.294542,-2.383156 2.164807,-3.354939 1.061826,-1.878015 2.993997,-3.050011 4.895962,-2.356081 2.783949,0.656451 4.169219,3.933364 5.789319,6.270326 1.165366,0.520652 1.291166,-1.786679 1.876191,-2.574844 1.270321,-2.763669 3.164054,-5.870713 6.085417,-6.008004 2.110536,-0.354434 4.149587,0.685374 5.64881,2.409935 2.089215,2.129177 3.335876,5.037688 4.603038,7.833679 1.151577,0.712288 1.39403,-1.659128 1.983675,-2.475478 1.688408,-3.59788 4.304301,-7.530705 7.991046,-7.855252 3.866259,-0.350838 6.562337,3.854292 7.914811,7.675956 0.134709,1.051602 1.320518,1.560724 1.657584,0.372831 1.459381,-2.859038 3.682948,-6.13566 6.817036,-5.798632 2.56745,0.324736 3.895253,3.358019 5.134831,5.621862 1.083365,0.605583 1.373546,-1.483738 2.129188,-2.122883 1.942607,-2.378677 4.166161,-5.138024 7.188901,-5.050725 2.93064,-0.390239 4.89489,2.908898 5.62716,5.867433 0.49566,1.105743 0.0944,3.103606 1.29922,3.530655 1.22372,-0.393932 0.6621,-2.392415 0.88379,-3.489627 0.0218,-3.856517 0.36481,-7.769842 -0.0824,-11.598198 -0.77311,-2.711837 -3.43296,-3.554303 -5.36025,-4.758355 C 97.242575,19.446702 86.836512,18.066065 76.62428,17.239413 71.977654,16.91467 67.321099,16.805845 62.666901,16.841199 Z"
       id="path15" />
  </g>
</svg>
