<svg height="128" width="128" xmlns="http://www.w3.org/2000/svg">
  <g fill="#fefefe">
    <path d="m61.453.614v6.568c-29.358 1.298-52.973 24.913-54.271 54.271h-6.568v5.094h6.568c1.298 29.358 24.913 52.973 54.271 54.271v6.568h5.094v-6.568c29.358-1.298 52.973-24.913 54.271-54.271h6.568v-5.094h-6.568c-1.298-29.358-24.913-52.973-54.271-54.271v-6.568zm0 11.665v4.117h5.094v-4.117c26.6 1.284 47.89 22.575 49.174 49.174h-5.615v5.094h5.615c-1.284 26.6-22.575 47.89-49.174 49.174v-4.417h-5.094v4.417c-26.6-1.284-47.89-22.575-49.174-49.174h5.115v-5.094h-5.114c1.284-26.6 22.575-47.89 49.174-49.174z"/>
    <path d="m81.640835 84.495887v6.298112h-35.27671q-.07281-2.366343.764511-4.550659 1.346995-3.604122 4.295822-7.099029 2.985233-3.494906 8.591645-8.08197 8.70086-7.135434 11.758903-11.285635 3.058043-4.186606 3.058043-7.899944 0-3.895364-2.803206-6.552949-2.766801-2.69399-7.24465-2.69399-4.732685 0-7.572296 2.839611-2.839612 2.839611-2.876017 7.863539l-6.734975-.6917q.6917-7.535892 5.205954-11.467661 4.514253-3.968175 12.122955-3.968175 7.681513 0 12.159362 4.259417 4.477848 4.259417 4.477848 10.557529 0 3.203664-1.31059 6.298112-1.31059 3.094449-4.368632 6.516544-3.021638 3.422096-10.084261 9.392561-5.897654 4.951117-7.572297 6.734975-1.674642 1.747453-2.7668 3.531312z" stroke-width=".999"/>
  </g>
</svg>
