<?xml version="1.0" encoding="UTF-8" standalone="no"?>
<!-- Created with Inkscape (http://www.inkscape.org/) -->

<svg
   version="1.1"
   id="svg1"
   width="128"
   height="128"
   viewBox="0 0 128 128"
   xmlns="http://www.w3.org/2000/svg"
   xmlns:svg="http://www.w3.org/2000/svg">
  <defs
     id="defs1" />
  <g
     id="g1">
    <path
       style="fill:#000000"
       d="m 28.658192,120.81338 c -1.147899,-0.31975 -1.538742,-0.68503 -2.989183,-2.79369 -2.493115,-3.6245 -4.046521,-5.56129 -6.936905,-8.64895 -1.629886,-1.74112 -3.69006,-3.67247 -5.978257,-5.60441 -1.658393,-1.4002 -2.083798,-2.21755 -1.972506,-3.789878 0.04156,-0.587129 0.151754,-0.992809 0.370117,-1.362563 0.171016,-0.289583 1.465452,-1.628987 2.876524,-2.976452 1.411071,-1.347465 5.539845,-5.35101 9.175051,-8.896765 9.232159,-9.004985 12.532802,-12.084139 13.99062,-13.051783 0.426404,-0.283031 0.777262,-0.636858 0.931702,-0.939585 0.286138,-0.560877 0.967292,-1.287046 3.062145,-3.264513 0.825,-0.778771 2.79375,-2.658234 4.375,-4.176585 1.58125,-1.518351 4.703125,-4.499457 6.9375,-6.624679 2.234375,-2.125222 4.836473,-4.624987 5.782441,-5.555033 1.719941,-1.690994 1.719941,-1.690994 1.408694,-2.601993 -0.404282,-1.183309 -1.08144,-4.00553 -1.490974,-6.214001 -0.470249,-2.535885 -0.487896,-2.708148 -0.335432,-3.274357 0.149135,-0.553845 -0.328349,-0.07759 7.625789,-7.606073 2.820252,-2.669328 5.034731,-4.759838 11.107536,-10.485724 0.09743,-0.09186 0.234103,-0.8851 0.347629,-2.017614 0.104748,-1.044936 0.277498,-2.075312 0.392541,-2.341325 0.130025,-0.300653 0.782622,-1.017024 1.777371,-1.951061 0.864548,-0.811782 1.751924,-1.568303 1.971948,-1.681157 0.220023,-0.112854 0.64267,-0.205189 0.939214,-0.205189 0.360347,0 1.999141,0.496214 4.941089,1.496124 2.421054,0.822868 4.63803,1.616579 4.926614,1.763804 0.740933,0.377996 1.581508,1.201993 4.070344,3.990072 1.196736,1.340625 2.242667,2.4375 2.32429,2.4375 0.08162,0 0.243329,-0.190128 0.359345,-0.422507 0.116017,-0.232379 0.353659,-0.571475 0.528095,-0.753547 0.174436,-0.182072 0.378115,-0.505906 0.45262,-0.719632 0.08254,-0.236785 0.681976,-0.891055 1.534406,-1.674783 0.76942,-0.707404 3.44412,-3.202817 5.94379,-5.545361 2.49966,-2.342543 4.72066,-4.357608 4.93555,-4.47792 0.22326,-0.125 0.65189,-0.21875 1.00015,-0.21875 0.44486,0 0.81674,0.10896 1.37695,0.403443 1.44976,0.76208 3.1662,2.804399 3.44346,4.09722 0.13995,0.652539 0.079,1.231204 -0.18501,1.75736 -0.0885,0.176288 -1.33064,1.413788 -2.76039,2.75 -1.42975,1.336212 -4.08566,3.828454 -5.90202,5.538315 -2.24826,2.116434 -3.48103,3.187819 -3.86181,3.356256 -0.81487,0.360457 -2.43773,1.627355 -2.26579,1.768813 0.027,0.0222 0.50439,0.438123 1.06091,0.924271 1.03856,0.907239 1.2446,1.164632 3.67566,4.591822 0.78028,1.1 1.68729,2.356218 2.01556,2.791597 0.32828,0.435378 0.66152,0.987482 0.74053,1.226897 0.27537,0.834353 0.081,1.240344 -1.23591,2.581309 -0.66423,0.676373 -1.4564,1.394677 -1.76037,1.596232 -1.04386,0.692153 -1.67769,0.460948 -3.44563,-1.25689 C 102.95701,41.797301 102.57139,41.5 102.31572,41.5 c -0.2378,0 -0.60874,0.245399 -1.27542,0.84375 -1.173579,1.053308 -1.5403,1.647882 -1.5403,2.497333 0,0.519287 0.07666,0.739644 0.431042,1.239018 1.969308,2.775024 2.458868,3.801908 2.951028,6.189977 0.22356,1.084757 0.25691,1.583653 0.20756,3.104922 -0.0464,1.431483 -0.12874,2.07527 -0.39151,3.0625 -0.41622,1.563702 -1.3325,3.466634 -2.29119,4.7583 -0.415539,0.559876 -1.929879,2.143899 -3.477736,3.63777 -1.507932,1.455339 -2.983685,2.845527 -3.279453,3.089307 -1.031684,0.850346 -2.053516,0.732963 -3.092315,-0.35523 -0.489437,-0.512709 -0.796347,-1.030105 -1.375,-2.318008 C 88.772717,66.337753 88.262108,65.402289 88.04774,65.170832 87.739709,64.838243 87.560422,64.75 87.192725,64.75 c -0.426235,0 -0.593901,0.126133 -1.9991,1.503897 -1.533843,1.503896 -1.533843,1.503896 -1.605702,3.53125 -0.05177,1.460558 -0.160126,2.446714 -0.387579,3.527353 -0.434296,2.063353 -1.077998,3.951271 -2.007247,5.887065 -1.455196,3.031436 -3.023594,5.060407 -6.278214,8.121861 -2.809412,2.64267 -3.74759,3.469933 -5.164883,4.554271 -1.313696,1.005078 -2.238728,1.496229 -2.821483,1.498082 -0.21119,6.71e-4 -0.647527,-0.08858 -0.969637,-0.198332 -0.585655,-0.199552 -0.585655,-0.199552 -3.241017,0.890213 -5.945296,2.439958 -8.020588,3.336833 -8.412058,3.635421 -0.450354,0.343502 -0.680805,0.854325 -0.680805,1.509087 0,0.232574 -0.07621,0.605269 -0.169366,0.828212 -0.09444,0.22602 -0.854829,1.04448 -1.71875,1.85 -1.888082,1.76045 -9.513396,8.83293 -13.799384,12.79893 -2.697198,2.49582 -5.345004,4.89213 -5.875,5.31697 -1.043842,0.83673 -2.264014,1.12672 -3.404308,0.8091 z m 1.853771,-2.15283 c 0.199671,-0.11795 0.363037,-0.25233 0.363037,-0.29863 0,-0.0463 -0.914063,-1.09175 -2.03125,-2.32321 -1.117188,-1.23146 -3.202603,-3.5437 -4.634256,-5.13831 -2.733139,-3.04423 -2.729419,-3.04136 -3.199705,-2.4747 -0.132684,0.15988 0.103088,0.49662 1.514485,2.16308 2.03843,2.4068 3.205769,3.94212 4.704955,6.1881 0.667615,1.00018 1.287849,1.79224 1.488809,1.90125 0.466126,0.25286 1.350783,0.24419 1.793925,-0.0176 z m 6.562781,-5.8793 c 2.885745,-2.66406 7.06694,-6.53125 9.291545,-8.59375 2.224604,-2.0625 4.309715,-3.98628 4.63358,-4.275072 0.516452,-0.46052 0.598033,-0.602655 0.663584,-1.156127 0.108777,-0.918454 0.48365,-1.661863 1.169712,-2.319656 0.332384,-0.318687 0.998085,-0.765697 1.479335,-0.993354 0.857871,-0.405819 7.988156,-3.381947 9.789211,-4.085944 1.041142,-0.406962 1.813344,-0.453418 2.454511,-0.147667 0.439704,0.20968 0.439704,0.20968 1.097991,-0.244882 2.374348,-1.639543 7.495202,-6.357629 9.119575,-8.402298 2.327258,-2.929422 3.814786,-6.192222 4.535796,-9.948993 0.110942,-0.578054 0.249129,-1.979132 0.307082,-3.113507 0.05795,-1.134375 0.167981,-2.221031 0.244505,-2.414792 0.236209,-0.598078 0.749343,-1.175427 2.342467,-2.635609 C 85.79253,62.993296 86.219667,62.75 87.1875,62.75 c 0.750987,0 1.4102,0.256952 2.007049,0.782319 0.60787,0.535069 1.155696,1.446586 1.875698,3.120935 0.257974,0.599915 0.622755,1.274875 0.810623,1.499911 0.341579,0.409156 0.341579,0.409156 1.074104,-0.274826 3.146282,-2.937782 4.937063,-4.707662 5.602363,-5.536973 0.926165,-1.154485 1.678973,-2.610093 2.148293,-4.153866 0.3146,-1.034829 0.34218,-1.295323 0.34415,-3.25 0.002,-1.810389 -0.0387,-2.273052 -0.27373,-3.125 -0.37459,-1.357885 -0.978168,-2.526506 -2.023375,-3.917585 -1.044452,-1.390075 -1.313533,-2.138838 -1.223056,-3.403368 0.03602,-0.503379 0.174588,-1.08288 0.345979,-1.44687 0.350314,-0.74398 2.584952,-2.977536 3.311902,-3.310307 0.275,-0.125884 0.725,-0.229801 1,-0.230928 1.04126,-0.0043 1.40926,0.20187 2.82495,1.582424 l 1.34612,1.312701 1.03946,-1.004549 c 0.8242,-0.79651 1.01358,-1.044398 0.91447,-1.196966 -0.16478,-0.25365 -3.39418,-4.76564 -4.2118,-5.884552 -0.35166,-0.48125 -1.14723,-1.332508 -1.76793,-1.891684 L 101.20422,31.404132 98.539608,33.9139 C 96.692693,35.653492 95.875,36.50522 95.875,36.68942 c 0,0.146163 -0.154687,0.570764 -0.34375,0.943557 -0.426628,0.841225 -1.188989,1.444124 -1.975157,1.562018 -0.443911,0.06657 -0.644117,0.179155 -0.906654,0.509859 -0.185316,0.233434 -0.700752,0.718775 -1.145413,1.078536 -0.44466,0.35976 -2.331389,2.088485 -4.192731,3.84161 -1.861341,1.753125 -5.170005,4.868506 -7.352586,6.923068 -2.182582,2.054562 -3.949232,3.770187 -3.925889,3.8125 0.02334,0.04231 0.16898,0.344607 0.323639,0.671766 0.237904,0.503251 0.256167,0.630187 0.11862,0.824456 -0.147148,0.207828 -4.501035,4.326358 -8.278204,7.83071 l -1.482044,1.375 0.970549,0.08921 c 1.250759,0.114959 2.303049,0.598629 3.154205,1.449785 0.350156,0.350156 0.782243,0.94441 0.960193,1.320565 0.423371,0.894934 0.59484,2.11987 0.435362,3.110136 -0.09041,0.561387 -0.629092,1.849672 -2.018149,4.826494 -1.115966,2.391572 -2.089187,4.306592 -2.367677,4.658908 -0.485562,0.614282 -1.47831,1.422494 -2.186866,1.780364 C 65.076584,83.593863 63.788207,83.87131 63,83.87131 c -0.944741,0 -2.151443,-0.304114 -2.998834,-0.755769 -1.364953,-0.727512 -2.656764,-2.312716 -3.128011,-3.838437 -0.277463,-0.898322 -0.33312,-2.52859 -0.113346,-3.32007 0.07338,-0.26426 0.108775,-0.505112 0.07866,-0.535228 -0.09518,-0.09518 -9.725646,8.927082 -10.522196,9.857671 -0.635149,0.74203 -0.941272,1.448338 -0.941272,2.171773 0,0.486028 0.08897,0.764026 0.40625,1.269403 0.223438,0.355899 1.714062,2.079033 3.3125,3.829186 C 51.326501,94.994505 52,95.807352 52,96.057388 52,96.459143 51.687979,96.59926 51.319094,96.363159 51.083093,96.212109 48.937016,93.924106 45.834511,90.515868 45.365367,90.000492 44.86354,89.350149 44.719339,89.070661 44.575138,88.791172 44.424608,88.206017 44.384827,87.770315 44.3125,86.97813 44.3125,86.97813 42.9375,88.260422 40.492861,90.540234 36.358079,94.38353 33.993658,96.573758 24.324454,105.53061 22.5625,107.18782 22.5625,107.32539 c 0,0.13235 1.64671,2.02254 4.5625,5.23711 0.378125,0.41687 1.555587,1.72647 2.616583,2.91022 1.060996,1.18376 1.964469,2.15228 2.007718,2.15228 0.04325,0 2.439698,-2.17969 5.325443,-4.84375 z M 82.374325,62.922019 c -0.384976,-0.347802 -0.693889,-0.49333 -1.330429,-0.62676 -1.532612,-0.321263 -2.552035,-1.09633 -3.257275,-2.476506 -0.295571,-0.578442 -0.312652,-0.710556 -0.262217,-2.028172 0.05,-1.306368 0.08536,-1.470792 0.483522,-2.248692 0.366938,-0.716895 0.778627,-1.170776 2.823476,-3.112844 2.559973,-2.431299 3.118421,-2.81381 4.483478,-3.070982 0.411191,-0.07747 1.110289,-0.316285 1.55355,-0.530706 0.721226,-0.348883 0.925497,-0.389857 1.943562,-0.389857 1.063773,0 1.199602,0.03061 2.092155,0.471543 1.083105,0.535063 1.833845,1.282518 2.301756,2.291684 0.450276,0.97113 0.584557,1.908568 0.424745,2.965205 -0.373549,2.469814 -2.224584,4.334571 -4.380648,4.413122 -0.736647,0.02684 -0.816523,0.05594 -0.855588,0.31177 -0.0237,0.155193 -0.417449,0.641516 -0.875,1.080719 -1.788291,1.716575 -3.344391,3.12397 -3.604944,3.260445 -0.515924,0.270236 -1.007416,0.171318 -1.540143,-0.309969 z m 3.130635,-2.434927 c 1.028522,-0.969599 1.87004,-1.81137 1.87004,-1.870602 0,-0.05923 -0.105666,-0.164245 -0.234813,-0.233362 -0.193451,-0.103532 -0.364097,-0.01277 -0.96875,0.515257 -0.403666,0.352509 -1.322419,1.197956 -2.041675,1.878772 -1.027892,0.972958 -1.268633,1.262582 -1.125,1.353431 0.100506,0.06357 0.283408,0.116445 0.406448,0.117498 0.123041,0.0011 1.065228,-0.791395 2.09375,-1.760994 z m -1.995344,-0.512948 c 0.750961,-0.701721 1.365384,-1.31668 1.365384,-1.366576 0,-0.0499 -0.122281,-0.129532 -0.271736,-0.176967 -0.363513,-0.115374 -1.441696,-1.131907 -1.799913,-1.696994 -0.492133,-0.77634 -0.714834,-1.777743 -0.647081,-2.909687 0.0333,-0.556281 0.102185,-1.12392 0.153087,-1.26142 0.0509,-0.1375 -0.689926,0.5375 -1.646284,1.5 -1.922846,1.935197 -2.001521,2.074293 -2.129364,3.764662 -0.06164,0.815045 -0.03332,0.983596 0.269146,1.601815 0.18592,0.380006 0.545398,0.862679 0.79884,1.072606 0.517668,0.428784 1.348988,0.726694 2.064171,0.739711 0.438514,0.008 0.592117,-0.09759 1.84375,-1.26715 z m 3.20898,-3.426062 c 0.601193,-0.174771 0.818647,-0.180694 1.617458,-0.04405 0.721293,0.123381 1.031393,0.125355 1.419631,0.009 0.27321,-0.08186 0.700233,-0.352316 0.948939,-0.601023 1.172486,-1.172485 1.348411,-3.11109 0.401012,-4.418936 -0.455072,-0.628209 -1.428389,-1.115145 -2.232497,-1.116885 -0.376863,-8.15e-4 -0.823883,0.125391 -1.34551,0.379877 -0.429631,0.209604 -1.061672,0.414321 -1.404534,0.454928 -0.529869,0.06276 -0.69759,0.154333 -1.118037,0.610465 -0.272059,0.295149 -0.586549,0.751369 -0.698866,1.013822 -0.112971,0.263979 -0.206052,0.822121 -0.208328,1.249195 -0.0053,0.986906 0.370165,1.800215 1.062479,2.301724 0.276192,0.200073 0.583507,0.363768 0.682923,0.363768 0.09942,0 0.493315,-0.09086 0.87533,-0.201918 z M 20.671892,107.58742 c 0.249603,-0.33432 0.249603,-0.33432 -0.0046,-0.61712 -5.276301,-5.86898 -7.073285,-7.849726 -7.182948,-7.917501 -0.07399,-0.04573 -0.249152,0.03149 -0.389258,0.171601 -0.348469,0.348469 -0.440571,1.35329 -0.1717,1.87323 0.110646,0.21396 0.889543,0.96859 1.730882,1.67695 0.841339,0.70835 2.43051,2.17162 3.53149,3.25169 1.100981,1.08008 2.05461,1.9484 2.119177,1.92962 0.06457,-0.0188 0.229716,-0.1846 0.366998,-0.36847 z m 2.43225,-2.30617 c 1.416013,-1.30656 15.309321,-14.213627 20.081799,-18.65625 1.587873,-1.478125 4.881558,-4.541209 7.3193,-6.806854 2.437743,-2.265644 6.513509,-6.065555 9.057259,-8.444246 2.54375,-2.378691 6.003125,-5.611992 7.6875,-7.185113 6.908925,-6.452589 8.125,-7.616027 8.125,-7.773316 0,-0.178784 -0.532708,-0.821745 -1.607974,-1.940772 L 73.0821,53.761898 71.211505,55.537199 c -2.704878,2.567084 -3.154482,2.940775 -3.650025,3.03374 -0.788703,0.147961 -1.297704,-0.0401 -2.049552,-0.757237 l -0.700184,-0.667863 -1.999622,1.888214 c -1.099792,1.038518 -3.604191,3.410392 -5.56533,5.270831 -1.96114,1.860439 -4.956453,4.700403 -6.65625,6.311031 C 48.890744,72.226544 47.5,73.590606 47.5,73.647165 47.5,73.703725 47.43999,73.75 47.366639,73.75 c -0.07335,0 -1.252333,1.040625 -2.619965,2.3125 -1.954604,1.817749 -2.558975,2.3125 -2.824877,2.3125 -0.263509,0 -0.547805,-0.227385 -1.286286,-1.028791 -2.275462,-2.469356 -2.070757,-2.292748 -2.402027,-2.072329 -0.790339,0.525872 -6.414855,5.798821 -11.108484,10.414136 -1.615625,1.588668 -4.85,4.736437 -7.1875,6.995043 -2.3375,2.258606 -4.581019,4.429224 -4.985597,4.823595 l -0.735596,0.717039 1.542247,1.731904 c 3.045882,3.420443 5.889108,6.544403 5.956294,6.544403 0.03765,0 0.662831,-0.54844 1.389294,-1.21875 z M 44.659637,79.329917 c -0.07244,-0.117204 1.560748,-1.753095 2.887632,-2.892417 0.660523,-0.567155 0.728048,-0.671276 0.729584,-1.125 0.0017,-0.503499 -0.09975,-1.236234 -0.212909,-1.537742 -0.105776,-0.281829 0.186844,-0.02151 0.569312,0.506477 C 48.88446,74.628011 49,74.935902 49,75.258531 c 0,0.259062 -0.03288,0.556705 -0.07307,0.661428 -0.04019,0.104723 -0.883214,0.949632 -1.873397,1.877576 -1.225001,1.148002 -1.883773,1.680884 -2.06144,1.667501 -0.143609,-0.01082 -0.293216,-0.07162 -0.33246,-0.135119 z m 20.092837,2.138001 c 1.301802,-0.620959 1.658166,-1.101853 3.033032,-4.092918 0.584628,-1.271875 1.388509,-2.9875 1.786402,-3.8125 0.665027,-1.37888 0.723891,-1.570654 0.728999,-2.375 0.0042,-0.667288 -0.05947,-0.997922 -0.268364,-1.392819 -0.363385,-0.686944 -1.161732,-1.353366 -1.853203,-1.546966 -0.6971,-0.195176 -1.623426,-0.09509 -2.296098,0.24808 -0.469895,0.239723 -2.397441,1.977791 -5.219258,4.706205 -0.911121,0.880962 -1.232159,1.289382 -1.553177,1.975928 -0.312801,0.668973 -0.417245,1.082828 -0.4601,1.823122 -0.06752,1.166318 0.170999,2.086776 0.765168,2.952856 0.506474,0.738255 1.413918,1.449766 2.193971,1.720254 0.866351,0.300413 2.274146,0.208023 3.142628,-0.206242 z M 45.213511,73.868099 c 1.635694,-1.516296 3.030868,-2.908484 3.100386,-3.09375 0.225329,-0.600506 -0.02352,-0.342149 3.811103,-3.956661 4.432929,-4.178472 7.21786,-6.814575 11.175404,-10.578184 0.362905,-0.34512 0.362905,-0.34512 -0.161894,-0.941323 -0.288639,-0.327912 -0.784885,-1.006773 -1.102768,-1.508581 l -0.577969,-0.912378 -0.760136,0.71331 c -1.604029,1.505216 -8.84143,8.418517 -10.510137,10.039478 -0.9625,0.934961 -3.49375,3.361004 -5.625,5.391207 -4.100678,3.906255 -4.978545,4.795906 -4.914584,4.980554 0.08352,0.241117 2.297265,2.61816 2.440595,2.620629 0.08306,0.0014 1.489307,-1.238006 3.125,-2.754301 z M 67.539468,57.478878 c 0.306712,-0.164147 4.773032,-4.371609 4.773032,-4.496399 0,-0.04401 -0.581027,-0.719011 -1.291171,-1.5 -0.710144,-0.780988 -1.534144,-1.785604 -1.831112,-2.232479 -0.579185,-0.871554 -1.506388,-2.937352 -1.921254,-4.280534 -0.622769,-2.01629 -0.815746,-3.903982 -0.467128,-4.569423 0.09726,-0.185649 0.364447,-0.512391 0.59375,-0.726095 0.444473,-0.414234 0.725088,-0.61221 4.416915,-3.116167 2.297905,-1.558538 3.78262,-2.574005 5.875,-4.018191 0.55,-0.379617 1.209075,-0.951635 1.464612,-1.271151 0.890557,-1.113531 4.41491,-4.622384 5.028611,-5.006496 0.470579,-0.294534 0.763122,-0.386943 1.224957,-0.386943 0.333704,0 0.770613,0.08474 0.970907,0.188321 0.549633,0.284226 4.856915,5.02826 5.150549,5.672805 0.359662,0.789485 0.245063,1.238393 -0.545391,2.136395 -0.779379,0.88542 -1.321234,1.181925 -1.994828,1.091577 -0.474337,-0.06362 -0.498618,-0.04498 -2.951344,2.265261 C 78.165115,44.642619 71.875,50.656725 71.875,50.768571 c 0,0.07063 0.29556,0.435977 0.656799,0.811888 l 0.6568,0.683474 1.62445,-1.530603 c 0.893448,-0.841831 3.199451,-3.026089 5.124451,-4.853906 1.925,-1.827816 4.540625,-4.302987 5.8125,-5.50038 1.271875,-1.197392 2.36875,-2.294757 2.4375,-2.438589 0.256909,-0.537478 0.696795,-1.042224 1.342325,-1.540247 0.534672,-0.412496 0.69471,-0.623864 0.816152,-1.07792 0.09688,-0.362233 0.342134,-0.763673 0.683793,-1.119266 0.399436,-0.415728 0.712564,-0.606538 1.251465,-0.762605 0.603499,-0.174775 0.830928,-0.184856 1.418497,-0.06288 0.57037,0.118409 0.807286,0.252951 1.281265,0.727616 0.319827,0.32029 0.637753,0.677321 0.706503,0.793403 0.106524,0.179862 0.392136,-0.04448 1.932311,-1.517774 l 1.80731,-1.728833 -1.280964,-1.341665 c -0.70453,-0.737915 -1.36603,-1.506165 -1.470001,-1.707222 -0.108798,-0.210394 -0.154008,-0.482287 -0.10651,-0.640561 0.04539,-0.151252 0.282309,-0.483489 0.526489,-0.738305 0.443962,-0.463302 0.443962,-0.463302 -0.294837,-1.308918 C 96.394959,25.450191 95.978125,24.982043 95.875,24.874952 95.771875,24.767861 95.070321,23.978749 94.315991,23.12137 92.203496,20.720289 91.267408,19.823685 90.625,19.586068 90.315625,19.471634 88.293802,18.78334 86.132059,18.056524 c -2.399287,-0.806682 -4.030582,-1.293043 -4.1875,-1.248477 -0.141382,0.04015 -0.840431,0.627197 -1.553442,1.304542 -1.296383,1.231536 -1.296383,1.231536 -1.482685,3.153224 -0.117201,1.208913 -0.26227,2.067693 -0.391117,2.315328 -0.2489,0.47837 -2.106103,2.270349 -15.079815,14.550225 -3.625,3.431134 -3.625,3.431134 -3.595108,3.958238 0.01644,0.289907 0.284734,1.808657 0.596207,3.375 0.56017,2.816999 1.295686,5.313086 2.052764,6.966369 0.190537,0.41609 0.60557,1.094027 0.922295,1.506527 0.907585,1.182033 3.373589,3.691178 3.62581,3.689242 0.124832,-9.58e-4 0.349832,-0.0675 0.5,-0.147864 z M 77.898355,52.0625 C 84.890259,45.509046 89.114564,41.540514 89.592145,41.076746 90.12179,40.56242 90.12179,40.56242 89.423553,39.778564 l -0.698238,-0.783857 -1.762279,1.658896 C 85.993782,41.565997 83.452441,43.971875 81.31561,46 c -2.136831,2.028125 -4.683313,4.43864 -5.658849,5.3567 l -1.773702,1.6692 0.649559,0.737937 c 0.357257,0.405866 0.690572,0.723476 0.7407,0.7058 0.05013,-0.01767 1.231394,-1.100887 2.625037,-2.407137 z M 73.64732,46.555256 c 1.603349,-1.516484 3.948651,-3.738359 5.211782,-4.9375 1.263131,-1.199141 2.927903,-2.770881 3.699493,-3.492756 0.771591,-0.721875 2.313491,-2.175325 3.426446,-3.229889 2.023555,-1.917388 2.023555,-1.917388 2.644257,-1.83202 0.393385,0.0541 0.620702,0.03881 0.620702,-0.04177 0,-0.161331 -0.354499,-0.593471 -2.033695,-2.479102 -1.263607,-1.418952 -1.657463,-1.767727 -1.816556,-1.608634 -0.03546,0.03546 -0.05472,0.339885 -0.04281,0.676506 0.02166,0.612037 0.02166,0.612037 -5.44889,5.849093 -3.008804,2.880381 -6.708053,6.415338 -8.220553,7.85546 -1.5125,1.440121 -2.765847,2.70378 -2.785216,2.80813 -0.03889,0.209537 0.755258,1.912719 1.277858,2.740571 0.183323,0.290402 0.382518,0.510263 0.442656,0.48858 0.06014,-0.02168 1.421173,-1.280184 3.024522,-2.796668 z m -3.28327,-4.716267 c 2.289412,-2.230236 4.732907,-4.572839 5.865072,-5.622903 1.038267,-0.962974 1.235459,-1.254769 0.435749,-0.6448 -0.231675,0.176707 -2.12136,1.472108 -4.199299,2.87867 -3.133165,2.120846 -3.789429,2.615436 -3.844606,2.897465 -0.07264,0.37129 0.106638,1.902579 0.222748,1.902579 0.03954,0 0.723689,-0.634955 1.520336,-1.411011 z m 21.288782,-2.459587 c 0.407226,-0.358455 0.583081,-0.619167 0.635493,-0.942143 0.04072,-0.250903 0.322021,-0.778529 0.64207,-1.204287 C 93.243678,36.816213 93.5,36.424552 93.5,36.362615 c 0,-0.137453 -0.463562,-0.613655 -0.59375,-0.60994 -0.05156,0.0015 -0.482646,0.254596 -0.957963,0.5625 -0.475317,0.307904 -0.978543,0.559825 -1.118281,0.559825 -0.323362,0 -1.131158,0.556176 -1.396937,0.961806 -0.200922,0.306645 -0.192643,0.322974 0.58782,1.159506 0.435386,0.466665 0.854004,0.855278 0.930262,0.863584 0.07626,0.0083 0.392015,-0.207915 0.701681,-0.480494 z m 2.17629,-1.333168 C 94.395524,37.777459 94.875,36.957613 94.875,36.257909 c 0,-0.694345 -0.321246,-1.353734 -0.802496,-1.647199 -0.550581,-0.335744 -1.678745,-0.322271 -2.120644,0.02533 -0.286837,0.225626 -0.70186,0.842077 -0.70186,1.042502 0,0.03627 0.264138,-0.101556 0.586973,-0.306292 0.616297,-0.390844 1.336998,-0.48863 1.794951,-0.243541 C 93.953819,35.300979 94.25,35.8982 94.25,36.375 c 0,0.431187 -0.252168,0.992447 -0.561082,1.248824 C 93.457107,37.816209 93.201855,38.25 93.320461,38.25 c 0.04359,0 0.272489,-0.0917 0.508661,-0.203766 z M 90.75,32.6875 c 0,-0.07684 -0.07031,-0.235868 -0.15625,-0.353385 -0.133725,-0.182865 -0.159454,-0.127744 -0.178477,0.382359 -0.02029,0.544037 -0.0067,0.574862 0.15625,0.353385 C 90.669685,32.936406 90.75,32.764345 90.75,32.6875 Z m -6.685643,-3.771088 c 0.216216,-0.729229 0.408137,-1.020768 0.808141,-1.227618 0.604111,-0.312398 1.091077,-0.236586 1.798255,0.279956 L 87.3125,28.4375 86.696137,27.720172 c -0.668389,-0.777876 -1.114883,-0.964927 -1.737895,-0.728058 -0.373817,0.142125 -2.760604,2.404063 -3.627757,3.437994 -0.517985,0.617608 -0.517985,0.617608 1.036945,-0.208588 1.453183,-0.772135 1.564221,-0.857534 1.696927,-1.305108 z m 16.148173,1.134171 c 0.54509,-0.659212 2.48367,-2.326703 3.03857,-2.613652 0.20564,-0.106343 0.37333,-0.234094 0.37263,-0.283891 -7e-4,-0.0498 -0.58305,-0.708984 -1.29411,-1.46486 -1.45524,-1.546966 -1.37639,-1.530337 -2.11194,-0.44537 -0.21242,0.31333 -0.891312,1.088244 -1.508646,1.722033 -1.122426,1.152343 -1.122426,1.152343 -0.771771,1.6875 0.448097,0.683869 1.554755,1.972657 1.693884,1.972657 0.05853,0 0.320147,-0.258487 0.581383,-0.574417 z m 4.96906,-3.919527 c 0.48232,-0.493944 0.48232,-0.493944 0.16247,-0.90625 -0.17592,-0.226768 -0.88323,-1.002931 -1.5718,-1.724806 -1.25196,-1.3125 -1.25196,-1.3125 -1.78425,-0.788516 -0.5323,0.523985 -0.5323,0.523985 0.70859,1.850153 0.6825,0.729393 1.38153,1.487574 1.5534,1.684847 0.17188,0.197273 0.34327,0.363142 0.38088,0.368597 0.0376,0.0055 0.28543,-0.212356 0.55071,-0.484025 z M 108.99923,22.5 c 1.13899,-1.065625 3.14885,-2.943464 4.46637,-4.172976 1.31752,-1.229511 2.42228,-2.30528 2.45501,-2.390596 0.0327,-0.08532 -0.0737,-0.442708 -0.23656,-0.794203 -0.56321,-1.215619 -2.26426,-2.69352 -2.8078,-2.439454 -0.12911,0.06035 -2.02796,1.797229 -4.21967,3.859729 -2.19171,2.0625 -4.2794,4.021996 -4.63932,4.354436 -0.6544,0.604437 -0.6544,0.604437 -0.12245,1.1875 2.67878,2.936213 2.5098,2.781466 2.78244,2.548045 0.13811,-0.118239 1.183,-1.086856 2.32198,-2.152481 z"
       id="path7225" />
    <path
       style="fill:#ffffff;stroke-width:0.25"
       d="m 27.125,112.62945 c -2.353155,-2.63173 -4.156789,-4.86255 -4.199007,-5.19355 -0.06108,-0.47884 1.700479,-2.22755 10.08159,-10.008063 C 41.343755,89.689043 43.288528,88 43.86284,88 c 0.563065,0 0.726666,0.134222 0.837989,0.6875 0.08432,0.419066 1.42201,2.0784 3.426026,4.2498 2.966433,3.2142 3.350855,3.546448 3.934028,3.400081 0.564847,-0.141768 0.620577,-0.102346 0.442055,0.3127 -0.112353,0.261206 -0.401048,1.027707 -0.641543,1.703337 -0.397762,1.11744 -1.302062,2.026522 -10.009616,10.062502 -6.175819,5.69951 -9.754984,8.8328 -10.087064,8.83046 -0.349754,-0.002 -1.836737,-1.48214 -4.639715,-4.61693 z"
       id="path7226" />
    <path
       style="fill:#ffffff;stroke-width:0.25"
       d="M 17.911376,102.40569 C 16.035259,100.3388 14.625,98.57394 14.625,98.292985 c 0,-0.458877 13.589316,-13.921242 20.547438,-20.355485 3.204214,-2.962967 3.425505,-3.009173 5.0886,-1.0625 0.646085,0.75625 1.35876,1.375 1.583722,1.375 0.224963,0 1.41215,-0.905666 2.638193,-2.012591 1.90297,-1.718086 2.341687,-2.001602 2.998107,-1.9375 0.593453,0.05795 0.788205,0.211352 0.853358,0.672149 0.06535,0.462221 -0.326805,1.011041 -1.73648,2.430187 -1.001493,1.008221 -1.752388,1.90164 -1.668653,1.985373 0.08373,0.08373 1.005775,-0.658527 2.04898,-1.649469 C 48.956493,75.859025 49.350508,74.955858 48.5,74.25 47.586315,73.491708 48.037595,72.963617 56.24436,65.1875 60.706643,60.959375 64.540648,57.5 64.764368,57.5 c 0.223722,0 0.69281,0.225 1.042415,0.5 1.195272,0.940201 1.869205,0.693331 4.436097,-1.625 1.29406,-1.16875 2.562358,-2.125 2.818438,-2.125 0.684095,0 2.123672,1.580844 2.02234,2.220797 -0.08657,0.546734 -4.65164,4.862384 -35.309715,33.380526 -12.708185,11.821147 -17.403109,16.043517 -17.901126,16.099307 -0.586438,0.0657 -1.106525,-0.39971 -3.961441,-3.54494 z"
       id="path7227" />
    <path
       style="fill:#ffffff;stroke-width:0.25"
       d="m 51.875,96.002798 c 0,-0.13596 -1.271515,-1.682835 -2.825588,-3.4375 C 45.644598,88.721013 45.375,88.34286 45.375,87.411383 c 0,-1.211078 0.844373,-2.2233 5.448252,-6.531285 5.128752,-4.799124 5.617382,-5.034329 5.907962,-2.843829 0.289517,2.182486 1.640089,4.181859 3.460853,5.123414 1.034574,0.534997 3.321121,0.709977 4.634602,0.354667 2.195849,-0.594005 3.291922,-2.103185 6.156469,-8.476833 1.44604,-3.217449 1.547175,-4.800515 0.420217,-6.577544 C 70.729613,67.397592 69.04293,66.25 68.155229,66.25 67.96055,66.25 67.872764,65.9817 67.921661,65.536143 68.032459,64.52651 76.016463,57 76.976668,57 c 0.60311,0 0.648332,0.07962 0.648332,1.141435 0,1.974811 1.137603,3.416569 3.159615,4.004384 0.714175,0.207617 1.440655,0.548766 1.614395,0.75811 0.242353,0.29202 0.596415,0.342044 1.52094,0.214889 1.628865,-0.224026 1.571043,0.08705 -0.39464,2.123143 -1.58822,1.64511 -1.600812,1.669456 -1.756015,3.395016 -0.535472,5.953446 -1.623257,9.257932 -4.282527,13.009503 -1.163823,1.641868 -6.16461,6.56197 -8.504265,8.36705 -1.319287,1.017855 -1.568732,1.114435 -2.961565,1.146665 -1.296958,0.03001 -2.238853,0.336438 -6.395938,2.080785 -2.68125,1.125075 -5.247055,2.262363 -5.70179,2.527305 -0.879079,0.51218 -2.04821,0.646043 -2.04821,0.234513 z"
       id="path7228" />
    <path
       style="fill:#ffffff;stroke-width:0.25"
       d="m 40.8125,75.38835 c -1.244024,-1.559121 -1.26291,-1.531421 5.5,-8.066962 C 58.250216,55.78502 60.722262,53.5 61.265152,53.5 c 0.568547,0 2.109848,1.711404 2.109848,2.342696 0,0.204609 -3.231971,3.436083 -7.182157,7.181054 -3.950187,3.744971 -7.475334,7.212286 -7.83366,7.705144 -0.358326,0.492858 -1.781684,1.936731 -3.163018,3.208606 -2.857123,2.630721 -3.320006,2.78392 -4.383665,1.45085 z"
       id="path7229" />
    <path
       style="fill:#ffffff;stroke-width:0.25"
       d="m 64.876131,55.591978 c -2.180888,-2.295908 -2.964388,-3.89046 -4.009624,-8.16025 -1.065317,-4.351823 -1.179435,-5.55738 -0.588925,-6.221485 0.25983,-0.292213 4.016168,-3.901675 8.347418,-8.021028 10.697438,-10.174088 9.876937,-9.231836 10.19268,-11.705119 0.246126,-1.927959 0.321794,-2.1054 1.34655,-3.157656 0.597174,-0.613198 1.288846,-1.226028 1.53705,-1.361844 0.340261,-0.186188 1.508802,0.104846 4.75,1.183026 2.364295,0.78648 4.548393,1.591934 4.85355,1.789897 0.52074,0.33782 5.509233,5.820811 5.913293,6.499468 0.102162,0.171593 -0.01274,0.648005 -0.25534,1.058695 -0.4958,0.839324 -0.592858,0.637323 1.48188,3.084195 l 0.944662,1.114102 -1.444662,1.397972 c -1.602128,1.55035 -2.310125,1.739029 -3.241663,0.863896 -0.462392,-0.434396 -0.85485,-0.536902 -1.945722,-0.5082 l -1.366498,0.03595 0.148033,-0.740161 c 0.17692,-0.884598 -0.235958,-1.479998 -3.191295,-4.60211 C 86.599458,26.294623 86.207015,26 85.495235,26 c -1.05407,0 -2.629056,1.224066 -5.109336,3.970934 -1.513744,1.676446 -2.796809,2.692027 -7.162606,5.6694 -2.925188,1.99491 -5.61682,3.981614 -5.981403,4.414897 -0.601457,0.714791 -0.647196,0.913318 -0.493617,2.142519 0.397551,3.181893 1.752053,6.21736 3.927673,8.801998 1.152897,1.36964 1.45643,1.89059 1.290718,2.215242 C 71.559596,54.012493 67.657786,57.5 67.172613,57.5 c -0.278132,0 -1.255067,-0.811682 -2.296482,-1.908022 z"
       id="path7230" />
    <path
       style="fill:#ffffff;stroke-width:0.25"
       d="M 90.79216,66.1875 C 90.32577,65.190625 89.583323,64.0375 89.142277,63.625 88.441281,62.969375 88.169534,62.879088 86.982688,62.90749 85.700293,62.93818 85.625,62.90607 85.625,62.328485 85.625,61.569828 88.644287,58.5 89.390454,58.5 c 0.915052,0 2.137719,-0.676695 2.905387,-1.608007 2.237521,-2.714502 1.539483,-6.371475 -1.515123,-7.937617 -1.11397,-0.571149 -2.873187,-0.527127 -4.530718,0.113376 -0.55,0.212531 -1.421875,0.465502 -1.9375,0.562157 -0.912269,0.171007 -0.9375,0.155762 -0.9375,-0.566444 0,-0.607008 0.399341,-1.124313 2.192627,-2.840323 C 90.148525,41.839646 93.02188,39.309621 93.625,39.128525 94.520419,38.859662 95.097215,38.284041 95.757867,37 c 0.679209,-1.320108 4.844593,-5.25 5.564593,-5.25 0.66403,0 2.28133,1.800477 4.90138,5.45649 l 2.20832,3.081491 -0.70035,0.731009 c -0.99764,1.041309 -1.85966,0.969119 -3.20194,-0.268149 -1.92324,-1.772784 -3.0427,-1.600108 -5.33418,0.822794 -2.10559,2.226351 -2.127754,3.679206 -0.103392,6.777407 1.709462,2.616259 2.114332,4.064512 1.991462,7.123629 -0.0868,2.160089 -0.19319,2.609432 -1.04073,4.394122 -0.805328,1.695785 -1.390424,2.439452 -3.980753,5.059595 -3.814329,3.85823 -4.030007,3.90976 -5.270117,1.259112 z"
       id="path7231" />
    <path
       style="fill:#ffffff;stroke-width:0.03125"
       d="m 76.203125,57.194138 c 0,-0.06317 0.0429,-0.129362 0.156041,-0.240807 0.260385,-0.256469 0.249635,-0.366554 -0.109623,-1.122619 -0.111467,-0.234585 -0.202668,-0.441056 -0.202668,-0.458825 0,-0.01777 0.03708,-0.08092 0.08239,-0.140328 0.151288,-0.198349 2.48006,-2.427866 5.758231,-5.512809 1.305526,-1.228573 1.525274,-1.423193 1.616406,-1.431574 0.05801,-0.0053 0.105471,-0.0034 0.105471,0.0043 0,0.0077 -0.0419,0.103533 -0.0931,0.212959 -0.126764,0.27089 -0.164809,0.489671 -0.139958,0.804858 0.02683,0.340277 0.08444,0.409453 0.341016,0.409453 0.159143,0 0.173223,0.0057 0.172409,0.07031 -6.46e-4,0.05128 -0.047,0.09822 -0.171197,0.173378 -0.374035,0.226353 -0.950408,0.688483 -1.62381,1.301954 -0.743013,0.676886 -1.950038,1.826476 -2.626196,2.50123 -0.943067,0.94111 -1.167472,1.224648 -1.510716,1.908803 -0.216001,0.430534 -0.331568,0.794603 -0.364679,1.148842 l -0.02291,0.245146 -0.113239,-0.01974 c -0.06228,-0.01085 -0.21475,-0.02776 -0.33882,-0.03757 -0.222761,-0.01761 -0.228909,-0.01604 -0.49189,0.126154 -0.316896,0.171342 -0.423154,0.185625 -0.423154,0.05688 z"
       id="path7237" />
    <path
       style="fill:#ffffff;stroke-width:0.0883883"
       d="m 74.527073,53.790771 c -0.276007,-0.312435 -0.501832,-0.647685 -0.501832,-0.745001 0,-0.119618 2.09744,-2.161821 6.474447,-6.303942 3.560945,-3.369853 6.816593,-6.455232 7.234773,-6.856397 0.926223,-0.888541 1.028371,-0.905531 1.588688,-0.264239 0.587766,0.672708 0.729064,0.913506 0.634838,1.081879 -0.04381,0.07828 -0.615132,0.647208 -1.26961,1.264287 -1.112938,1.04934 -11.781027,11.049698 -12.770985,11.971631 -0.617271,0.574854 -0.765511,0.55905 -1.390319,-0.148218 z"
       id="path7238" />
    <path
       style="fill:#ffffff;stroke-width:0.0883883"
       d="m 72.500542,51.5818 c -0.328136,-0.365852 -0.508233,-0.643889 -0.508233,-0.78462 0,-0.16898 0.491672,-0.692315 2.187612,-2.328488 3.021994,-2.915498 5.353852,-5.136737 9.126097,-8.693171 1.774396,-1.672883 3.531546,-3.329559 3.904778,-3.681504 1.083583,-1.021781 1.340346,-1.180084 1.920017,-1.183752 0.272235,-0.0017 0.594409,-0.05998 0.715943,-0.12945 0.287824,-0.164535 0.707106,-0.170936 0.707106,-0.01079 0,0.124576 -0.194132,0.648305 -0.372897,1.005996 -0.05489,0.109839 -0.38848,0.438488 -0.741301,0.730332 -0.383586,0.317291 -0.8031,0.773716 -1.043459,1.135269 -0.473231,0.71184 -0.847475,1.077547 -8.876361,8.673876 -3.792878,3.588536 -6.193608,5.797709 -6.315086,5.811196 -0.14318,0.0159 -0.332914,-0.130911 -0.704216,-0.54489 z"
       id="path7239" />
    <path
       style="fill:#ffffff;stroke-width:0.0883883"
       d="m 70.127544,48.812465 c -0.330214,-0.5137 -1.105322,-2.098861 -1.186739,-2.42698 -0.0431,-0.173692 -0.006,-0.314378 0.13528,-0.512762 0.107071,-0.150368 2.905141,-2.863366 6.217935,-6.028885 6.711747,-6.413368 9.410111,-9.048938 9.789812,-9.561993 0.198779,-0.268593 0.255118,-0.439385 0.255118,-0.773398 0,-0.419144 0.006,-0.428681 0.270148,-0.428681 0.314345,0 0.557123,0.233815 2.279339,2.195196 1.313646,1.496072 1.370989,1.57299 1.303607,1.748585 -0.04133,0.107711 -0.145303,0.123567 -0.516116,0.07871 -0.41543,-0.05026 -0.506265,-0.02875 -0.862104,0.204122 -0.218762,0.143164 -1.610878,1.406457 -3.093593,2.807319 -1.482714,1.400861 -4.823794,4.55987 -7.424621,7.020019 -6.489102,6.13811 -6.44576,6.098596 -6.689446,6.098596 -0.152217,0 -0.281815,-0.113683 -0.47862,-0.419845 z"
       id="path7240" />
    <path
       style="fill:#ffffff;stroke-width:0.0883883"
       d="m 90.035714,39.025529 c -0.395609,-0.412075 -0.719289,-0.824346 -0.719289,-0.916158 0,-0.378079 0.812047,-1.065483 1.467031,-1.241851 0.194993,-0.05251 0.7166,-0.31479 1.159126,-0.582853 0.442525,-0.268062 0.884295,-0.487386 0.98171,-0.487386 0.213492,0 0.660501,0.50319 0.575917,0.648299 -0.03302,0.05665 -0.228167,0.34165 -0.433656,0.633332 -0.357217,0.507051 -0.605752,0.986072 -0.838135,1.615398 -0.05881,0.159265 -0.304846,0.46752 -0.546747,0.68501 -0.646577,0.581328 -0.77463,0.553804 -1.645957,-0.353791 z"
       id="path7241" />
    <path
       style="fill:#ffffff;stroke-width:0.03125"
       d="m 93.328125,38.142532 c 0,-0.106762 0.125208,-0.287452 0.386446,-0.557688 0.467867,-0.483981 0.629034,-1.143496 0.424295,-1.736258 -0.08852,-0.256285 -0.292885,-0.558554 -0.451366,-0.667602 -0.281605,-0.193767 -0.760721,-0.226256 -1.225296,-0.08309 -0.246592,0.07599 -0.36796,0.134135 -0.716544,0.343265 -0.444853,0.266886 -0.546072,0.169006 -0.266246,-0.257464 0.419724,-0.639682 0.752357,-0.816471 1.536211,-0.816471 0.607897,0 0.999296,0.133792 1.316695,0.450086 0.41016,0.408733 0.638881,1.190873 0.51654,1.766379 -0.143975,0.677276 -0.54344,1.237053 -1.062948,1.489529 -0.134936,0.06558 -0.293139,0.126989 -0.351562,0.13647 -0.09883,0.01604 -0.106225,0.01136 -0.106225,-0.06716 z"
       id="path7242" />
    <path
       style="fill:#ffffff;stroke-width:0.125"
       d="m 104.88522,23.219841 c -0.81033,-0.860831 -1.32272,-1.506381 -1.32272,-1.66646 0,-0.180736 1.0695,-1.263058 3.46875,-3.510346 4.98733,-4.671438 5.81976,-5.418035 6.04096,-5.418035 0.32895,0 1.3273,0.732262 1.8445,1.352887 0.5048,0.605736 1.02079,1.51587 1.02079,1.800515 0,0.4041 -9.01615,8.846598 -9.4477,8.846598 -0.19733,0 -0.67859,-0.42145 -1.60458,-1.405159 z"
       id="path7243" />
    <path
       style="fill:#ffffff;stroke-width:0.125"
       d="M 98.730722,29.71875 C 97.922349,28.708979 97.6875,28.357054 97.6875,28.155467 c 0,-0.09015 0.44657,-0.638003 0.992378,-1.217454 0.545807,-0.579451 1.227565,-1.365052 1.515022,-1.74578 0.34644,-0.458864 0.61239,-0.692339 0.78887,-0.692547 0.17476,-2.06e-4 0.66278,0.418512 1.42047,1.21875 1.02962,1.087454 1.38741,1.656564 1.04145,1.656564 -0.1896,0 -1.98061,1.467788 -2.8416,2.328785 C 100.16617,30.141703 99.706234,30.5 99.582011,30.5 c -0.127008,0 -0.499589,-0.341927 -0.851289,-0.78125 z"
       id="path7244" />
    <path
       style="fill:#ffffff;stroke-width:0.125"
       d="m 103.67846,25.65625 c -2.15991,-2.254092 -2.27872,-2.46733 -1.68538,-3.024749 0.2185,-0.205268 0.39219,-0.26534 0.6095,-0.210798 0.37003,0.09287 2.95992,2.88691 2.95992,3.193239 0,0.311131 -0.52436,0.761058 -0.88697,0.761058 -0.21221,0 -0.52311,-0.224118 -0.99707,-0.71875 z"
       id="path7245" />
    <path
       style="fill:#ffffff;stroke-width:0.0625"
       d="m 28.948988,118.78445 c -0.131182,-0.0468 -0.29644,-0.13696 -0.36724,-0.20038 -0.22009,-0.19717 -0.875453,-1.07246 -1.583814,-2.11532 -1.423539,-2.09576 -2.365263,-3.32836 -4.47096,-5.85196 -0.683268,-0.81887 -1.315669,-1.60507 -1.405336,-1.74712 -0.189671,-0.30045 -0.16924,-0.50262 0.0664,-0.65702 0.26456,-0.17335 0.451766,-0.0661 1.1895,0.68169 0.5889,0.5969 6.313218,6.92145 7.986929,8.82441 l 0.549706,0.625 -0.225293,0.19636 c -0.123911,0.10799 -0.349085,0.22752 -0.500387,0.26562 -0.369164,0.093 -0.94701,0.083 -1.239504,-0.0213 z"
       id="path7246" />
    <path
       style="fill:#ffffff;stroke-width:0.0625"
       d="m 19.142279,106.95313 c -0.540243,-0.50704 -1.468264,-1.38417 -2.06227,-1.94919 -0.594005,-0.56502 -1.614384,-1.49628 -2.267509,-2.06946 -1.316923,-1.15573 -1.871261,-1.71076 -1.97388,-1.97634 -0.102694,-0.26577 -0.08097,-1.093165 0.03605,-1.373243 0.131691,-0.315179 0.332447,-0.522397 0.50611,-0.522397 0.172418,0 0.534666,0.385239 4.486946,4.77173 2.001371,2.22124 2.976023,3.34748 2.976023,3.43888 0,0.0747 -0.08642,0.24076 -0.19205,0.3689 -0.322164,0.39084 -0.393814,0.35814 -1.50942,-0.68888 z"
       id="path7247" />
    <path
       style="fill:#ffffff;stroke-width:0.0441942"
       d="m 83.151338,62.207074 c -0.367138,-0.132427 -0.243875,-0.297553 1.303728,-1.746514 2.351475,-2.201593 2.482153,-2.294195 2.816259,-1.995671 l 0.143906,0.12858 -0.180524,0.213925 c -0.422305,0.500443 -2.773875,2.684462 -3.458169,3.211774 -0.34386,0.264976 -0.380773,0.27607 -0.6252,0.187906 z"
       id="path7248" />
    <path
       style="fill:#1a1a1a;stroke-width:0.176777"
       d="m 28.107495,120.66401 c -0.742217,-0.33226 -1.358553,-1.04277 -3.530233,-4.06961 -3.214537,-4.48036 -6.543121,-8.14582 -10.684465,-11.76582 -2.484087,-2.17137 -3.198787,-3.15728 -3.196821,-4.40993 0.0026,-1.629985 -0.215344,-1.383174 9.910532,-11.225316 10.412858,-10.121083 14.152082,-13.663836 15.583636,-14.764821 0.51313,-0.39464 1.529583,-1.390464 2.258787,-2.21294 0.729204,-0.822478 5.024284,-5.017614 9.544621,-9.322522 11.919901,-11.351829 11.915876,-11.347781 11.773947,-11.837003 -1.11276,-3.835671 -2.174306,-9.170599 -1.979339,-9.947409 0.07087,-0.282353 0.615922,-0.982394 1.221925,-1.569377 0.923071,-0.8941 16.744939,-15.85739 17.400894,-16.456628 0.121122,-0.11065 0.339157,-1.102932 0.484522,-2.205072 0.180291,-1.366949 0.382652,-2.195389 0.636652,-2.606371 0.616799,-0.998 3.404039,-3.384181 4.107028,-3.516062 0.492221,-0.09234 1.516815,0.18731 5.183922,1.414888 2.513747,0.841488 4.906886,1.726216 5.318087,1.966062 0.411202,0.239847 1.951141,1.746264 3.422085,3.347595 1.470947,1.601331 2.695028,2.91151 2.720182,2.91151 0.02515,0 0.416723,-0.552953 0.870157,-1.228784 0.767071,-1.1433 2.884706,-3.217433 10.252946,-10.042337 l 1.57279,-1.456801 h 2.25437 2.25437 l 0.88276,0.965875 c 1.54676,1.692403 1.98516,3.1302 1.298,4.257026 -0.18055,0.296075 -2.62641,2.689161 -5.43523,5.317969 -6.16715,5.771912 -6.19762,5.798674 -7.79932,6.850393 -0.70299,0.461603 -1.32737,0.918899 -1.38752,1.016213 -0.0601,0.09731 0.37287,0.613315 0.96224,1.146667 0.62124,0.562189 1.9997,2.258321 3.27999,4.035869 3.07332,4.267009 3.32491,4.681063 3.20865,5.280755 -0.22488,1.15998 -3.04776,3.832922 -4.04793,3.832922 -0.68049,0 -1.05975,-0.244311 -2.65913,-1.712961 -0.66813,-0.613506 -1.31402,-1.115467 -1.43532,-1.115467 -0.35786,0 -1.98384,1.378887 -2.37797,2.016609 -0.623974,1.009612 -0.491395,1.746382 0.60872,3.382795 1.82843,2.719775 2.56317,4.972013 2.56317,7.857003 0,2.375106 -0.39456,4.015043 -1.53159,6.365807 l -0.98331,2.032932 -3.409854,3.36581 c -1.875424,1.851197 -3.683337,3.513089 -4.017586,3.693093 -1.421458,0.765507 -2.625728,-0.114987 -4.044944,-2.957438 -0.495226,-0.991852 -1.023412,-1.94258 -1.173746,-2.112728 -0.542016,-0.613446 -1.186291,-0.390754 -2.526079,0.873136 -0.689429,0.650372 -1.356648,1.386205 -1.48271,1.635184 -0.126061,0.24898 -0.284485,1.327735 -0.35205,2.397234 -0.209348,3.313709 -0.882424,5.85996 -2.387534,9.032073 -1.36846,2.884108 -2.437081,4.303683 -5.649338,7.504688 -3.235544,3.224211 -5.431922,5.133774 -7.019712,6.103037 -0.996924,0.608572 -1.093513,0.631613 -2.230436,0.532057 -1.125217,-0.09853 -1.303748,-0.05794 -3.358757,0.763665 -3.394194,1.357018 -8.101353,3.374201 -8.531521,3.656059 -0.474485,0.310893 -0.798306,0.979544 -0.798306,1.648403 0,0.296322 -0.232074,0.786018 -0.574524,1.212288 -0.544437,0.6777 -10.015788,9.53399 -17.419284,16.28811 -3.965853,3.61799 -4.655174,4.0824 -6.047822,4.07456 -0.53475,-0.003 -1.210921,-0.11231 -1.502602,-0.24289 z m 2.187802,-1.88892 c 0.522335,-0.18209 0.553191,-0.23823 0.445743,-0.81099 -0.11542,-0.61523 -0.115317,-0.61534 0.509806,-0.56149 0.568141,0.049 0.800765,-0.10066 2.546866,-1.63799 4.273934,-3.76292 14.529285,-13.25169 16.530783,-15.29512 0.945248,-0.965046 1.30286,-1.495106 1.770046,-2.623599 0.582613,-1.407307 0.591072,-1.416961 1.732241,-1.97679 1.477739,-0.72494 6.84708,-3.032291 9.013333,-3.873274 1.209666,-0.469616 2.050205,-0.676077 3.005204,-0.738165 0.729204,-0.04741 1.564474,-0.20539 1.856155,-0.351071 1.078404,-0.538612 3.092371,-2.309659 6.363961,-5.596351 2.659735,-2.672012 3.558614,-3.699901 4.319055,-4.938936 1.828472,-2.979247 2.78159,-6.021198 3.276165,-10.456131 0.343583,-3.08097 0.338513,-3.070461 2.62232,-5.435883 l 1.493425,-1.546796 1.127197,6.61e-4 c 1.761757,10e-4 2.49456,0.62956 3.832982,3.28756 0.298693,0.593181 0.753458,1.328534 1.010588,1.634115 l 0.467511,0.555604 1.00165,-0.774616 c 1.301559,-1.006547 5.098454,-4.901965 5.846566,-5.998276 1.157286,-1.695928 1.795916,-3.372747 1.987406,-5.218234 0.31457,-3.031658 -0.13006,-5.17468 -1.546161,-7.452173 -1.801202,-2.896851 -2.163884,-4.183582 -1.575867,-5.590905 0.354231,-0.847792 2.588308,-3.124904 3.444758,-3.511108 1.04145,-0.46963 1.64914,-0.263583 3.41585,1.158209 l 1.55123,1.248385 0.85126,-0.712709 c 1.47682,-1.236467 1.52448,-0.935953 -0.62271,-3.926342 -2.24414,-3.125394 -3.58164,-4.749846 -4.59087,-5.575818 l -0.72547,-0.593734 -0.45146,0.355118 c -0.24831,0.195315 -0.68483,0.355118 -0.970067,0.355118 -0.501284,0 -0.519664,-0.02995 -0.550338,-0.896601 -0.02106,-0.594868 0.0315,-0.857521 0.156164,-0.780475 0.103344,0.06387 0.761291,-0.39231 1.462101,-1.013733 0.70082,-0.621424 1.60053,-1.387761 1.99936,-1.70297 0.59516,-0.470374 0.70938,-0.655585 0.63719,-1.033206 -0.0853,-0.446173 -0.0662,-0.457177 0.63154,-0.363593 0.94891,0.127275 1.46079,-0.362092 1.32144,-1.263326 -0.0928,-0.600327 -0.0918,-0.601351 0.51881,-0.502268 0.57871,0.09391 0.73074,-0.0073 2.80827,-1.869914 3.80922,-3.415132 7.05779,-6.678431 7.05779,-7.089792 0,-0.65941 -1.40034,-2.365984 -2.35051,-2.864534 -0.46395,-0.243428 -0.52921,-0.230411 -1.06066,0.211546 -1.0007,0.832182 -6.35696,5.842774 -7.70389,7.206713 -1.2771,1.293236 -1.29803,1.328879 -1.01646,1.730876 0.15811,0.225747 0.28749,0.472299 0.28749,0.547892 0,0.204043 -1.13759,0.166586 -1.34858,-0.0444 -0.12461,-0.124611 -0.33048,-0.06493 -0.65407,0.189608 -0.58098,0.456994 -0.58309,0.540471 -0.0303,1.197437 0.24307,0.28887 0.44195,0.613172 0.44195,0.72067 0,0.241357 -0.79293,0.256573 -1.2283,0.02357 -0.2686,-0.143752 -0.52942,0.05876 -1.593701,1.237437 -1.098151,1.216184 -1.352008,1.409318 -1.852409,1.409318 -0.507056,0 -0.570263,-0.05025 -0.503374,-0.400155 0.05902,-0.308757 -0.315617,-0.843756 -1.640217,-2.342291 -2.374194,-2.685953 -4.143775,-4.485457 -4.699927,-4.779397 -0.643511,-0.340114 -7.679632,-2.662505 -8.509482,-2.808699 -0.64433,-0.113511 -0.717878,-0.07222 -1.894277,1.063498 -1.332856,1.286765 -1.480134,1.594816 -1.759762,3.680773 -0.103715,0.773688 -0.339398,1.640845 -0.528503,1.944543 -0.41402,0.664905 -4.510659,4.711484 -12.265661,12.115781 -3.192669,3.048286 -5.890979,5.731364 -5.996245,5.962395 -0.139172,0.305452 -0.132465,0.804979 0.02459,1.830897 0.327494,2.139332 1.518711,6.700841 2.129567,8.154723 0.29862,0.710735 0.542945,1.363889 0.542945,1.451452 0,0.08756 -0.303949,0.118438 -0.675439,0.06861 -0.644645,-0.08646 -0.751436,-0.02187 -2.342292,1.416705 C 57.268798,56.735361 43.658571,69.7921 41.475494,72.017473 l -1.834794,1.870338 0.464774,0.609349 c 0.255625,0.335142 0.464773,0.81353 0.464773,1.063086 0,0.381555 -0.08058,0.453736 -0.50649,0.453736 -0.27857,0 -0.708753,-0.159099 -0.955961,-0.353553 -0.247208,-0.194455 -0.547451,-0.353554 -0.667203,-0.353554 -0.309379,0 -2.219097,1.579155 -4.587861,3.793724 -3.140623,2.936185 -19.405464,18.903248 -19.426639,19.070975 -0.01034,0.08189 0.140302,0.351157 0.334756,0.598365 0.194454,0.247208 0.353553,0.518291 0.353553,0.602407 0,0.272565 -1.111509,0.161715 -1.44999,-0.144607 -0.293712,-0.265805 -0.357351,-0.268973 -0.596626,-0.0297 -0.353773,0.353772 -0.396059,1.619391 -0.06734,2.015561 0.141793,0.17089 1.80179,1.74629 3.688883,3.5009 2.981884,2.77254 3.499477,3.18499 3.953538,3.15039 0.466547,-0.0356 0.51134,0.004 0.418552,0.37419 -0.121478,0.48401 -0.01161,0.64899 2.45514,3.6868 0.975164,1.20091 2.359367,3.01875 3.076006,4.03963 2.138061,3.04577 2.417328,3.25767 3.702731,2.80958 z"
       id="path7249" />
    <path
       style="fill:#1a1a1a;stroke-width:0.0883883"
       d="m 51.501829,59.625124 c 0.01572,-0.06897 1.082609,-1.129577 2.370869,-2.356905 3.191591,-3.040633 5.604711,-5.461014 5.772533,-5.789898 0.132892,-0.260432 0.123251,-0.33182 -0.208536,-1.544116 -0.726347,-2.653954 -1.557995,-6.712811 -1.647708,-8.041642 -0.0596,-0.88277 0.01907,-1.09405 0.667263,-1.791987 0.40742,-0.438688 6.903627,-6.616333 14.207164,-13.510472 l 3.807971,-3.594517 0.143661,-0.692318 c 0.07901,-0.380775 0.247656,-1.326391 0.374762,-2.101371 0.127106,-0.774978 0.304822,-1.553557 0.394925,-1.730174 0.366946,-0.719272 3.118714,-3.280874 3.854848,-3.58845 0.703915,-0.294114 1.465539,-0.118252 5.734553,1.324132 3.024407,1.021866 4.548624,1.586264 5.112771,1.893197 0.526579,0.286493 1.591197,1.331082 3.937988,3.863901 0.990948,1.069499 1.897818,2.043981 2.015266,2.165515 l 0.213544,0.220971 0.193847,-0.230275 c 0.106615,-0.126651 0.492157,-0.659125 0.856759,-1.183275 0.541263,-0.778119 1.011641,-1.28607 2.563261,-2.76803 2.68616,-2.565554 9.00275,-8.442151 9.17819,-8.538865 0.0807,-0.0445 0.33892,-0.252335 0.57375,-0.461853 0.90657,-0.808834 1.94896,-0.74893 3.38784,0.194691 0.59273,0.388714 1.64263,1.468355 2.16771,2.229122 0.97088,1.406676 1.05866,2.700027 0.2459,3.623365 -0.50005,0.568089 -3.0596,3.022122 -6.76175,6.482999 -4.03232,3.769527 -4.63947,4.297735 -6.07258,5.283021 -1.45442,0.999927 -1.48162,1.02112 -1.48162,1.154096 0,0.05976 0.45278,0.575739 1.00618,1.146621 1.02849,1.060979 2.51304,2.98356 4.78285,6.194052 1.40225,1.983388 1.67884,2.50274 1.60924,3.021663 -0.089,0.663188 -1.17014,1.997596 -2.43629,3.006872 -1.59484,1.271294 -2.01053,1.209837 -4.0339,-0.59638 -0.58337,-0.520755 -1.21008,-1.046665 -1.3927,-1.168688 l -0.33204,-0.221861 -0.49381,0.327871 c -0.70766,0.46986 -1.76818,1.544473 -1.975758,2.002011 -0.248592,0.547939 -0.235378,1.241819 0.03469,1.821884 0.117638,0.252665 0.488838,0.889061 0.824888,1.414214 1.59556,2.493414 2.19263,4.115505 2.41636,6.564673 0.17095,1.871438 -0.10943,4.216817 -0.68394,5.721164 l -0.14529,0.380441 h -1.04866 c -0.57675,0 -1.04851,-0.02983 -1.04834,-0.06629 1.6e-4,-0.03646 0.11438,-0.346241 0.25382,-0.688402 0.38662,-0.948714 0.552,-1.81215 0.62574,-3.266977 0.15848,-3.126779 -0.25197,-4.680358 -1.94988,-7.380427 -2.117759,-3.367706 -2.023979,-4.637225 0.52933,-7.165691 1.15242,-1.141213 1.73515,-1.500465 2.54244,-1.567412 0.4025,-0.03338 0.56345,0.003 1.02761,0.23227 0.3027,0.149516 0.87502,0.542323 1.27183,0.872903 0.39681,0.330581 0.9721,0.806532 1.27842,1.057668 l 0.55694,0.456612 0.24243,-0.172625 c 0.13334,-0.09494 0.56237,-0.473595 0.95339,-0.841445 0.82164,-0.772935 0.86037,-0.910588 0.44186,-1.570511 -0.79572,-1.25472 -3.69215,-5.143433 -4.69106,-6.298169 -0.64567,-0.74639 -1.84655,-1.7986 -2.04986,-1.796082 -0.0579,7.17e-4 -0.54276,0.383229 -1.07751,0.850026 -2.041523,1.782103 -4.005007,3.808157 -4.348215,4.486781 -0.352516,0.697029 -0.872775,1.423506 -1.230734,1.718566 -0.178606,0.147221 -0.561325,0.356152 -0.850488,0.464293 -0.383855,0.143552 -0.791869,0.424067 -1.511767,1.03936 -1.970402,1.684092 -4.70386,4.210898 -7.084812,6.549192 -0.875045,0.859366 -1.750089,1.695164 -1.944544,1.85733 -1.200145,1.000859 -7.115262,6.704023 -7.115262,6.860304 0,0.05969 0.09905,0.3213 0.220108,0.581348 0.121059,0.260049 0.220496,0.545672 0.22097,0.634717 0.0014,0.26698 -0.560919,0.871899 -1.899412,2.043223 l -1.267775,1.109439 h -0.537295 c -0.37706,0 -0.537295,-0.03367 -0.537295,-0.112908 0,-0.0621 0.696059,-0.804521 1.546796,-1.649824 0.850738,-0.845304 1.546797,-1.567497 1.546797,-1.604874 0,-0.128546 -1.041155,-1.362018 -1.669194,-1.977518 l -0.628904,-0.616348 -0.596621,0.585099 c -0.328142,0.321804 -1.292679,1.187865 -2.143417,1.924578 -2.983916,2.583983 -3.255907,2.6561 -4.993801,1.324076 l -0.531808,-0.407608 -1.365368,1.267663 -1.365367,1.267664 h -1.08674 c -0.878839,0 -1.086741,-0.02396 -1.086741,-0.125262 0,-0.06889 0.825101,-0.924345 1.833559,-1.901004 l 1.833559,-1.775741 -0.206826,-0.389871 c -0.113754,-0.21443 -0.401378,-0.621826 -0.639163,-0.905327 -0.237786,-0.2835 -0.5777,-0.724272 -0.755364,-0.979494 -0.177665,-0.255221 -0.390977,-0.464039 -0.474027,-0.464039 -0.08305,0 -0.306125,0.113412 -0.495719,0.252027 -0.42963,0.314108 -2.900049,2.575502 -5.117689,4.684676 l -1.679379,1.597239 -1.354403,0.0034 c -1.125144,0.0028 -1.349566,-0.01783 -1.325825,-0.122001 z m 17.151268,-3.11985 c 1.184394,-1.016691 2.705406,-2.479537 3.263861,-3.139042 l 0.354019,-0.418078 -0.345131,-0.421611 c -1.199254,-1.465006 -2.105941,-2.651926 -2.583984,-3.382622 -1.479037,-2.260731 -2.560869,-5.413049 -2.59568,-7.56348 -0.01217,-0.751927 0.003,-0.824979 0.244833,-1.175074 0.420405,-0.608733 2.084657,-1.869187 6.54809,-4.959318 4.647798,-3.217771 4.433912,-3.044806 7.159457,-5.789706 2.59645,-2.614889 3.381887,-3.260658 4.296084,-3.532145 0.767109,-0.227807 1.191459,-0.06522 2.12782,0.815278 0.804647,0.756639 2.96483,3.069809 3.567047,3.819669 0.721152,0.897955 0.869127,1.251478 0.806143,1.925952 -0.0606,0.648948 -0.222826,0.950539 -0.826106,1.535794 -0.451129,0.437649 -1.079401,0.692506 -1.707162,0.692506 -0.223855,0 -0.449769,0.09087 -0.741441,0.298245 -0.716891,0.509691 -15.215594,14.268313 -15.993485,15.177105 -0.303089,0.35409 -0.310784,0.379613 -0.186765,0.61944 0.07114,0.137573 0.348206,0.474299 0.615696,0.74828 l 0.486346,0.498146 0.330766,-0.285353 c 0.994352,-0.85783 8.595865,-8.01143 12.275774,-11.552435 1.173888,-1.129575 2.336022,-2.325829 2.582523,-2.658338 0.2465,-0.332511 0.78259,-0.919753 1.191312,-1.304983 0.668196,-0.629791 0.762482,-0.759582 0.935052,-1.287161 0.148227,-0.453156 0.28987,-0.682921 0.622117,-1.009167 0.63213,-0.62071 0.717172,-0.651322 1.819239,-0.65486 0.848579,-0.0027 1.023047,0.02277 1.339653,0.195742 0.513978,0.280806 1.252331,0.850791 1.35809,1.048404 0.04914,0.09181 0.13766,0.166876 0.196716,0.166803 0.258104,-3.18e-4 3.510328,-3.008815 3.510328,-3.247256 0,-0.0622 -0.500736,-0.699384 -1.112747,-1.41596 -0.61201,-0.716575 -1.215248,-1.476748 -1.340528,-1.689271 l -0.22778,-0.386406 0.324121,-0.63006 c 0.178267,-0.346533 0.324095,-0.715178 0.324062,-0.81921 -1.12e-4,-0.353726 -1.369299,-1.989337 -4.216686,-5.037196 -1.566407,-1.676689 -1.76334,-1.82791 -2.98324,-2.290769 -1.243769,-0.471916 -5.186594,-1.791585 -6.468412,-2.164986 -1.372403,-0.399789 -1.72763,-0.425924 -2.084879,-0.153391 -0.564278,0.430469 -1.656816,1.499855 -1.974579,1.932735 -0.40859,0.55661 -0.522101,0.941464 -0.744133,2.522958 -0.09876,0.703442 -0.236677,1.415678 -0.306482,1.582746 -0.37337,0.893601 -1.295025,1.863388 -6.45558,6.792716 -10.341553,9.878183 -12.013148,11.524028 -12.114513,11.927896 -0.146659,0.58434 0.227785,2.796843 0.968333,5.721648 0.816923,3.226452 1.519157,4.989187 2.533978,6.360748 0.588562,0.79546 2.496684,2.800895 3.198945,3.362089 0.379287,0.303099 0.447366,0.327604 0.682458,0.245651 0.143628,-0.05007 0.749531,-0.510272 1.34645,-1.022673 z m 7.011791,-2.346172 c 0.678214,-0.542555 14.248507,-13.316295 14.306085,-13.466342 0.03523,-0.09182 -0.03251,-0.286547 -0.174115,-0.500534 -0.268639,-0.405941 -0.966321,-1.124576 -1.091786,-1.124576 -0.04712,0 -0.335858,0.228705 -0.641634,0.508233 -1.274163,1.164787 -11.497997,10.870263 -13.810254,13.110061 l -0.346581,0.33572 0.383333,0.496872 c 0.339901,0.440574 0.849897,0.926508 0.972742,0.926848 0.02431,6.8e-5 0.205302,-0.128759 0.40221,-0.286282 z m -3.48866,-6.182788 c 0.698182,-0.646076 3.915583,-3.677578 7.149781,-6.736672 6.761222,-6.39516 8.163517,-7.69818 8.532009,-7.927985 0.179217,-0.111766 0.430797,-0.165473 0.776171,-0.165696 0.90654,-5.86e-4 0.870574,-0.07284 -1.197982,-2.406705 -1.264612,-1.42681 -1.879315,-1.954938 -2.018946,-1.734599 -0.04158,0.06562 -0.07621,0.249849 -0.07696,0.409405 -0.0036,0.76964 0.01,0.755437 -8.711747,9.118593 -7.39506,7.091032 -7.729839,7.424904 -7.729839,7.708913 0,0.313824 1.175743,2.630234 1.462083,2.880547 0.17212,0.150464 0.26673,0.178346 0.386917,0.114024 0.0875,-0.04683 0.730329,-0.613749 1.428511,-1.259825 z m 0.434177,-8.327506 c 1.725441,-1.656511 3.435755,-3.305367 3.800699,-3.664124 l 0.663535,-0.652286 -0.574524,0.395702 c -0.315988,0.217636 -1.847316,1.263538 -3.402951,2.324227 -3.112627,2.122303 -3.959691,2.731771 -4.277957,3.07802 -0.200009,0.217595 -0.208787,0.272418 -0.154078,0.962274 0.03191,0.402343 0.08228,0.821065 0.111938,0.930493 0.05353,0.197512 0.05626,0.196917 0.375049,-0.08176 0.176619,-0.154392 1.732849,-1.636041 3.458289,-3.29255 z m 19.054366,-0.2514 c 0.291649,-0.256719 0.500345,-0.561727 0.741488,-1.083683 0.184581,-0.399524 0.492658,-0.960122 0.684618,-1.245775 0.191959,-0.285653 0.376096,-0.565719 0.409193,-0.62237 0.08388,-0.143573 -0.361206,-0.648299 -0.571698,-0.648299 -0.09517,0 -0.495012,0.185714 -0.888535,0.412699 -0.393525,0.226984 -0.918687,0.497179 -1.167028,0.600433 -0.959958,0.399125 -1.556384,0.897295 -1.556384,1.299985 0,0.115642 0.293924,0.479568 0.779468,0.965113 0.889306,0.889306 0.917659,0.895123 1.568878,0.321897 z m 2.010862,-1.256841 c 1.048904,-0.43826 1.51289,-1.830271 0.961731,-2.885309 -0.345748,-0.661839 -0.730271,-0.868816 -1.617654,-0.870737 -0.553288,-0.0012 -0.724391,0.03389 -0.968987,0.198727 -0.335253,0.225927 -0.853961,0.914123 -0.759894,1.008191 0.03393,0.03393 0.329457,-0.06429 0.65673,-0.218269 1.057438,-0.497508 1.665762,-0.436557 2.027428,0.20314 0.377886,0.668384 0.250068,1.371116 -0.384718,2.115133 -0.163002,0.191052 -0.296368,0.399869 -0.296368,0.464039 0,0.144946 -9.59e-4,0.144984 0.381732,-0.01492 z m -2.948126,-5.486276 c 0.0017,-0.05148 -0.05527,-0.1708 -0.12664,-0.265165 -0.119161,-0.157546 -0.129745,-0.131829 -0.12945,0.314563 3.08e-4,0.465621 0.0057,0.476811 0.12664,0.265165 0.06947,-0.121534 0.127728,-0.263087 0.12945,-0.314563 z m -7.206962,-3.121094 c 0.271271,-0.18167 0.401556,-0.36558 0.596303,-0.841737 0.298635,-0.730168 0.361875,-0.812514 0.792823,-1.032367 0.56661,-0.289063 1.149297,-0.182314 1.838734,0.33686 0.354878,0.267237 0.270324,0.119002 -0.255637,-0.448171 -0.402555,-0.434096 -0.704123,-0.589336 -1.14484,-0.589336 -0.294067,0 -0.446813,0.07618 -0.91037,0.454048 -0.704771,0.574492 -3.341249,3.219065 -3.341249,3.35151 0,0.10144 1.798029,-0.811436 2.424236,-1.230807 z m 16.238272,0.865669 c 0.09775,-0.05231 0.602263,-0.475595 1.121143,-0.940626 0.51888,-0.465032 1.31411,-1.142147 1.76717,-1.5047 0.45306,-0.362553 0.84529,-0.715324 0.87162,-0.783936 0.0263,-0.06861 -0.104,-0.313234 -0.28962,-0.543604 -0.52516,-0.651768 -1.64323,-1.794956 -1.92864,-1.971968 -0.22823,-0.141546 -0.28512,-0.145676 -0.49707,-0.03607 -0.13164,0.06807 -0.41341,0.333542 -0.62616,0.58993 -0.212749,0.256388 -0.799759,0.924191 -1.304468,1.484008 -1.114087,1.23573 -1.194501,1.352389 -1.12449,1.631334 0.09648,0.384418 1.542332,2.170747 1.756997,2.170747 0.04169,0 0.155771,-0.0428 0.253518,-0.09511 z m 5.141863,-4.070183 c 0.36753,-0.189287 0.59081,-0.458342 0.59081,-0.71191 0,-0.269814 -0.62068,-1.049604 -1.80276,-2.264882 -0.81407,-0.836927 -1.1249,-1.036003 -1.39776,-0.895217 -0.64369,0.332119 -0.75217,0.73038 -0.34988,1.284433 0.37419,0.515348 1.91908,2.165854 2.28755,2.443941 0.36306,0.273999 0.40254,0.282438 0.67204,0.143635 z m 2.73592,-2.565348 c 2.56915,-2.209108 7.5948,-7.034212 8.05459,-7.733166 0.23042,-0.350276 0.23507,-0.379273 0.10927,-0.680353 -0.50184,-1.201081 -2.22379,-2.828683 -2.83133,-2.676201 -0.43613,0.109462 -8.98937,8.143625 -9.29686,8.732653 -0.11653,0.223241 -0.1047,0.262411 0.2002,0.662913 0.49633,0.651958 1.79879,2.040024 2.18349,2.327012 0.32566,0.24295 0.35671,0.249409 0.59831,0.124475 0.14015,-0.07247 0.5822,-0.413274 0.98233,-0.757333 z"
       id="path7250" />
    <path
       style="fill:#1a1a1a;stroke-width:0.0883883"
       d="m 82.831646,63.13564 c -0.09076,-0.02382 -0.337162,-0.174706 -0.547568,-0.335313 -0.210405,-0.160606 -0.712884,-0.400724 -1.116618,-0.533595 -1.897201,-0.624378 -2.812461,-1.373763 -3.270899,-2.678101 -0.211612,-0.602075 -0.354448,-2.356087 -0.24122,-2.962166 0.213461,-1.142603 0.962769,-2.079726 3.722776,-4.655891 1.710762,-1.59681 2.506575,-2.192041 3.150223,-2.35622 0.275688,-0.07032 1.058097,-0.313272 1.738687,-0.539892 l 1.237437,-0.412035 1.285949,-0.0023 1.285949,-0.0023 0.702789,0.345813 c 0.885504,0.435719 1.831696,1.344839 2.238241,2.150548 0.905183,1.793924 0.676905,3.854855 -0.616913,5.569592 -0.727616,0.964331 -1.630038,1.499982 -3.000672,1.781113 -0.537359,0.110217 -0.866064,0.222832 -0.923013,0.316227 -0.175467,0.287763 -3.722656,3.807615 -4.066876,4.035534 -0.350466,0.232054 -1.190993,0.380655 -1.578272,0.279028 z m 1.579226,-1.624497 c 1.239038,-1.102841 2.797463,-2.592457 2.88675,-2.759292 0.126007,-0.235444 -0.09818,-0.457978 -0.388082,-0.385217 -0.116677,0.02928 -0.507847,0.305868 -0.869268,0.614631 -0.989957,0.845725 -3.091547,2.919119 -3.089557,3.048106 0.0029,0.188208 0.373777,0.276556 0.620468,0.147806 0.121534,-0.06343 0.499394,-0.363145 0.839689,-0.666034 z m -2.164674,-0.481464 c 0.247876,-0.125902 2.562422,-2.317043 2.562422,-2.425802 0,-0.03814 -0.126489,-0.121737 -0.281086,-0.185774 -0.154598,-0.06404 -0.592528,-0.424127 -0.97318,-0.800202 -1.132753,-1.119134 -1.443467,-1.985563 -1.381334,-3.851872 0.0199,-0.597616 0.01042,-1.086574 -0.02107,-1.086574 -0.03148,0 -0.730492,0.686115 -1.553355,1.524699 -1.682734,1.714885 -1.82567,1.939658 -1.982402,3.117433 -0.132588,0.996335 -0.08199,1.47034 0.223277,2.091608 0.476039,0.968827 1.279204,1.563179 2.348996,1.738289 0.508687,0.08326 0.696586,0.06163 1.057729,-0.121805 z m 4.470835,-4.514211 c 0.568614,-0.141183 0.72198,-0.144661 1.65258,-0.03747 0.948989,0.109308 1.057399,0.106086 1.447854,-0.04303 1.175141,-0.44879 2.011181,-1.990754 1.842515,-3.398273 -0.126107,-1.052371 -0.689299,-1.863851 -1.607181,-2.315723 -0.828344,-0.407792 -1.402411,-0.398902 -2.473557,0.03831 -0.445006,0.181639 -1.098621,0.395633 -1.452476,0.475544 -0.558336,0.126088 -0.694152,0.197539 -1.027545,0.540575 -0.532384,0.547783 -0.790773,1.028394 -0.909274,1.691272 -0.234778,1.313325 0.298058,2.565646 1.320581,3.103753 0.173006,0.09105 0.374218,0.150942 0.447138,0.133105 0.07292,-0.01784 0.414634,-0.102462 0.759365,-0.188057 z"
       id="path7251" />
    <path
       style="fill:#1a1a1a;stroke-width:0.0883883"
       d="m 11.001461,101.79324 c -0.412863,-0.93335 -0.436969,-1.79812 -0.07677,-2.754096 0.18502,-0.491051 0.386854,-0.717046 2.7251,-3.051306 3.323992,-3.318325 15.618964,-15.236333 19.142289,-18.555386 0.583363,-0.549541 1.617236,-1.481313 2.297495,-2.070606 0.68026,-0.589292 2.529786,-2.364626 4.110058,-3.945187 1.580274,-1.58056 4.305733,-4.245469 6.056576,-5.922019 11.80836,-11.307292 14.307826,-13.762862 14.40566,-14.152667 0.03489,-0.139015 -0.109103,-0.864494 -0.38491,-1.939281 -0.821468,-3.201162 -1.515171,-6.75996 -1.515171,-7.77305 0,-0.284654 0.04081,-0.624882 0.09068,-0.756062 0.141021,-0.370912 0.953833,-1.172798 7.17617,-7.079714 l 5.808444,-5.514003 1.434947,0.0243 1.434949,0.0243 -4.812712,4.594509 c -6.223531,5.941362 -8.698978,8.386141 -8.882117,8.772078 -0.188869,0.398012 -0.129865,1.151132 0.233882,2.985258 0.898402,4.530016 1.988201,7.6431 3.279871,9.369165 0.651006,0.869943 3.158244,3.376178 3.451047,3.449667 0.170126,0.0427 0.331156,0.0013 0.571117,-0.146876 0.741929,-0.4581 3.390112,-2.86457 4.270077,-3.880326 l 0.44096,-0.509006 -1.155667,-1.445467 c -1.847435,-2.310709 -2.688273,-3.696019 -3.398844,-5.59972 -0.702204,-1.881286 -1.158569,-4.344922 -0.939994,-5.07446 0.215899,-0.720605 1.409952,-1.675489 6.641927,-5.311545 4.412536,-3.066572 4.789355,-3.362875 6.597066,-5.18745 0.881718,-0.889943 1.647382,-1.618079 1.701475,-1.618079 0.06311,0 0.09835,0.228262 0.09835,0.637089 0,0.615539 -0.01121,0.648834 -0.331456,0.984305 -0.327866,0.343455 -0.290734,0.383604 0.176776,0.191139 0.143858,-0.05922 0.15468,0.04486 0.15468,1.487576 v 1.551255 l -5.457981,5.238314 c -3.001889,2.881073 -5.910365,5.687706 -6.46328,6.236963 -1.175817,1.16804 -1.148981,1.025523 -0.460074,2.443324 0.621842,1.279777 0.931367,1.736374 1.176166,1.735027 0.240478,-0.0013 0.504853,-0.241327 6.467594,-5.871376 2.474454,-2.336392 4.552685,-4.260846 4.618291,-4.276563 0.09507,-0.02278 0.119284,0.186158 0.119284,1.029094 v 1.057673 l -1.701476,1.61952 c -4.712415,4.485432 -7.901579,7.589182 -8.014136,7.799498 -0.103628,0.19363 -0.105636,0.271117 -0.01158,0.446866 0.16265,0.303914 0.951668,1.113208 1.085318,1.113208 0.137214,0 0.855344,-0.653825 5.089762,-4.634006 1.813895,-1.704986 3.355166,-3.112835 3.425049,-3.128552 0.10025,-0.02255 0.12706,0.09102 0.12706,0.538243 v 0.566822 l -2.496971,2.372861 c -1.373334,1.305074 -3.142758,2.998678 -3.932054,3.763563 l -1.435084,1.390703 0.408266,0.543113 c 0.47735,0.635016 0.747214,0.83651 1.024946,0.765276 0.109735,-0.02814 1.548186,-1.315265 3.196557,-2.860268 1.648372,-1.545002 3.050432,-2.821955 3.115689,-2.837672 0.09072,-0.02185 0.118651,0.11743 0.118651,0.591609 0,0.504191 -0.03073,0.641789 -0.164332,0.735685 -0.304803,0.214224 -5.415363,5.142042 -5.503476,5.306683 -0.06521,0.121836 -0.03014,0.287922 0.13861,0.656519 0.124243,0.271383 0.225897,0.570499 0.225897,0.664703 0,0.291579 -0.516916,0.842067 -2.077126,2.212025 -1.470828,1.291476 -7.573711,7.154231 -7.511752,7.21619 0.01726,0.01726 0.262686,0.06258 0.545392,0.10071 1.352318,0.1824 2.151079,0.567017 3.172313,1.527522 1.055235,0.992484 1.622578,2.35293 1.501366,3.600154 -0.119031,1.224773 -0.469566,2.256816 -1.636158,4.817165 -2.086031,4.578264 -3.322183,6.406936 -4.799844,7.100531 -0.833865,0.391406 -1.397341,0.495703 -2.62922,0.486655 -1.75779,-0.01291 -2.637686,-0.26233 -3.70986,-1.05162 -0.951415,-0.700391 -1.9389,-2.121257 -2.330705,-3.353585 -0.371392,-1.168126 -0.462888,-2.345913 -0.267676,-3.445688 l 0.0625,-0.352097 -0.397061,0.352097 c -2.578149,2.286187 -4.563406,4.090396 -5.939593,5.397924 -0.91654,0.870813 -1.887616,1.781258 -2.157945,2.023207 -0.918296,0.821894 -2.392427,2.519556 -2.66981,3.074649 -0.333199,0.666789 -0.369963,1.477109 -0.09298,2.049286 0.218842,0.452067 1.113485,1.554303 3.052763,3.761126 1.761715,2.004764 3.225047,3.770951 3.225047,3.892512 0,0.04673 -0.140916,0.08496 -0.313146,0.08496 -0.378544,0 -0.649595,-0.238504 -2.467752,-2.171428 -2.137413,-2.272332 -3.916838,-4.370441 -4.189202,-4.939464 -0.375272,-0.784016 -0.54291,-1.218741 -0.54291,-1.407894 0,-0.498553 -0.145072,-0.410327 -1.723572,1.048188 -0.583363,0.53902 -1.895069,1.734412 -2.9149,2.656424 -2.172754,1.96435 -5.593418,5.121381 -9.211835,8.501874 l -2.580793,2.411092 h -0.57909 c -0.442049,0 -0.579091,-0.0298 -0.579091,-0.12585 0,-0.0692 0.72589,-0.79468 1.613088,-1.61214 6.985028,-6.435957 7.999003,-7.376413 20.660776,-19.162767 C 66.21585,65.261157 72.515497,59.331058 74.403916,57.373162 l 0.9532,-0.988268 -0.290287,-0.407852 c -0.159658,-0.224319 -0.670493,-0.806609 -1.13519,-1.293979 l -0.844903,-0.886128 -0.657699,0.62169 c -1.131239,1.069304 -3.622789,3.198676 -4.17134,3.564984 -0.603581,0.403056 -1.109413,0.564903 -1.509794,0.483078 -0.280025,-0.05723 -1.344174,-0.701944 -1.713291,-1.037998 -0.172026,-0.156617 -0.216788,-0.163372 -0.366108,-0.05525 -0.814839,0.590016 -10.736217,9.935306 -14.773282,13.915467 -1.385487,1.365958 -2.996365,2.877687 -3.579728,3.359397 -0.583363,0.481711 -1.458407,1.228263 -1.944543,1.659006 -0.486136,0.430743 -1.194587,1.018254 -1.574334,1.30558 -1.024125,0.774879 -1.005993,0.779826 -2.403142,-0.655759 -0.631977,-0.649363 -1.320718,-1.293344 -1.530537,-1.431067 l -0.381488,-0.250408 -0.281425,0.163393 c -1.115187,0.647465 -3.170601,2.524638 -9.914613,9.054838 -4.342504,4.204829 -13.833917,13.606653 -13.833917,13.703339 0,0.154427 0.63097,0.970358 1.847225,2.388715 l 1.326393,1.5468 -0.59244,0.028 -0.59244,0.028 -0.883118,-0.95608 c -1.91404,-2.072155 -2.030442,-2.180384 -2.278172,-2.118208 -0.327726,0.08225 -0.540358,0.682957 -0.489691,1.383418 0.03785,0.52333 0.05297,0.55102 0.604912,1.10791 l 0.566088,0.57116 H 12.565719 11.171186 Z M 64.304955,81.588505 c 1.147108,-0.357019 1.831806,-0.987468 2.520391,-2.320695 0.569793,-1.103225 2.81686,-5.879484 3.150017,-6.695525 0.22947,-0.56207 0.26806,-0.769469 0.265971,-1.429443 -0.0029,-0.927284 -0.191744,-1.432665 -0.750224,-2.008112 -0.766262,-0.78954 -1.589954,-1.070284 -2.631113,-0.896775 -0.997915,0.166302 -1.291467,0.385287 -4.333605,3.232813 -2.467766,2.309897 -2.911288,2.79685 -3.345477,3.673081 -0.669932,1.351978 -0.682901,2.946768 -0.03484,4.283701 0.513939,1.060234 1.876348,2.142277 2.941374,2.33608 0.556159,0.101203 1.592665,0.01935 2.217501,-0.175125 z M 43.269821,75.631609 c 1.504885,-1.247363 3.430927,-3.046894 4.379355,-4.0917 1.518243,-1.672524 3.210072,-3.359637 7.460959,-7.440167 2.357759,-2.263272 5.212237,-5.025471 6.343285,-6.138223 l 2.05645,-2.023184 -0.141558,-0.29831 c -0.07786,-0.16407 -0.307201,-0.51351 -0.509653,-0.776533 -0.667081,-0.866654 -1.311611,-1.653707 -1.354248,-1.653707 -0.42173,0 -3.001579,2.375626 -12.714043,11.707589 -4.956161,4.761996 -9.059806,8.826726 -9.059806,8.973893 0,0.324211 2.054953,2.653042 2.341035,2.653042 0.0534,0 0.592603,-0.410715 1.198224,-0.9127 z M 72.409903,39.802847 c 1.885015,-1.80756 3.626173,-3.493914 3.869241,-3.747454 l 0.441942,-0.46098 -0.574524,0.398777 c -0.315989,0.219328 -1.727993,1.185929 -3.137787,2.148003 -3.088897,2.10793 -4.154152,2.888246 -4.290364,3.14276 -0.136251,0.254588 0.02988,1.885735 0.186588,1.831985 0.04268,-0.01464 1.61989,-1.505531 3.504904,-3.313091 z"
       id="path7252" />
    <path
       style="fill:#1a1a1a;stroke-width:0.0441942"
       d="m 45.542096,78.663656 c 0,-0.15156 0.404079,-0.602371 1.843553,-2.05676 0.790695,-0.798889 0.791036,-0.79932 0.874833,-1.104855 0.09954,-0.362948 0.101586,-0.558099 0.0086,-0.819285 -0.03789,-0.106412 -0.07979,-0.25811 -0.0931,-0.337107 -0.0232,-0.137711 -0.01824,-0.143631 0.120408,-0.143631 0.109409,0 0.183251,0.04034 0.303385,0.165728 0.247864,0.258713 0.313461,0.424102 0.291956,0.736114 -0.03775,0.547684 -0.437753,1.136052 -1.492651,2.195544 -0.973938,0.978182 -1.575686,1.498808 -1.732342,1.498808 -0.10941,0 -0.12462,-0.01642 -0.12462,-0.134556 z"
       id="path7253" />
  </g>
</svg>
