<?xml version="1.0" encoding="UTF-8" standalone="no"?>
<svg
   version="1.0"
   width="128"
   height="128"
   viewBox="0 0 128 128"
   preserveAspectRatio="xMidYMid"
   id="svg1215"
   sodipodi:docname="loot-weapon-pkm.svg"
   inkscape:version="1.4 (86a8ad7, 2024-10-11)"
   xmlns:inkscape="http://www.inkscape.org/namespaces/inkscape"
   xmlns:sodipodi="http://sodipodi.sourceforge.net/DTD/sodipodi-0.dtd"
   xmlns="http://www.w3.org/2000/svg"
   xmlns:svg="http://www.w3.org/2000/svg">
  <defs
     id="defs1215">
    <filter
       style="color-interpolation-filters:sRGB;"
       inkscape:label="Lightness-Contrast"
       id="filter846"
       x="0"
       y="0"
       width="1"
       height="1">
      <feColorMatrix
         values="1 0 0 -0.1006 -0 0 1 0 -0.1006 -0 0 0 1 -0.1006 -0 0 0 0 1 0"
         id="feColorMatrix846" />
    </filter>
    <filter
       style="color-interpolation-filters:sRGB;"
       inkscape:label="Lightness-Contrast"
       id="filter847"
       x="0"
       y="0"
       width="1"
       height="1">
      <feColorMatrix
         values="1 0 0 -0.1006 -0 0 1 0 -0.1006 -0 0 0 1 -0.1006 -0 0 0 0 1 0"
         id="feColorMatrix847" />
    </filter>
    <filter
       style="color-interpolation-filters:sRGB;"
       inkscape:label="Lightness-Contrast"
       id="filter848"
       x="0"
       y="0"
       width="1"
       height="1">
      <feColorMatrix
         values="1 0 0 -0.1006 -0 0 1 0 -0.1006 -0 0 0 1 -0.1006 -0 0 0 0 1 0"
         id="feColorMatrix848" />
    </filter>
    <filter
       style="color-interpolation-filters:sRGB;"
       inkscape:label="Lightness-Contrast"
       id="filter849"
       x="0"
       y="0"
       width="1"
       height="1">
      <feColorMatrix
         values="1 0 0 -0.1006 -0 0 1 0 -0.1006 -0 0 0 1 -0.1006 -0 0 0 0 1 0"
         id="feColorMatrix849" />
    </filter>
    <filter
       style="color-interpolation-filters:sRGB;"
       inkscape:label="Lightness-Contrast"
       id="filter850"
       x="0"
       y="0"
       width="1"
       height="1">
      <feColorMatrix
         values="1 0 0 -0.1006 -0 0 1 0 -0.1006 -0 0 0 1 -0.1006 -0 0 0 0 1 0"
         id="feColorMatrix850" />
    </filter>
    <filter
       style="color-interpolation-filters:sRGB;"
       inkscape:label="Lightness-Contrast"
       id="filter851"
       x="0"
       y="0"
       width="1"
       height="1">
      <feColorMatrix
         values="1 0 0 -0.1006 -0 0 1 0 -0.1006 -0 0 0 1 -0.1006 -0 0 0 0 1 0"
         id="feColorMatrix851" />
    </filter>
    <filter
       style="color-interpolation-filters:sRGB;"
       inkscape:label="Lightness-Contrast"
       id="filter852"
       x="0"
       y="0"
       width="1"
       height="1">
      <feColorMatrix
         values="1 0 0 -0.1006 -0 0 1 0 -0.1006 -0 0 0 1 -0.1006 -0 0 0 0 1 0"
         id="feColorMatrix852" />
    </filter>
    <filter
       style="color-interpolation-filters:sRGB;"
       inkscape:label="Lightness-Contrast"
       id="filter853"
       x="0"
       y="0"
       width="1"
       height="1">
      <feColorMatrix
         values="1 0 0 -0.1006 -0 0 1 0 -0.1006 -0 0 0 1 -0.1006 -0 0 0 0 1 0"
         id="feColorMatrix853" />
    </filter>
    <filter
       style="color-interpolation-filters:sRGB;"
       inkscape:label="Lightness-Contrast"
       id="filter854"
       x="0"
       y="0"
       width="1"
       height="1">
      <feColorMatrix
         values="1 0 0 -0.1006 -0 0 1 0 -0.1006 -0 0 0 1 -0.1006 -0 0 0 0 1 0"
         id="feColorMatrix854" />
    </filter>
    <filter
       style="color-interpolation-filters:sRGB;"
       inkscape:label="Lightness-Contrast"
       id="filter855"
       x="0"
       y="0"
       width="1"
       height="1">
      <feColorMatrix
         values="1 0 0 -0.1006 -0 0 1 0 -0.1006 -0 0 0 1 -0.1006 -0 0 0 0 1 0"
         id="feColorMatrix855" />
    </filter>
    <filter
       style="color-interpolation-filters:sRGB;"
       inkscape:label="Lightness-Contrast"
       id="filter856"
       x="0"
       y="0"
       width="1"
       height="1">
      <feColorMatrix
         values="1 0 0 -0.1006 -0 0 1 0 -0.1006 -0 0 0 1 -0.1006 -0 0 0 0 1 0"
         id="feColorMatrix856" />
    </filter>
    <filter
       style="color-interpolation-filters:sRGB;"
       inkscape:label="Lightness-Contrast"
       id="filter857"
       x="0"
       y="0"
       width="1"
       height="1">
      <feColorMatrix
         values="1 0 0 -0.1006 -0 0 1 0 -0.1006 -0 0 0 1 -0.1006 -0 0 0 0 1 0"
         id="feColorMatrix857" />
    </filter>
    <filter
       style="color-interpolation-filters:sRGB;"
       inkscape:label="Lightness-Contrast"
       id="filter858"
       x="0"
       y="0"
       width="1"
       height="1">
      <feColorMatrix
         values="1 0 0 -0.1006 -0 0 1 0 -0.1006 -0 0 0 1 -0.1006 -0 0 0 0 1 0"
         id="feColorMatrix858" />
    </filter>
    <filter
       style="color-interpolation-filters:sRGB;"
       inkscape:label="Lightness-Contrast"
       id="filter859"
       x="0"
       y="0"
       width="1"
       height="1">
      <feColorMatrix
         values="1 0 0 -0.1006 -0 0 1 0 -0.1006 -0 0 0 1 -0.1006 -0 0 0 0 1 0"
         id="feColorMatrix859" />
    </filter>
    <filter
       style="color-interpolation-filters:sRGB;"
       inkscape:label="Lightness-Contrast"
       id="filter860"
       x="0"
       y="0"
       width="1"
       height="1">
      <feColorMatrix
         values="1 0 0 -0.1006 -0 0 1 0 -0.1006 -0 0 0 1 -0.1006 -0 0 0 0 1 0"
         id="feColorMatrix860" />
    </filter>
    <filter
       style="color-interpolation-filters:sRGB;"
       inkscape:label="Lightness-Contrast"
       id="filter861"
       x="0"
       y="0"
       width="1"
       height="1">
      <feColorMatrix
         values="1 0 0 -0.1006 -0 0 1 0 -0.1006 -0 0 0 1 -0.1006 -0 0 0 0 1 0"
         id="feColorMatrix861" />
    </filter>
    <filter
       style="color-interpolation-filters:sRGB;"
       inkscape:label="Lightness-Contrast"
       id="filter862"
       x="0"
       y="0"
       width="1"
       height="1">
      <feColorMatrix
         values="1 0 0 -0.1006 -0 0 1 0 -0.1006 -0 0 0 1 -0.1006 -0 0 0 0 1 0"
         id="feColorMatrix862" />
    </filter>
    <filter
       style="color-interpolation-filters:sRGB;"
       inkscape:label="Lightness-Contrast"
       id="filter863"
       x="0"
       y="0"
       width="1"
       height="1">
      <feColorMatrix
         values="1 0 0 -0.1006 -0 0 1 0 -0.1006 -0 0 0 1 -0.1006 -0 0 0 0 1 0"
         id="feColorMatrix863" />
    </filter>
  </defs>
  <sodipodi:namedview
     id="namedview1215"
     pagecolor="#505050"
     bordercolor="#ffffff"
     borderopacity="1"
     inkscape:showpageshadow="0"
     inkscape:pageopacity="0"
     inkscape:pagecheckerboard="1"
     inkscape:deskcolor="#505050"
     showgrid="false"
     inkscape:zoom="2.2900735"
     inkscape:cx="-1.9650024"
     inkscape:cy="86.241773"
     inkscape:window-width="1366"
     inkscape:window-height="705"
     inkscape:window-x="-8"
     inkscape:window-y="-8"
     inkscape:window-maximized="1"
     inkscape:current-layer="svg1215" />
  <g
     fill="#000000"
     id="g1" />
  <g
     fill="#080808"
     id="g2" />
  <g
     fill="#101010"
     id="g3" />
  <g
     fill="#191919"
     id="g4" />
  <g
     fill="#212121"
     id="g5" />
  <g
     fill="#292929"
     id="g6" />
  <g
     fill="#313131"
     id="g7" />
  <g
     fill="#3a3a3a"
     id="g8" />
  <g
     fill="#424242"
     id="g9" />
  <g
     fill="#4a4a4a"
     id="g10" />
  <g
     fill="#525252"
     id="g11" />
  <g
     fill="#5a5a5a"
     id="g12" />
  <g
     fill="#636363"
     id="g13" />
  <g
     fill="#6b6b6b"
     id="g14" />
  <g
     fill="#737373"
     id="g24"
     transform="matrix(0.19403849,0,0,0.18613798,0.23623708,0.53363898)"
     style="filter:url(#filter846)">
    <path
       d="m 60,649.5 c 0,-3.3 0.2,-3.5 3.5,-3.5 3.3,0 3.5,0.2 3.5,3.5 0,3.3 -0.2,3.5 -3.5,3.5 -3.3,0 -3.5,-0.2 -3.5,-3.5 z"
       id="path14" />
    <path
       d="m 44,604 v -6 h 3.5 3.5 v 6 6 H 47.5 44 Z"
       id="path15" />
    <path
       d="m 145,469.5 c 0,-3.2 0.2,-3.5 3,-3.5 2.8,0 3,0.3 3,3.5 0,3.2 -0.2,3.5 -3,3.5 -2.8,0 -3,-0.3 -3,-3.5 z"
       id="path16" />
    <path
       d="m 162,461.5 c 0,-3.3 0.2,-3.5 3.5,-3.5 3.3,0 3.5,0.2 3.5,3.5 0,3.3 -0.2,3.5 -3.5,3.5 -3.3,0 -3.5,-0.2 -3.5,-3.5 z"
       id="path17" />
    <path
       d="m 216,448.5 c 0,-3.3 0.2,-3.5 3.5,-3.5 3.3,0 3.5,0.2 3.5,3.5 0,3.3 -0.2,3.5 -3.5,3.5 -3.3,0 -3.5,-0.2 -3.5,-3.5 z"
       id="path18" />
    <path
       d="m 196,393.5 c 0,-4.4 0.1,-4.5 3.1,-4.5 3.9,0 5.9,2 5.9,5.9 0,3 -0.1,3.1 -4.5,3.1 H 196 Z"
       id="path19" />
    <path
       d="m 199,387.3 c 1.4,-0.3 2.9,-0.9 3.5,-1.4 0.6,-0.6 -0.3,-0.7 -2.3,-0.3 -3.3,0.7 -4,-0.4 -2.6,-4 1,-2.5 4.4,-2 4.5,0.7 0.1,2.1 0.1,2.1 0.8,-0.3 0.6,-2.2 0.8,-2.3 1.4,-0.7 1.8,4.8 0.2,6.8 -5.1,6.6 l -2.7,-0.2 z"
       id="path20" />
    <path
       d="m 207.7,387.3 c -1.1,-1 -0.8,-6.3 0.2,-6.3 0.6,0 0.9,1.2 0.8,2.6 -0.1,1.6 0.4,2.9 1.3,3.2 1.2,0.4 1.3,0.3 0.2,-1 -1.5,-1.8 -0.6,-4.8 1.4,-4.8 0.9,0 1.4,1.2 1.4,3.5 0,3 -0.3,3.5 -2.3,3.5 -1.3,0 -2.7,-0.3 -3,-0.7 z"
       id="path21" />
    <path
       d="m 302,316.5 c 0,-3.3 0.2,-3.5 3.5,-3.5 3.3,0 3.5,0.2 3.5,3.5 0,3.3 -0.2,3.5 -3.5,3.5 -3.3,0 -3.5,-0.2 -3.5,-3.5 z"
       id="path22" />
    <path
       d="m 293.7,308.3 c -0.4,-0.3 -0.7,-1.9 -0.7,-3.5 0,-2.7 0.1,-2.8 5.5,-2.8 4.8,0 5.5,0.3 5.5,1.9 0,4.1 -1.1,5.1 -5.4,5.1 -2.4,0 -4.6,-0.3 -4.9,-0.7 z"
       id="path23" />
    <path
       d="m 354,287.5 c 0,-3.3 0.2,-3.5 3.5,-3.5 3.3,0 3.5,0.2 3.5,3.5 0,3.3 -0.2,3.5 -3.5,3.5 -3.3,0 -3.5,-0.2 -3.5,-3.5 z"
       id="path24" />
  </g>
  <g
     fill="#7b7b7b"
     id="g26"
     transform="matrix(0.19403849,0,0,0.18613798,0.47588968,0.53363898)"
     style="filter:url(#filter847);fill:#545454;fill-opacity:1">
    <path
       d="M 64,680.7 C 63.2,680 60.7,677 58.4,674 53.1,666.9 34.7,647.4 15.8,629 2.8,616.3 1,614.1 1,611.3 c 0,-4.4 3.5,-8.1 14.7,-15.9 10.3,-7.2 16,-12.4 57.9,-52.8 15.6,-15 30.1,-28.1 32.9,-29.7 2.7,-1.6 7,-3.1 9.5,-3.5 6.5,-0.9 11.4,-4.1 20.7,-13.6 l 8.3,-8.3 -2.9,-4.3 c -2.4,-3.6 -2.9,-5.8 -3.5,-13.4 -0.6,-7.3 -0.4,-9.5 0.9,-11.4 0.8,-1.3 1.5,-4 1.5,-6.1 0,-3.5 0.8,-4.7 9.5,-13.3 7.5,-7.4 9.5,-10 9.1,-11.6 -0.3,-1.2 0.7,-5.9 2.3,-10.5 2.5,-7.5 3.2,-8.6 6.9,-10.9 5.2,-3.2 12.7,-12.5 13.7,-16.9 0.4,-1.8 2.2,-5 4.1,-7.1 1.8,-2 5.7,-8.1 8.5,-13.6 2.9,-5.4 5.3,-10 5.4,-10.2 0.2,-0.2 3.1,1.1 6.6,2.8 l 6.4,3.1 28.4,-28.5 c 27.7,-27.7 28.6,-28.6 36,-31.7 4.2,-1.7 8.6,-4.2 9.8,-5.5 2,-2.1 3.1,-2.4 10,-2.4 8.1,0 14.4,2 17.2,5.3 0.7,1 2.1,1.7 3,1.7 2.1,0 8.1,-6 8.1,-8.1 0,-0.8 0.6,-2.1 1.3,-2.8 1,-1.1 0.5,-1.2 -3.1,-0.7 -5.2,0.8 -8,-0.5 -17.5,-8.1 -3.7,-3 -7.4,-5.2 -8.2,-5 -0.7,0.3 -11.6,8.4 -24.2,18 -12.5,9.6 -23.7,17.7 -24.9,18.1 -1.1,0.3 -2.7,0 -3.6,-0.6 -3,-2.5 -7.9,-10.9 -7.6,-13.1 0.2,-1.6 7,-6.9 24.8,-19.4 13.5,-9.4 25.3,-17.2 26.3,-17.2 2.6,-0.1 31.2,6.5 36.7,8.4 2.4,0.8 8.4,2 13.4,2.5 l 8.9,0.9 3.5,-2.9 c 1.9,-1.5 4,-2.6 4.7,-2.4 1,0.4 94.8,-88.5 119.4,-113.2 7.8,-7.9 8.3,-8.5 6.8,-10.2 -1.5,-1.6 -0.9,-2.4 9.6,-11.9 10.2,-9.2 11.4,-10 13.2,-8.9 6.9,4.4 5,5.3 20.7,-9.7 7.9,-7.5 23.1,-22.1 33.8,-32.5 L 579.4,65.3 573,50.4 c -3.6,-8.2 -8,-16.8 -9.8,-19.3 l -3.4,-4.4 3.4,-3.3 3.3,-3.3 12,12.7 c 11.1,11.7 12.3,12.7 15.8,12.9 3.5,0.1 4.1,-0.3 7.3,-4.7 2.1,-3 5.6,-6 8.8,-7.8 2.9,-1.7 12.1,-9.6 20.4,-17.6 C 639.9,6.8 646.7,1 647.9,1 c 2,0 6.1,4.3 6.1,6.5 0,0.6 -7.5,9.1 -16.7,18.8 -9.3,9.6 -17.9,19 -19.2,20.8 -1.4,1.7 -5.7,5.2 -9.5,7.8 -6.4,4.1 -6.8,4.6 -4.7,5.1 2.3,0.5 1.9,1 -5.3,7.5 -4.7,4.2 -8.7,7 -10,7 -1.6,0 -11.9,9.5 -35.1,32.2 l -32.9,32.3 1.5,2.7 c 2.3,3.9 7.6,20.9 8.4,26.5 0.4,3 0.2,5.4 -0.6,6.7 -1,1.5 -1,2.2 0,3.5 1.7,2 0.6,3.8 -6.6,10.9 -5.9,5.7 -5.9,5.8 -7.8,3.7 -1,-1.1 -2.3,-2 -3,-2 -1.2,0 -6.5,5.1 -6.5,6.4 0,0.4 1.9,3 4.2,5.8 l 4.3,5 -2.8,2 c -3.4,2.4 -3.4,3.6 -0.2,4.8 1.4,0.5 2.5,1.5 2.6,2.2 0,2.1 21.7,19.3 24.7,19.6 3,0.4 10.2,6.7 10.2,9.2 0.1,1.2 46.1,40.3 54.1,45.9 1.8,1.3 2.3,1 5.8,-2.8 4.2,-4.6 6.6,-4.7 7.4,-0.3 0.6,3.1 -0.5,4.7 -10.8,15.3 -6.6,6.7 -7.8,7.5 -10.5,7.1 -3.9,-0.6 -3.8,-2.3 0.2,-7.3 1.9,-2.3 2.8,-4.3 2.2,-4.8 C 587.3,290 507.7,225 506.5,225 c -0.8,0 -1.5,-0.7 -1.5,-1.5 0,-0.8 -1.1,-2.2 -2.5,-3.1 -2.4,-1.6 -2.6,-1.5 -7.6,2.1 l -5.1,3.7 -4.3,-4.2 -4.3,-4.3 -26.7,25.9 c -14.7,14.2 -27.1,26.7 -27.6,27.7 -0.6,1 -0.8,2.6 -0.4,3.5 0.5,1.9 1.1,1.3 -34.9,35.9 -14.5,14 -17.7,17.5 -16.7,18.7 0.9,1.1 -2.4,4.8 -17.7,19.4 -19.1,18.3 -22.6,22.9 -23.9,30.7 -0.7,4.3 0.4,4.4 4.2,0.5 3.9,-4.1 9.3,-5.7 13.1,-3.9 2.9,1.5 51,52.1 54.5,57.4 2,3.2 2.5,8.5 1,11.4 -1.2,2.2 -34.9,33.4 -37.8,34.9 -3.1,1.7 -7.4,1.5 -10.4,-0.6 -3.1,-1.9 -51.8,-54.3 -53.6,-57.6 -2.2,-3.8 -1.5,-8.3 1.8,-12.1 1.8,-2 2.9,-3.8 2.6,-4.2 -0.3,-0.3 -2.8,-0.2 -5.4,0.2 -4.2,0.6 -5.7,1.6 -12.8,8.5 -7.6,7.5 -7.9,7.9 -6.2,9.7 1.6,1.8 1.3,2.2 -5.3,8.8 -4.3,4.3 -7,7.8 -7,9.1 0,1.2 -0.9,3.3 -2.1,4.8 -3.1,3.9 -0.5,6.2 4.1,3.4 2.8,-1.8 3.7,-0.2 1.3,2.5 -1.2,1.3 -2.3,4.1 -2.5,6.9 -0.4,3.5 -2.1,7.3 -6.8,14.7 -3.4,5.6 -7.3,11 -8.7,12.1 -3,2.3 -8,2.6 -12.7,0.6 -3.2,-1.3 -3.4,-1.3 -4.5,1 -2.5,5.6 -1.1,9.3 11.2,30.2 3.3,5.6 6.4,10.2 6.8,10.2 0.4,0 2.4,1.5 4.3,3.4 2.9,2.7 3.6,4.1 3.6,7.2 0,5.9 -3.4,9.9 -14,16.6 -9.2,5.8 -9.7,6 -15.3,5.6 -4.8,-0.4 -6.3,-0.9 -8.6,-3.4 -1.5,-1.6 -8.6,-13 -15.6,-25.4 -7.1,-12.4 -13.3,-22.8 -13.9,-23.3 -0.6,-0.4 -2.1,-0.6 -3.2,-0.5 -2.9,0.4 -37.4,32.5 -39.9,37.1 l -1.9,3.5 2.7,8.9 c 8,26.3 7.4,37.8 -2.3,45.4 -4.6,3.7 -14,6.1 -20.5,5.3 -4.2,-0.5 -5.5,-0.2 -8.2,1.8 -5.5,3.9 -29.9,27.1 -31.8,30.2 -1.3,2.1 -1.9,5.2 -2,10 -0.2,8.5 -3.3,15.6 -10.2,23.5 -6.6,7.5 -13.2,10.1 -17.3,6.8 z m 4.2,-38.5 c 6.4,-0.3 6.8,-0.4 7.4,-3 1.8,-7.2 5.6,-12.1 21.7,-27.3 19.3,-18.3 22,-19.9 33.7,-19.9 8.4,0 13.2,-1.5 14.4,-4.5 0.7,-1.9 -1.6,-13 -4.9,-24 -3.2,-10.3 -3.3,-20.1 -0.5,-25.9 2.4,-4.9 8.1,-11 26.3,-28 l 13.7,-12.8 -2,-2.5 c -2.2,-2.8 -2.6,-8.2 -1,-11.4 0.9,-1.5 2.2,-1.9 7.1,-1.9 5.1,0 6.1,0.3 6.7,2.1 0.7,1.9 3.4,-0.4 24,-20.2 18.7,-17.9 22.9,-22.5 21.5,-23 -1.3,-0.6 -2.7,0.3 -5,2.9 -7.3,8.2 -7.4,8.3 -12.2,8 -3.9,-0.3 -4.6,-0.7 -5.1,-2.7 -0.5,-2.2 -3.2,0.2 -29.2,25.7 -15.7,15.5 -28.9,28.2 -29.4,28.2 -0.4,0 -5.1,4.3 -10.4,9.5 -9.7,9.5 -15.9,13.4 -21.3,13.5 -3.9,0 -8.5,2.3 -13.2,6.4 l -4,3.6 h 3.2 c 6.3,0 12,3.5 14.9,9.3 2.2,4.1 4.7,20.2 4.2,27.3 -0.3,4.7 -1,7.1 -2.8,9.6 -4.2,5.7 -43.9,43.1 -48.8,46 -3.9,2.3 -5.9,2.8 -11.5,2.8 -8.2,0 -12.6,-1.7 -16,-6.1 -3.9,-5.1 -4.9,-8.5 -5.6,-18.5 l -0.6,-9.1 -10.2,7.6 -10.2,7.6 18.2,18.5 18.2,18.5 1,-3 c 1,-2.9 1.2,-3 7.7,-3.3 z m 4.1,-32.9 c 11.8,-10.9 39.3,-37.6 40,-38.9 0.7,-1.2 -0.1,-8.5 -1.8,-16.1 -1,-4.5 -1.1,-4.4 -29.7,22.9 -19.7,18.9 -21.6,21.5 -20.5,28.5 0.7,4.3 3.2,8.3 5.3,8.3 0.8,0 3.8,-2.1 6.7,-4.7 z m 171.3,-65.8 5.5,-3.6 -2.6,-3.1 c -3.4,-4 -12.4,-19.4 -17,-28.8 -3.1,-6.7 -3.5,-8.3 -3.5,-15.8 0,-4.6 0.5,-9.2 1.1,-10.4 0.6,-1.1 0.9,-2.1 0.7,-2.4 -0.2,-0.2 -4.6,3.6 -9.8,8.4 l -9.3,8.7 14.4,25.2 c 7.9,13.9 14.5,25.2 14.7,25.3 0.2,0 2.8,-1.6 5.8,-3.5 z m 13.9,-60.7 c 3.8,-3.4 12.5,-17.9 12.5,-20.9 0,-3.2 -3.5,-7.9 -5.8,-7.9 -1,0 -5.6,3.9 -10.2,8.6 l -8.5,8.5 2.8,2.5 c 1.5,1.3 4.6,2.7 6.7,3 2.2,0.4 3.7,1 3.4,1.5 -0.9,1.6 -6.9,1 -10.9,-1.1 -3.8,-1.9 -4.1,-1.9 -5.2,-0.3 -2,2.7 -1.5,5.1 1.5,6.7 4.2,2.3 10.6,2 13.7,-0.6 z m -105.3,-5 c -0.7,-0.7 -1.2,-2 -1.2,-3 0,-1 -0.4,-1.8 -1,-1.8 -1.3,0 -1.3,0.3 0.2,3.5 0.6,1.4 1.6,2.5 2.2,2.5 0.6,0 0.5,-0.5 -0.2,-1.2 z m 8.6,-6.1 5.3,-5.3 -2.6,-1.4 c -2.1,-1.1 -2.5,-2 -2.5,-5.9 0,-4.3 0.4,-4.9 7.7,-12.3 l 7.7,-7.7 -2.2,-2.4 c -1.5,-1.6 -2,-3 -1.6,-4.3 0.3,-1 -4.4,3.1 -10.5,9.2 -6.1,6.1 -11.1,11.7 -11.1,12.5 0.1,1 0.5,0.8 1.5,-0.5 1.4,-1.8 1.5,-1.5 1.5,4.1 0,3.4 -0.5,6.3 -1.1,6.5 -1.4,0.5 -1.4,9.1 0,9.6 0.6,0.2 1.1,1 1.1,1.8 0,2.4 1.4,1.6 6.8,-3.9 z M 150,469.3 c 0,-2.1 -0.3,-2.4 -0.9,-1.4 -0.5,0.8 -0.7,2 -0.4,2.8 0.8,2.1 1.3,1.5 1.3,-1.4 z m 0.8,-6.6 c 1.6,-4.4 1.5,-5.8 -0.1,-2.7 -2.1,4 -2.7,6 -1.9,6 0.5,0 1.3,-1.5 2,-3.3 z m 37.6,-54.2 c 4.7,-5.5 8.6,-10.4 8.5,-11 0,-0.5 -0.3,-0.4 -0.6,0.3 -0.2,0.6 -1.3,1.2 -2.3,1.2 -1.3,0 -2,0.9 -2.2,2.8 -0.2,1.9 -0.9,2.8 -2.5,3 -1.5,0.2 -2.4,1.3 -2.8,3.3 -0.5,2 -1.3,2.9 -2.6,2.9 -1,0 -1.9,-0.2 -1.9,-0.4 0,-0.2 2.7,-3.7 6,-7.6 4.1,-5 6,-8 6,-9.9 0,-3.2 2.4,-5.8 5.9,-6.3 2,-0.2 2.5,-1 2.8,-3.8 l 0.3,-3.5 -1.4,3.1 c -0.8,1.9 -2.4,3.4 -4,3.8 -2.7,0.7 -5.6,5 -5.3,7.8 0.2,2.1 -12.9,18 -16.5,20.1 -1.6,0.9 -2.8,2.1 -2.8,2.7 0,0.6 0.8,0.4 1.7,-0.5 1.6,-1.6 1.7,-1.6 2.5,0.5 0.4,1.2 1.2,2 1.8,1.8 0.5,-0.1 4.8,-4.8 9.4,-10.3 z m 68.9,-37.6 c -2.6,-0.5 -4.9,-1.9 -8,-5.2 -3.8,-4 -4.3,-5.1 -4.3,-9.1 0,-2.5 -0.2,-4.6 -0.4,-4.6 -0.2,0 -4.6,4.4 -9.9,9.7 -5.3,5.3 -10,9.3 -10.4,9 -0.4,-0.4 11.3,-12.8 26,-27.5 25.5,-25.5 27,-26.8 33.7,-29.6 3.9,-1.6 8.3,-3.8 9.7,-4.9 3.7,-3 9.5,-2.5 13.6,1.1 1.1,1 1.7,1.1 1.7,0.3 0,-1.4 -6.4,-4.3 -10,-4.5 -1.4,-0.1 -3.4,0.6 -4.5,1.6 -1.1,0.9 -5.5,3.2 -9.8,5 -7.5,3.2 -8.5,4.1 -34.3,29.8 -21.2,21.1 -27.2,27.7 -29.6,32.4 -1.6,3.2 -2.7,6 -2.5,6.2 0.2,0.3 1,-0.9 1.7,-2.5 0.7,-1.7 1.8,-3.6 2.6,-4.2 1.1,-0.9 1.4,-0.7 1.4,1.4 0,1.4 -0.5,2.7 -1.2,2.9 -1.4,0.5 -0.1,2.8 1.6,2.8 0.7,0 2.3,-2.3 3.6,-5 2.6,-5.5 4.2,-6.3 10.6,-5.8 l 3.9,0.3 0.3,5.3 c 0.3,4.6 -0.2,6.2 -4.4,14 l -4.7,8.7 13.7,-13.5 13.6,-13.5 z m 44,18.1 c 2.1,0 10,-5.4 13.3,-9.2 1.1,-1.2 2.6,-4.8 3.3,-7.9 2,-9.3 7.2,-16.7 20.9,-29.5 l 12.4,-11.7 -5.6,-5.6 -5.6,-5.6 -25,25 -25,25 3.5,0.3 c 3.5,0.3 3.5,0.4 3.5,5 0,3.6 -0.6,5.2 -2.7,7.4 -1.5,1.5 -3.3,2.8 -4,2.8 -0.8,0 -1.3,1.3 -1.3,3.4 v 3.3 l 5.2,-1.3 c 2.9,-0.8 6.1,-1.4 7.1,-1.4 z m -94.8,-2.7 c 0.3,-1.6 1,-4.1 1.5,-5.8 0.6,-1.7 0.6,-3.3 0.1,-3.8 -1.7,-1.7 -2.9,0.2 -3.6,5.4 -0.5,3.8 -1.2,5.2 -2.9,5.9 -1.8,0.8 -1.7,0.9 1.1,0.9 2.8,0.1 3.3,-0.3 3.8,-2.6 z m 3.6,-1 c -0.6,-1.2 -0.4,-2.8 1,-5.4 l 1.9,-3.7 -3.7,-2.2 -3.7,-2.2 -1.8,2.4 c -0.9,1.3 -1.8,2.8 -1.7,3.3 0,0.6 0.6,0.1 1.4,-0.9 0.8,-1.1 1.5,-2.4 1.5,-2.8 0,-0.5 1.4,-0.2 3,0.7 3.4,1.8 3.6,2.5 1.4,6.6 -1.6,3.2 -1.3,5.9 0.6,5.9 0.7,0 0.8,-0.6 0.1,-1.7 z m 95.1,-62.6 c -2.3,-2.5 -3.1,-10 -1.2,-11.2 1.8,-1.1 0,-2.5 -3.1,-2.5 -1.6,0 -3.8,0.9 -4.9,2 -1.2,1.2 -3.3,2 -5.4,2 -1.9,0 -3.8,0.5 -4.1,1 -0.4,0.6 0.7,1 2.5,1 2.2,0 4.3,1.2 7.5,4.1 3.9,3.6 4.5,4.7 4.5,8.3 v 4.1 l 3.2,-3.2 3.2,-3.2 z m 82.9,-31.2 c 19.1,-18.2 22.7,-22.1 24.1,-26.2 1,-2.6 1.8,-4.9 1.8,-4.9 0,-0.1 -1.7,0.7 -3.8,1.7 -2.2,1.1 -9.9,8.3 -17.6,16.4 -12.8,13.4 -14,14.5 -17.4,14.5 -4.1,0 -8.2,-3.2 -8.2,-6.4 0,-1.8 -0.2,-1.8 -2.8,0.7 -1.5,1.5 -3.9,2.7 -5.3,2.7 -2.5,0 -11.2,6.3 -10.7,7.7 0.4,1.2 16,15.3 16.8,15.3 0.4,0 10.8,-9.7 23.1,-21.5 z M 472.5,204 c 3,-2.7 6.2,-5 7,-5 0.9,0 7,-5.6 13.7,-12.5 6.6,-6.9 12.8,-12.5 13.7,-12.5 2,0 7.1,-5 7.1,-7 0,-3.8 -4.7,-15.3 -7.2,-17.7 -1.5,-1.5 -2.9,-2.5 -3,-2.2 -0.2,0.2 -1.3,2.3 -2.6,4.7 -1.8,3.4 -2,4.2 -0.8,4.2 3.7,0 4.8,7.7 1.6,11.7 -1.1,1.4 -2,3.6 -2,4.8 0,1.6 -2,3.9 -6.7,7.8 -10.6,8.6 -26.1,24 -26.8,26.5 -0.4,1.2 -0.4,2.2 -0.1,2.2 0.3,0 3.1,-2.2 6.1,-5 z M 590,51.5 c 0,-0.6 -3.1,-4.2 -7,-8 -6.2,-6.2 -7.2,-6.8 -8.5,-5.4 -1.4,1.3 -1.1,2.5 2.6,10.9 2.2,5.2 4.3,9.8 4.6,10.3 0.6,1 8.3,-6.2 8.3,-7.8 z"
       id="path25"
       style="fill:#545454;fill-opacity:1;stroke-width:0.99975172;stroke-dasharray:none" />
    <path
       d="m 178,414.6 c 0,-0.2 0.7,-0.9 1.5,-1.6 1.2,-1 1.5,-1 1.5,0.4 0,0.9 -0.7,1.6 -1.5,1.6 -0.8,0 -1.5,-0.2 -1.5,-0.4 z"
       id="path26"
       style="fill:#545454;fill-opacity:1" />
  </g>
  <g
     fill="#ffffff"
     id="g1215"
     transform="matrix(0.19403849,0,0,0.18613798,0.01790345,0.53363898)"
     style="filter:url(#filter863)">
    <path
       d="M 63.9,657.8 C 60.9,654.3 49.5,642.4 38.5,631.2 21,613.3 18.8,610.7 20.4,609.8 c 7.3,-4.1 23.2,-18.1 52.8,-46.6 18.9,-18.2 36,-34.4 38,-36 2.4,-1.9 5.6,-3.2 8.5,-3.7 8.2,-1.2 13.2,-4.1 22.7,-13.4 5,-4.9 9.7,-9 10.3,-9.2 0.7,-0.2 43,-41.8 93.9,-92.4 51,-50.6 92.9,-92.1 93.3,-92.3 0.4,-0.1 3.9,3.1 7.9,7.1 l 7.3,7.3 -14.4,14 c -15.1,14.7 -19.9,21.6 -21.4,30.9 -0.3,2.2 -1.5,5.1 -2.7,6.3 -4.1,4.6 -11.3,9.2 -14.3,9.2 -8.3,0 -10.4,1.6 -46.8,36.7 -19.3,18.4 -43.8,42.2 -54.5,52.7 -10.8,10.5 -26.5,25.6 -35,33.6 -19.5,18.3 -23.7,23.1 -25.6,29.6 -1.6,5.6 -1.5,6.8 2.1,18.5 3.7,11.8 5.7,24.1 4.6,27.2 -1.3,3.3 -5.8,4.7 -14.6,4.5 -10.2,-0.4 -13.5,1.6 -33.2,20.2 -19.6,18.5 -21.4,21.2 -22.3,33.6 -0.4,6.6 -1,8.8 -3.3,12.2 -1.5,2.3 -3.1,4.2 -3.6,4.2 -0.4,0 -3.2,-2.8 -6.2,-6.2 z m 9.2,-2.6 c 4.7,-3.9 1.6,-12.2 -4.7,-12.2 -5.8,0 -8.9,9.2 -4.2,12.4 3,2.1 6.1,2 8.9,-0.2 z M 74,626.1 c 3.2,-1.4 41.3,-37 48.8,-45.5 4.9,-5.6 5.5,-9.3 3.2,-22 -1.5,-8.2 -2.6,-11.7 -4.6,-14.3 -5.2,-6.8 -11.8,-8.9 -18.7,-5.9 -6.2,2.6 -51.2,45.8 -54.3,52.1 -1.5,3.1 -1.9,6.1 -1.9,13.5 0,8.6 0.3,10 2.8,14.2 5.7,9.8 14.5,12.6 24.7,7.9 z M 188.4,491.8 c 0.9,-1.2 1.6,-3 1.6,-4 0,-2.4 -3.5,-5.8 -6,-5.8 -2.6,0 -6,3.4 -6,6.2 0,5.3 7.4,7.9 10.4,3.6 z m 47.5,-55.4 c 0.7,0.9 2.1,1.6 3,1.6 1.6,0 49.1,-46.8 49.1,-48.4 0,-0.5 -0.7,-1.7 -1.5,-2.6 -1.4,-1.5 -1,-2.1 4,-6.1 5.8,-4.6 6.8,-7.1 3.5,-8.9 -1.7,-0.9 -2.7,-0.5 -6,2.1 -2.2,1.8 -4,3.8 -4,4.4 0,1.9 -2.7,3.8 -3.5,2.5 -0.3,-0.5 -1.4,-1 -2.3,-1 -1,0 -12.4,10.7 -25.6,23.9 -21.1,21.1 -23.7,24.1 -22.8,25.8 0.9,1.7 0.5,2.6 -2.6,5.6 -2.1,2.1 -4.3,3.7 -4.9,3.7 -0.6,0 -2.5,1.6 -4.3,3.6 l -3.1,3.6 2.3,2.5 2.3,2.5 7.5,-8.2 c 6.7,-7.3 7.7,-8.1 8.9,-6.6 z"
       id="path1210" />
    <path
       d="m 221.9,524.9 c -8.4,-14.7 -15.1,-25.4 -16.1,-25.7 -1,-0.2 -1.8,-0.7 -1.8,-1.1 0,-0.6 8.6,-9.1 22.3,-22.1 l 5.8,-5.5 -1.6,3.9 c -0.9,2.1 -1.4,4.7 -1.2,5.8 0.3,1 -0.2,3.7 -1.1,5.9 -1.3,3.4 -1.4,5 -0.4,9.6 1.9,9.1 15.8,34.2 22.4,40.6 l 3.9,3.7 -7.8,5 c -4.3,2.8 -8.3,5 -8.9,5 -0.6,0 -7.6,-11.3 -15.5,-25.1 z"
       id="path1211" />
    <path
       d="m 152.1,476.7 c -2.1,-4.4 -2.9,-13.1 -1.2,-14.1 0.4,-0.3 1.1,-2.6 1.4,-5.2 0.4,-4.3 1.2,-5.4 10.8,-15 l 10.2,-10.3 3,2.5 c 1.6,1.4 3.5,2.3 4.1,2.1 0.6,-0.2 10.9,-11.7 22.9,-25.6 l 21.9,-25.3 -3.2,-2.7 -3.2,-2.6 3.7,-6.7 c 3,-5.5 8.3,-11.3 29.5,-32.1 25,-24.5 26.2,-25.5 33.7,-28.6 4.2,-1.8 8.2,-4 8.9,-4.9 1.4,-1.9 10,-1 12.3,1.3 1.3,1.3 1.2,1.7 -0.7,3.8 -1.2,1.3 -2.2,2.8 -2.2,3.3 0,0.6 1.7,2.7 3.9,4.8 l 3.8,3.7 -77.9,77.7 c -42.9,42.7 -78.3,77.8 -78.8,78 -0.4,0.2 -1.7,-1.7 -2.9,-4.1 z m 46,-41.4 28.6,-28.8 7.7,-14.7 c 6.6,-12.7 7.5,-15 6.6,-17.2 -0.7,-2 -1.7,-2.6 -3.8,-2.6 -3.8,0 -4.9,1.4 -12.2,16 l -6.3,12.5 -28.3,28.6 C 174.8,444.8 162,458 162,458.6 c 0,2.1 3.2,5.4 5.3,5.4 1.6,0 10.6,-8.5 30.8,-28.7 z m 84.8,-82.8 16.6,-16.5 v -4.9 c 0,-4.6 -0.4,-5.4 -4.5,-9.5 -4.9,-5.1 -9.3,-6.5 -13.9,-4.7 -1.5,0.7 -9.8,8.3 -18.4,17 L 247,349.6 v 4.9 c 0,4.4 0.4,5.2 4.9,9.6 4.4,4.5 5.2,4.9 9.6,4.9 h 4.9 z"
       id="path1212" />
    <path
       d="m 259.5,355.9 c -0.5,-0.7 4.4,-6.3 12.6,-14.5 11.9,-11.9 13.5,-13.2 14.8,-11.9 1.4,1.3 0,2.9 -11.8,14.3 -7.4,7 -13.7,12.8 -14.2,13 -0.4,0.2 -1,-0.2 -1.4,-0.9 z"
       id="path1213" />
    <path
       d="m 176.2,420.7 c -2.8,-3 -2.8,-4.1 0.2,-5.5 1.3,-0.5 5.8,-5.1 10,-10 5.7,-6.8 7.6,-9.8 7.6,-12 0,-3.3 1.6,-5 5.7,-6.1 2.5,-0.7 2.9,-1.3 3.3,-5.7 0.8,-7.4 2.5,-9 6.4,-6.1 1.7,1.2 1.7,1.5 0,5 -1.5,3.1 -1.6,4.2 -0.6,5.8 1.1,1.6 0.8,2.4 -2.3,5.7 -3.1,3.4 -3.4,3.5 -3.5,1.5 0,-1.7 -0.6,-2.3 -2.4,-2.3 -1.3,0 -2.6,0.7 -3,1.5 -0.7,2 2.1,4.6 4.1,3.8 0.9,-0.4 -3.6,5.5 -10.2,13 -6.5,7.5 -12.1,13.7 -12.5,13.7 -0.4,0 -1.6,-1 -2.8,-2.3 z"
       id="path1214" />
    <path
       d="m 353.7,307.3 -10.8,-9.8 3.8,-3.4 c 6,-5.3 8.1,-6.5 9.6,-5.3 1.8,1.5 133.8,-125.6 141,-135.8 2.8,-4.1 5,-7.7 4.7,-7.9 -0.3,-0.2 0.3,-0.9 1.2,-1.5 2.9,-1.8 8.1,5.4 11.2,15.4 1.5,4.7 2.6,9 2.6,9.6 0,1.6 -6.7,7.4 -8.4,7.4 -0.7,0 -6.7,5.5 -13.2,12.2 -6.6,6.8 -12.4,12.2 -13,12 -1.5,-0.3 -9.9,7.3 -41.2,37.6 -22.1,21.4 -25.4,25.1 -27,29.4 -1.5,4.3 -4.6,7.8 -25.1,27.4 -12.9,12.3 -23.7,22.4 -24,22.4 -0.4,0 -5.5,-4.4 -11.4,-9.7 z m 36.4,-30.4 c 8.3,-8.7 15.8,-15.7 17.7,-16.5 5,-2.1 55.8,-51.7 57.2,-55.8 1.2,-3.7 13.6,-16.2 25.8,-26 5.2,-4.2 7.2,-6.5 7.2,-8.2 0,-1.2 1.1,-3.5 2.4,-5.1 2.2,-2.5 2.2,-2.9 0.9,-5 -0.9,-1.3 -2,-2.3 -2.5,-2.3 -2.5,0 -15.4,12.3 -71.1,67.7 l -59.8,59.6 3.2,3.4 c 1.8,1.8 3.6,3.3 4,3.3 0.4,0 7.2,-6.8 15,-15.1 z"
       id="path1215" />
  </g>
</svg>
