<?xml version="1.0" encoding="UTF-8" standalone="no"?>
<!-- Created with Inkscape (http://www.inkscape.org/) -->

<svg
   width="128"
   height="128"
   viewBox="0 0 33.866666 33.866666"
   version="1.1"
   id="svg1"
   xml:space="preserve"
   inkscape:version="1.4.2 (f4327f4, 2025-05-13)"
   sodipodi:docname="loot-weapon-potato-lmg.svg"
   xmlns:inkscape="http://www.inkscape.org/namespaces/inkscape"
   xmlns:sodipodi="http://sodipodi.sourceforge.net/DTD/sodipodi-0.dtd"
   xmlns="http://www.w3.org/2000/svg"
   xmlns:svg="http://www.w3.org/2000/svg"><sodipodi:namedview
     id="namedview1"
     pagecolor="#ffffff"
     bordercolor="#111111"
     borderopacity="1"
     inkscape:showpageshadow="0"
     inkscape:pageopacity="0"
     inkscape:pagecheckerboard="1"
     inkscape:deskcolor="#d1d1d1"
     inkscape:document-units="px"
     inkscape:zoom="5.6568543"
     inkscape:cx="61.51829"
     inkscape:cy="69.208076"
     inkscape:window-width="1920"
     inkscape:window-height="1111"
     inkscape:window-x="-9"
     inkscape:window-y="-9"
     inkscape:window-maximized="1"
     inkscape:current-layer="layer1" /><defs
     id="defs1"><clipPath
       id="b"><path
         d="m 36,112 4,4 v 26 l -4,4 H 20 l -4,-4 v -26 l 4,-4 z"
         fill="#515151"
         stroke-width="11.471"
         stroke-miterlimit="10"
         stroke-opacity="0.49"
         id="path1-6" /></clipPath><clipPath
       id="a-6"><rect
         ry="6"
         rx="6"
         height="44"
         width="76"
         fill="#555555"
         stroke-width="1.807"
         stroke-linecap="square"
         id="rect1-3"
         x="0"
         y="0" /></clipPath><clipPath
       clipPathUnits="userSpaceOnUse"
       id="clipPath1040-0"><path
         sodipodi:nodetypes="ccccccccc"
         inkscape:connector-curvature="0"
         id="path1042-5"
         d="m 36,128 4,4 v 54 l -4,4 H 12 l -4,-4 v -54 l 4,-4 z"
         style="fill:#515151;stroke-width:11.4715;stroke-miterlimit:10;stroke-opacity:0.49" /></clipPath><clipPath
       id="a"><path
         d="m 18,158 -4,4 v 59.82 l 4,4.18 v 20 h 20 v -20 l 4,-4 v -32 h 4 l 0.117,-24 H 42 v -4 l -4,-4 z"
         fill="#273723"
         stroke-width="10.001"
         stroke-miterlimit="10"
         stroke-opacity="0.49"
         id="path2-1" /></clipPath><clipPath
       id="a-1-3"><path
         style="fill-opacity:0.506;stroke:#ffffff;stroke-width:2.117;stroke-opacity:0.502"
         inkscape:connector-curvature="0"
         d="m -45.534,209.35 29.33,16.933 v 33.867 l -29.33,16.933 -29.33,-16.933 v -33.867 z"
         id="path2-0-6-9" /></clipPath><clipPath
       id="clipPath3"><path
         style="fill-opacity:0.506;stroke:#ffffff;stroke-width:2.117;stroke-opacity:0.502"
         inkscape:connector-curvature="0"
         d="m -45.534,209.35 29.33,16.933 v 33.867 l -29.33,16.933 -29.33,-16.933 v -33.867 z"
         id="path3-8" /></clipPath><clipPath
       id="clipPath4"><path
         style="fill-opacity:0.506;stroke:#ffffff;stroke-width:2.117;stroke-opacity:0.502"
         inkscape:connector-curvature="0"
         d="m -45.534,209.35 29.33,16.933 v 33.867 l -29.33,16.933 -29.33,-16.933 v -33.867 z"
         id="path4-4" /></clipPath><clipPath
       id="clipPath5"><path
         style="fill-opacity:0.506;stroke:#ffffff;stroke-width:2.117;stroke-opacity:0.502"
         inkscape:connector-curvature="0"
         d="m -45.534,209.35 29.33,16.933 v 33.867 l -29.33,16.933 -29.33,-16.933 v -33.867 z"
         id="path5-9" /></clipPath><clipPath
       id="clipPath6"><path
         style="fill-opacity:0.506;stroke:#ffffff;stroke-width:2.117;stroke-opacity:0.502"
         inkscape:connector-curvature="0"
         d="m -45.534,209.35 29.33,16.933 v 33.867 l -29.33,16.933 -29.33,-16.933 v -33.867 z"
         id="path6-6" /></clipPath><clipPath
       id="clipPath7"><path
         style="fill-opacity:0.506;stroke:#ffffff;stroke-width:2.117;stroke-opacity:0.502"
         inkscape:connector-curvature="0"
         d="m -45.534,209.35 29.33,16.933 v 33.867 l -29.33,16.933 -29.33,-16.933 v -33.867 z"
         id="path7-3" /></clipPath></defs><g
     inkscape:label="Layer 1"
     inkscape:groupmode="layer"
     id="layer1"><path
       style="font-variation-settings:normal;opacity:1;fill:#ffffff;fill-opacity:1;stroke:#323232;stroke-width:0.541073;stroke-linecap:butt;stroke-linejoin:miter;stroke-miterlimit:4;stroke-dasharray:none;stroke-dashoffset:0;stroke-opacity:1;stop-color:#000000;stop-opacity:1"
       d="m 6.1802623,25.988164 c 2.2373395,1.729903 3.2368393,3.144581 3.2368393,3.144581 l 0.6197394,-0.619741 c 0,0 -0.1055871,-0.231837 -0.4046005,-0.585215 C 9.3332326,27.574415 9.2734301,27.014448 9.4365287,26.851354 l 0.5075494,-0.507554 0.5545279,0.554528 0.288138,1e-6 0.295114,-0.295111 1.479355,0.237609 4.95787,-4.957869 -1.184012,-1.184019 0.05919,-0.619252 0.67513,-0.67513 1.305852,-1.459623 -2.337292,-2.337289 -2.981878,2.981883 0.576633,0.576636 -4.1812272,4.181226 -0.5977762,-0.597774 -2.9587587,2.958754 0.2600729,0.260074 z"
       id="path1"
       sodipodi:nodetypes="cccsscccccccccccccccccc" /><path
       style="font-variation-settings:normal;opacity:1;vector-effect:none;fill:#ffffff;fill-opacity:1;stroke:#323232;stroke-width:0.541194;stroke-linecap:butt;stroke-linejoin:miter;stroke-miterlimit:4;stroke-dasharray:none;stroke-dashoffset:0;stroke-opacity:1;-inkscape-stroke:none;stop-color:#000000;stop-opacity:1"
       d="m 7.7645913,20.672897 1.693488,1.693488 3.1928097,-3.192812 -1.693486,-1.693488 z"
       id="path2"
       sodipodi:nodetypes="ccccc" /><path
       style="font-variation-settings:normal;opacity:1;fill:none;fill-opacity:1;stroke:#323232;stroke-width:0.647073;stroke-linecap:butt;stroke-linejoin:miter;stroke-miterlimit:4;stroke-dasharray:none;stroke-dashoffset:0;stroke-opacity:1;stop-color:#000000;stop-opacity:1"
       d="M 16.859179,15.851992 30.644808,2.0663635"
       id="path3"
       sodipodi:nodetypes="cc" /><path
       style="font-variation-settings:normal;fill:none;fill-opacity:1;stroke:#323232;stroke-width:0.647073;stroke-linecap:butt;stroke-linejoin:miter;stroke-miterlimit:4;stroke-dasharray:none;stroke-dashoffset:0;stroke-opacity:1;stop-color:#000000"
       d="M 17.531921,16.52473 31.31755,2.7391042"
       id="path3-5"
       sodipodi:nodetypes="cc" /><path
       style="font-variation-settings:normal;fill:none;fill-opacity:1;stroke:#323232;stroke-width:0.647073;stroke-linecap:butt;stroke-linejoin:miter;stroke-miterlimit:4;stroke-dasharray:none;stroke-dashoffset:0;stroke-opacity:1;stop-color:#000000"
       d="M 18.204657,17.19747 31.990288,3.4118435"
       id="path3-5-5"
       sodipodi:nodetypes="cc" /><path
       id="rect3"
       style="opacity:1;fill:#ffffff;fill-rule:evenodd;stroke:#323232;stroke-width:0.541194;stop-color:#000000;stop-opacity:1"
       d="m 21.796138,10.212372 0.804612,-0.8046105 2.002067,2.0020685 -0.80461,0.80461 z"
       sodipodi:nodetypes="ccccc" /><path
       id="rect3-6"
       style="fill:#ffffff;fill-rule:evenodd;stroke:#323232;stroke-width:0.541194;stop-color:#000000"
       d="m 28.276515,3.81898 0.804609,-0.8046104 2.002069,2.0020675 -0.804609,0.8046104 z"
       sodipodi:nodetypes="ccccc" /><path
       style="font-variation-settings:normal;opacity:1;vector-effect:none;fill:#ffffff;fill-opacity:1;stroke:#323232;stroke-width:0.541194;stroke-linecap:butt;stroke-linejoin:miter;stroke-miterlimit:4;stroke-dasharray:none;stroke-dashoffset:0;stroke-opacity:1;-inkscape-stroke:none;stop-color:#000000;stop-opacity:1"
       d="m 3.4291319,28.172437 3.4739589,3.473958 1.065565,-1.065565 c 0,0 -0.7284999,-1.196046 -1.4406873,-1.951724 -0.7121902,-0.75568 -1.9952172,-1.560291 -1.9952172,-1.560291 z"
       id="path4"
       sodipodi:nodetypes="cccscc" /><path
       style="font-variation-settings:normal;opacity:1;fill:none;fill-opacity:1;stroke:#323232;stroke-width:0.811794;stroke-linecap:butt;stroke-linejoin:miter;stroke-miterlimit:4;stroke-dasharray:none;stroke-dashoffset:0;stroke-opacity:1;stop-color:#000000;stop-opacity:1"
       d="m 4.7375887,27.273651 1.4388687,-1.43887"
       id="path5"
       sodipodi:nodetypes="cc" /><path
       style="font-variation-settings:normal;fill:none;fill-opacity:1;stroke:#323232;stroke-width:0.811794;stroke-linecap:butt;stroke-linejoin:miter;stroke-miterlimit:4;stroke-dasharray:none;stroke-dashoffset:0;stroke-opacity:1;stop-color:#000000"
       d="m 7.7370282,30.358735 1.5657284,-1.56573"
       id="path5-1"
       sodipodi:nodetypes="cc" /><path
       style="font-variation-settings:normal;opacity:1;vector-effect:none;fill:#ffffff;fill-opacity:1;stroke:#323232;stroke-width:0.541194;stroke-linecap:butt;stroke-linejoin:miter;stroke-miterlimit:4;stroke-dasharray:none;stroke-dashoffset:0;stroke-opacity:1;-inkscape-stroke:none;stop-color:#000000;stop-opacity:1"
       d="m 18.410662,13.181132 -0.976333,0.976336 -1.802941,-1.802945 c -0.01596,-0.510977 0.448659,-0.94802 0.976332,-0.976332 0.260862,0.346013 0.495722,0.739471 0.855353,0.847717 0.08937,0.339632 0.637573,0.617689 0.947588,0.955225 z"
       id="path6"
       sodipodi:nodetypes="ccccccc" /><path
       style="font-variation-settings:normal;opacity:1;vector-effect:none;fill:none;fill-opacity:1;stroke:#323232;stroke-width:0.541194;stroke-linecap:butt;stroke-linejoin:miter;stroke-miterlimit:4;stroke-dasharray:none;stroke-dashoffset:0;stroke-opacity:1;-inkscape-stroke:none;stop-color:#000000;stop-opacity:1"
       d="m 11.138576,24.079661 1.022566,1.022563 0.507437,-0.507438 0.388847,0.2245 2.470392,-2.470392 -1.60602,-1.606021 -2.460306,2.460305 0.207689,0.345878 z"
       id="path7"
       sodipodi:nodetypes="ccccccccc" /><path
       style="font-variation-settings:normal;opacity:1;vector-effect:none;fill:none;fill-opacity:1;stroke:#323232;stroke-width:0.541194;stroke-linecap:butt;stroke-linejoin:miter;stroke-miterlimit:4;stroke-dasharray:none;stroke-dashoffset:0;stroke-opacity:1;-inkscape-stroke:none;stop-color:#000000;stop-opacity:1"
       d="m 12.100439,18.593223 1.372732,-1.372732"
       id="path8"
       sodipodi:nodetypes="cc" /><path
       style="font-variation-settings:normal;opacity:1;vector-effect:none;fill:#323232;fill-opacity:1;stroke:none;stroke-width:0.541194;stroke-linecap:butt;stroke-linejoin:miter;stroke-miterlimit:4;stroke-dasharray:none;stroke-dashoffset:0;stroke-opacity:1;-inkscape-stroke:none;stop-color:#000000;stop-opacity:1"
       d="m 12.184944,18.376598 -1.153268,-1.153267 0.465154,-0.465152 1.516546,0.0077 0.459756,0.454665 -0.283407,0.283401 -0.258265,-0.258274 -1.126356,-3e-6 c 0,0 -0.141104,-0.0035 -0.204517,0.05992 -0.06343,0.06342 -0.09806,0.09651 0.02498,0.219563 l 0.715027,0.71503 z"
       id="path9"
       sodipodi:nodetypes="ccccccccsscc" /><path
       style="font-variation-settings:normal;opacity:1;vector-effect:none;fill:none;fill-opacity:1;stroke:#323232;stroke-width:0.541194;stroke-linecap:butt;stroke-linejoin:miter;stroke-miterlimit:4;stroke-dasharray:none;stroke-dashoffset:0;stroke-opacity:1;-inkscape-stroke:none;stop-color:#000000;stop-opacity:1"
       d="M 7.8434726,25.375592 8.808372,26.340493 9.9808617,25.168006 C 9.7376679,24.789441 9.4409326,24.517962 9.1159102,24.303052 l -0.4766836,0.476685 -0.099952,-0.09995 c -0.3073467,0.176631 -0.5422128,0.40642 -0.6958039,0.695801 z"
       id="path10"
       sodipodi:nodetypes="cccccccc" /><path
       style="font-variation-settings:normal;opacity:1;vector-effect:none;fill:#323232;fill-opacity:1;stroke:none;stroke-width:0.541194;stroke-linecap:butt;stroke-linejoin:miter;stroke-miterlimit:4;stroke-dasharray:none;stroke-dashoffset:0;stroke-opacity:1;-inkscape-stroke:none;stop-color:#000000;stop-opacity:1"
       d="m 7.3836001,20.671695 -1.1917108,1.19171 c 0,0 -0.3815474,0.350562 -0.1749576,0.633264 0.2065898,0.282702 0.3261926,0.500164 0.3261926,0.500164 l 0.2228993,0.222899 0.4621085,-0.462107 -0.364251,-0.36425 0.2229021,-0.222897 0.1522237,0.152223 0.559965,-0.559965 h 0.1141695 l 0.3180371,-0.318041 0.2745478,0.27455 0.1196081,-0.119612 z"
       id="path13"
       sodipodi:nodetypes="ccscccccccccccc" /><path
       style="font-variation-settings:normal;opacity:1;vector-effect:none;fill:none;fill-opacity:1;stroke:#323232;stroke-width:0.541194;stroke-linecap:butt;stroke-linejoin:miter;stroke-miterlimit:4;stroke-dasharray:none;stroke-dashoffset:0;stroke-opacity:1;-inkscape-stroke:none;stop-color:#000000;stop-opacity:1"
       d="m 6.7784826,22.891198 0.4816889,0.481689 1.3022257,-1.302228"
       id="path14"
       sodipodi:nodetypes="ccc" /><path
       style="font-variation-settings:normal;opacity:1;vector-effect:none;fill:none;fill-opacity:1;stroke:#323232;stroke-width:0.541194;stroke-linecap:butt;stroke-linejoin:miter;stroke-miterlimit:4;stroke-dasharray:none;stroke-dashoffset:0;stroke-opacity:1;-inkscape-stroke:none;stop-color:#000000;stop-opacity:1"
       d="M 15.466378,16.276539 17.68993,18.50009"
       id="path16"
       sodipodi:nodetypes="cc" /><path
       style="font-variation-settings:normal;opacity:1;vector-effect:none;fill:#ffffff;fill-opacity:1;stroke:#323232;stroke-width:0.541194;stroke-linecap:butt;stroke-linejoin:miter;stroke-miterlimit:4;stroke-dasharray:none;stroke-dashoffset:0;stroke-opacity:1;-inkscape-stroke:none;stop-color:#000000;stop-opacity:1"
       d="m 3.7712866,26.862571 0.651392,-0.651392 0.1281631,0.06665 0.447548,-0.447548 c 0,0 -0.4399124,-0.342055 -0.5214591,-0.521457 -0.081549,-0.179409 -0.062591,-0.295223 -0.062591,-0.295223 0,0 -0.1385639,-0.14514 -0.1983663,-0.346294 -0.059802,-0.201152 -0.066378,-0.278543 -0.066378,-0.278543 0,0 -0.210884,-0.194438 -0.2435028,-0.368405 -0.03262,-0.173967 0.050206,-0.436066 -0.1128898,-0.63178 -0.1630978,-0.195718 -0.6906123,0.0544 -1.0439883,0.309918 -0.3533721,0.255523 -0.706145,0.491937 -0.5871425,0.630644 0.2748694,0.320391 0.2789047,0.577198 0.6143314,1.147114 0.3584814,0.609091 0.9948855,1.386315 0.9948855,1.386315 z"
       id="path17"
       sodipodi:nodetypes="ccccscscssssscc" /><path
       style="font-variation-settings:normal;opacity:1;fill:#323232;fill-opacity:1;stroke:#323232;stroke-width:0.0676495;stroke-linecap:butt;stroke-linejoin:round;stroke-miterlimit:4;stroke-dasharray:none;stroke-dashoffset:0;stroke-opacity:1;stop-color:#000000;stop-opacity:1"
       d="M 2.7836323,25.367127 2.3176441,25.833111 C 2.1956254,25.373062 2.0051591,25.122025 1.6814248,25.023902 l 0.5746861,-0.574685 0.2895043,0.377261 v 0 z"
       id="path11"
       sodipodi:nodetypes="ccccccc" /><path
       sodipodi:type="star"
       style="fill:#323232;fill-opacity:1;stroke:none;stroke-width:2.64583;stroke-linecap:round;stroke-linejoin:round;stroke-dasharray:none;stroke-opacity:1"
       id="path19"
       inkscape:flatsided="true"
       sodipodi:sides="6"
       sodipodi:cx="11.524484"
       sodipodi:cy="96.320877"
       sodipodi:r1="1.6888783"
       sodipodi:r2="1.7383629"
       sodipodi:arg1="0.0034037591"
       sodipodi:arg2="0.52700258"
       inkscape:rounded="0"
       inkscape:randomized="0"
       d="m 13.213352,96.326626 -0.849412,1.459728 -1.688869,-0.0057 -0.8394558,-1.465477 0.8494128,-1.459729 1.688868,0.0057 z"
       transform="matrix(0.11598792,-0.11598792,0.11598792,0.11598792,-8.6451517,15.891337)" /><path
       sodipodi:type="star"
       style="fill:#7e7e7e;fill-opacity:1;stroke:none;stroke-width:2.64583;stroke-linecap:round;stroke-linejoin:round;stroke-dasharray:none;stroke-opacity:1"
       id="path20"
       inkscape:flatsided="true"
       sodipodi:sides="6"
       sodipodi:cx="109.54639"
       sodipodi:cy="119.58247"
       sodipodi:r1="7.0619702"
       sodipodi:r2="3.149205"
       sodipodi:arg1="-0.5344844"
       sodipodi:arg2="-0.010885628"
       inkscape:rounded="0"
       inkscape:randomized="0"
       d="m 115.62343,115.98512 0.0769,7.06156 -6.07705,3.59735 -6.15392,-3.46421 -0.0769,-7.06155 6.07704,-3.59735 z"
       transform="matrix(0.09039757,-0.09039757,0.09039757,0.09039757,-5.1197634,17.51825)" /><path
       sodipodi:type="star"
       style="fill:#323232;fill-opacity:1;stroke:none;stroke-width:2.64583;stroke-linecap:round;stroke-linejoin:round;stroke-dasharray:none;stroke-opacity:1"
       id="path21"
       inkscape:flatsided="true"
       sodipodi:sides="6"
       sodipodi:cx="155.34665"
       sodipodi:cy="92.153351"
       sodipodi:r1="1.5250131"
       sodipodi:r2="0.92291707"
       sodipodi:arg1="0.52359878"
       sodipodi:arg2="1.0471976"
       inkscape:rounded="0"
       inkscape:randomized="0"
       d="m 156.66735,92.915857 -1.3207,0.762507 -1.3207,-0.762507 0,-1.525013 1.3207,-0.762506 1.3207,0.762506 z"
       transform="matrix(0.11971263,-0.11971263,0.11971263,0.11971263,-13.220536,19.78768)" /><path
       sodipodi:type="star"
       style="fill:#323232;fill-opacity:1;stroke:none;stroke-width:2.64583;stroke-linecap:round;stroke-linejoin:round;stroke-dasharray:none;stroke-opacity:1"
       id="path21-0"
       inkscape:flatsided="true"
       sodipodi:sides="6"
       sodipodi:cx="155.34665"
       sodipodi:cy="92.153351"
       sodipodi:r1="1.5250131"
       sodipodi:r2="0.92291707"
       sodipodi:arg1="0.52359878"
       sodipodi:arg2="1.0471976"
       inkscape:rounded="0"
       inkscape:randomized="0"
       d="m 156.66735,92.915857 -1.3207,0.762507 -1.3207,-0.762507 0,-1.525013 1.3207,-0.762506 1.3207,0.762506 z"
       transform="matrix(0.11971263,-0.11971263,0.11971263,0.11971263,-12.219457,20.788758)" /><path
       sodipodi:type="star"
       style="fill:#323232;fill-opacity:1;stroke:none;stroke-width:2.64583;stroke-linecap:round;stroke-linejoin:round;stroke-dasharray:none;stroke-opacity:1"
       id="path19-8"
       inkscape:flatsided="true"
       sodipodi:sides="6"
       sodipodi:cx="11.524484"
       sodipodi:cy="96.320877"
       sodipodi:r1="1.6888783"
       sodipodi:r2="1.7383629"
       sodipodi:arg1="0.0034037591"
       sodipodi:arg2="0.52700258"
       inkscape:rounded="0"
       inkscape:randomized="0"
       d="m 13.213352,96.326626 -0.849412,1.459728 -1.688869,-0.0057 -0.8394558,-1.465477 0.8494128,-1.459729 1.688868,0.0057 z"
       transform="matrix(0.11598792,-0.11598792,0.11598792,0.11598792,-9.3699688,14.49522)" /><path
       id="rect1"
       style="opacity:1;fill:#ffffff;fill-rule:evenodd;stroke:#323232;stroke-width:0.541073;stop-color:#000000;stop-opacity:1"
       d="m 14.345839,26.142914 3.707696,-3.707697 2.483579,2.483579 -0.465756,0.872639 -2.326306,2.326302 -0.915636,0.508755 z"
       sodipodi:nodetypes="ccccccc" /><path
       style="font-variation-settings:normal;opacity:1;fill:none;fill-opacity:1;stroke:#323232;stroke-width:0.541073;stroke-linecap:butt;stroke-linejoin:miter;stroke-miterlimit:4;stroke-dasharray:none;stroke-dashoffset:0;stroke-opacity:1;stop-color:#000000;stop-opacity:1"
       d="m 16.438727,28.117156 3.618711,-3.618711"
       id="path12"
       sodipodi:nodetypes="cc" /><path
       sodipodi:type="star"
       style="fill:#323232;fill-opacity:1;stroke:none;stroke-width:2.64583;stroke-linecap:round;stroke-linejoin:round;stroke-dasharray:none;stroke-opacity:1"
       id="path21-0-4"
       inkscape:flatsided="true"
       sodipodi:sides="6"
       sodipodi:cx="155.34665"
       sodipodi:cy="92.153351"
       sodipodi:r1="1.5250131"
       sodipodi:r2="0.92291707"
       sodipodi:arg1="0.52359878"
       sodipodi:arg2="1.0471976"
       inkscape:rounded="0"
       inkscape:randomized="0"
       d="m 156.66735,92.915857 -1.3207,0.762507 -1.3207,-0.762507 0,-1.525013 1.3207,-0.762506 1.3207,0.762506 z"
       transform="matrix(0.17024533,-0.17024533,0.17024533,0.17024533,-37.376117,39.081767)" /><path
       sodipodi:type="star"
       style="fill:#323232;fill-opacity:1;stroke:none;stroke-width:2.64583;stroke-linecap:round;stroke-linejoin:round;stroke-dasharray:none;stroke-opacity:1"
       id="path21-0-4-3"
       inkscape:flatsided="true"
       sodipodi:sides="6"
       sodipodi:cx="155.34665"
       sodipodi:cy="92.153351"
       sodipodi:r1="1.5250131"
       sodipodi:r2="0.92291707"
       sodipodi:arg1="0.52359878"
       sodipodi:arg2="1.0471976"
       inkscape:rounded="0"
       inkscape:randomized="0"
       d="m 156.66735,92.915857 -1.3207,0.762507 -1.3207,-0.762507 0,-1.525013 1.3207,-0.762506 1.3207,0.762506 z"
       transform="matrix(0.17024533,-0.17024533,0.17024533,0.17024533,-35.336796,41.121088)" /><path
       style="font-variation-settings:normal;opacity:1;fill:none;fill-opacity:1;stroke:#7e7e7e;stroke-width:1.05833;stroke-linecap:butt;stroke-linejoin:miter;stroke-miterlimit:4;stroke-dasharray:none;stroke-dashoffset:0;stroke-opacity:1;stop-color:#000000;stop-opacity:1"
       d="m 17.167442,23.703355 1.652372,1.652372"
       id="path15"
       sodipodi:nodetypes="cc" /></g></svg>
