<?xml version="1.0" encoding="UTF-8" standalone="no"?>
<!-- Created with Inkscape (http://www.inkscape.org/) -->

<svg
   width="128"
   height="128"
   viewBox="0 0 33.866666 33.866666"
   version="1.1"
   id="svg5"
   inkscape:version="1.4.2 (f4327f4, 2025-05-13)"
   sodipodi:docname="loot-weapon-spas16.svg"
   xml:space="preserve"
   xmlns:inkscape="http://www.inkscape.org/namespaces/inkscape"
   xmlns:sodipodi="http://sodipodi.sourceforge.net/DTD/sodipodi-0.dtd"
   xmlns="http://www.w3.org/2000/svg"
   xmlns:svg="http://www.w3.org/2000/svg"><sodipodi:namedview
     id="namedview7"
     pagecolor="#ffffff"
     bordercolor="#999999"
     borderopacity="1"
     inkscape:pageshadow="0"
     inkscape:pageopacity="0"
     inkscape:pagecheckerboard="true"
     inkscape:document-units="px"
     showgrid="false"
     units="px"
     inkscape:zoom="4.5569239"
     inkscape:cx="58.811603"
     inkscape:cy="58.921326"
     inkscape:window-width="1920"
     inkscape:window-height="1111"
     inkscape:window-x="-9"
     inkscape:window-y="-9"
     inkscape:window-maximized="1"
     inkscape:current-layer="layer1"
     inkscape:lockguides="true"
     inkscape:showpageshadow="0"
     inkscape:deskcolor="#d1d1d1" /><defs
     id="defs2" /><g
     inkscape:label="Layer 1"
     inkscape:groupmode="layer"
     id="layer1"><path
       style="font-variation-settings:normal;fill:none;fill-opacity:1;stroke:#323232;stroke-width:0.436625;stroke-linecap:butt;stroke-linejoin:miter;stroke-miterlimit:4;stroke-dasharray:none;stroke-dashoffset:0;stroke-opacity:1;paint-order:fill markers stroke;stop-color:#000000"
       d="M 25.921185,8.2937092 24.864183,7.2367033"
       id="path16187-1-1-4-0"
       sodipodi:nodetypes="cc" /><path
       style="font-variation-settings:normal;fill:none;fill-opacity:1;stroke:#323232;stroke-width:0.436625;stroke-linecap:butt;stroke-linejoin:miter;stroke-miterlimit:4;stroke-dasharray:none;stroke-dashoffset:0;stroke-opacity:1;paint-order:fill markers stroke;stop-color:#000000"
       d="M 26.403593,7.8113018 25.637671,7.0453786"
       id="path16187-1-1-4-9-8"
       sodipodi:nodetypes="cc" /><path
       style="font-variation-settings:normal;opacity:1;fill:#ffffff;fill-opacity:1;stroke:#323232;stroke-width:0.582083;stroke-linecap:butt;stroke-linejoin:miter;stroke-miterlimit:4;stroke-dasharray:none;stroke-dashoffset:0;stroke-opacity:1;paint-order:fill markers stroke;stop-color:#000000;stop-opacity:1"
       d="m 9.8760072,20.800735 2.0046808,2.004686 0.239521,-0.239516 0.671087,10e-7 2.372392,-2.372393 c 0,0 0.338787,-0.356762 0.669286,-0.285336 0.155816,0.03367 0.398717,0.19822 0.481166,0.27385 l 0.701623,-0.701623 c 0,0 0.113322,-0.140164 0.235417,-0.04079 0.122093,0.09938 0.619009,0.533831 0.619009,0.533831 l 2.334004,-2.862281 -1.408629,-1.172552 0.0488,-0.04879 -0.0611,-0.481897 -1.757218,-1.757218 z"
       id="path1725"
       sodipodi:nodetypes="cccccsccsccccccc" /><path
       id="path1973"
       style="font-variation-settings:normal;opacity:1;vector-effect:none;fill:#ffffff;fill-opacity:1;stroke:#323232;stroke-width:0.582166;stroke-linecap:butt;stroke-linejoin:miter;stroke-miterlimit:4;stroke-dasharray:none;stroke-dashoffset:0;stroke-opacity:1;-inkscape-stroke:none;paint-order:fill markers stroke;stop-color:#000000;stop-opacity:1"
       d="m 13.040295,23.520237 c 1.09e-4,1.08e-4 0.232744,0.24109 0.216687,0.481972 -0.01606,0.240941 0.0805,0.770693 0.196955,1.208403 0.116454,0.437705 0.493768,1.361288 0.594153,1.509864 0.100391,0.14858 0.445906,-0.01965 0.947867,-0.320828 0.501958,-0.301172 0.90344,-0.45409 1.060047,-0.723141 0.156607,-0.26905 -0.112394,-0.273226 -0.34129,-0.550304 -0.228889,-0.277084 -0.593115,-1.194658 -0.706699,-1.484286 -0.113577,-0.289629 -0.337853,-1.292078 -0.332155,-1.428377 0.0057,-0.136298 -0.153106,-0.175762 -0.153106,-0.175762 z" /><path
       style="font-variation-settings:normal;opacity:1;vector-effect:none;fill:#323232;fill-opacity:1;stroke:none;stroke-width:0.582166;stroke-linecap:butt;stroke-linejoin:miter;stroke-miterlimit:4;stroke-dasharray:none;stroke-dashoffset:0;stroke-opacity:1;-inkscape-stroke:none;paint-order:fill markers stroke;stop-color:#000000;stop-opacity:1"
       d="m 12.64179,23.524891 c -0.216847,-0.188737 -0.542369,-0.148123 -0.542369,-0.148123 l 0.240112,-0.24011 0.775022,2e-6 z"
       id="path1975"
       sodipodi:nodetypes="ccccc" /><path
       style="font-variation-settings:normal;opacity:1;vector-effect:none;fill:#ffffff;fill-opacity:1;stroke:#323232;stroke-width:0.582166;stroke-linecap:butt;stroke-linejoin:miter;stroke-miterlimit:4;stroke-dasharray:none;stroke-dashoffset:0;stroke-opacity:1;-inkscape-stroke:none;paint-order:fill markers stroke;stop-color:#000000;stop-opacity:1"
       d="m 18.678307,20.399477 1.969356,-2.424173 c 0,0 1.278034,1.168884 1.837465,1.619151 0.559428,0.450265 0.964212,0.773186 0.964212,0.773186 l -1.987553,2.3787 c 0,0 -1.064273,-0.827769 -1.746498,-1.391742 C 19.03306,20.790626 18.678302,20.39948 18.678302,20.39948 Z"
       id="path2394"
       sodipodi:nodetypes="ccsccsc" /><path
       style="font-variation-settings:normal;opacity:1;vector-effect:none;fill:none;fill-opacity:1;stroke:#323232;stroke-width:0.582166;stroke-linecap:butt;stroke-linejoin:miter;stroke-miterlimit:4;stroke-dasharray:none;stroke-dashoffset:0;stroke-opacity:1;-inkscape-stroke:none;paint-order:fill markers stroke;stop-color:#000000;stop-opacity:1"
       d="m 21.725583,22.427965 1.987552,-2.378696"
       id="path2396" /><path
       style="font-variation-settings:normal;opacity:1;vector-effect:none;fill:none;fill-opacity:1;stroke:#323232;stroke-width:0.582166;stroke-linecap:butt;stroke-linejoin:miter;stroke-miterlimit:4;stroke-dasharray:none;stroke-dashoffset:0;stroke-opacity:1;-inkscape-stroke:none;paint-order:fill markers stroke;stop-color:#000000;stop-opacity:1"
       d="m 18.462049,15.076058 -7.095218,7.095217"
       id="path2513"
       sodipodi:nodetypes="cc" /><path
       style="font-variation-settings:normal;opacity:1;vector-effect:none;fill:none;fill-opacity:1;stroke:#323232;stroke-width:0.582166;stroke-linecap:butt;stroke-linejoin:miter;stroke-miterlimit:4;stroke-dasharray:none;stroke-dashoffset:0;stroke-opacity:1;-inkscape-stroke:none;paint-order:fill markers stroke;stop-color:#000000;stop-opacity:1"
       d="m 15.351568,18.368464 c 1.337164,1.337163 1.337164,1.337163 1.337164,1.337163"
       id="path2515" /><path
       style="font-variation-settings:normal;opacity:1;vector-effect:none;fill:#ffffff;fill-opacity:1;stroke:#323232;stroke-width:0.582166;stroke-linecap:butt;stroke-linejoin:miter;stroke-miterlimit:4;stroke-dasharray:none;stroke-dashoffset:0;stroke-opacity:1;-inkscape-stroke:none;paint-order:fill markers stroke;stop-color:#000000;stop-opacity:1"
       d="m 17.113919,12.497438 2.000383,2.000375 3.321412,-3.321413 c 0,0 0.326854,0.29956 0.458749,0.340492 0.131903,0.04093 0.413881,0.377507 0.573072,0.254701 0.159186,-0.122798 -0.05003,-0.33202 0.09097,-0.509395 C 23.6995,11.084815 24.841092,9.6794311 25.273171,8.9926571 25.705247,8.3058827 25.891726,7.928386 26.019069,7.8010346 L 27.60574,6.2143577 c 0,0 0.02338,-0.2416876 0.01428,-0.5964467 -0.0091,-0.3547583 -0.0091,-0.3547583 -0.100057,-0.4457219 L 26.432946,4.0851765 c 0,0 -0.04093,-0.068222 -0.209218,0.027288 C 26.05545,4.2079815 25.582437,4.5536377 25.491474,4.526349 25.400504,4.499062 25.104876,4.3853547 24.982077,4.435383 24.859279,4.485419 23.740425,5.1676395 23.740425,5.1676395 l -1.664629,1.6646312 0.02729,0.090969 c 0,0 -0.172851,0.1819018 -0.231954,0.304729 -0.05914,0.1227948 -0.500296,0.8732493 -0.686772,1.0597247 l -0.332016,0.3320177 0.06965,0.06966 z"
       id="path4531"
       sodipodi:nodetypes="cccssssscsscssscccssccc" /><path
       style="font-variation-settings:normal;opacity:1;vector-effect:none;fill:none;fill-opacity:1;stroke:#323232;stroke-width:0.582166;stroke-linecap:butt;stroke-linejoin:miter;stroke-miterlimit:4;stroke-dasharray:none;stroke-dashoffset:0;stroke-opacity:1;-inkscape-stroke:none;paint-order:fill markers stroke;stop-color:#000000;stop-opacity:1"
       d="m 22.435714,11.1764 -0.250766,-0.250766 c 0,0 -0.08184,-0.07279 0,-0.154641 0.08187,-0.08187 0.127349,-0.127348 0.127349,-0.127348 0,0 0.09097,-0.04547 -0.0045,-0.141 -0.09551,-0.09551 -1.56912,-1.5691179 -1.56912,-1.5691179"
       id="path5736" /><path
       style="font-variation-settings:normal;opacity:1;vector-effect:none;fill:none;fill-opacity:1;stroke:#323232;stroke-width:0.582166;stroke-linecap:butt;stroke-linejoin:miter;stroke-miterlimit:4;stroke-dasharray:none;stroke-dashoffset:0;stroke-opacity:1;-inkscape-stroke:none;paint-order:fill markers stroke;stop-color:#000000;stop-opacity:1"
       d="M 20.738629,8.9335351 25.264062,4.4081015"
       id="path6100" /><path
       style="font-variation-settings:normal;opacity:1;vector-effect:none;fill:none;fill-opacity:1;stroke:#323232;stroke-width:0.582166;stroke-linecap:butt;stroke-linejoin:miter;stroke-miterlimit:4;stroke-dasharray:none;stroke-dashoffset:0;stroke-opacity:1;-inkscape-stroke:none;paint-order:fill markers stroke;stop-color:#000000;stop-opacity:1"
       d="M 24.281656,4.9902654 C 21.834738,7.4371808 21.834738,7.4371808 21.834738,7.4371808"
       id="path7192" /><path
       style="font-variation-settings:normal;opacity:1;vector-effect:none;fill:#323232;fill-opacity:1;stroke:none;stroke-width:0.582166;stroke-linecap:butt;stroke-linejoin:miter;stroke-miterlimit:4;stroke-dasharray:none;stroke-dashoffset:0;stroke-opacity:1;-inkscape-stroke:none;paint-order:fill markers stroke;stop-color:#000000;stop-opacity:1"
       d="m 27.527474,4.4573218 0.34572,0.345725 c 0,0 0.08278,0.079807 0.136273,0.1627612 0.05344,0.083007 0.05058,0.1006439 0.05058,0.1006439 l 1.388008,-1.3880075 c 0,0 0.26693,0.096479 0.437382,-0.073973 0.17045,-0.1704462 0.102917,-0.3151733 0.102917,-0.3151733 l 1.236562,-1.2365707 -0.713962,-0.7139621 -1.206017,1.206018 c 0,0 -0.14953,-0.1399131 -0.295877,0.025726 -0.146335,0.1656242 -0.225115,0.2798029 -0.209042,0.3987899 0.01609,0.1189919 0.05549,0.1599998 0.05549,0.1599998 z"
       id="path7528"
       sodipodi:nodetypes="ccsccsccccsscc" /><path
       style="font-variation-settings:normal;opacity:1;vector-effect:none;fill:#323232;fill-opacity:1;stroke:none;stroke-width:0.582166;stroke-linecap:butt;stroke-linejoin:miter;stroke-miterlimit:4;stroke-dasharray:none;stroke-dashoffset:0;stroke-opacity:1;-inkscape-stroke:none;paint-order:fill markers stroke;stop-color:#000000;stop-opacity:1"
       d="m 9.4891316,20.813664 0.7658914,-0.769002 c 0,0 -0.200121,-0.527586 -0.241054,-0.595812 -0.040934,-0.06823 -0.1448267,-0.167567 0.01891,-0.331303 l 5.729765,-5.729766 c 0,0 0.185376,-0.23271 0.441053,-0.144265 0.255675,0.08845 0.572462,0.32803 0.572462,0.32803 l 0.250363,-0.331977 c 0,0 -0.303411,-0.238895 -0.552657,-0.340198 -0.249246,-0.101298 -0.542718,-0.03174 -0.704183,-0.0022 -0.161462,0.02956 -0.266065,0.111432 -0.266065,0.111432 l -0.0523,-0.05232 -0.08243,0.08243 0.04775,0.04776 -0.208646,0.208646 c 0,0 -0.372379,-0.166579 -0.395123,-0.148385 -0.02273,0.0182 -0.03014,0.05513 0.01536,0.100621 l 0.206944,0.206938 -0.134175,0.134174 -0.08181,-0.0818 c 0,0 -4.743744,4.620948 -5.1985591,5.057576 -0.4548132,0.436627 -0.3571003,1.212021 -0.2797823,1.525845 0.07732,0.313822 0.1482294,0.723456 0.1482294,0.723456 z"
       id="path8311"
       sodipodi:nodetypes="ccsscsccsscccccsscccsscc" /><path
       style="font-variation-settings:normal;opacity:1;fill:none;fill-opacity:1;stroke:#323232;stroke-width:0.436625;stroke-linecap:butt;stroke-linejoin:miter;stroke-miterlimit:4;stroke-dasharray:none;stroke-dashoffset:0;stroke-opacity:1;paint-order:fill markers stroke;stop-color:#000000;stop-opacity:1"
       d="M 15.390119,15.038112 C 14.856255,14.504246 14.856255,14.504246 14.856255,14.504246"
       id="path8671" /><path
       style="font-variation-settings:normal;opacity:1;vector-effect:none;fill:#323232;fill-opacity:1;stroke:none;stroke-width:0.582166;stroke-linecap:butt;stroke-linejoin:miter;stroke-miterlimit:4;stroke-dasharray:none;stroke-dashoffset:0;stroke-opacity:1;-inkscape-stroke:none;paint-order:fill markers stroke;stop-color:#000000;stop-opacity:1"
       d="m 24.586656,4.0600077 c 0,0 0.129235,-0.097429 0.281028,-0.1380223 0.09784,-0.02617 0.227629,-0.024708 0.300114,-0.00895 0.184921,0.040199 0.280691,0.090942 0.280691,0.090942 0,0 0.08083,-0.038474 0.125862,-0.067427 0.04502,-0.028942 0.146333,-0.09487 0.146333,-0.09487 0,0 -0.187152,-0.1529988 -0.328616,-0.320272 C 25.25056,3.3541766 24.984306,3.2037035 24.870137,3.3178702 l -0.374666,0.3746697 c 0,0 -0.0611,0.061104 -0.03538,0.1833075 0.02573,0.12221 0.126582,0.1841405 0.126582,0.1841405 z"
       id="path10885"
       sodipodi:nodetypes="csscscsscscc" /><path
       style="font-variation-settings:normal;opacity:1;vector-effect:none;fill:none;fill-opacity:1;stroke:#323232;stroke-width:0.582166;stroke-linecap:butt;stroke-linejoin:miter;stroke-miterlimit:4;stroke-dasharray:none;stroke-dashoffset:0;stroke-opacity:1;-inkscape-stroke:none;paint-order:fill markers stroke;stop-color:#000000;stop-opacity:1"
       d="M 26.610322,4.144304 C 26.908226,3.8463993 26.908226,3.8463993 26.908226,3.8463993"
       id="path11614" /><path
       style="font-variation-settings:normal;opacity:1;vector-effect:none;fill:#323232;fill-opacity:1;stroke:none;stroke-width:0.582166;stroke-linecap:butt;stroke-linejoin:miter;stroke-miterlimit:4;stroke-dasharray:none;stroke-dashoffset:0;stroke-opacity:1;-inkscape-stroke:none;paint-order:fill markers stroke;stop-color:#000000;stop-opacity:1"
       d="m 15.101051,16.326921 1.841228,-1.841235 c 0,0 0.160766,-0.16416 0.324527,-4.11e-4 l 0.311552,0.31155 c 0,0 0.168277,0.140997 -0.01819,0.327468 l -1.86248,1.86248 c 0,0 -0.325157,0.338875 -0.648116,0.01592 -0.327466,-0.327469 0.05148,-0.675781 0.05148,-0.675781 z"
       id="path12272"
       sodipodi:nodetypes="ccscscsc" /><circle
       style="font-variation-settings:normal;opacity:1;vector-effect:none;fill:#323232;fill-opacity:1;fill-rule:evenodd;stroke:none;stroke-width:0.145541;stroke-linecap:round;stroke-linejoin:round;stroke-miterlimit:4;stroke-dasharray:none;stroke-dashoffset:0;stroke-opacity:1;-inkscape-stroke:none;stop-color:#000000;stop-opacity:1"
       id="path12704"
       cx="-4.8766131"
       cy="24.35317"
       r="0.20047857"
       transform="rotate(-45)" /><path
       style="font-variation-settings:normal;opacity:1;vector-effect:none;fill:none;fill-opacity:1;stroke:#323232;stroke-width:0.582166;stroke-linecap:round;stroke-linejoin:miter;stroke-miterlimit:4;stroke-dasharray:none;stroke-dashoffset:0;stroke-opacity:1;-inkscape-stroke:none;paint-order:fill markers stroke;stop-color:#000000;stop-opacity:1"
       d="m 20.156463,18.730297 c 1.796525,1.614603 2.127117,1.826944 2.127117,1.826944"
       id="path13681"
       sodipodi:nodetypes="cc" /><path
       style="font-variation-settings:normal;opacity:1;fill:#323232;fill-opacity:1;stroke:#323232;stroke-width:0.0727708;stroke-linecap:butt;stroke-linejoin:round;stroke-miterlimit:4;stroke-dasharray:none;stroke-dashoffset:0;stroke-opacity:1;paint-order:fill markers stroke;stop-color:#000000;stop-opacity:1"
       d="m 14.864658,20.738319 c 0.161464,0.807302 0.843686,0.820946 0.843686,0.820946 0,0 -0.15237,0.06141 -0.413882,0.0045 -0.261521,-0.05686 -0.422985,-0.254699 -0.457089,-0.307005 -0.03411,-0.05233 -0.354759,-0.122803 -0.354759,-0.122803 z"
       id="path15163" /><path
       style="font-variation-settings:normal;opacity:1;vector-effect:none;fill:#323232;fill-opacity:1;stroke:none;stroke-width:0.582166;stroke-linecap:butt;stroke-linejoin:miter;stroke-miterlimit:4;stroke-dasharray:none;stroke-dashoffset:0;stroke-opacity:1;-inkscape-stroke:none;paint-order:fill markers stroke;stop-color:#000000;stop-opacity:1"
       d="m 14.793979,21.936233 c 0.55316,-0.02573 0.735829,-0.03638 0.795579,-0.09614 l 0.738085,-0.738081 c 0,0 0.200959,-0.114211 0.154326,-0.292706 -0.04662,-0.178496 -0.162415,-0.255668 -0.162415,-0.255668 L 16.59774,20.27545 c 0,0 0.13186,0.302309 0.141509,0.440601 0.0096,0.138283 0.0016,0.252459 -0.152763,0.406827 l -0.886022,0.886023 c 0,0 -0.09486,0.09811 -0.20904,0.112562 -0.11417,0.01447 -0.262108,0.0595 -0.393967,0.101308 -0.131855,0.0418 -0.191358,0.123816 -0.191358,0.123816 z"
       id="path15314"
       sodipodi:nodetypes="cscsccsscsscc" /><path
       style="font-variation-settings:normal;opacity:1;vector-effect:none;fill:#323232;fill-opacity:1;stroke:none;stroke-width:0.582166;stroke-linecap:butt;stroke-linejoin:miter;stroke-miterlimit:4;stroke-dasharray:none;stroke-dashoffset:0;stroke-opacity:1;-inkscape-stroke:none;paint-order:fill markers stroke;stop-color:#000000;stop-opacity:1"
       d="m 15.233062,23.858368 c 0.32747,-0.159184 0.384319,-0.193301 0.368407,-0.236504 -0.01592,-0.04321 -0.06368,-0.04547 -0.145544,-0.231953 -0.08187,-0.186477 -0.136444,-0.545782 -0.127349,-0.668584 0.0091,-0.122803 0.05457,-0.304728 -0.06595,-0.316094 -0.120526,-0.01138 -0.424747,-0.02681 -0.424747,-0.02681 z"
       id="path15716" /><circle
       style="font-variation-settings:normal;opacity:1;vector-effect:none;fill:#323232;fill-opacity:1;fill-rule:evenodd;stroke:none;stroke-width:0.145541;stroke-linecap:round;stroke-linejoin:round;stroke-miterlimit:4;stroke-dasharray:none;stroke-dashoffset:0;stroke-opacity:1;-inkscape-stroke:none;stop-color:#000000;stop-opacity:1"
       id="path15856"
       cx="-7.2561431"
       cy="27.653679"
       r="0.18887167"
       transform="rotate(-45)" /><path
       style="font-variation-settings:normal;opacity:1;fill:none;fill-opacity:1;stroke:#323232;stroke-width:0.436625;stroke-linecap:butt;stroke-linejoin:miter;stroke-miterlimit:4;stroke-dasharray:none;stroke-dashoffset:0;stroke-opacity:1;paint-order:fill markers stroke;stop-color:#000000;stop-opacity:1"
       d="M 23.689251,10.885843 C 22.452143,9.6487401 22.452143,9.6487401 22.452143,9.6487401"
       id="path16187" /><path
       style="font-variation-settings:normal;fill:none;fill-opacity:1;stroke:#323232;stroke-width:0.436625;stroke-linecap:butt;stroke-linejoin:miter;stroke-miterlimit:4;stroke-dasharray:none;stroke-dashoffset:0;stroke-opacity:1;paint-order:fill markers stroke;stop-color:#000000"
       d="M 24.171656,10.403435 C 22.934554,9.1663321 22.934554,9.1663321 22.934554,9.1663321"
       id="path16187-1" /><path
       style="font-variation-settings:normal;fill:none;fill-opacity:1;stroke:#323232;stroke-width:0.436625;stroke-linecap:butt;stroke-linejoin:miter;stroke-miterlimit:4;stroke-dasharray:none;stroke-dashoffset:0;stroke-opacity:1;paint-order:fill markers stroke;stop-color:#000000"
       d="M 24.654063,9.9210261 C 23.41696,8.6839231 23.41696,8.6839231 23.41696,8.6839231"
       id="path16187-1-1" /><path
       style="font-variation-settings:normal;fill:none;fill-opacity:1;stroke:#323232;stroke-width:0.436625;stroke-linecap:butt;stroke-linejoin:miter;stroke-miterlimit:4;stroke-dasharray:none;stroke-dashoffset:0;stroke-opacity:1;paint-order:fill markers stroke;stop-color:#000000"
       d="M 25.136471,9.4386231 C 23.899368,8.2015173 23.899368,8.2015173 23.899368,8.2015173"
       id="path16187-1-4" /><path
       style="font-variation-settings:normal;fill:none;fill-opacity:1;stroke:#323232;stroke-width:0.436625;stroke-linecap:butt;stroke-linejoin:miter;stroke-miterlimit:4;stroke-dasharray:none;stroke-dashoffset:0;stroke-opacity:1;paint-order:fill markers stroke;stop-color:#000000"
       d="M 25.438781,8.7761141 24.381774,7.7191093"
       id="path16187-1-1-4"
       sodipodi:nodetypes="cc" /><path
       style="font-variation-settings:normal;opacity:1;vector-effect:none;fill:none;fill-opacity:1;stroke:#323232;stroke-width:0.582166;stroke-linecap:butt;stroke-linejoin:miter;stroke-miterlimit:4;stroke-dasharray:none;stroke-dashoffset:0;stroke-opacity:1;-inkscape-stroke:none;paint-order:fill markers stroke;stop-color:#000000;stop-opacity:1"
       d="m 13.646067,19.686454 4.555076,-4.555075"
       id="path18886"
       sodipodi:nodetypes="cc" /><path
       style="font-variation-settings:normal;opacity:1;fill:none;fill-opacity:1;stroke:#323232;stroke-width:0.582167;stroke-linecap:butt;stroke-linejoin:miter;stroke-miterlimit:4;stroke-dasharray:none;stroke-dashoffset:0;stroke-opacity:1;paint-order:fill markers stroke;stop-color:#000000;stop-opacity:1"
       d="M 21.660429,9.8586661 C 26.910375,4.6087233 26.919256,4.5998399 26.919256,4.5998399"
       id="path888" /><path
       id="path1"
       style="font-variation-settings:normal;opacity:1;fill:#ffffff;fill-opacity:1;stroke:#323232;stroke-width:0.582083;stroke-linecap:butt;stroke-linejoin:miter;stroke-miterlimit:4;stroke-dasharray:none;stroke-dashoffset:0;stroke-opacity:1;stop-color:#000000;stop-opacity:1"
       d="m 9.3170209,21.446811 c 0,0 -0.2906149,0.408982 -0.5373805,0.670257 -0.2467655,0.261276 -1.0524376,1.677033 -1.2193653,2.018146 -0.1669303,0.341111 -4.1586162,4.391015 -4.5142449,4.746644 -0.3556287,0.355629 0.1669055,0.732833 0.9434824,1.233616 0.7765769,0.500783 2.3813609,1.925332 2.3813609,1.925332 0,0 2.8331821,-6.712623 3.0076692,-7.030807 0.1744862,-0.318184 0.4823382,-0.708159 0.4823382,-0.708159 l 1.1410691,-1.1701 z"
       sodipodi:nodetypes="cccsscsccc" /><path
       style="font-variation-settings:normal;opacity:1;fill:none;fill-opacity:1;stroke:#323232;stroke-width:0.582083;stroke-linecap:butt;stroke-linejoin:miter;stroke-miterlimit:4;stroke-dasharray:none;stroke-dashoffset:0;stroke-opacity:1;stop-color:#000000;stop-opacity:1"
       d="m 3.0460302,28.881858 c 1.682777,1.35234 3.3455411,2.809825 3.3455411,2.809825"
       id="path2" /></g></svg>
