<?xml version="1.0" encoding="UTF-8" standalone="no"?>
<!-- Created with Inkscape (http://www.inkscape.org/) -->

<svg
   width="32mm"
   height="32mm"
   viewBox="0 0 32 32"
   version="1.1"
   id="svg1"
   sodipodi:docname="loot-scope-05.svg"
   inkscape:version="1.4.2 (f4327f4, 2025-05-13)"
   inkscape:export-filename="loot-scope-05.png"
   inkscape:export-xdpi="96"
   inkscape:export-ydpi="96"
   xmlns:inkscape="http://www.inkscape.org/namespaces/inkscape"
   xmlns:sodipodi="http://sodipodi.sourceforge.net/DTD/sodipodi-0.dtd"
   xmlns="http://www.w3.org/2000/svg"
   xmlns:svg="http://www.w3.org/2000/svg">
  <sodipodi:namedview
     id="namedview1"
     pagecolor="#ffffff"
     bordercolor="#000000"
     borderopacity="0.25"
     inkscape:showpageshadow="2"
     inkscape:pageopacity="0.0"
     inkscape:pagecheckerboard="0"
     inkscape:deskcolor="#d1d1d1"
     inkscape:document-units="mm"
     inkscape:zoom="1.0397298"
     inkscape:cx="200.05198"
     inkscape:cy="172.64101"
     inkscape:window-width="1366"
     inkscape:window-height="705"
     inkscape:window-x="-8"
     inkscape:window-y="-8"
     inkscape:window-maximized="1"
     inkscape:current-layer="svg1" />
  <defs
     id="defs1" />
  <g
     id="layer1"
     transform="translate(-0.25447316)">
    <path
       d="M 15.62574,-0.03964193 V 1.6184882 C 8.2148832,1.9462234 2.2542134,7.9068505 1.9264709,15.31765 H 0.26833263 v 1.285671 H 1.9259647 C 2.2539556,24.01412 8.2146348,29.97475 15.625492,30.30248 v 1.657878 h 1.28568 v -1.65762 C 24.322028,29.97475 30.2827,24.01412 30.610444,16.603321 h 1.657888 V 15.31765 H 30.61069 C 30.2827,7.9068505 24.322028,1.9462234 16.911172,1.6184882 v -1.65813013 z m 0,2.94455913 v 1.0393036 h 1.28568 V 2.9049172 C 23.625868,3.229115 29.000056,8.6032535 29.324256,15.31765 h -1.417582 v 1.285671 h 1.417582 c -0.3242,6.714395 -5.698388,12.088539 -12.412836,12.412735 v -1.11511 h -1.28568 v 1.11511 C 8.9112918,28.69186 3.5371148,23.317716 3.2129154,16.603321 H 4.5041543 V 15.31765 H 3.2129154 C 3.5371148,8.6032535 8.9112918,3.229115 15.62574,2.9049172 Z"
       fill="#ffffff"
       id="path1"
       style="stroke-width:0.252687" />
    <path
       style="fill:#ffffff;fill-opacity:1;stroke:#000000;stroke-width:0.00832391;stroke-linecap:round;stroke-linejoin:round"
       d="M 11.263442,22.6981 C 9.3246008,22.452684 8.1882092,21.55504 7.7802092,19.946672 c -0.060062,-0.236756 -0.109196,-0.45465 -0.109196,-0.484211 0,-0.03734 0.183874,-0.06954 0.602389,-0.105482 0.3313134,-0.02846 0.682184,-0.06253 0.779712,-0.07571 l 0.177324,-0.02398 0.079026,0.335209 c 0.219656,0.931726 0.8017238,1.53422 1.7211728,1.781576 0.413643,0.11128 1.370291,0.13452 1.788063,0.04344 0.3966,-0.08646 0.945867,-0.3674 1.197464,-0.612462 0.40057,-0.390172 0.618363,-0.985884 0.619896,-1.695557 0.002,-0.877608 -0.367947,-1.474931 -1.150764,-1.85857 -0.586728,-0.28754 -1.19255,-0.394857 -2.232807,-0.395526 l -0.558579,-3.5e-4 v -0.657141 -0.657146 h 0.702809 c 0.848259,0 1.236637,-0.06859 1.741217,-0.307512 0.870077,-0.411988 1.2858,-1.225936 1.146672,-2.24508 -0.05629,-0.412337 -0.133631,-0.64142 -0.308616,-0.914109 -0.404923,-0.631014 -1.036125,-0.914851 -2.031746,-0.913628 -0.862379,0.0011 -1.432578,0.194442 -1.884395,0.639094 -0.2730942,0.268763 -0.5244582,0.742568 -0.6019062,1.134554 -0.028564,0.144572 -0.052946,0.266069 -0.054182,0.269995 -0.00572,0.01803 -1.482248,-0.114418 -1.502617,-0.134788 -0.051664,-0.05166 0.177338,-0.856871 0.3370906,-1.185246 0.6691644,-1.375483 2.2781486,-2.1188702 4.2244616,-1.9517982 1.736956,0.1491022 2.8651,0.9128272 3.269334,2.2132612 0.13191,0.424361 0.166836,1.275833 0.07098,1.730486 -0.09571,0.453955 -0.373,0.997925 -0.656954,1.288765 -0.405537,0.415374 -1.073942,0.773245 -1.691625,0.905712 -0.324458,0.06959 -0.280645,0.14937 0.117272,0.213561 1.250389,0.201707 2.136624,0.874336 2.502457,1.899295 0.1028,0.288014 0.11226,0.37383 0.111956,1.015554 -3e-4,0.63835 -0.01106,0.736172 -0.12036,1.095244 -0.175058,0.575058 -0.375378,0.905324 -0.811179,1.33737 -0.524899,0.520382 -1.099509,0.807062 -1.97712,0.986414 -0.320436,0.06548 -1.697164,0.1203 -2.014013,0.0802 z"
       id="path2" />
    <path
       style="fill:#ffffff;fill-opacity:1;stroke:#000000;stroke-width:0.008233;stroke-linecap:round;stroke-linejoin:round"
       d="m 20.833518,22.666494 c -1.858387,-0.33722 -2.938676,-1.750546 -3.333182,-4.360749 -0.106788,-0.706546 -0.130658,-2.628864 -0.04291,-3.456018 0.292544,-2.757826 1.242376,-4.209858 3.050834,-4.663892 0.71154,-0.17864 1.749346,-0.1593 2.460198,0.04585 1.948538,0.562336 2.923156,2.585253 2.932114,6.085891 0.0038,1.500869 -0.13716,2.556127 -0.46885,3.509062 -0.484156,1.390922 -1.28102,2.296338 -2.34742,2.667194 -0.646646,0.22488 -1.57188,0.295856 -2.25078,0.17266 z m 1.665476,-1.278488 c 1.03881,-0.366974 1.63197,-1.503574 1.828772,-3.504265 0.0571,-0.580531 0.05682,-2.447896 -4.74e-4,-3.061097 -0.1949,-2.08618 -0.76328,-3.134018 -1.883658,-3.472549 -0.396456,-0.119792 -1.248056,-0.107336 -1.624934,0.02377 -0.520362,0.18102 -0.833802,0.419422 -1.1262,0.856589 -0.348896,0.521641 -0.552722,1.168395 -0.70086,2.223876 -0.09146,0.651647 -0.07847,3.300019 0.01938,3.948866 0.277569,1.840736 0.861095,2.738472 1.981008,3.047722 0.351844,0.09716 1.147912,0.06392 1.50695,-0.0629 z"
       id="path3" />
  </g>
</svg>
