<?xml version="1.0" encoding="UTF-8" standalone="no"?>
<!-- Created with Inkscape (http://www.inkscape.org/) -->

<svg
   version="1.1"
   id="svg1"
   width="128"
   height="128"
   viewBox="0 0 128 128"
   sodipodi:docname="loot-perk-holy-shield.svg"
   inkscape:version="1.4.2 (f4327f4, 2025-05-13)"
   xmlns:inkscape="http://www.inkscape.org/namespaces/inkscape"
   xmlns:sodipodi="http://sodipodi.sourceforge.net/DTD/sodipodi-0.dtd"
   xmlns="http://www.w3.org/2000/svg"
   xmlns:svg="http://www.w3.org/2000/svg">
  <defs
     id="defs1" />
  <sodipodi:namedview
     id="namedview1"
     pagecolor="#6f6f6f"
     bordercolor="#000000"
     borderopacity="0.25"
     inkscape:showpageshadow="2"
     inkscape:pageopacity="0.0"
     inkscape:pagecheckerboard="0"
     inkscape:deskcolor="#d1d1d1"
     inkscape:zoom="1.9648438"
     inkscape:cx="40.715706"
     inkscape:cy="16.540755"
     inkscape:window-width="1366"
     inkscape:window-height="705"
     inkscape:window-x="-8"
     inkscape:window-y="-8"
     inkscape:window-maximized="1"
     inkscape:current-layer="g1">
    <inkscape:page
       x="0"
       y="0"
       width="128"
       height="128"
       id="page2"
       margin="0"
       bleed="0" />
  </sodipodi:namedview>
  <g
     inkscape:groupmode="layer"
     inkscape:label="Image"
     id="g1">
    <path
       style="fill:#000000;stroke-width:1.19135"
       d="m 62.167215,120.9254 c -0.885537,-0.45744 -2.301664,-1.21332 -3.146949,-1.67975 -0.845286,-0.46643 -2.426079,-1.39517 -3.512874,-2.06386 -1.086796,-0.66871 -3.054675,-1.95786 -4.373066,-2.86479 -1.31839,-0.90695 -3.129715,-2.21749 -4.025168,-2.9123 -0.895451,-0.69483 -2.484357,-1.99787 -3.530901,-2.89566 -1.046544,-0.89778 -3.013472,-2.76279 -4.370952,-4.14446 -1.35748,-1.38167 -3.125023,-3.29621 -3.927875,-4.25453 -0.802853,-0.958317 -2.103281,-2.628747 -2.889839,-3.712065 -0.78656,-1.083317 -1.973611,-2.856018 -2.637894,-3.939336 -0.664282,-1.083317 -1.633117,-2.770135 -2.152969,-3.748483 -0.519851,-0.978348 -1.29599,-2.546507 -1.724754,-3.484798 -0.428763,-0.93829 -1.091223,-2.524152 -1.472133,-3.524137 C 24.020932,80.701245 23.450388,79.064906 23.133969,78.06492 22.817548,77.064935 22.230133,74.917239 21.828602,73.292263 21.427072,71.667287 20.869918,69.051721 20.590483,67.479896 20.311048,65.908069 19.920355,63.249017 19.722277,61.570891 19.5242,59.892764 19.260454,57.18403 19.136175,55.55148 19.011895,53.918929 18.846641,50.521275 18.76894,48.001136 18.67809,45.054201 18.67818,41.274341 18.769199,37.409 c 0.07785,-3.305534 0.209877,-7.37368 0.293411,-9.040322 0.08354,-1.666642 0.187318,-3.320027 0.230634,-3.674189 l 0.07876,-0.64393 h 0.873413 c 0.480377,0 1.843069,-0.104556 3.028204,-0.232332 1.185135,-0.127782 3.187062,-0.400959 4.448727,-0.607058 1.261665,-0.2061 2.938499,-0.51201 3.726298,-0.679802 0.787799,-0.167791 2.458699,-0.577108 3.713111,-0.909592 1.254412,-0.332484 3.068497,-0.870226 4.031299,-1.194981 0.962803,-0.324755 2.606813,-0.92847 3.653356,-1.341587 1.046544,-0.413119 2.586941,-1.071163 3.423104,-1.462321 0.836164,-0.391158 2.090317,-1.007537 2.787008,-1.36973 0.696692,-0.362195 2.021482,-1.096355 2.94398,-1.631468 0.922498,-0.535113 2.232827,-1.334024 2.911844,-1.775361 0.679015,-0.441335 1.568211,-1.043924 1.975991,-1.339086 0.407779,-0.295162 1.235416,-0.910214 1.839191,-1.366785 0.603775,-0.45657 1.558838,-1.210982 2.122362,-1.6764698 0.563523,-0.4654889 1.503977,-1.2839545 2.089897,-1.8188133 l 1.06531,-0.9724707 0.325203,0.3010502 c 0.178861,0.1655782 0.836481,0.7562241 1.461374,1.3125456 0.624895,0.5563228 1.876356,1.5809539 2.781026,2.276957 0.90467,0.696004 2.43525,1.809801 3.401291,2.475104 0.96604,0.665303 2.382167,1.58846 3.146949,2.051458 0.764782,0.462998 2.641974,1.489029 4.171538,2.280069 1.529564,0.791041 3.706979,1.816506 4.838701,2.278811 1.131722,0.462306 3.041848,1.178908 4.244722,1.592453 1.202876,0.413543 3.076244,0.992864 4.16304,1.28738 1.086795,0.294515 2.931054,0.738871 4.098353,0.987457 1.167298,0.248586 3.242089,0.622113 4.610644,0.830061 1.36856,0.207948 3.34455,0.45227 4.39109,0.542939 1.04654,0.09067 2.16627,0.18116 2.48829,0.201091 l 0.58548,0.03624 0.1709,3.257529 c 0.094,1.79164 0.24486,6.052941 0.33525,9.469558 0.11698,4.423304 0.12064,7.586296 0.0125,10.984688 -0.0835,2.624961 -0.24918,6.102183 -0.36819,7.727159 -0.11903,1.624976 -0.34771,4.116225 -0.50819,5.536107 -0.16046,1.419884 -0.49322,3.806212 -0.73944,5.302953 -0.24623,1.496742 -0.6774,3.748378 -0.95818,5.003637 -0.28076,1.255259 -0.87394,3.53352 -1.31818,5.062803 -0.44424,1.529282 -1.17488,3.740841 -1.62364,4.914574 -0.44877,1.173735 -1.30275,3.182571 -1.89773,4.464081 -0.59499,1.281509 -1.42251,2.951939 -1.838923,3.712066 -0.416421,0.760128 -1.427689,2.438852 -2.247264,3.7305 -0.819573,1.291648 -2.004427,3.030258 -2.633008,3.86358 -0.628569,0.833317 -1.71989,2.196934 -2.425146,3.030257 -0.705255,0.83332 -1.765915,2.02648 -2.357021,2.65148 -0.591105,0.62499 -1.798414,1.84606 -2.682908,2.7135 -0.884495,0.86744 -2.332882,2.20177 -3.218639,2.96518 -0.885756,0.76339 -2.414818,2.0144 -3.397913,2.77999 -0.983095,0.7656 -2.596641,1.96338 -3.585658,2.66174 -0.989017,0.69838 -2.654477,1.81165 -3.70102,2.47394 -1.046544,0.66231 -2.660271,1.63678 -3.586059,2.16551 -0.925789,0.52873 -2.654145,1.46037 -3.840793,2.07029 -1.186646,0.60993 -2.240509,1.10462 -2.341916,1.09931 -0.101405,-0.005 -0.908906,-0.38392 -1.794443,-0.84135 z m 3.186467,-7.12232 c 0.743047,-0.38539 2.141392,-1.14566 3.107433,-1.68951 0.96604,-0.54384 2.678566,-1.56649 3.805613,-2.27257 1.127047,-0.70607 2.674907,-1.72937 3.439689,-2.27399 0.764782,-0.54463 1.98331,-1.44987 2.707841,-2.01166 0.72453,-0.56179 2.014248,-1.62476 2.866038,-2.36217 0.851791,-0.7374 2.267918,-2.03829 3.146949,-2.89086 0.879033,-0.852566 2.30501,-2.352544 3.168841,-3.333281 0.863831,-0.980736 2.070825,-2.430875 2.682208,-3.22253 0.611383,-0.791655 1.829512,-2.551719 2.706953,-3.911254 0.877908,-1.360258 2.149381,-3.608762 2.827334,-4.999927 0.677593,-1.390425 1.529609,-3.278035 1.893369,-4.194688 0.36376,-0.916653 0.838434,-2.177998 1.054829,-2.802989 0.216397,-0.624991 0.520088,-1.545432 0.674871,-2.045425 0.154784,-0.499992 0.57317,-2.068151 0.92975,-3.484797 0.35659,-1.416646 0.81235,-3.462071 1.01281,-4.545388 0.20046,-1.083318 0.50357,-2.992381 0.67358,-4.242362 0.17001,-1.249982 0.43521,-3.643539 0.58933,-5.319015 0.15412,-1.675477 0.35641,-5.391332 0.44953,-8.257455 l 0.1693,-5.211134 -0.18154,-6.4393 c -0.0999,-3.541615 -0.22323,-6.882475 -0.27416,-7.424134 l -0.0926,-0.984834 -1.24415,-0.108338 c -0.68428,-0.05959 -2.166269,-0.21775 -3.293316,-0.351477 -1.127047,-0.133726 -3.037172,-0.444814 -4.244723,-0.691305 -1.20755,-0.246491 -3.216475,-0.721186 -4.464277,-1.054878 C 88.217372,27.344117 86.139392,26.703034 84.84744,26.253182 83.555489,25.803328 81.316032,24.91617 79.870869,24.28172 78.425706,23.647268 76.15173,22.525468 74.81759,21.788829 73.483451,21.052189 71.474526,19.843345 70.353313,19.102508 69.2321,18.361672 67.656081,17.238425 66.851047,16.606403 c -0.805033,-0.632021 -1.749862,-1.397427 -2.099617,-1.7009 -0.349756,-0.303474 -0.686322,-0.551771 -0.747925,-0.551771 -0.0616,0 -0.614313,0.432283 -1.228245,0.96063 -0.613932,0.528347 -1.858159,1.510007 -2.764949,2.181468 -0.90679,0.671459 -2.373239,1.680009 -3.258776,2.241222 -0.885537,0.561212 -2.729796,1.620916 -4.098353,2.354898 -1.368558,0.733984 -3.377482,1.722294 -4.464278,2.196246 -1.086795,0.473953 -2.667053,1.131578 -3.511684,1.461389 -0.844631,0.329813 -2.721823,0.960983 -4.171538,1.402602 -1.449715,0.441617 -3.393309,0.976777 -4.319097,1.189243 -0.925789,0.212465 -2.770048,0.559404 -4.098353,0.770976 -1.328306,0.211572 -3.337231,0.462389 -4.464278,0.557369 -1.127047,0.09498 -2.124507,0.194119 -2.216577,0.220305 -0.107307,0.03052 -0.212394,0.799349 -0.29274,2.141851 -0.06894,1.15183 -0.125338,6.560082 -0.125338,12.018336 v 9.924097 l 0.264618,3.030258 c 0.145539,1.666643 0.394662,4.087062 0.553606,5.37871 0.158944,1.291647 0.423187,3.098439 0.587205,4.015092 0.16402,0.916654 0.494552,2.587084 0.734518,3.712067 0.239964,1.124984 0.633463,2.761323 0.874442,3.636311 0.240978,0.874987 0.772209,2.579507 1.180514,3.787823 0.408304,1.208316 1.105245,3.049198 1.548757,4.090849 0.443513,1.041652 1.037043,2.371178 1.318954,2.954502 0.281913,0.583325 0.878009,1.708309 1.324658,2.499964 0.446649,0.791655 1.205863,2.053 1.687141,2.802989 0.481278,0.749989 1.271471,1.909063 1.755984,2.57572 0.484513,0.666657 1.409716,1.859821 2.056008,2.651476 0.646291,0.791655 2.00169,2.316131 3.011999,3.387724 1.010308,1.071593 2.561454,2.610431 3.446991,3.419641 0.885537,0.8092 2.367531,2.08734 3.293319,2.8403 0.925789,0.75296 2.308983,1.81426 3.073765,2.35845 0.764782,0.54418 2.13004,1.4717 3.033904,2.06115 0.903866,0.58944 2.583459,1.61412 3.732429,2.27705 1.148971,0.66294 2.846501,1.61911 3.772289,2.12482 0.925789,0.50571 1.701035,0.92062 1.72277,0.922 0.02173,0.001 0.647465,-0.3128 1.390512,-0.69818 z M 58.434787,80.716397 V 62.231819 h -9.781826 -9.781827 l -0.03061,-3.598432 c -0.01684,-1.979139 0.01321,-4.601945 0.06676,-5.828462 l 0.09737,-2.230028 1.335402,0.02752 c 0.73447,0.01513 5.106251,0.01298 9.715069,-0.0048 l 8.37967,-0.03224 V 40.3382 30.111077 h 5.56205 5.562051 v 10.28253 10.282532 l 9.770181,-0.01753 9.77018,-0.01753 0.03834,5.79537 0.03834,5.79537 H 79.3674 69.558888 v 18.484572 18.484578 h -5.562051 -5.56205 z"
       id="path4433" />
    <path
       style="fill:#ffffff;stroke-width:0.297838"
       d="M 60.559874,120.17121 C 50.401333,114.7392 40.624773,106.88891 34.404682,99.169369 24.246851,86.562836 19.656849,72.058129 18.79593,49.844701 18.552995,43.57648 18.85155,25.818164 19.220068,24.616252 c 0.114473,-0.373363 0.640191,-0.561033 1.974628,-0.704908 4.976943,-0.536597 8.905626,-1.183776 12.357233,-2.035633 11.135763,-2.748304 20.683387,-7.732638 29.440589,-15.36945 l 1.044858,-0.9111794 2.265435,1.9574404 c 5.170898,4.467891 13.134167,9.193655 19.795859,11.747754 5.512308,2.113425 12.744546,3.769612 19.4594,4.456214 1.76679,0.180658 3.23944,0.356511 3.27256,0.390787 0.0331,0.03428 0.19582,4.356018 0.36157,9.603872 1.00173,31.715489 -3.14,49.493948 -15.106218,64.843774 -2.282686,2.928147 -8.311726,8.988877 -11.500186,11.560627 -5.022488,4.05106 -13.693759,9.61078 -17.634829,11.30688 l -1.095045,0.47127 z m 7.962392,-8.26768 C 79.616109,105.47477 86.993332,98.804399 92.588157,90.143511 100.56282,77.798591 103.48945,63.375632 102.95321,39.06257 c -0.10645,-4.826538 -0.25313,-8.83719 -0.32594,-8.912561 -0.0728,-0.07537 -1.6468,-0.316926 -3.497743,-0.53679 C 87.305476,28.208702 75.921145,23.631167 66.744213,16.59138 c -1.387068,-1.064043 -2.630329,-1.934623 -2.762809,-1.934623 -0.132479,0 -0.973599,0.595134 -1.869153,1.322519 -9.026166,7.331187 -22.149849,12.644978 -33.830338,13.697931 -1.287666,0.116083 -2.505877,0.346062 -2.707135,0.511077 -0.564085,0.462501 -0.504532,24.526036 0.07368,29.770841 1.266227,11.485656 4.357576,21.574603 8.790433,28.688513 4.49982,7.221373 11.18383,14.137732 18.663478,19.312252 2.521825,1.74464 10.431518,6.38098 10.897963,6.38795 0.162929,0.002 2.1978,-1.09751 4.521937,-2.44431 z"
       id="path4434" />
    <path
       style="fill:#ffffff;stroke-width:0.297838"
       d="M 58.288417,80.716397 V 62.231819 H 48.481644 38.67487 v -4.503094 c 0,-2.476702 0.08377,-5.135754 0.186161,-5.909005 l 0.18616,-1.40591 h 9.620613 9.620613 V 40.262443 30.111077 h 5.70842 5.708421 v 10.277149 10.277149 l 9.733588,-0.05002 9.733588,-0.05002 0.07951,5.833248 0.07951,5.833248 h -9.813098 -9.813094 v 18.484573 18.484578 h -5.708421 -5.70842 z"
       id="path4435" />
  </g>
</svg>
