<?xml version="1.0" encoding="UTF-8" standalone="no"?>
<!-- Created with Inkscape (http://www.inkscape.org/) -->

<svg
   width="128"
   height="128"
   viewBox="0 0 33.866667 33.866667"
   version="1.1"
   id="svg5"
   inkscape:version="1.1.2 (b8e25be833, 2022-02-05)"
   sodipodi:docname="Glock 18C.svg"
   xmlns:inkscape="http://www.inkscape.org/namespaces/inkscape"
   xmlns:sodipodi="http://sodipodi.sourceforge.net/DTD/sodipodi-0.dtd"
   xmlns="http://www.w3.org/2000/svg"
   xmlns:svg="http://www.w3.org/2000/svg">
  <sodipodi:namedview
     id="namedview7"
     pagecolor="#ffffff"
     bordercolor="#999999"
     borderopacity="1"
     inkscape:pageshadow="0"
     inkscape:pageopacity="0"
     inkscape:pagecheckerboard="true"
     inkscape:document-units="px"
     showgrid="false"
     units="px"
     inkscape:zoom="6.2217172"
     inkscape:cx="50.8702"
     inkscape:cy="54.647293"
     inkscape:window-width="2560"
     inkscape:window-height="1377"
     inkscape:window-x="-8"
     inkscape:window-y="-8"
     inkscape:window-maximized="1"
     inkscape:current-layer="layer1" />
  <defs
     id="defs2" />
  <g
     inkscape:label="Layer 1"
     inkscape:groupmode="layer"
     id="layer1">
    <path
       style="font-variation-settings:normal;opacity:1;fill:#ffffff;fill-opacity:1;stroke:#323232;stroke-width:0.833361;stroke-linecap:butt;stroke-linejoin:miter;stroke-miterlimit:4;stroke-dasharray:none;stroke-dashoffset:0;stroke-opacity:1;paint-order:fill markers stroke;stop-color:#000000;stop-opacity:1"
       d="M 5.6188108,17.781948 28.679186,4.4680346 27.53766,2.4908547 c 0,0 -0.346116,-0.5339843 -0.703495,-0.3276512 l -9.382666,5.4170853 0.301375,0.5219977 c 0,0 0.27654,0.5261874 -0.275102,1.0158237 -0.551639,0.4896342 -0.633106,0.5152758 -1.058295,0.7607585 l -1.267543,0.7318163 -0.372178,0.02234 -0.681907,0.393699 -0.653937,-1.1326532 -9.2211801,5.3238512 c 0,0 -0.063139,0.03659 0.159575,0.422339 z"
       id="path984"
       sodipodi:nodetypes="cccsccsscccccsc" />
    <path
       style="font-variation-settings:normal;opacity:1;vector-effect:none;fill:#ffffff;fill-opacity:1;stroke:#323232;stroke-width:0.833361;stroke-linecap:butt;stroke-linejoin:miter;stroke-miterlimit:4;stroke-dasharray:none;stroke-dashoffset:0;stroke-opacity:1;-inkscape-stroke:none;paint-order:fill markers stroke;stop-color:#000000;stop-opacity:1"
       d="M 5.9712043,18.901392 26.484157,7.0582326 27.217129,8.3277771 c 0,0 0.09994,0.3151624 -0.228159,0.5045876 l -6.721218,3.8804973 c 0,0 -0.622276,0.362081 -0.993969,0.605676 -0.371688,0.243594 -1.930643,1.327322 -2.486565,1.938281 -0.555921,0.610959 -0.445508,1.388204 -0.379057,1.620503 0.06645,0.232298 0.424446,2.509921 0.734074,4.419139 0.309627,1.909215 0.771036,4.894757 0.834253,5.241034 0.06322,0.346278 0.453483,0.927523 0.583714,1.153089 0.13023,0.225565 0.285299,0.423119 -0.374063,0.749119 -0.659362,0.325999 -4.660564,2.061929 -5.037177,2.238354 -0.376612,0.176426 -1.592608,0.153941 -1.902633,0.114203 -0.310024,-0.03974 -0.374403,-0.316991 -0.480219,-0.666017 -0.105815,-0.349026 -0.433205,-1.650104 -0.500361,-3.210792 -0.06716,-1.560687 0.179422,-2.57797 -0.3810675,-5.111528 -0.5604903,-2.533556 -1.5193127,-2.513134 -2.232489,-2.73023 -0.7131768,-0.217096 -1.3598394,0.08304 -1.6140627,0.282526 -0.2229427,0.174935 -0.077204,-0.405184 -0.066925,-0.454827 z"
       id="path1586"
       sodipodi:nodetypes="cccscssssssssssssssc" />
    <path
       style="font-variation-settings:normal;opacity:1;vector-effect:none;fill:#ffffff;fill-opacity:1;stroke:#323232;stroke-width:0.833361;stroke-linecap:butt;stroke-linejoin:miter;stroke-miterlimit:4;stroke-dasharray:none;stroke-dashoffset:0;stroke-opacity:1;-inkscape-stroke:none;paint-order:fill markers stroke;stop-color:#000000;stop-opacity:1"
       d="m 27.485164,6.4803015 0.536241,0.9287971 1.610327,-0.9297223 c 0,0 -0.02322,-0.2679807 -0.304274,-0.8116473 L 29.2187,5.4794444 Z"
       id="path1701"
       sodipodi:nodetypes="cccccc" />
    <path
       style="font-variation-settings:normal;opacity:1;vector-effect:none;fill:#323232;fill-opacity:1;stroke:none;stroke-width:0.833361;stroke-linecap:butt;stroke-linejoin:miter;stroke-miterlimit:4;stroke-dasharray:none;stroke-dashoffset:0;stroke-opacity:1;-inkscape-stroke:none;paint-order:fill markers stroke;stop-color:#000000;stop-opacity:1"
       d="m 13.107939,31.503924 5.646393,-2.536644 c 0.08328,-0.04854 0.174118,-0.09514 0.213589,-0.155458 0,0 0.184023,0.285252 0.12304,0.581457 -0.06098,0.296207 -0.18303,0.637335 -0.682455,0.877345 -0.499425,0.240008 -3.958625,1.782851 -4.522477,2.011727 -0.563853,0.228874 -0.747646,0.228653 -0.819706,-0.09707 -0.07206,-0.325725 0.04162,-0.681352 0.04162,-0.681352 z"
       id="path6068"
       sodipodi:nodetypes="cccssssc" />
    <path
       style="font-variation-settings:normal;opacity:1;fill:none;fill-opacity:1;stroke:#323232;stroke-width:0.625022;stroke-linecap:butt;stroke-linejoin:miter;stroke-miterlimit:4;stroke-dasharray:none;stroke-dashoffset:0;stroke-opacity:1;paint-order:fill markers stroke;stop-color:#000000;stop-opacity:1"
       d="m 21.607021,12.131023 1.367415,2.368434 c 0.07045,0.122028 0.562313,1.459362 -0.586018,2.122351 l -2.301788,1.328938 c 0,0 -0.705867,0.434874 -1.053731,0.471667 -0.347865,0.03679 -0.962099,0.177472 -1.475787,-0.09123 -0.447099,-0.233867 -0.968583,-1.174895 -0.968583,-1.174895"
       id="path6757"
       sodipodi:nodetypes="ccscssc" />
    <path
       style="font-variation-settings:normal;opacity:1;vector-effect:none;fill:#323232;fill-opacity:1;stroke:none;stroke-width:0.833361;stroke-linecap:butt;stroke-linejoin:miter;stroke-miterlimit:4;stroke-dasharray:none;stroke-dashoffset:0;stroke-opacity:1;-inkscape-stroke:none;paint-order:fill markers stroke;stop-color:#000000;stop-opacity:1"
       d="m 20.436498,13.087073 c 0.812731,-0.510243 1.660168,0.507674 1.660168,0.507674 l -0.584034,-1.224675 z"
       id="path8187"
       sodipodi:nodetypes="cccc" />
    <path
       style="font-variation-settings:normal;opacity:1;vector-effect:none;fill:#323232;fill-opacity:1;stroke:none;stroke-width:0.833361;stroke-linecap:butt;stroke-linejoin:miter;stroke-miterlimit:4;stroke-dasharray:none;stroke-dashoffset:0;stroke-opacity:1;-inkscape-stroke:none;paint-order:fill markers stroke;stop-color:#000000;stop-opacity:1"
       d="m 23.060171,11.575712 c -1.208843,0.759443 -0.364841,1.830609 -0.364841,1.830609 L 21.653717,12.31254 Z"
       id="path8511"
       sodipodi:nodetypes="cccc" />
    <path
       style="font-variation-settings:normal;opacity:1;vector-effect:none;fill:#323232;fill-opacity:1;stroke:none;stroke-width:0.833361;stroke-linecap:butt;stroke-linejoin:miter;stroke-miterlimit:4;stroke-dasharray:none;stroke-dashoffset:0;stroke-opacity:1;-inkscape-stroke:none;paint-order:fill markers stroke;stop-color:#000000;stop-opacity:1"
       d="m 22.48702,16.916899 1.673795,-0.966367 c 0,0 0.347912,-0.190614 0.01325,-0.486123 -0.334661,-0.295507 -0.653969,-0.688738 -0.770377,-0.860765 -0.116413,-0.172025 -0.192272,-0.309363 -0.192272,-0.309363 l -0.244816,1.90827 z"
       id="path8832"
       sodipodi:nodetypes="ccssccc" />
    <path
       style="font-variation-settings:normal;opacity:1;vector-effect:none;fill:#323232;fill-opacity:1;stroke:none;stroke-width:0.833361;stroke-linecap:butt;stroke-linejoin:miter;stroke-miterlimit:4;stroke-dasharray:none;stroke-dashoffset:0;stroke-opacity:1;-inkscape-stroke:none;paint-order:fill markers stroke;stop-color:#000000;stop-opacity:1"
       d="m 17.325845,19.856464 c -0.110944,-1.129767 1.194025,-1.0712 1.194025,-1.0712 l -1.536498,-0.635388 0.229757,1.578334 z"
       id="path8983"
       sodipodi:nodetypes="ccccc" />
    <path
       style="font-variation-settings:normal;opacity:1;fill:#323232;fill-opacity:1;stroke:#323232;stroke-width:0.10417;stroke-linecap:butt;stroke-linejoin:round;stroke-miterlimit:4;stroke-dasharray:none;stroke-dashoffset:0;stroke-opacity:1;paint-order:fill markers stroke;stop-color:#000000;stop-opacity:1"
       d="m 17.933502,14.245096 c 1.021023,2.07628 2.646417,2.689473 2.646417,2.689473 0,0 -0.63907,0.266437 -1.315566,0.04184 -0.676498,-0.224602 -1.094661,-0.475317 -1.094661,-0.475317 0,0 -0.631039,0.09092 -0.85904,0.0038 -0.228001,-0.08709 -0.807464,-0.285694 -0.807464,-0.285694 z"
       id="path10198"
       sodipodi:nodetypes="ccscscc" />
    <path
       style="font-variation-settings:normal;opacity:1;vector-effect:none;fill:none;fill-opacity:1;stroke:#323232;stroke-width:0.833361;stroke-linecap:butt;stroke-linejoin:miter;stroke-miterlimit:4;stroke-dasharray:none;stroke-dashoffset:0;stroke-opacity:1;-inkscape-stroke:none;paint-order:fill markers stroke;stop-color:#000000;stop-opacity:1"
       d="m 27.755695,2.4765562 0.724135,1.254239"
       id="path10524"
       sodipodi:nodetypes="cc" />
    <path
       style="font-variation-settings:normal;opacity:1;vector-effect:none;fill:#323232;fill-opacity:1;stroke:none;stroke-width:0.833361;stroke-linecap:butt;stroke-linejoin:miter;stroke-miterlimit:4;stroke-dasharray:none;stroke-dashoffset:0;stroke-opacity:1;-inkscape-stroke:none;paint-order:fill markers stroke;stop-color:#000000;stop-opacity:1"
       d="m 13.443912,9.8940698 2.44732,-1.4129607 1.453936,-0.6293954 0.438367,0.7592694 -3.003779,2.0220409 -0.846018,-0.05069 z"
       id="path10639"
       sodipodi:nodetypes="ccccccc" />
    <path
       style="font-variation-settings:normal;opacity:1;fill:none;fill-opacity:1;stroke:#323232;stroke-width:0.833361;stroke-linecap:round;stroke-linejoin:miter;stroke-miterlimit:4;stroke-dasharray:none;stroke-dashoffset:0;stroke-opacity:1;paint-order:fill markers stroke;stop-color:#000000;stop-opacity:1"
       d="m 14.097849,11.026723 -1.96185,1.132674"
       id="path10965"
       sodipodi:nodetypes="cc" />
    <path
       style="font-variation-settings:normal;opacity:1;vector-effect:none;fill:#323232;fill-opacity:1;stroke:none;stroke-width:0.833361;stroke-linecap:butt;stroke-linejoin:miter;stroke-miterlimit:4;stroke-dasharray:none;stroke-dashoffset:0;stroke-opacity:1;-inkscape-stroke:none;paint-order:fill markers stroke;stop-color:#000000;stop-opacity:1"
       d="M 4.8899365,14.123578 5.8742202,13.555302 5.4640242,13.105281 4.7258116,13.531489 Z"
       id="path11250"
       sodipodi:nodetypes="ccccc" />
    <path
       style="font-variation-settings:normal;opacity:1;vector-effect:none;fill:#323232;fill-opacity:1;stroke:none;stroke-width:0.833361;stroke-linecap:butt;stroke-linejoin:miter;stroke-miterlimit:4;stroke-dasharray:none;stroke-dashoffset:0;stroke-opacity:1;-inkscape-stroke:none;paint-order:fill markers stroke;stop-color:#000000;stop-opacity:1"
       d="M 25.184542,2.4064829 26.231464,1.8020412 25.667598,1.4232688 25.017715,1.7984777 c 0,0 0.09022,0.2148724 0.108884,0.2827052 0.01866,0.067834 0.05794,0.3253 0.05794,0.3253 z"
       id="path11403"
       sodipodi:nodetypes="ccccsc" />
    <path
       style="font-variation-settings:normal;opacity:1;vector-effect:none;fill:none;fill-opacity:1;stroke:#323232;stroke-width:0.833361;stroke-linecap:butt;stroke-linejoin:miter;stroke-miterlimit:4;stroke-dasharray:none;stroke-dashoffset:0;stroke-opacity:1;-inkscape-stroke:none;paint-order:fill markers stroke;stop-color:#000000;stop-opacity:1"
       d="m 6.6473768,13.909435 1.3910937,2.409444"
       id="path12965"
       sodipodi:nodetypes="cc" />
    <path
       style="font-variation-settings:normal;vector-effect:none;fill:none;fill-opacity:1;stroke:#323232;stroke-width:0.833361;stroke-linecap:butt;stroke-linejoin:miter;stroke-miterlimit:4;stroke-dasharray:none;stroke-dashoffset:0;stroke-opacity:1;-inkscape-stroke:none;paint-order:fill markers stroke;stop-color:#000000"
       d="m 9.0506695,12.521893 1.3910935,2.409444"
       id="path12965-2"
       sodipodi:nodetypes="cc" />
    <path
       style="font-variation-settings:normal;vector-effect:none;fill:none;fill-opacity:1;stroke:#323232;stroke-width:0.833361;stroke-linecap:butt;stroke-linejoin:miter;stroke-miterlimit:4;stroke-dasharray:none;stroke-dashoffset:0;stroke-opacity:1;-inkscape-stroke:none;paint-order:fill markers stroke;stop-color:#000000"
       d="M 5.4457307,14.603205 6.8368242,17.01265"
       id="path12965-7"
       sodipodi:nodetypes="cc" />
    <path
       style="font-variation-settings:normal;vector-effect:none;fill:none;fill-opacity:1;stroke:#323232;stroke-width:0.833361;stroke-linecap:butt;stroke-linejoin:miter;stroke-miterlimit:4;stroke-dasharray:none;stroke-dashoffset:0;stroke-opacity:1;-inkscape-stroke:none;paint-order:fill markers stroke;stop-color:#000000"
       d="M 7.8490232,13.215664 9.240117,15.625108"
       id="path12965-2-5"
       sodipodi:nodetypes="cc" />
    <path
       style="font-variation-settings:normal;opacity:1;vector-effect:none;fill:none;fill-opacity:1;stroke:#323232;stroke-width:0.833361;stroke-linecap:butt;stroke-linejoin:miter;stroke-miterlimit:4;stroke-dasharray:none;stroke-dashoffset:0;stroke-opacity:1;-inkscape-stroke:none;paint-order:fill markers stroke;stop-color:#000000;stop-opacity:1"
       d="m 13.051047,29.135128 c 2.846528,-1.178641 3.345864,-1.16618 3.173232,-2.009786 -0.172629,-0.843601 -1.312052,-8.073697 -1.312052,-8.073697 0,0 -0.033,-0.814855 -0.688762,-0.340555 -0.655764,0.4743 -1.160481,0.902403 -1.629795,1.036656 -0.469314,0.134253 -0.880707,0.08469 -0.811881,0.70114 0.06883,0.616453 0.61675,8.242733 0.61675,8.242733 0,0 -0.03212,0.702073 0.652508,0.443509 z"
       id="path13481"
       sodipodi:nodetypes="cscssscc" />
    <circle
       style="font-variation-settings:normal;opacity:1;vector-effect:none;fill:#323232;fill-opacity:1;fill-rule:evenodd;stroke:none;stroke-width:0.20834;stroke-linecap:round;stroke-linejoin:round;stroke-miterlimit:4;stroke-dasharray:none;stroke-dashoffset:0;stroke-opacity:1;-inkscape-stroke:none;stop-color:#000000;stop-opacity:1"
       id="path13745"
       cx="8.0147867"
       cy="20.333937"
       r="0.43531823"
       transform="rotate(-30)" />
  </g>
</svg>
