<?xml version="1.0" encoding="UTF-8" standalone="no"?>
<svg
   width="128"
   height="128"
   version="1.1"
   id="svg3"
   sodipodi:docname="loot-perk-amped-explosives.svg"
   inkscape:version="1.4 (e7c3feb1, 2024-10-09)"
   xml:space="preserve"
   xmlns:inkscape="http://www.inkscape.org/namespaces/inkscape"
   xmlns:sodipodi="http://sodipodi.sourceforge.net/DTD/sodipodi-0.dtd"
   xmlns="http://www.w3.org/2000/svg"
   xmlns:svg="http://www.w3.org/2000/svg"><defs
     id="defs3"><clipPath
       clipPathUnits="userSpaceOnUse"
       id="clipPath9"><path
         style="fill:#b1b1b1;fill-opacity:1;stroke:#0f0f0f;stroke-width:3.211;stroke-linecap:round;stroke-dasharray:none;paint-order:markers stroke fill"
         d="m 28.779088,92.210546 27.233993,-20.223916 8.654394,5.562812 0.06395,9.643709 4.315923,11.482717 z"
         id="path10"
         sodipodi:nodetypes="cccccc" /></clipPath><clipPath
       clipPathUnits="userSpaceOnUse"
       id="clipPath11"><path
         style="fill:#b1b1b1;fill-opacity:1;stroke:#0f0f0f;stroke-width:3.211;stroke-linecap:round;stroke-dasharray:none;paint-order:markers stroke fill"
         d="m 61.374069,61.381987 15.558568,1.930996 0.736197,6.257679 17.66874,-5.88958 -26.290226,34.994786 -4.315923,-11.482717 -0.06395,-9.643709 -8.654394,-5.562812 z"
         id="path12" /></clipPath><clipPath
       clipPathUnits="userSpaceOnUse"
       id="clipPath13"><path
         style="fill:#b1b1b1;fill-opacity:1;stroke:#0f0f0f;stroke-width:3.211;stroke-linecap:round;stroke-dasharray:none;paint-order:markers stroke fill"
         d="m 81.640595,46.360044 -20.266526,15.021943 15.558568,1.930996 0.736197,6.257679 17.66874,-5.88958 -9.237624,-17.84678 z"
         id="path14" /></clipPath><clipPath
       clipPathUnits="userSpaceOnUse"
       id="clipPath15"><path
         style="fill:#b1b1b1;fill-opacity:1;stroke:#0f0f0f;stroke-width:3.211;stroke-linecap:round;stroke-dasharray:none;paint-order:markers stroke fill"
         d="M 31.526183,52.630487 40.044085,81.556034 54.47936,67.90305 51.925431,61.059577 54.454316,56.799239 Z"
         id="path16"
         sodipodi:nodetypes="cccccc" /></clipPath><clipPath
       clipPathUnits="userSpaceOnUse"
       id="clipPath20"><path
         style="fill:#b1b1b1;fill-opacity:1;stroke:#0f0f0f;stroke-width:3.211;stroke-linecap:round;stroke-dasharray:none;paint-order:markers stroke fill"
         d="M 68.721701,35.698075 61.374069,61.381987 81.628822,42.326056 Z"
         id="path20" /></clipPath><clipPath
       clipPathUnits="userSpaceOnUse"
       id="clipPath21"><path
         style="fill:#b1b1b1;fill-opacity:1;stroke:#0f0f0f;stroke-width:3.211;stroke-linecap:round;stroke-dasharray:none;paint-order:markers stroke fill"
         d="M 64.577999,37.747946 49.665666,39.200707 32.674502,56.53001 54.454316,56.799239 54.47936,67.90305 61.374069,61.381987 Z"
         id="path22"
         sodipodi:nodetypes="ccccccc" /></clipPath></defs><sodipodi:namedview
     id="namedview3"
     pagecolor="#ffffff"
     bordercolor="#000000"
     borderopacity="0.25"
     inkscape:showpageshadow="2"
     inkscape:pageopacity="0.0"
     inkscape:pagecheckerboard="0"
     inkscape:deskcolor="#d1d1d1"
     inkscape:zoom="2.7013918"
     inkscape:cx="75.516627"
     inkscape:cy="62.560343"
     inkscape:window-width="1464"
     inkscape:window-height="921"
     inkscape:window-x="50"
     inkscape:window-y="33"
     inkscape:window-maximized="1"
     inkscape:current-layer="svg3" /><path
     style="display:inline;isolation:isolate;fill:#ffffff;fill-opacity:1;stroke-width:0"
     d="m 6.8413,31.454508 18.734774,-18.728281 23.771331,5.742826 -8.994024,9.031826 -13.709579,13.705333 -9.82379,-9.827752 z m 22.145048,12.096531 5.319248,5.312018 c 1.221517,-3.132726 3.074899,-5.980433 5.444737,-8.365793 2.381458,-2.376732 5.226996,-4.2374 8.359207,-5.465998 L 42.803778,29.727033 Z M 42.35462,43.217976 c -9.247926,9.265855 0,0 0,0 z"
     id="path3"
     sodipodi:nodetypes="ccccccccccccccc" /><path
     style="isolation:isolate;fill:#ffffff;fill-opacity:1;stroke-width:0"
     d="M 9.490925,33.261358 28.225699,14.533077 51.99703,20.275903 43.003006,29.307729 29.293427,43.013062 19.469637,33.18531 Z M 55.691457,21.608702 73.307098,28.564896 91.961778,42.329108 89.362463,43.317713 72.209392,30.594652 53.796009,23.533017 Z m -24.055484,23.749187 5.319248,5.312018 c 1.221517,-3.132726 3.074899,-5.980433 5.444737,-8.365793 2.381458,-2.376732 5.226996,-4.2374 8.359207,-5.465998 l -5.305762,-5.304233 z m 13.368272,-0.333063 c -9.247926,9.265855 34.044557,-1.317593 34.044557,-1.317593 -9.95234,-8.516423 -24.781701,-7.942364 -34.045886,1.317949 z m 1.35516,36.61513 c 9.966471,8.160005 24.493254,7.446075 33.611569,-1.651867 9.113094,-9.115827 9.834927,-23.654351 1.669621,-33.628045 z"
     id="path5"
     clip-path="url(#clipPath9)"
     transform="matrix(0.06589939,-1.2300383,1.2890379,0.06288316,7.2405871,163.60089)"
     sodipodi:nodetypes="cccccccccccccccccccccccccccc" /><path
     style="isolation:isolate;fill:#ffffff;fill-opacity:1;stroke-width:0"
     d="M 9.490925,33.261358 28.225699,14.533077 51.99703,20.275903 43.003006,29.307729 29.293427,43.013062 19.469637,33.18531 Z M 55.691457,21.608702 73.307098,28.564896 91.961778,42.329108 89.362463,43.317713 72.209392,30.594652 53.796009,23.533017 Z m -24.055484,23.749187 5.319248,5.312018 a 24.496244,24.496244 0 0 1 5.444737,-8.365793 24.496244,24.496244 0 0 1 8.359207,-5.465998 L 45.453403,31.533883 Z M 45.004245,45.024826 A 25.086731,25.086731 0 0 0 43.699337,79.056741 L 79.048802,43.707233 a 25.086731,25.086731 0 0 0 -34.045886,1.317949 z m 1.35516,36.61513 a 25.086731,25.086731 0 0 0 33.611569,-1.651867 25.086731,25.086731 0 0 0 1.669621,-33.628045 z"
     id="path11"
     clip-path="url(#clipPath11)"
     transform="matrix(0.87609085,0,0,0.87609085,12.675141,50.020849)" /><path
     style="isolation:isolate;fill:#ffffff;fill-opacity:1;stroke-width:0"
     d="M 9.490925,33.261358 28.225699,14.533077 51.99703,20.275903 43.003006,29.307729 29.293427,43.013062 19.469637,33.18531 Z M 55.691457,21.608702 73.307098,28.564896 91.961778,42.329108 89.362463,43.317713 72.209392,30.594652 53.796009,23.533017 Z m -24.055484,23.749187 5.319248,5.312018 a 24.496244,24.496244 0 0 1 5.444737,-8.365793 24.496244,24.496244 0 0 1 8.359207,-5.465998 L 45.453403,31.533883 Z M 45.004245,45.024826 A 25.086731,25.086731 0 0 0 43.699337,79.056741 L 79.048802,43.707233 a 25.086731,25.086731 0 0 0 -34.045886,1.317949 z m 1.35516,36.61513 a 25.086731,25.086731 0 0 0 33.611569,-1.651867 25.086731,25.086731 0 0 0 1.669621,-33.628045 z"
     id="path13"
     clip-path="url(#clipPath13)"
     transform="matrix(1.1186026,0,0,1.1186026,24.728936,-8.779209)" /><path
     style="isolation:isolate;fill:#ffffff;fill-opacity:1;stroke-width:0"
     d="M 9.490925,33.261358 28.225699,14.533077 51.99703,20.275903 43.003006,29.307729 29.293427,43.013062 19.469637,33.18531 Z M 55.691457,21.608702 73.307098,28.564896 91.961778,42.329108 89.362463,43.317713 72.209392,30.594652 53.796009,23.533017 Z m -24.055484,23.749187 5.319248,5.312018 c 1.221517,-3.132726 3.074899,-5.980433 5.444737,-8.365793 2.381458,-2.376732 5.226996,-4.2374 8.359207,-5.465998 l -5.305762,-5.304233 z m 13.368272,-0.333063 c -9.247926,9.265855 -9.816151,24.085109 -1.304908,34.031915 L 79.048802,43.707233 C 69.096462,35.19081 54.267101,35.764869 45.002916,45.025182 Z m 1.35516,36.61513 c 9.966471,8.160005 24.493254,7.446075 33.611569,-1.651867 9.113094,-9.115827 9.834927,-23.654351 1.669621,-33.628045 z"
     id="path15"
     clip-path="url(#clipPath15)"
     transform="matrix(1.1140071,0,0,1.1140071,-30.716958,1.259445)"
     sodipodi:nodetypes="ccccccccccccccccccccccccccccc" /><path
     style="display:inline;isolation:isolate;fill:#ffffff;fill-opacity:1;stroke-width:0"
     d="M 9.490925,33.261358 28.225699,14.533077 51.99703,20.275903 43.003006,29.307729 29.293427,43.013062 19.469637,33.18531 Z M 55.691457,21.608702 73.307098,28.564896 91.961778,42.329108 89.362463,43.317713 72.209392,30.594652 53.796009,23.533017 Z m -24.055484,23.749187 5.319248,5.312018 a 24.496244,24.496244 0 0 1 5.444737,-8.365793 24.496244,24.496244 0 0 1 8.359207,-5.465998 L 45.453403,31.533883 Z M 45.004245,45.024826 A 25.086731,25.086731 0 0 0 43.699337,79.056741 L 79.048802,43.707233 a 25.086731,25.086731 0 0 0 -34.045886,1.317949 z m 1.35516,36.61513 a 25.086731,25.086731 0 0 0 33.611569,-1.651867 25.086731,25.086731 0 0 0 1.669621,-33.628045 z"
     id="path17"
     clip-path="url(#clipPath20)"
     transform="matrix(0.95715028,0.57379412,-0.57379412,0.95715028,69.715369,-52.203114)" /><path
     style="display:inline;isolation:isolate;fill:#ffffff;fill-opacity:1;stroke-width:0"
     d="M 9.490925,33.261358 28.225699,14.533077 51.99703,20.275903 43.003006,29.307729 29.293427,43.013062 19.469637,33.18531 Z M 55.691457,21.608702 73.307098,28.564896 91.961778,42.329108 89.362463,43.317713 72.209392,30.594652 53.796009,23.533017 Z m -24.055484,23.749187 5.319248,5.312018 c 1.221517,-3.132726 3.074899,-5.980433 5.444737,-8.365793 2.381458,-2.376732 5.226996,-4.2374 8.359207,-5.465998 l -5.305762,-5.304233 z m 13.368272,-0.333063 c -9.247926,9.265855 -9.816151,24.085109 -1.304908,34.031915 L 79.048802,43.707233 C 69.096462,35.19081 54.267101,35.764869 45.002916,45.025182 Z m 1.35516,36.61513 c 9.966471,8.160005 24.493254,7.446075 33.611569,-1.651867 9.113094,-9.115827 9.834927,-23.654351 1.669621,-33.628045 z"
     id="path18"
     clip-path="url(#clipPath21)"
     transform="matrix(0.4577556,-0.76010874,0.76010874,0.4577556,-31.278687,125.51136)"
     sodipodi:nodetypes="ccccccccccccccccccccccccccccc" /><g
     id="g26"
     transform="rotate(-31.799289,58.802986,-8.2722991)"><path
       d="m 55.377799,11.636659 a 11.666582,11.666582 0 0 0 -4.964023,2.943185 11.666582,11.666582 0 0 0 -0.0035,16.505055 11.666582,11.666582 0 0 0 16.501588,-0.0041 11.666582,11.666582 0 0 0 0.0038,-16.503724 11.666582,11.666582 0 0 0 -11.538278,-2.941696 z m 1.135764,4.06324 a 7.537306,7.537306 0 0 1 7.439453,1.9025 7.537306,7.537306 0 0 1 -4.62e-4,10.650429 7.537306,7.537306 0 0 1 -10.644753,-5.59e-4 7.537306,7.537306 0 0 1 -9.63e-4,-10.655747 7.537306,7.537306 0 0 1 3.206725,-1.896623 z"
       id="path2"
       style="fill:#ffffff;fill-opacity:1;stroke-width:0" /><path
       style="display:inline;isolation:isolate;fill:#ffffff;fill-opacity:1;stroke-width:0"
       d="m 55.691457,21.608702 17.615641,6.956194 18.65468,13.764212 -2.599315,0.988605 L 72.209392,30.594652 53.796009,23.533017 Z"
       id="path25"
       sodipodi:nodetypes="ccccccc" /></g><path
     d="M 108.96612,78.233045 79.991083,55.09216 100.13148,50.16311 76.735737,43.54556 l 8.92671,-7.176552 -25.98355,2e-6 c -0.933036,-8e-6 -1.800302,0.0099 -2.628943,0.02877 -5.589977,0.139749 -9.04262,0.915772 -13.576254,4.40787 a 46.876937,46.876937 0 0 0 -3.347416,2.86486 c -0.271277,0.254838 -0.523646,0.535982 -0.762041,0.844254 -1.381876,1.787971 -2.166944,4.513909 -2.426709,8.331539 -0.06412,0.943722 -0.10687,1.931833 -0.106874,3.014479 2e-6,1.09498 0.03453,2.23024 0.09454,3.390981 0.05262,1.000447 0.125776,2.017328 0.216207,3.046543 0.994688,11.325469 4.03629,23.755776 4.19002,24.378897 l 2.967619,12.026675 4.126719,-23.54368 10.830589,27.020982 1.364616,-26.973303 42.40825,36.911973 -25.28646,-41.300109 z m -46.51196,-8.475401 -2.030486,-1.917036 -2.12419,-2.00335 -2.901861,-2.737448 -1e-6,16.086815 -2.657701,-7.475774 -0.959346,-2.696346 -1.00126,-2.813898 -3.526619,-9.918109 -0.550777,-1.545465 -0.373222,2.137344 -1.173894,6.696472 -0.498985,2.852536 -0.482547,2.7506 -0.494057,2.816364 c -0.186609,-1.117997 -0.361708,-2.277096 -0.532694,-3.439484 -0.175917,-1.206777 -0.330466,-2.416846 -0.473506,-3.636777 -0.172632,-1.458327 -0.313203,-2.901859 -0.417603,-4.321549 -0.04933,-0.653536 -0.07974,-1.281585 -0.111796,-1.915391 -0.04522,-0.953585 -0.09536,-1.912924 -0.09536,-2.809788 -3e-6,-6.350384 1.255279,-8.014226 1.638351,-8.372645 a 48.44542,48.44542 0 0 1 2.420959,-2.125837 c 4.409511,-3.589102 7.013788,-3.771596 13.565576,-3.771588 l 11.157772,-6e-6 -0.341154,0.272922 -2.043637,1.645766 -2.053496,1.652323 -1.431204,1.150064 2.21955,0.485043 2.987351,0.655178 2.850892,0.624747 7.419061,1.624373 -7.037622,1.286522 -2.587013,0.473505 -2.586188,0.472683 -1.297203,0.236753 1.264319,0.90426 2.431641,1.738649 2.342865,1.67453 18.419005,13.174276 -21.17536,-6.707981 -2.605916,-0.824529 -2.640441,-0.836037 -0.143024,-0.05185 0.07974,0.116737 1.521626,2.212152 1.512581,2.200645 17.952077,26.098639 z"
     id="path27"
     style="fill:#ffffff;fill-opacity:1;stroke-width:0.822057" /></svg>
