<?xml version="1.0" encoding="UTF-8" standalone="no"?>
<svg
   width="128"
   height="128"
   version="1.1"
   id="svg3"
   sodipodi:docname="loot-shirt-outfitEvent.svg"
   inkscape:version="1.4 (e7c3feb1, 2024-10-09)"
   xmlns:inkscape="http://www.inkscape.org/namespaces/inkscape"
   xmlns:sodipodi="http://sodipodi.sourceforge.net/DTD/sodipodi-0.dtd"
   xmlns:xlink="http://www.w3.org/1999/xlink"
   xmlns="http://www.w3.org/2000/svg"
   xmlns:svg="http://www.w3.org/2000/svg">
  <sodipodi:namedview
     id="namedview3"
     pagecolor="#ffffff"
     bordercolor="#000000"
     borderopacity="0.25"
     inkscape:showpageshadow="2"
     inkscape:pageopacity="0.0"
     inkscape:pagecheckerboard="0"
     inkscape:deskcolor="#d1d1d1"
     inkscape:zoom="2.2462385"
     inkscape:cx="17.362359"
     inkscape:cy="65.220145"
     inkscape:window-width="1920"
     inkscape:window-height="1022"
     inkscape:window-x="0"
     inkscape:window-y="128"
     inkscape:window-maximized="1"
     inkscape:current-layer="svg3" />
  <defs
     id="defs3">
    <linearGradient
       id="a">
      <stop
         offset="0"
         stop-color="#0fdbff"
         id="stop1"
         style="stop-color:#9454e1;stop-opacity:1;" />
      <stop
         offset="1"
         stop-color="#62005c"
         id="stop3"
         style="stop-color:#e4a071;stop-opacity:1;" />
    </linearGradient>
    <linearGradient
       xlink:href="#a"
       id="b"
       x1="0.22607562"
       y1="127.99268"
       x2="102.75522"
       y2="22.621271"
       gradientUnits="userSpaceOnUse" />
    <linearGradient
       inkscape:collect="always"
       xlink:href="#a"
       id="linearGradient8"
       gradientUnits="userSpaceOnUse"
       x1="0.22607562"
       y1="127.99268"
       x2="102.75522"
       y2="22.621271"
       gradientTransform="translate(-9.2e-4,2.9620719e-4)" />
    <clipPath
       clipPathUnits="userSpaceOnUse"
       id="clipPath11">
      <path
         d="m 203.24658,37.10566 c -10.38,0 -22.796,3.526 -30.355,7.22 -8.038,3.266 -14.581,7.287 -19.253,14.509 -6.283,9.715 -9.334,24.721 -7.255,48.603 5.964,2.07 11.333,1.45 16.842,-0.415 -1.727,-7.884 -1.448,-15.764 0.496,-22.204 2.126,-7.044 6.404,-12.722 12.675,-13.701 l 2.77,-0.432 0.074,2.803 c 0.054,2.043 0.09,4.17 0.116,6.335 l 0.027,6.312 c -0.037,8.798 -0.382,18.286 -1.277,27.845 5.637,1.831 14.806,2.954 23.964,3.019 l 4.597,-0.058 c 8.53,-0.275 16.742,-1.449 21.665,-3.063 -1.093,-14.65 -1.166,-29.434 -1.52,-41.334 l -0.097,-3.283 3.18,0.824 c 6.238,1.617 10.55,7.376 12.76,14.507 2.02,6.51 2.353,14.37 0.64,22.248 a 29.764,29.764 0 0 0 12.847,1.181 l 4.399,-0.588 c 1.033,-18.811 -1.433,-37.403 -6.27,-46.264 l -4.408,-6.376 c -4.647,-5.357 -10.62,-8.399 -17.665,-11.074 -6.746,-3.458 -18.358,-6.614 -28.95,-6.614 z m 0,3.05 c 6.494,0 13.37,1.942 19.274,4.516 -3.123,2.758 -6.971,4.665 -11.067,5.754 l -7.852,17.31 -6.838,-16.882 c -4.757,-0.93 -9.26,-2.957 -12.783,-6.174 6.173,-2.643 13.082,-4.524 19.266,-4.524 z m 0.58,28.539 3.512,5.327 -3.497,5.053 -3.53,-5.053 z m 0,11.888 3.512,5.328 -3.497,5.052 -3.53,-5.053 3.514,-5.327 z m 0,11.733 3.512,5.327 -3.497,5.054 -3.53,-5.054 z m 0,11.876 3.512,5.327 -3.497,5.054 -3.53,-5.053 3.514,-5.327 z m 25.079,13.715 c -6.61,2.055 -15.829,2.907 -25.277,2.951 -9.5,0.045 -18.965,-0.744 -25.902,-2.892 -0.205,1.785 -0.43,3.569 -0.678,5.347 5.968,2.132 16.346,3.408 26.497,3.36 10.143,-0.05 20.355,-1.444 25.912,-3.433 a 241.302,241.302 0 0 1 -0.552,-5.333 z m 1.368,9.086 c -6.782,2.308 -16.533,3.262 -26.53,3.31 -2.935,0.015 -5.866,-0.052 -8.724,-0.213 l -4.227,-0.315 c -5.358,-0.5 -10.307,-1.382 -14.329,-2.758 -0.897,5.43 -2.02,10.772 -3.413,15.903 2.117,1.06 4.41,1.968 6.835,2.733 l 3.97,1.096 c 15.85,3.805 35.88,2.156 49.601,-3.513 -1.355,-5.09 -2.387,-10.57 -3.183,-16.243 z"
         fill="url(#b)"
         id="path11"
         style="fill:url(#linearGradient11)" />
    </clipPath>
    <linearGradient
       inkscape:collect="always"
       xlink:href="#a"
       id="linearGradient11"
       gradientUnits="userSpaceOnUse"
       x1="0.22607562"
       y1="127.99268"
       x2="102.75522"
       y2="22.621271"
       gradientTransform="translate(139.25358,28.95566)" />
    <clipPath
       clipPathUnits="userSpaceOnUse"
       id="clipPath3">
      <path
         d="m 63.992088,8.1502993 c -10.38,0 -22.796,3.5259997 -30.355004,7.2199997 -8.038,3.266 -14.581,7.287 -19.253,14.509 -6.2830003,9.715 -9.3340003,24.721 -7.2550003,48.603 5.9640003,2.07 11.3330003,1.45 16.8420003,-0.415 -1.727,-7.884 -1.448,-15.764 0.496,-22.204 2.126,-7.044 6.404,-12.722 12.675,-13.701 l 2.77,-0.432 0.074,2.803 c 0.054,2.043 0.09,4.17 0.116004,6.335 l 0.027,6.312 c -0.037,8.798 -0.382004,18.286 -1.277004,27.845 5.637004,1.831 14.806004,2.954 23.964004,3.019 l 4.597,-0.058 c 8.53,-0.275 16.742,-1.449 21.665,-3.063 -1.093,-14.65 -1.166,-29.434 -1.52,-41.334 l -0.097,-3.283 3.18,0.824 c 6.238,1.617 10.549992,7.376 12.759992,14.507 2.02,6.51 2.353,14.37 0.64,22.248 a 29.764,29.764 0 0 0 12.847,1.181 l 4.399,-0.588 c 1.033,-18.811 -1.433,-37.403 -6.27,-46.264 l -4.408,-6.376 c -4.647,-5.357 -10.619996,-8.399 -17.664992,-11.074 -6.746,-3.458 -18.358,-6.6139997 -28.95,-6.6139997 z m 0,3.0499997 c 6.494,0 13.37,1.942 19.274,4.516 -3.123,2.758 -6.971,4.665 -11.067,5.754 l -7.852,17.31 -6.838,-16.882 c -4.757,-0.93 -9.26,-2.957 -12.783,-6.174 6.173,-2.643 13.082,-4.524 19.266,-4.524 z m 0.58,28.539 3.512,5.327 -3.497,5.053 -3.53,-5.053 z m 0,11.888 3.512,5.328 -3.497,5.052 -3.53,-5.053 3.514,-5.327 z m 0,11.733 3.512,5.327 -3.497,5.054 -3.53,-5.054 z m 0,11.876 3.512,5.327 -3.497,5.054 -3.53,-5.053 3.514,-5.327 z m 25.079,13.715 c -6.61,2.055 -15.829,2.907 -25.277,2.951 -9.5,0.045 -18.965,-0.744 -25.902004,-2.892 -0.205,1.785 -0.43,3.569 -0.678,5.347 5.968004,2.132 16.346004,3.408 26.497004,3.36 10.143,-0.05 20.355,-1.444 25.912,-3.433 a 241.302,241.302 0 0 1 -0.552,-5.333 z m 1.368,9.086 c -6.782,2.308001 -16.533,3.262001 -26.53,3.310001 -2.935,0.015 -5.866,-0.052 -8.724,-0.213 l -4.227,-0.315 c -5.358,-0.5 -10.307,-1.382001 -14.329004,-2.758001 -0.897,5.430001 -2.02,10.772001 -3.413,15.902991 2.117,1.06 4.41,1.968 6.835004,2.733 l 3.97,1.096 c 15.85,3.805 35.88,2.156 49.601,-3.513 -1.355,-5.08999 -2.387,-10.56999 -3.183,-16.242991 z"
         fill="url(#b)"
         id="path3"
         style="fill:url(#linearGradient4)" />
    </clipPath>
    <linearGradient
       inkscape:collect="always"
       xlink:href="#a"
       id="linearGradient4"
       gradientUnits="userSpaceOnUse"
       gradientTransform="translate(-9.1634428e-4,2.9910719e-4)"
       x1="0.22607562"
       y1="127.99268"
       x2="102.75522"
       y2="22.621271" />
  </defs>
  <path
     d="m 63.992084,8.1502964 c -10.38,0 -22.796,3.5259996 -30.355004,7.2199996 -8.038,3.266 -14.581,7.287 -19.253,14.509 -6.283,9.715 -9.334,24.721 -7.255,48.603 5.964,2.07 11.333,1.45 16.842,-0.415 -1.727,-7.884 -1.448,-15.764 0.496,-22.204 2.126,-7.044 6.404,-12.722 12.675,-13.701 l 2.77,-0.432 0.074,2.803 c 0.054,2.043 0.09,4.17 0.116004,6.335 l 0.027,6.312 c -0.037,8.798 -0.382004,18.286 -1.277004,27.845 5.637004,1.831 14.806004,2.954 23.964004,3.019 l 4.597,-0.058 c 8.53,-0.275 16.742,-1.449 21.665,-3.063 -1.093,-14.65 -1.166,-29.434 -1.52,-41.334 l -0.097,-3.283 3.18,0.824 c 6.238,1.617 10.549996,7.376 12.759996,14.507 2.02,6.51 2.353,14.37 0.64,22.248 a 29.764,29.764 0 0 0 12.847,1.181 l 4.399,-0.588 c 1.033,-18.811 -1.433,-37.403 -6.27,-46.264 l -4.408,-6.376 c -4.647,-5.357 -10.619996,-8.399 -17.664996,-11.074 -6.746,-3.458 -18.358,-6.6139996 -28.95,-6.6139996 z m 0,3.0499996 c 6.494,0 13.37,1.942 19.274,4.516 -3.123,2.758 -6.971,4.665 -11.067,5.754 l -7.852,17.31 -6.838,-16.882 c -4.757,-0.93 -9.26,-2.957 -12.783,-6.174 6.173,-2.643 13.082,-4.524 19.266,-4.524 z m 0.58,28.539 3.512,5.327 -3.497,5.053 -3.53,-5.053 z m 0,11.888 3.512,5.328 -3.497,5.052 -3.53,-5.053 3.514,-5.327 z m 0,11.733 3.512,5.327 -3.497,5.054 -3.53,-5.054 z m 0,11.876 3.512,5.327 -3.497,5.054 -3.53,-5.053 3.514,-5.327 z m 25.079,13.715 c -6.61,2.055 -15.829,2.907 -25.277,2.951 -9.5,0.045 -18.965,-0.744 -25.902004,-2.892 -0.205,1.785 -0.43,3.569 -0.678,5.347 5.968004,2.132 16.346004,3.408 26.497004,3.36 10.143,-0.05 20.355,-1.444 25.912,-3.433 a 241.302,241.302 0 0 1 -0.552,-5.333 z m 1.368,9.086 c -6.782,2.308004 -16.533,3.262004 -26.53,3.310004 -2.935,0.015 -5.866,-0.052 -8.724,-0.213 l -4.227,-0.315 c -5.358,-0.5 -10.307,-1.382004 -14.329004,-2.758004 -0.897,5.430004 -2.02,10.772004 -3.413,15.902994 2.117,1.06 4.41,1.968 6.835004,2.733 l 3.97,1.096 c 15.85,3.805 35.88,2.156 49.601,-3.513 -1.355,-5.08999 -2.387,-10.56999 -3.183,-16.242994 z"
     fill="url(#b)"
     id="path3-1"
     style="fill:url(#linearGradient8)" />
  <g
     id="g3"
     transform="translate(-139.25358,-28.95566)"
     clip-path="url(#clipPath11)">
    <path
       style="fill:#f4bb61;fill-opacity:1;stroke:#f4bb61;stroke-width:0;stroke-linecap:square;stroke-linejoin:round;stroke-opacity:1"
       d="m 139.36766,87.574184 c -0.2857,5.97132 0.93725,14.900636 1.16243,14.408366 5.18985,-5.937636 12.16757,-12.964726 20.11266,-15.667936 8.69774,-2.09722 19.64974,-2.15491 26.70078,-3.91944 7.72935,-2.6556 10.05563,-5.74308 12.56484,-9.56979 0.31826,-0.45391 0.81346,-0.65625 1.11323,-0.74796 4.14895,-1.26919 11.08879,-4.23895 15.71618,-5.74348 6.654,-2.16346 15.63883,-8.21004 15.44661,-8.27412 7.60826,-6.38624 9.66125,-15.03234 10.10963,-23.62749 0.18515,-0.05 -6.01291,-3.84504 -8.55947,-4.8217 -2.85101,14.28696 -8.66498,23.0345 -18.5023,29.53862 -4.41146,2.9167 -9.56964,5.34653 -15.51423,7.55467 2.64401,-3.15365 -0.72694,-23.39403 -3.86612,-14.68946 -0.98704,3.14284 -0.66093,6.09746 -0.93566,9.71373 -0.56178,3.87907 -1.90512,7.09392 -4.22963,9.86916 -6.20699,6.35362 -13.19751,7.22491 -25.90649,6.43255 -1.82605,0.20141 -13.35559,-3.97339 -25.41246,9.54428 z"
       id="path1"
       sodipodi:nodetypes="cccccsscccscccccc" />
    <path
       style="fill:#f4bb61;fill-opacity:1;stroke:#f4bb61;stroke-width:0;stroke-linecap:square;stroke-linejoin:round;stroke-opacity:1"
       d="m 156.39263,67.352834 c -4.43317,2.34396 -7.91415,5.48288 -4.64411,11.46183 l 10.78632,-0.56904 c 2.70303,-2.10922 -2.67282,-9.02218 -6.14221,-10.89279 z"
       id="path3-9"
       sodipodi:nodetypes="cccc" />
    <path
       style="fill:#f4bb61;fill-opacity:1;stroke:#f4bb61;stroke-width:0;stroke-linecap:square;stroke-linejoin:round;stroke-opacity:1"
       d="m 198.89433,85.576664 c 3.36414,-3.71883 3.73445,-7.24534 -1.38331,-11.7453 l -7.77909,4.16842 c -1.22928,1.96463 1.60769,4.47419 4.77991,6.07077 1.52082,0.76543 3.11869,1.32101 4.38249,1.50611 z"
       id="path3-0"
       sodipodi:nodetypes="cccsc" />
    <path
       style="fill:#f4bb61;fill-opacity:1;stroke:#f4bb61;stroke-width:0;stroke-linecap:square;stroke-linejoin:round;stroke-opacity:1"
       d="m 162.71014,79.231874 4.10333,0.44768 c 11.87161,-7.63029 -2.45057,-17.14513 -4.10333,-0.44768 z"
       id="path4"
       sodipodi:nodetypes="ccc" />
  </g>
  <path
     style="fill:#f4bb61;fill-opacity:1;stroke:#f4bb61;stroke-width:0;stroke-linecap:square;stroke-linejoin:round;stroke-opacity:1"
     d="m 44.809639,117.80283 c 2.27462,0.67475 8.37808,1.61937 13.931021,1.61638 16.22805,-22.138072 27.235202,-38.412012 48.07357,-49.910922 3.52674,3.52323 9.75963,6.2867 14.80573,7.04746 1.18113,-2.93376 1.86975,-5.75807 2.6324,-8.59883 -3.13354,0.0519 -6.77795,-1.52058 -9.06464,-3.16237 l 10.41797,-5.08702 c 0.61703,-3.67023 0.29711,-7.40293 0.23615,-11.11835 -38.928008,16.76983 -62.062027,44.89106 -81.032201,69.213652 z"
     id="path2"
     sodipodi:nodetypes="ccccccccc"
     clip-path="url(#clipPath3)" />
</svg>
