<?xml version="1.0" encoding="UTF-8" standalone="no"?>
<svg
   width="128"
   height="128"
   version="1.1"
   id="svg1"
   sodipodi:docname="loot-shirt-outfitSnow.svg"
   xml:space="preserve"
   inkscape:version="1.4 (e7c3feb1, 2024-10-09)"
   xmlns:inkscape="http://www.inkscape.org/namespaces/inkscape"
   xmlns:sodipodi="http://sodipodi.sourceforge.net/DTD/sodipodi-0.dtd"
   xmlns="http://www.w3.org/2000/svg"
   xmlns:svg="http://www.w3.org/2000/svg"><defs
     id="defs1"><clipPath
       clipPathUnits="userSpaceOnUse"
       id="clipPath22"><path
         d="m -64.367322,-4.273407 c 10.361079,-0.6264506 22.541647,-4.8953497 29.863929,-9.038815 7.82624,-3.745153 14.114639,-8.153705 18.342263,-15.644503 5.68523,-10.076481 7.8250314,-25.239261 4.308502,-48.952257 -6.078057,-1.706289 -11.399852,-0.763391 -16.786254,1.430687 2.199664,7.765401 2.396744,15.647875 0.844953,22.19346 -1.697008,7.159468 -5.624533,13.085302 -11.825017,14.440983 l -2.738879,0.598387 -0.243031,-2.793425 c -0.1772,-2.036017 -0.341503,-4.156967 -0.498117,-6.316451 l -0.40789,-6.298865 c -0.494042,-8.784196 -0.722288,-18.275722 -0.405821,-27.871313 -5.737229,-1.48746 -14.95729,-2.055048 -24.10252,-1.567229 l -4.58512,0.335332 c -8.497854,0.789298 -16.624032,2.456766 -21.440651,4.364936 1.97516,14.557331 2.940266,29.309977 4.011806,41.16692 l 0.294958,3.271162 -3.223933,-0.63058 c -6.324218,-1.237578 -10.975916,-6.725844 -13.612256,-13.710468 -2.40921,-6.376223 -3.21597,-14.201799 -1.98154,-22.168821 a 29.764,29.764 0 0 0 -12.89486,-0.403509 l -4.35549,0.852415 c 0.10416,18.839054 3.68772,37.248337 9.05068,45.801264 l 4.78477,6.098347 c 4.96183,5.066781 11.10753,7.742755 18.301127,9.9877017 6.942399,3.0445642 18.723702,5.4940072 29.296395,4.854762 z m -0.184072,-3.0444401 c -6.482163,0.3919239 -13.462832,-1.1315579 -19.511415,-3.3445499 2.950857,-2.941451 6.676752,-5.077208 10.699563,-6.411423 l 6.792999,-17.752329 7.844393,16.438542 c 4.804456,0.641212 9.42158,2.392754 13.13231,5.391271 -6.002238,3.0107329 -12.785123,5.305274 -18.95785,5.6784889 z m -2.30132,-28.4519739 -3.827092,-5.105335 3.185669,-5.254839 3.828522,4.830747 z m -0.717461,-11.866331 -3.827152,-5.106333 3.185729,-5.253841 3.828522,4.830748 -3.186101,5.529366 z m -0.708107,-11.711613 -3.827091,-5.105334 3.185608,-5.255838 3.828583,4.831746 z m -0.716736,-11.854352 -3.827092,-5.105334 3.185608,-5.255838 3.828523,4.830748 -3.186101,5.529366 z m -25.861009,-12.176439 c 6.473928,-2.450179 15.624704,-3.857009 25.052826,-4.471131 9.479968,-0.618259 18.975332,-0.401926 26.029323,1.323499 0.0969,-1.794119 0.213821,-3.588446 0.354063,-5.378172 -6.085791,-1.767935 -16.521882,-2.415279 -26.651482,-1.754737 -10.121493,0.662057 -20.230749,2.669827 -25.65758,4.990576 a 241.302,241.302 89.692282 0 1 0.87285,5.289965 z m -1.913862,-8.986877 c 6.630346,-2.713094 16.305996,-4.253845 26.281877,-4.905093 2.928744,-0.192105 5.858445,-0.302118 8.720952,-0.313897 l 4.238306,0.05932 c 5.378409,0.175724 10.371618,0.757432 14.46933,1.888189 0.567656,-5.474236 1.36621,-10.874276 2.447006,-16.079986 -2.177114,-0.93031 -4.520733,-1.69826 -6.987482,-2.31552 l -4.028909,-0.8544 c -16.050746,-2.84149 -35.944715,0.0134 -49.298571,6.5001 1.659721,4.99894 3.020567,10.406672 4.157491,16.021287 z"
         fill="#ffffff"
         id="path22"
         style="display:inline" /></clipPath><clipPath
       clipPathUnits="userSpaceOnUse"
       id="clipPath1"><path
         d="m 63.992088,8.1503044 c -10.38,0 -22.796,3.5259996 -30.355,7.2200006 -8.038001,3.265999 -14.581001,7.286999 -19.253001,14.508999 -6.2829994,9.715 -9.3339998,24.721 -7.2549999,48.603 5.9639999,2.07 11.3329999,1.45 16.8419999,-0.415 -1.726999,-7.884 -1.447999,-15.764 0.496,-22.204 2.126001,-7.044 6.404001,-12.722 12.675,-13.701 l 2.77,-0.432 0.074,2.803 c 0.054,2.043 0.09,4.17 0.116001,6.335 l 0.027,6.312 c -0.037,8.798 -0.381999,18.286 -1.277,27.845 5.637001,1.831001 14.806,2.954 23.964001,3.019001 l 4.597,-0.058 c 8.529999,-0.275 16.741999,-1.449 21.665,-3.063 -1.093001,-14.65 -1.166,-29.434 -1.52,-41.333999 l -0.097,-3.283001 3.179999,0.824 c 6.238,1.617 10.549992,7.376 12.759992,14.506999 2.02,6.510001 2.35301,14.370001 0.64,22.248001 a 29.764,29.764 0 0 0 12.84701,1.181 l 4.39899,-0.588 c 1.033,-18.811 -1.433,-37.403 -6.27,-46.264 l -4.408,-6.376 c -4.647,-5.357 -10.619994,-8.399 -17.664992,-11.074 -6.746,-3.458 -18.357999,-6.6139996 -28.95,-6.6139996 z m -1e-6,3.0499996 c 6.494001,0 13.37,1.942 19.274,4.516 -3.123,2.758 -6.971,4.665 -11.067,5.754 l -7.852,17.31 -6.838,-16.881999 c -4.757,-0.930001 -9.259999,-2.957001 -12.782999,-6.174001 6.172999,-2.643 13.082,-4.524 19.265999,-4.524 z m 0.58,28.539 3.512001,5.327 -3.497001,5.053 -3.529999,-5.052999 z m 0,11.888 3.512,5.328001 -3.497,5.052 -3.529999,-5.053001 3.514,-5.327 z m 10e-7,11.733001 3.511999,5.326999 -3.497,5.054001 -3.53,-5.054 z m -10e-7,11.875999 3.512001,5.327 -3.497,5.054 -3.530001,-5.053 3.514,-5.327 z m 25.079,13.715 c -6.609999,2.055 -15.829,2.907001 -25.276999,2.951 -9.500001,0.045 -18.965,-0.744 -25.902001,-2.892 -0.205001,1.785 -0.43,3.569 -0.677999,5.347 5.968,2.132 16.345999,3.408 26.497,3.360001 10.142999,-0.05 20.355,-1.444001 25.912,-3.433001 a 241.302,241.302 0 0 1 -0.552001,-5.333 z m 1.368,9.086 c -6.781999,2.307996 -16.532999,3.261996 -26.53,3.309996 -2.934999,0.015 -5.865999,-0.052 -8.723999,-0.213 l -4.227001,-0.315 c -5.358,-0.5 -10.307,-1.381996 -14.328999,-2.757996 -0.897001,5.429996 -2.020001,10.771996 -3.413,15.902996 2.117,1.06 4.409999,1.968 6.834999,2.733 l 3.970001,1.096 c 15.849999,3.805 35.880003,2.15595 49.601,-3.513 -1.355001,-5.09 -2.387,-10.57 -3.183001,-16.242996 z"
         fill="#ffffff"
         id="path1"
         style="display:inline;fill:#8ed1ff;fill-opacity:1" /></clipPath></defs><sodipodi:namedview
     id="namedview1"
     pagecolor="#ffffff"
     bordercolor="#000000"
     borderopacity="0.25"
     inkscape:showpageshadow="2"
     inkscape:pageopacity="0.0"
     inkscape:pagecheckerboard="0"
     inkscape:deskcolor="#d1d1d1"
     inkscape:zoom="2.8282264"
     inkscape:cx="47.025938"
     inkscape:cy="64.351284"
     inkscape:window-width="1472"
     inkscape:window-height="921"
     inkscape:window-x="1733"
     inkscape:window-y="59"
     inkscape:window-maximized="0"
     inkscape:current-layer="svg1"
     showguides="true" /><ellipse
     cx="-67.74585"
     cy="-60.020832"
     transform="rotate(-176.54)"
     id="circle2"
     style="fill:#d4f3ff;fill-opacity:1;stroke:none;stroke-width:7.70683;stroke-miterlimit:4;stroke-dasharray:none;stroke-opacity:1"
     rx="64.062988"
     ry="64.062996"
     clip-path="url(#clipPath22)" /><path
     sodipodi:nodetypes="sssss"
     inkscape:connector-curvature="0"
     id="path18-2"
     d="M 33.700039,9.3639461 C 45.667717,24.686895 71.218477,12.330935 76.388497,21.147055 88.010917,40.966023 38.567463,88.385351 23.02352,88.228467 7.4796064,88.071584 -1.5982146,69.992042 2.7476734,47.846674 7.0935394,25.701321 26.929368,0.69503206 33.700039,9.3639461 Z"
     style="fill:#8ed1ff;fill-opacity:1;stroke:none;stroke-width:0.999997;stroke-opacity:1"
     inkscape:transform-center-x="-39.7995"
     inkscape:transform-center-y="-2.9553717"
     clip-path="url(#clipPath1)" /></svg>
