<?xml version="1.0" encoding="UTF-8" standalone="no"?>
<!-- Created with Inkscape (http://www.inkscape.org/) -->

<svg
   version="1.1"
   id="svg1"
   width="128"
   height="128"
   viewBox="0 0 128 128"
   sodipodi:docname="loot-weapon-m96.png"
   xmlns:inkscape="http://www.inkscape.org/namespaces/inkscape"
   xmlns:sodipodi="http://sodipodi.sourceforge.net/DTD/sodipodi-0.dtd"
   xmlns="http://www.w3.org/2000/svg"
   xmlns:svg="http://www.w3.org/2000/svg">
  <defs
     id="defs1" />
  <sodipodi:namedview
     id="namedview1"
     pagecolor="#747474"
     bordercolor="#000000"
     borderopacity="0.25"
     inkscape:showpageshadow="2"
     inkscape:pageopacity="0.0"
     inkscape:pagecheckerboard="0"
     inkscape:deskcolor="#d1d1d1">
    <inkscape:page
       x="0"
       y="0"
       width="128"
       height="128"
       id="page2"
       margin="0"
       bleed="0" />
  </sodipodi:namedview>
  <g
     inkscape:groupmode="layer"
     inkscape:label="Image"
     id="g1">
    <path
       style="fill:#333333;stroke-width:0.0264948"
       d="m 13.166153,125.96788 c -0.187828,-0.0528 -0.321608,-0.12427 -0.545383,-0.29155 -0.335407,-0.25074 -0.420045,-0.36409 -0.822915,-1.10214 -0.500566,-0.91702 -1.109791,-1.98603 -1.331065,-2.33562 -0.05082,-0.0803 -0.118727,-0.18777 -0.150908,-0.23886 -0.285386,-0.45309 -0.37124,-0.58597 -0.5658793,-0.87586 -1.4595639,-2.17387 -3.0312502,-3.63797 -6.41613,-5.97696 -0.1163737,-0.0804 -0.3365582,-0.23258 -0.4892988,-0.33817 -0.4807091,-0.33228 -0.6970033,-0.58923 -0.8041592,-0.95532 -0.051275,-0.17518 -0.054224,-0.49844 -0.00619,-0.67862 0.076233,-0.28595 0.2729342,-0.56884 0.5087549,-0.73165 0.063721,-0.044 0.2855921,-0.25483 0.4930473,-0.46851 0.8897204,-0.91646 21.6188961,-22.088155 21.7376801,-22.201735 0.265197,-0.253579 0.618631,-0.459955 1.174588,-0.685865 1.038691,-0.422065 1.572958,-0.752927 2.096116,-1.298098 0.261676,-0.272688 0.524614,-0.628267 0.883706,-1.195077 0.40947,-0.64633 0.910265,-1.650733 1.674027,-3.357453 0.415673,-0.928878 0.447371,-0.999196 0.693963,-1.539384 0.41402,-0.906966 0.876082,-1.748877 1.347909,-2.455999 0.421374,-0.631504 1.092917,-1.509123 1.321425,-1.72693 0.07048,-0.06717 1.282618,-1.092178 2.69365,-2.277786 1.411032,-1.185605 2.57673,-2.171722 2.590441,-2.191371 0.01788,-0.02563 -0.0087,-0.0757 -0.09408,-0.177267 -0.172072,-0.204651 -0.220685,-0.321432 -0.219127,-0.526393 0.0015,-0.186574 0.05268,-0.314136 0.188306,-0.468581 0.04045,-0.04605 2.561022,-2.194486 5.601287,-4.774297 3.611755,-3.064746 5.572651,-4.7117 5.657281,-4.751548 0.126038,-0.05935 0.319969,-0.07131 0.478791,-0.02955 0.02909,0.0077 0.06414,0.01482 0.07788,0.01594 0.01375,0.0011 0.128781,0.110233 0.255641,0.242479 l 0.230659,0.24045 2.435502,-2.048258 c 1.339523,-1.126543 2.43546,-2.061834 2.43541,-2.078423 0,-0.01659 -0.244036,-0.315918 -0.542196,-0.665173 -0.298158,-0.349254 -0.5413,-0.64187 -0.540311,-0.650258 0.0019,-0.01611 0.65401,-0.567 0.68715,-0.580485 0.01065,-0.0044 0.254004,0.266979 0.540803,0.602913 0.286797,0.33593 0.54533,0.618392 0.574513,0.627687 0.03643,0.01161 0.09216,-0.01099 0.177811,-0.07209 0.06862,-0.04894 3.750764,-3.139016 8.182563,-6.866823 l 8.057815,-6.777833 -0.08261,-0.104671 c -0.04553,-0.0577 -0.0721,-0.113996 -0.0592,-0.125449 0.01287,-0.01143 0.279305,-0.233501 0.592059,-0.493492 0.312756,-0.259992 0.58954,-0.49065 0.615078,-0.512573 0.04232,-0.03633 0.05404,-0.0311 0.132243,0.05905 l 0.08581,0.09891 0.567217,-0.477704 c 0.624393,-0.525854 0.796882,-0.642162 1.072596,-0.723242 0.101827,-0.02994 0.197041,-0.05809 0.211588,-0.06254 0.02164,-0.0066 19.548044,-16.481881 19.658821,-16.586977 0.02723,-0.02585 -0.07105,-0.156865 -0.495911,-0.661124 -0.291434,-0.345893 -0.529881,-0.633535 -0.529881,-0.639205 0,-0.01154 2.190686,-1.852215 2.239616,-1.881786 0.01973,-0.01193 0.213744,0.197337 0.528971,0.570536 0.273796,0.324151 0.511331,0.607433 0.527851,0.629515 0.02547,0.03404 0.06446,0.01106 0.256299,-0.15105 0.124443,-0.105161 0.230841,-0.191201 0.23645,-0.191201 0.01957,0 1.698893,2.018791 1.698893,2.042301 0,0.01304 -0.38682,0.350506 -0.859577,0.749932 -0.47277,0.399425 -5.361459,4.527666 -10.863757,9.173868 -5.502297,4.646201 -10.004177,8.458717 -10.004177,8.472261 0,0.01354 0.188292,0.266525 0.418426,0.562191 0.431478,0.554335 0.555725,0.739789 0.691039,1.031436 0.221242,0.476867 0.147831,0.988224 -0.202515,1.410626 -0.06969,0.08403 -0.39451,0.410498 -0.72181,0.725488 -0.327301,0.31499 -0.598175,0.580975 -0.601941,0.591079 -0.0038,0.0101 0.141785,0.197206 0.323447,0.41578 0.181662,0.218577 0.327567,0.40528 0.324231,0.414896 -0.0081,0.02343 -1.240827,1.057431 -1.260634,1.057431 -0.0085,0 -0.0669,-0.06462 -0.1297,-0.143583 -0.06279,-0.07897 -0.150957,-0.171532 -0.195918,-0.205693 -0.04496,-0.03416 -0.141759,-0.111789 -0.215106,-0.172505 -0.109581,-0.0907 -0.14101,-0.104906 -0.176266,-0.07962 -0.07746,0.05556 -5.805473,5.609058 -5.88521,5.705915 -0.04279,0.05198 -0.714194,0.70616 -1.491999,1.453731 -5.97979,5.747342 -23.887813,23.071967 -23.928144,23.148626 -0.07092,0.134805 -0.09165,0.636058 -0.03479,0.841436 0.01422,0.05138 0.02593,0.130457 0.02601,0.175726 0,0.05069 0.09411,0.269846 0.244798,0.570634 0.340057,0.678769 0.475302,1.000957 0.628344,1.496893 0.01802,0.05839 0.05126,0.127347 0.07385,0.153238 0.02729,0.03127 0.03224,0.05595 0.01473,0.07352 -0.0175,0.01756 -0.01509,0.09533 0.0072,0.231606 0.148231,0.90757 -0.12129,1.924231 -0.765581,2.887846 -0.535372,0.800716 -1.20417,1.414777 -2.200509,2.020414 -0.02883,0.01752 -0.169913,0.100241 -0.313527,0.183819 -0.143613,0.08358 -0.290672,0.182706 -0.326802,0.220283 -0.08502,0.08843 -1.182108,1.746538 -1.441304,2.178341 -0.40295,0.671289 -0.863718,1.545166 -1.06357,2.017126 -0.02782,0.06569 -0.07959,0.185124 -0.115061,0.265411 -0.189118,0.428116 -0.514804,1.284513 -0.802429,2.110019 -0.08647,0.24816 -0.196978,0.516889 -0.245583,0.597176 -0.0486,0.08029 -0.124848,0.220426 -0.169433,0.311423 -0.394293,0.804743 -1.011346,1.230881 -1.992247,1.375852 -0.288205,0.0426 -0.918306,0.04284 -1.107077,4.24e-4 -0.03637,-0.0081 -0.131582,-0.02838 -0.211589,-0.04491 -0.594595,-0.122843 -1.112158,-0.534883 -1.346724,-1.072153 -0.03186,-0.07299 -0.0686,-0.156592 -0.08161,-0.185788 -0.103088,-0.231162 -0.10718,-0.28779 -0.05121,-0.708791 0.13602,-1.023035 0.329245,-2.003595 0.540247,-2.741589 0.392344,-1.372237 1.051709,-2.565648 2.243593,-4.060757 0.444916,-0.558109 1.15126,-1.393624 1.363338,-1.612658 l 0.14804,-0.152895 -0.165756,-0.165598 -0.165755,-0.165598 -0.165106,0.172517 c -0.09081,0.09489 -0.353791,0.393472 -0.58441,0.663529 -2.670615,3.127313 -3.289707,4.595982 -3.809496,9.037252 -0.07801,0.666594 -0.125477,1.193406 -0.212821,2.362159 -0.03788,0.506873 -0.08325,0.942336 -0.107704,1.03366 -0.101885,0.380525 -0.350507,0.683934 -0.709764,0.866184 -0.504326,0.25585 -2.640118,1.69011 -3.586359,2.40837 -0.682244,0.51787 -2.041897,1.63217 -2.288925,1.87587 -0.07324,0.0723 -2.083557,3.39618 -6.292449,10.40412 -3.40166,5.66387 -6.247609,10.3768 -6.324331,10.47319 -0.15583,0.19573 -0.363331,0.34695 -0.588437,0.42883 -0.195059,0.0709 -0.572417,0.0873 -0.765109,0.0332 z m 0.749275,-4.48753 c 1.220481,-2.02489 2.179887,-3.62659 2.179887,-3.63927 0,-0.008 0.05199,-0.0937 0.115549,-0.19055 0.06355,-0.0969 0.154704,-0.24775 0.202562,-0.33533 0.04786,-0.0876 0.143361,-0.24882 0.212231,-0.35831 0.232757,-0.37001 1.149004,-1.89276 1.16766,-1.94058 0.01018,-0.0261 0.09647,-0.16802 0.191753,-0.31536 0.09528,-0.14734 0.173235,-0.27464 0.173235,-0.28289 0,-0.0202 0.250475,-0.43738 0.371949,-0.61956 0.05353,-0.0803 0.134015,-0.21302 0.178848,-0.29494 0.04483,-0.082 0.35766,-0.60745 0.695168,-1.16781 0.337509,-0.56037 1.187266,-1.97433 1.888349,-3.14214 0.701084,-1.1678 1.379414,-2.29647 1.507402,-2.50814 0.127987,-0.21166 0.645283,-1.07162 1.149546,-1.91101 0.504263,-0.83939 0.955103,-1.57916 1.001866,-1.64395 0.141523,-0.19605 0.358806,-0.40992 0.793531,-0.78107 1.732574,-1.47919 2.654699,-2.16094 5.036704,-3.723769 0.229534,-0.150597 0.421506,-0.28881 0.426602,-0.307136 0.0051,-0.01833 0.02931,-0.313997 0.0538,-0.657042 0.08491,-1.189316 0.265903,-2.779136 0.371655,-3.264558 0.0079,-0.03649 0.02064,-0.114127 0.02821,-0.172518 0.01131,-0.08734 0.077,-0.424848 0.129119,-0.663528 0.0064,-0.0292 0.01932,-0.09488 0.02876,-0.145976 0.0094,-0.05109 0.04615,-0.212328 0.08158,-0.358304 0.03543,-0.145977 0.06936,-0.286215 0.07541,-0.311644 0.03754,-0.157747 0.152275,-0.56067 0.18779,-0.659438 0.02316,-0.06441 0.04747,-0.144643 0.05402,-0.178301 0.01077,-0.05533 0.16675,-0.498455 0.221361,-0.628873 0.03262,-0.07789 0.05286,-0.145475 0.04613,-0.154058 -0.0032,-0.0042 0.01522,-0.03984 0.04101,-0.07934 0.02579,-0.0395 0.0393,-0.07182 0.03001,-0.07182 -0.0093,0 0.0026,-0.02986 0.02645,-0.06635 0.02383,-0.03649 0.03643,-0.06635 0.028,-0.06635 -0.0084,0 0.0017,-0.03284 0.02262,-0.07299 0.02087,-0.04015 0.0513,-0.105833 0.06762,-0.145976 0.409693,-1.00783 1.049818,-2.196485 2.076073,-3.855098 0.396491,-0.640801 0.532048,-0.828478 0.674273,-0.933534 0.08475,-0.06259 5.170886,-4.968495 8.003868,-7.720229 0.436597,-0.424076 0.966929,-0.937647 1.178515,-1.141268 0.211583,-0.203621 2.22345,-2.149802 4.470811,-4.324846 2.247363,-2.175046 4.817625,-4.662009 5.711698,-5.52659 0.894074,-0.864579 1.685098,-1.6453 1.757832,-1.734937 0.07273,-0.08964 0.234521,-0.2601 0.359531,-0.378811 0.390829,-0.371135 11.786218,-11.33862 12.190323,-11.732567 0.210927,-0.205627 1.766291,-1.710364 3.456364,-3.343858 l 3.072858,-2.969994 -0.265465,-0.314382 c -0.146004,-0.172913 -0.273144,-0.314085 -0.282532,-0.313716 -0.0094,3.72e-4 -0.350322,0.281885 -0.75763,0.625598 -0.407308,0.34371 -1.05596,0.88972 -1.441448,1.213348 -0.763052,0.640613 -2.342072,1.968824 -3.63668,3.05904 -0.450949,0.379753 -1.510214,1.27033 -2.353924,1.979057 -0.843711,0.708731 -1.61138,1.354251 -1.705934,1.434493 -0.09455,0.08024 -1.201428,1.011115 -2.459719,2.06861 -5.80055,4.874893 -10.328241,8.683695 -10.605883,8.921917 -0.167287,0.143538 -0.490679,0.418036 -0.718652,0.610001 l -0.414492,0.349026 0.08388,0.102666 c 0.04614,0.05647 0.09579,0.122694 0.110344,0.14717 0.01455,0.02448 0.03817,0.06242 0.0525,0.08432 0.01432,0.02189 0.02771,0.04877 0.02975,0.05971 0.002,0.01095 0.0061,0.02289 0.009,0.02654 0.01249,0.01555 0.03349,0.119396 0.041,0.202684 0.01064,0.118126 -0.07044,0.360486 -0.149137,0.445835 -0.03437,0.03728 -0.32433,0.289739 -0.644358,0.561037 -0.320028,0.271295 -0.766348,0.649623 -0.991822,0.840724 -0.468471,0.397056 -3.182249,2.694479 -3.589954,3.039172 -0.332633,0.281226 -0.471661,0.355226 -0.668269,0.355696 -0.194513,4.77e-4 -0.36472,-0.0849 -0.559992,-0.280853 -0.08477,-0.08507 -0.15796,-0.154659 -0.162655,-0.154659 -0.02105,0 -0.778038,0.629172 -2.454161,2.039795 -2.706256,2.277582 -2.706066,2.277419 -3.077208,2.592319 -0.189697,0.160951 -0.82098,0.691753 -1.402849,1.17956 -1.95537,1.639277 -1.821297,1.517987 -2.147216,1.942467 -0.9933,1.293692 -1.28954,1.824671 -2.396538,4.29553 -0.654875,1.461701 -0.947869,2.083234 -1.294957,2.747006 -0.593231,1.134501 -1.146154,1.984082 -1.677009,2.576769 -0.336495,0.375692 -0.393621,0.433679 -0.633544,0.643088 -0.643952,0.562064 -1.497769,1.058097 -2.522741,1.465615 l -0.357056,0.14196 -1.122893,1.142795 c -0.617591,0.628536 -1.469054,1.495127 -1.892138,1.925757 -0.423084,0.43063 -1.37576,1.403858 -2.117058,2.162733 -0.741298,0.758871 -2.032171,2.078658 -2.868608,2.932864 -0.836437,0.854191 -2.401289,2.454791 -3.477451,3.556871 -1.076161,1.10209 -2.325856,2.38009 -2.777101,2.84001 -4.2558236,4.33765 -6.969741,7.11792 -6.969741,7.14013 0,0.0131 0.074387,0.0741 0.1653037,0.13559 0.1568014,0.10601 0.3669759,0.26077 1.223247,0.90072 0.2036542,0.1522 0.382834,0.2827 0.3981777,0.29001 0.015344,0.008 0.1443183,0.10881 0.2866106,0.22559 0.1422921,0.11678 0.291555,0.23622 0.3316948,0.26542 0.067627,0.0492 0.2219709,0.17978 0.4885769,0.41338 0.059566,0.0522 0.135965,0.11367 0.1697732,0.13659 0.033808,0.023 0.2001407,0.17131 0.3696272,0.32976 0.1694867,0.15844 0.3792277,0.35376 0.4660913,0.43405 0.4688085,0.43331 1.2742826,1.30949 1.5295946,1.66386 0.04007,0.0556 0.221598,0.29222 0.403393,0.52578 0.315914,0.40587 0.859402,1.16023 0.859402,1.19283 0,0.009 0.127051,0.20942 0.282336,0.44644 0.246515,0.37626 0.530534,0.84126 0.668507,1.09447 0.02386,0.0438 0.07358,0.12739 0.110479,0.18579 0.0369,0.0584 0.123921,0.21123 0.193378,0.33966 0.06946,0.12843 0.139889,0.22913 0.156517,0.22379 0.01662,-0.006 0.209713,-0.30747 0.42908,-0.67142 z m 2.030396,-11.35567 c -0.579752,-0.14112 -1.014246,-0.69348 -1.014246,-1.28938 0,-0.71632 0.608597,-1.32705 1.322429,-1.32705 0.713832,0 1.322429,0.61073 1.322429,1.32705 0,0.72697 -0.617324,1.33568 -1.343567,1.32481 -0.08293,-9.7e-4 -0.212098,-0.0172 -0.287045,-0.0355 z M 37.412876,95.535791 c 0.178901,-0.03813 0.266305,-0.078 0.389133,-0.17751 0.160918,-0.130361 0.459197,-0.737217 0.726905,-1.478897 0.719481,-1.99331 1.258476,-3.128862 2.205457,-4.646444 l 0.299203,-0.479489 -0.05813,-0.118795 c -0.03197,-0.06534 -0.08341,-0.15413 -0.114297,-0.197312 -0.03089,-0.04318 -0.08965,-0.144204 -0.130572,-0.224491 -0.113678,-0.223022 -0.183328,-0.292584 -0.444976,-0.444415 L 40.04451,87.628537 39.809569,87.87425 c -0.362808,0.37944 -0.945663,1.030916 -1.189517,1.329556 -1.247572,1.527874 -1.786758,2.689853 -2.47747,5.339105 l -0.110717,0.424658 0.04651,0.132706 c 0.0645,0.18402 0.165859,0.353804 0.232638,0.389668 0.137404,0.07379 0.32585,0.09831 0.652236,0.08485 0.181834,-0.0075 0.384165,-0.02504 0.449626,-0.039 z m 5.272423,-8.768078 c 0.499552,-0.273527 1.382573,-0.914108 1.483559,-1.076237 0.01365,-0.02191 0.0672,-0.07562 0.119019,-0.119345 0.282378,-0.238321 0.542399,-0.5753 0.752641,-0.975396 0.130265,-0.247895 0.199511,-0.41706 0.214609,-0.524297 0.0051,-0.03649 0.02598,-0.162522 0.04633,-0.280061 0.04432,-0.256061 0.03808,-0.52057 -0.01798,-0.763191 -0.05208,-0.225331 -0.23378,-0.725308 -0.339458,-0.934062 -0.252176,-0.498131 -0.294539,-0.552857 -0.52225,-0.674651 -0.13146,-0.07031 -0.180531,-0.08177 -0.350148,-0.08177 h -0.197262 l -1.194198,1.156514 c -0.656808,0.636082 -1.194199,1.16695 -1.194199,1.179703 0,0.01275 0.05761,0.09249 0.128019,0.177177 0.387642,0.46628 0.926979,0.838719 1.572626,1.085968 0.222789,0.08532 0.348171,0.118209 0.753017,0.197548 0.193847,0.03798 0.186552,0.04925 -0.11515,0.177876 -0.29232,0.124624 -0.620824,0.195685 -0.978771,0.211732 -0.830123,0.03721 -1.593023,-0.238969 -2.154431,-0.77994 l -0.173151,-0.166849 -0.33504,0.337546 -0.335042,0.337541 0.205026,0.252141 c 0.112764,0.138677 0.245435,0.276028 0.294826,0.305223 0.101281,0.05987 0.306737,0.25898 0.379899,0.368167 0.02902,0.04331 0.129955,0.110589 0.251262,0.167478 0.111514,0.05229 0.250954,0.128265 0.309871,0.168822 0.05891,0.04056 0.195785,0.100358 0.304158,0.132882 0.108372,0.03252 0.21065,0.06984 0.227287,0.0829 0.0284,0.02232 0.53625,0.148773 0.613673,0.152808 0.01958,9.69e-4 0.132648,-0.05129 0.251262,-0.116232 z M 77.022759,45.63027 77.175,45.486943 76.976194,45.227025 c -0.109344,-0.142952 -0.209761,-0.263155 -0.223149,-0.267114 -0.01339,-0.004 -0.09932,0.06105 -0.190967,0.144466 l -0.166619,0.151669 0.214956,0.258776 c 0.118228,0.142326 0.225115,0.258776 0.237529,0.258776 0.01242,0 0.09108,-0.0645 0.174815,-0.143328 z M 102.00376,24.418991 c -0.0673,-0.0321 -0.15999,-0.09251 -0.20587,-0.134217 -0.13632,-0.123944 -1.64724,-1.968575 -1.70756,-2.084692 -0.105716,-0.203531 -0.0793,-0.528389 0.057,-0.70233 0.10191,-0.130005 23.20778,-19.3885255 23.32925,-19.4447052 0.21067,-0.097428 0.51239,-0.057137 0.68914,0.092027 0.10547,0.089001 1.74019,2.0909453 1.78384,2.1845591 0.0758,0.1624004 0.0653,0.3966598 -0.025,0.5631979 -0.0639,0.1179082 -1.40816,1.2475926 -11.68193,9.8175652 -12.49557,10.423321 -11.71473,9.787441 -12.00082,9.77286 -0.0636,-0.0032 -0.17069,-0.03216 -0.23804,-0.06427 z"
       id="path1" />
    <path
       style="fill:#f9f9f9;stroke-width:0.176777"
       d="m 13.060122,121.50076 c -1.968026,-3.16558 -3.4506706,-4.85382 -5.9890542,-6.81954 -0.8750446,-0.67763 -1.5909903,-1.29162 -1.5909903,-1.36441 0,-0.0728 4.7191995,-4.95479 10.4871085,-10.84889 10.08654,-10.307206 10.540874,-10.744509 11.8947,-11.448845 2.08617,-1.085348 2.682176,-1.855063 4.843091,-6.25465 1.002844,-2.041771 2.088978,-4.080321 2.413633,-4.530109 0.324656,-0.449789 2.576084,-2.488917 5.003177,-4.531394 4.277418,-3.599585 4.425332,-3.705442 4.818048,-3.448124 0.476553,0.312249 0.07758,0.577492 3.619212,-2.406076 1.428407,-1.20333 2.64291,-2.30724 2.698894,-2.453132 0.05598,-0.145892 0.0078,-0.378491 -0.107046,-0.51689 -0.162456,-0.195745 -0.153318,-0.303458 0.04114,-0.484992 0.13749,-0.128349 5.567536,-4.701865 12.066774,-10.163367 9.74514,-8.189134 11.861637,-9.892787 12.07259,-9.717712 0.140689,0.116762 0.2325,0.315694 0.204023,0.442072 -0.02848,0.126378 -2.75646,2.833074 -6.062184,6.01488 -3.305724,3.181805 -9.789009,9.452673 -14.407301,13.935261 -4.618291,4.482588 -10.942477,10.605871 -14.053747,13.607294 -3.11127,3.001424 -5.924063,5.862214 -6.250652,6.357312 -0.924717,1.401848 -2.436026,4.66851 -2.747336,5.938317 -0.247445,1.009308 -0.413718,2.103563 -0.742139,4.884084 -0.0818,0.692559 -0.164809,0.782003 -1.625387,1.751443 -1.600049,1.062008 -3.733454,2.742328 -4.399057,3.464798 -0.21175,0.22984 -2.898175,4.59424 -5.969835,9.69866 -3.071659,5.10443 -5.657685,9.30561 -5.746724,9.33595 -0.08904,0.0303 -0.300962,-0.16853 -0.470941,-0.44194 z m 3.842136,-11.5564 c 0.858111,-0.45925 0.766278,-1.85662 -0.149433,-2.27385 -0.594508,-0.27088 -1.338289,0.0171 -1.615486,0.62548 -0.294125,0.64553 -0.248375,0.91941 0.234198,1.40198 0.465701,0.46571 0.969423,0.54678 1.530721,0.24639 z"
       id="path34" />
    <path
       style="fill:#f9f9f9;stroke-width:0.015625"
       d="M 76.739262,45.667647 C 76.6843,45.605519 76.583619,45.48843 76.515526,45.407448 l -0.123805,-0.14724 0.137074,-0.127269 c 0.07539,-0.07 0.157074,-0.139083 0.181517,-0.153522 l 0.04444,-0.02625 0.07666,0.08982 c 0.09705,0.113718 0.32958,0.416084 0.33578,0.436629 0.0047,0.01551 -0.253699,0.260922 -0.302286,0.287123 -0.02026,0.01092 -0.04693,-0.01011 -0.125647,-0.09909 z"
       id="path35" />
  </g>
</svg>
