<?xml version="1.0" encoding="UTF-8" standalone="no"?>
<svg
   width="176"
   height="176"
   version="1.1"
   id="svg11"
   sodipodi:docname="player-helmet-classless.svg"
   inkscape:version="1.4 (e7c3feb1, 2024-10-09)"
   xmlns:inkscape="http://www.inkscape.org/namespaces/inkscape"
   xmlns:sodipodi="http://sodipodi.sourceforge.net/DTD/sodipodi-0.dtd"
   xmlns:xlink="http://www.w3.org/1999/xlink"
   xmlns="http://www.w3.org/2000/svg"
   xmlns:svg="http://www.w3.org/2000/svg"
   xmlns:rdf="http://www.w3.org/1999/02/22-rdf-syntax-ns#"
   xmlns:cc="http://creativecommons.org/ns#"
   xmlns:dc="http://purl.org/dc/elements/1.1/">
  <metadata
     id="metadata15">
    <rdf:RDF>
      <cc:Work
         rdf:about="">
        <dc:format>image/svg+xml</dc:format>
        <dc:type
           rdf:resource="http://purl.org/dc/dcmitype/StillImage" />
        <dc:title />
      </cc:Work>
    </rdf:RDF>
  </metadata>
  <sodipodi:namedview
     pagecolor="#ffffff"
     bordercolor="#666666"
     borderopacity="1"
     objecttolerance="10"
     gridtolerance="10"
     guidetolerance="10"
     inkscape:pageopacity="0"
     inkscape:pageshadow="2"
     inkscape:window-width="1920"
     inkscape:window-height="1022"
     id="namedview13"
     showgrid="true"
     inkscape:zoom="2.7987613"
     inkscape:cx="134.70245"
     inkscape:cy="41.625558"
     inkscape:window-x="0"
     inkscape:window-y="128"
     inkscape:window-maximized="1"
     inkscape:current-layer="svg11"
     inkscape:showpageshadow="2"
     inkscape:pagecheckerboard="0"
     inkscape:deskcolor="#d1d1d1">
    <inkscape:grid
       type="xygrid"
       id="grid831"
       empspacing="4"
       spacingy="2"
       spacingx="2"
       originx="0"
       originy="0"
       units="px" />
  </sodipodi:namedview>
  <defs
     id="defs5">
    <linearGradient
       id="linearGradient1"
       inkscape:collect="always">
      <stop
         style="stop-color:#000000;stop-opacity:1;"
         offset="0"
         id="stop1" />
      <stop
         style="stop-color:#800000;stop-opacity:1;"
         offset="1"
         id="stop2" />
    </linearGradient>
    <clipPath
       id="a">
      <path
         d="M188 128c0 80-69.756 119.362-69.756 119.362C64 244 8.638 193.922 8.638 128S64 12 118.244 8.638C118.244 8.638 188 48 188 128z"
         fill="#252525"
         fill-opacity=".601"
         stroke-width="12.537"
         id="path2" />
    </clipPath>
    <clipPath
       clipPathUnits="userSpaceOnUse"
       id="clipPath881">
      <path
         id="path883"
         d="M 53.110836,88.000002 C 53.110836,41.958818 80,32 80,32 111.21823,33.93488 156.33632,50.060916 156.33632,88.000002 156.33632,125.93909 111.21823,142.06513 80,144 80,144 53.110836,134.04118 53.110836,88.000002 Z"
         inkscape:connector-curvature="0"
         style="fill:#252525;fill-opacity:0.60100002;stroke-width:7.21522856"
         sodipodi:nodetypes="scscs" />
    </clipPath>
    <linearGradient
       inkscape:collect="always"
       xlink:href="#linearGradient1"
       id="linearGradient2"
       x1="52.728541"
       y1="87.999927"
       x2="101.40186"
       y2="87.999927"
       gradientUnits="userSpaceOnUse"
       gradientTransform="translate(-2)" />
    <linearGradient
       id="linearGradient1045">
      <stop
         style="stop-color:#360000;stop-opacity:1;"
         offset="0"
         stop-color="#66a000"
         id="stop1041" />
      <stop
         style="stop-color:#af0000;stop-opacity:1;"
         offset="1"
         stop-color="#0e2608"
         id="stop1043" />
    </linearGradient>
  </defs>
  <path
     sodipodi:nodetypes="scscs"
     style="fill:#171e15;fill-opacity:0.833333;stroke:#090909;stroke-width:19;stroke-miterlimit:4;stroke-dasharray:none;stroke-opacity:1"
     inkscape:connector-curvature="0"
     d="M 53.110836,88.000002 C 53.110836,41.958818 80,32 80,32 111.21823,33.93488 156.33632,50.060916 156.33632,88.000002 156.33632,125.93909 111.21823,142.06513 80,144 80,144 53.110836,134.04118 53.110836,88.000002 Z"
     id="path879"
     clip-path="url(#clipPath881)"
     transform="translate(140)" />
  <path
     d="m 188,128 c 0,80 -69.756,119.362 -69.756,119.362 C 64,244 8.638,193.922 8.638,128 8.638,62.078 64,12 118.244,8.638 118.244,8.638 188,48 188,128 Z"
     clip-path="url(#a)"
     transform="matrix(0.469098,0,0,0.469098,29.294583,27.955616)"
     fill="#252525"
     stroke="#090909"
     stroke-width="37.259"
     id="path7"
     style="fill:#222222;fill-opacity:1;stroke-width:37.2587;stroke-miterlimit:4;stroke-dasharray:none" />
  <g
     transform="matrix(1,0,0,-1,140,174.21354)"
     id="g848">
    <g
       id="g855">
      <g
         transform="matrix(1,0,0,-1,0,172.42708)"
         id="g844">
        <path
           style="fill:none;stroke:#090909;stroke-width:8;stroke-linecap:butt;stroke-linejoin:miter;stroke-miterlimit:4;stroke-dasharray:none;stroke-opacity:1"
           d="m 48,46.21354 c 36,20 100,23.999998 100,23.999998"
           id="path835"
           inkscape:connector-curvature="0"
           sodipodi:nodetypes="cc" />
      </g>
      <path
         sodipodi:nodetypes="cc"
         inkscape:connector-curvature="0"
         id="path846"
         d="m 48,46.21354 c 36,20 100,23.999998 100,23.999998"
         style="fill:none;stroke:#090909;stroke-width:8;stroke-linecap:butt;stroke-linejoin:miter;stroke-miterlimit:4;stroke-dasharray:none;stroke-opacity:1" />
    </g>
  </g>
  <path
     style="fill:url(#linearGradient2);fill-opacity:1;stroke:#0a0a0a;stroke-width:5.32887"
     inkscape:connector-curvature="0"
     id="path885"
     d="M 96.177572,87.998937 88,100 56,106 66,87.998937 56,70 88,76 Z"
     sodipodi:nodetypes="ccccccc" />
  <path
     style="fill:#273424;fill-opacity:1;stroke:#090909;stroke-width:9.5;stroke-linecap:butt;stroke-linejoin:miter;stroke-miterlimit:4;stroke-dasharray:none;stroke-opacity:1"
     d="M 254,68 240,38 c 40,8 56,34 56,34 z"
     id="path895"
     inkscape:connector-curvature="0"
     sodipodi:nodetypes="cccc" />
  <path
     sodipodi:nodetypes="cccc"
     inkscape:connector-curvature="0"
     id="path897"
     d="m 254,108 -14,30 c 40,-8 56,-34 56,-34 z"
     style="fill:#273424;fill-opacity:1;stroke:#090909;stroke-width:9.5;stroke-linecap:butt;stroke-linejoin:miter;stroke-miterlimit:4;stroke-dasharray:none;stroke-opacity:1" />
  <path
     sodipodi:nodetypes="cccc"
     inkscape:connector-curvature="0"
     id="path887"
     d="m 114,68 c 0,0 -36,-4 -72,-20 0,0 12,-16 36,-22 0,0 28,16 36,42 z"
     style="fill:#383838;fill-opacity:1;stroke:#090909;stroke-width:9.5;stroke-linecap:butt;stroke-linejoin:miter;stroke-miterlimit:4;stroke-dasharray:none;stroke-opacity:1" />
  <path
     style="fill:#383838;fill-opacity:1;stroke:#090909;stroke-width:9.5;stroke-linecap:butt;stroke-linejoin:miter;stroke-miterlimit:4;stroke-dasharray:none;stroke-opacity:1"
     d="m 114,108 c 0,0 -36,4 -72,20 0,0 12,16 36,22 0,0 28,-16 36,-42 z"
     id="path889"
     inkscape:connector-curvature="0"
     sodipodi:nodetypes="cccc" />
</svg>
