<?xml version="1.0" encoding="UTF-8" standalone="no"?>
<svg
   width="50"
   height="50"
   version="1.1"
   id="svg11"
   sodipodi:docname="birthday.svg"
   inkscape:version="1.4.2 (ebf0e940, 2025-05-08)"
   xml:space="preserve"
   xmlns:inkscape="http://www.inkscape.org/namespaces/inkscape"
   xmlns:sodipodi="http://sodipodi.sourceforge.net/DTD/sodipodi-0.dtd"
   xmlns="http://www.w3.org/2000/svg"
   xmlns:svg="http://www.w3.org/2000/svg"><defs
     id="defs11"><inkscape:path-effect
       effect="fillet_chamfer"
       id="path-effect41"
       is_visible="true"
       lpeversion="1"
       nodesatellites_param="F,0,0,1,0,0,0,1 @ F,0,0,1,0,0,0,1 @ F,0,0,1,0,2.9542134,0,1 @ F,0,0,1,0,2.2055114,0,1 @ F,0,0,1,0,0,0,1 @ F,0,0,1,0,0,0,1 @ F,0,0,1,0,0,0,1 @ F,0,0,1,0,0,0,1"
       radius="0"
       unit="px"
       method="auto"
       mode="F"
       chamfer_steps="1"
       flexible="false"
       use_knot_distance="true"
       apply_no_radius="true"
       apply_with_radius="true"
       only_selected="false"
       hide_knots="false" /><inkscape:path-effect
       effect="fillet_chamfer"
       id="path-effect41-2"
       is_visible="true"
       lpeversion="1"
       nodesatellites_param="F,0,0,1,0,0,0,1 @ F,0,0,1,0,0,0,1 @ F,0,0,1,0,2.9542134,0,1 @ F,0,0,1,0,2.2055114,0,1 @ F,0,0,1,0,0,0,1 @ F,0,0,1,0,0,0,1 @ F,0,0,1,0,0,0,1 @ F,0,0,1,0,0,0,1"
       radius="0"
       unit="px"
       method="auto"
       mode="F"
       chamfer_steps="1"
       flexible="false"
       use_knot_distance="true"
       apply_no_radius="true"
       apply_with_radius="true"
       only_selected="false"
       hide_knots="false" /><inkscape:path-effect
       effect="fillet_chamfer"
       id="path-effect39-35"
       is_visible="true"
       lpeversion="1"
       nodesatellites_param="F,0,0,1,0,0,0,1 @ F,0,0,1,0,6.2202202,0,1 @ F,0,0,1,0,1.7086202,0,1 @ F,0,0,1,0,0.98392732,0,1 @ F,0,0,1,0,1.7086202,0,1 @ F,0,0,1,0,0,0,1"
       radius="0"
       unit="px"
       method="auto"
       mode="F"
       chamfer_steps="1"
       flexible="false"
       use_knot_distance="true"
       apply_no_radius="true"
       apply_with_radius="true"
       only_selected="false"
       hide_knots="false" /></defs><sodipodi:namedview
     id="namedview11"
     pagecolor="#ffffff"
     bordercolor="#000000"
     borderopacity="0.25"
     inkscape:showpageshadow="2"
     inkscape:pageopacity="0.0"
     inkscape:pagecheckerboard="0"
     inkscape:deskcolor="#d1d1d1"
     showgrid="true"
     inkscape:zoom="2.3302713"
     inkscape:cx="12.015768"
     inkscape:cy="5.149615"
     inkscape:window-width="1280"
     inkscape:window-height="691"
     inkscape:window-x="0"
     inkscape:window-y="25"
     inkscape:window-maximized="0"
     inkscape:current-layer="svg11"
     showguides="false"><inkscape:grid
       id="grid11"
       units="px"
       originx="-13.363524"
       originy="-11.048784"
       spacingx="1"
       spacingy="1"
       empcolor="#0099e5"
       empopacity="0.30196078"
       color="#0099e5"
       opacity="0.14901961"
       empspacing="5"
       enabled="true"
       visible="true" /><inkscape:page
       x="0"
       y="0"
       width="50"
       height="50"
       id="page2"
       margin="0"
       bleed="0" /></sodipodi:namedview><g
     id="g31"
     transform="matrix(0.36000276,0,0,0.36000276,1.6353011,0.78128364)"
     style="display:inline"><path
       id="path18"
       style="display:inline;fill:#ffffff;fill-opacity:1;stroke:#191919;stroke-width:6.11019;stroke-dasharray:none"
       d="m 18.150609,65.550995 c -1.798539,0.103418 -3.149367,1.513011 -3.149367,3.441525 -0.01512,13.644861 0.0703,1.417229 -0.07126,11.296043 -0.02182,1.52278 1.270351,2.953345 2.883889,3.195224 l 94.631193,14.185795 c 1.20461,0.180578 2.19285,-0.660407 2.21028,-1.878353 0.17202,-12.017049 0.24665,0.835409 0.3433,-14.057639 0.0532,-0.954873 -0.76751,-1.84911 -1.71334,-1.990637 C 81.837492,75.037312 50.396554,70.289952 18.947854,65.59061 18.675378,65.54989 18.407543,65.53622 18.150609,65.551 Z"
       inkscape:path-effect="#path-effect41"
       inkscape:original-d="m 18.150609,65.550995 c -1.798539,0.103418 -3.149367,1.513011 -3.149367,3.441525 -0.01631,14.715621 0.08433,-0.661187 -0.108944,14.053306 L 114.6262,97.996548 c 0.19306,-15.712392 0.2705,-0.554769 0.37244,-16.262958 0.0532,-0.954873 -0.76751,-1.84911 -1.71334,-1.990637 C 81.837492,75.037312 50.396554,70.289952 18.947854,65.59061 18.675378,65.54989 18.407543,65.53622 18.150609,65.551 Z"
       sodipodi:nodetypes="sscccssss" /><path
       id="path18-9"
       style="display:inline;fill:#ffffff;fill-opacity:1;stroke:#191919;stroke-width:6.11019;stroke-dasharray:none"
       d="m 18.150609,65.550995 c -1.798539,0.103418 -3.149367,1.513011 -3.149367,3.441525 -0.01512,13.644861 0.0703,1.417229 -0.07126,11.296043 -0.02182,1.52278 1.270351,2.953345 2.883889,3.195224 l 94.631193,14.185795 c 1.20461,0.180578 2.19285,-0.660407 2.21028,-1.878353 0.17202,-12.017049 0.24665,0.835409 0.3433,-14.057639 0.0532,-0.954873 -0.76751,-1.84911 -1.71334,-1.990637 C 81.837492,75.037312 50.396554,70.289952 18.947854,65.59061 18.675378,65.54989 18.407543,65.53622 18.150609,65.551 Z"
       inkscape:path-effect="#path-effect41-2"
       inkscape:original-d="m 18.150609,65.550995 c -1.798539,0.103418 -3.149367,1.513011 -3.149367,3.441525 -0.01631,14.715621 0.08433,-0.661187 -0.108944,14.053306 L 114.6262,97.996548 c 0.19306,-15.712392 0.2705,-0.554769 0.37244,-16.262958 0.0532,-0.954873 -0.76751,-1.84911 -1.71334,-1.990637 C 81.837492,75.037312 50.396554,70.289952 18.947854,65.59061 18.675378,65.54989 18.407543,65.53622 18.150609,65.551 Z"
       sodipodi:nodetypes="sscccssss"
       transform="translate(-0.12954822,26.120927)" /><path
       style="baseline-shift:baseline;display:inline;overflow:visible;fill:#ffffff;fill-opacity:1;stroke:#191919;stroke-width:6.11019;stroke-dasharray:none;stroke-opacity:1;enable-background:accumulate;stop-color:#000000"
       d="m 36.800781,45.111328 c -5.516745,2.154201 -13.043746,6.614156 -18.020029,9.727814 -2.911811,1.821918 -2.476138,3.797095 0.918326,4.325419 l 93.872182,14.61053 a 1.4667242,1.4667242 139.49035 0 0 1.69229,-1.445845 l 0.007,-2.823203 a 1.6646702,1.6646702 59.548178 0 0 -0.85858,-1.460377 L 65.05938,40.73167 c -0.825631,-0.456945 -2.260113,-0.828547 -3.203245,-0.798639 -4.624926,0.146665 -14.759444,0.979453 -25.055364,5.178297 z"
       id="path33-2"
       sodipodi:nodetypes="sccccs"
       inkscape:original-d="M 36.800781,45.111328 C 27.832877,48.613152 13.552857,58.207946 13.552857,58.207946 l 101.706693,15.829916 0.0129,-5.515744 -51.708007,-28.617821 c -3.256059,0 -14.902766,0.36996 -26.763672,5.207031 z"
       inkscape:path-effect="#path-effect39-35"
       transform="translate(-0.3319469,-2.2173865)" /><g
       id="g30"
       transform="matrix(1.4196499,0,0,1.4196499,-26.277889,-34.33914)"
       style="display:inline"><path
         style="fill:#c9c9c9;fill-opacity:1;stroke:#191919;stroke-width:3.56449;stroke-dasharray:none"
         d="m 57,61.77595 c 0,0 0,0.71928 3,0.71928 3,0 3,-0.71928 3,-0.71928 V 45.951788 c 0,0 0,0.71928 -3,0.71928 -3,0 -3,-0.71928 -3,-0.71928 z"
         id="path20"
         sodipodi:nodetypes="csccscc" /><path
         style="fill:#f1f1f1;fill-opacity:1;stroke:#191919;stroke-width:3.56449;stroke-dasharray:none"
         d="m 57,45.951788 c 0,0 0,0.769633 3,0.769633 3,0 3,-0.769633 3,-0.769633 0,0 0,-0.769633 -3,-0.769633 -3,0 -3,0.769633 -3,0.769633 z"
         id="path26"
         sodipodi:nodetypes="cscsc" /><path
         style="fill:#fefeff;fill-opacity:1;stroke:#191919;stroke-width:3.56449;stroke-dasharray:none"
         d="m 55.394922,43.171274 c 0.413625,1.923923 2.834291,3.041789 4.80218,3.041789 1.967895,0 3.317844,-1.010543 4.098894,-2.816799 0.696509,-1.610749 0.948207,-3.009524 -1.222875,-5.550262 -1.52961,-1.790046 -2.876019,-5.401103 -2.876019,-5.401103 -1.540357,1.140423 -6.040423,4.967182 -4.80218,10.726375 z"
         id="path28-2"
         sodipodi:nodetypes="sssscs" /></g></g></svg>
